<svg xmlns="http://www.w3.org/2000/svg" xmlns:xlink="http://www.w3.org/1999/xlink" width="117.2" height="117.199" viewBox="0 0 117.2 117.199">
  <defs>
    <linearGradient id="linear-gradient" y1="0.5" x2="1" y2="0.5" gradientUnits="objectBoundingBox">
      <stop offset="0" stop-color="#ebebeb"/>
      <stop offset="1" stop-color="#fff"/>
    </linearGradient>
  </defs>
  <g id="audiologist" transform="translate(-8.2 -8.801)">
    <circle id="Ellipse_1272" data-name="Ellipse 1272" cx="58.6" cy="58.6" r="58.6" transform="translate(8.2 8.8)" fill="url(#linear-gradient)"/>
    <g id="Group_5676" data-name="Group 5676">
      <path id="Path_40328" data-name="Path 40328" d="M86.8,93.3c.4-5.1.8-10.3,1.2-15.4a7.487,7.487,0,0,0,4.3-6.2c.1-.3-.3,0,0,.1V72c0,.4-.1.8-.7.7a2.417,2.417,0,0,1-.6-2c-.2-2.1-.5-2.4-2.6-1.9-.4,0-.8.2-1.2.2-.8-4.1-1.6-8.1-2.4-12.2-1.4-1-1.6-2.4-1.5-4,1.3-1.6,3.3-2,5-2.9,1.4-.9,2.2-1.9,1.7-3.6-.3-2.3-.3-2.2-2.5-1.9a6.677,6.677,0,0,0-4.4,2.2c-.4.4-.7.8-1.4.6-.6-.4-.2-1.4-.9-1.8V45c1.6-1.3,3-2.8,5-3.5a4.69,4.69,0,0,0,2.2-.9c.8-.4,1.5-1.1,2.5-.5,4.6,4.1,8.2,8.9,11.7,13.8-1.3,1.7-3.2,2.8-4.8,4.3-.6.6-1.7,1-1.1,2.1s1.5.3,2.3.2c.3,0,.5-.1.8-.1a7.46,7.46,0,0,0,3.1-1.5c1.3-.7,1.9-.3,2.5,1a26.532,26.532,0,0,1,1.9,13.3c-.6,5.8-1.3,11.7-2.3,17.5-.6,3.1-1.3,3.8-4.4,4.3a56.773,56.773,0,0,1-10.9.3C88.1,95.3,86.6,95.3,86.8,93.3Z" fill="#eceeee"/>
      <path id="Path_40329" data-name="Path 40329" d="M64.9,53.9c1.2,3.1,1.7,6.3,2.6,9.5.2.7.1,1.2-.6,1.5-3.7,1-2.8,3.9-2.9,6.5a16.117,16.117,0,0,0-.1,3.8c-.3,1.9-.3,4-2.1,5.4-2.4.3-4.4-1.1-6.5-1.9-3.8-1.5-7.6-2.8-11.3-4.4-2.5-1.1-2.8-1.6-3-4.4-.1-1.3.8-2.9-.8-3.8-.9-.3-1.9-.4-2.5-1.2a1.583,1.583,0,0,1-.7-2.1c.7-2.8,1.3-5.6,2-8.4.5-2.1,3.4-4.2,6.2-4.5a10.869,10.869,0,0,1,1.8-.1,1.012,1.012,0,0,1,.7.4c.3.4.5.7.8,1.1,2.5,1.4,4.7,1.1,6.3-.7a3.114,3.114,0,0,1,.7-.9,1.4,1.4,0,0,1,.9-.3,3.233,3.233,0,0,1,1.7.3c1.5.4,1.3-.8,1.5-1.6a2.367,2.367,0,0,1,1.3-1.3,1.485,1.485,0,0,1,1.4.4c-.3,2.3.1,4.2,2.2,5.5C64.7,52.9,64.6,53.6,64.9,53.9Z" fill="#f7f8f8"/>
      <path id="Path_40330" data-name="Path 40330" d="M46.2,112.8c-.2.1-.3.3-.5.4a2.1,2.1,0,0,1-1.4.7c-1.9-.1-2.6.9-2.7,2.7a1.562,1.562,0,0,1-.8,1.5,9.782,9.782,0,0,1-.2-5.1c.5-1.8-.4-3.6-.8-5.3-.5-3.1-1.3-6.2-1.8-9.3a9.678,9.678,0,0,1,.1-3.8c1-.4,1.7.7,2.8.3.1-1.4-1-3.3,1.5-3.8.3-.1.1-.9,0-1.3-.3-1.1-.9-2.1-1.3-3.2s-.6-2.1.7-2.8a12.915,12.915,0,0,1,4.4-.3c4.6.1,9.3-.3,13.9.2,1.3.5,1,1.4.5,2.3a26.426,26.426,0,0,0-2,3.7,1.222,1.222,0,0,0,.6,1.8,1.872,1.872,0,0,1,.5,1.4c-.1.8-.3,1.5-1.1,1.8a1.859,1.859,0,0,1-1.5-.9,32.121,32.121,0,0,1-2.1-3c-2.5-3.7-3.1-3.7-5.4.2-.4,1.2-1.4,2-1.8,3.2a10.553,10.553,0,0,0-1.3,5.8c0,3.4.2,6.7.3,10.1a2.939,2.939,0,0,1-.6,2.7Z" fill="#3c3f50"/>
      <path id="Path_40331" data-name="Path 40331" d="M56.3,25.6a1.238,1.238,0,0,1,0,1.7c-.9.8-.2,1.5.1,1.9,1.8,2.3,2.2,3.8,1.9,6.1a.854.854,0,0,1-1.1.7c-.8-.7-1.8.2-2.7-.3-.8-.8-1.1-1.9-2.4-2.3a3.019,3.019,0,0,0-2.1-.2,1.883,1.883,0,0,1-2.8-.9c.7,2.3-.4,3.4-2.6,2.9-1.4-.4-2.2-.2-2.5,1.3a1.794,1.794,0,0,1-.5.7c-1,.5-.7,1.6-1.2,2.3-1.7,1.5-1.6,2.1,1,3.2a13.853,13.853,0,0,1,2.2,5.5c-.5.4-1.1,1.3-1.6,0-.3-.8-.9-.9-1.5-1.2a2.2,2.2,0,0,1-1.6-1.5c-.2-.8-.5-1.3-1.5-1.4a1.39,1.39,0,0,1-1.2-1c-.2-1.2-1-1.5-2.7-1.3,1.8-1.3,1.5-2.4.9-3.6a2.4,2.4,0,0,1-.3-1.3c1.5-2.2.3-5.1,2.1-7.3,1.3-1.6,2.2-3.5,4.2-4.2,1.1-.3,2.4,0,2.7-1.7.1-.4.8-.7.9.2,0,.3.2.3.4.3,3.5-.6,6.5,1.2,9.6,2.3.7.3,1.3.3,1.6-.6C55.8,25.6,55.9,25.5,56.3,25.6Z" fill="#1d1d1b"/>
      <path id="Path_40332" data-name="Path 40332" d="M92.1,28.1a12.155,12.155,0,0,1-4.5,8.4c-1.3-.4-1.4-1.8-2.2-2.6-.6-1-1.5-1.8-2.2-2.8a2.977,2.977,0,0,1-.6-2.2c.3-2,.2-2.1-1.6-1.5-1.6,1.5-2,1.6-3.5.2-1.2-1.2-2-.9-3.2.1-1.5,1.3-3.3,2.5-5.5,1.7-5.3-.2-4.9.8-3.3-4.9.1-.3.3-.6.4-.9.5-.8,1.4-.8,2.2-.8,3.7-.1,7.4-.4,10.7-2.4a2.865,2.865,0,0,1,3.4.3c1.5,1,2.8,2.1,4.4,3a9.927,9.927,0,0,0,3,1.2C92.5,25.2,92.5,25.2,92.1,28.1Z" fill="#191919"/>
      <path id="Path_40333" data-name="Path 40333" d="M40.4,39.3c-.4-1.1-.8-2.2.9-2.4.2.2.3.1.4,0s0-.2-.1-.3c.2-2.5.8-2.9,3-1.9a1.8,1.8,0,0,0,2.2-.3c.2-.2.4-.7.3-.9-.2-.6-.5-.3-.9,0-.3.3-.6.1-.7-.3-.1-.7.4-1.3.8-1.1a8.535,8.535,0,0,0,5,.4c.8-.1,3.4.8,3.3,3.1,1.7.9,1.1,2.7,1.7,4a12.088,12.088,0,0,1,.6,3.8c-.4,1.8-1.7,1.9-3.1,1.8A8.776,8.776,0,0,1,51.7,44,3.866,3.866,0,0,0,47,45.1c-.3.4-.6.8-.4,1.3.2.6.8.2,1.2.3a3.553,3.553,0,0,1,1,.2c.3.3.5.6.9.6-.3-.1-.7-.2-.6-.7a3.755,3.755,0,0,1,4.2-1.1,2.132,2.132,0,0,1,.2,2.3,3.819,3.819,0,0,1-.9.9c-1.2.4-2.5.3-3.7.8a5.759,5.759,0,0,1-2.9-.5c-.9,0-1.6-.7-2.4-.9-1.5-1.4-1.8-3.5-2.5-5.3a3.209,3.209,0,0,1-.7-3.7Z" fill="#fac6a3"/>
      <path id="Path_40334" data-name="Path 40334" d="M92.1,28.1c.2-1.9-.5-2.5-2.6-2.7-3-.3-5.3-2.5-7.7-4.3A2.026,2.026,0,0,0,79,21c-3.6,2.3-7.6,2.5-11.7,2.4H65.9c2-6.6,11.5-10.5,17.3-8.7a12.348,12.348,0,0,1,7.4,5.5C92,22.8,92.9,25.3,92.1,28.1Z" fill="#333"/>
      <path id="Path_40335" data-name="Path 40335" d="M64.9,53.9a8.483,8.483,0,0,0-2.6-2.4c-1.5-.6-1.4-1.5-.7-2.6a2.976,2.976,0,0,0,.5-1.5,1.691,1.691,0,0,1,1.4-.1c1.7.6,3.3,1.3,4.9,2a1.8,1.8,0,0,0,1.2.3c.5-.1.9-.5,1.4-.1,3.4,2.1,5.9,1.5,9.6-2.4a.75.75,0,0,1,.9,0,9.984,9.984,0,0,1,6-3.5c3-.4,3.3.5,3,2.7.7,1.9-.6,2.8-2,3.6-1.5.9-3.1,1.6-4.6,2.4a44.181,44.181,0,0,1-9.7,4.9c-2.8-1.2-5.6-2.4-8.3-3.7C65.1,53,64.8,53,64.9,53.9Z" fill="#f2f2f2"/>
      <path id="Path_40336" data-name="Path 40336" d="M86.8,93.3c.3,1.1,1.2,1.2,2.1,1.2a81.586,81.586,0,0,0,12.1-.4c2.1-.3,2.6-1.5,2.8-3.3.7-5.4,1.3-10.8,2.1-16.2a30.111,30.111,0,0,0-.9-13c-.9-3.1-.9-3.1-3.5-1.5-.7.4-1.4,1.4-2.5.6a13,13,0,0,1,4.9-4.1,22.927,22.927,0,0,1,3.7,11.1c.9,8.2-.5,16.2-.5,24.4,0,.2-.1.4-.1.6.3,3.7-1.4,5.6-5.2,5.4-1.1,1.1-2.5.8-3.8,1.1a23.479,23.479,0,0,1-5.3,0,2.968,2.968,0,0,1-1.9-1,12.859,12.859,0,0,1-1.9-.4C86.2,97.1,85.8,96.3,86.8,93.3Z" fill="#d4d6d5"/>
      <path id="Path_40337" data-name="Path 40337" d="M66.1,93.3a12.584,12.584,0,0,1-.5,7.9c-1.2,3.7-2.7,7.3-3.5,11.1a1.658,1.658,0,0,1-.8,2.1c-1.6.5-3.2.7-4.7-.5.1-1.4-1-2.7-.3-4.2.5-4.9,1.5-9.6,2.2-14.5a1.272,1.272,0,0,1,.9-.7c2.4-.8,2.8-1.4,3-3.8.1-1.3,0-2.6.1-3.8.1-.8,0-1.7,1.1-1.9.3.5.5.9.8,1.4,1,1,1,2.5,1.4,3.8a4.827,4.827,0,0,1,.3,3.1Z" fill="#3b3e4f"/>
      <path id="Path_40338" data-name="Path 40338" d="M68.9,29.2c2.5-.5,4.9-1.3,6.5-3.4.5-.7.9-.6,1.3.1a6.469,6.469,0,0,0,.8.9c1.1,1.1,2.2,2.1,3.1-.1a.349.349,0,0,1,.2.1,2.742,2.742,0,0,0,2.1,1.8l.2.2c-.3,1.1.4,1.7,1.1,2.4A7.22,7.22,0,0,1,86,33.6c.8,2.3-.6,3.8-1.9,5.2a7.892,7.892,0,0,1-3,1.2c-.7,0-1.4-.1-2-.1-.7-.9,0-1.8,0-2.7,0-.7,0-1.4-.6-1.8s-1.1.2-1.6.5c-1.1.6-2,1.6-3.5,1-.8-.6-1.4-1.6-2.8-1.1-1,.4-1.4-.4-1.3-1.4a18.833,18.833,0,0,0-.4-5.2Z" fill="#fbc4a3"/>
      <path id="Path_40339" data-name="Path 40339" d="M41.3,84.4c-.2,1.3.6,2.3,1.1,3.4a6.781,6.781,0,0,1,.9,3.7c-.1.5-.1,1.2-.7,1.3-.8.1-.3-.9-.7-1.3-1.3,1.5-.3,2.9.3,4.4-1.6.1-3,.1-4-1.2-.2-.5-.3-1-.5-1.6-.6-.7-.4-1.6-.4-2.4a5.792,5.792,0,0,1,1.2-4.2,36.246,36.246,0,0,0-1.7-8.7c-1-3.3-.5-6.4.3-9.5a34.019,34.019,0,0,0,.7-3.4c.9.1,1.8.3,2.8.4,1.7.4.9,1.8,1,2.8-1.3,4.9-.9,9.8.1,14.7a2.934,2.934,0,0,1-.4,1.6Z" fill="#fac6a2"/>
      <path id="Path_40340" data-name="Path 40340" d="M63.6,85.1c-.7.7-.4,1.7-.4,2.5,0,1.3.1,2.6,0,3.8-.3,3.1-1,3.8-4.3,4-.8,0-.7-.4-.5-.9a1.859,1.859,0,0,0,.9-1.5,1.934,1.934,0,0,0,0-1.3c-.1-.2-.1-.5-.2-.7a.908.908,0,0,1-.3.7c-.7.7-.9.2-1-.4a5.008,5.008,0,0,1,.9-3.4c.7-1.2,1.7-2.1,2-3.5-.6-.8-.2-1.6,0-2.5a2.335,2.335,0,0,1,1-1.6,19.309,19.309,0,0,0,1.5-5.2,8.132,8.132,0,0,0,0-3.8,12.917,12.917,0,0,0-.1-3.4c-.5-1.9.2-2.7,2.1-2.8a9.97,9.97,0,0,0,1.6-.2c.2,2.7.4,5.3.7,8a5.829,5.829,0,0,1-.6,2.9C65.9,78.9,64.4,81.9,63.6,85.1Z" fill="#fac6a3"/>
      <path id="Path_40341" data-name="Path 40341" d="M90.3,113.2c.2-4.5,0-9,.5-13.4.7-.6,1.4-.1,2.1.2.8.4,1.6,1.1,2.4,1.4,2.6,1,3.4,3.1,3.1,5.6a23.524,23.524,0,0,1-1,5.8,2.092,2.092,0,0,1-.4.6c-.9.9-2,.7-3.1.9A3.868,3.868,0,0,1,90.3,113.2Z" fill="#36546e"/>
      <path id="Path_40342" data-name="Path 40342" d="M57.1,109.9a27.129,27.129,0,0,0-.4,4.1c-.1.2-.2.2-.3.1-.1-2.7-2.4-2.3-4-2.9a2.267,2.267,0,0,1-2.3.7,7.519,7.519,0,0,0-1.5,0,22.5,22.5,0,0,1-2.4.8v-2.8c.4-.5.7-1,1.3-1.2,2.1-.6,2.4-2.2,2.3-4.1s0-3.8,0-5.7a3.468,3.468,0,0,1,.8-2.7,1.987,1.987,0,0,1,2.1,0c.7.6.5,1.5.5,2.3.1,2.4-.1,4.8.1,7.2a3.431,3.431,0,0,0,2.4,3.1A4.031,4.031,0,0,1,57.1,109.9Z" fill="#818286"/>
      <path id="Path_40343" data-name="Path 40343" d="M97,112.9c.3-2.5.5-5.1.8-7.6a1.973,1.973,0,0,0-1.3-2.2c-1.9-1-3.7-2.1-5.6-3.2V98.3a58.461,58.461,0,0,0,7.3.4,1.682,1.682,0,0,1,.9,1.7,4.869,4.869,0,0,1-.1,1.2c-.3,2.2-.2,4.3,2.4,5.3a42.469,42.469,0,0,1-.8,6.1A2.74,2.74,0,0,1,97,112.9Z" fill="#253b4a"/>
      <path id="Path_40344" data-name="Path 40344" d="M74.2,57.1c2-1.7,4.5-2.7,6.9-3.9a18.344,18.344,0,0,0,2.4-1.3c.3.3.2.5,0,.8.4,1.4.8,2.7,1.2,4.1-.2.2-.5.3-.6.5-2,2.6-4.1,3-6.9,1.5C76.2,58.2,75.2,57.7,74.2,57.1Z" fill="#e2e2e2"/>
      <path id="Path_40345" data-name="Path 40345" d="M87.2,69c.5-2.2,2.3-1,3.5-1.2s1,1,1,1.8v3c.5,2.6-1.2,4.7-3.7,4.5A44.476,44.476,0,0,1,87.2,69Z" fill="#fdfefe"/>
      <path id="Path_40346" data-name="Path 40346" d="M103.9,56.8A13,13,0,0,1,99,60.9c-1.1.5-2.2,2.1-3.4-.1-.6-1.1-.5-1.6.5-2.3,2.1-1.3,3.6-3.7,6.1-4.5C102.7,54.9,103.3,55.8,103.9,56.8Z" fill="#fefefe"/>
      <path id="Path_40347" data-name="Path 40347" d="M40.9,118.1v-.2c.2-4.8.2-4.8,4.8-4.7a18.155,18.155,0,0,1,1.1,3c.4,1.5.2,2.8-1.5,3.5a3.521,3.521,0,0,1-4.4-1.6Z" fill="#232021"/>
      <path id="Path_40348" data-name="Path 40348" d="M56.4,114.1c.1,0,.2-.1.3-.1,1.5,0,3,0,4.5.1a1.682,1.682,0,0,1,.8,2.2c-.3.8,0,1.6-.3,2.3a3.842,3.842,0,0,1-4.8,1.6c-1.8-.7-1.6-2.1-1.3-3.6a18.285,18.285,0,0,1,.8-2.5Z" fill="#242122"/>
      <path id="Path_40349" data-name="Path 40349" d="M86,41.8c-1.9.9-2.9,3.1-5.2,3.2-.6-1.8-.8-3.6,1.2-4.8a4,4,0,0,1,1.9-1.5c1-.6,1.7-1.9,3.2-1.5,1.6-.6,2.2.7,2.9,1.7a6.237,6.237,0,0,1-4,2.9Z" fill="#fdfefe"/>
      <path id="Path_40350" data-name="Path 40350" d="M90.3,113.2c1.3.2,2.5.3,3.8.5,1.8,1.3,1.8,3-.2,4a11.79,11.79,0,0,1-6.7,1.1c-1.1-.2-2.5.5-3.2-1C86.2,116.2,88.3,114.7,90.3,113.2Z" fill="#543b2b"/>
      <path id="Path_40351" data-name="Path 40351" d="M84.1,117.7a15.3,15.3,0,0,0,9.9-.8c1.7-.7.9-2.1.1-3.2a6.632,6.632,0,0,0,2.8-.5c1.4,1.2.5,3.2,1.3,4.6-4,2.3-8.4,2-12.8,1.6C83.9,119.3,83.8,119,84.1,117.7Z" fill="#4c3326"/>
      <path id="Path_40352" data-name="Path 40352" d="M101.3,106.7c-2.5.1-3-.5-3.2-2.6-.1-1.8.6-3.7,0-5.5a15.534,15.534,0,0,1,3.7-.4,40.068,40.068,0,0,1-.5,8.5Z" fill="#243640"/>
      <path id="Path_40353" data-name="Path 40353" d="M68.5,49.9a25.359,25.359,0,0,1-5.2-2c-1-.9-.7-1.9-.2-2.9a4.1,4.1,0,0,1,4-1.8c1.3,0,1,1.4,1.8,1.8.1.3.3.5.4.8-.3.6.4,1.1.3,1.7a14.272,14.272,0,0,0-.8,2.2C68.7,49.8,68.6,49.8,68.5,49.9Z" fill="#f9c4a3"/>
      <path id="Path_40354" data-name="Path 40354" d="M49.9,111.6c.7-.8,1.7,0,2.5-.4.1.5-.7.8-.1,1.4,1.2,1.1,1.1,2.4-.1,3.5a2.3,2.3,0,0,1-3.1,0c-1.2-1.1-1-2.4-.1-3.6C49.2,112.1,49.4,111.7,49.9,111.6Z" fill="#595c5d"/>
      <path id="Path_40355" data-name="Path 40355" d="M98.3,117.7c-1.3-.3-1.2-1.1-1.1-2.2a9.862,9.862,0,0,0-.3-2.4.367.367,0,0,1,.1-.3h3.6C101.6,116.4,101.3,117.2,98.3,117.7Z" fill="#3d291f"/>
      <path id="Path_40356" data-name="Path 40356" d="M59.1,34.9c.3-1.7.8-3.1,2.8-3.3.1.1.2.1.3.2.6.9.3,1.9.4,2.9-.1,1.3,1,2.4.6,3.7a1.057,1.057,0,0,1-.6.7c-1.7.2-2.7-.7-3.5-2A1.961,1.961,0,0,1,59.1,34.9Z" fill="#dfe1e1"/>
      <path id="Path_40357" data-name="Path 40357" d="M65.3,90.5a9.237,9.237,0,0,1-.8-4c3.2.1,4.2,1.4,2.9,4a1.449,1.449,0,0,1-2.1,0Z" fill="#4f5051"/>
      <path id="Path_40358" data-name="Path 40358" d="M87.1,37.2c-1,.6-2.1,1.1-3.1,1.7-.5.2-.5-.1-.5-.4A7.77,7.77,0,0,0,86,33.6a11.235,11.235,0,0,1,1.6,2.8A5.581,5.581,0,0,1,87.1,37.2Z" fill="#e99a82"/>
      <path id="Path_40359" data-name="Path 40359" d="M88,77.1a4.61,4.61,0,0,0,3.7-4.5c.5-.4.3-1.1.7-1.7.3,4.5-1,6.4-4.4,7C88,77.6,88,77.4,88,77.1Z" fill="#dadcdb"/>
      <path id="Path_40360" data-name="Path 40360" d="M61.7,118.5a17.262,17.262,0,0,0-.5-4.5c.3-.6.6-1.1.9-1.7,1.5.8,1.5,2.1.8,3.3C62.3,116.6,62.2,117.6,61.7,118.5Z" fill="#7f8286"/>
      <path id="Path_40361" data-name="Path 40361" d="M63,38.5c-.2-1.3-1-2.3-.9-3.7a6.92,6.92,0,0,0,0-3.2H62c.7-.7,1.1-.1,1.4.4a19.99,19.99,0,0,0,.7,4.9c0,.4.2.8,0,1.2l-.4.4C63.4,38.7,63.2,38.7,63,38.5Z" fill="#909294"/>
      <path id="Path_40362" data-name="Path 40362" d="M64.1,40.1c.5.4,1.3.5,1.6,1.2-.2,1.9-1.7,1.9-3,2.2-1.1-.8-.7-1.7-.2-2.6A2.469,2.469,0,0,1,64.1,40.1Z" fill="#bec3c2"/>
      <path id="Path_40363" data-name="Path 40363" d="M38.4,86.5a13.442,13.442,0,0,1-.7,4c-.3.2-.5.2-.7-.1C36.1,88.4,36.4,87.6,38.4,86.5Z" fill="#595a59"/>
      <path id="Path_40364" data-name="Path 40364" d="M65.3,90.5h2c.7,1.5.3,2.4-1.3,2.9a24.6,24.6,0,0,0-.7-2.9Z" fill="#7e8286"/>
      <path id="Path_40365" data-name="Path 40365" d="M67.2,43.4a6.424,6.424,0,0,0-3.5,1.7.839.839,0,0,1-.6-1.2,8.393,8.393,0,0,1,3.4-1.7c.1.4.2.8.7.9.2.1.2.1.2.2C67.3,43.3,67.3,43.4,67.2,43.4Z" fill="#dedcd8"/>
      <path id="Path_40366" data-name="Path 40366" d="M69.3,47.5c-.1-.6-.7-1.1,0-1.7.6,1.2,1.6,2.2,1.7,3.6-.4.3-.9.5-1.3.8-.4-.4-.3-1-.5-1.5C69.3,48.3,69.2,47.9,69.3,47.5Z" fill="#ec967f"/>
      <path id="Path_40367" data-name="Path 40367" d="M86,41.8c1.3-1,2.7-1.9,4-2.9.1.4.3.8.4,1.2a9.731,9.731,0,0,0-3.5,1.8C86.7,42.1,86.2,42.7,86,41.8Z" fill="#dadfde"/>
      <path id="Path_40368" data-name="Path 40368" d="M59.1,34.9c.1.7.3,1.3.4,2a.891.891,0,0,1-.8.5,2.854,2.854,0,0,1-1.3,0c-.6-.2-1.1-.4-1.1-1.1,0-.5.4-.6.8-.6.4-.1.8-.3,1.1-.4C58.6,35.1,58.9,35,59.1,34.9Z" fill="#adb3b1"/>
      <path id="Path_40369" data-name="Path 40369" d="M66.4,42.1a8.274,8.274,0,0,1-3.2,1.7c-.4.1-.5-.1-.5-.4.8-.9,2.3-.9,2.9-2a5.717,5.717,0,0,1,.8.7Z" fill="#a4a6a6"/>
      <path id="Path_40370" data-name="Path 40370" d="M67.2,43.4a.6.6,0,0,0-.1-.4c.2-.5.1-1.2.8-1.2.6,0,.5.6.6,1.1l.3,2.1C67.8,45,67.9,43.8,67.2,43.4Z" fill="#ea9a80"/>
      <path id="Path_40371" data-name="Path 40371" d="M64.1,40.1c-.1.8-.6.9-1.2.8a1.384,1.384,0,0,1-.5-2.2l.6-.3h.7C63.8,39,64,39.6,64.1,40.1Z" fill="#999a9a"/>
      <path id="Path_40372" data-name="Path 40372" d="M37,90.4a1.7,1.7,0,0,1,.7.1v2.6C36.3,92.5,36.9,91.4,37,90.4Z" fill="#828689"/>
      <path id="Path_40373" data-name="Path 40373" d="M83.6,38.5c.2.1.3.3.5.4a5.328,5.328,0,0,1-2,1.3c-.3,0-.6-.1-.9-.1a24.971,24.971,0,0,1,2.4-1.6Z" fill="#eda48b"/>
      <path id="Path_40374" data-name="Path 40374" d="M81.5,47h-.9c0-.5.1-1.1.1-1.6C82.1,45.4,82,46.2,81.5,47Z" fill="#e4e5e5"/>
      <path id="Path_40375" data-name="Path 40375" d="M56.3,25.6c-.1.1-.2.3-.4.4-.2-.3-1.1-.2-.7-.8C55.5,24.8,56.1,24.9,56.3,25.6Z" fill="#4c5b5b"/>
      <path id="Path_40376" data-name="Path 40376" d="M83.6,52.7v-.8c1.7-.9,3.4-1.7,5-2.6,1.1-.7,2.1-1.6,1.9-3.1,1,1.8,0,3-1.4,3.8a23.4,23.4,0,0,1-5.5,2.7Z" fill="#d9dbda"/>
      <path id="Path_40377" data-name="Path 40377" d="M61.7,80.4c-.1.6,0,1.2-.5,1.6a2.709,2.709,0,0,1-2,.8H43.4a3.287,3.287,0,0,1-1.7-.4,2.36,2.36,0,0,1-.7-1.6,41.661,41.661,0,0,1,.4-12.7c0-1,.4-2.1-.8-2.7,1.1,0,1.5.3,1.4,1.6-.6,5-.6,5.2,3.9,7.1C51,76.3,56.4,78.3,61.7,80.4Z" fill="#f2f2f3"/>
      <path id="Path_40378" data-name="Path 40378" d="M57.2,44a17.861,17.861,0,0,1,3.6,3.1,8.342,8.342,0,0,0-.8,1.2c-.3.2-.5.6-.8.7-.1,0-.3.1-.4,0a1.421,1.421,0,0,1-.6-.2c0,.2.3.2.3.5a1.346,1.346,0,0,1-.5.9c-.6-.1-1.1-.3-1.7-.4-.6-.4-1.3.1-1.9-.2-.8-.3-1.4-.8-1.3-1.7.6-.6.4-1.4.4-2.1-.3-.6,0-.9.4-1.2,1-.2,2.3.3,2.7-1.2a.53.53,0,0,1,.6.6Z" fill="#facdb8"/>
      <path id="Path_40379" data-name="Path 40379" d="M55.2,50.7c-1.4,2.5-4.9,2.9-7.4.8.5-.7,1.6-.2,2.1-1a2.092,2.092,0,0,1,.6-.4,2.462,2.462,0,0,1,1.2.1c.1,0,.3-.1.4-.1a.9.9,0,0,1,.5-.1h.5c.6.2,1.2,0,1.8.3C55,50.4,55.1,50.6,55.2,50.7Z" fill="#ee9883"/>
      <path id="Path_40380" data-name="Path 40380" d="M50.3,50.7c-.1,2.4-1.7.3-2.4.8a1.457,1.457,0,0,1-.5-1.2,1.222,1.222,0,0,1,.9-.4c.6.4,1.3,0,1.9.5a.367.367,0,0,0,.1.3Z" fill="#ec967b"/>
      <path id="Path_40381" data-name="Path 40381" d="M59.1,48.7c.3-.1.6-.3.9-.4.1,1.5-.4,2.3-2,2,.1-.3.2-.5.3-.8A2.047,2.047,0,0,1,59.1,48.7Z" fill="#ed9782"/>
      <path id="Path_40382" data-name="Path 40382" d="M55.4,49.9c-.1.3-.1.5-.2.8l-.2-.1c-.7-.5-1.6.2-2.4-.4h0a.783.783,0,0,1-.1-.8,1.072,1.072,0,0,1,.6-.2C53.9,49.5,54.8,49.3,55.4,49.9Z" fill="#ee9883"/>
      <path id="Path_40383" data-name="Path 40383" d="M41.7,82H61.2a6.436,6.436,0,0,1-.5,2.4H41.3c-.1-.3-.2-.7-.3-1C41.1,82.8,41.1,82.2,41.7,82Z" fill="#242d39"/>
      <path id="Path_40384" data-name="Path 40384" d="M50.6,93.3a4.152,4.152,0,0,0-3.1,0c.5-.9,1.1-1.9,1.6-2.8a6.316,6.316,0,0,1,6.5-.1c.7,1,1.3,1.9,2,2.9-.3-.1-.7-.1-1-.2-2.9-.4-3-.3-3.1,2.7,0,3,0,5.9-.1,8.9,0,.7.2,1.4-.3,2-.8-3.3-.2-6.7-.4-10.1C52.3,95.3,52.6,93.6,50.6,93.3Z" fill="#828487"/>
      <path id="Path_40385" data-name="Path 40385" d="M55.5,90.5c-2.2,0-4.3,0-6.5.1a8.65,8.65,0,0,0,.7-1c2.3-3.2,3.2-3.2,5.4.2a1.612,1.612,0,0,1,.4.7Z" fill="#515152"/>
      <path id="Path_40386" data-name="Path 40386" d="M58.8,91.7c0-.4-.1-.8.2-1.1a1.853,1.853,0,0,1,.2,2.5C59.1,92.6,59.2,92.1,58.8,91.7Z" fill="#665959"/>
      <path id="Path_40387" data-name="Path 40387" d="M40.4,39.3c.3,1.2.6,2.5.9,3.7a2.56,2.56,0,0,1-1.9-.4,2.006,2.006,0,0,1-.9-2.2C38.7,39.2,39.7,39.4,40.4,39.3Z" fill="#e6927b"/>
      <path id="Path_40388" data-name="Path 40388" d="M57.2,35.7c-.8.6-.3.9.3,1.2.7,1.7-.5,2.2-1.7,2.8-.4-1.4-.7-2.8-1.1-4.1C55.6,35,56.4,34.3,57.2,35.7Z" fill="#e2937d"/>
      <path id="Path_40389" data-name="Path 40389" d="M80.6,26.6a1.745,1.745,0,0,1,2.5.1,1.17,1.17,0,0,1,0,2h0a9.141,9.141,0,0,1-2.4-2Z" fill="#edbb9f"/>
      <path id="Path_40390" data-name="Path 40390" d="M55.8,39.7c.1-1.2,1.8-1.5,1.7-2.8h1.2A12.7,12.7,0,0,1,57.2,44l-.6-.6C56.4,42.1,56.1,40.9,55.8,39.7Z" fill="#252421"/>
      <path id="Path_40391" data-name="Path 40391" d="M52.7,49.5v.8h-.4c-.5.1.1,1.1-.8.8l-.8-.8c-.6-.2-.7-.9-1.2-1.2h-.1a3.639,3.639,0,0,1,3.2-.4.521.521,0,0,1,.1.8Z" fill="#f29684"/>
      <path id="Path_40392" data-name="Path 40392" d="M49,47.1c.1,0,.2-.1.3-.1.5,0,1.1.1,1.6.1C50.3,47.5,49.6,48.5,49,47.1Z" fill="#f7bf9f"/>
      <path id="Path_40393" data-name="Path 40393" d="M69.8,48.7c.5.5-.1,1-.1,1.5a1.093,1.093,0,0,1-1.2-.4h0C68.9,49.4,69,48.6,69.8,48.7Z" fill="#b1a29c"/>
      <path id="Path_40394" data-name="Path 40394" d="M80.7,26.7c1.2.2,2.3.5,2.4,2C81.2,29.4,80.7,28.4,80.7,26.7Z" fill="#ed9d83"/>
      <path id="Path_40395" data-name="Path 40395" d="M50.6,93.3c.7-.3,1.7-.8,2.2-.1a3.447,3.447,0,0,1-.1,3.4,13.4,13.4,0,0,1-2-.1C50.7,95.5,50.6,94.4,50.6,93.3Z" fill="#5d6062"/>
      <path id="Path_40396" data-name="Path 40396" d="M69.8,48.7c-.4.4-.9.8-1.3,1.2-.1-.9-.2-1.8.8-2.4a6.118,6.118,0,0,1,.5,1.2Z" fill="#e2d9d8"/>
      <path id="Path_40397" data-name="Path 40397" d="M62.1,31.6a3.309,3.309,0,0,1,0,3.2Z" fill="#8c8e87"/>
      <path id="Path_40398" data-name="Path 40398" d="M49.4,49.1q1.35-.15,1.2,1.2l-.4.4h0c-.3-.3-.8-.4-.9-.9a1.7,1.7,0,0,0,.1-.7Z" fill="#e79e81"/>
      <path id="Path_40399" data-name="Path 40399" d="M49.3,49.8l.9.9a4.958,4.958,0,0,1-2-.8C48.6,49.9,49,49.8,49.3,49.8Z" fill="#f39181"/>
      <path id="Path_40400" data-name="Path 40400" d="M59.1,48.7a.969.969,0,0,1-.8.7c-.2-.4-1.1-.3-.8-1.1.1-.3.1-.7.6-.7.4,0,.4.3.3.7C58.3,48.8,58.9,48.6,59.1,48.7Z" fill="#f8cbb8"/>
      <path id="Path_40401" data-name="Path 40401" d="M52.7,50.3c.8.1,1.7-.3,2.4.4C54.3,50.5,53.3,51.4,52.7,50.3Z" fill="#ec9b79"/>
      <path id="Path_40402" data-name="Path 40402" d="M51.5,51.1a2.112,2.112,0,0,0,.4-1c.3-.5.3,0,.4.2C52.1,50.6,52.6,51.7,51.5,51.1Z" fill="#e79e81"/>
    </g>
  </g>
</svg>
