<svg xmlns="http://www.w3.org/2000/svg" xmlns:xlink="http://www.w3.org/1999/xlink" width="119.4" height="117.199" viewBox="0 0 119.4 117.199">
  <defs>
    <linearGradient id="linear-gradient" y1="0.5" x2="1" y2="0.5" gradientUnits="objectBoundingBox">
      <stop offset="0" stop-color="#ebebeb"/>
      <stop offset="1" stop-color="#fff"/>
    </linearGradient>
    <clipPath id="clip-path">
      <circle id="Ellipse_1275" data-name="Ellipse 1275" cx="58.6" cy="58.6" r="58.6" transform="translate(6 8.8)"/>
    </clipPath>
    <linearGradient id="linear-gradient-2" x1="0.573" y1="1.062" x2="0.358" y2="0.009" gradientUnits="objectBoundingBox">
      <stop offset="0" stop-color="#56c3bb"/>
      <stop offset="1" stop-color="#6ac8c3"/>
    </linearGradient>
    <linearGradient id="linear-gradient-3" x1="0.382" y1="0.304" x2="0.618" y2="1.124" gradientUnits="objectBoundingBox">
      <stop offset="0" stop-color="#58c4bd"/>
      <stop offset="0.979" stop-color="#6ac8c3"/>
    </linearGradient>
    <linearGradient id="linear-gradient-4" x1="0.388" y1="0.272" x2="0.66" y2="1.053" xlink:href="#linear-gradient-3"/>
    <linearGradient id="linear-gradient-5" x1="0.885" y1="1.093" x2="0.284" y2="0.243" xlink:href="#linear-gradient-2"/>
    <linearGradient id="linear-gradient-6" x1="1.095" y1="0.415" x2="-0.192" y2="0.556" xlink:href="#linear-gradient-2"/>
    <linearGradient id="linear-gradient-7" x1="1.099" y1="0.424" x2="-0.192" y2="0.569" xlink:href="#linear-gradient-2"/>
    <linearGradient id="linear-gradient-8" x1="0.576" y1="1.008" x2="0.422" y2="0.084" xlink:href="#linear-gradient-2"/>
    <radialGradient id="radial-gradient" cx="0.494" cy="0.498" r="0.674" gradientTransform="matrix(0.664, 0.187, -0.099, 0.771, 45.518, 89.813)" gradientUnits="objectBoundingBox">
      <stop offset="0" stop-color="#f9aa88"/>
      <stop offset="0.355" stop-color="#f9ad89"/>
      <stop offset="0.631" stop-color="#fab48b"/>
      <stop offset="0.88" stop-color="#fcc190"/>
      <stop offset="0.898" stop-color="#fcc290"/>
    </radialGradient>
    <radialGradient id="radial-gradient-2" cx="0.496" cy="0.487" r="0.647" gradientTransform="matrix(0.696, -0.164, 0.094, 0.797, -77.217, 153.39)" xlink:href="#radial-gradient"/>
  </defs>
  <g id="cardiac_surgeon" transform="translate(-6 -8.801)">
    <circle id="Ellipse_1274" data-name="Ellipse 1274" cx="58.6" cy="58.6" r="58.6" transform="translate(8.2 8.8)" fill="url(#linear-gradient)"/>
    <g id="Group_5703" data-name="Group 5703">
      <g id="Group_5689" data-name="Group 5689" clip-path="url(#clip-path)">
        <path id="Path_40513" data-name="Path 40513" d="M43.6,56.2S63.7,60,65.5,60a3.168,3.168,0,0,0,2.7-1.9L44,55Z" fill="#d5edec"/>
        <path id="Path_40514" data-name="Path 40514" d="M60.1,57l8.1,1a3.574,3.574,0,0,1-2.7,1.9c-.7,0-4.3-.6-8.3-1.3A10.244,10.244,0,0,0,60.1,57Z" fill="#d5edec"/>
        <g id="Group_5680" data-name="Group 5680">
          <path id="Path_40515" data-name="Path 40515" d="M45.3,49a21.776,21.776,0,0,0,4.5,3.3c.4.3.8.5,1.2.8h0a21.05,21.05,0,0,0,9.1,3.8c.5,3.9,1.5,9.4,2.9,11.1,2.7,3.3-20.2-1.5-20.2-1.5A37.653,37.653,0,0,0,45.3,49Z" fill="#fcc290"/>
          <path id="Path_40516" data-name="Path 40516" d="M57.8,62.7c-2.5-.6-5.6-3.4-8.2-1.9-1.1.6-1.7,2.3-2.2,3.4a26.542,26.542,0,0,0-1.1,3c-2.1-.4-3.5-.7-3.5-.7A37.653,37.653,0,0,0,45.3,49a21.776,21.776,0,0,0,4.5,3.3c.4.3.8.5,1.2.8h0a21.05,21.05,0,0,0,9.1,3.8,63.678,63.678,0,0,0,1.1,6.3A19.932,19.932,0,0,1,57.8,62.7Z" fill="#f3a06e"/>
        </g>
        <path id="Path_40517" data-name="Path 40517" d="M44.1,24.1s-4,8.1-3.6,11.8c.4,3.8,3.6,1.5,3.6,1.5l.1-11Z" fill="#4c2627"/>
        <path id="Path_40518" data-name="Path 40518" d="M43,29.4c-.1-2.2,9.2-3.3,10.2-3.8,0,0,11.7-1,12.7,4.8.3,1.7.1,4.2.3,6.3a38.182,38.182,0,0,0,1.2,7.4.9.9,0,0,0,.1.5v1.3a.367.367,0,0,1-.1.3,9.162,9.162,0,0,0-.1,3.3c-1.9,2.9-5.6,6.8-9.4,6.7-5.6-.1-13.2-5.9-13-6.6C45.1,48.8,43.1,31.6,43,29.4Z" fill="#fcc290"/>
        <g id="Group_5681" data-name="Group 5681">
          <path id="Path_40519" data-name="Path 40519" d="M43.9,35.7s-1.6-3.1-4.1-.7a4.23,4.23,0,0,0,.7,6.6c1.6.9,3.3,1.4,3.4,1.6C44.1,43.4,44.4,36.7,43.9,35.7Z" fill="#fcc290"/>
          <path id="Path_40520" data-name="Path 40520" d="M40.2,36.5c0,.1-.1.1-.2.2s-.3.1-.3-.1a.6.6,0,0,1,.1-.4c.4-.8,1.4-.6,1.9-.4,1.7.6,1.8,2.8,1.6,4.4-.6,1.8-2.8-.6-2.1-1.9a3.942,3.942,0,0,0,.5-1.4.824.824,0,0,0-1-.7c-.1,0-.2.1-.3.2C40.3,36.4,40.3,36.5,40.2,36.5Z" fill="#f19d6e"/>
        </g>
        <path id="Path_40521" data-name="Path 40521" d="M61.3,29a96.213,96.213,0,0,0-14.2.3,9.917,9.917,0,0,0-4,1.6,9.507,9.507,0,0,1-.1-1.4c-.1-2.2,9.2-3.3,10.2-3.8,0,0,11.4-1,12.7,4.6A13.291,13.291,0,0,0,61.3,29Z" fill="#f3a06e"/>
        <path id="Path_40522" data-name="Path 40522" d="M62.7,34.7c1-.3,2.6.4,3.5,1.2a5.739,5.739,0,0,0,.1,1.2,3.19,3.19,0,0,1-2.7,2A3.437,3.437,0,0,1,60.3,37l.1-.1a3.778,3.778,0,0,1,2.3-2.2Z" fill="#f3a06e"/>
        <path id="Path_40523" data-name="Path 40523" d="M68.8,82.4c-.4-2.3-8.8-12.8-15.5-18.1a14.549,14.549,0,0,0,5.1-1.1,11.911,11.911,0,0,0,3.1-2.3c2.1,1.2,5.1,2.9,7.7,4.5,7.3,4.3,3.8,2,5.7,6.7,1.6,4.2,4.2,11.1,6.1,17.8,2.8,9.6-19.4,6.9-21.6,6.5l1.2-5.5s10.1,1.2,9.6-.6C70,89.2,69.5,86.4,68.8,82.4Z" fill="#57c3bc"/>
        <path id="Path_40524" data-name="Path 40524" d="M35.8,127.9c-.6,9-.8,23.3-.9,29.5,1.6.2,3.3.2,4.6.4,4.9.6,10,.2,15,.4,7.1.2,14.2.5,21.3-.4,1.5-22,.1-34-.7-44.2-.5-7.2-6.8-39.1-6.8-39.1L60.6,61.3a8.265,8.265,0,0,1-1.3.7A10.976,10.976,0,0,1,52,63.8a3.36,3.36,0,0,1-1.4-.5,14.584,14.584,0,0,1-4.6-1,2.525,2.525,0,0,1-2.1,1.2,1.7,1.7,0,0,1-.7.1,3.313,3.313,0,0,1-1.5-.4l-9.3,3.4C41.4,85.8,37.2,105.8,35.8,127.9Z" fill="url(#linear-gradient-2)"/>
        <path id="Path_40525" data-name="Path 40525" d="M72.7,136.5c-.1.8-.4,5.1-1,9.9a100.367,100.367,0,0,1-2,11.9c2-.1,4-.2,6-.5,1.5-22,.1-34-.7-44.2-.3-4.1-2.4-15.3-3.7-24.9-.2.8-1.5,1-1.6,1.4a44.8,44.8,0,0,0-.5,7.3C69.3,100.5,75.5,118.7,72.7,136.5Z" opacity="0.45" fill="url(#linear-gradient-3)"/>
        <path id="Path_40526" data-name="Path 40526" d="M39.5,157.7H40a177.852,177.852,0,0,1,.9-54.6c.6-3.7.3-9-2.7-11.8-.1,11.8-1.5,23.6-2.3,36.6-.6,9-.8,23.3-.9,29.5C36.5,157.6,38.2,157.6,39.5,157.7Z" opacity="0.45" fill="url(#linear-gradient-4)"/>
        <path id="Path_40527" data-name="Path 40527" d="M36.4,91.9a87.737,87.737,0,0,0,1.2-10.3c2.9.8,4.3-3.7,7.1-2.2,3.1,1.6,10.7,11,14.5,10,4.2-1.1,8.2-7.6,9.5-11.6.8-.7-.2,2.3.4,1.5.6,5.8,3.5,17.3,4.6,25.5A80.341,80.341,0,0,1,63.6,110a62.691,62.691,0,0,1-14,4.2,25.506,25.506,0,0,1-7.3,0,8.652,8.652,0,0,1-5.3-3s.9-10.4.9-13.5C38,95.7,36.5,93.8,36.4,91.9Z" fill="#06a89e" opacity="0.32"/>
        <path id="Path_40528" data-name="Path 40528" d="M52.7,63.9a10.5,10.5,0,0,0,6.5-1.8,10.5,10.5,0,0,0,2.1-1.2c2.1,1.2,10.1,2.7,12.8,4.3,2.6,1.5,8.4,19.2,10.1,28.1.6,3.3-2.4,8-5.9,8.5-6.8,1-17.4-5.1-18.8-5.4l1.2-5.5s9.3,0,9.2-1.9c-.1-2-.9-5.3-.9-6.5C69,72.8,59.4,69,52.7,63.9Z" fill="url(#linear-gradient-5)"/>
        <path id="Path_40529" data-name="Path 40529" d="M83.3,92.8c-1.4-8.1-6.8-24.3-9.2-25.7A.1.1,0,0,1,74,67c.9,1.2,7.2,19.7,8.3,25.7.5,2.8-1.9,6.8-4.8,7.6C77.7,100.4,84.3,98.1,83.3,92.8Z" fill="#29b4ab"/>
        <path id="Path_40530" data-name="Path 40530" d="M61.6,96c1.7.5,5.1.6,7.8,1.1,1.2.2,7.2,3.2,8.6,4.6-8.7.3-17.3-5.2-18.5-5.4l.5-2.4C62,94.4,59.7,95.4,61.6,96Z" fill="#29b4ab"/>
        <path id="Path_40531" data-name="Path 40531" d="M68.2,76.2a44.519,44.519,0,0,1,4.4,11.4c.3,1.1.7,2.2,1,3.3h0c-.5.1-1.1.2-1.6.3a45.2,45.2,0,0,1-5.2.2,34.925,34.925,0,0,0-6.5.5l.3-1.3s9.3,0,9.2-1.9c-.1-2-.7-4.4-.9-6.5A55.481,55.481,0,0,1,68.2,76.2Z" fill="#29b4ab"/>
        <g id="Group_5682" data-name="Group 5682">
          <path id="Path_40532" data-name="Path 40532" d="M69.2,100.4c-1.2,1.3-5,1.7-5,1.7l-2.6-4.5s.1-.4.9-1C62.8,97.2,64.4,98.2,69.2,100.4Z" fill="#fcc290"/>
          <path id="Path_40533" data-name="Path 40533" d="M69.2,100.4c-1.2,1.3-5,1.7-5,1.7l-2.6-4.5s.1-.4.9-1C62.8,97.2,64.4,98.2,69.2,100.4Z" fill="#f3a06e"/>
        </g>
        <path id="Path_40534" data-name="Path 40534" d="M41.5,63.2a1.756,1.756,0,0,0,1.4.2,7.1,7.1,0,0,0,1.8-.8c.4-.2.7-.4,1.1-.6a1.555,1.555,0,0,0,.8-.6,19.573,19.573,0,0,0,6,1.5,3.36,3.36,0,0,0,1.4.5,10.441,10.441,0,0,0,7.3-1.8,5.388,5.388,0,0,0,1.3-.7L65.5,63C70,69.5,61.3,74,58,74.5c-9,1.4-18.1-3-19.8-10Z" fill="#06a89e" opacity="0.45"/>
        <path id="Path_40535" data-name="Path 40535" d="M60.8,92.4l-1,3.7s-4-.1-8.2,0-2.9-4.7-2.9-4.7a7.007,7.007,0,0,1,4.6-1.5C55.3,89.8,58.2,90.8,60.8,92.4Z" fill="#fcc290"/>
        <path id="Path_40536" data-name="Path 40536" d="M50.2,90.4a3.039,3.039,0,0,1,.5.7,11.317,11.317,0,0,0,1,1.3A7.307,7.307,0,0,0,56,94.5a8.568,8.568,0,0,0,4.2-.5l-.6,2s-4-.1-8.2,0-2.9-4.7-2.9-4.7a8.934,8.934,0,0,1,1.7-.9Z" fill="#f3a06e"/>
        <path id="Path_40537" data-name="Path 40537" d="M64.7,90.6l-.8,7.1L59.2,97l.8-6.3Z" fill="#f1efec"/>
        <path id="Path_40538" data-name="Path 40538" d="M42.2,63.4l-1.9-.3.2-5.3.8-1.7Z" fill="#e2f3f2"/>
        <path id="Path_40539" data-name="Path 40539" d="M41.5,55.3l5.6-.7v2.5l-5.9-.9Z" fill="#e2f3f2"/>
        <path id="Path_40540" data-name="Path 40540" d="M47.1,54.6s8.8,7.1,13,6.4a23.218,23.218,0,0,0,8.2-2.9s-2,12.5-11.7,13.5S40.3,63,40.3,63,47.2,62.8,47.1,54.6Z" fill="#d9efee"/>
        <path id="Path_40541" data-name="Path 40541" d="M46.4,58.5c1.5,4.3,4.6,7.8,9.4,8.6a16.79,16.79,0,0,0,9.2-1,11.5,11.5,0,0,1-8.5,5.5c-9.7,1-16.3-8.6-16.3-8.6a7.124,7.124,0,0,0,6.2-4.5Z" fill="#d5edec"/>
        <g id="Group_5683" data-name="Group 5683">
          <path id="Path_40542" data-name="Path 40542" d="M65.6,29.3s.3-10.9-4.9-13.8c-5.3-2.9-16.7,1.1-17.9,3.3s-2.4,11-1.7,12.7c0,0,1.1-3.5,14.3-3.5C61.2,28.1,65.1,28.2,65.6,29.3Z" fill="#00a69a"/>
        </g>
        <g id="Group_5684" data-name="Group 5684">
          <path id="Path_40543" data-name="Path 40543" d="M65.6,29.3s.3-10.9-4.9-13.8c-5.3-2.9-16.7,1.1-17.9,3.3s-2.4,11-1.7,12.7c0,0,1.1-3.5,14.3-3.5C61.2,28.1,65.1,28.2,65.6,29.3Z" fill="url(#linear-gradient-6)"/>
        </g>
        <g id="Group_5685" data-name="Group 5685" opacity="0.32">
          <path id="Path_40544" data-name="Path 40544" d="M60.6,15.5c-.3-.2-.7-.3-1-.5.2,4.4.5,9.6-5.1,10.3-2.1.3-4.2.2-6.3.9-1.9.6-3.8,1.5-5.7,2.2-.6.2-1.1.5-1.6.7a7.556,7.556,0,0,0,.2,2.4S42.2,28,55.4,28c5.7,0,9.6.1,10.1,1.3C65.6,29.3,65.9,18.5,60.6,15.5Z" fill="url(#linear-gradient-7)"/>
        </g>
        <g id="Group_5687" data-name="Group 5687">
          <g id="Group_5686" data-name="Group 5686">
            <path id="Path_40545" data-name="Path 40545" d="M30.5,68a5.769,5.769,0,0,1,4.7-1.9C46.9,71.2,48.6,94.7,51,95.3c2,.5,8.1.1,9.8,0a25.892,25.892,0,0,0,2.1,7.2c-6.6,2.9-17.2,3.9-19.8,4.1-1.7.1-3.9.2-4.8-1.2C32.3,95.6,27.8,70.6,30.5,68Z" fill="url(#linear-gradient-8)"/>
            <path id="Path_40546" data-name="Path 40546" d="M62.4,98.6c-1.1.4-12.8-1.1-13.7-2.6a138.414,138.414,0,0,1-3.8-18.4c3.5,8.1,4.7,17.3,6.2,17.7,1.6.4,5.8.3,8.3.1C59.3,95.5,62.4,98.6,62.4,98.6Z" fill="#29b4ab"/>
            <path id="Path_40547" data-name="Path 40547" d="M30.5,68s1,23.7,10.6,35.1c2.1,2.5,9.7,1.2,12.9.9a17.978,17.978,0,0,0,8.4-2.6,8.65,8.65,0,0,0,1-.7c0,.1.1.1.1.2s.1.1.1.2h0a3.552,3.552,0,0,0,.4.9c-6.4,3.2-18.2,4.5-21,4.7-1.7.1-3.9.2-4.8-1.2C32.3,95.6,27.8,70.6,30.5,68Z" fill="#29b4ab"/>
          </g>
          <path id="Path_40548" data-name="Path 40548" d="M62,103.3l-3.4-7.8,4.2-.6,2.9,7Z" fill="#f1efec"/>
          <path id="Path_40549" data-name="Path 40549" d="M63.9,97.5l-.1-.1a27.427,27.427,0,0,0-3.3-1.5c-.4-.1-.9-.3-1.3-.4l-.5.1,1.7,3.9c1.4-.1,2.9-.2,4.3-.2a9.82,9.82,0,0,1-.8-1.8Z" fill="#cbc4bd" opacity="0.55"/>
          <path id="Path_40550" data-name="Path 40550" d="M46.8,98.7a6.963,6.963,0,0,1,4-2.9,11.171,11.171,0,0,0-6.4,2.5C42.7,99.7,46.8,98.7,46.8,98.7Z" fill="#29b4ab"/>
          <path id="Path_40551" data-name="Path 40551" d="M45.3,96.6s2.9-1.8,5.4-1.2c0,0-1.9-1.1-7.5.6C41.1,96.7,45.3,96.6,45.3,96.6Z" fill="#29b4ab"/>
        </g>
        <path id="Path_40552" data-name="Path 40552" d="M74.5,92a7.409,7.409,0,0,0-4.6-1.6,14.592,14.592,0,0,1,7,1C78.8,92.2,74.5,92,74.5,92Z" fill="#29b4ab"/>
        <path id="Path_40553" data-name="Path 40553" d="M75.6,90.2a8.649,8.649,0,0,0-5.1,0,20.009,20.009,0,0,1,7.1-.7C79.9,89.5,75.6,90.2,75.6,90.2Z" fill="#29b4ab"/>
        <g id="Group_5688" data-name="Group 5688">
          <path id="Path_40554" data-name="Path 40554" d="M46.1,37.5c0,1.9,2.1,3.5,4.7,3.5s4.7-1.5,4.7-3.5a2.661,2.661,0,0,1,3.4-.4c.3,1.7,2.1,2.9,4.4,2.9,2.5,0,4.5-1.5,4.5-3.3s-2-3.3-4.5-3.3c-2.4,0-4.4,1.4-4.5,3.2-1.9-1-3-.1-3.4.4-.3-1.7-2.3-3-4.6-3C48.2,34,46.1,35.6,46.1,37.5Zm13.4-.8c0-1.6,1.7-2.8,3.8-2.8s3.8,1.3,3.8,2.8c0,1.6-1.7,2.8-3.8,2.8C61.2,39.6,59.5,38.3,59.5,36.7Zm-12.7.8c0-1.6,1.8-3,4-3s4,1.3,4,3c0,1.6-1.8,3-4,3S46.8,39.2,46.8,37.5Z" fill="#965946"/>
        </g>
        <path id="Path_40555" data-name="Path 40555" d="M52.5,44.5c-.2,1.2-1.8,1.8-3.6,1.5s-3-1.6-2.8-2.7c.2-1.2,1.8-1.8,3.6-1.5C51.4,42.1,52.7,43.3,52.5,44.5Z" opacity="0.55" fill="url(#radial-gradient)"/>
        <path id="Path_40556" data-name="Path 40556" d="M66.6,42.2c.2,1.1-.9,2.1-2.5,2.4s-3-.4-3.1-1.4c-.2-1.1.9-2.1,2.5-2.4C65,40.4,66.4,41.1,66.6,42.2Z" opacity="0.55" fill="url(#radial-gradient-2)"/>
      </g>
      <g id="Group_5702" data-name="Group 5702" clip-path="url(#clip-path)">
        <path id="Path_40557" data-name="Path 40557" d="M88.9,61.8a24.651,24.651,0,0,1,4.6-3.1,59.267,59.267,0,0,1,9-3.1,9.07,9.07,0,0,1,1,3.4c.1,1.5-4.6,3.3-4.6,3.3S91,65.3,88.9,61.8Z" fill="#cc203c"/>
        <g id="Group_5691" data-name="Group 5691">
          <path id="Path_40558" data-name="Path 40558" d="M96.2,43.7a2.276,2.276,0,0,0-.9-.8,4.015,4.015,0,0,0-.4,5.4c.1.1.1.1.2.1C95,47.9,94.6,46.5,96.2,43.7Z" fill="#cc203c"/>
          <path id="Path_40559" data-name="Path 40559" d="M93.4,45.8a11.978,11.978,0,0,0,0,1.9,11.319,11.319,0,0,1-.6-1.4,4.64,4.64,0,0,1,.1-2.6,5.359,5.359,0,0,1,.5-1.1l-.6.3a8.885,8.885,0,0,0-.9,5.6l3.3-.2v-.1c-.1,0-.1,0-.2-.1a4.015,4.015,0,0,1,.4-5.4l-.6-.3a7.457,7.457,0,0,0-.7,1.2,6.974,6.974,0,0,0-.7,2.2Z" fill="#d62640"/>
          <g id="Group_5690" data-name="Group 5690">
            <path id="Path_40560" data-name="Path 40560" d="M93.2,45a4.508,4.508,0,0,1,.5-2.5.367.367,0,0,0-.3.1,11.732,11.732,0,0,1-.5,1.1,4.61,4.61,0,0,0-.1,2.6,11.318,11.318,0,0,0,.6,1.4,6.017,6.017,0,0,1,0-1.9,6.529,6.529,0,0,1,.5-2,7.459,7.459,0,0,1,.7-1.2c-.2,0-.3-.1-.5-.1a2.993,2.993,0,0,0-.4.8C93.5,43.9,93.2,45.1,93.2,45Z" fill="#e33355"/>
            <path id="Path_40561" data-name="Path 40561" d="M93.7,42.5a4.508,4.508,0,0,0-.5,2.5,11.8,11.8,0,0,1,.6-1.8c.1-.3.3-.5.4-.8a.9.9,0,0,1-.5.1Z" fill="#e8436b"/>
          </g>
        </g>
        <g id="Group_5692" data-name="Group 5692">
          <path id="Path_40562" data-name="Path 40562" d="M95.5,52a4.777,4.777,0,0,0-4.2-.3,4.59,4.59,0,0,0-2.4,2.9,15.721,15.721,0,0,0-.3,4.1,4.655,4.655,0,0,1-.7-2.9c0-4.7,2.2-7.3,6.2-6.8a7.106,7.106,0,0,1,5.1,2.8,22.227,22.227,0,0,1,1.4,2.2l.4-.2a10.285,10.285,0,0,0-4-4.7c-3.9-2.2-6.8-1.5-9,.4-2.1,1.9-2.1,11.3-2.1,11.3L88,63.6l1.7-1.2c0-1.2.1-2.4.1-3.5s0-2.1.1-3.2a3.845,3.845,0,0,1,.5-2.1,3.731,3.731,0,0,1,3.8-1.1,5.849,5.849,0,0,1,3.6,2.7l.4-.2A9.19,9.19,0,0,0,97,53.4,4.009,4.009,0,0,0,95.5,52Z" fill="#d62640"/>
          <path id="Path_40563" data-name="Path 40563" d="M99.2,51.7a7.467,7.467,0,0,0-5.1-2.8c-4.1-.4-6.2,2.1-6.2,6.8a4.875,4.875,0,0,0,.7,2.9,15.721,15.721,0,0,1,.3-4.1,4.308,4.308,0,0,1,2.4-2.9,4.777,4.777,0,0,1,4.2.3,6.529,6.529,0,0,1,1.6,1.3,9.19,9.19,0,0,1,1.2,1.6l2.3-1A18.69,18.69,0,0,0,99.2,51.7Z" fill="#d62640"/>
          <path id="Path_40564" data-name="Path 40564" d="M95.2,50.8c-1.9-.9-4.2-.7-6.2,1.5.5-2.2,3.7-3,5.9-2.5a6.812,6.812,0,0,1,5,4.4l.7-.3a22.225,22.225,0,0,0-1.4-2.2,7.467,7.467,0,0,0-5.1-2.8c-4.1-.4-6.2,2.1-6.2,6.8a4.875,4.875,0,0,0,.7,2.9,15.721,15.721,0,0,1,.3-4.1,4.308,4.308,0,0,1,2.4-2.9,4.777,4.777,0,0,1,4.2.3,6.529,6.529,0,0,1,1.6,1.3,9.19,9.19,0,0,1,1.2,1.6l.6-.3a8.266,8.266,0,0,0-3.7-3.7Z" fill="#e33355"/>
          <path id="Path_40565" data-name="Path 40565" d="M94.9,49.7c-2.2-.5-5.4.4-5.9,2.5,2.1-2.2,4.3-2.4,6.2-1.5a8,8,0,0,1,3.7,3.8l1.3-.6a8.4,8.4,0,0,0-5.3-4.2Z" fill="#e8436b"/>
          <path id="Path_40566" data-name="Path 40566" d="M91.2,55.4c0-2,2.6-2.9,4-1.7a6.394,6.394,0,0,1,1.7,1.7l.9-.4a6.233,6.233,0,0,0-3.6-2.7,3.731,3.731,0,0,0-3.8,1.1,3.845,3.845,0,0,0-.5,2.1c0,1.1-.1,2.1-.1,3.2,0,1.2-.1,2.3-.1,3.5L91.3,61C91.3,61.1,91.2,57.5,91.2,55.4Z" fill="#cc203c"/>
        </g>
        <g id="Group_5694" data-name="Group 5694">
          <g id="Group_5693" data-name="Group 5693">
            <path id="Path_40567" data-name="Path 40567" d="M104.8,75c-1.3-2.4-3.4-3.8-5.6-5.5-3.8-3-.9-6.1,2.8-7.8.2-.1,2.8-1.2,3.9-1.7a7.8,7.8,0,0,0-.3-2.2c-3.2.8-10,2.6-12.9,3.9a23.623,23.623,0,0,0-7.6,5.1A17.48,17.48,0,0,0,80.4,84a19.217,19.217,0,0,0,5.1,8.2c2.5,2.5,5.6,5.6,9.8,5.5,3.9-.1,6.6-4,8.3-6.6a31.836,31.836,0,0,0,2.8-6.7,15.247,15.247,0,0,0-1.6-9.4Z" fill="#f0505e"/>
            <path id="Path_40568" data-name="Path 40568" d="M95.3,97.5c-4.2.1-7.3-2.9-9.8-5.5a19.217,19.217,0,0,1-5.1-8.2,17.48,17.48,0,0,1,4.7-17.2,25.355,25.355,0,0,1,7.6-5.1,121.474,121.474,0,0,1,12.9-3.9,2.589,2.589,0,0,0-.7-1.1A97.869,97.869,0,0,0,93,59.9a54.1,54.1,0,0,0-7.9,4.2,23.065,23.065,0,0,0-5.4,5.4,16.237,16.237,0,0,0-3.4,9.6c0,4.2,2.5,8.1,3.8,9.9a30.042,30.042,0,0,0,3.7,4.3c2.8,2.7,8.5,7.8,13.3,6.1,2-.7,3.2-2.5,4.2-4a39.316,39.316,0,0,0,3.9-7.3,21.805,21.805,0,0,0,1.1-4.4,27.985,27.985,0,0,1-2.8,6.7C101.9,93.6,99.2,97.4,95.3,97.5Z" fill="#e84158"/>
          </g>
          <path id="Path_40569" data-name="Path 40569" d="M104.8,78.8c-.5-3.1-2.8-5.7-5.4-7.8a16.908,16.908,0,0,0-4.7-2.7c-1-.4-8-.7-10.3,5.9-2.2,6.2-.3,13,4.6,17.8a7.146,7.146,0,0,0,8.2,1.8,10.272,10.272,0,0,0,5.7-5.5C104.3,85.5,105.4,81.9,104.8,78.8Z" fill="#f16077" opacity="0.7"/>
          <path id="Path_40570" data-name="Path 40570" d="M98.8,71.5c-1.7-1.3-5.6-3.3-8.4-1.1-1.9,1.4-1.7,4.8-1.4,6.8a19.937,19.937,0,0,0,2,6.7c.9,1.9,2.1,4,4.3,5.1,4.5,2.3,7.9-2.2,8.5-5.5a12.457,12.457,0,0,0-5-12Z" fill="#f27b94" opacity="0.5"/>
          <path id="Path_40571" data-name="Path 40571" d="M100,74.1c-.8-1.3-3.9-4.1-7.6-3.4-1.5.3-1.4,1.9-1,3a16.471,16.471,0,0,0,3.3,5.5c.9,1,2.1,2.4,3.8,2.1C102,80.7,101.2,76,100,74.1Z" fill="#f27b94" opacity="0.7"/>
          <path id="Path_40572" data-name="Path 40572" d="M99.3,62.1c-1.7.4-4.4,1.4-4.8,3.1s1.6,3.2,3.2,3.9A.367.367,0,0,0,98,69c.2.1.5-.1.3-.3a4.826,4.826,0,0,1-.7-3.7,7.707,7.707,0,0,1,1.7-2.7s0-.1-.1,0h0C99.3,62.2,99.3,62.2,99.3,62.1Z" fill="#e84158"/>
        </g>
        <g id="Group_5695" data-name="Group 5695">
          <path id="Path_40573" data-name="Path 40573" d="M87.4,53c.6-2.2,3.7-3.4,4.8-3.7v-.6c-2.8.6-5.3,2.5-6.1,4.9a15.386,15.386,0,0,0-.5,4.8,26.074,26.074,0,0,0,.5,4.8,1.854,1.854,0,0,0,.2.7l1-.4C87.3,63.6,86.2,57.3,87.4,53Z" fill="#3f67b1"/>
          <path id="Path_40574" data-name="Path 40574" d="M86,52.1a9.061,9.061,0,0,0-1.1,2.2c-.5,2.2-.1,4.6,0,6.9,0,.1-.1.1-.1,0a.1.1,0,0,0-.1-.1h0c-.1-.1-.1-.2-.2-.3v.6c0,.3-.6.3-.6,0-.1-1-.1-2-.1-3.1-.1-.7-.1-7.8.1-10.3a28.846,28.846,0,0,1,.7-5.9,4.053,4.053,0,0,0-.9.5s-.8,7.4-.8,13.7c0,2.6.6,8.6.6,8.6l2.6-1c-.1-.2-.1-.5-.2-.7a26.073,26.073,0,0,1-.5-4.8,12.9,12.9,0,0,1,.5-4.8c.8-2.4,3.3-4.2,6.1-4.9a1.884,1.884,0,0,0-.2-.8A11.109,11.109,0,0,0,86,52.1Z" fill="#4f70b7"/>
          <path id="Path_40575" data-name="Path 40575" d="M84.9,46.7c-.1,1.3-.1,2.6-.2,3.9v1.3a11.768,11.768,0,0,1,3.5-3.4,15.481,15.481,0,0,1,3.2-1.4h.1c-.1-.2-.3-.3-.5-.5a10.393,10.393,0,0,0-4,1.7,6.809,6.809,0,0,1-.8-3,15.544,15.544,0,0,1,.4-3.2,3.083,3.083,0,0,0-1-.1c-.1.3-.1.5-.2.8C85.2,44,85,45.3,84.9,46.7Z" fill="#4f70b7"/>
          <path id="Path_40576" data-name="Path 40576" d="M85.9,51c1.1-1.8,3.4-3,5.6-3.9a.1.1,0,0,0-.1-.1h-.1a15.481,15.481,0,0,0-3.2,1.4,11.768,11.768,0,0,0-3.5,3.4V50.5c0-1.3.1-2.6.2-3.9a26.013,26.013,0,0,1,.5-3.9c.1-.3.1-.5.2-.8a3.4,3.4,0,0,0-1,.1c-.3,2-.4,4-.5,6-.2,2.5-.2,9.6-.1,10.3,0,1,.1,2.1.1,3.1,0,.3.6.3.6,0v-.6c.1.1.1.2.2.3h0a.1.1,0,0,0,.1.1c0,.1.1,0,.1,0-.1-2.4-.5-4.7,0-6.9a9.061,9.061,0,0,1,1.1-2.2,10.859,10.859,0,0,1,6-4.2c0-.1-.1-.1-.1-.2a9.037,9.037,0,0,0-2.1.8,23.23,23.23,0,0,0-4,2.5Z" fill="#5f85c4"/>
          <path id="Path_40577" data-name="Path 40577" d="M85.9,51a17.517,17.517,0,0,1,3.9-2.5,18.029,18.029,0,0,1,2.1-.8l-.3-.6A12.619,12.619,0,0,0,85.9,51Z" fill="#6d97cf"/>
          <path id="Path_40578" data-name="Path 40578" d="M86.9,48.3a26.24,26.24,0,0,1,.7-5.6,4.372,4.372,0,0,0-1-.6,15.544,15.544,0,0,0-.4,3.2A6.018,6.018,0,0,0,86.9,48.3Z" fill="#3f67b1"/>
        </g>
        <path id="Path_40579" data-name="Path 40579" d="M97.3,72.7c-.5-.8-4.4-2.6-4.6-.5-.1.6.6,1.4,1,1.9a1.816,1.816,0,0,0,1.4.6C96.2,74.6,98,73.7,97.3,72.7Z" fill="#f59ab4" opacity="0.7"/>
        <path id="Path_40580" data-name="Path 40580" d="M100,76.7a3.092,3.092,0,0,0-1.5-1.9,1.094,1.094,0,0,0-1.3.4c-.8,1,.2,2.8.3,3.4.1.4.4,1.2.9,1.4.6.2,1.1-.5,1.3-.9A3.322,3.322,0,0,0,100,76.7Z" fill="#f59ab4" opacity="0.7"/>
        <g id="Group_5697" data-name="Group 5697">
          <path id="Path_40581" data-name="Path 40581" d="M101,46.2a2.2,2.2,0,0,0-.5-1.2c-1.8.8-3.5,3-2.6,4.6a9,9,0,0,1,3.1-3.4Z" fill="#cc203c"/>
          <path id="Path_40582" data-name="Path 40582" d="M96,48c-.2-.9,1.4-2.5,3-3.7a2.2,2.2,0,0,0-.8.1,13.323,13.323,0,0,0-3.8,4.3A6.4,6.4,0,0,1,97.8,50a.756.756,0,0,1,.1-.4c-.9-1.6.8-3.8,2.6-4.6a1,1,0,0,0-.5-.4A21.229,21.229,0,0,0,96,48Z" fill="#d62640"/>
          <g id="Group_5696" data-name="Group 5696">
            <path id="Path_40583" data-name="Path 40583" d="M97.1,46.4a4.846,4.846,0,0,1,1.7-1.8c.1-.1.3-.2.4-.3H99c-1.6,1.2-3.2,2.8-3,3.7a21.8,21.8,0,0,1,4-3.4c-.1-.1-.2-.1-.3-.2a2.092,2.092,0,0,0-.6.4A14.012,14.012,0,0,0,97.1,46.4Z" fill="#e33355"/>
            <path id="Path_40584" data-name="Path 40584" d="M98.8,44.6a4.846,4.846,0,0,0-1.7,1.8,14.012,14.012,0,0,1,2-1.6,2.092,2.092,0,0,0,.6-.4c-.2-.1-.3-.1-.5-.2a.781.781,0,0,1-.4.4Z" fill="#e8436b"/>
          </g>
        </g>
        <path id="Path_40585" data-name="Path 40585" d="M102.6,85.4c-.1-.8-.3-1.7-.4-2.3.6.5,1.2,1,1.7,1.4a5.25,5.25,0,0,1,2.1,3.3.461.461,0,0,0,.2-.7,3.694,3.694,0,0,0-.7-1.4,10.483,10.483,0,0,0-2.2-2,4.79,4.79,0,0,1-1.9-2.6c-.2-.9.2-1.3.2-2.2a10.461,10.461,0,0,0-1.3-5.1,56.364,56.364,0,0,0-3.1-5.3h0a56.068,56.068,0,0,0,2.9,5.4c.9,1.9,1.6,4,1,6a5.909,5.909,0,0,1-2.5,2.4c-.8.4-1.8.3-2.5.8a3.814,3.814,0,0,0-1.5,1.6,15.714,15.714,0,0,0-.9,2.3,10.245,10.245,0,0,1-1.6,2.9s0,.1.1,0c1.4-.9,1.7-2.8,2.2-4.2a4.5,4.5,0,0,1,2.1-2.6c.5-.2,1.2-.2,1.7-.4a8.04,8.04,0,0,0-2.3,2.2A13.041,13.041,0,0,0,94.3,88c-.4,1.1.2,5.2-.1,6.8-.1.4.1.4.2,0,.4-1.2-.2-5.8.3-7a9.633,9.633,0,0,1,2.1-3.5,22.543,22.543,0,0,1,3-2.4,5.716,5.716,0,0,0,.8-.7,13.774,13.774,0,0,0-1.2,3.6,9.26,9.26,0,0,0,1.3,6.2c.2.3.2,0,.1-.1a10.09,10.09,0,0,1-.9-7,27.728,27.728,0,0,1,1-2.6c.3.4.4.9.8,1.2l.6,3.6a3.978,3.978,0,0,0,1.7,2.7c.1,0,.2,0,.1-.1a5.1,5.1,0,0,1-1.5-3.3Z" fill="#4f70b7"/>
        <path id="Path_40586" data-name="Path 40586" d="M103.2,75.4c-1-1.5-1.4-3.6-3.1-4.7a.1.1,0,0,0-.1.1c.5.8,1.2,1.5,1.7,2.3s.8,1.7,1.3,2.5c.8,1.3,2.6,2,3.1,3.5.1.2.3.1.3-.1C106,77.4,104,76.7,103.2,75.4Z" fill="#4f70b7"/>
        <path id="Path_40587" data-name="Path 40587" d="M89.2,88c-1.2-1.2-3.2-1.8-4.8-2.5A12.294,12.294,0,0,0,83,83a12.028,12.028,0,0,1-2.3-3.7,9.331,9.331,0,0,1-.4-2.2,6.368,6.368,0,0,0,1.8,1c1.3.6,1.6,1.9,2.1,3,.6,1.5,1.4,3.3,3.1,4.1.1,0,.2-.1.1-.1a10.231,10.231,0,0,1-2-2.2c-.5-.9-.9-1.9-1.4-2.8a4.069,4.069,0,0,0-1.3-1.9c1.9.1,2.3,1.5,3.3,2.7.7.9,2,1.1,2.6,2,.1.1.2.1.2,0a2.85,2.85,0,0,0-1.3-1.1,6.589,6.589,0,0,1-2.1-2.3c-.5-.8-2-2-3.2-1.6-.7-.4-1.4-.4-2-1A27.762,27.762,0,0,1,81.8,69c0-.1-.5.4-.5.5a19.519,19.519,0,0,0-1.4,5.4,15.528,15.528,0,0,1-2.8,2.9,4.932,4.932,0,0,1-.9.4c-.2.2-.3.3-.1.6.2-.3.6-.4,1-.7l.9-.6a6.033,6.033,0,0,0-.6,1.9,6.573,6.573,0,0,0,1.2,4.7c.1.1.2,0,.2-.1-.3-.9-.8-1.7-1-2.5a7.083,7.083,0,0,1,0-2.9A7.242,7.242,0,0,1,79,76.3c.2-.3.5-.5.6-.7a11.264,11.264,0,0,0,.2,3.2,6.982,6.982,0,0,0,.8,2c.4,1.7,0,3.3.2,5.1a6.335,6.335,0,0,0,2.3,3.9c.1.1.2,0,.2-.1a15.583,15.583,0,0,1-1.6-2,4.435,4.435,0,0,1-.6-3,16.054,16.054,0,0,0,0-3.1,29.546,29.546,0,0,1,2.2,3.1,12.037,12.037,0,0,0,1.5,3c.7,1,2,1.6,2.8,2.5,1.2,1.2.5,2.5.4,3.9A3.1,3.1,0,0,0,89.3,97c.2.1.2,0,.1-.2a3.456,3.456,0,0,1-1-2.1,10.793,10.793,0,0,1,.3-1.9,3.138,3.138,0,0,0-.6-2.8c-.8-.9-2-1.6-2.8-2.6a5.013,5.013,0,0,1-.8-1.4,17.733,17.733,0,0,1,3.8,1.8,5.323,5.323,0,0,1,2.1,4c0,.1.2.1.2,0A4.036,4.036,0,0,0,89.2,88Z" fill="#cc203c"/>
        <g id="Group_5699" data-name="Group 5699">
          <path id="Path_40588" data-name="Path 40588" d="M100.5,67.6c.9.7,1.8,1.3,2.7,2a9.594,9.594,0,0,0,2.3,1.8c1.6-2.7,1.1-7.2-1.3-9.1a4.143,4.143,0,0,0-2.2-.9C99.1,62.7,97.7,65.4,100.5,67.6Z" fill="#de3e4f"/>
          <g id="Group_5698" data-name="Group 5698">
            <path id="Path_40589" data-name="Path 40589" d="M100.5,69.1a9.424,9.424,0,0,1,2.5,1.8c.6.6,1,1.2,1.5,1.6.1-.1.2-.1.2-.2a5.5,5.5,0,0,0,.7-.9,7.976,7.976,0,0,1-2.3-1.8c-.8-.7-1.8-1.3-2.7-2-2.8-2.3-1.4-4.9,1.5-6.3a5.537,5.537,0,0,0-1.8.2C97.2,63.8,96.9,67.1,100.5,69.1Z" fill="#d63149"/>
            <path id="Path_40590" data-name="Path 40590" d="M96.5,67.7c.8,2,3.4,2.8,5,4.2,1,.8,1.9,1.5,3,.7-.5-.5-.9-1-1.5-1.6a8.847,8.847,0,0,0-2.5-1.8c-3.7-2.1-3.4-5.3-.4-7.5A7.193,7.193,0,0,0,98,62.9C96.7,64.1,95.7,65.9,96.5,67.7Z" fill="#d62640"/>
          </g>
          <path id="Path_40591" data-name="Path 40591" d="M105.1,64.2c-.4-.8-2-2.5-3.2-2a.749.749,0,0,0-.6.7c.1.4.6.8.9,1.1a4.394,4.394,0,0,1,.7,2.2c0,.5.7,4.5,2.1,3.6.7-.4.7-1.9.7-2.5A6.859,6.859,0,0,0,105.1,64.2Z" fill="#f0586e" opacity="0.5"/>
          <path id="Path_40592" data-name="Path 40592" d="M104.7,64.5c-.3-.8-1.2-2.9-2.6-2.8-.5,0-.3.5.6,1.3a4.953,4.953,0,0,1,1.3,2.6c.2.9-.1,2.4.4,3.6.1.2.5.1.6-.1C105.9,68,105.1,65.7,104.7,64.5Z" fill="#f2738d" opacity="0.5"/>
          <path id="Path_40593" data-name="Path 40593" d="M104.8,66.6c-.1-.2-.3-.2-.2.2s-.2,1.1,0,1.7c.1.4.3.3.4,0a2.117,2.117,0,0,0-.2-1.9Z" fill="#f6a7bd" opacity="0.5"/>
          <path id="Path_40594" data-name="Path 40594" d="M103.4,62.5a1.7,1.7,0,0,0-.8-.6.265.265,0,0,0-.3.3c0,.2,1,.9,1.2,1.2.1.1.2.1.2-.1a1.6,1.6,0,0,0-.3-.8Z" fill="#f6a7bd" opacity="0.5"/>
        </g>
        <g id="Group_5701" data-name="Group 5701">
          <path id="Path_40595" data-name="Path 40595" d="M77.9,68.3a22.03,22.03,0,0,1,2.8-2.4,14.6,14.6,0,0,0,3.4-2.6c1.3-1.7-.5-2.9-2.3-3.2a7.862,7.862,0,0,0-6.6,5.7,5.022,5.022,0,0,0-.2,2.1h0a4.486,4.486,0,0,0,.1,1.1c.1,0,.1,0,.2.1a2.62,2.62,0,0,0,2.6-.8Z" fill="#de3e4f"/>
          <g id="Group_5700" data-name="Group 5700">
            <path id="Path_40596" data-name="Path 40596" d="M78.9,69.5a18.674,18.674,0,0,1,2.6-3c1.2-1,3-1.7,3.8-3,1.1-1.8-.6-2.9-2.4-3.4a6.151,6.151,0,0,0-1.3.1c1.8.3,3.6,1.5,2.3,3.2A12.771,12.771,0,0,1,80.5,66a16.128,16.128,0,0,0-2.8,2.4,3.126,3.126,0,0,1-2.8.9c-.1,0-.1,0-.2-.1a3.08,3.08,0,0,0,.5,1.2,1.421,1.421,0,0,0,.6.2,3.272,3.272,0,0,0,3.1-1.1Z" fill="#d63149"/>
            <path id="Path_40597" data-name="Path 40597" d="M77.9,72.1a2.21,2.21,0,0,0,1.8-.6c1-.9,1.7-2.2,2.7-3.2,1.1-1.1,2.3-2,3.4-3,.7-.6,2-1.5,2.2-2.4.3-1.3-1.9-2.3-3.1-2.6A6.8,6.8,0,0,0,83,60c1.8.5,3.5,1.6,2.4,3.4-.8,1.3-2.6,2-3.8,3a12.2,12.2,0,0,0-2.6,3,3.09,3.09,0,0,1-2.9,1.1,1.421,1.421,0,0,1-.6-.2A3.028,3.028,0,0,0,77.9,72.1Z" fill="#d62640"/>
          </g>
          <path id="Path_40598" data-name="Path 40598" d="M81.8,60.6a4.187,4.187,0,0,0-2.3.5c-.5.2-.7.6-.3,1,.1.2.4.3.6.4a1.374,1.374,0,0,1,.5.8,2.01,2.01,0,0,0,.4.8c1,1,2.5-.3,2.7-1.2C83.5,62.3,84,61,81.8,60.6Z" fill="#f0586e" opacity="0.5"/>
          <path id="Path_40599" data-name="Path 40599" d="M82.1,61c-.8-.2-1.6,0-1.7.3-.1.2,0,.3,0,.4a4.671,4.671,0,0,1,.5,1c.1.4.1.9.6,1.1.4.2.8-.1,1.1-.4C83.2,62.7,83.4,61.3,82.1,61Z" fill="#f2738d" opacity="0.5"/>
          <path id="Path_40600" data-name="Path 40600" d="M82.1,62c-.7-.1-1.2,1-.3,1.3.2.1.4-.1.5-.3C82.5,62.8,82.7,62.1,82.1,62Z" fill="#f6a7bd" opacity="0.5"/>
        </g>
        <path id="Path_40601" data-name="Path 40601" d="M106.5,82.3h0a23.029,23.029,0,0,1-1.2,5.8,32.536,32.536,0,0,1-2.8,5.6c-1,1.7-1.9,3.6-3.6,4.9a6.337,6.337,0,0,1-4.6.7A11.648,11.648,0,0,1,90,97.9,29.77,29.77,0,0,1,83.8,93a37.486,37.486,0,0,1-4.9-6.4,16.726,16.726,0,0,1-2.5-7.3V78.2c0-.2-.1-.1-.1,0-.7,2.7.4,5.7,1.9,8.3a31.736,31.736,0,0,0,5.3,6.9,27.4,27.4,0,0,0,6.7,5.4c2.3,1.2,5.6,2.3,8.1,1,2-1,3-2.8,4-4.5C104.6,91.5,107.4,86.8,106.5,82.3Z" fill="#ce1f45"/>
        <path id="Path_40602" data-name="Path 40602" d="M105.1,71.8c-.5.8-1.3,1.4-2.4.5a6.42,6.42,0,0,0-1.3-1,37.91,37.91,0,0,1-3.4-2c-2.6-2.2-1.8-5.6,1.1-7.2h0c-3.4,1.4-4.1,5.4-1.3,7.6a10.887,10.887,0,0,0,2.3,1.4,14.31,14.31,0,0,1,2.4,1.6,1.534,1.534,0,0,0,2.6-.9C105.3,71.7,105.2,71.7,105.1,71.8Z" fill="#cc203c"/>
        <path id="Path_40603" data-name="Path 40603" d="M87.1,61.3h0c1.4,1.4,0,2.8-1.4,3.6a13.307,13.307,0,0,0-3,2.3,14.313,14.313,0,0,0-2.4,3.1,2.631,2.631,0,0,1-2.1,1.4,5.56,5.56,0,0,1-2.6-1.1c-.1-.1-.2-.1-.1,0a2.925,2.925,0,0,0,4,1.2A4.2,4.2,0,0,0,81.2,70a13.216,13.216,0,0,1,2.2-2.6,11.779,11.779,0,0,1,2.5-1.9A4.978,4.978,0,0,0,87.6,64a1.635,1.635,0,0,0-.5-2.7Z" fill="#cc203c"/>
      </g>
    </g>
  </g>
</svg>
