<svg xmlns="http://www.w3.org/2000/svg" xmlns:xlink="http://www.w3.org/1999/xlink" width="117.2" height="117.199" viewBox="0 0 117.2 117.199">
  <defs>
    <linearGradient id="linear-gradient" y1="0.5" x2="1" y2="0.5" gradientUnits="objectBoundingBox">
      <stop offset="0" stop-color="#ebebeb"/>
      <stop offset="1" stop-color="#fff"/>
    </linearGradient>
    <clipPath id="clip-path">
      <circle id="Ellipse_1294" data-name="Ellipse 1294" cx="58.6" cy="58.6" r="58.6" transform="translate(8.2 8.8)"/>
    </clipPath>
  </defs>
  <g id="diabetologist" transform="translate(-8.2 -8.801)">
    <circle id="Ellipse_1293" data-name="Ellipse 1293" cx="58.6" cy="58.6" r="58.6" transform="translate(8.2 8.8)" fill="url(#linear-gradient)"/>
    <g id="Group_5781" data-name="Group 5781">
      <g id="Group_5735" data-name="Group 5735" clip-path="url(#clip-path)">
        <path id="Path_40776" data-name="Path 40776" d="M72.7,102.9a.9.9,0,0,0,.7,1.1,1.119,1.119,0,0,0,1.6-1.1C74.9,101.9,72.7,102.9,72.7,102.9Z" fill="#b4715f"/>
      </g>
      <g id="Group_5736" data-name="Group 5736" clip-path="url(#clip-path)">
        <path id="Path_40777" data-name="Path 40777" d="M71.8,100s-.7,3.4,1.6,3.3,1.9-1.5,1.9-1.8a27.044,27.044,0,0,1,.9-3.6,11.257,11.257,0,0,0,1.3-2.7c0-.6.4-1.1-.9-1.6l-2.5,2.2Z" fill="#fcc6a3"/>
      </g>
      <g id="Group_5737" data-name="Group 5737" clip-path="url(#clip-path)">
        <path id="Path_40778" data-name="Path 40778" d="M76.6,93.6l-2.5,2.2L71.8,100a4.386,4.386,0,0,0,.2,2.7,1.21,1.21,0,0,0,1.3.6,2,2,0,0,1-.6-1.6,31.207,31.207,0,0,1,2.6-4.8,8.938,8.938,0,0,0,.7-1.6,11.641,11.641,0,0,0,.6-1.7" fill="#f0967e"/>
      </g>
      <g id="Group_5738" data-name="Group 5738" clip-path="url(#clip-path)">
        <path id="Path_40779" data-name="Path 40779" d="M72.1,102.7a4.386,4.386,0,0,1-.2-2.7l2.3-4.2,2.5-2.2" fill="#f0967e"/>
      </g>
      <g id="Group_5739" data-name="Group 5739" clip-path="url(#clip-path)">
        <path id="Path_40780" data-name="Path 40780" d="M73.7,100.6s0,1.6.5,1.7a3.588,3.588,0,0,0,1.1,0l.1-1.2a4.3,4.3,0,0,0-1.7-.5Z" fill="#063856"/>
      </g>
      <g id="Group_5740" data-name="Group 5740" clip-path="url(#clip-path)">
        <path id="Path_40781" data-name="Path 40781" d="M72.9,90.7s-2,3.5-2.4,4.5c-.4,1.1-1,2.9,0,3.8,1,1,1.7,1.1,2.4.9s1-1.5,1.5-2.5a17.682,17.682,0,0,1,2-3.6c.7-.7,1.4-1.1,1.6-1.7a2.241,2.241,0,0,0-1.1-2.4C75.8,89.4,72.9,90.7,72.9,90.7Z" fill="#fcc6a3"/>
      </g>
      <g id="Group_5741" data-name="Group 5741" clip-path="url(#clip-path)">
        <path id="Path_40782" data-name="Path 40782" d="M70.5,99.1c-1-1-.4-2.8,0-3.8.4-1.1,1.9-4.5,1.9-4.5s3.4-1.4,4.4-.9a21.318,21.318,0,0,0-3.3,2.8c-.5.8-2.9,3.6-2.9,5.5Z" fill="#da8372"/>
      </g>
      <g id="Group_5742" data-name="Group 5742" clip-path="url(#clip-path)">
        <path id="Path_40783" data-name="Path 40783" d="M72.5,97.3s-.7,1.3-.4,1.6,1.1.9,1.2.8l.9-1.8S73.1,97.1,72.5,97.3Z" fill="#063856"/>
      </g>
      <g id="Group_5743" data-name="Group 5743" clip-path="url(#clip-path)">
        <path id="Path_40784" data-name="Path 40784" d="M92,84a.367.367,0,0,1-.3-.1l-2.4-1.1a.6.6,0,1,1,.5-1.1l2.4,1.1a.63.63,0,0,1,.3.8C92.5,83.9,92.3,84,92,84Z" fill="#333"/>
      </g>
      <g id="Group_5744" data-name="Group 5744" clip-path="url(#clip-path)">
        <path id="Path_40785" data-name="Path 40785" d="M91.7,81.3l-1.6,3.1s-.9,1.7,0,2.9a51.949,51.949,0,0,0,5.1,5.5c1.3,1.1,5.7,3.2,8.1,2.6a6.254,6.254,0,0,0,4.4-5.1c.4-2.2.1-4.9-.4-5.2s-1.2-3.1-6.3-4-6.8-1.3-8-1.1a2.826,2.826,0,0,0-1.3,1.3Z" fill="#cd2e27"/>
      </g>
      <g id="Group_5745" data-name="Group 5745" clip-path="url(#clip-path)">
        <path id="Path_40786" data-name="Path 40786" d="M72,91.6a24.108,24.108,0,0,0,3.8-.7c.6-.3,1.7-2.4,2.1-2.7a2.2,2.2,0,0,0,.2-2.3c-.5-.9-1.1-3.2-2.3-3.5a16.983,16.983,0,0,0-3.8-.1,28.349,28.349,0,0,0,4.3-.5c.8-.3,3.5.1,4.4,0s2.3.6,3.7.4a1.976,1.976,0,0,0,1.7-1.8c0-.4.1-.9-1.6-1.1a60.621,60.621,0,0,1-6.1-1.6c-1.6-.4-2.4-1.5-5.4-1.2a27.107,27.107,0,0,0-5.5,1.4,2.18,2.18,0,0,0-.6.1,12.079,12.079,0,0,0,.3-3.8c-.3-1.1-.6-3.2-1.6-4.4-1-1.1-1.7-1.5-2.9-1s-.9,2-.6,2.8c.3.9.9,2,.7,2.9a8.469,8.469,0,0,1-1.5,3,26.067,26.067,0,0,0-4.3,7,42.926,42.926,0,0,0-1.4,4.1l8.9,4.1,5.4,4.4a29.04,29.04,0,0,1,1.4-3.8C72.2,91.9,72,91.6,72,91.6Z" fill="#fcc6a3"/>
      </g>
      <g id="Group_5746" data-name="Group 5746" clip-path="url(#clip-path)">
        <path id="Path_40787" data-name="Path 40787" d="M62.5,92s4.1-4.5,4.3-6.7,3.7-.9,4.3-1,1.5.9,1.5.9l.3,2-2.3.7L69.1,90l.3,1.3,1.4.9.7.1.3.7a27.022,27.022,0,0,0-1.6,4.1l-3-2.9Z" fill="#f0967e"/>
      </g>
      <g id="Group_5747" data-name="Group 5747" clip-path="url(#clip-path)">
        <path id="Path_40788" data-name="Path 40788" d="M72,82.2a28.349,28.349,0,0,0,4.3-.5c.8-.3,3.5.1,4.4,0s2.3.6,3.7.4c0,0-2.4-.6-3.3-.9a12.867,12.867,0,0,0-4.3-.7,46.6,46.6,0,0,0-4.9.7C71.7,81.2,71.6,82.1,72,82.2Z" fill="#f0967e"/>
      </g>
      <g id="Group_5748" data-name="Group 5748" clip-path="url(#clip-path)">
        <path id="Path_40789" data-name="Path 40789" d="M72.6,85.1a4.98,4.98,0,0,0,.3,1.8c.3.5-.7.3-2.1,1.2s-1.5,1.6-1.4,2.5.8,1.2,2.6,1c0,0-.1,1.3-.5,1.5-.4.1-3.4-.9-3.3-2.4a4.94,4.94,0,0,1,2.6-3.5C71.7,86.9,72.6,85.1,72.6,85.1Z" fill="#b4715f"/>
      </g>
      <g id="Group_5749" data-name="Group 5749" clip-path="url(#clip-path)">
        <path id="Path_40790" data-name="Path 40790" d="M67.1,77.9s-.4,3.5-1,4c-.5.5-.8.7-.8,0s.9-4.1,1.2-5.5a16.357,16.357,0,0,0,.5-3.5,5.436,5.436,0,0,1,.5,3.1,12.967,12.967,0,0,1-.4,1.9Z" fill="#f0967e"/>
      </g>
      <g id="Group_5750" data-name="Group 5750" clip-path="url(#clip-path)">
        <path id="Path_40791" data-name="Path 40791" d="M73,87.5a5.017,5.017,0,0,1,1.4.3c.3.2-.5-.4-.7-.9a4.421,4.421,0,0,1-.2-1.5c0-.3-.6-.4-.6-.4s-.4.1-.2,1.2c.3,1.2.2.9-.1,1C72.4,87.4,73,87.5,73,87.5Z" fill="#f0967e"/>
      </g>
      <g id="Group_5751" data-name="Group 5751" clip-path="url(#clip-path)">
        <path id="Path_40792" data-name="Path 40792" d="M71.1,91.6s-.5-1-.2-1.4a.869.869,0,0,1,.9-.4c.1,0,1.2.3,1.2.7a3.056,3.056,0,0,1,0,1Z" fill="#063856"/>
      </g>
      <g id="Group_5752" data-name="Group 5752" clip-path="url(#clip-path)">
        <path id="Path_40793" data-name="Path 40793" d="M85.3,80.7a.6.6,0,1,1-.6-.6A.645.645,0,0,1,85.3,80.7Z" fill="#cd2e27"/>
      </g>
      <g id="Group_5753" data-name="Group 5753" clip-path="url(#clip-path)">
        <path id="Path_40794" data-name="Path 40794" d="M92.2,90.3s-2.5-.4-3.6.4-1.4,1.4-1.3,1.9.4,1.8,3.6,2.8a3.581,3.581,0,0,1,2.7,4.3c-.1.5-.4,5.8.1,7.3.5,1.6-.9,4.6-1.5,5.3-.5.7-1.3,2.1-1.3,2.1l-.7,1.9L101,118s.5-.8,1.1-1.8a16.164,16.164,0,0,1,2.7-3.4,95.321,95.321,0,0,0,7.8-8.9c.5-.8,1.9-2,1.7-3-.1-1-.4-2.3-.4-2.6a15.409,15.409,0,0,0-.2-1.9,3.161,3.161,0,0,1,.6-1.7c.2-.3-.2-1.7-.8-2.8-.7-1.2-.1-3-.1-3.3,0-.4.2-4.7.1-5.2s-1.6-1.8-3.4-2.8a9.309,9.309,0,0,0-4.2-1.7,22.534,22.534,0,0,1-2.6,0c-.9-.1-4.7-1.2-5.3,0s.5,1.4,1,1.7c.4.2,3.2.5,3.6.7a12.468,12.468,0,0,1,2.7,1.2c.4.5,1.8,2.6,2.4,2.6a6.025,6.025,0,0,0,1.6-.5s-1.6.4-1.5,1a32.582,32.582,0,0,1-.5,6.7c-.4,1.1-2.9,3-3.7,3s-6.4-1.1-7.2-1.8C95.5,92.9,93,90.4,92.2,90.3Z" fill="#fcc6a3"/>
      </g>
      <g id="Group_5754" data-name="Group 5754" clip-path="url(#clip-path)">
        <path id="Path_40795" data-name="Path 40795" d="M105.1,82.5c-.4-.5-2.2-1-2.7-1.2-.4-.2-3.2-.4-3.6-.7-.4-.2-1.6-.5-1-1.7A4.136,4.136,0,0,0,99.7,80c.9.1,5.3,1,5.8,1.6a25.911,25.911,0,0,0,1.9,2.3,8.677,8.677,0,0,0,1.6.6,16.56,16.56,0,0,1-1.6.5c-.4.2-1.8-2-2.3-2.5" fill="#f0967e"/>
      </g>
      <g id="Group_5755" data-name="Group 5755" clip-path="url(#clip-path)">
        <path id="Path_40796" data-name="Path 40796" d="M93.7,107.1c.5,1.6-.9,4.6-1.5,5.3-.5.7-1.3,2.1-1.3,2.1l-.8,2.2,10.9,1.5s.5-.8,1.1-1.8c0,0-1,.6-3.6-2.4-2.7-3-3.8-3.8-3.9-4.7A14.951,14.951,0,0,0,93.7,107.1Z" fill="#f0967e"/>
      </g>
      <g id="Group_5756" data-name="Group 5756" clip-path="url(#clip-path)">
        <path id="Path_40797" data-name="Path 40797" d="M96.3,93.6c.7.7,6.4,1.8,7.2,1.8s3.3-1.9,3.7-3a26.823,26.823,0,0,0,.5-6.7,9.139,9.139,0,0,1,.7,3.4c-.1,1.5.4,4.4-.6,5.8s-2.5,3.1-3.6,3c-1-.1-6.2-1.5-6.8-2.2A6.97,6.97,0,0,1,96.3,93.6Z" fill="#f0967e"/>
      </g>
      <g id="Group_5757" data-name="Group 5757" clip-path="url(#clip-path)">
        <path id="Path_40798" data-name="Path 40798" d="M90.2,91.6s-.7-.4-1.3.6-.8,1.7-.7,1.9a9.986,9.986,0,0,0,1.9,1.1,11.622,11.622,0,0,0,.9-2.1C91.1,92.5,90.8,91.7,90.2,91.6Z" fill="#063856"/>
      </g>
      <g id="Group_5758" data-name="Group 5758" clip-path="url(#clip-path)">
        <path id="Path_40799" data-name="Path 40799" d="M105.5,90.6c-1.3,2.6-3.9,3.9-5.7,3-1.9-.9-3.1-2.9-2.9-4.4a11.494,11.494,0,0,1,2.3-4.7c1-1.1,3.3-1.3,5.2-.3C106.3,85.1,106.8,88,105.5,90.6Z" fill="#822621"/>
      </g>
      <g id="Group_5759" data-name="Group 5759" clip-path="url(#clip-path)">
        <path id="Path_40800" data-name="Path 40800" d="M97.1,83.3c0-1.3-.8-1.7-1.8-.9-1,.7-1,1.8,0,2.3S97.1,84.6,97.1,83.3Z" fill="#fff"/>
      </g>
      <g id="Group_5761" data-name="Group 5761" clip-path="url(#clip-path)">
        <g id="Group_5760" data-name="Group 5760">
          <path id="Path_40801" data-name="Path 40801" d="M95.9,83.5c.3.2.6,0,.6-.4s-.3-.5-.6-.3a.385.385,0,0,0,0,.7Z" fill="#333"/>
        </g>
      </g>
      <g id="Group_5762" data-name="Group 5762" clip-path="url(#clip-path)">
        <path id="Path_40802" data-name="Path 40802" d="M94.9,88.2c-1,.7-1.8.3-1.8-.9,0-1.3.8-1.9,1.8-1.3C95.9,86.4,95.9,87.5,94.9,88.2Z" fill="#fff"/>
      </g>
      <g id="Group_5763" data-name="Group 5763" clip-path="url(#clip-path)">
        <path id="Path_40803" data-name="Path 40803" d="M94.3,87.1c.3.2.3.5,0,.8s-.6.1-.6-.3a.46.46,0,0,1,.6-.5Z" fill="#333"/>
      </g>
      <g id="Group_5764" data-name="Group 5764" clip-path="url(#clip-path)">
        <path id="Path_40804" data-name="Path 40804" d="M62,70.7s.6-.8,1.3-.7,1,1.4,1,1.6a6.528,6.528,0,0,1-1.5,1,13.174,13.174,0,0,1-.8-1.9Z" fill="#063856"/>
      </g>
      <g id="Group_5765" data-name="Group 5765" clip-path="url(#clip-path)">
        <path id="Path_40805" data-name="Path 40805" d="M76.6,93.6,76,95.3a5.338,5.338,0,0,0-.7,1" fill="#f0967e"/>
      </g>
      <g id="Group_5766" data-name="Group 5766" clip-path="url(#clip-path)">
        <path id="Path_40806" data-name="Path 40806" d="M104.9,90.3c-1.1,2.2-3.3,3.3-4.8,2.5a3.945,3.945,0,0,1-2.4-3.7,8.911,8.911,0,0,1,2-4c.8-.9,2.8-1.1,4.4-.3S106,88.1,104.9,90.3Z" fill="#fff"/>
      </g>
      <g id="Group_5767" data-name="Group 5767" clip-path="url(#clip-path)">
        <text id="_80" data-name="80" transform="translate(101.142 85.052) rotate(115.103)" fill="#333" font-size="6.58" font-family="SegoeUI, Segoe UI"><tspan x="0" y="0">80</tspan></text>
      </g>
      <g id="Group_5768" data-name="Group 5768" clip-path="url(#clip-path)">
        <path id="Path_40807" data-name="Path 40807" d="M46.6,37.4s1.1,2.7,2.2,5.8c1.4,3.8,3,8.1,3.1,8.8a2.657,2.657,0,0,1-1.1,2.8c-1,.6-.8,1.8-.6,2.8s1.1,5.4-.2,8a25.848,25.848,0,0,1-3.1,4.2c-1.8,2.2-3.7,4.5-3.8,6.2-.3,3-10.2-13.4-10.2-13.4l8.6-22.7Z" fill="#fcc6a3"/>
      </g>
      <g id="Group_5769" data-name="Group 5769" clip-path="url(#clip-path)">
        <path id="Path_40808" data-name="Path 40808" d="M46.9,69.7c-1.8,2.2-3.7,4.5-3.8,6.2-.3,3-10.2-13.4-10.2-13.4l8.6-22.7,5.2-2.3s1.1,2.7,2.2,5.8a27.931,27.931,0,0,0-2.6,6.5c-.5,2.8,1.8,7.8,1.3,12.7C47.1,67.3,46.9,69.7,46.9,69.7Z" fill="#f0967e"/>
      </g>
      <g id="Group_5770" data-name="Group 5770" clip-path="url(#clip-path)">
        <path id="Path_40809" data-name="Path 40809" d="M47.7,85.8S60,89.7,63.8,92.1c3.7,2.3,7,3.7,7.9,9.4s.7,14.3,1.2,16.6a29.5,29.5,0,0,0,2.8,6.2L8.8,125.6V86.4Z" fill="#f1e4b2"/>
      </g>
      <g id="Group_5771" data-name="Group 5771" clip-path="url(#clip-path)">
        <path id="Path_40810" data-name="Path 40810" d="M79.6,123.6s1.9-7.6,11.9-7,13,2.2,13.6,3.5a18.438,18.438,0,0,1,1,3.5Z" fill="#f1e4b2"/>
      </g>
      <g id="Group_5772" data-name="Group 5772" clip-path="url(#clip-path)">
        <path id="Path_40811" data-name="Path 40811" d="M40.6,123.4c-12.2,0-31.5-1.2-31.8-1.3a.851.851,0,0,1,.1-1.7c.3,0,26.6,1.7,37.1,1.1S73.3,120,73.5,120a13.019,13.019,0,0,1,.8,1.7c-.2,0-17.6,1-28.2,1.6C44.6,123.4,42.7,123.4,40.6,123.4Z" fill="#fff"/>
      </g>
      <g id="Group_5773" data-name="Group 5773" clip-path="url(#clip-path)">
        <path id="Path_40812" data-name="Path 40812" d="M30.7,117.4c-1.8,0-21.2-2.3-22-2.4a.906.906,0,0,1,.2-1.8c5.6.7,20.4,2.4,21.8,2.4,1.9,0,20.4-.6,23.8-1.2,2.2-.4,16.7-2.2,18-1.8l.1,1.7c-1.2-.2-13.8,1.2-17.7,1.9C51.1,116.8,32.4,117.4,30.7,117.4Z" fill="#fff"/>
      </g>
      <g id="Group_5774" data-name="Group 5774" clip-path="url(#clip-path)">
        <path id="Path_40813" data-name="Path 40813" d="M24.2,110.3c-4.2,0-15.2-3.7-15.7-3.9a.886.886,0,0,1,.5-1.7c.1,0,11.2,3.8,15.1,3.8,3.8,0,18.5-.3,22.9-1.2,2.9-.6,15.3-2.8,18.1-2.1,2.2.5,6.8,0,6.9,0l.1,1.7c-.2,0-4.9.6-7.4,0-2-.5-12.4,1.1-17.4,2.1C42.9,110,28.6,110.3,24.2,110.3Z" fill="#fff"/>
      </g>
      <g id="Group_5775" data-name="Group 5775" clip-path="url(#clip-path)">
        <path id="Path_40814" data-name="Path 40814" d="M37.6,103.3c-3.5,0-7.3-.4-7.6-.4a.906.906,0,0,1,.2-1.8c.1,0,8.8.9,11.8,0,.8-.2,2-.6,3.4-1.1,4.9-1.6,11.6-3.8,14.7-3.4,3.8.6,10.6,1.6,10.7,1.6a10.379,10.379,0,0,1,.4,1.3c.1.5-.4.5-.8.4-.1,0-6.7-.9-10.5-1.5-2.7-.4-9.7,1.9-13.9,3.3-1.5.5-2.7.9-3.5,1.1a17.161,17.161,0,0,1-4.9.5Z" fill="#fff"/>
      </g>
      <g id="Group_5776" data-name="Group 5776" clip-path="url(#clip-path)">
        <path id="Path_40815" data-name="Path 40815" d="M51,91.8c-2.1,0-4-.1-4.1-.1A.851.851,0,0,1,47,90a49.058,49.058,0,0,0,6.9,0c1.3-.1,2.8-.4,4.2-.4.1,0,3.3,1.4,3.4,1.5.2.1-.1.1-.3.1,0,0-4.5.3-7.1.6C53.2,91.7,52.1,91.8,51,91.8Z" fill="#fff"/>
      </g>
      <g id="Group_5777" data-name="Group 5777" clip-path="url(#clip-path)">
        <path id="Path_40816" data-name="Path 40816" d="M94,122.7c-1.5,0-13.3-.6-13.8-.7a17.676,17.676,0,0,1,1.2-1.7c.1,0,11.1.7,12.6.7,1,0,6.5-1.6,10.4-1.6.1,0,.3.3.7.8a1.463,1.463,0,0,1,.3.8C104.4,121.1,95.5,122.7,94,122.7Z" fill="#fff"/>
      </g>
      <g id="Group_5778" data-name="Group 5778" clip-path="url(#clip-path)">
        <path id="Path_40817" data-name="Path 40817" d="M44,38.6s1.1,1.1,4.8-1.1c3.8-2.3,5.9-6.7,2-8.8s-4.7-1-6.8-1.1c-2.1-.2-9.3-2.9-11.2-2.9s-11-1.6-17.5,8C8.8,42.1,8.1,49.1,7.6,53S5.5,70.1,5.5,75.2,6.8,87.7,7,89.4s-1.3,14.1,13.8,15.4,27.5-11.6,28-13.4c.5-1.7,2.3-5.6-.9-8.9s-5.5-7.3-3.7-14S46,58.4,46,57.5c0-1-.5-1.8-1.5-.7s-3.1,2.8-3.7,0c-.5-2.8-.1-6.6,1.4-8.5s1.5.2,1.9.5c.5.3,1.3.2,1.5-1.6S46.1,39.2,44,38.6Z" fill="#063856"/>
      </g>
      <g id="Group_5779" data-name="Group 5779" clip-path="url(#clip-path)">
        <path id="Path_40818" data-name="Path 40818" d="M25.5,28.3a20.683,20.683,0,0,0-9.7,8.1c-3.4,5.8-6,12-2.8,9.7s5.9-10.3,8.6-11.9c4.5-2.6,11.5-2.6,11.2-4.9C32.5,27.2,28.9,26.6,25.5,28.3Z" fill="#366079"/>
      </g>
      <g id="Group_5780" data-name="Group 5780" clip-path="url(#clip-path)">
        <path id="Path_40819" data-name="Path 40819" d="M42.4,82.2a14.831,14.831,0,0,0-.2,3.6c0,3.1-4.9,4.6-6,6.3s-1.3,5,1.6,3.9,7-2.7,7.5-6.8-.2-7.7-1.6-7.9C42.2,81.1,42.5,81.3,42.4,82.2Z" fill="#366079"/>
      </g>
    </g>
  </g>
</svg>
