<svg id="general_physician" xmlns="http://www.w3.org/2000/svg" xmlns:xlink="http://www.w3.org/1999/xlink" width="116.526" height="116.525" viewBox="0 0 116.526 116.525">
  <defs>
    <linearGradient id="linear-gradient" x1="0.001" y1="0.5" x2="1" y2="0.5" gradientUnits="objectBoundingBox">
      <stop offset="0" stop-color="#ebebeb"/>
      <stop offset="1" stop-color="#fff"/>
    </linearGradient>
    <clipPath id="clip-path">
      <circle id="Ellipse_1813" data-name="Ellipse 1813" cx="58.263" cy="58.263" r="58.263" transform="translate(0 0)"/>
    </clipPath>
  </defs>
  <circle id="Ellipse_1810" data-name="Ellipse 1810" cx="58.263" cy="58.263" r="58.263" transform="translate(0 0)" fill="url(#linear-gradient)"/>
  <g id="Group_7463" data-name="Group 7463">
    <g id="Group_7462" data-name="Group 7462" clip-path="url(#clip-path)">
      <path id="Path_47043" data-name="Path 47043" d="M120.516,109.87C116.82,95.085,96.394,91,96.394,91l.1,7.879L85.5,134.77v2.33a206.867,206.867,0,0,0,23.928-1.264l4.183-.486,2.334-.292A9.692,9.692,0,0,0,123.921,123Z" transform="translate(-25.097 -20.287)" fill="#fff"/>
      <path id="Path_47044" data-name="Path 47044" d="M73.061,98.687,68.976,91.1S50.3,94.991,46.6,109.775l-3.113,12.547a9.9,9.9,0,0,0,7.976,12.061c.778.1,1.556.292,2.432.389l3.988.486a226.114,226.114,0,0,0,26.554,1.751v-2.334Z" transform="translate(-23.941 -20.29)" fill="#e0e0e0"/>
      <path id="Path_47045" data-name="Path 47045" d="M100.753,94.924l-6.614-3.5C89.178,89.09,90.248,85.1,90.248,85.1H79.84s1.07,3.988-3.891,6.322l-5.35,3.4L85,94.632Z" transform="translate(-24.69 -20.126)" fill="#dcb99d"/>
      <path id="Path_47046" data-name="Path 47046" d="M67.185,60.177c.1,2.529-.389,4.669-1.751,4.669-1.264,0-2.237-1.945-2.334-4.474s.875-4.572,2.237-4.572C66.6,55.8,67.088,57.745,67.185,60.177Z" transform="translate(-24.485 -19.325)" fill="#dcb99d"/>
      <path id="Path_47047" data-name="Path 47047" d="M101.8,59.677c-.1,2.529.389,4.669,1.751,4.669,1.264,0,2.237-1.945,2.334-4.474s-.875-4.572-2.237-4.572S101.9,57.148,101.8,59.677Z" transform="translate(-25.542 -19.311)" fill="#eed3b7"/>
      <ellipse id="Ellipse_1811" data-name="Ellipse 1811" cx="17.508" cy="24.9" rx="17.508" ry="24.9" transform="translate(42.214 16.535)" fill="#eed3b6"/>
      <path id="Path_47048" data-name="Path 47048" d="M84.5,35.3V85.1c-9.727.1-17.7-10.894-17.7-24.511C66.8,46.583,74.192,35.495,84.5,35.3Z" transform="translate(-24.586 -18.765)" fill="#debb9d"/>
      <path id="Path_47049" data-name="Path 47049" d="M67.581,68.014s-3.988-14.882,4.572-22.371c0,0,6.42,5.155,14.2,3.307A20.584,20.584,0,0,0,92,46.421s6.031-2.626,8.073,3.4c2.14,6.322,1.07,12.839,1.167,16.633a45.052,45.052,0,0,0,2.918-16.243,24.534,24.534,0,0,1,.681,3.891s1.07-7.49-.875-11.867a12.818,12.818,0,0,0-6.809-7.1s-3.21-5.155-16.049-4.085c0,0-.195-.875,1.751-1.654,0,0-9.921-.584-12.158,6.128,0,0-7.976,1.751-7.3,15.66l.875-2.626C64.372,48.464,62.815,61.6,67.581,68.014Z" transform="translate(-24.492 -18.603)" fill="#070707"/>
      <path id="Path_47050" data-name="Path 47050" d="M80.3,86.367,93.041,90.55a5.377,5.377,0,0,1-2.529-5.35A11.435,11.435,0,0,1,80.3,85.4C80.2,85.395,80.3,85.686,80.3,86.367Z" transform="translate(-24.954 -20.129)" fill="#d1ad93"/>
      <path id="Path_47051" data-name="Path 47051" d="M95.14,95.686,85.121,135.955,75.2,95.686,85.219,95.2Z" transform="translate(-24.816 -20.402)" fill="#4672a3"/>
      <path id="Path_47052" data-name="Path 47052" d="M85.127,95.091l-7.2,7.392L75.4,92.075,79,91.2Z" transform="translate(-24.821 -20.293)" fill="#050505" opacity="0.11"/>
      <path id="Path_47053" data-name="Path 47053" d="M85.5,95.091l7.2,7.392,2.529-10.408-3.6-.875Z" transform="translate(-25.097 -20.293)" fill="#050505" opacity="0.11"/>
      <g id="Group_7461" data-name="Group 7461" transform="translate(56.804 74.506)">
        <g id="Group_7460" data-name="Group 7460">
          <g id="Group_7458" data-name="Group 7458" transform="translate(0.622)">
            <path id="Path_47054" data-name="Path 47054" d="M87.264,98.11a1.112,1.112,0,0,1-.681.292h-2.14c-.292,0-.681-.1-.681-.292L82.5,95.775c-.195-.486.1-.875.778-.875h4.474c.681,0,.973.389.778.875Z" transform="translate(-82.439 -94.9)" fill="#b52126"/>
          </g>
          <g id="Group_7459" data-name="Group 7459" transform="translate(0 3.113)">
            <path id="Path_47055" data-name="Path 47055" d="M85.3,136.034l-.389-1.848L81.8,125.14l.681-10.213L83.745,98.1h3.5l1.264,17.411.681,8.462Z" transform="translate(-81.8 -98.1)" fill="#b52126"/>
          </g>
        </g>
      </g>
      <path id="Path_47056" data-name="Path 47056" d="M85.5,94.566l8.657,8.851,3.21-12.158L92.017,89.8Z" transform="translate(-25.097 -20.255)" fill="#4672a3"/>
      <path id="Path_47057" data-name="Path 47057" d="M99.8,107.43H94.835l1.654,2.626L85.4,135.832l8.949-40.657,1.07-4.474a54.971,54.971,0,0,1,5.544,1.556Z" transform="translate(-25.094 -20.279)" fill="#c6c6c6"/>
      <path id="Path_47058" data-name="Path 47058" d="M85.167,94.572l-8.754,8.851L73.3,90.389,78.455,90Z" transform="translate(-24.764 -20.26)" fill="#4672a3"/>
      <path id="Path_47059" data-name="Path 47059" d="M74.072,109.267l1.654-2.626H70.764L69.5,91.175a1.382,1.382,0,0,1,.584-.195,31.428,31.428,0,0,1,5.155-.681l.875,4.182,8.851,41.435Z" transform="translate(-24.66 -20.268)" fill="#c6c6c6"/>
      <path id="Path_47060" data-name="Path 47060" d="M104.692,133.349l2.723-.1h0a.311.311,0,0,0,.292-.292l-.2-8.268a.311.311,0,0,0-.292-.292.438.438,0,0,0-.292.292l.195,7.976-2.432.1a.311.311,0,0,0-.292.292.258.258,0,0,0,.293.292Z" transform="translate(-25.613 -21.2)" fill="#ababad"/>
      <path id="Path_47061" data-name="Path 47061" d="M94.31,133.554l-2.723.1h0a.258.258,0,0,1-.292-.292l-.195-8.268a.292.292,0,0,1,.584,0l.195,7.976,2.432-.1a.292.292,0,1,1,0,.584Z" transform="translate(-25.25 -21.211)" fill="#ababad"/>
      <path id="Path_47062" data-name="Path 47062" d="M95.048,134.351H93.2V132.6h1.848a.872.872,0,0,1,.875.875C96.021,133.864,95.632,134.351,95.048,134.351Z" transform="translate(-25.307 -21.425)" fill="#606060"/>
      <path id="Path_47063" data-name="Path 47063" d="M92.064,125.048v-.486a7.052,7.052,0,1,1,14.1-.292v.486h1.362v-.486a8.367,8.367,0,1,0-16.73.389v.486Z" transform="translate(-25.242 -20.973)" fill="#070707"/>
      <path id="Path_47064" data-name="Path 47064" d="M104.075,134.151h1.848V132.4h-1.848a.875.875,0,1,0,0,1.751Z" transform="translate(-25.581 -21.419)" fill="#606060"/>
      <path id="Path_47065" data-name="Path 47065" d="M98.487,95.087A11.4,11.4,0,0,0,90.9,87.5a4.119,4.119,0,0,0,.584,1.362,11.7,11.7,0,0,1,5.252,5.155A12.7,12.7,0,0,1,97.9,98.686v.584l.389,16.535H99.46l-.39-16.536v-.584a10.742,10.742,0,0,0-.583-3.6Z" transform="translate(-25.245 -20.192)" fill="#070707"/>
      <path id="Path_47066" data-name="Path 47066" d="M73.364,129.977a.616.616,0,0,1-.486.584h0a.616.616,0,0,1-.584-.486l-.195-3.891a.616.616,0,0,1,.486-.584h0a.616.616,0,0,1,.584.486Z" transform="translate(-24.731 -21.233)" fill="#ababad"/>
      <path id="Path_47067" data-name="Path 47067" d="M75.847,132.729a2.73,2.73,0,1,1-2.918-2.529,2.667,2.667,0,0,1,2.918,2.529Z" transform="translate(-24.684 -21.359)" fill="#111"/>
      <path id="Path_47068" data-name="Path 47068" d="M73.329,135.266a2.387,2.387,0,1,1,2.237-2.529A2.387,2.387,0,0,1,73.329,135.266Zm-.292-4.474a2.045,2.045,0,1,0,2.14,1.945A2.045,2.045,0,0,0,73.037,130.792Z" transform="translate(-24.695 -21.367)" fill="#dfdfdf"/>
      <circle id="Ellipse_1812" data-name="Ellipse 1812" cx="2.043" cy="2.043" r="2.043" transform="translate(46.397 109.522)" fill="#ababad"/>
      <path id="Path_47069" data-name="Path 47069" d="M71.689,95.959a13.058,13.058,0,0,0-.389,3.4v.584l.875,27.332v.1a.628.628,0,0,0,.584.584.561.561,0,0,0,.584-.584v-.1h0l-.875-27.332v-.584a10.935,10.935,0,0,1,.778-4.377,11.953,11.953,0,0,1,6.031-6.128A3.178,3.178,0,0,0,79.86,87.4a12.086,12.086,0,0,0-8.171,8.559Z" transform="translate(-24.709 -20.189)" fill="#070707"/>
      <path id="Path_47070" data-name="Path 47070" d="M58.586,125.2h0L58.1,136.191h0Z" transform="translate(-24.348 -21.222)" fill="#e0e0e0"/>
    </g>
  </g>
</svg>
