<svg xmlns="http://www.w3.org/2000/svg" xmlns:xlink="http://www.w3.org/1999/xlink" width="117.2" height="117.199" viewBox="0 0 117.2 117.199">
  <defs>
    <linearGradient id="linear-gradient" y1="0.5" x2="1" y2="0.5" gradientUnits="objectBoundingBox">
      <stop offset="0" stop-color="#ebebeb"/>
      <stop offset="1" stop-color="#fff"/>
    </linearGradient>
  </defs>
  <g id="neurosurgeon" transform="translate(-8.2 -8.801)">
    <circle id="Ellipse_1514" data-name="Ellipse 1514" cx="58.6" cy="58.6" r="58.6" transform="translate(8.2 8.8)" fill="url(#linear-gradient)"/>
    <g id="Group_6349" data-name="Group 6349">
      <path id="Path_43773" data-name="Path 43773" d="M115.9,83.7V85c.3.3.1.6,0,.9-.2,2-1,3-3,3.4-.7.4-1.3.1-2,0a29.885,29.885,0,0,0-6-.8,18.906,18.906,0,0,0-5.8.8,4.253,4.253,0,0,1-1.1.2c-.3,0-.4-.2-.3-.4a5.009,5.009,0,0,1,.7-.8l12.8-12.8c.3-.3.5-.7,1-.7a11.7,11.7,0,0,1,2.8,4.8,7.987,7.987,0,0,1,.9,4.1Z" fill="#f8a597"/>
      <path id="Path_43774" data-name="Path 43774" d="M113.1,90.7v.8c.3.4,0,.8-.2,1.1a4.685,4.685,0,0,1-2.4,2.4,2.195,2.195,0,0,1-1.2.5,6.7,6.7,0,0,1-2,0c-.5-.1-1-.2-1.4-.3a11.5,11.5,0,0,1-1.7-.6,4.671,4.671,0,0,0-1-.5c-.7-.3-1.2-1-2.1-1a4.3,4.3,0,0,0-1,.9c-2,1.9-3.8,3.9-5.9,5.8H94a6.356,6.356,0,0,0-1.8-.6c-.1,0-.1-.1-.1-.2,0-.4.3-.6.6-.8l7.5-7.5a2.407,2.407,0,0,1,.8-.6,17.908,17.908,0,0,1,6.5-.3c1.7.2,3.3.7,5,1C112.7,90.5,112.9,90.6,113.1,90.7Z" fill="#d18a7d"/>
      <path id="Path_43775" data-name="Path 43775" d="M113.1,90.7A29.287,29.287,0,0,1,109,90a19.825,19.825,0,0,0-8.4,0,5.094,5.094,0,0,1-1.7.7c-1.5.5-2.9,1.2-4.4,1.8a23.866,23.866,0,0,1-6,1.4,1.486,1.486,0,0,1-.9-.2,1.393,1.393,0,0,1-.2-1.5c.9-.5,2-.3,2.9-.6.6-.1,1.2-.2,1.7-.3,1.3-.5,2.7-.8,3.9-1.4.6-.2,1.1-.7,1.8-.6a21.8,21.8,0,0,1,8.8-1.1,51.154,51.154,0,0,1,5.4,1,3.4,3.4,0,0,0,1,.1,2.3,2.3,0,0,1,.2,1.4Z" fill="#ba7b6f"/>
      <path id="Path_43776" data-name="Path 43776" d="M96.6,108.1a22.6,22.6,0,0,0-.1-2.6c0-.1-.1-.2,0-.3,1.6-1.9,3.5-3.5,5.2-5.3.2-.2.4-.4.7-.2.2.2.2.5.3.8a3.3,3.3,0,0,1,0,1.4.367.367,0,0,1-.1.3c-1.5,1.8-3.2,3.3-4.9,5C97.5,107.6,97.2,108.1,96.6,108.1Z" fill="#d28a7d"/>
      <path id="Path_43777" data-name="Path 43777" d="M96.4,100.8c-.2-.6-.8-.7-1.3-.9-.1-.1-.2-.1-.2-.3,0-.3.2-.4.4-.6,1.7-1.8,3.5-3.5,5.3-5.2.2-.2.4-.6.9-.3.4.5.3,1,.5,1.6,0,.3.2.6.1.9a29.966,29.966,0,0,0-3.2,3,19.854,19.854,0,0,1-2.1,2C96.5,100.9,96.5,100.9,96.4,100.8Z" fill="#d28a7d"/>
      <path id="Path_43778" data-name="Path 43778" d="M96.6,104.4a22.6,22.6,0,0,0-.1-2.6c0-.1-.1-.2,0-.3,1.5-1.7,3.1-3.2,4.7-4.8a.908.908,0,0,1,.7-.3.215.215,0,0,1,.2.2,12.86,12.86,0,0,1,.4,1.9c0,.2.1.5,0,.7-.3.1-.5.1-.7.4l-4.2,4.2C97.3,104.1,97.1,104.4,96.6,104.4Z" fill="#d28a7d"/>
      <path id="Path_43779" data-name="Path 43779" d="M102.6,105.8v.9c-.1,1.8-.1,1.8-1.9,1.9-.3.1-.6.3-.9,0a22.6,22.6,0,0,1-2.6-.1c-.1-.3.2-.5.3-.7l4.3-4.3c.2-.2.4-.4.7-.3C102.5,104.1,102.6,105,102.6,105.8Z" fill="#d18a7d"/>
      <path id="Path_43780" data-name="Path 43780" d="M102.5,102.3a1.7,1.7,0,0,0,.1.7c0,.1,0,.1-.1.2q-2.7,2.55-5.4,5.4c-.1,0-.1,0-.2.1-.4.1-.5,0-.4-.4,0-.1,0-.1.1-.2,1.7-1.7,3.4-3.4,5.2-5.1Z" fill="#cf897c"/>
      <path id="Path_43781" data-name="Path 43781" d="M96.6,105.3a1.7,1.7,0,0,0-.1-.7c0-.1,0-.1.1-.2,1.7-1.6,3.3-3.3,5-4.9.2-.2.4-.6.8-.1.1.1.1.2,0,.4-1.6,1.6-3.3,3.2-4.9,4.8a5.5,5.5,0,0,0-.9.7Z" fill="#cf897d"/>
      <path id="Path_43782" data-name="Path 43782" d="M114.5,85.6c0,1.8.2,1.5-1.5,1.2a6,6,0,0,1-4.4-5.2c0-.4.1-.5.5-.5h.7c1.2-.2,2,0,2.3,1.4a1.764,1.764,0,0,0,1.3,1.2C114.5,84.3,114.5,84.3,114.5,85.6Z" fill="#d18a7d"/>
      <path id="Path_43783" data-name="Path 43783" d="M97.9,89.3c-.6.2-1.1.5-1.7.7-.1-.4.2-.6.5-.8l14.4-14.4c.2-.2.4-.6.8-.5a.781.781,0,0,1,.4.4,5.007,5.007,0,0,1-.7.8l-13,13a2.7,2.7,0,0,0-.7.8Z" fill="#f7a495"/>
      <path id="Path_43784" data-name="Path 43784" d="M92.1,98.8a1.421,1.421,0,0,1-.6-.2c-.3-.5.2-.7.4-1l7-7a4.923,4.923,0,0,1,1.7-.6c-2.6,2.6-5.2,5.2-7.8,7.9a5.5,5.5,0,0,1-.7.9Z" fill="#cf897c"/>
      <path id="Path_43785" data-name="Path 43785" d="M94.9,99.7a1.445,1.445,0,0,1-.7-.2c2.3-2.3,4.5-4.7,6.9-6.9.3.2.4.4.1.7C99.1,95.4,96.9,97.5,94.9,99.7Z" fill="#cf897d"/>
      <path id="Path_43786" data-name="Path 43786" d="M90.6,91.9a15.438,15.438,0,0,1-3,.4.52.52,0,0,1-.4.2H86.1a4.477,4.477,0,0,1-2-.4l-.9-.6A4.071,4.071,0,0,1,82,90.1a2.118,2.118,0,0,1-.3-.7c-.2-.6-.1-1.6-1.2-1.3H77a2.2,2.2,0,0,1-.8-.1c-.7-.2-1.5-.4-1.8-1.2a3.81,3.81,0,0,1-.3-1c0-.5-.2-1,.2-1.3a19.99,19.99,0,0,1,1.5-5.3,17.269,17.269,0,0,1,9.8-9.5,6.367,6.367,0,0,1,2.7-.7c-.4,1.4-.1,1.9,1.4,2.2a3.4,3.4,0,0,0,2-.3c.8-.5.9-1,.2-1.7-.2-.2-.4-.3-.5-.6a4.468,4.468,0,0,1,2.8,0c0,.3-.3.7.2,1a1.95,1.95,0,0,0,1.5,0c.5-.2.2-.6.2-1a21.145,21.145,0,0,1,3.5-.2c0,.7-.5.9-.9,1.3a.949.949,0,0,0-.4,1.1c.3,1.6-.2,2.2-1.8,2.3a4.38,4.38,0,0,0-4.1,4.4,4.442,4.442,0,0,0,4.3,4.1,22.879,22.879,0,0,1,3.7.1c.5.5-.1.7-.3,1-1.1,1.1-2.1,2.2-3.2,3.2l-5.2,5.2a7.632,7.632,0,0,1-1.1.8Z" fill="#f8a597"/>
      <path id="Path_43787" data-name="Path 43787" d="M100.1,68.4a17.06,17.06,0,0,1,9.4,3.6c.2.1.3.3.5.5a1.794,1.794,0,0,1-.5.7L102,80.7c-.3.3-.5.9-1.1.4,0-.1-.1-.2-.1-.4-.1-1.6-.1-1.6-1.8-1.6H96.8c-1.2-.1-1.9-.7-1.9-1.8a1.655,1.655,0,0,1,1.8-1.7,4.157,4.157,0,0,0,3.6-6.3C100.1,69,99.9,68.7,100.1,68.4Z" fill="#f8a597"/>
      <path id="Path_43788" data-name="Path 43788" d="M100.1,68.4a6.387,6.387,0,0,1,1,3.3A4.118,4.118,0,0,1,97,75.8c-1.2,0-1.8.5-1.9,1.5,0,1,.6,1.5,1.9,1.5h3.3c.7,0,.9.2.8.9v1.6q.3.9-.6.6H96.6a4.614,4.614,0,0,1-4.5-4.5A4.375,4.375,0,0,1,96.5,73c1.5.1,1.8-1.1,1.4-2.3-.2-.5-.1-.7.3-.9a8.636,8.636,0,0,0,1.4-1.3C99.8,68.3,99.9,68.3,100.1,68.4Z" fill="#d18a7d"/>
      <path id="Path_43789" data-name="Path 43789" d="M111.9,74.4c-.2.1-.3.3-.5.4L96.7,89.5a1.756,1.756,0,0,0-.4.5,14.3,14.3,0,0,1-3.9,1.5c-.3.1-.5.1-.4-.2a1.344,1.344,0,0,1,.6-.7l17.2-17.2c.2-.2.4-.5.7-.5C111.1,73.1,111.4,73.8,111.9,74.4Z" fill="#f8a597"/>
      <path id="Path_43790" data-name="Path 43790" d="M110.4,72.9a5.717,5.717,0,0,1-.7.8L92.6,90.8c-.1.1-.8.2-.3.7a4.711,4.711,0,0,1-1.7.4c1.4-1.4,2.8-2.8,4.1-4.2,1.9-1.9,3.8-3.9,5.7-5.8a.53.53,0,0,0,.6-.6c2.7-2.7,5.4-5.3,8-8,.3-.3.6-.5.9-.8A1,1,0,0,1,110.4,72.9Z" fill="#f8a495"/>
      <path id="Path_43791" data-name="Path 43791" d="M91.4,68.6a5.582,5.582,0,0,1,.8.5,1.027,1.027,0,0,1,0,1.7,3.45,3.45,0,0,1-4.1,0c-.6-.6-.4-1.2.2-1.8A3.126,3.126,0,0,1,91.4,68.6Z" fill="#fffefe"/>
      <path id="Path_43792" data-name="Path 43792" d="M96,68.6c.7.6.7.9-.1,1.2a2.208,2.208,0,0,1-1.6,0c-.8-.3-.8-.6-.1-1.2a1.913,1.913,0,0,1,1.8,0Z" fill="#fefcfc"/>
      <path id="Path_43793" data-name="Path 43793" d="M89.7,97.6c-.2-.3-.5-.5-.7-.8-.3-.5-.5-1.1-.8-1.6-.4-.2-.4-.6-.5-1,0-.2,0-.4.2-.5a19.541,19.541,0,0,0,8.2-2.1A10.208,10.208,0,0,1,99,90.5c.2.4-.2.5-.4.7-2.1,2.2-4.3,4.3-6.4,6.4-.3.3-.6.5-.6.9h-.4Z" fill="#d18a7d"/>
      <path id="Path_43794" data-name="Path 43794" d="M101.8,96a4.331,4.331,0,0,0,.1.5c-1.5,1.3-2.8,2.8-4.2,4.1-.3.3-.7.6-1,.9v-.7c1.5-1.7,3.2-3.2,4.7-4.8C101.4,95.9,101.6,95.9,101.8,96Z" fill="#cf897d"/>
      <path id="Path_43795" data-name="Path 43795" d="M87.5,74.8a5.93,5.93,0,0,1-2,5.5A5.179,5.179,0,0,1,82,81.7a2.954,2.954,0,0,0-3.2,2.4c-.1.5-.3.6-.8.6h-.7c-2,0-1.7,0-1.3-1.8a5.767,5.767,0,0,1,5.3-4.2c2.4,0,3.3-1.4,3.4-3.6V72.7c0-.5.2-.7.7-.7,2.1-.1,2.1-.1,2.1,2Z" fill="#d18a7d"/>
      <path id="Path_43796" data-name="Path 43796" d="M89.1,89.3c-1.7,0-1.5.2-1.5-1.5.1-3.9,3.1-6.3,6.9-6a.472.472,0,0,1,.5.5v.5c0,1.9,0,1.9-1.8,2a2.988,2.988,0,0,0-2.7,2.7v.6c.1.8-.2,1.2-1,1.1C89.4,89.2,89.3,89.3,89.1,89.3Z" fill="#d18a7d"/>
      <path id="Path_43797" data-name="Path 43797" d="M103.3,74v-.8c0-.4.1-.7.6-.6a2.417,2.417,0,0,0,1.9-1c.2-.3.4-.5.8-.3a1.087,1.087,0,0,0,.5.1c1.9.5,2,.7.8,2.3a5.328,5.328,0,0,1-3.5,1.9c-.8.1-1.2-.1-1.1-1Q103.3,74.15,103.3,74Z" fill="#d18a7d"/>
      <g id="Group_6348" data-name="Group 6348">
        <path id="Path_43798" data-name="Path 43798" d="M41.4,37s16.2-6.5,32.8.2V33.5s1.2-10.8-17.1-9.9-15.5,8.7-15.5,8.7Z" fill="#72c9ee"/>
        <path id="Path_43799" data-name="Path 43799" d="M41.6,32.4s-3.5-9.2,8.8-11.1,17.6.6,17.6.6,7.7,2,6.2,11.6c0,0-2.1-7-8.1-7.8a50.3,50.3,0,0,0-17.7.2C41.5,27.2,41.6,32.4,41.6,32.4Z" fill="#60accc"/>
        <path id="Path_43800" data-name="Path 43800" d="M74.6,51.3s1.4,8.8-4.8,14.8c0,0-11.1,11-23.6.4,0,0-6.5-5.9-4.7-14.9,0,0-7.7-.2-6-5.2s5.8-3.6,5.8-3.6l.2-5.7s16.4-6.5,32.8.2v5.8s5.6-1.1,5.9,3.2C80.6,50.5,74.6,51.3,74.6,51.3Z" fill="#fadfb8"/>
        <path id="Path_43801" data-name="Path 43801" d="M65.5,69.5,65.3,77A7.632,7.632,0,0,1,58,83.4c-6.5.4-8.7-6.2-8.7-6.2l.5-7.6C49.9,69.6,58,73.1,65.5,69.5Z" fill="#fadfb8"/>
        <path id="Path_43802" data-name="Path 43802" d="M41.3,39.6l.1,6.2,4.3,7.7.4,13s11.5,10.4,23.6-.4V53.7l4.4-7.2V40.9L67.6,51.5l-7.4-2.3a11.1,11.1,0,0,0-4.5,0c-2.6.5-7.7,2-7.7,2Z" fill="#489abd"/>
        <path id="Path_43803" data-name="Path 43803" d="M75.5,77.9S79.1,63.7,101.6,67c0,0,12.1.8,14.4,15.1,0,0-3.5-12.5-13.5-13.4s-14.3.2-14.3.2S76.7,70.5,74.2,84a17.146,17.146,0,0,1,1.3-6.1Z" fill="#f9b9ac"/>
        <path id="Path_43804" data-name="Path 43804" d="M29.6,93.6S26.8,76.4,49.3,77.2l16-.2,7.3.4s15.2,3.9,13.9,18.8Z" fill="#60accc"/>
        <path id="Path_43805" data-name="Path 43805" d="M29.5,94.3l-.2,13,57.1-.1V96.1s-7.8,1.9-10-5.6c0,0-9.4,1.6-9.5-3.7V82.1L46.7,82S32.6,80.5,29.5,94.3Z" fill="#73c9ef"/>
        <rect id="Rectangle_3889" data-name="Rectangle 3889" width="2.6" height="12.1" transform="translate(38.8 95.2)" fill="#60accc"/>
        <rect id="Rectangle_3890" data-name="Rectangle 3890" width="2.6" height="12.1" transform="translate(74.8 95.2)" fill="#60accc"/>
      </g>
    </g>
  </g>
</svg>
