<svg xmlns="http://www.w3.org/2000/svg" xmlns:xlink="http://www.w3.org/1999/xlink" width="117.2" height="117.199" viewBox="0 0 117.2 117.199">
  <defs>
    <linearGradient id="linear-gradient" y1="0.5" x2="1" y2="0.5" gradientUnits="objectBoundingBox">
      <stop offset="0" stop-color="#ebebeb"/>
      <stop offset="1" stop-color="#fff"/>
    </linearGradient>
    <clipPath id="clip-path">
      <circle id="Ellipse_1727" data-name="Ellipse 1727" cx="58.6" cy="58.6" r="58.6" transform="translate(8.2 8.8)"/>
    </clipPath>
  </defs>
  <g id="oncologist" transform="translate(-8.2 -8.801)">
    <circle id="Ellipse_1725" data-name="Ellipse 1725" cx="58.6" cy="58.6" r="58.6" transform="translate(8.2 8.8)" fill="url(#linear-gradient)"/>
    <g id="Group_6939" data-name="Group 6939">
      <g id="Group_6920" data-name="Group 6920" clip-path="url(#clip-path)">
        <g id="Group_6900" data-name="Group 6900">
          <g id="Group_6898" data-name="Group 6898">
            <path id="Path_45371" data-name="Path 45371" d="M69.5,56.3s-5,6-10.1,5.2a1.527,1.527,0,0,1-1-2.3c.8-1.9,6.9-1.6,10.2-3.4C68.9,55.5,69.5,56.3,69.5,56.3Z" fill="#f3be84"/>
            <path id="Path_45372" data-name="Path 45372" d="M59.3,61.1c4.7.8,9.4-4.3,10.1-5a.31.31,0,0,1,.1.2s-5,6-10.1,5.2a1.479,1.479,0,0,1-1.2-1.2,1.853,1.853,0,0,0,1.1.8Z" fill="#e2a46a"/>
          </g>
          <g id="right_hand_straight_1_">
            <path id="Path_45373" data-name="Path 45373" d="M59.4,51.4c2.4,6.5,2.8,8.7,1.1,9.7-2.9,1.8-3.4-3.3-6.1-8.1-3.3-8.1-3.1-8.9-.8-10C55.9,41.8,56,42.7,59.4,51.4Z" fill="#e8cfe2"/>
            <path id="Path_45374" data-name="Path 45374" d="M53.6,43a3.552,3.552,0,0,1,.9-.4c-.1,0-.1.1-.2.1-2.2,1.1-2.5,1.9.8,10,2.4,4.3,3.1,8.9,5.3,8.5-2.8,1.6-3.3-3.5-6-8.2C51.1,44.9,51.4,44.1,53.6,43Z" fill="#dcbad8"/>
          </g>
          <g id="Group_6899" data-name="Group 6899">
            <path id="Path_45375" data-name="Path 45375" d="M71,55.6a5.326,5.326,0,0,1-1.6.8.861.861,0,0,1-.8-.5,3.808,3.808,0,0,1,1.2-1.8C69.7,54,71.1,54.5,71,55.6Z" fill="#e2a46a"/>
            <path id="Path_45376" data-name="Path 45376" d="M68.5,55.7l.1-.5,2.2-3.7.3.1L69,55.4Z" fill="#373c4d"/>
            <path id="Path_45377" data-name="Path 45377" d="M71,55.6s.2-.2.2-.3a1.007,1.007,0,0,0-.1-.3.433.433,0,0,0,.2-.4.294.294,0,0,0-.3-.3s.2-.3,0-.5c-.1-.2-.4-.2-.4-.2a.353.353,0,0,0-.1-.4c-.4-.3-2.1,1-1.8,1.3.2.3,1.2-.5,1.2-.4s-1.4.6-1.3,1c.1.3,1.5-.4,1.5-.4s-1.3.5-1.1.8,1.3-.2,1.3-.2-.6.2-.6.4C69.8,55.9,70.5,55.8,71,55.6Z" fill="#f3be84"/>
          </g>
        </g>
        <g id="legs_x5F_stand_1_">
          <g id="Group_6901" data-name="Group 6901">
            <path id="Path_45378" data-name="Path 45378" d="M39.3,121.9a10.831,10.831,0,0,0-1.3,3.7,3.43,3.43,0,0,0,.7,1.7,2.824,2.824,0,0,0,1.5-1.5,26.168,26.168,0,0,0,.3-3.9S40.4,120.5,39.3,121.9Z" fill="#515483"/>
            <path id="Path_45379" data-name="Path 45379" d="M39.3,121.8s-1.8,3.6-.3,3.8,1.4-3.7,1.4-3.7S40.1,120.7,39.3,121.8Z" fill="#f3be84"/>
          </g>
          <g id="Group_6902" data-name="Group 6902">
            <path id="Path_45380" data-name="Path 45380" d="M52.5,122.3s-.4,1.8-.2,2a31.008,31.008,0,0,0,2.7,3.1h2.9c-.1-.6-.8-.6-1.6-1.6-1-1.2-1.9-1.8-2.4-3.5C53.7,121.5,52.5,122.3,52.5,122.3Z" fill="#515483"/>
            <path id="Path_45381" data-name="Path 45381" d="M52.5,122.3s1.5,4.6,3.5,4.1c.6-.1.3-.5-.2-1.1a11.2,11.2,0,0,1-1.9-2.9S52.9,121.3,52.5,122.3Z" fill="#e2a46a"/>
            <path id="Path_45382" data-name="Path 45382" d="M52.3,124.3s.2.6.4,1.3c.1.7.3,1.8.3,1.8h.1a15.235,15.235,0,0,1,.2-2.5C53.3,125,53,123.6,52.3,124.3Z" fill="#515483"/>
          </g>
          <path id="Path_45383" data-name="Path 45383" d="M50.1,93.5a44.505,44.505,0,0,0-2.6,11c-.2,3.7,4.3,10.4,4.9,17.8,0,0,0,.2,1.4.1-.7-4.4-.3-22.3.4-29,.1-1.4.5-3.1-1.3-3.3C50.9,89.9,50.8,91.8,50.1,93.5Z" fill="#e2a46a"/>
          <g id="Group_6903" data-name="Group 6903">
            <path id="Path_45384" data-name="Path 45384" d="M43.5,94.2c-1.2,3.3-3.1,6.6-4,10.2s.3,11.9-.2,18.3l1.2.1c2.4-11.2,4-12.1,5.2-15.8s1.2-7.8,2.3-13.1c.4-1.9,1-4-.7-4.4C44.6,88.9,44.3,92.5,43.5,94.2Z" fill="#f3be84"/>
            <path id="Path_45385" data-name="Path 45385" d="M47.9,93.9c.4-1.9,1-4-.7-4.4-2.6-.6-2.8,3-3.6,4.6-.3.8-.6,1.5-1,2.4a8.454,8.454,0,0,0,3.5.3s.2,5.8-.7,8.7-5.3,11.2-4.9,17.1h0c2.4-11.1,4-11.9,5.2-15.7C46.8,103.3,46.7,99.2,47.9,93.9Z" fill="#e2a46a"/>
          </g>
          <g id="Group_6905" data-name="Group 6905">
            <g id="Group_6904" data-name="Group 6904">
              <path id="Path_45386" data-name="Path 45386" d="M36.8,67s-4.1,9,5.4,28.2a39.267,39.267,0,0,0,12.8,0c1.7-16.5,3.3-20.9,2.1-26.7C48,60.8,36.8,67,36.8,67Z" fill="#515483"/>
            </g>
            <path id="Path_45387" data-name="Path 45387" d="M36.7,80.2s2.5,9.6,5.5,14.9a36.822,36.822,0,0,0,12.8,0s1-9.3,2.1-16.9c0,0-2.5,15.4-8.6,15.4C42.2,93.7,36.7,80.2,36.7,80.2Z" fill="#494b7b"/>
          </g>
        </g>
        <g id="body_1_">
          <path id="Path_45388" data-name="Path 45388" d="M52,57.3c0-1.8,3.1-4.7,3.7-6.9.6-2.3-.4-8-.4-8s-5.5-1.3-8.4-1.1-9.7,3-9.7,3c.8,8.8,6.5,11.6,6.5,13.4s-5.6,5.7-7.1,9.5c-1.4,3.8,20.8,5.2,20.5,2.2C56.9,66.4,52,59.6,52,57.3Z" fill="#515483"/>
          <g id="Group_6906" data-name="Group 6906">
            <path id="Path_45389" data-name="Path 45389" d="M53.7,61.5A10.137,10.137,0,0,1,52,57.3c0-1.8,3.1-4.7,3.7-6.9a7.087,7.087,0,0,1-5.8,4.2c-5.9.8-7.9-.7-10.5-3.1,1.9,3.4,4.4,5,4.4,6.2,0,.7-1.3,2.1-2.2,3.4,0,0,5-3.1,7.9-3.1C51,57.9,52.6,60.1,53.7,61.5Z" fill="#42476e"/>
          </g>
          <path id="Path_45390" data-name="Path 45390" d="M40.8,42.9s1.8,5,8.4,8.1c0,0,3.7-4.2,3.9-9.2,0,0-4.3-.9-6.1-.6a17.676,17.676,0,0,0-6.2,1.7Z" fill="#bfbcde"/>
          <g id="Group_6907" data-name="Group 6907">
            <path id="Path_45391" data-name="Path 45391" d="M49.2,51l.1-.1-1.2-6.8-.1.2v-.1Z" fill="#9f97c9"/>
          </g>
          <path id="Path_45392" data-name="Path 45392" d="M47.9,46.9a.2.2,0,1,1-.2-.2.215.215,0,0,1,.2.2Z" fill="#9f97c9"/>
          <path id="Path_45393" data-name="Path 45393" d="M40.8,42.9l1.4-.6,3.3,3.3,1.6-2.7.9,1.5.7-1.5,1.2,2.3,1.5-3.5L53,42a11.606,11.606,0,0,1-.9,4.1l-2.4-.6-.4-.7-1.1,1.1-1.9-1-.8,1.3-1.8-1.7-1.5,1.1a27.279,27.279,0,0,1-1.4-2.7Z" fill="#b3aed7"/>
          <path id="Path_45394" data-name="Path 45394" d="M48.3,48.6a.2.2,0,1,1-.2-.2.215.215,0,0,1,.2.2Z" fill="#9f97c9"/>
        </g>
        <path id="Path_45395" data-name="Path 45395" d="M45.7,71.4c.3-4,3-16.1,2.7-18.6-.3-2.1-5.5-8.8-6.8-10.5a34.449,34.449,0,0,0-4.5,1.9c.8,8.8,6.6,11.6,6.6,13.4s-5.7,5.7-7.2,9.5v.1c-.5,1.5-3.2,9.9,5.2,29.6a40.3,40.3,0,0,0,4.6.5C46,90.4,45.5,74.4,45.7,71.4Z" fill="#e8cfe2"/>
        <path id="Path_45396" data-name="Path 45396" d="M57.2,68.8h0c0-.2,0-.3-.1-.3h0c-1-3.3-5-9-5-11.1,0-1.8,3.1-4.7,3.7-6.9.6-2.3-.4-8-.4-8a28.68,28.68,0,0,0-3.4-.8,89.707,89.707,0,0,0-1.6,10.9c0,2.6,2.4,14.5,2.9,19,.4,3.3-.3,18.8-.7,25.5q1.5-.15,2.4-.3C56.9,80.3,58.4,74.4,57.2,68.8Z" fill="#e8cfe2"/>
        <path id="Path_45397" data-name="Path 45397" d="M39.5,42.8l2.8,1.9s-.5,2.5-.1,3.1,6.2,5.1,6.2,5.1c-.3-2.2-5.6-9.1-6.9-10.8l-1.5.5A1.69,1.69,0,0,0,39.5,42.8Z" fill="#f3e3f0"/>
        <path id="Path_45398" data-name="Path 45398" d="M54.2,41.9l-1.8,2.2s.9,2.7.7,3.3c-.1.6-2.6,5.5-2.6,5.5-.6-2.3,1.1-9.6,1.5-11.4a8.506,8.506,0,0,1,2.2.4Z" fill="#f3e3f0"/>
        <path id="Path_45399" data-name="Path 45399" d="M39.3,51.4c1.9,3.4,4.5,5.1,4.5,6.3,0,1-2.1,2.9-2.6,3.5a39.708,39.708,0,0,1,6.7-3c.2-1.3.4-2.5.5-3.5C43.6,55,41.7,53.5,39.3,51.4Z" fill="#dcbad8"/>
        <path id="Path_45400" data-name="Path 45400" d="M55.8,50.4a7.241,7.241,0,0,1-5.1,4c.2,1.2.4,2.7.7,4.4a32.266,32.266,0,0,1,2.5,2.9,14.958,14.958,0,0,1-1.7-4.4C52.1,55.5,55.2,52.6,55.8,50.4Z" fill="#dcbad8"/>
        <rect id="Rectangle_3915" data-name="Rectangle 3915" width="6" height="2.7" transform="translate(37.204 67.39) rotate(4.167)" fill="#f3e3f0"/>
        <rect id="Rectangle_3916" data-name="Rectangle 3916" width="3.2" height="2.7" transform="translate(58.18 70.189) rotate(175.833)" fill="#f3e3f0"/>
        <path id="Path_45401" data-name="Path 45401" d="M41.8,96.8a31.658,31.658,0,0,0,4.6.5s-.8-21.1-.7-25.9c0,0-.8,23.2-1.4,23.5-1.1.6-3.3-.1-3.3-.1S41.7,96.6,41.8,96.8Z" fill="#dcbad8"/>
        <path id="Path_45402" data-name="Path 45402" d="M55.1,96.5a16.152,16.152,0,0,1-2.4.3L53.5,74c1.1,4.8.1,20.3.5,20.7s1.4-.1,1.4-.1Z" fill="#dcbad8"/>
        <g id="Group_6908" data-name="Group 6908">
          <path id="Path_45403" data-name="Path 45403" d="M73,54.5l-15,.8s-5.8,11.2-8.4,12.8c4.6,1.1,14.5-.1,14.5-.1Z" fill="#d3aeab"/>
          <path id="Path_45404" data-name="Path 45404" d="M73.4,54.8l-15.1.8L50.7,68.9l13.7-.6Z" fill="#373c4d"/>
          <path id="Path_45405" data-name="Path 45405" d="M62.7,55.3l7.2-.3v-.5l-7.2.3Z" fill="#576078"/>
          <path id="Path_45406" data-name="Path 45406" d="M73.4,54.8s-13.2.7-15,.8c7.4,3.2,6.1,12.8,6.1,12.8Z" fill="#373c4d" opacity="0.2"/>
        </g>
        <g id="Group_6913" data-name="Group 6913">
          <g id="Group_6909" data-name="Group 6909">
            <path id="Path_45407" data-name="Path 45407" d="M35.6,54.1c-.5,6.9-.3,9.8,1.5,10.3,1.6.4,2.4-1.5,2.8-3.3.4-3.8.4-4.8.8-7.1,1-6.3.5-9.7-1.9-10.2C36.2,43.4,36.3,46.7,35.6,54.1Z" fill="#e8cfe2"/>
          </g>
          <g id="Group_6910" data-name="Group 6910">
            <path id="Path_45408" data-name="Path 45408" d="M37.1,64.3a2.172,2.172,0,0,1,1-4.2c3,.2,8.2,2.9,14.2,3.5v1C48.1,65,41,65.9,37.1,64.3Z" fill="#f3be84"/>
            <path id="Path_45409" data-name="Path 45409" d="M37.6,64.1c3.9,1.6,10.5.6,14.6.2v.3c-4.1.4-11.2,1.3-15.1-.3C37.1,64.3,36.8,63.9,37.6,64.1Z" fill="#e2a46a"/>
          </g>
          <path id="Path_45410" data-name="Path 45410" d="M52.2,63.6a5.923,5.923,0,0,1,.6-.4,2.814,2.814,0,0,1,.8-.1l-.6.7Z" fill="#f3be84"/>
          <g id="Group_6912" data-name="Group 6912">
            <path id="Path_45411" data-name="Path 45411" d="M52.1,63.6c-.2,0,1.3.1,2,.1s1.8-.2,1.7.1c0,.3-1.6.2-1.7.4,0,.2,1.9-.1,1.9.2s-1.8.3-1.9.4c0,.1,1.6-.1,1.6.2-.1.3-1.7.1-1.7.2s1.1,0,1.1.2c0,.1-.6.2-1.3.1a2.854,2.854,0,0,1-1.9-.9Z" fill="#f3be84"/>
            <g id="Group_6911" data-name="Group 6911">
              <path id="Path_45412" data-name="Path 45412" d="M52,64.4a2.789,2.789,0,0,0,1.9,1.1,2.01,2.01,0,0,0,1.2-.1h0c0,.1-.6.2-1.3.1a2.854,2.854,0,0,1-1.9-.9C51.9,64.5,51.9,64.4,52,64.4Z" fill="#e2a46a"/>
            </g>
          </g>
          <path id="Path_45413" data-name="Path 45413" d="M50.5,63.2c-5.1-.9-9.8-2.9-12.5-3.1a2.174,2.174,0,0,0-1,4.2c3.4,1.3,9.1,1.1,13.3.7Z" fill="#e8cfe2"/>
          <path id="Path_45414" data-name="Path 45414" d="M36.9,63.7a2.211,2.211,0,0,1-1.3-1.2A2.021,2.021,0,0,0,37,64.3c3.4,1.3,9.1,1.1,13.3.7l.1-.7C46.1,64.7,40.3,65,36.9,63.7Z" fill="#dcbad8"/>
          <path id="Path_45415" data-name="Path 45415" d="M50.5,63.2,50.3,65l1.1-.1s.1-.2-.6-.5a.931.931,0,0,0,.7-1.1Z" fill="#b3aed7"/>
        </g>
        <g id="Group_6915" data-name="Group 6915">
          <path id="Path_45416" data-name="Path 45416" d="M53.1,49.3l-.2-.1c1.7-7.2-3.1-8.9-3.1-8.9l.1-.2C49.8,40.1,54.8,41.9,53.1,49.3Z" fill="#5a566e"/>
          <g id="Group_6914" data-name="Group 6914">
            <path id="Path_45417" data-name="Path 45417" d="M53.8,51.2a1.259,1.259,0,1,1-1.1-1.4,1.244,1.244,0,0,1,1.1,1.4Z" fill="#c3bccc"/>
            <circle id="Ellipse_1726" data-name="Ellipse 1726" cx="1.1" cy="1.1" r="1.1" transform="translate(51.163 51.597) rotate(-65.665)" fill="#9b92a9" opacity="0.3"/>
            <path id="Path_45418" data-name="Path 45418" d="M52.9,50.7l-.5-.1.4-1.4.4.1Z" fill="#d8d4e1"/>
            <path id="Path_45419" data-name="Path 45419" d="M52.9,50.7l-.2-.1.3-1.4.2.1Z" fill="#9b92a9" opacity="0.3"/>
            <path id="Path_45420" data-name="Path 45420" d="M53.2,51.1a.608.608,0,1,1-.5-.7.752.752,0,0,1,.5.7Z" fill="#d8d4e1"/>
            <path id="Path_45421" data-name="Path 45421" d="M53,51.1c0,.2-.3.4-.5.4s-.4-.3-.4-.5.3-.4.5-.4C52.9,50.6,53.1,50.9,53,51.1Z" fill="#9b92a9" opacity="0.3"/>
            <path id="Path_45422" data-name="Path 45422" d="M52.1,51a.56.56,0,0,1,.6-.5h0c-.4,0-.7.2-.6.5a.441.441,0,0,0,.4.6h0a.441.441,0,0,1-.4-.6Z" fill="#e8e5ee"/>
            <path id="Path_45423" data-name="Path 45423" d="M51.4,50.9a1.2,1.2,0,0,1,1.3-1h0a1.16,1.16,0,1,0-.3,2.3h.1a1.155,1.155,0,0,1-1.1-1.3Z" fill="#d8d4e1"/>
            <path id="Path_45424" data-name="Path 45424" d="M52.1,51a.56.56,0,0,1,.6-.5h0c-.4,0-.7.2-.6.5a.441.441,0,0,0,.4.6h0a.441.441,0,0,1-.4-.6Z" fill="#e8e5ee"/>
          </g>
        </g>
        <g id="Group_6918" data-name="Group 6918">
          <g id="Group_6916" data-name="Group 6916">
            <path id="Path_45425" data-name="Path 45425" d="M46.1,55.4h-.3c0-.1-1.8-9.4-4.6-9v-.3C44.3,45.7,46.1,55,46.1,55.4Z" fill="#5a566e"/>
            <path id="Path_45426" data-name="Path 45426" d="M40.2,47.5a1.945,1.945,0,0,1,1.2-1.2h.1v-.1c-.2-2.7.8-4.2,1.5-4.8l-.2-.2a6.152,6.152,0,0,0-1.5,4.9A2.528,2.528,0,0,0,40,47.4c-.5,1.2-.3,5.2,2,9.6l.2-.1C39.9,52.5,39.7,48.6,40.2,47.5Z" fill="#5a566e"/>
          </g>
          <g id="Group_6917" data-name="Group 6917">
            <path id="Path_45427" data-name="Path 45427" d="M45.3,53c.3,1.3.6,2.3.6,2.4h.3c0-.1-.2-1.1-.5-2.4Z" fill="#e8e5ee"/>
            <path id="Path_45428" data-name="Path 45428" d="M40.9,54.8a13.822,13.822,0,0,0,1,2.2l.2-.1c-.4-.8-.7-1.5-1-2.1Z" fill="#e8e5ee"/>
          </g>
          <path id="Path_45429" data-name="Path 45429" d="M42.9,57.3c-.2.4-1.2-.2-1-.6C41.9,56.6,43.1,56.9,42.9,57.3Z" fill="#e8e5ee"/>
          <path id="Path_45430" data-name="Path 45430" d="M45.7,56.3c.4.1.6-1,.2-1.1C45.8,55.1,45.3,56.2,45.7,56.3Z" fill="#e8e5ee"/>
          <path id="Path_45431" data-name="Path 45431" d="M39.9,48.9s.6-1.2,1.5-1.3a3.286,3.286,0,0,1,2,.5l-.1-.3a3.2,3.2,0,0,0-2-.4,2.09,2.09,0,0,0-1.5,1.3Z" fill="#5a566e"/>
        </g>
        <g id="head_3_">
          <path id="Path_45432" data-name="Path 45432" d="M55.6,25.7a104.74,104.74,0,0,1-2.2,15.6,9.251,9.251,0,0,0-8.1-3.7c-4.1.2-1.1,3.7-1.1,3.7s-4.9-3.1-4.5-8.2C40.2,28,50.8,23.1,55.6,25.7Z" fill="#8a4e30"/>
          <path id="Path_45433" data-name="Path 45433" d="M43.6,33.4s1.4,5.8-.8,8.7L48,44.4l3.3-2.8s-1.7.8-1.9-8Z" fill="#e2a46a"/>
          <path id="Path_45434" data-name="Path 45434" d="M50,39.5l-5.2-4.1s-.3.5-.7,1.2a8.775,8.775,0,0,1-1.2,5.5l2.5,1.1A21.012,21.012,0,0,0,50,39.5Z" fill="#d38753"/>
          <path id="Path_45435" data-name="Path 45435" d="M55.5,27c-2.1,3.2-5.5,9.2-9.5,8.8-4.8-.4-6.1-7.2-5.1-11.4,1.1-4.4,4.3-5.7,8.2-5.2C53.1,19.7,58,23.2,55.5,27Z" fill="#925634"/>
          <path id="Path_45436" data-name="Path 45436" d="M54.3,32.7c-.7,4.7-4.5,6.7-5.4,6.6s-5.7-2.2-5.5-6.9c.3-6.3,1.5-10.2,7-9.6S55,27.4,54.3,32.7Z" fill="#f3be84"/>
          <g id="Group_6919" data-name="Group 6919">
            <path id="Path_45437" data-name="Path 45437" d="M49.4,39.2c-.7-.1-3.9-2.3-3.7-6.3.3-5.7,1.6-9.5,4.6-10.1-5.7-1-6.7,3.7-7,9.6-.2,4.7,4.6,6.8,5.5,6.9a1.952,1.952,0,0,0,.7-.1Z" fill="#e2a46a"/>
          </g>
          <path id="Path_45438" data-name="Path 45438" d="M44.2,31.3A1.358,1.358,0,1,1,43,29.8a1.293,1.293,0,0,1,1.2,1.5Z" fill="#e2a46a"/>
          <path id="Path_45439" data-name="Path 45439" d="M54.5,22.6s1.9-1.9-.9-3.3c-4.5-2.3-9.1.5-9.1.5Z" fill="#925634"/>
          <path id="Path_45440" data-name="Path 45440" d="M46.7,24.3c-2.6,3.6-1.7,6.1-2.5,6.3-.6.1-.9-1.3-.9-1.3s1.1-6.7,3.3-6.7C48.7,22.4,46.7,24.3,46.7,24.3Z" fill="#925634"/>
          <path id="Path_45441" data-name="Path 45441" d="M42.7,31.1a.645.645,0,0,1,.6-.6c-.1,0-.2-.1-.3-.1-.4,0-.8.2-.8.6s.2.8.6.8H43a.61.61,0,0,1-.3-.7Z" fill="#d69355"/>
          <path id="Path_45442" data-name="Path 45442" d="M50.5,22.8s-5.5,1-5.8,10.3c0,0-.6-.3-.6-2.7C44.1,27.9,45.8,19.2,50.5,22.8Z" fill="#925634"/>
          <path id="Path_45443" data-name="Path 45443" d="M41.9,41.9,43.2,40l4,2.8-1.7,2.8Z" fill="#c4c8e5"/>
          <path id="Path_45444" data-name="Path 45444" d="M48.7,42.8l1.2,2.3,1.8-4-1.3-1.5Z" fill="#c4c8e5"/>
          <path id="Path_45445" data-name="Path 45445" d="M49.5,18.4a18.2,18.2,0,0,0-6.7,1.3c-3.4,1.3-6.5,13.7-3.7,17.7a11.188,11.188,0,0,0,5.1,4,27.516,27.516,0,0,1-1-14.4C44.8,19.5,49.5,18.4,49.5,18.4Z" fill="#925634"/>
          <path id="Path_45446" data-name="Path 45446" d="M45.2,19.9c3.5-.1,4.9,2.2,7.8,2.3.8,0,1.4-.2,1.5-.8.3-1.3-.8-2.2-2.8-2.5C49.6,18.6,46.8,18.8,45.2,19.9Z" fill="#a3653a"/>
          <path id="Path_45447" data-name="Path 45447" d="M48.7,22.4a16.431,16.431,0,0,0-3.4,2.8c-1.6-.2-4.1-4.4-3-4.8C43.4,20.1,48.3,20.3,48.7,22.4Z" fill="#a3653a"/>
          <path id="Path_45448" data-name="Path 45448" d="M47.2,42.8l.8,1.5.7-1.5.9,1.7-1.4,1.3-2.1-1.2Z" fill="#b3aed7"/>
        </g>
      </g>
      <g id="Group_6938" data-name="Group 6938" clip-path="url(#clip-path)">
        <g id="Group_6929" data-name="Group 6929">
          <g id="Group_6921" data-name="Group 6921">
            <path id="Path_45449" data-name="Path 45449" d="M114.6,63c2.1,1-.3,19.6-4.3,24.5-3.1,3.8-21.2,1.1-21.2,1.1a24.268,24.268,0,0,1,13-10.8C105.6,67.1,113.6,62.6,114.6,63Z" fill="#fef2f0"/>
            <path id="Path_45450" data-name="Path 45450" d="M108.2,81.4s1.2,1.4.6,1.6c-.6.3-1.8-.8-1.8-.8s1.1,2.4.5,2.6a7.086,7.086,0,0,1-2.4-.9s-8.7,5-15.3,3.6c-.4.7-.6,1.1-.6,1.1s18.1,2.7,21.2-1.1c4-4.9,6.4-23.5,4.3-24.5a45.7,45.7,0,0,1-2.4,11.4C110.2,79.7,108.2,81.4,108.2,81.4Z" fill="#f3dad6"/>
            <path id="Path_45451" data-name="Path 45451" d="M105.8,79.5a8.083,8.083,0,0,0-2.6-4.3c-.3.8-.7,1.7-1,2.6C102.2,77.8,103.3,77.7,105.8,79.5Z" fill="#f3dad6"/>
          </g>
          <g id="Group_6922" data-name="Group 6922">
            <path id="Path_45452" data-name="Path 45452" d="M29.1,113.5h3.7s.8,11.4-1.8,11.4C28.5,124.9,29.1,113.5,29.1,113.5Z" fill="#e0b9cd"/>
            <path id="Path_45453" data-name="Path 45453" d="M85,113.5h3.7s.8,11.4-1.8,11.4C84.4,124.9,85,113.5,85,113.5Z" fill="#e0b9cd"/>
          </g>
          <g id="Group_6923" data-name="Group 6923">
            <ellipse id="Ellipse_1728" data-name="Ellipse 1728" cx="3.2" cy="3.6" rx="3.2" ry="3.6" transform="translate(10.2 127)" fill="#2c3247"/>
            <rect id="Rectangle_3917" data-name="Rectangle 3917" width="10" height="2.7" transform="translate(16.283 114.798) rotate(90)" fill="#f4d3e5"/>
            <ellipse id="Ellipse_1729" data-name="Ellipse 1729" cx="2.3" cy="2.6" rx="2.3" ry="2.6" transform="translate(11.7 128)" fill="#f4d3e5"/>
            <path id="Path_45454" data-name="Path 45454" d="M12.9,123.4v3.5h1v1.6h-1v2.4h3.4v-7.5Z" fill="#f4d3e5"/>
          </g>
          <g id="Group_6924" data-name="Group 6924">
            <ellipse id="Ellipse_1730" data-name="Ellipse 1730" cx="3.4" cy="3.6" rx="3.4" ry="3.6" transform="translate(98.5 127)" fill="#2c3247"/>
            <rect id="Rectangle_3918" data-name="Rectangle 3918" width="10" height="2.9" transform="translate(104.234 114.747) rotate(90)" fill="#f4d3e5"/>
            <ellipse id="Ellipse_1731" data-name="Ellipse 1731" cx="2.4" cy="2.6" rx="2.4" ry="2.6" transform="translate(100.1 128)" fill="#f4d3e5"/>
            <path id="Path_45455" data-name="Path 45455" d="M101.4,123.4v3.5h1.1v1.6h-1.1v2.4H105v-7.5Z" fill="#f4d3e5"/>
          </g>
          <rect id="Rectangle_3919" data-name="Rectangle 3919" width="88.5" height="2.5" transform="translate(14.7 107.2)" fill="#e0b9cd"/>
          <rect id="Rectangle_3920" data-name="Rectangle 3920" width="88.5" height="2.4" transform="translate(14.7 112.4)" fill="#e0b9cd"/>
          <rect id="Rectangle_3921" data-name="Rectangle 3921" width="89.4" height="4.9" transform="translate(14.7 118.6)" fill="#f4d3e5"/>
          <rect id="Rectangle_3922" data-name="Rectangle 3922" width="7.4" height="2.8" transform="translate(17.524 107.368) rotate(90)" fill="#e0b9cd"/>
          <g id="Group_6925" data-name="Group 6925">
            <rect id="Rectangle_3923" data-name="Rectangle 3923" width="9.3" height="2.8" transform="translate(10.218 97.333) rotate(90)" fill="#f4d3e5"/>
            <rect id="Rectangle_3924" data-name="Rectangle 3924" width="9.3" height="2.8" transform="translate(16.894 97.357) rotate(90)" fill="#f4d3e5"/>
            <rect id="Rectangle_3925" data-name="Rectangle 3925" width="9.3" height="2.8" transform="translate(23.571 97.28) rotate(90)" fill="#f4d3e5"/>
            <rect id="Rectangle_3926" data-name="Rectangle 3926" width="9.3" height="2.8" transform="translate(30.248 97.303) rotate(90)" fill="#f4d3e5"/>
            <rect id="Rectangle_3927" data-name="Rectangle 3927" width="9.3" height="2.8" transform="translate(36.925 97.326) rotate(90)" fill="#f4d3e5"/>
            <rect id="Rectangle_3928" data-name="Rectangle 3928" width="9.3" height="2.8" transform="translate(43.602 97.349) rotate(90)" fill="#f4d3e5"/>
            <rect id="Rectangle_3929" data-name="Rectangle 3929" width="9.3" height="2.8" transform="translate(50.278 97.273) rotate(90)" fill="#f4d3e5"/>
            <rect id="Rectangle_3930" data-name="Rectangle 3930" width="9.3" height="2.8" transform="translate(56.955 97.296) rotate(90)" fill="#f4d3e5"/>
            <rect id="Rectangle_3931" data-name="Rectangle 3931" width="9.3" height="2.8" transform="translate(63.632 97.319) rotate(90)" fill="#f4d3e5"/>
            <rect id="Rectangle_3932" data-name="Rectangle 3932" width="9.3" height="2.8" transform="translate(70.309 97.342) rotate(90)" fill="#f4d3e5"/>
            <rect id="Rectangle_3933" data-name="Rectangle 3933" width="9.3" height="2.8" transform="translate(76.985 97.366) rotate(90)" fill="#f4d3e5"/>
            <rect id="Rectangle_3934" data-name="Rectangle 3934" width="9.3" height="2.8" transform="translate(83.662 97.289) rotate(90)" fill="#f4d3e5"/>
            <rect id="Rectangle_3935" data-name="Rectangle 3935" width="9.3" height="2.8" transform="translate(90.339 97.312) rotate(90)" fill="#f4d3e5"/>
            <rect id="Rectangle_3936" data-name="Rectangle 3936" width="9.3" height="2.8" transform="translate(97.016 97.335) rotate(90)" fill="#f4d3e5"/>
            <rect id="Rectangle_3937" data-name="Rectangle 3937" width="9.3" height="2.8" transform="translate(103.693 97.358) rotate(90)" fill="#f4d3e5"/>
            <rect id="Rectangle_3938" data-name="Rectangle 3938" width="9.3" height="2.8" transform="translate(110.369 97.282) rotate(90)" fill="#f4d3e5"/>
          </g>
          <rect id="Rectangle_3939" data-name="Rectangle 3939" width="7.4" height="3.2" transform="translate(101.03 107.361) rotate(90)" fill="#e0b9cd"/>
          <rect id="Rectangle_3940" data-name="Rectangle 3940" width="117.2" height="6.4" transform="translate(0.3 101.5)" fill="#fef2f7"/>
          <rect id="Rectangle_3941" data-name="Rectangle 3941" width="115.4" height="3.2" transform="translate(0.3 96.2)" fill="#fef2f7"/>
          <rect id="Rectangle_3942" data-name="Rectangle 3942" width="115.4" height="1.1" transform="translate(0.3 98.2)" fill="#f4d3e5"/>
          <g id="Group_6926" data-name="Group 6926">
            <path id="Path_45456" data-name="Path 45456" d="M3.2,104.1l-4,.7.3-32.4c0-1.6.8-2.7,1.7-2.5h0c.9.2,1.7,1.5,1.7,3.1Z" fill="#fef2f7"/>
            <path id="Path_45457" data-name="Path 45457" d="M1.2,87.4c-.7,0-1.3-1-1.8-2.8l-.2,20.2,4-.7L3.1,84.5C2.6,86.3,1.9,87.4,1.2,87.4Z" fill="#f4d3e5"/>
          </g>
          <rect id="Rectangle_3943" data-name="Rectangle 3943" width="117.2" height="1.8" transform="translate(0.3 106)" fill="#f4d3e5"/>
          <g id="Group_6927" data-name="Group 6927">
            <path id="Path_45458" data-name="Path 45458" d="M117.5,104.1l-4,.7.3-32.4c0-1.6.8-2.7,1.7-2.5h0c.9.2,1.7,1.5,1.7,3.1Z" fill="#fef2f7"/>
            <path id="Path_45459" data-name="Path 45459" d="M115.4,87.4c-.7,0-1.3-1-1.8-2.8l-.2,20.2,4-.7-.2-19.5C116.8,86.3,116.1,87.4,115.4,87.4Z" fill="#f4d3e5"/>
          </g>
          <rect id="Rectangle_3944" data-name="Rectangle 3944" width="6.6" height="7.5" transform="translate(-2.1 100.9)" fill="#7d8dc7"/>
          <rect id="Rectangle_3945" data-name="Rectangle 3945" width="7" height="7.5" transform="translate(111.9 100.9)" fill="#7d8dc7"/>
          <rect id="Rectangle_3946" data-name="Rectangle 3946" width="90.6" height="0.7" transform="translate(13.6 122.7)" fill="#e0b9cd"/>
          <rect id="Rectangle_3947" data-name="Rectangle 3947" width="6.6" height="3.6" transform="translate(-2.1 104.8)" fill="#6c81be"/>
          <rect id="Rectangle_3948" data-name="Rectangle 3948" width="7" height="3.6" transform="translate(111.9 104.8)" fill="#6c81be"/>
          <g id="Group_6928" data-name="Group 6928">
            <path id="Path_45460" data-name="Path 45460" d="M109.4,96.2H7.6a3.372,3.372,0,0,1-3.4-3.4v-1a3.372,3.372,0,0,1,3.4-3.4H109.4a3.372,3.372,0,0,1,3.4,3.4v1a3.436,3.436,0,0,1-3.4,3.4Z" fill="#ffebd9"/>
            <path id="Path_45461" data-name="Path 45461" d="M111.1,94.4H5.9a1.869,1.869,0,0,1-1.7-1.9v1.8a1.8,1.8,0,0,0,1.7,1.9H111.1a1.869,1.869,0,0,0,1.7-1.9V92.5a1.869,1.869,0,0,1-1.7,1.9Z" fill="#eac6b7"/>
          </g>
          <path id="Path_45462" data-name="Path 45462" d="M6.6,90.4l2.7,5.4,88.2-.2-2.6-7.2Z" fill="#eac6b7"/>
        </g>
        <g id="Group_6930" data-name="Group 6930">
          <path id="Path_45463" data-name="Path 45463" d="M99,62.4c.6.3-4,13.1-8.8,14.7-4.2,1.4-9.6-2.4-9.6-2.4a4.7,4.7,0,0,1,2.1-1c1.6-.2,2.2.6,6.1-.2a26.686,26.686,0,0,0,5.9-12.3S98.3,62.1,99,62.4Z" fill="#e2a46a"/>
          <path id="Path_45464" data-name="Path 45464" d="M95.4,60.5s-1.5.1-4.2,6.2l3-.8Z" fill="#7ecfd3"/>
        </g>
        <g id="Group_6932" data-name="Group 6932">
          <path id="Path_45465" data-name="Path 45465" d="M94.5,88.6s5.6-1.6,8.9-11.3c.5-1.4,3.3-4.9,3-12.8,0-4.1-9.4-4.3-11-4.1-.3,0-1.3,1.8-2.3,3.5-1.1,1.9-2.6,2.9-2.6,4.1.1,2,2.8,6.3,2.5,7.8-.3,1.4-11.5,1-14.7,3.5C74.5,82.5,75.6,88.6,94.5,88.6Z" fill="#96d7df"/>
          <g id="head_8_">
            <path id="Path_45466" data-name="Path 45466" d="M104.4,54.8a2.766,2.766,0,0,1-.2,2.5c-.8,1.1-1.4,1.8-1.4,1.8a7.927,7.927,0,0,1-.2-2.5,10.164,10.164,0,0,1,1.1-2Z" fill="#ffd67c"/>
            <path id="Path_45467" data-name="Path 45467" d="M105.5,54.4a.949.949,0,1,1-1.2-.6.931.931,0,0,1,1.2.6Z" fill="#ffd67c"/>
            <path id="Path_45468" data-name="Path 45468" d="M102.7,56.2a29.688,29.688,0,0,0,2.3-1.9c.7-.7,1.6-4.1,1.6-4.1l-3.6.3Z" fill="#d38753"/>
            <path id="Path_45469" data-name="Path 45469" d="M103.8,61.6A17.358,17.358,0,0,0,97,60.4H95.7C94.4,63.6,97.1,65.9,103.8,61.6Z" fill="#e2a46a"/>
            <path id="Path_45470" data-name="Path 45470" d="M103.1,53.1s-.8,5.4-.1,9l-6.5-.5a20.13,20.13,0,0,0,.8-5.5Z" fill="#e2a46a"/>
            <path id="Path_45471" data-name="Path 45471" d="M103,62.1h0a5.582,5.582,0,0,1,.8-.5l-.9-.3a30.4,30.4,0,0,1,.2-7.8h0l-5.8,3.7q-.15,1.5-.3,2.7a8.939,8.939,0,0,0,3.2,3.6,14.484,14.484,0,0,0,2.8-1.4Z" fill="#d38753"/>
            <path id="Path_45472" data-name="Path 45472" d="M93.4,50.8c-.6,4.8,2.5,7.9,3.5,8,.9.1,6.2-.6,7.3-5.3,1.5-6.2,1.4-10.5-4.1-11.3C94.4,41.4,94.1,45.4,93.4,50.8Z" fill="#f3be84"/>
            <g id="Group_6931" data-name="Group 6931">
              <path id="Path_45473" data-name="Path 45473" d="M96.3,58.6c.7.1,4.5-1.2,5.3-5.2,1.3-5.7,1-9.8-1.7-11.2,5.8.6,5.5,5.5,4.1,11.3-1.1,4.7-6.3,5.4-7.3,5.3a.864.864,0,0,1-.6-.3C96.3,58.5,96.3,58.6,96.3,58.6Z" fill="#e2a46a"/>
            </g>
            <path id="Path_45474" data-name="Path 45474" d="M103.3,52.2a1.51,1.51,0,0,0,1.1,1.6,1.341,1.341,0,0,0,1.5-1.1,1.51,1.51,0,0,0-1.1-1.6,1.21,1.21,0,0,0-1.5,1.1Z" fill="#e2a46a"/>
            <path id="Path_45475" data-name="Path 45475" d="M104.9,52.4a.735.735,0,0,0-.4-.8h.3a.765.765,0,1,1-.3,1.5c-.1,0-.2,0-.2-.1Q104.75,53,104.9,52.4Z" fill="#d69355"/>
            <path id="Path_45476" data-name="Path 45476" d="M94.1,46s.9-1.7,3.7-1.4c6.2.7,7,7.7,7.2,9.7,0,0,4.4-2.6,3.1-9.5a7.832,7.832,0,0,0-3-4.1C102.8,39.2,95.9,38.2,94.1,46Z" fill="#fcf5a8"/>
            <path id="Path_45477" data-name="Path 45477" d="M108.1,44.8a8.106,8.106,0,0,0-2.8-3.9c2.9,3,1,6-.8,6.3-1.7.2-2.4-2.3-6.5-2.8a4.249,4.249,0,0,0-3.9,1.2c0,.1-.1.3-.1.4,0,0,.9-1.7,3.7-1.4,6.2.7,7,7.7,7.2,9.7C105,54.3,109.4,51.7,108.1,44.8Z" fill="#fee48b"/>
            <path id="Path_45478" data-name="Path 45478" d="M105,54.6a2.926,2.926,0,0,1,2.4.6,8.972,8.972,0,0,1,1.5,1.7,11.507,11.507,0,0,1-2.5-.1,12.586,12.586,0,0,1-1.8-1.4Z" fill="#ffd67c"/>
          </g>
          <path id="Path_45479" data-name="Path 45479" d="M104.6,62c-3.5,3.7-3.7,9.7-6.5,9.8-1.9.1-6-1.1-7.5-3.2.5,2.2,2.6,5.9,2.4,7.2-.1.6-1.8.8-4.1,1.1l1.2,11.6c1.3.1,1.8.1,4.4.1,2.5,0,5.6-1.6,8.9-11.3.5-1.4,3.3-4.9,3-12.8A3,3,0,0,0,104.6,62Z" fill="#7ecfd3"/>
          <path id="Path_45480" data-name="Path 45480" d="M91,81s.6,4.4,1.2,7.6h2.4c2.1,0,4.6-1.1,7.3-7.2Z" fill="#6cc9cc"/>
          <path id="Path_45481" data-name="Path 45481" d="M106.4,64.9a6.087,6.087,0,0,0-1.6-1.6l-3.9,11.1a37.7,37.7,0,0,1-3.2,6A57.574,57.574,0,0,1,89,77.1l.3,3.1c2.2,1.7,4.9,3.5,7.3,4.1a4.887,4.887,0,0,0,2.4.1,4.648,4.648,0,0,0,2.1-1.3,31.956,31.956,0,0,0,2.3-5.7C103.8,75.9,106.6,72.5,106.4,64.9Z" fill="#47b7b7"/>
        </g>
        <path id="Path_45482" data-name="Path 45482" d="M92.6,74.7h0l-.1-.1a3.316,3.316,0,0,0-1.4-1h-.8c-15.6,2.1-24.5,4.7-32.4,5-6,.3-37.6.2-47.8,6.6-.1.1-.2.1-.3.2l-.1.1a.1.1,0,0,0-.1.1,4.62,4.62,0,0,0-.7.7H8.8a17.054,17.054,0,0,0-2.1,4.1l.3.9a89.372,89.372,0,0,0,25.2,1.5c8.7-.8,16-1.6,24.6-1.8,1.5,0,3-.1,4.5-.1,3.2,0,6.6,0,10.4.2,8.3.4,22.8,1.7,22.8,1.7a18.927,18.927,0,0,0,.6-4.2h-.7C94.4,85.2,94.7,77.4,92.6,74.7Z" fill="#cea99c"/>
        <g id="Group_6934" data-name="Group 6934">
          <path id="Path_45483" data-name="Path 45483" d="M8.1,90.3c-.8-1.2-.6-4.2,1.9-5.8,10.2-6.4,41.8-6.3,47.8-6.6,7.8-.3,16.8-2.9,32.5-5.1,5.4-.7,5.4,17,3.5,18-1.9.9-14-.3-22.3-.6-9.7-.4-25,.4-38.3.5C19.8,91,8.8,91.5,8.1,90.3Z" fill="#dde3f3"/>
          <g id="Group_6933" data-name="Group 6933">
            <path id="Path_45484" data-name="Path 45484" d="M91.7,89.2l3.2.1c.8-4.9-.2-17-4.6-16.4h-.1C90.9,74.3,93.6,79.8,91.7,89.2Z" fill="#bfc6e5"/>
            <path id="Path_45485" data-name="Path 45485" d="M12.9,87.1c-2.9-.6-3.1-2.1-2.8-2.6l-.1.1a4.588,4.588,0,0,0-2.2,4.5,1.238,1.238,0,0,0,.2.3Z" fill="#bfc6e5"/>
          </g>
          <path id="Path_45486" data-name="Path 45486" d="M8.8,85.5a14.114,14.114,0,0,0-2.3,4.9,88.835,88.835,0,0,0,25.6,1.7c13.3-1.2,23.3-2.4,39.5-1.7,8.3.4,22.6,1.7,22.6,1.7a24.9,24.9,0,0,0,.8-4.9c-5,.8-13.9.2-23.5.2-5.6,0-28.9.8-45.1.8C15.2,88.3,8.8,85.5,8.8,85.5Z" fill="#bfc6e5"/>
          <path id="Path_45487" data-name="Path 45487" d="M67.2,88.4s1.6-3.6,2.3-3.3S71,88.3,71,88.3s.7-5.2,1.7-5.2S74.5,89,74.5,89,69.6,90.1,67.2,88.4Z" fill="#bfc6e5"/>
          <path id="Path_45488" data-name="Path 45488" d="M12.5,84.3c-.1-1.5,14.6-3.8,20.6-4.4s17.9-1.7,19-.3-6,4.7-16,6.1C25.9,87.1,12.7,86.5,12.5,84.3Z" fill="#dde3f3" opacity="0.3"/>
          <path id="Path_45489" data-name="Path 45489" d="M59.1,78.5c2.9,0,5.8,6,5.1,6.9-.8.9-11.4,1.9-12.6.6C50.5,84.7,56.7,78.5,59.1,78.5Z" fill="#dde3f3" opacity="0.3"/>
          <path id="Path_45490" data-name="Path 45490" d="M65.2,78.7c0-1.3,22.5-5.2,23.8-4.5s3.1,10.6.6,11.7-12.5,0-13.6-.8-2.9-6.6-3.6-6.5-.2,4.6-2,4.8S65.2,79.7,65.2,78.7Z" fill="#dde3f3" opacity="0.3"/>
        </g>
        <path id="Path_45491" data-name="Path 45491" d="M94.6,79.4a80.14,80.14,0,0,1-8.3-3.6h0a15.9,15.9,0,0,1-2-1.1,2.376,2.376,0,0,0-1.9,0h0c-.4-.1-.7,0-.7.1-.1.1.5.2,1,.3.4.1.7.2.6.2,0,0-.4-.1-.7-.2-.5-.1-.9-.2-.9-.1,0,.2.3.3.8.4l.8.2c0,.1-1.1-.4-1.1-.1h0c-.1.2.7.5,1.1.6a.349.349,0,0,1,.2.1,3.367,3.367,0,0,0,1.7.6h.2s1.3,1.2,3.1,2.7c.1.1.2.1.2.2a1.756,1.756,0,0,1,.5.4A26.751,26.751,0,0,0,95,83.7a31.254,31.254,0,0,0-.4-4.3ZM83.5,74.9a1,1,0,0,1-.4-.1,1,1,0,0,0,.4.1Z" fill="#8b96b7" opacity="0.4"/>
        <g id="Group_6937" data-name="Group 6937">
          <path id="Path_45492" data-name="Path 45492" d="M107.2,68.3c.6.4-3.4,13.6-8.2,15.1-4.6,1.5-13.5-6.9-13.5-6.9l.5-1.3a67.3,67.3,0,0,0,11.7,4.3,38.789,38.789,0,0,0,5.4-12.8A41.219,41.219,0,0,1,107.2,68.3Z" fill="#f3be84"/>
          <path id="Path_45493" data-name="Path 45493" d="M107.2,68.3c-.1-.1-.3-.1-.5-.2-.6,3.5-3.7,13.4-7.8,14.7-4.3,1.4-12.3-5.6-13.4-6.5l-.1.3s8.9,8.4,13.5,6.9C103.8,81.8,107.8,68.7,107.2,68.3Z" fill="#e2a46a"/>
          <path id="Path_45494" data-name="Path 45494" d="M104.8,62.2c3,1.8,3.8,6,.9,13.2l-5.9-2.5Z" fill="#7ecfd3"/>
          <g id="Group_6935" data-name="Group 6935">
            <path id="Path_45495" data-name="Path 45495" d="M85.5,76.5a3.51,3.51,0,0,1-2-.6c-.4-.2.2-1.9.8-1.6.8.4,1.7.9,1.7.9Z" fill="#f3be84"/>
            <path id="Path_45496" data-name="Path 45496" d="M83.5,76s-1.4-.3-1.4-.6c.1-.3,1.1.2,1.1.1s-.4-.1-.8-.2c-.5-.1-.8-.2-.8-.4s.4-.1.9,0c.4.1.7.2.7.1l-.6-.2c-.5-.1-1.1-.2-1-.3.1-.2.6-.2,1.1,0,.3.1.7.2.7.2.1-.1-1.1-.1-1.1-.2a2.331,2.331,0,0,1,1.9,0Z" fill="#f3be84"/>
          </g>
          <g id="Group_6936" data-name="Group 6936">
            <path id="Path_45497" data-name="Path 45497" d="M83.5,75.7a3.437,3.437,0,0,1-1.3-.4c-.1.3,1.4.6,1.4.6a4.6,4.6,0,0,0,2,.6l.1-.3A2.758,2.758,0,0,1,83.5,75.7Z" fill="#e2a46a"/>
          </g>
          <path id="Path_45498" data-name="Path 45498" d="M105.2,75.3l-4.3-1.8-.2.5,4.1,1.9Z" fill="#e2a46a"/>
          <path id="Path_45499" data-name="Path 45499" d="M100.5,72.6l-.3.6,5.4,2.3a1.421,1.421,0,0,0,.2-.6Z" fill="#96d7df"/>
        </g>
      </g>
    </g>
  </g>
</svg>
