<svg xmlns="http://www.w3.org/2000/svg" xmlns:xlink="http://www.w3.org/1999/xlink" width="117.2" height="117.199" viewBox="0 0 117.2 117.199">
  <defs>
    <linearGradient id="linear-gradient" y1="0.5" x2="1" y2="0.5" gradientUnits="objectBoundingBox">
      <stop offset="0" stop-color="#ebebeb"/>
      <stop offset="1" stop-color="#fff"/>
    </linearGradient>
    <clipPath id="clip-path">
      <circle id="Ellipse_1605" data-name="Ellipse 1605" cx="58.6" cy="58.6" r="58.6" transform="translate(8.2 8.8)"/>
    </clipPath>
  </defs>
  <g id="opthatmologist" transform="translate(-8.2 -8.801)">
    <circle id="Ellipse_1604" data-name="Ellipse 1604" cx="58.6" cy="58.6" r="58.6" transform="translate(8.2 8.8)" fill="url(#linear-gradient)"/>
    <g id="Group_6530" data-name="Group 6530">
      <g id="Group_6514" data-name="Group 6514" clip-path="url(#clip-path)">
        <g id="Group_6510" data-name="Group 6510">
          <path id="Path_44452" data-name="Path 44452" d="M39.9,28v4.2h6.7v2.1H39.9v4.4h8.2v2.1H35.9V25.9H48L47.5,28Z"/>
        </g>
        <g id="Group_6511" data-name="Group 6511">
          <path id="Path_44453" data-name="Path 44453" d="M31.2,46.5v3.1h4.1v1.5H31.2v4.3H28.6V45h7.6l-.3,1.5Z"/>
          <path id="Path_44454" data-name="Path 44454" d="M55.4,48.3c0,2.4-2.2,3.5-5.3,3.5H48.5v3.6H45.9V45h4C53.3,45,55.4,46.1,55.4,48.3Zm-2.7,0c0-1.3-1-1.9-2.8-1.9H48.5v3.8h1.4C51.6,50.3,52.7,49.9,52.7,48.3Z"/>
        </g>
        <g id="Group_6512" data-name="Group 6512">
          <path id="Path_44455" data-name="Path 44455" d="M25.4,61.9v6.2H23.6V61.9H21V60.8h7l-.2,1.1H25.4Z"/>
          <path id="Path_44456" data-name="Path 44456" d="M46.3,64.3c0,2.4-1.6,3.8-4.1,3.8S38,66.7,38,64.3s1.6-3.8,4.2-3.8C44.7,60.4,46.3,61.8,46.3,64.3Zm-6.4,0c0,2,.9,2.8,2.3,2.8s2.2-.8,2.2-2.8-.8-2.8-2.2-2.8c-1.5,0-2.3.8-2.3,2.8Z"/>
          <path id="Path_44457" data-name="Path 44457" d="M58.5,67h4.4l-.2,1.1H56.4V67l4.5-5.1h-4V60.8h6v1.1Z"/>
        </g>
        <g id="Group_6513" data-name="Group 6513">
          <path id="Path_44458" data-name="Path 44458" d="M21.5,76.7l-.1.8H17.5V72.2h1.3v4.5Z"/>
          <path id="Path_44459" data-name="Path 44459" d="M36.7,73.9c0,1.2-1.1,1.8-2.7,1.8h-.8v1.8H31.9V72.2h2C35.6,72.2,36.7,72.8,36.7,73.9Zm-1.4,0c0-.7-.5-.9-1.4-.9h-.7v1.9h.7C34.8,74.9,35.3,74.7,35.3,73.9Z"/>
          <path id="Path_44460" data-name="Path 44460" d="M48.4,73v1.5h2.2v.7H48.4v1.6h2.7v.8h-4V72.3h4l-.2.7Z"/>
          <path id="Path_44461" data-name="Path 44461" d="M66.5,74.9c0,2.1-1.7,2.7-3.3,2.7H61.3V72.3H63C64.8,72.2,66.5,72.7,66.5,74.9Zm-3.9,1.9h.6a1.685,1.685,0,0,0,1.9-1.9c0-1.6-.9-1.9-1.9-1.9h-.6Z"/>
        </g>
        <rect id="Rectangle_3898" data-name="Rectangle 3898" width="51.9" height="2.2" transform="translate(16.6 81.6)"/>
      </g>
      <g id="Group_6515" data-name="Group 6515" clip-path="url(#clip-path)">
        <path id="Path_44462" data-name="Path 44462" d="M39.1,69.2c.3-1.1,1-1.8,1.6-1.5a2.047,2.047,0,0,1,.8.8c1.4,1.8,2.6,4.1,4,5.8a1.782,1.782,0,0,1,.6,1.3c0,.3-.1.5-.1.8a12.091,12.091,0,0,0-.5,1.8c-1.6,3.7-3.6-1.8-4.5-2.6a6.474,6.474,0,0,1-1.8-2.8,7.321,7.321,0,0,1-.1-3.6Z" fill="#eab081"/>
        <path id="Path_44463" data-name="Path 44463" d="M43,75.4c0,.1-.1.1-.1.2l-.1.1a5.008,5.008,0,0,1-.7.8l-11-29.7c.1-.1.1-.1.1-.2L43.3,74.8A.864.864,0,0,1,43,75.4Z" fill="#ee2f3c"/>
        <path id="Path_44464" data-name="Path 44464" d="M38.8,66.1l2.4.3a2.355,2.355,0,0,1,1.3.5c.9.7,1.4,2.2,1.9,3.7.5,1.4,1.2,3,2.1,3.3.2,0,.2.6.1.9l-.3.9c0,.1-.1.3-.1.4-.1.2-.2.1-.4,0-.7-.4-1.2-1.5-1.8-2.2a10.992,10.992,0,0,1-1.6-1.5h0v-.1h0a8.514,8.514,0,0,1-1.5-3.6,2.4,2.4,0,0,1-1.5-.6,1.578,1.578,0,0,1-.5-.8A1.708,1.708,0,0,1,38.8,66.1Z" fill="#fcc290"/>
        <path id="Path_44465" data-name="Path 44465" d="M41,70.5a1.884,1.884,0,0,1,.2.8c0,.3-.1.6-.3.5a1.538,1.538,0,0,1,.4.6c.1.3-.1.7-.2.6.2,0,.4.3.5.7,0,.4-.2.8-.4.7.2,0,.2.4.2.7a.7.7,0,0,1-.4.5.9.9,0,0,1-.5-.1,2.49,2.49,0,0,1-1.6-1.3c-.1-.1-.1-.2-.1-.4s0-.3.1-.4a1.934,1.934,0,0,1-.5-.9c-.1-.4,0-1,.2-1.1a1.689,1.689,0,0,1-.3-1c0-.4.2-.9.4-.7a2.483,2.483,0,0,1,0-1.7c.3-.8.4-.4.6.1C39.7,69.1,40.6,69.3,41,70.5Z" fill="#fcc290"/>
      </g>
      <g id="_x36__14_" clip-path="url(#clip-path)">
        <path id="Path_44466" data-name="Path 44466" d="M118.2,123.6c.3-1.5.7-2.5,1.3-2.6a15.138,15.138,0,0,1,3,.2c.6.1,2.4.5,2.6,1.3.6,2.4,1.5,4.8,1.9,7.3.4,3-.6,5.6-1.4,8.5a3.552,3.552,0,0,1-.4.9.829.829,0,0,1-.8.3,1.248,1.248,0,0,1-.5-1.2c-.8.8-2.4,3.8-2.6.9-.1-1.5.9-3.4,1.2-4.8a4.674,4.674,0,0,0-1.7-4.7,5.834,5.834,0,0,0-.6,2.6,13.352,13.352,0,0,1,0,2c-.2.6-.7,1.3-1.3,1.2C117.9,135.4,117.5,127.7,118.2,123.6Z" fill="#fcc290"/>
        <g id="_x31_0_15_">
          <g id="Group_6517" data-name="Group 6517">
            <g id="Group_6516" data-name="Group 6516">
              <path id="Path_44467" data-name="Path 44467" d="M81.9,57.8s3.6-3.4,2-11.4c-.7-3.3,13.5,1.2,13.5,1.2-.8,2-1.5,4.6-.6,7,.8,2,2.1,2.6,1.8,3.7-.4,2-7.6,3.6-9,3.5s-5.7-1.3-6.2-2.1C82.9,59.1,82.4,58.4,81.9,57.8Z" fill="#f0b785"/>
            </g>
          </g>
          <g id="Group_6520" data-name="Group 6520">
            <path id="Path_44468" data-name="Path 44468" d="M80.8,57.8a24.407,24.407,0,0,0,9.7,2.9,15.591,15.591,0,0,0,9.9-2.6s1,2.8-3.9,8.6L90.3,81.4c0,.1-.1.2-.2.3-.1-.1-.1-.2-.2-.3L83.7,66.7C80.3,60.5,80.8,57.8,80.8,57.8Z" fill="#c0d6df"/>
            <path id="Path_44469" data-name="Path 44469" d="M113,141.6c.8-9.6,1-19.2-2-29.4-1.3-4.5-6.1-14.3-6.4-15.3-.5-1.9-.1-9.7.5-11.6.3-.8.9-2.2.6-2.9.4,1.4,4.1,8.7,5.2,13.4,1.9,8.4,5.4,29,6.1,29.8,3.3-.6,6.4-.6,9.4-1.6.4-.7-3.9-30.9-3.9-30.9s-6.5-22.3-7.7-26.9c-1.2-4.3-3.7-5.5-8-6.8-.6-.2-9.8-2.1-9.2-4-1.9,6.3-3.9,12.6-5.8,18.8-.6,1.9-1.1,3.7-1.7,5.6v-.1c0-.1,0-.1-.1-.2,0-.1-.1-.2-.1-.3v62.4Z" fill="#c0d6df"/>
            <path id="Path_44470" data-name="Path 44470" d="M90,141.6l.1-62.4c0,.1-.1.2-.1.3s0,.1-.1.2v.1c-.6-1.8-1.1-3.7-1.7-5.6-1.9-6.3-3.9-12.6-5.8-18.8,0,.3-3.8,2.7-4.2,2.9a22.868,22.868,0,0,1-4.8,1c1.2,7,.3,14.5.2,21.8.1-.1.2-.3.3-.4,1.9,3.1,1,18.1.5,19.1a68.059,68.059,0,0,0-5.3,12.4c-3,10.2-3,19.8-2.4,29.4Z" fill="#cce2ec"/>
            <g id="Group_6519" data-name="Group 6519">
              <g id="Group_6518" data-name="Group 6518">
                <path id="Path_44471" data-name="Path 44471" d="M90.2,79.5l3.2-10.6,4.5-13.5,2.1,1.7c1.1.6,3.4,5.5,3.7,6.7l-5.5,2.1,3.1,3.4c.2.4-10.2,14.8-11.2,18.1,0-.1-.1-.2-.1-.3v-8Z" fill="#e8f6fb"/>
                <path id="Path_44472" data-name="Path 44472" d="M82.2,66.4,77,63.8c.4-1.2,2.2-6.1,3.3-6.7l2.1-1.7,4.5,13.5L90,79.1v8c-1.8-4-11.3-17.4-11.1-17.8Z" fill="#fff"/>
              </g>
            </g>
            <path id="Path_44473" data-name="Path 44473" d="M65.8,73.4c1.1-3.5,1.8-11.5,5.3-13.3a11.275,11.275,0,0,1,2.4-.8,57.578,57.578,0,0,1,.7,11c-.1,2.7.4,5.4.5,8.1.1,2.5.6,4.8.8,7.3.2,2.7-1.3,5.8-2.5,8.2-1.1,2.1-2.5,6-5.1,6.5C61.8,101.6,64.7,76.8,65.8,73.4Z" fill="#cce2ec"/>
          </g>
        </g>
        <g id="Group_6521" data-name="Group 6521">
          <path id="Path_44474" data-name="Path 44474" d="M46.3,87.4c2.3,2.5,8,8.8,11.2,9.9,4.9,1.7,6.4,3.6,10.2,3.2a3.747,3.747,0,0,0,3.1-4.6,10.27,10.27,0,0,0-2.1-4,77.568,77.568,0,0,0-6.3-6.5L44.1,71.6l-3.3,6.9c.3.4-.7,0-.4.4C43.2,82.6,42.8,83.7,46.3,87.4Z" fill="#cce2ec"/>
        </g>
        <g id="Group_6526" data-name="Group 6526">
          <g id="Group_6525" data-name="Group 6525">
            <path id="Path_44475" data-name="Path 44475" d="M99.1,37.3a8.966,8.966,0,0,0-1.9-3.6,9.831,9.831,0,0,0-4.9-3.1A15.451,15.451,0,0,1,90,30a.1.1,0,0,1-.1-.1v1.4a2.97,2.97,0,0,0-1.1-2.5l-1-1a4.62,4.62,0,0,0-.7-.7,2.51,2.51,0,0,0-1.9-.1,5.655,5.655,0,0,0-3.3,3.3,11.549,11.549,0,0,0-.5,4.1,20.54,20.54,0,0,1-.7,3.4,14.288,14.288,0,0,0,.4,7.4,10.5,10.5,0,0,0,3,5.3c.2.2.4.3.6.5a12.592,12.592,0,0,0,3.6,2.4,3.333,3.333,0,0,0,1.7.2h.1a5.244,5.244,0,0,0,1.7-.2,12.683,12.683,0,0,0,3.9-2.6l.3-.3a10.5,10.5,0,0,0,3-5.3A17.565,17.565,0,0,0,99.1,37.3Z" fill="#fcc290"/>
            <g id="Group_6522" data-name="Group 6522">
              <path id="Path_44476" data-name="Path 44476" d="M80.8,44.8a2.22,2.22,0,0,1-1.1-.5,1.974,1.974,0,0,1-.6-1.4,9,9,0,0,0-.3-1.6,9.292,9.292,0,0,1-.5-1,.92.92,0,0,1,.1-1,1.159,1.159,0,0,1,1-.4,1.284,1.284,0,0,1,1,.4V40c0,1,.1,2,.2,3a8.969,8.969,0,0,0,.2,1.8Z" fill="#fcc290"/>
            </g>
            <g id="Group_6523" data-name="Group 6523">
              <path id="Path_44477" data-name="Path 44477" d="M101.2,40.4a9.251,9.251,0,0,1-.5,1,7.58,7.58,0,0,0-.3,1.6,2.246,2.246,0,0,1-.6,1.4,2.01,2.01,0,0,1-.8.4,9.513,9.513,0,0,0,.4-1.8,15.063,15.063,0,0,0,.1-3,2.2,2.2,0,0,0-.1-.8,1.884,1.884,0,0,1,.8-.2,1.159,1.159,0,0,1,1,.4C101.4,39.6,101.3,40,101.2,40.4Z" fill="#fcc290"/>
            </g>
            <path id="Path_44478" data-name="Path 44478" d="M102.7,35a29.259,29.259,0,0,0-1.1-5.3c-1.4-4.7-7.1-7.6-11.9-7.5a14.919,14.919,0,0,0-2.1.2,27.585,27.585,0,0,0-2.7.8,12.58,12.58,0,0,0-3.5,1.7,11.442,11.442,0,0,0-4.3,8C77,34,77,35.1,77,36.2a13.09,13.09,0,0,0,.8,4.8,9.432,9.432,0,0,0,1,2.3,8.65,8.65,0,0,0,.7,1,.1.1,0,0,0,.1-.1,2.947,2.947,0,0,1-.5-1.3,9,9,0,0,0-.3-1.6,9.292,9.292,0,0,1-.5-1,.92.92,0,0,1,.1-1,1.159,1.159,0,0,1,1-.4A1.287,1.287,0,0,1,80.7,40c-.1-.3.1-.8.1-1.2a5.283,5.283,0,0,1,.1-1.3c.2-1.4,1.2-2.8,1.8-4,.9-1.7,1.9-1.9,2.3-3.8,1.3,1.6,2.8,1.4,4.7,2.1a4.961,4.961,0,0,0,1.3.3c.8.2,1.7.2,2.5.4a6.4,6.4,0,0,1,4.4,3.2c0-.2-.3-1.4,0-1a11.041,11.041,0,0,1,1,4.7,2.507,2.507,0,0,0,.4-.7v.4h0a1.884,1.884,0,0,1,.8-.2,1.159,1.159,0,0,1,1,.4,1.183,1.183,0,0,1,.1,1,9.251,9.251,0,0,1-.5,1,7.581,7.581,0,0,0-.3,1.6,2.815,2.815,0,0,1-.6,1.5c-.2.2-.7.3-.8.4-.3.3-.2.7-.3,1.1a11.6,11.6,0,0,0,4-7.3,10.875,10.875,0,0,0,0-3.6Z" fill="#3a3c43"/>
            <g id="Group_6524" data-name="Group 6524">
              <path id="Path_44479" data-name="Path 44479" d="M99.9,47.2a11.7,11.7,0,0,1,.5,2,8.1,8.1,0,0,1-1.5,5.4C98.1,56,97,57.4,96.8,59c-.2,1.8.8,3.6.9,5.5a5.251,5.251,0,0,1-3.7,5,12.54,12.54,0,0,0,1.6-2.4,3.927,3.927,0,0,0,.3-2.8c-.2-.7-.7-1.3-.9-2a7.469,7.469,0,0,1-.3-2c0-2.8.1-6,1.3-8.6.9-1.9,2.1-3.4,2.6-5.3.1-.3.3-.7.4-1s.2-.5.5-.6a5.489,5.489,0,0,0,.4,2.4Z" fill="#3a3c43"/>
              <path id="Path_44480" data-name="Path 44480" d="M97,66c-.1.3-.1.5-.2.8-.2.5-.8,1.6-1.4,1.8a4.088,4.088,0,0,0,2.7-2.1,5.035,5.035,0,0,0,.5-3.4c-.2-1.3-.8-2.5-.4-3.7a7.558,7.558,0,0,1,1.9-2.5,7.681,7.681,0,0,0,1.8-5,10.019,10.019,0,0,0-1.4-5.1,3.716,3.716,0,0,1-.8-2.2,1.3,1.3,0,0,0-.9,1.1,3.812,3.812,0,0,0,.1,1.5c.4,2.5.5,5.2-.7,7.4a16.287,16.287,0,0,1-1.1,1.7,7.962,7.962,0,0,0-.9,4.3c.1,1.3.6,2.4.8,3.7A4.845,4.845,0,0,1,97,66Z" fill="#424345"/>
            </g>
          </g>
          <path id="Path_44481" data-name="Path 44481" d="M99.8,38a11.322,11.322,0,0,0-8.9.3,5.384,5.384,0,0,1-1.1.1h0a4.907,4.907,0,0,1-1.1-.1,12.452,12.452,0,0,0-8.9-.3c-.3.3,0,.8,0,.8l.2.1c.2.1.5.2.6.4a1.7,1.7,0,0,1,.1.7,5.274,5.274,0,0,0,.3,1.2,2.805,2.805,0,0,0,1,1.4c1.1.6,3.3.5,4.5.3,1.2-.4,2.3-2.6,2.4-3.3.1-.4.6-.5.9-.5h0c.3,0,.8.1.9.5.1.7,1.2,2.9,2.4,3.3,1.1.3,3.4.4,4.5-.3a2.314,2.314,0,0,0,1-1.4l.3-1.2a1.7,1.7,0,0,1,.1-.7c.1-.2.4-.3.6-.4l.2-.1a.684.684,0,0,0,0-.8ZM84.3,42.8a4.473,4.473,0,0,1-2.5-.9,4.053,4.053,0,0,1-.5-.9,3.421,3.421,0,0,1-.1-2,1,1,0,0,1,.4-.5,4.023,4.023,0,0,1,2.6-.6c1.9.1,3.8.3,3.9,1.6a3.213,3.213,0,0,1-3.8,3.3ZM98.1,41a2.044,2.044,0,0,1-.5.9,4.474,4.474,0,0,1-2.5.9,3.535,3.535,0,0,1-3.9-3.3c.1-1.3,2-1.6,3.9-1.6a3.887,3.887,0,0,1,2.6.6,1,1,0,0,1,.4.5,2.332,2.332,0,0,1,0,2Z" fill="#383535"/>
        </g>
        <path id="Path_44482" data-name="Path 44482" d="M72,102.3l-.8,6.7,12.6,1.1.8-6.7Z" fill="#fff"/>
        <path id="Path_44483" data-name="Path 44483" d="M108.5,102.3l.8,6.7-12.7,1.1-.8-6.7Z" fill="#e8f6fb"/>
      </g>
      <g id="Group_6529" data-name="Group 6529" clip-path="url(#clip-path)">
        <g id="Group_6527" data-name="Group 6527">
          <path id="Path_44484" data-name="Path 44484" d="M101,28.6l.8,4.8L76,33.1l.9-4.4Z" fill="#c0d6df"/>
          <path id="Path_44485" data-name="Path 44485" d="M98.8,29.1a6.006,6.006,0,0,1-1.6,4.1H87.8a6.006,6.006,0,0,1-1.6-4.1v-.3H98.7A.367.367,0,0,1,98.8,29.1Z" fill="#d7d6d6" opacity="0.47"/>
        </g>
        <g id="Group_6528" data-name="Group 6528">
          <path id="Path_44486" data-name="Path 44486" d="M98.5,29.1a6.018,6.018,0,0,1-6,6,6.109,6.109,0,0,1-3-.8,5.807,5.807,0,0,1-3-5.1v-.6a5.966,5.966,0,0,1,5.9-5.4,6.042,6.042,0,0,1,2.4.5,5.849,5.849,0,0,1,3.5,5.1C98.5,28.8,98.5,28.9,98.5,29.1Z" fill="#e6e7e7"/>
          <path id="Path_44487" data-name="Path 44487" d="M97.3,28.8a4.9,4.9,0,0,0-2.8-4.1,4.058,4.058,0,0,0-1.9-.4,4.693,4.693,0,0,0-4.7,4.3v.5a4.517,4.517,0,0,0,2.4,4.1,4.862,4.862,0,0,0,7.2-4.1C97.3,29,97.3,28.9,97.3,28.8Zm-1.1.3a3.585,3.585,0,0,1-3.6,3.6,3.453,3.453,0,0,1-1.8-.5A3.532,3.532,0,0,1,89,29.1v-.4a3.589,3.589,0,0,1,3.6-3.2,4.013,4.013,0,0,1,1.5.3,3.4,3.4,0,0,1,2.1,3.1v.2Z" fill="#d6d7d8"/>
          <path id="Path_44488" data-name="Path 44488" d="M92.4,28.6c-1.1,2.2-2.2,4.4-2.9,5.6a5.807,5.807,0,0,1-3-5.1v-.6Z" fill="#d7d6d6" opacity="0.47"/>
          <path id="Path_44489" data-name="Path 44489" d="M98.5,28.7l-6.1-.1c.9-1.8,1.9-3.6,2.5-5a5.779,5.779,0,0,1,3.6,5.1Z" fill="#d7d6d6" opacity="0.47"/>
          <path id="Path_44490" data-name="Path 44490" d="M93.8,28.7a1.367,1.367,0,0,1-1.4,1.4,1.445,1.445,0,0,1-.7-.2,1.387,1.387,0,0,1-.7-1.2v-.1a1.4,1.4,0,0,1,1.4-1.2,1.268,1.268,0,0,1,.6.1c.5.1.8.5.8,1.2Z" fill="#d6d7d8"/>
          <path id="Path_44491" data-name="Path 44491" d="M93.3,28.7a.789.789,0,0,1-.8.8c-.2,0-.3,0-.4-.1a.67.67,0,0,1-.4-.7v-.1a.86.86,0,0,1,.8-.8.367.367,0,0,1,.3.1.792.792,0,0,1,.5.8Z" fill="#d7d6d6" opacity="0.82"/>
        </g>
      </g>
    </g>
  </g>
</svg>
