<svg xmlns="http://www.w3.org/2000/svg" xmlns:xlink="http://www.w3.org/1999/xlink" width="117.2" height="117.199" viewBox="0 0 117.2 117.199">
  <defs>
    <linearGradient id="linear-gradient" y1="0.5" x2="1" y2="0.5" gradientUnits="objectBoundingBox">
      <stop offset="0" stop-color="#ebebeb"/>
      <stop offset="1" stop-color="#fff"/>
    </linearGradient>
    <clipPath id="clip-path">
      <circle id="Ellipse_1614" data-name="Ellipse 1614" cx="58.6" cy="58.6" r="58.6" transform="translate(8.2 8.8)"/>
    </clipPath>
  </defs>
  <g id="Pshycologist" transform="translate(-8.2 -8.801)">
    <circle id="Ellipse_1613" data-name="Ellipse 1613" cx="58.6" cy="58.6" r="58.6" transform="translate(8.2 8.8)" fill="url(#linear-gradient)"/>
    <g id="Group_6594" data-name="Group 6594">
      <g id="Group_6585" data-name="Group 6585" clip-path="url(#clip-path)">
        <path id="Path_44735" data-name="Path 44735" d="M57.3,50.4a66.42,66.42,0,0,0,5.3,4.4c1.2.9,4.3,3.2,5.6,3l.2-2.7.5-6.2S61,39.7,59.1,38.1a6.912,6.912,0,0,0-8.3-.5C49.4,41.7,53.5,46.8,57.3,50.4Z" fill="#fff"/>
        <g id="Group_6580" data-name="Group 6580">
          <path id="Path_44736" data-name="Path 44736" d="M83.4,45.9l-1.9,1.5c-1-1.2-1.9-2.4-2.9-3.5l1.8-1.5-.1-.4a3.083,3.083,0,0,1,.4-2.1,18.031,18.031,0,0,1,1.8-2h0l.7.9,3.4-1.7c1.6,1.9.8,3.5,2.2,5.3l-1.6,1.8C85.5,45.8,84.6,46.1,83.4,45.9Z" fill="#efbd87"/>
          <path id="Path_44737" data-name="Path 44737" d="M86.6,40.8a.854.854,0,0,1-.7,0,1.205,1.205,0,0,1-.5-.5l-.1-.1a.865.865,0,0,1,.6-1.1l2.2-.8a.854.854,0,0,1,.7,0c.2.1.4.2.4.4l.1.3a.715.715,0,0,1-.5.9Z" fill="#fdc991"/>
          <path id="Path_44738" data-name="Path 44738" d="M86.9,42.6a.815.815,0,0,1-1.1-.5l-.1-.1a.471.471,0,0,1,.1-.6.664.664,0,0,1,.5-.4l1.8-.6a.809.809,0,0,1,1.1.5l.1.3c.1.2,0,.4,0,.6a1,1,0,0,1-.5.4Z" fill="#fdc991"/>
          <path id="Path_44739" data-name="Path 44739" d="M87.5,44a.751.751,0,0,1-.9-.4v-.1a.751.751,0,0,1,.4-.9l1.3-.5a.68.68,0,0,1,.8.4l.1.3a.6.6,0,0,1-.4.8Z" fill="#fdc991"/>
          <path id="Path_44740" data-name="Path 44740" d="M79.7,43l.8-.6-.2-.4a3.083,3.083,0,0,1,.4-2.1c.1-.1.5-.6,1-1.1l1.6,1.3-.1.1A2.879,2.879,0,0,1,82,44.1l1.3,1.7-1.6,1.8c-1.1-1.3-2.1-2.6-3.2-3.8Z" fill="#fdc991"/>
          <rect id="Rectangle_3899" data-name="Rectangle 3899" width="22.6" height="0.5" transform="translate(82.608 60.417) rotate(-82.311)" fill="#585856"/>
          <path id="Path_44741" data-name="Path 44741" d="M86.9,38.8a.661.661,0,0,1-.6-.1,1,1,0,0,1-.4-.5l-.1-.1a.7.7,0,0,1,.4-1l1.7-.6a.44.44,0,0,1,.5.1,1,1,0,0,1,.4.5l.1.3a.759.759,0,0,1-.3.9Z" fill="#fdc991"/>
          <path id="Path_44742" data-name="Path 44742" d="M82.2,37.7h0a1.38,1.38,0,0,1,.4-.3l1.5-.4,1-.3a.569.569,0,0,1,.7.4l.1.2a.94.94,0,0,1-.1.9,1.344,1.344,0,0,1-.7.6l-.9.3a.451.451,0,0,0-.3.3l-.4.8-2.3-.6A7.759,7.759,0,0,1,82.2,37.7Z" fill="#fdc991"/>
        </g>
        <path id="Path_44743" data-name="Path 44743" d="M80.8,49.1l-3.5-5,2.7-2,3.7,5Z" fill="#fff"/>
        <path id="Path_44744" data-name="Path 44744" d="M64.7,51.4l2,3.6.8,1.4.8,1.4c.3-.1.5-.2.8-.3a10.16,10.16,0,0,0,1.6-1c.2-.1.3-.2.5-.3a10.54,10.54,0,0,1,1.1-.7c1-.7,2.2-1.4,3.4-2.2,3-2.1,6.1-4.2,7-4.9.1-.1.2-.1.2-.2h0c-1.1-1.6-2.2-3.4-3.9-5.6-1.3,1-5.3,3.4-8.7,5.5a14.8,14.8,0,0,0-1.3.8.758.758,0,0,1-.4.2,10.539,10.539,0,0,0-1.1.7,9.878,9.878,0,0,0-1.5.9A4.609,4.609,0,0,0,64.7,51.4Z" fill="#fff"/>
        <path id="Path_44745" data-name="Path 44745" d="M57.3,50.4a66.42,66.42,0,0,0,5.3,4.4c1.2.9,4.3,3.2,5.6,3,.3-.1.5-.2.8-.3a10.16,10.16,0,0,0,1.6-1c.2-.1.3-.2.5-.3a10.54,10.54,0,0,1,1.1-.7c1-.7,2.2-1.4,3.4-2.2a36.443,36.443,0,0,1-4.7,1.4,10.141,10.141,0,0,1-4.3.3,5.637,5.637,0,0,1-1.2-.4,17.4,17.4,0,0,1-1.8-1.1c-3-2.3-5.5-5.7-5.3-9.4C58,46.2,57.7,48.3,57.3,50.4Z" fill="#1d1d1b" opacity="0.1"/>
        <path id="Path_44746" data-name="Path 44746" d="M32.5,74.9l25.8-1.7c-.4-4.6-3.7-35.7-3.7-35.7L51.3,37l-9.8-1.6C41.6,35.5,32.4,70.7,32.5,74.9Z" fill="#ededee"/>
        <path id="Path_44747" data-name="Path 44747" d="M59.6,79.1,32.5,81.4l-1.6,25.8L64,107Z" fill="#ededee"/>
        <g id="Group_6581" data-name="Group 6581">
          <path id="Path_44748" data-name="Path 44748" d="M62,136.6l-9.9,4L50.8,110,47.9,87.8V88L44,140.9H33.4v-.4h0l1.8-55.2.2-6.5a71.567,71.567,0,0,1,.6-7.2c.2-1,.4-1.8.6-1.8H58.8c.2,0,.4.6.6,1.6.1.8.3,1.7.4,2.7.2,2.1.4,4.4.4,4.7l1,29.9Z" fill="#0f4e4e"/>
          <path id="Path_44749" data-name="Path 44749" d="M36,72.3V69.8H59.5a19.655,19.655,0,0,1,0,2.5Z" fill="#16191e"/>
          <rect id="Rectangle_3900" data-name="Rectangle 3900" width="2.8" height="2" transform="translate(48 70.1)" fill="#fbf7d0"/>
          <path id="Path_44750" data-name="Path 44750" d="M38.7,81.4a10.908,10.908,0,0,0,1.1.6A10.908,10.908,0,0,1,38.7,81.4Z" fill="#010101" opacity="0.07"/>
          <path id="Path_44751" data-name="Path 44751" d="M62,136.6l-9.9,4L50.8,110,47.9,87.8V88L44,140.9H37.4l-3.9-.4h0l1-.6A17.35,17.35,0,0,0,42.6,127l1.8-16.6c-.2-1.4-4.4-.7-9.9-2-.7-5.5,4.4-37.2,2.9-37.9,4.6,2,16.4-2.6,17-25C54.3,49,62,106,61.1,108.8l-8.4,1.1,1.1,19a8.081,8.081,0,0,0,8.2,7.7Z" fill="#010101" opacity="0.1"/>
          <path id="Path_44752" data-name="Path 44752" d="M59.8,74.3c-5.8.5-11.7,1.2-16.8,3.9a18.734,18.734,0,0,0-7.7,7.3l.2-6.5a71.567,71.567,0,0,1,.6-7.2c7.8-.1,15.6-.1,23.4-.2Q59.65,72.8,59.8,74.3Z" fill="#010101" opacity="0.1"/>
        </g>
        <path id="Path_44753" data-name="Path 44753" d="M43.6,34l.8-8.2c3.5.4,8.1.9,9,.8,0,0-.5,5.9-.5,8.5C53.1,40.1,47.4,40.3,43.6,34Z" fill="#efbd87"/>
        <path id="Path_44754" data-name="Path 44754" d="M46.5,101a6.083,6.083,0,0,1-6.1,6.2H30.9c-.1-4,.7-45.8,1.7-58.1,0-.5.1-1,.1-1.6.2-2.9.4-5.5.6-8.2l8.3-3.9.4.1C45.6,42.1,46.1,85.9,46.5,101Z" fill="#fff"/>
        <path id="Path_44755" data-name="Path 44755" d="M64,107l-2.9.2H61a4.377,4.377,0,0,1-4.6-4.2l-1-28.3-.1-2.4v-.6l-.1-1.6v-.2L55,60.7l-.8-23.2.5.1,3.4,2.1.5.3c0,.4.2,2.4.4,5.6.2,2.8.5,6.5.9,10.7.1,1.1.2,2.3.3,3.4.1,1.3.2,2.7.3,4.1.3,3.1.5,6.2.8,9.4C62.5,88.8,63.8,104.7,64,107Z" fill="#fff"/>
        <path id="Path_44756" data-name="Path 44756" d="M50.8,38.7,53.7,42c.4-2,1-3.7.8-4.9l-1.7-1.8A3.059,3.059,0,0,1,50.8,38.7Z" fill="#e0ecf0"/>
        <path id="Path_44757" data-name="Path 44757" d="M50.8,38.7l-3.6,4.2c-2.5-2.4-5-5.1-5.6-7.4l2.1-2.3C43.7,35.2,48,38.8,50.8,38.7Z" fill="#e0ecf0"/>
        <path id="Path_44758" data-name="Path 44758" d="M45.2,59.8c-1.8-6.4-4.9-18.2-4.9-18.2s2.8-1.5,2.6-1.7l-3.1.1.6-4,2.8-2.4C45.4,41.1,45.4,51.6,45.2,59.8Z" fill="#dbdada"/>
        <path id="Path_44759" data-name="Path 44759" d="M54.9,59.6c1.8-6.4,2.7-18.3,2.7-18.3s-2.7-1-2.5-1.2l2.2-.3-1.7-2.9L53.2,36C54.1,43.3,54.7,51.4,54.9,59.6Z" fill="#dbdada"/>
        <g id="Group_6582" data-name="Group 6582">
          <path id="Path_44760" data-name="Path 44760" d="M44.1,26.6a7.183,7.183,0,0,1,.5-3.8c2.4-7.1,6.2-4.9,8.8-4.1,3.1,1.1,5.4,4,4.2,8.9l-.6.8.2,3a.9.9,0,0,1-.9.9h-.7c-.2.5-.7,2.6-.7,2.6-.4,1.2-1.5,2.9-3.1,2.3-4.5-1.8-5.7-4.5-4.1-8.5C46.5,28,44.2,27.8,44.1,26.6Z" fill="#fdc991"/>
          <path id="Path_44761" data-name="Path 44761" d="M43.9,30.1c3.4,2.1,3.5-3.9,3.5-3.9a19.844,19.844,0,0,1,3.3.1c-2.1-5.6-.5-9.3,5.4-6,1.1-.7-1-2.8-4.4-3.1-3.7-.4-6.7.6-8.3,4.1C42.5,23.4,41,27.7,43.9,30.1Z" fill="#372a2b"/>
          <path id="Path_44762" data-name="Path 44762" d="M46.5,26.1c-.3,1.1.2,2.7,1,2.9.7.2,1.1-.7,1.4-1.8.2-.7.6-1.8-.2-2.2C48.1,24.5,47,24.4,46.5,26.1Z" fill="#fdc991"/>
        </g>
        <path id="Path_44763" data-name="Path 44763" d="M40,86c1.3,6.3-6.3,5.8-9.1,13.6l.5-16c-.1-4,.2-22.2,1.1-34.5l6.4-1.3L37.4,59Z" fill="#1d1d1b" opacity="0.1"/>
        <path id="Path_44764" data-name="Path 44764" d="M34.1,81h0a.9.9,0,0,1,1.3.4,31.273,31.273,0,0,0,3.4,5,.935.935,0,0,1-.1,1.3h0a.854.854,0,0,1-1.3-.1,24.727,24.727,0,0,1-3.6-5.3A.974.974,0,0,1,34.1,81Z" fill="#efbd87"/>
        <rect id="Rectangle_3901" data-name="Rectangle 3901" width="5" height="4.6" transform="translate(28.979 78.691) rotate(-12.17)" fill="#fdc991"/>
        <path id="Path_44765" data-name="Path 44765" d="M35,82.7h0a.824.824,0,0,1,1,.7l1.3,6a.824.824,0,0,1-.7,1h0a.824.824,0,0,1-1-.7l-1.3-6A.871.871,0,0,1,35,82.7Z" fill="#efbd87"/>
        <path id="Path_44766" data-name="Path 44766" d="M33.8,85.5h0a.824.824,0,0,1,1,.7l.7,3.1a.824.824,0,0,1-.7,1h0a.824.824,0,0,1-1-.7l-.7-3.1A.871.871,0,0,1,33.8,85.5Z" fill="#efbd87"/>
        <path id="Path_44767" data-name="Path 44767" d="M32.1,85.7h0a.824.824,0,0,1,1,.7l.6,2.6a.824.824,0,0,1-.7,1h0a.824.824,0,0,1-1-.7l-.6-2.6A.824.824,0,0,1,32.1,85.7Z" fill="#efbd87"/>
        <path id="Path_44768" data-name="Path 44768" d="M30.5,86h0a.779.779,0,0,1,.9.6l.5,2.3a.779.779,0,0,1-.6.9h0a.779.779,0,0,1-.9-.6l-.5-2.3A.779.779,0,0,1,30.5,86Z" fill="#efbd87"/>
        <path id="Path_44769" data-name="Path 44769" d="M29.6,85.5l.3,1.5a.779.779,0,0,0,.9.6h0a.779.779,0,0,0,.6-.9l.1.3a.871.871,0,0,0,1,.7h0a.871.871,0,0,0,.7-1l.1.3a.871.871,0,0,0,1,.7h0a.871.871,0,0,0,.7-1,.871.871,0,0,0,1,.7h0a.871.871,0,0,0,.7-1l-.4-2Z" fill="#fdc991"/>
        <path id="Path_44770" data-name="Path 44770" d="M31.1,80.7l1.7-.4a2.53,2.53,0,0,1,3,1.9l.4,2-6.6,1.4-.4-2A2.53,2.53,0,0,1,31.1,80.7Z" fill="#fdc991"/>
        <g id="Group_6584" data-name="Group 6584">
          <g id="Group_6583" data-name="Group 6583">
            <path id="Path_44771" data-name="Path 44771" d="M28,77.9l6.9-1.2.4,3.7-6.8,1.1Z" fill="#fff"/>
          </g>
        </g>
        <path id="Path_44772" data-name="Path 44772" d="M35.4,59.6s3.7-11.1,3.8-13.3a7.519,7.519,0,0,0-2.1-5.7c-1.4-1.5-3.2-2-4.8-.7a8.8,8.8,0,0,0-2.6,4.2c-1.2,5.4-3.5,15.4-3.5,15.6C29.4,58.2,35.4,59.6,35.4,59.6Z" fill="#fff"/>
        <path id="Path_44773" data-name="Path 44773" d="M35.4,59.6c-2.1-2.4-7.1-2-9.2.2a164.86,164.86,0,0,0,1.7,20.7l7.7-1.6C35.2,73,35.4,61,35.4,59.6Z" fill="#fff"/>
      </g>
      <g id="Group_6586" data-name="Group 6586" clip-path="url(#clip-path)">
        <path id="Path_44774" data-name="Path 44774" d="M49.8,61.5A1.612,1.612,0,1,1,48,60.1,1.65,1.65,0,0,1,49.8,61.5Z" fill="#878787"/>
      </g>
      <g id="Group_6587" data-name="Group 6587" clip-path="url(#clip-path)">
        <path id="Path_44775" data-name="Path 44775" d="M48.3,60c0,.2-.1.5-.4.5-.2,0-.5-.1-.5-.4,0-.2.1-.5.4-.5S48.3,59.7,48.3,60Z" fill="#717070"/>
      </g>
      <g id="Group_6593" data-name="Group 6593" clip-path="url(#clip-path)">
        <g id="Group_6588" data-name="Group 6588">
          <path id="Path_44776" data-name="Path 44776" d="M26.6,130.7c.3.1.4,1,.3,4.6H10.6c0-2.6,4.8-3.1,8.2-5.1A25.555,25.555,0,0,1,26.6,130.7Z" fill="#1d1d1b"/>
        </g>
        <path id="Path_44777" data-name="Path 44777" d="M18.8,130.3a20.61,20.61,0,0,1,4.2,2.1c2.5,1.6,4.6,2.9,5.6.8,6.3-9.3,7.2-20.2,10.3-26.7l.3-.6a10.93,10.93,0,0,1,.8-1.5h0l-2-2-.5-.5L32,97.6c-.2.2-1,2.4-1.1,2.6C27.3,107.9,21.7,120.5,18.8,130.3Z" fill="#246667"/>
        <path id="Path_44778" data-name="Path 44778" d="M50.7,106.9l6.2,4.8,1.9,1.5c3.6,0,7.3-2.5,9.3-5.5a12.4,12.4,0,0,0,1-2c.1-.2.1-.4.2-.6V105c-.2-.4-.5-.8-.7-1.2a31.628,31.628,0,0,0-3.5-5,17.422,17.422,0,0,0-3.1-3,20.5,20.5,0,0,0-1.9,1.5c-.1,0-.1.1-.2.1a.1.1,0,0,0-.1.1c-.5.4-1,.9-1.5,1.3a59.288,59.288,0,0,0-4.3,4.4C52.8,104.6,51.6,105.9,50.7,106.9Z" fill="#066181"/>
        <g id="Group_6590" data-name="Group 6590">
          <path id="Path_44779" data-name="Path 44779" d="M89.9,77.7l7.3,4,1.7-3H99l.3-.6,1.5-2.5-.5-.3-.1-.1-1.9-1.1-.2-.1L97,73.4l-2.8-1.6L93,73.5l-1.3,1.7-.8,1.1Z" fill="#fdc991"/>
          <g id="Group_6589" data-name="Group 6589">
            <path id="Path_44780" data-name="Path 44780" d="M91.7,75.2h.1a5.714,5.714,0,0,0,5.3-1.4.349.349,0,0,0,.1-.2l.1.1h0l.3.3c.1.1.2.2.2.3h0l.6.9c.3.4.5.6.8.5h0c.1,0,.2-.1.3-.1a5.582,5.582,0,0,1,.8-.5h0c.1-.1.3-.1.5-.2a10.548,10.548,0,0,0,3-1.5,13.443,13.443,0,0,0,1.1-1.4.1.1,0,0,1,.1-.1l.1-.1a4.073,4.073,0,0,0,.6-1.1,4.242,4.242,0,0,0,.1-3.8h0a2.186,2.186,0,0,0-.3-.5c-.1-.1-.2-.3-.3-.4-.2-.2-.3-.5-.5-.7-.1-.2-.3-.3-.4-.4l-1.1-1.1a5.944,5.944,0,0,0-5-1.5,3.81,3.81,0,0,0-1,.3h0a5.64,5.64,0,0,0-2,1.1c-.4.3-.7.6-1.1.9a4.418,4.418,0,0,0-.3.8l-.4.2-1.6.7a.732.732,0,0,0-.3,1.1l.4.6c-.3.3-2.2,2.1-2.2,2.1a3.839,3.839,0,0,0-.9,1.8,1.845,1.845,0,0,0,.5,1.7l1,.8.2.2A1.957,1.957,0,0,0,91.7,75.2Z" fill="#fdc991"/>
            <path id="Path_44781" data-name="Path 44781" d="M96.3,71.8a10.949,10.949,0,0,1,1,1.1h.1a18.525,18.525,0,0,0,2.5-.6,7.354,7.354,0,0,0-1.7,1.8v.1h0c-.1.1-.1.2-.2.3h0a2.318,2.318,0,0,0-.3,1.6h0a.367.367,0,0,0,.1.3c0,.1.1.2.1.3.1.2.2.3.3.5a4.5,4.5,0,0,0,1,.9.1.1,0,0,1,.1.1h0a2.447,2.447,0,0,0,2.5-.9l.4-.4c.2-.3.5-.6.7-.9a32.359,32.359,0,0,0,2-3.3,2.186,2.186,0,0,1,.3-.5c.1-.1.1-.2.2-.4.1-.1.1-.2.2-.3a11.354,11.354,0,0,0,1.3-2.9,3.621,3.621,0,0,0-.3-2.9c0-.1-.1-.1-.1-.2-.1-.1-.1-.2-.2-.3h0a2.651,2.651,0,0,0-.5-.6l-.4-.4-.9-.9c-2.1-2-4.4-2.8-5.8-2.4-.1,0-.1,0-.2.1a1.677,1.677,0,0,0-1.3,1.8h0a4.233,4.233,0,0,1,.7.5.1.1,0,0,1,.1.1C102.6,66.2,100,67.5,96.3,71.8Z" fill="#372a2b"/>
            <path id="Path_44782" data-name="Path 44782" d="M100,73.3c-.8.8-2.3,1.1-2.8.6s.2-1.1.9-1.9c.5-.5,1.1-1.4,1.8-1C100.5,71.3,101.1,72.2,100,73.3Z" fill="#fdc991"/>
          </g>
          <path id="Path_44783" data-name="Path 44783" d="M91.7,75.2h.1a5.381,5.381,0,0,0,2-1c.6-.5,1.1-1.1,1.7-1.6a3.258,3.258,0,0,1-1.9.8H93a6.6,6.6,0,0,1-1.4-.1c-.3-.1-.6-.1-.9-.2a5.359,5.359,0,0,1-1.1-.5,3.915,3.915,0,0,1-1-.8,1.845,1.845,0,0,0,.5,1.7l1,.8.2.2A2.666,2.666,0,0,0,91.7,75.2Z" fill="#3d3d3c" opacity="0.2"/>
        </g>
        <path id="Path_44784" data-name="Path 44784" d="M59.8,97.4h0c.4.5.6.9.9,1.3a11.985,11.985,0,0,0,1.1,1.2c.8.8,1.6,1.6,2.4,2.3.6.5,1.5,1.1,2.5,1.8.8.5,1.6,1.1,2.4,1.6,1,.7,1.9,1.2,2.5,1.6a2.958,2.958,0,0,1,.4.3s3.8-4,7.7-7.7a52.729,52.729,0,0,1,4.7-4.1L91,90.6h0a21.883,21.883,0,0,0,4.4-4,9.456,9.456,0,0,0,1.4-2.4c.1-.3.3-.7.4-1l.1-.2.9-1.3-.1-.1c-.2-.1-.4-.3-.6-.4a.1.1,0,0,1-.1-.1l-.3-.3s-.5-.4-.5-.5c-.1-.1-.3-.2-.4-.3l-.3-.3a2.651,2.651,0,0,0-.6-.5c-1-.9-2-1.8-2.8-2.5-.2-.2-.5-.3-.7-.5-.1-.1-.1-.1-.2-.1a.6.6,0,0,0-.4-.1h-.3a8.367,8.367,0,0,0-1.2.1H89a15.886,15.886,0,0,0-4.8.8l-.9.3a5.359,5.359,0,0,0-1.1.5,9.466,9.466,0,0,0-1.7.9c-.4.2-.8.5-1.3.8l-.1.1a.52.52,0,0,1-.4.2,2.186,2.186,0,0,1-.5.3,18.259,18.259,0,0,0-1.6,1.3c-.1.1-.2.2-.3.2a41.08,41.08,0,0,0-8,5.6c-1.3,1.1-2.5,2.2-3.7,3.4-.1.1-.2.2-.2.3-.4.4-.7.8-1.1,1.2a.1.1,0,0,1-.1.1c-.5.6-1,1.2-1.4,1.7-.1.1-.2.3-.3.4l-.6.9-.1.1a7.572,7.572,0,0,0-.9,1.8.756.756,0,0,1-.1.4Z" fill="#aa3a3a"/>
        <path id="Path_44785" data-name="Path 44785" d="M32,97.6l3.8,5.2.6.9,2.1,2.9h.2a10.26,10.26,0,0,1,1.4.4c2.6.7,3.4,1.1,6.6,2,4.3,1.2,8.4,2.3,10.2,2.8.3.1.5.1.6.2.7.2,1.4.3,2.2.5l.1-.2.8-1.4.3-.5,3.3-5.5.4-.7.5-.8c-2.1-1.2-4.8-3.9-6.8-4.4a28.169,28.169,0,0,0-3.1-.7c-6.7-1.4-12.3-1.7-17.4-2.3C36.4,95.7,33,95.5,32,97.6Z" fill="#246667"/>
        <path id="Path_44786" data-name="Path 44786" d="M58.3,98.5a.774.774,0,0,0,.1.3,44.86,44.86,0,0,0,5.1,5.2c.3.2.5.5.8.7.4.4.8.7,1.2,1.1.3.3,1.5,1.1,2.6,1.9,1.2.8,2.3,1.5,2.4,1.6.2.2.8-1.2,1.1-2.1.1-.4.2-.7.2-.7-.2-.1-1.4-.8-2.5-1.5a17.089,17.089,0,0,1-1.7-1.1h0c-.1-.1-.2-.1-.2-.2-2.3-1.9-4.6-4.1-6.9-6.3l-.3-.3h0l-.2-.2-.3.2h0Z" fill="#aa3a3a"/>
        <path id="Path_44787" data-name="Path 44787" d="M58.8,93.7c.3.1.6.1.9.2h.2a9.852,9.852,0,0,0,1.7.2c1.2.1,2.3.1,3.5.1,1.4,0,2.9,0,4.3.1,1.5.1,3,.4,4.4.4a13.553,13.553,0,0,0,2-.2,14.028,14.028,0,0,0,4.3-1.6c.2-.1.3-.2.4-.2a33.329,33.329,0,0,0,5.6-4.3,7.722,7.722,0,0,0,2.5-5.7,15.159,15.159,0,0,0-2.3,1.1,96.625,96.625,0,0,0-9.1,6.4c-.4.3-7.3.2-12.5.2-.1.1-.2.2-.2.3-.4.4-.7.8-1.1,1.2h-4a.758.758,0,0,1-.4-.2v1.5C58.9,93.4,58.8,93.5,58.8,93.7Z" fill="#3d3d3c" opacity="0.2"/>
        <path id="Path_44788" data-name="Path 44788" d="M75.5,94.8l3.7,3.4.8.8.1.1.5-.4h0l4.5-3.6,7.4-6c2-2.2,2-4.1,1.5-5.3a5.166,5.166,0,0,0-1-1.6c-2.4-2-5.5.2-6.8,1.7-2.5,2.8-9.5,9.7-10.6,10.7h0c0,.1,0,.2-.1.2Z" fill="#aa3a3a"/>
        <g id="Group_6591" data-name="Group 6591">
          <path id="Path_44789" data-name="Path 44789" d="M53.1,90.2c.2-.5.7-.4,1.1-.2.6.3,1.6.6,2.7,1,.2.1.5.2.7.3a2.092,2.092,0,0,1,.6.4l.4.8a13.785,13.785,0,0,1-4.4-1.2C53.8,91,52.9,90.6,53.1,90.2Z" fill="#fdc991"/>
          <path id="Path_44790" data-name="Path 44790" d="M48.7,92.8c0,.2.1.3.3.4h.3l5.4.9,5,.8h.1v-.1l.1-.9v-.6L60,92h-.2c-.1,0-.3-.1-.4-.1a.758.758,0,0,1-.4-.2h-.1a23.369,23.369,0,0,0-3-1.1h-.7l-1.2.1-.5.1h0l-1.5.4c-.1,0-.2.1-.3.1l-1.8.7-1,.4a.52.52,0,0,0-.2.4Z" fill="#fdc991"/>
          <path id="Path_44791" data-name="Path 44791" d="M59.3,91.9v.9l.4.5v.6l-.1,1V95h0l1.2.2,11,1.8H72l4.2.7c.1,0,.2.1.4.1h0a16.642,16.642,0,0,0,2.8.5h.5c.2-.1.4-.5.5-1.1a3.4,3.4,0,0,0,.1-1,8.2,8.2,0,0,0-.2-2.2c-.1-.4-.2-.7-.3-1.1a1.643,1.643,0,0,0-1-1H59.3Z" fill="#fdc991"/>
        </g>
        <path id="Path_44792" data-name="Path 44792" d="M71.3,100.1a12.617,12.617,0,0,0,6.4,0,12.463,12.463,0,0,0,4.4-2.7c4.7-3.8,9.5-7.6,13.2-12.3a3.949,3.949,0,0,0,1.2-2.8c-5,4-10.2,7.8-15.6,11.3A12.294,12.294,0,0,1,78.4,95a11.331,11.331,0,0,1-4.5.4c-2.2-.1-4.5-.4-6.7-.7-5.9-.9-11.9-2.5-17.8-1.5-.3.1-.7.3-.6.6a8.627,8.627,0,0,1,2.8.4A17.912,17.912,0,0,1,54,95.4a30.543,30.543,0,0,0,3.2,1.3C62,98.1,66.6,99.2,71.3,100.1Z" fill="#3d3d3c" opacity="0.2"/>
        <path id="Path_44793" data-name="Path 44793" d="M88.6,91.8l.6-.3.6-.3a10.907,10.907,0,0,0,1.1-.6,62.9,62.9,0,0,0,6.7-4.8,20.985,20.985,0,0,0,2.7-2.4c2-2.3,3-5.3,3.8-8.3.2-.8.4-1.6.7-2.5.1-.3.1-.6.2-.8l.9-3.9c.2-.8.3-1.5.5-2.3,0-.2.1-.5.1-.7h0l-.3.5c-.1-.1-.1-.2-.2-.3h0a2.651,2.651,0,0,0-.5-.6l-.4-.4c-.3.4-.5.8-.8,1.2-.2.3-.3.6-.5.9A77.78,77.78,0,0,1,99,74.7l-.6.9c-.3.4-.5.7-.8,1.1A12.878,12.878,0,0,1,96,78.4c-.3.3-.6.5-.9.8a8.12,8.12,0,0,0-.9,1h0a9.733,9.733,0,0,0-1.1,2.3.1.1,0,0,1-.1.1c-.4,1.1-.9,2.3-1.4,3.4-.1.1-.1.2-.2.3A28.474,28.474,0,0,1,88.6,91.8Z" fill="#3d3d3c" opacity="0.2"/>
        <path id="Path_44794" data-name="Path 44794" d="M23,132.4c2.5,1.6,4.6,2.9,5.6.8,6.3-9.3,7.2-20.2,10.3-26.7a10.26,10.26,0,0,1,1.4.4c2.6.7,3.4,1.1,6.6,2,4.3,1.2,8.4,2.3,10.2,2.8l1.9,1.5c3.6,0,7.3-2.5,9.3-5.5,1.2.8,2.3,1.5,2.4,1.6.2.2.8-1.2,1.1-2.1a2.958,2.958,0,0,1,.4.3s3.8-4,7.7-7.7c-.3,0-.5-.1-.8-.1a6.507,6.507,0,0,0-3.9.4,4.348,4.348,0,0,0-.7.4c-1,.6-1.8,1.5-2.7,2.1a7.444,7.444,0,0,1-2.9,1.2c-.3.1-.7.1-1.1.2h0c-.3,0-.6.1-.9.1h-2a4.869,4.869,0,0,1-1.2-.1,11.076,11.076,0,0,1-1.9-.2c-2.5-.2-4.9-.4-7.4-.6-4.6-.3-9.2-.6-13.8-.7H38.2a7.612,7.612,0,0,0-2.1.3,6.294,6.294,0,0,0-3,1.6,11.8,11.8,0,0,0-1.3,1.8,26.627,26.627,0,0,0-3,6.4,34.738,34.738,0,0,0-.8,5.5A38.017,38.017,0,0,1,23.4,132C23.1,132.2,23,132.3,23,132.4Z" fill="#3d3d3c" opacity="0.2"/>
        <g id="Group_6592" data-name="Group 6592">
          <rect id="Rectangle_3902" data-name="Rectangle 3902" width="59.1" height="2.5" transform="translate(29.5 126.7)" fill="#7f471d"/>
          <path id="Path_44795" data-name="Path 44795" d="M91.8,136.4h3.5L84.7,110.8H76.5Z" fill="#aa6d3a"/>
          <path id="Path_44796" data-name="Path 44796" d="M27.3,136.4H23.8l10.6-25.6h8.2Z" fill="#aa6d3a"/>
          <path id="Path_44797" data-name="Path 44797" d="M31.7,117.3c-3.5,0-2.4-5-1-7.6,1.2-2.4,1.3-5.4,9.3-5.4l12.4.9,1.2.1c1.8.1,17.6,1.8,17.2,1.7C85.3,92.6,89.3,88.9,96.7,82l.8-.8.6-.9L105.6,67l.8-1.4.3-.5h0a5.2,5.2,0,0,1,8-1.3l3.6,3.2,2.3,2.1a3.11,3.11,0,0,1,.2,4.3s-31,33.3-38.6,42.6a4.22,4.22,0,0,1-3.3,1.6H31.7Z" fill="#511211"/>
          <rect id="Rectangle_3903" data-name="Rectangle 3903" width="2.7" height="15.6" transform="translate(48.9 95.7)" fill="#7f471d"/>
          <path id="Path_44798" data-name="Path 44798" d="M47.1,95.5a1.326,1.326,0,0,1-1-1.5h0a1.321,1.321,0,0,1,1.6-1.2s33.2,5.8,42.8,7.4a1.675,1.675,0,0,1,1.1,2.6h0a1.531,1.531,0,0,1-1.7.7Z" fill="#aa6d3a"/>
          <path id="Path_44799" data-name="Path 44799" d="M47.3,110.8a3,3,0,1,0,3-3A2.946,2.946,0,0,0,47.3,110.8Z" fill="#aa6d3a"/>
          <path id="Path_44800" data-name="Path 44800" d="M48.5,110.8a1.8,1.8,0,1,0,1.8-1.8A1.859,1.859,0,0,0,48.5,110.8Z" fill="#7f471d"/>
        </g>
      </g>
    </g>
    <circle id="Ellipse_1618" data-name="Ellipse 1618" cx="3.8" cy="3.8" r="3.8" transform="translate(78 59.8)" fill="#b7b7b7"/>
  </g>
</svg>
