<svg id="Layer_1" data-name="Layer 1" xmlns="http://www.w3.org/2000/svg" xmlns:xlink="http://www.w3.org/1999/xlink" viewBox="0 0 558 558"><defs><style>.cls-1{fill:none;}.cls-2{fill:url(#linear-gradient);}.cls-3{fill:#dbdbdb;}.cls-4{fill:#ecebe9;}.cls-5{fill:#c4ceea;}.cls-19,.cls-6,.cls-8{fill:#fff;}.cls-7{fill:#e4771d;}.cls-8{opacity:0.5;}.cls-9{clip-path:url(#clip-path);}.cls-10{fill:#450000;}.cls-10,.cls-19,.cls-21,.cls-25{opacity:0.2;}.cls-11{fill:#9a8692;}.cls-12{clip-path:url(#clip-path-2);}.cls-13{fill:#f4f1b3;}.cls-14,.cls-25{fill:#f69021;}.cls-15{fill:#9f9c95;}.cls-16{fill:#ffecbd;}.cls-17{fill:#34323f;}.cls-18{fill:#eae5ec;}.cls-20{clip-path:url(#clip-path-3);}.cls-21{fill:#1d000e;}.cls-22{fill:#b84024;}.cls-23{fill:#ffd3a6;}.cls-24{fill:#c06521;}.cls-26{clip-path:url(#clip-path-4);}.cls-27{fill:#f2efde;}.cls-28{clip-path:url(#clip-path-5);}.cls-29{fill:#e2d8d6;}.cls-30{fill:#42bf9f;}.cls-31{fill:#cabcaf;opacity:0.4;}.cls-32{fill:#008ce7;}.cls-33{fill:#2e3133;}</style><linearGradient id="linear-gradient" y1="279" x2="558" y2="279" gradientUnits="userSpaceOnUse"><stop offset="0" stop-color="#ebebeb"/><stop offset="1" stop-color="#fff"/></linearGradient><clipPath id="clip-path"><path class="cls-1" d="M404.04249,187.76468c4.52821-.28176,10.99,2.56677,10.99,2.56677l-12.95507-15.01686h.71317a1.68984,1.68984,0,0,0,1.69056-1.692,1.66031,1.66031,0,0,0-1.306-1.61363,7.452,7.452,0,0,0,2.76409-5.794V153.85657a7.31459,7.31459,0,0,0-7.20173-7.41214H271.47625a7.30925,7.30925,0,0,0-7.19922,7.41214V166.215a7.46469,7.46469,0,0,0,2.76157,5.794,1.66253,1.66253,0,0,0-1.30846,1.61363,1.69132,1.69132,0,0,0,1.69083,1.692h2.52608l-14.88837,16.45157a26.53389,26.53389,0,0,1,8.80421-3.00543c-6.89042,3.24929-11.60481,9.375-11.60481,16.49114V383.42773c0,10.48752,10.10544,18.98265,22.57754,18.98265H395.26057c12.4721,0,22.58227-8.49513,22.58227-18.98265V205.25187C417.84284,197.38853,412.153,190.64135,404.04249,187.76468Z"/></clipPath><clipPath id="clip-path-2"><path class="cls-1" d="M504.953,387.72073c-.049-9.64589-38.152-17.45989-85.15208-17.45989-47.00281,0-85.1033,7.814-85.15208,17.45989h-.005V415.14h.005l-.005.01588c0,9.65589,38.12251,17.45264,85.15709,17.45264,47.0318,0,85.1571-7.79675,85.1571-17.45264l-.005-.01588h.005V387.72073Z"/></clipPath><clipPath id="clip-path-3"><path class="cls-1" d="M184.73868,240.95086h11.74443V193.68469h-61.8714v47.26617h11.7422c-11.38937,0-20.62194,8.117-20.62194,18.13126V404.71129c0,10.02322,9.23257,18.14491,20.62194,18.14491h38.38477c11.38185,0,20.62473-8.12169,20.62473-18.14491V259.08212C205.36341,249.06782,196.12053,240.95086,184.73868,240.95086Z"/></clipPath><clipPath id="clip-path-4"><path class="cls-1" d="M266.86721,310.54681h-.84305v-8.33349h5.81717V269.42138h-5.81717a4.30565,4.30565,0,0,0-4.14111-4.293V241.66153c0-3.29834-4.0968-5.9741-9.152-5.9741-5.05746,0-9.16206,2.67576-9.16206,5.9741v23.46685a4.31334,4.31334,0,0,0-4.14334,4.293H233.611v32.79194h5.81466v8.33349h-.83552c-8.39481,0-15.19717,5.08449-15.19717,11.3551V413.093c0,6.27507,6.80236,11.36205,15.19717,11.36205h28.2771c8.39007,0,15.19215-5.087,15.19215-11.36205V321.90191C282.05936,315.6313,275.25728,310.54681,266.86721,310.54681Z"/></clipPath><clipPath id="clip-path-5"><path class="cls-1" d="M91.63463,298.523h-.68837V281.0397h-.24247a3.3251,3.3251,0,1,0,0-6.65019H69.41522a3.3251,3.3251,0,1,0,0,6.65019h-.24274V298.523H68.4841c-6.8684,0-12.43587,5.93479-12.43587,13.24435V418.17847c0,7.32656,5.56747,13.26136,12.43587,13.26136H91.63463c6.86618,0,12.43838-5.9348,12.43838-13.26136V311.76734C104.073,304.45778,98.50081,298.523,91.63463,298.523Z"/></clipPath></defs><title>Icons</title><circle class="cls-2" cx="279" cy="279" r="279"/><circle class="cls-1" cx="279" cy="279" r="279"/><ellipse class="cls-3" cx="279" cy="422.8562" rx="228.4414" ry="45.89508"/><path class="cls-4" d="M395.26057,186.27255H274.83562c-12.4721,0-22.57754,8.49654-22.57754,18.97932V383.42773c0,10.48752,10.10544,18.98265,22.57754,18.98265H395.26057c12.4721,0,22.58227-8.49513,22.58227-18.98265V205.25187C417.84284,194.76909,407.73267,186.27255,395.26057,186.27255Z"/><path class="cls-4" d="M398.73755,146.44443H271.47625a7.30925,7.30925,0,0,0-7.19922,7.41214V166.215a7.30518,7.30518,0,0,0,7.19922,7.40768h127.2613a7.31052,7.31052,0,0,0,7.20173-7.40768V153.85657A7.31459,7.31459,0,0,0,398.73755,146.44443Z"/><path class="cls-5" d="M392.33986,188.9887H277.76135c-11.8718,0-21.48478,8.07989-21.48478,18.06047v169.5263c0,9.97419,9.613,18.06522,21.48478,18.06522H392.33986c11.862,0,21.48478-8.091,21.48478-18.06522V207.04917C413.82464,197.06859,404.2019,188.9887,392.33986,188.9887Z"/><path class="cls-6" d="M271.47625,173.62264l-16.41757,18.14352s7.1602-4.15086,12.29123-2.86943c4.087,1.0281,6.2851,5.16029,11.27873,6.00362,5.70932.95787,12.23215-3.80417,15.94463-3.95773,5.11848-.20094,9.19131,5.1642,13.76858,5.32946,5.52315.20233,11.83975-4.39809,15.92958-3.94714,4.09679.44563,6.8096,4.788,11.86705,5.05383,5.92977.3258,8.79418-6.02062,14.1164-5.61261,5.32472.41024,6.3439,5.52564,13.71953,5.52564,7.36588,0,8.79669-6.14294,14.528-5.72769,5.73635.40661,8.18941,3.47559,13.10222,3.47559s5.73357-2.25159,9.00989-5.93339c3.27633-3.69158,14.41794,1.22514,14.41794,1.22514l-14.41794-16.70881Z"/><path class="cls-7" d="M402.79059,171.93067H267.421a1.692,1.692,0,0,0,0,3.38392H402.79059a1.692,1.692,0,0,0,0-3.38392Z"/><path class="cls-8" d="M391.03613,202.84674a13.44849,13.44849,0,0,0-13.44753,13.4464V371.21509a13.44628,13.44628,0,0,0,26.89255,0V216.29314A13.44634,13.44634,0,0,0,391.03613,202.84674Z"/><path class="cls-6" d="M393.87128,151.46036H350.87971a7.6089,7.6089,0,0,0,0,15.21779h42.99157a7.6089,7.6089,0,1,0,0-15.21779Z"/><g class="cls-9"><rect class="cls-10" x="242.14791" y="140.7903" width="92.89781" height="284.68284"/></g><rect class="cls-4" x="334.64385" y="387.72073" width="170.31419" height="27.41928"/><path class="cls-4" d="M419.80094,397.67762c-47.03458,0-85.15709,7.824-85.15709,17.47827,0,9.65589,38.12251,17.45264,85.15709,17.45264,47.0318,0,85.1571-7.79675,85.1571-17.45264C504.958,405.50166,466.83274,397.67762,419.80094,397.67762Z"/><path class="cls-11" d="M419.80094,370.26084c-47.03458,0-85.15709,7.82236-85.15709,17.47828,0,9.65423,38.12251,17.45236,85.15709,17.45236,47.0318,0,85.1571-7.79813,85.1571-17.45236C504.958,378.0832,466.83274,370.26084,419.80094,370.26084Z"/><path class="cls-6" d="M419.80094,370.26084c-47.03458,0-85.15709,7.82236-85.15709,17.47828,0,9.65423,38.12251,17.45236,85.15709,17.45236,47.0318,0,85.1571-7.79813,85.1571-17.45236C504.958,378.0832,466.83274,370.26084,419.80094,370.26084Zm0,29.42365c-47.95343,0-74.51768-7.53866-79.22733-11.94537,4.92536-4.62771,33.36884-11.9738,79.22733-11.9738,45.8532,0,74.29947,7.34609,79.227,11.9738C494.31835,392.14583,467.74685,399.68449,419.80094,399.68449Z"/><g class="cls-12"><rect class="cls-10" x="331.35052" y="365.76189" width="88.45042" height="74.62665"/></g><path class="cls-6" d="M197.1595,422.50226A10.436,10.436,0,1,0,207.603,432.9357,10.43562,10.43562,0,0,0,197.1595,422.50226Z"/><path class="cls-13" d="M197.53211,423.59864a8.972,8.972,0,1,0,8.96809,8.97338A8.97426,8.97426,0,0,0,197.53211,423.59864Z"/><path class="cls-6" d="M200.27139,425.68884a3.69088,3.69088,0,1,0,3.6927,3.69019A3.6903,3.6903,0,0,0,200.27139,425.68884Z"/><path class="cls-14" d="M184.73868,240.95086H146.35391c-11.38937,0-20.62194,8.117-20.62194,18.13126V404.71129c0,10.02322,9.23257,18.14491,20.62194,18.14491h38.38477c11.38185,0,20.62473-8.12169,20.62473-18.14491V259.08212C205.36341,249.06782,196.12053,240.95086,184.73868,240.95086Z"/><rect class="cls-15" x="134.61171" y="193.68469" width="61.8714" height="47.26617"/><rect class="cls-16" x="125.73197" y="283.07094" width="79.63143" height="94.00174"/><rect class="cls-17" x="125.73197" y="283.07094" width="79.63143" height="48.82827"/><path class="cls-18" d="M191.41339,198.61a1.313,1.313,0,0,0-1.31069,1.31822v34.37355a1.31571,1.31571,0,1,0,2.63142,0V199.92824A1.32156,1.32156,0,0,0,191.41339,198.61Z"/><path class="cls-18" d="M184.001,198.61a1.31342,1.31342,0,0,0-1.311,1.31822v34.37355a1.31474,1.31474,0,1,0,2.62948,0V199.92824A1.31965,1.31965,0,0,0,184.001,198.61Z"/><path class="cls-18" d="M176.59608,198.61a1.31639,1.31639,0,0,0-1.31822,1.31822v34.37355a1.31586,1.31586,0,1,0,2.63171,0V199.92824A1.3186,1.3186,0,0,0,176.59608,198.61Z"/><path class="cls-18" d="M169.18144,198.61a1.317,1.317,0,0,0-1.31349,1.31822v34.37355a1.316,1.316,0,1,0,2.632,0V199.92824A1.31823,1.31823,0,0,0,169.18144,198.61Z"/><path class="cls-18" d="M161.77153,198.61a1.3186,1.3186,0,0,0-1.31348,1.31822v34.37355a1.31585,1.31585,0,1,0,2.6317,0V199.92824A1.31942,1.31942,0,0,0,161.77153,198.61Z"/><path class="cls-18" d="M154.36413,198.61a1.31567,1.31567,0,0,0-1.31571,1.31822v34.37355a1.31571,1.31571,0,1,0,2.63142,0V199.92824A1.31889,1.31889,0,0,0,154.36413,198.61Z"/><path class="cls-18" d="M146.9492,198.61a1.3129,1.3129,0,0,0-1.30846,1.31822v34.37355a1.31474,1.31474,0,1,0,2.62947,0V199.92824A1.32037,1.32037,0,0,0,146.9492,198.61Z"/><path class="cls-18" d="M139.54208,198.61a1.31942,1.31942,0,0,0-1.31822,1.31822v34.37355a1.317,1.317,0,1,0,2.63393,0V199.92824A1.31745,1.31745,0,0,0,139.54208,198.61Z"/><path class="cls-19" d="M191.4159,255.02434a8.80441,8.80441,0,0,0-8.80421,8.8031V404.03267a8.803,8.803,0,0,0,17.60592,0V263.82744A8.80548,8.80548,0,0,0,191.4159,255.02434Z"/><g class="cls-20"><rect class="cls-21" x="112.98257" y="188.23147" width="52.56749" height="239.05763"/></g><path class="cls-22" d="M266.86721,310.54681h-28.2771c-8.39481,0-15.19717,5.08449-15.19717,11.3551V413.093c0,6.27507,6.80236,11.36205,15.19717,11.36205h28.2771c8.39007,0,15.19215-5.087,15.19215-11.36205V321.90191C282.05936,315.6313,275.25728,310.54681,266.86721,310.54681Z"/><rect class="cls-23" x="223.39294" y="325.94994" width="58.66642" height="80.23787"/><path class="cls-14" d="M252.731,235.68743c-5.05746,0-9.16206,2.67576-9.16206,5.9741v35.92084c0,3.298,4.1046,5.97407,9.16206,5.97407,5.05522,0,9.152-2.676,9.152-5.97407V241.66153C261.88305,238.36319,257.78625,235.68743,252.731,235.68743Z"/><path class="cls-14" d="M261.69688,265.09159H243.76015a4.331,4.331,0,1,0,0,8.66208h17.93673a4.331,4.331,0,0,0,0-8.66208Z"/><rect class="cls-22" x="239.42563" y="302.21332" width="26.59853" height="8.3335"/><rect class="cls-24" x="233.61097" y="269.42138" width="38.23037" height="32.79194"/><path class="cls-19" d="M271.84133,316.38238a5.74446,5.74446,0,0,0-5.7436,5.74249v91.49457a5.7436,5.7436,0,1,0,11.4872,0V322.12487A5.74445,5.74445,0,0,0,271.84133,316.38238Z"/><path class="cls-25" d="M264.6371,272.3446a3.53894,3.53894,0,0,0-3.538,3.54191v19.65683a3.54192,3.54192,0,1,0,7.08384,0V275.88651A3.54381,3.54381,0,0,0,264.6371,272.3446Z"/><path class="cls-8" d="M257.09732,238.28739a1.71646,1.71646,0,0,0-1.7148,1.714v23.37516a1.714,1.714,0,1,0,3.42793,0V240.00135A1.71468,1.71468,0,0,0,257.09732,238.28739Z"/><path class="cls-8" d="M262.12328,266.40145c-1.0097,0-1.828.43616-1.828.97153s.81825.97152,1.828.97152c1.01445,0,1.83269-.43615,1.83269-.97152S263.13773,266.40145,262.12328,266.40145Z"/><g class="cls-26"><rect class="cls-21" x="218.12451" y="231.68987" width="34.59927" height="201.15164"/></g><path class="cls-6" d="M169.544,411.06272a10.43666,10.43666,0,1,0,10.43847,10.43485A10.43693,10.43693,0,0,0,169.544,411.06272Z"/><path class="cls-13" d="M169.91161,412.15938a8.97255,8.97255,0,1,0,8.97311,8.9731A8.97592,8.97592,0,0,0,169.91161,412.15938Z"/><path class="cls-6" d="M172.6534,414.24929a3.69089,3.69089,0,1,0,3.688,3.69159A3.68846,3.68846,0,0,0,172.6534,414.24929Z"/><path class="cls-6" d="M142.07931,425.529a10.43665,10.43665,0,1,0,10.44349,10.43485A10.43824,10.43824,0,0,0,142.07931,425.529Z"/><path class="cls-13" d="M142.45192,426.62678a8.972,8.972,0,1,0,8.96809,8.9731A8.974,8.974,0,0,0,142.45192,426.62678Z"/><path class="cls-6" d="M145.19148,428.71559a3.69088,3.69088,0,1,0,3.69492,3.69158A3.69083,3.69083,0,0,0,145.19148,428.71559Z"/><path class="cls-6" d="M119.167,411.09116A10.4361,10.4361,0,1,0,130.34,420.739,10.43561,10.43561,0,0,0,119.167,411.09116Z"/><path class="cls-13" d="M119.61817,412.15759a8.97269,8.97269,0,1,0,9.59835,8.29848A8.97856,8.97856,0,0,0,119.61817,412.15759Z"/><path class="cls-6" d="M122.50226,414.04368a3.69074,3.69074,0,1,0,3.94834,3.41254A3.69,3.69,0,0,0,122.50226,414.04368Z"/><path class="cls-6" d="M250.49367,411.1951a10.43666,10.43666,0,1,0,10.441,10.43485A10.43781,10.43781,0,0,0,250.49367,411.1951Z"/><path class="cls-13" d="M250.86629,412.29148a8.97269,8.97269,0,1,0,8.96836,8.97338A8.97473,8.97473,0,0,0,250.86629,412.29148Z"/><path class="cls-6" d="M253.60557,414.38168a3.69088,3.69088,0,1,0,3.69269,3.69018A3.69012,3.69012,0,0,0,253.60557,414.38168Z"/><path class="cls-27" d="M91.63463,298.523H68.4841c-6.8684,0-12.43587,5.93479-12.43587,13.24435V418.17847c0,7.32656,5.56747,13.26136,12.43587,13.26136H91.63463c6.86618,0,12.43838-5.9348,12.43838-13.26136V311.76734C104.073,304.45778,98.50081,298.523,91.63463,298.523Z"/><rect class="cls-11" x="56.04823" y="316.49623" width="48.02478" height="93.63048"/><rect class="cls-27" x="69.17248" y="281.0397" width="21.77378" height="17.4858"/><path class="cls-27" d="M90.70379,274.38951H69.41522a3.3251,3.3251,0,1,0,0,6.65019H90.70379a3.3251,3.3251,0,1,0,0-6.65019Z"/><g class="cls-28"><rect class="cls-21" x="52.97814" y="271.02038" width="27.08123" height="165.51982"/></g><path class="cls-6" d="M362.06564,425.92293c0-.47545-.73743-.86005-1.649-.86144-.91161,0-1.6443.3846-1.64653.85893v35.28764c.00223.47769.73743.85977,1.649.86117.90909.00362,1.64652-.381,1.64652-.85894Z"/><rect class="cls-29" x="362.06327" y="435.96496" width="26.27246" height="15.20372"/><rect class="cls-6" x="244.86044" y="433.23892" width="115.55868" height="20.65649"/><rect class="cls-6" x="235.59805" y="440.11583" width="9.26364" height="7.21509"/><rect class="cls-30" x="223.0121" y="439.01986" width="15.36857" height="9.40954"/><polygon class="cls-27" points="153.695 442.704 158.297 444.428 223.013 444.43 223.013 442.704 153.695 442.704"/><rect class="cls-30" x="237.12474" y="437.76351" width="2.0399" height="11.60356"/><rect class="cls-31" x="280.6638" y="435.96622" width="78.1074" height="15.20372"/><rect class="cls-6" x="280.6638" y="442.63062" width="107.04249" height="1.86641" transform="translate(-0.59526 0.4491) rotate(-0.07693)"/><rect class="cls-32" x="249.69633" y="435.96622" width="28.10152" height="15.20386"/><rect class="cls-33" x="277.79785" y="435.96566" width="2.86595" height="15.20497"/><path class="cls-6" d="M389.9849,433.44655c0-.27312-.73771-.49245-1.64681-.49134-.91132-.00251-1.64624.21571-1.64624.49273l-.00279,20.23735c-.0025.277.73771.49635,1.649.495.9091.0025,1.64681-.21573,1.64681-.49385Z"/></svg>