<svg id="Layer_1" data-name="Layer 1" xmlns="http://www.w3.org/2000/svg" xmlns:xlink="http://www.w3.org/1999/xlink" viewBox="0 0 558 558"><defs><style>.cls-1,.cls-21{fill:none;}.cls-2{fill:url(#linear-gradient);}.cls-3{clip-path:url(#clip-path);}.cls-4{fill:#779dcc;}.cls-5{fill:#90b0d6;}.cls-6{fill:#677c98;}.cls-7{fill:#fac1a2;}.cls-8{fill:#fdcba8;}.cls-9{fill:#697d97;}.cls-10{fill:#ae5c49;}.cls-11{fill:#b86955;}.cls-12{fill:#feb99e;}.cls-13{fill:#91b0d6;}.cls-14{fill:#af5d4a;}.cls-15{fill:#fbb99e;}.cls-16{fill:#fbb89e;}.cls-17{fill:#f4c2a3;}.cls-18{fill:#fdb99e;}.cls-19{fill:#fcb79d;}.cls-20{fill:#d09076;}.cls-21{stroke:#ae5c49;stroke-miterlimit:10;stroke-width:3px;}</style><linearGradient id="linear-gradient" y1="279" x2="558" y2="279" gradientUnits="userSpaceOnUse"><stop offset="0" stop-color="#ebebeb"/><stop offset="1" stop-color="#fff"/></linearGradient><clipPath id="clip-path"><circle class="cls-1" cx="279" cy="279" r="279"/></clipPath></defs><title>Icons</title><circle class="cls-2" cx="279" cy="279" r="279"/><g class="cls-3"><path class="cls-4" d="M47.592,367.8983c.04353,41.71292,13.37208,78.3503,41.58307,109.38066,3.91121,4.30209,6.2199,10.06787,11.81679,12.82632-6.66539,8.2321-13.19185,16.4562-18.1826,25.97744-4.71895,9.00276-8.0634-.2826-9.7718-2.43876-16.61412-20.96885-29.24366-44.26961-33.67132-70.79551C35.115,417.38015,35.92046,391.89567,47.592,367.8983Z"/><circle class="cls-1" cx="279" cy="279" r="279"/><path class="cls-5" d="M331.37949,729.45562c-.80171,2.67349-2.23219,4.519-5.333,4.70528-45.30477,2.72155-90.64318,2.45764-135.98737,1.51669-.9746-.02024-1.93-.96538-2.89432-1.47905-1.70581-7.57936-4.72863-14.73435-7.25293-22.03992-11.25985-32.58694-10.35455-66.00575-6.83309-99.54974,1.52167-14.495,9.60124-25.11116,21.42673-33.35111,6.16088-4.29282,15.7618-7.83007,14.3631-16.50115-1.34973-8.36736-11.40425-9.31582-18.47233-12.13534-27.52771-10.98107-53.76277-24.311-77.38289-42.40431-5.30965-4.06723-10.797-8.1283-9.63593-16.12133,2.42909-8.70825,10.62828-12.07739,16.645-17.17792,36.93131-31.30767,79.54772-47.02623,128.25732-45.23933,7.2224,5.20215,7.62466,13.69591,7.89676,20.90981.87165,23.10659,8.07123,44.60265,14.63493,66.32815a32.30854,32.30854,0,0,1,1.55075,7.51484c-.117,9.54947.44522,19.07517-1.67712,28.61192-3.01982,13.56964,1.5061,17.87655,15.219,21.68461,18.999,5.276,35.34938.35781,51.23578-9.26857,14.501-7.22689,16.9027-18.97254,15.46734-34.2408A234.97288,234.97288,0,0,0,328.017,446.85522c-1.16958-2.32792-2.02678-4.76532-1.409-7.45756a4.51985,4.51985,0,0,1,5.93761-1.24229c12.63466,7.16149,25.66342,13.853,34.57482,25.99442,10.32992,31.90116,13.02449,64.68789,11.60732,97.98843-2.3894,56.1447-19.82723,108.06056-44.12087,158.08249C333.18285,723.15282,331.05469,725.89109,331.37949,729.45562Z"/><path class="cls-4" d="M96.187,489.5166c6.33315,5.23882,13.059,12.46391,17.18261,15.53908a311.441,311.441,0,0,0,84.45766,44.95159,35.71082,35.71082,0,0,1,4.08613,1.66558c15.1451,7.46826,17.18855,15.01275,2.8497,23.33733-27.82819,16.15592-30.93114,40.67427-31.05949,68.93427-.13424,29.556,3.75957,57.80662,15.58966,84.88194,1.17784,2.69562,2.05355,4.94467-2.12639,5.37046-8.69772-1.7754-18.38428,3.71084-26.32626-3.58979A562.71308,562.71308,0,0,1,128.24431,606.015c-1.67961-11.61721-2.86957-23.29372-4.83714-34.88493-1.28176-7.55093,1.95239-9.82489,9.61442-8.04042.3628.08449.72835.152,1.07528.267a60.67182,60.67182,0,0,0,10.10268,2.56076C118.99338,561.347,98.8261,546.684,84.05574,524.20513,77.03085,516.49215,65.065,519.94085,96.187,489.5166Z"/><path class="cls-6" d="M85.05661,523.05105c-.40251,2.18866-1.579,3.3124-3.9128,2.84369-28.19147-24.40725-42.919-56.19372-46.62494-92.38243-6.18161-60.36427,21.49441-106.67311,64.6354-145.653a6.00663,6.00663,0,0,1,5.20659-1.296c24.94847,11.48058,52.098,13.08042,78.63807,17.4383,2.40893,1.168,3.69108,2.94024,3.03725,5.72848-2.55891,3.58335-6.40607,3.45749-10.01183,2.95229-22.56415-3.16116-45.61966-4.18132-66.762-13.94967-6.6417-3.06867-11.04263-.55788-15.62187,3.98429-19.06722,18.91276-34.55826,40.16461-43.80914,65.60183C29.98039,419.91,41.58854,466.2941,73.095,509.42433c2.0242,2.088,4.33712,3.40963,5.37558,4.63689"/><path class="cls-6" d="M331.37949,729.45562c-3.86936-4.46343.88157-7.3518,2.29384-10.49921,27.01969-60.21634,46.60844-122.00855,42.58514-189.25862-1.35211-22.60037-5.71388-44.57306-11.19223-66.41644a3.16866,3.16866,0,0,1,4.461-.1268c16.09642,52.46893,16.09117,105.36108,3.65814,158.43854C364.31328,659.4685,351.19484,695.781,331.37949,729.45562Z"/><path class="cls-6" d="M81.14381,525.89474q1.95762-1.41934,3.914-2.84112c17.40788,22.66063,39.23441,38.54784,70.39855,43.51973-5.69871,3.64246-9.0658,1.08434-12.19313.93241a34.00931,34.00931,0,0,1-10.72988-2.48614c-6.91258-2.7569-7.437.57291-6.678,6.10579,6.82162,49.729,14.54333,99.2494,32.11088,146.63312,1.51671,4.091,3.5118,8.21157,2.87392,12.84684-15.65445-30.86835-24.46732-63.94654-30.61769-97.73576-3.89859-21.41819-6.63305-43.06361-9.30982-64.67889-.7278-5.87715-3.26113-8.92145-8.09078-11.89344C100.14177,548.49477,89.179,538.65668,81.14381,525.89474Z"/><path class="cls-7" d="M103.615,288.04356q-2.23063-.09089-4.461-.183c-2.18-16.21016-3.28318-32.86879,1.997-48.22412,7.10986-20.6764-2.06626-39.86393-2.2357-59.75361-.01395-1.63718-1.26978-3.43028-2.33253-4.86692C82.22712,155.6099,80.87,133.519,83.15018,110.65774c3.87626-.983,5.22652,1.67712,6.48937,4.47142a20.73252,20.73252,0,0,1,.799,7.64462c-2.08636,27.34119,9.84227,48.32063,29.522,65.94668,3.08876,2.76637,9.58234,5.791,6.88629,9.86287-3.35,5.05956-8.29746-.265-12.31233-2.24394-1.58959-.78353-2.82838-2.34823-6.066-1.98267,1.00529,9.38143,3.27382,18.486,5.64921,27.58787,1.18075,4.52433,1.51582,7.83487-2.44693,12.6155-5.8117,7.01132-4.98721,17.24995-5.68547,26.41561C105.29746,270.00358,108.27707,279.3693,103.615,288.04356Z"/><path class="cls-8" d="M458.41067,249.70865c2.83851,8.94244.61268,18.27912,2.12742,27.3246-3.38244,54.56572-26.39283,99.36491-67.30224,135.25782-3.6735.21225-4.899-1.701-4.43462-5.09315,8.144-11.373,19.3383-20.01138,27.70005-31.27714,11.49547-15.48783,21.21366-31.751,26.33859-50.50133,7.32009-20.66,8.05447-42.4297,10.86008-63.84972C455.401,257.67,454.4216,252.69506,458.41067,249.70865Z"/><path class="cls-8" d="M458.41067,249.70865c-1.05316,3.8648,1.17547,8.39418-2.37985,11.75228-5.21759.4335-4.74234-3.81788-4.9445-6.69542-3.31129-47.13071-25.54721-85.92363-53.32224-122.40874-6.38382-8.38571-15.25689-15.04772-18.448-25.74034.277-1.91594,1.2335-3.1687,3.28072-3.35,24.91029,24.8397,44.42005,53.43835,59.34692,85.231,1.70884,3.63972,3.49889,7.24128,5.2513,10.86055C451.142,216.09509,458.50359,232.07164,458.41067,249.70865Z"/><path class="cls-9" d="M389.38971,408.4503q1.924,1.9195,3.84706,3.83989c-2.73669,19.36461-11.74419,35.80509-23.70923,50.86591q-2.23122.06185-4.46153.12607c-12.234-8.63392-23.263-19.12927-37.68225-24.38572-3.21759-1.13492-4.21869-3.28742-2.97578-6.466,5.38292-2.38256,9.27588,1.25908,13.10506,3.74719,7.42642,4.82552,15.46833,8.7677,22.14669,14.69333,5.206,4.61922,9.13753,3.53467,12.488-2.20423,1.86574-3.19575,3.64283-6.43022,5.29917-9.735,10.23886-20.42857,10.268-20.48842-9.22578-30.2802-24.20756-12.15931-42.10276-32.17212-62.06617-49.63371a6.3291,6.3291,0,0,1,.3291-6.24756c9.74619-.7685,14.78947,6.76035,20.40078,12.40081,13.79389,13.86551,28.26507,26.564,46.138,35.06875C378.51609,402.85378,385.36963,402.89935,389.38971,408.4503Z"/><path class="cls-8" d="M76.73,12.89662q-2.2401-.92973-4.48039-1.85738a276.27749,276.27749,0,0,1,13.402-91.22562c1.22249-2.33906,1.05749-5.48793,3.98679-6.8308l2.67788-19.55963c3.96992,1.16444.01064,5.23751,3.32362,6.64,5.95593-9.36345,11.01691-19.87827,19.93239-27.69687-4.94933,10.31552-6.63011,22.362-16.597,29.91486-5.8886,21.20713-13.63395,41.89234-16.05415,64.045C81.56121-21.226,82.89367-8.588,79.851,3.70619,79.06638,6.87631,79.4152,10.38549,76.73,12.89662Z"/><path class="cls-10" d="M307.03413,352.68149q.3627,3.23435.72544,6.46875c8.00295,10.34979,9.9013,23.08371,12.13213,35.20761,2.305,12.52708,2.9768,25.42774,4.96387,38.09233q1.263,3.22438,2.52714,6.44749c15.26789,29.82158,25.83793,60.93846,28.54205,94.67683,1.423,17.75475-1.565,25.32328-17.7731,33.99125-2.85354.33161-2.6983-1.33911-2.17955-3.2623,1.86774-3.31477,5.118-5.26525,7.78514-7.78315,5.26911-4.97433,6.34282-10.77477,5.92479-18.01609-2.04855-35.48235-14.74458-67.53409-30.98433-98.41313-5.86307-11.14843-6.4855-23.17985-9.02026-35.02914-8.79129-41.09648-17.99479-82.10961-26.98754-123.167a39.31577,39.31577,0,0,1-2.75-17.92279c.4986-3.05324.67514-6.31391,4.43449-7.41688,3.17686,1.30824,4.32379,4.206,5.545,7.05012,4.64488,16.66649,7.76632,33.67887,11.26427,50.60912C302.1817,327.18015,309.06189,339.25734,307.03413,352.68149Z"/><path class="cls-10" d="M247.2859,430.6934q-.97831-2.42636-1.95664-4.85279c-6.68545-2.61871-7.89051-9.49193-10.87526-14.72677-16.80907-29.48029-33.913-58.82726-46.97927-90.26446-1.424-3.42607-3.04607-6.76143-2.17484-10.63415q-.9274-2.15134-1.85481-4.30263c-10.79216-16.34056-15.64881-34.99191-20.86159-53.51821.10159-3.62445-.22019-7.44653,4.06432-9.22,5.20408,1.39943,6.16505,6.09421,7.40424,10.20524,16.31517,54.12484,41.22336,104.30539,70.03016,152.68075,9.95547,16.71828,17.26066,33.99565,18.096,53.94508.68069,16.25573,5.56409,31.94606,9.96351,47.58967,1.19985,4.26628,2.7115,8.467,2.05511,13.02707-.673,2.27674-.9926,4.89281-4.3354,4.70527-7.87556-26.69265-16.43263-53.2302-17.789-81.3579A23.733,23.733,0,0,0,247.2859,430.6934Z"/><path class="cls-11" d="M269.86142,525.32745q1.02952-2.30307,2.059-4.60608a2.47866,2.47866,0,0,1,2.97791.80411c5.44064,13.57473-1.74273,26.78527-1.4279,41.4006,4.75923-2.84795,5.40305-7.3036,7.09568-10.93631,1.87113-4.01584,2.81722-8.37521,4.18026-12.58076,1.4664-4.5243,2.745-11.309,7.56041-11.12426,5.91239.22694,4.04678,7.45492,5.06284,11.75884,1.35333,5.73261,2.44153,11.588.70531,17.4815-1.68718,5.72705-10.51036,4.28415-11.1531,11.06786,11.658.70757,23.07687-10.61526,23.9473-23.86047.38605-5.87452-.45-11.82019.82314-17.63783.65436-2.9902,2.0132-6.1305,5.56386-5.77621,3.04395.30379,3.40187,3.602,3.5886,6.102.57639,7.71863.86728,15.455-.37674,23.1529-4.105,11.2074-4.11561,11.22148-16.75294,22.47681,12.36232,1.70133,20.8373-3.19249,25.96629-15.03678,3.15967-9.12937,2.55978-18.93131,5.16674-28.11727.73269-2.58175,1.16722-6.647,4.90317-6.1106,3.467.49762,3.51423,4.41543,3.55644,7.21579.18412,12.2174-1.79668,24.04693-7.18786,35.15047q1.01626.70732,2.03216,1.41433c-21.747,16.91421-44.73592,14.33653-68.08652,4.14164-4.39786-1.92022-4.86346-6.01785-3.86568-10.32813A152.61745,152.61745,0,0,0,269.86142,525.32745Z"/><path class="cls-8" d="M76.73,12.89662C79.00946-21.6436,78.949-56.59427,94.53923-88.80195c1.44635-2.988,2.955-5.94582,4.43541-8.91727,2.17059,7.0347-2.81622,13.74143-1.11365,23.30759,6.09078-12.28091,8.97846-23.69589,16.68983-32.44471,1.46624,7.87728-2.94594,14.80455-3.5983,22.3293-.3297,3.80292-.01112,7.61591.01176,11.35459-1.46622-18.18367,6.02582-34.00467,13.12338-49.918,4.83054-7.15408,9.34612-14.53059,14.60824-21.39753l-.04192.06a43.29991,43.29991,0,0,1,18.338-15.7723c42.99868-20.04845,80.53581-4.67115,95.47964,39.32743,3.19,9.39225,5.4603,19.16593,10.83567,27.706,19.30607,22.94356,28.92054,50.13688,33.14989,79.20888,3.48264,23.93928-14.71154,40.97072-31.90225,49.225-1.68274.808-3.54385.92138-4.99731-.75655A49.37,49.37,0,0,1,264.06693-.4646c9.26088-6.55947,12.4044-16.52708,14.22722-25.69358-1.69032,4.97646-2.23277,11.9717-6.49146,17.16759-2.33341,2.84694-3.70434,8.9333-9.89716,5.63708-4.10911-9.9427-1.36488-20.344-2.103-30.50417-.31881-4.388.18548-8.82064-.54508-13.18573-1.62821-3.51051-1.497-8.08885-6.77558-10.20955-3.06664,7.65326-3.93166,15.72557-3.92421,23.51291.03968,41.44962-8.06449,82.02052-12.60169,122.97048-1.469,13.25791-2.14938,26.39818,3.98641,38.86033,1.67286,7.83582,3.33236,15.676,2.93675,23.76575-14.75916,13.63955-16.91339,29.84386-11.20291,48.55482,2.52029,8.258-4.42076,12.23236-11.23722,14.9463-7.00687-.68032-5.03,9.26362-11.23573,9.57005-5.72961-.20849-9.52445,3.044-13.06322,7.00638-1.94874,2.182-4.289,4.43233-7.5783,2.44841-2.78705-1.681-3.44992-4.57542-3.49452-7.6364-.04939-3.38915,1.20692-6.44831,2.378-9.53766,3.64276-9.60986,5.88885-19.65533,9.13379-29.39369a15.96077,15.96077,0,0,0-1.45585-13.769,18.2623,18.2623,0,0,0-5.63512-7.4626c-7.67064-6.86207-16.65123-6.7786-26.08125-5.32611-12.63618,1.94627-17.95541-1.46914-21.52876-13.19332-3.42547-11.239.23928-16.81414,11.903-18.108,12.6931-1.408,14.33632-3.66148,8.893-15.126-9.96257-20.98286-20.67771-41.57626-29.73384-63.02489-13.615-32.246-21.34887-65.87139-26.25073-100.316-.36924-2.59455-.6405-5.22332-1.93452-7.45224-.77841,24.46486-2.206,48.8105.84621,73.11087.50873,4.05024.91959,8.16121-2.41554,11.43753A58.41781,58.41781,0,0,1,76.73,12.89662Z"/><path class="cls-5" d="M185.29989,310.21523c17.57548,39.80348,39.1222,77.54523,60.02837,115.62274-14.18778,3.5212-28.9382,2.88086-43.20793,6.41844-36.60091,9.07378-68.48941,26.26463-95.2813,52.85207-1.8148,1.801-3.89164,3.33793-5.84658,4.99775-4.40652,1.07053-6.81753-1.96232-9.22742-4.68205C66.28442,456.667,48.28056,424.468,45.60977,385.17987A49.12006,49.12006,0,0,1,47.592,367.8983c9.00592-29.41143,28.07448-51.95324,49.60877-72.844,3.39743-3.29589,6.46061-2.02929,9.98222-.36635C131.916,306.367,158.7095,307.80309,185.29989,310.21523Z"/><path class="cls-7" d="M165.01436,252.76994q9.21263,26.57109,18.428,53.14239c-23.512-1.53485-46.85083-4.14266-69.16488-12.31057-3.73381-1.36673-7.12026-3.68233-10.66482-5.55881-1.01246-17.29754-1.73627-34.617,3.17381-51.48212.47313-1.62512-2.58888-9.82472,5.34138-5.27222.86119.49441,1.44162-.49542.28458-4.59444-3.588-12.71126-7.30621-25.39839-7.16908-39.811,7.79537,3.34219,12.84,10.14773,21.3444,11.75-28.41668-21.07819-43.10963-48.24263-38.9833-83.96,12.74611,5.83112,25.326,12.14621,39.57309,13.61735,4.4451,3.08058,5.56519,8.02782,5.17173,12.60869-1.59112,18.52437,5.22166,34.26869,15.06573,49.17549,1.41015,2.49244,3.44392,4.71519,3.48633,7.81138-.96814,24.607.06027,49.23751-.52452,74.675,4.22341-7.276,3.5882-16.49709,11.52891-20.80588A3.19307,3.19307,0,0,1,165.01436,252.76994Z"/><path class="cls-8" d="M298.75894,314.78124q-5.62266-25.52121-11.24531-51.04242c10.35142-20.40122,10.38114-20.43176,26.633-4.61,5.33356,5.19233,11.16505,9.48528,19.42361,11.92654-.763-3.62858-3.51206-5.54655-4.61959-8.21618.49813-2.88357.461-5.81385,1.41606-8.67264,4.70913-14.09489,18.56746-20.40139,32.329-14.38635,6.67938,2.91951,6.98614,9.84073,8.45024,13.54148,1.10973,3.44056,2.6293,1.38508,1.3797,2.17627-7.53268-17.451-12.60149-35.84207-19.70872-53.28152-3.65082-.072-3.96787,2.61539-4.6184,4.44116-5.55049,15.57835-10.972,31.2009-17.37582,46.46111-1.57228,3.74672-2.7031,7.597-.96779,11.66636-2.1002,3.11573-4.54826,2.52759-6.08974-.11672-11.06458-18.98106-24.79681-36.672-28.20576-59.3654-.87409-5.81866-2.06334-11.56332-2.532-17.46853-1.6407-20.67075-13.79246-30.89668-34.66619-29.46959-3.27994.22423-6.59021,1.18475-9.76016-.58628-5.94-7.48627-8.97114-15.37256-3.35619-24.43988,47.3602,3.77963,93.64072,2.07183,134.63357-26.49079,29.57653,32.14943,53.68263,67.78628,67.45227,109.54047,3.64314,11.04724,4.35338,23.06221,6.40155,34.63439.62152,3.51179-.93586,7.50144,2.2981,10.43829-1.80938,22.52657-2.181,45.29843-11.3469,66.5712-5.992,6.52271-9.3124,14.96069-15.86209,21.18388-14.38006,13.66328-30.7131,19.966-50.54084,15.2252C346.21432,356.774,321.85125,336.8022,298.75894,314.78124Z"/><path class="cls-12" d="M298.75894,314.78124c12.82041,6.59671,23.00585,16.83384,34.57885,25.15767,14.12766,10.16124,28.98043,18.01243,46.23827,21.78522,23.66579,5.17365,40.23146-4.81217,54.11214-22.44614,3.2322-4.10609,4.15135-10.62962,10.99565-11.24572-9.72388,32.79337-30.385,58.06566-55.29563,80.41641-21.09969-4.23717-37.77866-16.26737-53.08707-30.50417-9.45063-8.78909-18.09188-18.47945-29.26513-25.26336A202.85955,202.85955,0,0,1,298.75894,314.78124Z"/><path class="cls-13" d="M324.85557,432.45018a40.468,40.468,0,0,1-6.78676-25.06851c1.1096-17.05253-7.79892-31.95472-10.31106-48.2294,9.80941,4.07678,16.36513,12.39526,23.69463,19.347,15.19968,14.41635,31.42148,26.783,51.71123,32.8218,5.98666,1.78182,5.985,4.66214,4.35639,9.80227-3.48494,10.99941-8.66082,21.06539-14.34641,31.04343-4.1824,7.34009-8.28351,6.8158-13.86663,2.08669A160.32077,160.32077,0,0,0,324.85557,432.45018Z"/><path class="cls-14" d="M118.50725,99.5287c-4.68567-21.43123-10.91551-42.53531-13.64263-64.38492q-.84208-3.28231-1.67939-6.55879c-3.18969-31.66356-4.51647-63.32631.03946-94.98663,2.76688-.98382,3.087.96479,3.1156,2.81343.15393,9.96154,2.3829,19.84755,2.06588,29.74512-1.64358,51.31022,9.63962,100.496,23.89163,149.20979,3.13346,10.71021,5.4557,21.40878,5.20811,32.65321-.26261,11.9257,4.65221,22.2453,10.94462,32.01847a13.87532,13.87532,0,0,1,1.5278,5.58965c-.4464,2.95394.31418,6.74085-4.53,6.74474-15.7333-18.6107-15.21417-41.854-18.26808-64.08093-.88243-1.27033-.14344-3.333-1.75218-4.38493C120.146,116.62548,116.8019,108.79382,118.50725,99.5287Z"/><path class="cls-14" d="M245.24487,133.33864c-1.58116,8.54844.30612,16.41649,4.66861,23.799,2.10463,1.6666,3.93493,3.47479,3.3754,6.52346a4.40165,4.40165,0,0,1-4.41361,3.70887,6.312,6.312,0,0,1-2.86132-1.07743c-4.01241-3.789-4.19051-8.97826-5.05026-13.92066-1.18833-7.93613-2.87954-15.82743-2.13343-23.936-2.429-6.55457-1.04267-13.11224-.115-19.70154,4.37752-31.09359,12.16948-61.63513,15.12417-92.95208,1.62878-17.2639,3.80539-34.47966,3.71981-51.89694-.02163-4.40684-2.35013-10.80643,5.17287-12.52872,1.59676,15.30081-1.26951,30.81612,2.21215,46.02637,2.04773-.7069,2.81055-.053,2.189,2.067-7.67235,10.72419-5.20492,23.286-6.37914,35.18476-1.44192,1.45657-2.19831,3.11494-1.50624,5.19165q-.48183,4.3119-.97222,8.62647c-5.89442,27.06807-11.082,54.24646-12.92491,81.95077Q245.29882,131.86964,245.24487,133.33864Z"/><path class="cls-8" d="M336.11987,566.15176c-.07925-13.71271,6.46662-26.81066,3.65905-41.59261-5.67659,11.96622-1.98362,25.34995-8.28155,36.371-7.34944,1.42158-10.2347-3.8931-13.35615-8.85131v-30.583c-6.21479,6.73232-3.51582,13.11353-3.73714,18.76333-.60605,15.46867-9.06322,27.8535-23.23326,32.86405-3.198,1.13085-7.11627,2.35467-9.36965-.30792-2.74193-3.23975.64471-6.01378,2.79233-8.4679,12.04273-13.76145,12.04957-13.75549,8.34719-35.63238-6.40382,7.75017-5.90789,17.64439-9.99777,25.68542-.9988,1.96375-1.61341,4.12025-2.56989,6.1087-1.74524,3.62824-3.75566,8.91786-7.999,7.72113-4.84572-1.36659-2.84738-6.94389-2.02322-10.6749,2.63573-11.932,4.25893-23.91119,3.35674-36.15032a70.22478,70.22478,0,0,0-4.19881-28.03826,90.17086,90.17086,0,0,1-4.08094-14.89759c-3.02615-15.88125-1.60823-30.26423,16.78117-39.756-18.34154-6.38988-25.40181-20.20969-31.93254-34.23708-15.37891-33.03263-30.57878-66.15172-44.2965-99.92319-1.52411-3.75214-2.94736-7.55377-3.24449-11.65987.29586-8.92294,4.86943-9.77621,11.67367-6.05961,3.54488,1.93619,6.61028,4.66492,10.34055,6.33111,10.74536,4.79944,20.30387,3.39364,26.20326-6.33626,6.38574-10.53191,14.48047-13.72306,25.80394-11.02053,4.438-.64237,5.45671,3.85491,8.34123,5.567,7.87326,26.08291,11.14173,53.19533,17.7689,79.55109,4.74884,18.88567,11.18258,37.36485,11.1424,57.25186-.01337,6.62887,3.68065,12.64028,6.45433,18.68229,6.91749,15.06861,13.47188,30.30776,20.59252,45.2784,9.272,19.49392,8.43307,40.9587,11.99692,61.50542C355.02111,554.98945,344.333,560.49451,336.11987,566.15176Z"/><path class="cls-8" d="M252.18774,163.758q-1.13833-3.3098-2.27545-6.62c28.81889-9.47591,46.22981,11.62872,46.86287,34.2473.59092,21.11268,7.32015,41.7854,22.11361,58.41129,3.26975,3.67489,5.66992,7.542,6.24682,12.54123.34255,2.96833,1.92373,3.79039,4.26774,1.36125l.00392.00182c6.11243.2237,6.94332,5.62706,9.57391,9.47426-11.4055,1.59354-18.19035-2.87619-39.57693-25.84-7.92756,2.61005-1.77973,15.32825-11.89114,16.40366q-1.387-3.09765-2.775-6.19536c-3.02385-3.34125-3.967-7.32006-3.61433-11.70888a44.33074,44.33074,0,0,0,.82626-11.04173c-.033-17.84381.01706-35.67764-.06747-53.49356,1.11644-9.52655-3.31067-13.05916-12.57721-12.22258-4.61587.41668-9.39331.47843-13.93572-1.18367A5.57322,5.57322,0,0,1,252.18774,163.758Z"/><path class="cls-8" d="M285.0981,281.37468c-4.93773,2.66536-3.66771-4.11814-6.67761-4.38713-2.83215-1.48921-3.90884-4.264-5.06285-6.96495-13.12846-30.72739-24.76645-62.07094-38.30888-92.63127-1.673-3.77526-4.6604-8.42393-.0476-12.06026,3.92761-3.09623,8.32718-1.90224,12.27465.78272l.2441-.197c4.6765,2.82019,6.9244,7.48406,9.00686,12.18043a423.59068,423.59068,0,0,1,24.7263,72.82717c1.04152,4.3312-.33084,5.63084.23088,12.512C281.47383,269.4141,282.3166,275.76408,285.0981,281.37468Z"/><path class="cls-14" d="M281.484,263.4364c-8.086-24.61306-12.57654-49.67177-22.96835-73.52036-3.51443-8.0653-7.32263-16.00265-10.99613-23.99883,1.92316.07482,3.72831-.104,4.66668-2.15913q1.01394,1.24827,2.02468,2.4966c6.92138,6.56313,9.91412,15.37544,12.84529,23.95844,6.23212,18.24875,15.35634,35.71769,15.88826,55.60474-.16615,4.02349,3.12645,7.5168,1.79509,11.72214C282.288,259.04546,282.15371,261.37286,281.484,263.4364Z"/><path class="cls-15" d="M205.16892,292.54186c8.70886,29.005,23.38147,55.50308,35.10094,83.24169,6.15029,14.557,11.93623,29.39552,20.86743,42.56436,4.9903,7.3581,9.12947,15.58268,20.84448,15.20794,5.29581-.16946,3.64053,6.5487.75794,8.09343-24.8957,13.34074-15.14295,33.283-10.04922,52.005,2.54511,9.35448,5.87793,18.28812,1.01873,27.74849a9.91052,9.91052,0,0,1-1.79-.67961c-2.674-18.98384-11.88406-36.67942-12.06554-56.03468-.286-30.50491-16.84254-54.26573-31.06462-79.11115a695.2878,695.2878,0,0,1-61.22866-142.11844c-3.375-1.22428-4.12982-3.64273-3.14526-6.86353,9.65306-17.51342,15.86344-36.539,23.97664-54.73088,1.66471-3.73274,1.90674-9.00835,7.89511-9.12652,6.697,4.00176,4.929,9.99492,3.2349,15.55035-3.39876,11.14528-7.26557,22.14733-10.87915,33.22809a22.31189,22.31189,0,0,0-1.1351,5.30133c-.1781,2.57281-.21058,5.68143,2.76537,6.47078,2.56859.68134,3.08761-2.42071,4.48327-3.96049,3.94217-4.34932,7.12292-11.177,14.85129-5.56917,3.5135,6.69958-1.72583,11.708-3.64227,17.2-2.61158,7.48417-7.48662,14.14066-8.26515,22.32333C199.24938,273.279,204.20105,282.40412,205.16892,292.54186Z"/><path class="cls-14" d="M165.49256,236.96408q1.03351,3.24931,2.06745,6.49667c-3.699,2.32217-1.8871,6.15251-2.54489,9.30858a8.888,8.888,0,0,0-1.82357-.20643c-7.4626-17.61413-13.60394-35.5617-13.8782-54.99q-1.93325-2.59779-3.86575-5.19782c2.69136-1.47787,1.86529-4.22955,2.35934-6.50223a5.32308,5.32308,0,0,1,5.37757,3.13282C160.25739,204.2116,165.942,219.81236,165.49256,236.96408Z"/><path class="cls-16" d="M318.14122,552.0788c5.69635,1.07358,7.4928,8.032,13.35669,8.85158-5.12026,12.57914-20.67877,19.1942-34.68727,14.2343C304.417,567.67536,314.58593,562.80848,318.14122,552.0788Z"/><path class="cls-17" d="M285.40913,557.56463c1.89333-5.4385,3.39812-9.76091,5.22307-15.003C292.7149,548.97005,293.16256,553.88392,285.40913,557.56463Z"/><path class="cls-18" d="M147.08281,182.18536c-7.04135-7.05675-12.04257-16.05336-11.89564-25.43509.39032-24.92037-8.39187-47.6547-14.57154-71.00248C108.481,39.90132,102.89815-6.58474,105.0688-54.00523c.18642-4.07246,2.32347-8.82391-1.84425-12.3991,4.02143.50864,3.99731.51185,4.34121,3.096,3.3393,25.092,7.54688,49.96611,14.37869,74.43751,9.3619,33.534,24.34323,64.57009,40.06535,95.36809a143.3465,143.3465,0,0,1,6.49212,15.2295c2.8504,7.66152-.20089,11.28181-8.19972,11.087a13.51592,13.51592,0,0,0-2.21417.01771c-4.85031.6896-11.33778-2.42928-13.99738,3.58691-2.9354,6.6401.70432,12.75243,4.20782,18.5418,3.81072,6.297,9.1601,4.50886,14.6519,3.44632,10.77686-2.085,21.32137-2.85394,28.84946,7.59361-6.33222,5.34342-14.03445,3.68891-21.03708,3.211C159.66368,168.4538,150.85513,170.29578,147.08281,182.18536Z"/><path class="cls-8" d="M205.16892,292.54186c-5.20772-9.078-7.72017-19.1772-10.98414-28.99166,16.43254-6.68046,24.03858-3.67679,30.92978,12.23162,1.01744,2.34884,1.67174,4.91515,3.6113,6.73245a9.20578,9.20578,0,0,0,10.24108,1.94249c4.6192-2.01954,1.81263-5.77851.66453-8.48368-6.73674-15.87347-13.04762-31.92439-19.94847-47.73012-1.83357-4.19952-5.064-8.48385-1.23148-13.29927,11.06641-5.38664,12.92122-14.02008,8.81389-24.819-6.27554-16.49966.66375-28.23755,13.69679-37.75117q3.15854,6.86854,6.31384,13.74036c-13.38493.02732-13.66556.1412-8.725,12.31828,12.64314,31.16181,25.56919,62.20875,38.344,93.31731a49.58894,49.58894,0,0,1,1.525,5.23844c-.2433.27589-.55829.83038-.72081.78881-14.23558-3.64117-20.546,5.81406-28.16849,15.32731-7.56254,9.43843-20.60655,7.54341-33.80235-1.89151C212.77338,289.09967,207.03776,279.97525,205.16892,292.54186Z"/><path class="cls-19" d="M262.73212-48.6434c-1.824,1.1284-1.98291,2.96564-1.95654,4.81632.75436,52.94726-10.61174,104.39089-19.45721,156.1397-.9173,5.36653.75647,11.13356-2.48975,16.12309-8.34717-3.6187-5.81-11.77323-6.77758-17.9559-2.01081-12.849,1.21963-25.65814,2.73068-38.39012,3.974-33.48513,10.331-66.6945,10.44121-100.60386.02972-9.1425,1.32457-18.28913,2.22-27.4161.32424-3.305.99247-7.2,4.70209-8.01777,4.46486-.98428,4.83334,3.6462,6.34983,6.31389C260.12732-54.76235,261.33763-51.65051,262.73212-48.6434Z"/><path class="cls-7" d="M147.08281,182.18536c1.047-16.10837,1.047-16.10261,17.22037-16.11943q13.749-.01433,27.49733-.06463c4.45415.27424,4.58531,3.42906,4.48657,6.73679-10.5961,18.86875-16.50977,39.80428-26.05556,59.14337-1.136,2.30148-1.30751,5.09324-4.741,5.08353-3.78054-13.66325-7.33646-27.39518-11.49526-40.942-1.12688-3.67062-4.07654-6.78164-6.18893-10.14983Q147.44519,184.02894,147.08281,182.18536Z"/><path class="cls-8" d="M218.45152,214.94369c4.7613,18.23863,14.29843,34.59414,20.61826,52.22094.86781,2.4204,3.43145,4.87845,3.08072,6.96034-.8162,4.84494,9.64967,9.6735.95011,13.599-8.99716,4.05992-18.27917.08463-19.61236-8.62958-2.95145-19.29176-17.09794-15.06651-29.30468-15.54246,2.90625-14.132,12.10327-25.82354,15.424-39.79288C213.80415,222.07319,210.19963,212.56086,218.45152,214.94369Z"/><path class="cls-7" d="M149.31335,197.57289c3.84155,18.52812,10.72379,35.94862,15.701,55.197-8.17969,8.02986-8.51847,20.39736-15.47854,29.14624-3.50263-1.45719-1.95559-4.44881-1.96595-6.60511q-.16391-34.16206.04-68.32558C147.626,203.806,146.5455,200.30385,149.31335,197.57289Z"/><path class="cls-8" d="M329.40333,263.69908c-3.38983-3.02054-2.56232-6.75791-1.32446-10.22455,6.05616-16.96062,12.29039-33.85763,18.45779-50.77857.864-2.37048,1.15215-5.13059,4.631-5.34589,4.09692-.25358,4.642,2.82166,5.587,5.60428,6.92839,20.40244,13.86026,40.80369,19.77462,61.81052-6.38246-2.43652-7.57658-9.1922-8.70575-14.17018-2.79335-12.31483-11.84073-8.26493-19.29836-9.12605-7.79658-.90026-12.72084,1.82116-14.69068,9.7607-1.0572,4.26114-2.92511,8.32106-4.42721,12.4717Z"/><path class="cls-8" d="M418.94013,192.04325c4.91773,7.54605,3.38979,15.53357,3.567,23.32017.28578,12.5529-.29,25.13144.20135,37.67158.33991,8.67555-4.07482,11.97956-11.69422,12.82525-12.90192,1.432-23.8032-6.3739-25.92107-18.51121-2.69359-15.43671,4.75723-30.33812,18.75839-31.18256,14.51361-.87537,15.72191-7.82559,14.37962-18.84125C418.02329,195.61872,418.68215,193.80656,418.94013,192.04325Z"/><path class="cls-20" d="M339.96415,511.582c-7.20174-6.1976-.36035-15.39047-6.97344-20.4696C341.924,495.48211,340.35619,503.06255,339.96415,511.582Z"/><path class="cls-8" d="M282.94438,245.81786a744.95738,744.95738,0,0,0-28.73511-79.56412c5.90454-.05549,11.88488.47328,17.69375-.29482,10.83652-1.43275,14.93852,2.90022,13.09176,13.43288a309.9895,309.9895,0,0,0-.01472,57.71469C284.65126,240.092,286.05719,243.48289,282.94438,245.81786Z"/><path class="cls-8" d="M284.98006,237.10649a157.81891,157.81891,0,0,1,.01516-57.71469Q284.98721,208.24916,284.98006,237.10649Z"/><path class="cls-8" d="M351.13871,202.15517c3.94984,11.70837,6.675,20.3043,9.77547,28.76266,1.59175,4.34265.59325,6.25338-4.08629,6.15389-3.67729-.07823-7.35783.00468-11.03577-.05534-4.59424-.075-5.66643-2.37227-4.22329-6.51855C344.45308,222.21124,347.19328,213.87451,351.13871,202.15517Z"/><path class="cls-8" d="M418.14678,240.2453a51.48412,51.48412,0,0,1-.04648,6.6179c-.73012,5.58644,3.0335,14.00688-7.00912,14.38108-8.65775.32267-16.75758-1.73342-20.10032-11.61477-4.80371-14.20024,1.869-27.94839,15.08249-30.07493,7.23323-1.16413,13.60753-.71119,12.15406,9.662C417.72174,232.82569,418.14685,236.56527,418.14678,240.2453Z"/><path class="cls-8" d="M279.01424-99.0785S326.56732,5.88932,338.98116,32.17632s44.45636,71.94433,45.56694,73.06911-2.799,3.64885-2.799,3.64885-27.522-36.64785-46.40295-74.78741S274.22925-100.321,274.22925-100.321A8.89739,8.89739,0,0,0,279.01424-99.0785Z"/><path class="cls-7" d="M76.73,12.89662S86.0461,57.68048,87.49778,115.65887l-4.70812-.98563a549.55635,549.55635,0,0,0-3.84711-65.084c-4.15381-32.85289-6.69292-38.55-6.69292-38.55Z"/><path class="cls-8" d="M252.47163-120.87278l12.473-3.33732,18.19694,38.8004,52.2046,119.51657,32.75849,50.97862,12.13469,21.76236s-76.87722,70.56561-137.96677,26.66734Z"/><path class="cls-5" d="M244.27916,423.92857l4.69315,9.34437L103.87109,496.44682l-9.2812-8.05787S174.26443,401.95623,244.27916,423.92857Z"/><path class="cls-21" d="M380.23918,106.84782c-2.2378,3.60523-4.26612,7.33569-6.22559,11.09766"/><path class="cls-21" d="M369.288,127.58806c-1.79346,3.84521-3.478,7.74023-5.103,11.65893"/><path class="cls-21" d="M360.29338,149.25554c-.74659,1.98584-1.48194,3.97558-2.14453,5.99121-.67774,2.01025-1.38135,4.01172-2.03711,6.02905"/><path class="cls-21" d="M353.0092,171.55632l-1.68994,6.13574c-.562,2.04541-1.0127,4.11987-1.52442,6.17822"/><path class="cls-21" d="M347.47746,194.35515c-.91943,4.14355-1.55274,8.34082-2.27149,12.522"/><polyline class="cls-21" points="343.725 217.513 343.322 220.669 343.034 223.838 342.459 230.176"/><polyline class="cls-21" points="341.854 240.897 341.705 244.075 341.684 247.257 341.642 253.621"/><path class="cls-21" d="M341.93791,264.35466c.07617,4.24487.52539,8.46679.86865,12.69531"/><path class="cls-21" d="M344.00138,287.71965l.84034,6.30835c.29345,2.10058.74218,4.17675,1.10547,6.26635"/><path class="cls-21" d="M348.01066,310.83122c1.001,4.12231,1.90186,8.271,2.98535,12.37158"/><path class="cls-21" d="M354.00676,333.51164c.30712,1.01489.57324,2.04321.91357,3.04736l1.05127,3.00342,2.10254,6.00684"/><path class="cls-21" d="M361.9047,355.59831l2.41749,5.887,1.20849,2.94361c.43164.9685.90283,1.91943,1.352,2.88012"/><path class="cls-21" d="M371.48527,377.01213c.8667,1.93823,1.90967,3.78711,2.91748,5.65356l3.02881,5.59717"/><line class="cls-21" x1="382.74894" y1="397.58928" x2="389.3881" y2="408.44865"/><path class="cls-7" d="M76.73,12.89662s3.63723,30.1,7.12159,63.69244,3.177,45.11714,3.177,45.11714l40.20284,6.961s-16.23-73.50641-24.04619-100.08219S76.73,12.89662,76.73,12.89662Z"/><circle class="cls-1" cx="279" cy="279" r="279"/></g></svg>