<svg id="Layer_1" data-name="Layer 1" xmlns="http://www.w3.org/2000/svg" xmlns:xlink="http://www.w3.org/1999/xlink" viewBox="0 0 558 558"><defs><style>.cls-1{fill:none;}.cls-2{fill:url(#linear-gradient);}.cls-3{clip-path:url(#clip-path);}.cls-4{fill:#3e4e6c;}.cls-5{fill:#c3d2d7;}.cls-6{fill:#95a4b1;}.cls-7{fill:#ffa959;}.cls-8{fill:#ffd06b;}.cls-9{fill:#41a9c0;}.cls-10{fill:#008098;}.cls-11{fill:#47284f;}.cls-12{fill:#ffc9ac;}.cls-13{fill:#ffa68d;}.cls-14{fill:#5a73a2;}.cls-15{fill:#793348;}.cls-16{fill:#ff8882;}.cls-17{fill:#bd4e5a;}.cls-18{fill:#435277;}.cls-19{fill:#fff;}.cls-20{fill:#e4e4e0;}</style><linearGradient id="linear-gradient" y1="279" x2="558" y2="279" gradientUnits="userSpaceOnUse"><stop offset="0" stop-color="#ebebeb"/><stop offset="1" stop-color="#fff"/></linearGradient><clipPath id="clip-path"><circle class="cls-1" cx="279" cy="279" r="279"/></clipPath></defs><title>Icons</title><circle class="cls-2" cx="279" cy="279" r="279"/><g class="cls-3"><polygon class="cls-4" points="461.643 455.674 454.134 455.674 454.134 475.017 461.643 471.036 461.643 455.674"/><polygon class="cls-5" points="454.134 475.017 454.134 605.298 461.643 605.298 461.643 471.036 454.134 475.017"/><polygon class="cls-4" points="386.187 455.674 378.677 455.674 378.677 475.017 386.187 471.036 386.187 455.674"/><polygon class="cls-6" points="378.677 475.017 378.677 594.062 386.187 594.062 386.187 471.036 378.677 475.017"/><polygon class="cls-4" points="555.518 455.674 548.008 455.674 548.008 475.017 555.518 471.036 555.518 455.674"/><polygon class="cls-5" points="548.008 475.017 548.008 605.298 555.518 605.298 555.518 471.036 548.008 475.017"/><polygon class="cls-4" points="480.061 455.674 472.552 455.674 472.552 475.017 480.061 471.036 480.061 455.674"/><polygon class="cls-6" points="472.552 475.017 472.552 594.062 480.061 594.062 480.061 471.036 472.552 475.017"/><path class="cls-7" d="M488.73147,434.103h69.92065l32.93458-150.9771A31.2746,31.2746,0,0,1,622.143,258.51668H524.18908a31.27479,31.27479,0,0,0-30.55632,24.60918L460.69815,434.103H390.77776a30.09322,30.09322,0,0,0-30.09332,30.0931v.00022h97.95394v-.00022A30.09317,30.09317,0,0,1,488.73147,434.103Z"/><path class="cls-8" d="M591.5867,283.12586,558.65212,434.103H488.73147a30.09317,30.09317,0,0,0-30.09309,30.0931v.00022H555.809a26.654,26.654,0,0,0,26.04169-20.9735l40.2923-184.7061A31.2746,31.2746,0,0,0,591.5867,283.12586Z"/><path class="cls-9" d="M434.04119,221.8039c42.52342,7.69751,84.63045,59.76625,99.03088,105.39576a51.66054,51.66054,0,0,1-1.65736,35.59811h0l-69.77124,9.40747-35.36793-4.70374L399.7118,319.68082l-8.8073-46.23856Z"/><polygon class="cls-10" points="424.807 232.858 390.904 273.442 399.712 319.681 426.276 367.502 454.979 371.319 454.979 249.178 424.807 232.858"/><path class="cls-11" d="M475.48079,319.73188a.44482.44482,0,0,1-.32583-.14117.45.45,0,0,1,.01753-.63436,45.377,45.377,0,0,0,13.74077-27.30286.44812.44812,0,0,1,.89005.10521A46.29223,46.29223,0,0,1,475.78909,319.61.4509.4509,0,0,1,475.48079,319.73188Z"/><path class="cls-12" d="M324.84484,229.78818c5.48772,14.89518,16.622,30.05137,16.622,30.05137l-28.768,85.55336a25.03413,25.03413,0,0,0,20.07857,32.7455h0a25.03429,25.03429,0,0,0,27.10465-16.01606l18.27116-48.97442-22.7343-6.27165.79461-41.82293-.01065-10.96274-22.99576-29.00594Z"/><polygon class="cls-10" points="378.153 313.148 355.419 306.876 356.203 254.091 378.153 265.588 378.153 313.148"/><polygon class="cls-11" points="355.502 317.333 355.419 306.876 378.153 313.148 377.282 315.483 355.502 317.333"/><polygon class="cls-13" points="385.731 271.599 401.309 277.15 406.573 242.366 389.39 242.694 385.731 271.599"/><path class="cls-11" d="M399.18709,268.08641c2.39448-4.95388,2.47949-10.79915,1.12644-16.13259a41.35158,41.35158,0,0,0-3.79038-9.39616l-7.1333.13629-3.65854,28.90473,8.07285,2.8768A17.05348,17.05348,0,0,0,399.18709,268.08641Z"/><path class="cls-4" d="M350.67989,567.774a53.26348,53.26348,0,0,1-1.45646-6.706l-2.232-14.82681h-28.026l-2.47483,8.42709a24.48744,24.48744,0,0,1-13.63179,15.5131l-10.43048,4.5901a24.47856,24.47856,0,0,0-12.02437,11.45105h72.17616A53.26925,53.26925,0,0,0,350.67989,567.774Z"/><path class="cls-11" d="M317.225,552.16765c8.0118,10.53636,26.1611,5.92651,30.65864,0l-.89227-5.92651h-28.026Z"/><path class="cls-14" d="M426.27554,367.5015l-85.43261,7.58365a39.1975,39.1975,0,0,0-35.68956,40.85519l6.22726,134.61256c26.39949,8.6233,47.56588-2.74385,47.56588-2.74385l-.784-114.06411,91.32982,2.74385,12.1511-64.28355Z"/><polygon class="cls-4" points="358.163 433.745 358.163 407.912 370.08 434.103 358.163 433.745"/><path class="cls-15" d="M401.1512,237.33587a66.441,66.441,0,0,0-.16825-38.45581,33.02078,33.02078,0,0,0-5.0511-10.50307,16.6182,16.6182,0,0,0-9.53977-6.36842c-3.82589-.78551-8.5081.28876-11.03751,3.265a23.65926,23.65926,0,0,0-36.56254-2.6342c-3.55244,3.764-5.76046,8.55938-8.38758,13.019-2.62687,4.45936-5.95713,8.839-10.72746,10.84688-2.96492,1.24763-6.71291,1.80629-8.14986,4.68421-1.27291,2.54874.12407,5.7809,2.39384,7.50263a17.2661,17.2661,0,0,0,7.587,2.98867,17.07357,17.07357,0,0,0-5.40288,5.51566c-1.20348,2.30193-1.28472,5.38071.46631,7.29932,1.36748,1.498,3.49851,1.98919,5.50323,2.29882a55.97851,55.97851,0,0,0,13.22294.31052c10.939-.8561,21.78831,6.34467,32.74705,5.798C379.00332,242.35657,390.50408,239.98761,401.1512,237.33587Z"/><path class="cls-13" d="M335.29752,237.105l2.53232,4.30488a116.36758,116.36758,0,0,0,26.61279,31.06283h0a20.69083,20.69083,0,0,0,21.38393,2.94716h0A20.69067,20.69067,0,0,0,398.139,258.45209l.046-.473a51.09511,51.09511,0,0,0-2.9809-22.76848h0c-3.25213-2.4129-7.12087-11.56335-7.12087-11.56335-10.77918.196-12.4778-6.86739-12.4778-6.86739C367.374,227.17507,345.16223,236.45181,335.29752,237.105Z"/><path class="cls-11" d="M377.52019,277.6113a21.07179,21.07179,0,0,1-13.36233-4.79141,116.51246,116.51246,0,0,1-26.71578-31.182l-2.53188-4.30533a.44921.44921,0,0,1,.77442-.45545l2.5319,4.3051a115.59471,115.59471,0,0,0,26.50911,30.94386,20.16413,20.16413,0,0,0,20.92134,2.88324.44816.44816,0,1,1,.35758.82191A21.17031,21.17031,0,0,1,377.52019,277.6113Z"/><path class="cls-13" d="M399.07633,225.15791a9.16871,9.16871,0,0,1,5.05044-2.07686,5.81524,5.81524,0,0,1,4.91016,2.0762c1.59255,2.07553,1.24943,5.01758.57332,7.5448a38.88519,38.88519,0,0,1-2.80733,7.38411,13.142,13.142,0,0,1-2.99888,4.20278,5.72185,5.72185,0,0,1-4.80317,1.43984c-3.49008-.7622-4.75524-7.10067-4.77233-10.10753A13.29484,13.29484,0,0,1,399.07633,225.15791Z"/><path class="cls-16" d="M399.95062,242.694a1.305,1.305,0,0,1-.28011-.02908c-.833-.18134-2.2875-3.73978-2.30592-7.0616a10.17462,10.17462,0,0,1,3.64566-7.97718,6.11935,6.11935,0,0,1,3.28876-1.4141l.17313-.00466a2.66475,2.66475,0,0,1,2.07619.85831c.64171.83679.65234,2.50569.03219,4.82693a35.80615,35.80615,0,0,1-2.58,6.78615,10.4221,10.4221,0,0,1-2.23692,3.22905A3.02665,3.02665,0,0,1,399.95062,242.694Z"/><path class="cls-12" d="M388.73663,262.06069l10.97517,57.62013,2.35187-22.34253,40.37309,7.44758-6.91333,52.23454A31.91549,31.91549,0,0,1,403.884,384.74833h0a31.91525,31.91525,0,0,1-31.89607-30.80781L369.1648,272.6441c-17.09678-12.05522-24.41363-26.66362-27.26979-34.36624a6.89493,6.89493,0,0,1,2.73832-8.182l.07167-.04617-.23328-.90914a5.02865,5.02865,0,0,1,2.90432-5.877l1.24852-.5307-.09256-.29632a4.35653,4.35653,0,0,1,2.57938-5.35984h0a4.35626,4.35626,0,0,1,5.20381,1.6436l.41018.61549,2.70833-1.49245a4.71947,4.71947,0,0,1,6.14913,1.4394c9.45387,13.61469,16.22892,26.0539,16.22892,26.0539a26.58866,26.58866,0,0,0,.00245-9.46674,8.27276,8.27276,0,0,1,5.877-9.348h0C395.13879,241.678,388.73663,262.06069,388.73663,262.06069Z"/><path class="cls-11" d="M403.884,385.19668a32.241,32.241,0,0,1-32.344-31.24l-2.81576-81.07536c-17.0839-12.11226-24.40475-26.771-27.25026-34.44747a7.299,7.299,0,0,1,2.71768-8.58135l-.15428-.60106A5.44821,5.44821,0,0,1,347.2,222.85066l.87629-.37245a4.80479,4.80479,0,0,1,8.612-4.00635l.18223.27257,2.34787-1.29313a5.1454,5.1454,0,0,1,6.732,1.57613c7.72548,11.1221,13.72323,21.57212,15.62275,24.95654a26.28558,26.28558,0,0,0-.19976-8.03645,8.70227,8.70227,0,0,1,6.194-9.85716.45583.45583,0,0,1,.52738.23306c7.15617,14.56711,1.59277,34.113,1.10224,35.76168l17.23994,90.50925a.44778.44778,0,1,1-.87962.16824l-17.261-90.618a.43743.43743,0,0,1,.01243-.218c.063-.20065,6.166-20.07768-.85165-34.8601a7.7999,7.7999,0,0,0-5.20048,8.725,26.92992,26.92992,0,0,1-.00353,9.62744.44914.44914,0,0,1-.83592.13228c-.06658-.12429-6.87205-12.57637-16.2025-26.01217a4.25432,4.25432,0,0,0-5.56339-1.30289l-2.70878,1.492a.44753.44753,0,0,1-.59063-.14361l-.40995-.615a3.9082,3.9082,0,0,0-6.98256,3.3327l.093.29609a.44736.44736,0,0,1-.25236.54668l-1.24941.53093a4.55617,4.55617,0,0,0-2.644,5.353l.233.90937a.4509.4509,0,0,1-.19108.48808,6.43531,6.43531,0,0,0-2.63356,7.69574c2.82109,7.60629,10.09267,22.15742,27.10843,34.1556a.44979.44979,0,0,1,.18913.35047l2.82462,81.29709a31.46611,31.46611,0,0,0,62.64127,3.03661l4.26848-32.25653a.4403.4403,0,0,1,.50451-.3862.45.45,0,0,1,.38554.50362l-4.26848,32.25652A32.45954,32.45954,0,0,1,403.884,385.19668Z"/><path class="cls-11" d="M353.198,248.26732a.45175.45175,0,0,1-.35758-.17713,65.34734,65.34734,0,0,1-8.63484-17.85654.4492.4492,0,0,1,.85521-.27522,64.40561,64.40561,0,0,0,8.49456,17.58863.44862.44862,0,0,1-.35735.72026Z"/><path class="cls-11" d="M358.68593,243.38113a.44879.44879,0,0,1-.38022-.2102c-.07191-.11475-7.24891-11.59265-10.10687-20.2983a.44852.44852,0,0,1,.28566-.566.44269.44269,0,0,1,.566.28544c2.82286,8.60177,9.94373,19.98844,10.01564,20.10231a.449.449,0,0,1-.14205.6186A.44358.44358,0,0,1,358.68593,243.38113Z"/><path class="cls-11" d="M366.85976,238.33757a.45136.45136,0,0,1-.40285-.2497c-.04395-.09211-4.57146-9.23857-10.1173-18.52175a.44914.44914,0,0,1,.77108-.46079c5.56316,9.31559,10.10664,18.49356,10.15215,18.58479a.44951.44951,0,0,1-.20487.60084A.44236.44236,0,0,1,366.85976,238.33757Z"/><polygon class="cls-11" points="402.064 297.338 442.437 304.786 441.135 314.62 400.244 314.62 402.064 297.338"/><path class="cls-9" d="M397.36437,303.218,446.618,313.40917l8.36139-64.23094a24.443,24.443,0,0,0-20.93821-27.37433h0a24.44282,24.44282,0,0,0-27.4682,20.56177Z"/><path class="cls-11" d="M446.61845,313.85753a.39683.39683,0,0,1-.091-.00977l-2.6109-.53958a.45007.45007,0,0,1-.34869-.53.439.439,0,0,1,.53092-.34781l2.13768.44147,8.29835-63.75129a23.8778,23.8778,0,0,0-2.30747-13.78271.44817.44817,0,1,1,.80238-.39953,24.77966,24.77966,0,0,1,2.39537,14.29788l-8.36161,64.2305a.45.45,0,0,1-.18578.30763A.44323.44323,0,0,1,446.61845,313.85753Z"/><path class="cls-11" d="M397.364,303.66676a.44006.44006,0,0,1-.06659-.00533.44848.44848,0,0,1-.37669-.51072l7.26825-48.02977a.43224.43224,0,0,1,.50984-.37577.44848.44848,0,0,1,.37666.51072l-7.268,48.02977A.44844.44844,0,0,1,397.364,303.66676Z"/><path class="cls-4" d="M403.76209,581.38823a59.102,59.102,0,0,1-2.61311-17.37867v-8.0997H370.83636l-1.62762,6.768a28.21235,28.21235,0,0,1-16.4926,19.4087h-.00022a28.20519,28.20519,0,0,0-14.96887,14.84989h68.56A59.06026,59.06026,0,0,0,403.76209,581.38823Z"/><path class="cls-11" d="M369.20874,562.67781c9.59792,13.74521,26.97525,9.0397,31.94024,1.33175v-8.0997H370.83636Z"/><path class="cls-14" d="M531.41471,362.79777l-122.572,16.52656a43.90091,43.90091,0,0,0-37.96108,40.96373l-8.01535,138.10419c22.34253,14.11121,50.56452,3.13582,50.56452,3.13582l9.79946-125.03928h62.77067a46.82035,46.82035,0,0,0,46.74973-49.39059Z"/><path class="cls-4" d="M423.23027,436.48879l2.23956-28.5769h0a22.09584,22.09584,0,0,1,4.70374,19.58049h0a3.22521,3.22521,0,0,0,2.83021,3.969l52.99716,5.02736Z"/><path class="cls-11" d="M368.86271,455.5277l-.02641-.00089a.449.449,0,0,1-.42217-.4741l2.01849-34.79085A44.42737,44.42737,0,0,1,408.783,378.88l35.16506-4.74147a.4418.4418,0,0,1,.50474.38465.44843.44843,0,0,1-.38555.50385l-35.16506,4.74147a43.52616,43.52616,0,0,0-37.57242,40.546l-2.01849,34.79084A.44943.44943,0,0,1,368.86271,455.5277Z"/><path class="cls-11" d="M518.39752,423.9204a.44836.44836,0,0,1-.31007-.77263A46.34151,46.34151,0,0,0,532.303,387.12239L530.96613,362.822a.44965.44965,0,0,1,.42394-.47211.44333.44333,0,0,1,.47322.42306l1.33688,24.30043a47.24854,47.24854,0,0,1-14.49257,36.72277A.44381.44381,0,0,1,518.39752,423.9204Z"/><path class="cls-11" d="M417.98387,503.8833a.24054.24054,0,0,1-.03487-.00178.448.448,0,0,1-.412-.48187l7.48554-95.52239a.41636.41636,0,0,1,.48187-.41173.44783.44783,0,0,1,.41174.48187l-7.48555,95.52217A.44737.44737,0,0,1,417.98387,503.8833Z"/><path class="cls-11" d="M354.84849,345.72563h-.0071a.44865.44865,0,0,1-.44148-.45546l1.011-68.12742a.44821.44821,0,0,1,.44858-.4417h.00713a.449.449,0,0,1,.44145.45568l-1.011,68.12742A.448.448,0,0,1,354.84849,345.72563Z"/><polygon class="cls-1" points="454.979 371.319 454.979 371.319 426.276 367.502 454.979 371.319"/><polygon class="cls-4" points="93.613 455.674 101.123 455.674 101.123 475.017 93.613 471.036 93.613 455.674"/><polygon class="cls-5" points="101.123 475.017 101.123 605.298 93.613 605.298 93.613 471.036 101.123 475.017"/><polygon class="cls-4" points="169.07 455.674 176.58 455.674 176.58 475.017 169.07 471.036 169.07 455.674"/><polygon class="cls-6" points="176.58 475.017 176.58 594.062 169.07 594.062 169.07 471.036 176.58 475.017"/><polygon class="cls-4" points="-0.262 455.674 7.248 455.674 7.248 475.017 -0.262 471.036 -0.262 455.674"/><polygon class="cls-5" points="7.248 475.017 7.248 605.298 -0.262 605.298 -0.262 471.036 7.248 475.017"/><polygon class="cls-4" points="75.195 455.674 82.705 455.674 82.705 475.017 75.195 471.036 75.195 455.674"/><polygon class="cls-6" points="82.705 475.017 82.705 594.062 75.195 594.062 75.195 471.036 82.705 475.017"/><path class="cls-7" d="M66.52486,434.103H-3.39576l-32.93438-150.9771a31.27487,31.27487,0,0,0-30.55655-24.60918H31.06725a31.27478,31.27478,0,0,1,30.55632,24.60918L94.55818,434.103h69.92039a30.09322,30.09322,0,0,1,30.09332,30.0931v.00022H96.61795v-.00022A30.093,30.093,0,0,0,66.52486,434.103Z"/><path class="cls-8" d="M-36.33014,283.12586-3.39576,434.103H66.52486a30.093,30.093,0,0,1,30.09309,30.0931v.00022H-.5527a26.65427,26.65427,0,0,1-26.04169-20.9735l-40.2923-184.7061A31.27487,31.27487,0,0,1-36.33014,283.12586Z"/><path class="cls-17" d="M194.46624,182.88974c5.18961-3.62791,10.21052-7.69818,13.74521-12.95193,3.53446-5.254,5.44641-11.8721,3.94708-18.02412s-6.92443-11.48833-13.252-11.72716c-1.41984-.05371-7.001-5.91741-8.85346-6.92044a81.103,81.103,0,0,0-11.35737-5.19915A45.74862,45.74862,0,0,0,121.07842,153.322c-7.12731,16.82177-4.01123,37.24858-13.751,52.70487C94.688,226.08481,65.04218,230.43009,53.2795,251.01427A35.05983,35.05983,0,0,0,50.48127,279.064c2.78269,8.38847,8.6142,12.87757,14.35693,19.0651,3.32826,3.586,9.24944,12.35975,15.21545,11.06462,4.76167-1.03366,13.11108-15.31756,16.22781-19.18718,5.39226-6.69448,10.68707-13.46643,15.98277-20.23726,21.09891-26.97658,42.27306-54.54646,68.736-76.56694C185.34753,189.58511,189.83064,186.13033,194.46624,182.88974Z"/><path class="cls-12" d="M283.4109,584.57732c-.09922-.0637-.20287-.11963-.3012-.18533l-11.45593-8.27016-15.95036-45.05975-30.59584-3.10763,19.76028,50.86705L242.82872,590.92h36.79A14.6312,14.6312,0,0,1,283.4109,584.57732Z"/><path class="cls-11" d="M260.1368,543.5863C256.116,558.33964,241.162,569.28174,241.162,569.28174l-16.05446-41.32729,30.59584,3.10763Z"/><path class="cls-18" d="M204.49587,564.55469c29.69446,6.56042,40.39839-18.3,64.22294-28.65858L238.30654,429.908a51.1023,51.1023,0,0,0-36.1945-35.346l-7.05406-1.84425Z"/><path class="cls-11" d="M213.944,566.09087a44.14378,44.14378,0,0,1-9.5442-1.09781.45206.45206,0,0,1-.35225-.41351l-.98993-18.017a.45013.45013,0,0,1,.42394-.47233l.02465-.00089a.45016.45016,0,0,1,.44856.42416l.97063,17.67631a37.96791,37.96791,0,0,0,18.65915-.32073.449.449,0,0,1,.24547.86387A36.07859,36.07859,0,0,1,213.944,566.09087Z"/><path class="cls-11" d="M263.22468,517.19547a.44873.44873,0,0,1-.431-.32495l-12.45985-43.41969a.44839.44839,0,1,1,.86209-.247l12.45985,43.41969a.4475.4475,0,0,1-.43105.572Z"/><path class="cls-11" d="M244.96329,453.558a.44853.44853,0,0,1-.431-.325l-6.65675-23.20173a.449.449,0,0,1,.30675-.55468.44353.44353,0,0,1,.55535.30764l6.65673,23.20174a.44727.44727,0,0,1-.30674.55445A.43743.43743,0,0,1,244.96329,453.558Z"/><path class="cls-19" d="M152.2427,325.04178l7.83089-2.71876a22.91169,22.91169,0,0,0,15.3806-22.5332l-.42261-10.88794L186.302,271.30259a21.059,21.059,0,0,0-20.39041-32.24765l-8.8446,1.12444-59.15675-.42305c-17.90914,17.76531-28.71651,48.54049-34.12541,68.11121a55.11869,55.11869,0,0,1-18.0037,27.95586,103.16694,103.16694,0,0,0-17.33449,17.95043l101.27466,15.54374Z"/><polygon class="cls-20" points="91.921 262.334 114.001 366.905 129.721 369.318 138.268 352.516 91.921 262.334"/><polygon class="cls-20" points="175.032 288.902 174.173 266.792 179.059 282.613 175.032 288.902"/><path class="cls-11" d="M175.45419,300.23839a.44864.44864,0,0,1-.44858-.431l-1.28092-32.99742a.4494.4494,0,0,1,.431-.46611.423.423,0,0,1,.46611.431l1.28092,32.99764a.44906.44906,0,0,1-.431.46589Z"/><path class="cls-11" d="M87.52943,333.91589a.44741.44741,0,0,1-.25059-.07635A43.45365,43.45365,0,0,1,71.566,314.60486a.44855.44855,0,1,1,.82879-.34337A42.54329,42.54329,0,0,0,87.78,333.09487a.44864.44864,0,0,1-.25059.821Z"/><polygon class="cls-12" points="150.011 247.755 150.011 260.186 163.407 222.204 145.797 204.767 132.071 228.099 150.011 247.755"/><path class="cls-11" d="M145.79724,204.7675c3.22263,22.5585,8.44862,24.49109,14.4679,26.34466l3.14182-8.90785Z"/><polygon class="cls-19" points="129.396 225.168 150.011 247.755 137.338 267.782 122.318 235.654 129.396 225.168"/><polygon class="cls-19" points="150.011 260.186 161.853 246.475 156.342 242.236 150.011 260.186"/><polygon class="cls-20" points="161.853 246.475 163.407 263.293 155.513 253.816 161.853 246.475"/><path class="cls-11" d="M137.33752,268.23091l-.028-.00089a.44957.44957,0,0,1-.37844-.25747L126.686,246.05772a.44877.44877,0,1,1,.813-.38021l9.89823,21.17282L149.448,247.80476l-19.06133-20.88627a.4484.4484,0,1,1,.66232-.60462l19.29261,21.13953a.44859.44859,0,0,1,.04817.54224l-12.67293,20.02685A.44926.44926,0,0,1,137.33752,268.23091Z"/><path class="cls-11" d="M151.45253,258.96526a.44859.44859,0,0,1-.33917-.742l10.08933-11.68277-3.79349-2.91742a.44859.44859,0,1,1,.5467-.71137L162.126,246.119a.449.449,0,0,1,.0657.64923l-10.4003,12.04212A.44728.44728,0,0,1,151.45253,258.96526Z"/><path class="cls-11" d="M163.407,263.7418a.44774.44774,0,0,1-.34448-.16114L155.169,254.103a.44848.44848,0,0,1,.68851-.57487l6.96949,8.36849-1.4212-15.38082a.44885.44885,0,0,1,.40574-.48786.461.461,0,0,1,.48811.40552l1.55413,16.81866a.44889.44889,0,0,1-.4468.48964Z"/><path class="cls-12" d="M199.488,194.46508c2.84483-15.57592,4.545-30.99158,2.64441-40.25678-2.71722,11.07749-19.438,22.78223-40.54822,26.96237l-4.7903,8.62286a12.69222,12.69222,0,0,1-7.51307,6.012l-2.11837.623-1.88109,7.52438a92.79215,92.79215,0,0,0,7.09245,13.37742c11.51342,18.2261,39.32079,13.527,43.99234-7.51861.059-.26568.11653-.53736.17513-.80393l3.05858.2184a1.79424,1.79424,0,0,0,1.9-2.07064Z"/><path class="cls-12" d="M148.89311,189.03377a14.20937,14.20937,0,0,0-7.32995-8.69966c-3.57264-1.577-8.20069-.95664-10.75387,1.99829a10.18235,10.18235,0,0,0-2.02959,8.01691,22.80668,22.80668,0,0,0,3.01552,7.919,21.30762,21.30762,0,0,0,4.61829,6.045c3.84054,3.22661,10.10154,3.24547,12.87446-1.4647C151.35885,199.33085,150.06438,192.57822,148.89311,189.03377Z"/><path class="cls-13" d="M142.58974,201.56553a4.724,4.724,0,0,1-2.94829-1.09315,16.95831,16.95831,0,0,1-3.47232-4.66023,18.36439,18.36439,0,0,1-2.42-6.14713,5.305,5.305,0,0,1,.85563-4.05274,3.83658,3.83658,0,0,1,2.89589-1.10469,5.0834,5.0834,0,0,1,2.038.41551,9.27152,9.27152,0,0,1,4.59165,5.685c1.34618,4.074,1.55128,8.4788.83523,9.69447a2.48883,2.48883,0,0,1-2.37582,1.26294Z"/><path class="cls-17" d="M185.07275,180.67105a11.11313,11.11313,0,0,0-8.859,4.40387H193.932A11.11292,11.11292,0,0,0,185.07275,180.67105Z"/><circle class="cls-11" cx="185.07297" cy="191.05758" r="2.46529"/><path class="cls-19" d="M194.65844,214.82829a24.0274,24.0274,0,0,1-3.85059.76953,19.46214,19.46214,0,0,1-3.94946.0127,15.11909,15.11909,0,0,1-3.82812-1.00879,11.31255,11.31255,0,0,1-3.26929-2.18189,15.39372,15.39372,0,0,0,3.41235,1.825,16.673,16.673,0,0,0,3.74268.86963,22.51914,22.51914,0,0,0,3.86133.10181C192.07128,215.16423,193.35619,214.96867,194.65844,214.82829Z"/><path class="cls-12" d="M194.32729,584.57732c-.09943-.0637-.20287-.11963-.30141-.18533l-9.55664-6.37109,11.95045-48.33984-30.59583-3.10764-9.32269,47.9947L153.74512,590.92h36.79A14.62887,14.62887,0,0,1,194.32729,584.57732Z"/><path class="cls-11" d="M161.36894,549.50792c12.05122,7.62316,28.53695,6.52114,28.53695,6.52114l6.5138-26.348-30.59583-3.10764Z"/><path class="cls-18" d="M193.85941,379.16164l-64.13816-9.84407L28.44659,353.77383C-.44771,392.56569,18.62183,434.152,55.10222,434.152h116.9367l-33.60759,94.63167c5.67126,4.80984,10.96674,10.22162,17.774,13.215,6.80724,2.99311,14.91582,3.89,21.60164.6348,2.61933-1.27537,4.95123-3.14337,7.70173-4.10378,4.43739-1.549,9.30161-.54358,13.93432.25014,4.63249.7935,9.70468,1.28514,13.75519-1.09891l15.42188-111.908A41.43428,41.43428,0,0,0,193.85941,379.16164Z"/><path class="cls-11" d="M205.84693,539.88137a38.93663,38.93663,0,0,1-6.47963-.65877l-.904-.15692c-4.31222-.74911-8.76981-1.52353-12.80678-.113a.44835.44835,0,0,1-.29632-.84633c4.26138-1.48845,8.833-.69384,13.25557.07525l.90226.156c4.62583.79373,9.42879,1.22033,13.266-.93644l15.39145-111.69a41.16368,41.16368,0,0,0-34.38442-46.10649.4486.4486,0,1,1,.13671-.88673,42.06742,42.06742,0,0,1,35.13776,47.116l-15.423,111.908a.4514.4514,0,0,1-.21729.32494A14.64426,14.64426,0,0,1,205.84693,539.88137Z"/><path class="cls-11" d="M172.03915,434.60014H101.123a.44858.44858,0,1,1,0-.89715h70.91611a.44858.44858,0,0,1,0,.89715Z"/><path class="cls-11" d="M172.03892,434.152l7.59962-21.399L173.52,417.1105a16.71022,16.71022,0,0,0-6.6603,17.04151h5.17918Z"/><path class="cls-11" d="M138.43089,529.23226a.42477.42477,0,0,1-.14982-.02619.44723.44723,0,0,1-.27235-.57221l44.266-124.64287a.448.448,0,0,1,.84457.29943l-44.266,124.64308A.44746.44746,0,0,1,138.43089,529.23226Z"/><path class="cls-11" d="M183.16746,530.80927a.45494.45494,0,0,1-.07547-.006.44882.44882,0,0,1-.368-.51694l11.89142-70.87326a.45708.45708,0,0,1,.51694-.368.44882.44882,0,0,1,.368.51694l-11.89141,70.87326A.44846.44846,0,0,1,183.16746,530.80927Z"/><polygon class="cls-12" points="180.459 326.631 217.444 307.49 226.594 319.575 185.593 358.288 180.459 326.631"/><path class="cls-12" d="M217.444,307.48977c.51783-20.88982,13.63867-33.31993,16.919-36.25488h0a6.20758,6.20758,0,0,1,1.84026,7.53459,49.99566,49.99566,0,0,0-3.56665,14.04574c12.35375-1.78454,29.40014-12.29959,35.868-16.53433a3.4441,3.4441,0,0,1,4.60674.77419h0a3.46765,3.46765,0,0,1-.19954,4.47756c-5.75982,6.29119-18.34973,13.87217-18.34973,13.87217a80.54116,80.54116,0,0,0,21.11644-8.6839,3.38791,3.38791,0,0,1,4.52974,1.05741h0a3.40834,3.40834,0,0,1-.529,4.39744c-5.88588,5.43909-18.60209,10.97384-22.09594,11.42952,6.37353-.28966,13.33037-2.3683,17.216-3.70382a3.1534,3.1534,0,0,1,4.04586,2.05533h0a3.1545,3.1545,0,0,1-1.46981,3.67807c-7.04052,3.95419-22.64063,6.08477-22.64063,6.08477,7.71462.63968,13.40828.68718,16.535.63679a2.63889,2.63889,0,0,1,2.67682,2.711h0a2.64318,2.64318,0,0,1-2.02049,2.51967c-20.79171,4.85245-45.33208,1.98764-45.33208,1.98764Z"/><polygon class="cls-13" points="180.459 326.631 185.593 358.288 193.208 351.098 181.994 325.838 180.459 326.631"/><polygon class="cls-19" points="186.792 365.684 179.796 322.542 165.433 328.734 172.429 371.876 186.792 365.684"/><path class="cls-11" d="M212.6737,333.16679a.44889.44889,0,0,1-.30853-.77442l13.92122-13.14325a.44865.44865,0,0,1,.61683.65167L212.982,333.044A.44814.44814,0,0,1,212.6737,333.16679Z"/><path class="cls-11" d="M243.67371,320.84966a166.53853,166.53853,0,0,1-17.1314-.8288.44768.44768,0,0,1-.39242-.49763.45491.45491,0,0,1,.49765-.39419c.24347.02885,24.7026,2.79822,45.17691-1.97921a2.20357,2.20357,0,0,0-.54845-4.34461.44863.44863,0,0,1-.014-.89715,3.11959,3.11959,0,0,1,2.23425.9087,3.10973,3.10973,0,0,1-1.46849,5.20758A128.83371,128.83371,0,0,1,243.67371,320.84966Z"/><path class="cls-11" d="M254.73522,312.16843a.44842.44842,0,0,1-.06126-.89272c.156-.02109,15.59634-2.165,22.4826-6.03127a2.7076,2.7076,0,0,0-2.21137-4.91926.44828.44828,0,1,1-.29077-.8481,3.60375,3.60375,0,0,1,2.94006,6.54887c-7.03319,3.95042-22.15831,6.05036-22.79777,6.138A.37166.37166,0,0,1,254.73522,312.16843Z"/><path class="cls-11" d="M257.58273,304.05386a.44866.44866,0,0,1-.05793-.89361c3.15225-.41084,15.91529-5.82862,21.85-11.31388a2.95441,2.95441,0,0,0-3.47121-4.73792.4484.4484,0,1,1-.45188-.77463,3.85163,3.85163,0,0,1,4.53281,6.17133c-5.84172,5.39758-18.56814,11.05285-22.34409,11.54538A.46.46,0,0,1,257.58273,304.05386Z"/><path class="cls-11" d="M254.56188,295.85361a.44894.44894,0,0,1-.23129-.83323c.1243-.07525,12.60015-7.61939,18.251-13.79071a3.01622,3.01622,0,0,0,.17513-3.89959,2.97824,2.97824,0,0,0-4.00723-.67453.44814.44814,0,1,1-.49075-.75,3.90313,3.90313,0,0,1,4.98518,5.9305c-5.73851,6.26677-18.32465,13.87727-18.45072,13.95362A.45306.45306,0,0,1,254.56188,295.85361Z"/><path class="cls-11" d="M232.6364,293.2638c-.01221,0-.02619-.00089-.04018-.00178a.44932.44932,0,0,1-.40662-.48608,50.89388,50.89388,0,0,1,3.60615-14.19113,5.74661,5.74661,0,0,0-1.70486-6.99212.44892.44892,0,1,1,.54313-.71493,6.64041,6.64041,0,0,1,1.97832,8.07661,49.89491,49.89491,0,0,0-3.52914,13.90036A.44845.44845,0,0,1,232.6364,293.2638Z"/><path class="cls-19" d="M91.92087,262.33436l33.01875,101.34192a25.10168,25.10168,0,0,0,39.53407,11.83592l7.56523-6.0437-6.21506-38.32664-7.52061,3.83633L132.97294,249.562a21.49836,21.49836,0,0,0-27.61516-14.2131h0A21.49839,21.49839,0,0,0,91.92087,262.33436Z"/><path class="cls-20" d="M158.30325,334.97819l-20.03572,10.22073,1.65958-3.90536a16.0104,16.0104,0,0,1,17.42527-9.52156h0Z"/><path class="cls-11" d="M158.3037,335.42721a.449.449,0,0,1-.43016-.32073l-23.75219-80.09407a.44878.44878,0,1,1,.86031-.25592l23.75219,80.09407a.44942.44942,0,0,1-.30231.55823A.46874.46874,0,0,1,158.3037,335.42721Z"/><path class="cls-11" d="M138.268,345.64772a.44854.44854,0,0,1-.204-.8481l27.55587-14.05706a.44869.44869,0,0,1,.40841.799l-27.55612,14.05706A.449.449,0,0,1,138.268,345.64772Z"/><path class="cls-11" d="M172.42823,372.3251a.4484.4484,0,0,1-.4417-.37666l-6.99568-43.14291a.44826.44826,0,1,1,.885-.14361l6.9957,43.14269a.44772.44772,0,0,1-.37067.51428A.40088.40088,0,0,1,172.42823,372.3251Z"/><path class="cls-11" d="M148.783,381.58276a25.88454,25.88454,0,0,1-7.38211-1.08627A25.226,25.226,0,0,1,124.41778,364.025l-30.68906-94.6936a.4486.4486,0,0,1,.85343-.27678l30.688,94.69072a24.65239,24.65239,0,0,0,38.793,11.52074.43041.43041,0,0,1,.61771.01509.46688.46688,0,0,1-.01665.649A25.30155,25.30155,0,0,1,148.783,381.58276Z"/><path class="cls-11" d="M132.97294,250.01058a.44884.44884,0,0,1-.43016-.32051,21.18928,21.18928,0,0,0-18.51309-15.00593,20.94542,20.94542,0,0,0-8.5252,1.08893.4485.4485,0,1,1-.29276-.84789,21.75864,21.75864,0,0,1,8.88987-1.13465,22.09248,22.09248,0,0,1,19.30149,15.64362.44943.44943,0,0,1-.30231.55823A.46709.46709,0,0,1,132.97294,250.01058Z"/></g></svg>