<svg id="cardiologist" xmlns="http://www.w3.org/2000/svg" xmlns:xlink="http://www.w3.org/1999/xlink" width="116.526" height="116.66" viewBox="0 0 116.526 116.66">
  <defs>
    <linearGradient id="linear-gradient" x1="0.001" y1="0.5" x2="1" y2="0.5" gradientUnits="objectBoundingBox">
      <stop offset="0" stop-color="#ebebeb"/>
      <stop offset="1" stop-color="#fff"/>
    </linearGradient>
  </defs>
  <circle id="Ellipse_1793" data-name="Ellipse 1793" cx="58.263" cy="58.263" r="58.263" transform="translate(0 0)" fill="url(#linear-gradient)"/>
  <g id="Group_7422" data-name="Group 7422" transform="translate(17.719 12.073)">
    <path id="Path_46694" data-name="Path 46694" d="M109.636,123.992c-4.182,2.821-8.851,4.28-13.617,5.447-1.556.389-3.21.584-4.766.875-.584.389-1.362-.1-1.945.389H88.14c-.681-3.5-1.264-7-2.043-10.5-.292-1.459.1-2.043,1.362-2.432A3.071,3.071,0,0,1,89.6,116.5c4.766-1.167,9.629-2.237,14.4-3.307a2.7,2.7,0,0,1,2.432.292C107.983,116.795,108.663,120.491,109.636,123.992Z" transform="translate(-42.83 -26.212)" fill="#21cfc2"/>
    <path id="Path_46695" data-name="Path 46695" d="M75.173,130.708c-1.459-.875-3.21-.778-4.766-1.167-4.863-1.264-9.629-2.723-14.007-5.447.875-2.821,1.654-5.641,2.529-8.462a3.872,3.872,0,0,1,.875-2.043,4.05,4.05,0,0,1,2.626-.292c4.474,1.264,9.046,2.043,13.52,3.21a4.859,4.859,0,0,1,2.723,1.362c1.459.292,1.654,1.167,1.362,2.626-.681,3.4-1.167,6.906-1.751,10.31C77.215,130.708,76.243,130.708,75.173,130.708Z" transform="translate(-42.021 -26.216)" fill="#21cfc2"/>
    <path id="Path_46696" data-name="Path 46696" d="M89.4,131.189a2.738,2.738,0,0,1,1.945-.389v.389Z" transform="translate(-42.923 -26.697)" fill="#a6d8d7"/>
    <path id="Path_46697" data-name="Path 46697" d="M97.057,53.973a28.215,28.215,0,0,1,2.237,7.392c.389,4.961.486,10.018-1.264,14.784-2.334,6.128-6.42,7.976-12.158,6.517-7.3-1.751-14.007-5.155-18.967-10.991a18.375,18.375,0,0,1-3.4-6.906,20.442,20.442,0,0,1,1.264-2.529c1.264-1.751,1.362-1.751,2.334-.486.195.973,0,1.945.195,2.918a4.065,4.065,0,0,1,.389.973c.1.195.1.389.195.584v-.1c-.1-.292-.195-.486-.292-.778a2.759,2.759,0,0,1-.389-1.264v-.875a3.042,3.042,0,0,0-1.07-2.918,5.17,5.17,0,0,1-1.167-2.432c-.875-2.432-.778-2.529,1.654-2.723.778-.292,1.264-.292,1.751.584.486.973,1.07,1.945,1.556,2.821-.292-.486-.584-1.07-.973-1.751-.292-.584-1.264-1.167-.584-1.848.584-.681,1.264.1,1.848.195-1.167-.681-2.529-.292-3.793.1a1.18,1.18,0,0,1-1.264-.292,2.475,2.475,0,0,1-.195-.681,14.965,14.965,0,0,1,.778-1.848c1.07-1.264,2.626-1.848,3.988-2.626a8.949,8.949,0,0,0,2.432-1.848,1.994,1.994,0,0,0,.486-2.723,1.606,1.606,0,0,1-.1-1.848c1.167-.973,2.432-1.556,3.793-.292-.1,1.751.875,2.334,2.432,2.723,2.14.584,4.28.973,6.517,1.362.875.195,1.945.389,1.945,1.556a1.916,1.916,0,0,1-2.043,1.945,1.961,1.961,0,0,1-1.07-.292A4.24,4.24,0,0,0,81.2,49.4a4.116,4.116,0,0,1,2.821,1.07,2.127,2.127,0,0,1,.292.486,12.729,12.729,0,0,1-.875,2.723c.1,2.334-2.529,3.113-3.015,5.155a2.444,2.444,0,0,1,.584-1.362c.875-1.07,1.945-.875,2.334.389.195.584.292,1.264.486,1.848v2.432h.1v-.1c0-.1.1-.292.1-.389.1-.1.195-.292.292-.389.389-.486.292-1.167.681-1.654.681-.681,1.167-.681,1.556.292a32.437,32.437,0,0,0,1.553,3.9c.486.875-.389,1.264-.584,1.848a4.274,4.274,0,0,0-.681,2.14c-.195,1.945-1.167,3.21-3.113,3.4a.735.735,0,0,1,.389-.1c.584-.1,1.264-.778,1.751,0,.389.681-.195,1.264-.486,1.751-.778,1.07-1.848,1.945-1.945,3.5a1.832,1.832,0,0,1-.2.778c-.1.2-.195.292-.195.486a1.382,1.382,0,0,1,.195-.584,5.638,5.638,0,0,1,1.654-3.6c1.362-1.167.973-3.015,1.556-4.474.389-.973.486-2.14.973-3.113.292-.486.486-1.07,1.264-1.07,2.821,1.848,2.821,1.848,2.14,5.35-.1.486-.1,1.07-.195,1.362,0-.973.486-1.945.486-3.113,0-.584,0-1.264.584-1.556.778-.195,1.07.486,1.459.973a2.127,2.127,0,0,0,.292.486c-.778-2.237-3.5-2.14-4.766-3.793-2.14-3.015-2.626-6.42-2.529-10.018a1.881,1.881,0,0,1,0-1.264c.584-.681.195-1.945,1.264-2.432a1.421,1.421,0,0,1,1.264,1.654c-.486,1.654.292,2.918.778,4.182l-.1-.1a10.149,10.149,0,0,1-.778-2.432c-.1-.486-.292-.973.195-1.264.681-.389.875.292,1.167.584h0a36.6,36.6,0,0,0-2.432-3.015c-.681-1.459,0-2.043,1.459-1.945.1,0,.1-.1.195-.1.1-.1.195-.292.292-.389a1.853,1.853,0,0,1,.973-.486C94.528,48.235,96.279,49.888,97.057,53.973Z" transform="translate(-42.215 -24.279)" fill="#fe5b62"/>
    <path id="Path_46698" data-name="Path 46698" d="M90.073,111.848a142.743,142.743,0,0,0-.778-14.4c-.2-.389-.292-.778.1-1.07a4.681,4.681,0,0,0,.389-2.821,7.127,7.127,0,0,1,1.945-3.793A22.673,22.673,0,0,1,100,82.274c2.529-1.459,4.863-3.21,7.2-4.863,1.459.195,2.14-1.264,3.21-1.751a10.187,10.187,0,0,0,.778,1.07c1.07,2.237.875,3.7-.778,5.252-1.654,1.654-3.113,3.5-4.669,4.377a77.99,77.99,0,0,0,7.587-7.49.759.759,0,0,1,.389-.389,3.319,3.319,0,0,0,1.07-1.751q1.167-4.085,2.626-8.17c.389-.389.681-.973,1.167-1.264.292-2.043,1.459-3.7,2.14-5.544a2.14,2.14,0,0,1,1.459-1.264c1.167-.486,1.945-.584,1.751,1.264-.681,5.933-1.167,11.769-1.654,17.7a5.985,5.985,0,0,1-1.07,3.113c-1.459,2.14-3.015,4.182-4.474,6.322,0,.584-.195.973-.778,1.07-3.988,5.058-8.073,10.116-12.061,15.174-1.07,1.264.292,2.432.292,3.7-.1.973-.875,1.264-1.654,1.459-3.5.778-7.1,1.459-10.6,2.237C91.241,112.626,90.462,112.724,90.073,111.848Z" transform="translate(-42.915 -24.767)" fill="#fdd197"/>
    <path id="Path_46699" data-name="Path 46699" d="M58.72,77.513c2.237,1.459,4.377,2.918,6.614,4.377a1,1,0,0,1,1.167.681,19.818,19.818,0,0,1,9.338,11.088,2.116,2.116,0,0,1,.486,2.237c-.195,5.35-.292,10.6-.486,15.952-.584.973-1.556.681-2.334.486-3.4-.584-6.711-1.362-10.116-2.14-.778-.195-1.751-.292-1.848-1.459,1.07-2.14.389-3.793-1.07-5.544-4.182-5.155-8.268-10.408-12.353-15.66a1.754,1.754,0,0,1-1.167-1.167h.1a1.981,1.981,0,0,1-.875-1.556c-3.6-3.988-2.723-9.143-3.4-13.812-.195-1.167,0-2.334-.486-3.4-.389-.389-.292-.681-.1-1.07v-.389c-.389-.973.1-1.945-.292-2.918,0-.486-.1-.973-.1-1.362-.195-.973-.584-2.043,1.167-1.556,1.459.389,2.043,1.654,2.723,2.821.778,1.07,1.07,2.432,1.848,3.6.1.584.584.973.778,1.556,1.167,3.6,2.14,7.295,3.6,10.894l1.654,1.654c.681-.195,1.07.389,1.362.778a43.35,43.35,0,0,0,5.252,5.155c-1.459-1.459-3.4-3.015-4.961-4.863a2.509,2.509,0,0,1-.875-2.432c0-1.556.1-3.015,1.264-4.182C56.385,76.54,57.163,77.61,58.72,77.513Z" transform="translate(-41.617 -24.766)" fill="#fdd197"/>
    <path id="Path_46700" data-name="Path 46700" d="M72.473,43.84c1.945,2.432,1.945,3.113-.389,5.252-1.751,1.556-4.085,2.237-5.836,3.7-.389.486-.778,1.07-1.167,1.556h-.1c-.195.681-.778,1.167-.778,1.945a21.38,21.38,0,0,0-.584,3.6,4.871,4.871,0,0,0,0,3.113,3.708,3.708,0,0,1-.1,1.459c-.2.778.486,1.362.486,2.14a1.185,1.185,0,0,1-.584,1.167c-.195.1-.486.1-.584-.1a7.6,7.6,0,0,1-3.6-3.988,18.8,18.8,0,0,1-1.556-12.158c.973-4.961,4.182-7.781,8.949-8.949a1.172,1.172,0,0,1,.486-.486c1.264-.681,2.529-.292,3.891.1C71.5,42.77,72.376,42.868,72.473,43.84Z" transform="translate(-42.045 -24.262)" fill="#fe868d"/>
    <path id="Path_46701" data-name="Path 46701" d="M71.185,42.572c-1.264-.195-2.626-.292-3.891-.486-.292-1.459-.389-2.918.778-4.182.778-1.362,1.459-2.626,2.237-3.988.1-.681.195-1.264.875-1.459a21.246,21.246,0,0,0,.292-5.544c-.1-1.459.292-2.334,1.751-2.821.486-.486.973-.389,1.459.1,1.167.778.681,2.14,1.264,3.21.195,0,.195.1.195.195a.1.1,0,0,1-.1.1c.195,2.723.195,2.723,2.723,1.848l2.043-.584c.1.1.292.195.389.389.292,1.07,1.459,1.362,1.751,2.432.1,1.167-.973,1.654-1.459,2.432a3.17,3.17,0,0,1-1.264.389,8.4,8.4,0,0,0-6.711,6.031C72.839,41.5,72.644,42.669,71.185,42.572Z" transform="translate(-42.314 -23.771)" fill="#fcd197"/>
    <path id="Path_46702" data-name="Path 46702" d="M63.583,67.972V66.9c-.486-.584.1-1.362-.389-1.945V63.4a5.994,5.994,0,0,1,0-3.21,7.77,7.77,0,0,1,.778-3.891c.584-.1.584.389.778.778.292.778-.292,1.556,0,2.432a30.637,30.637,0,0,1-.195,3.113,4.882,4.882,0,0,1-.2,1.167,1.392,1.392,0,0,1-.292,1.07c2.334,6.906,7.392,11.283,13.812,14.4,3.307,1.556,6.711,3.21,10.5,3.307,4.572.1,7.781-2.237,9.143-6.711a34.034,34.034,0,0,0,1.264-8.268c.1-1.945.292-3.891.389-5.836.1.1.195.1.292.195.292.195.292.389.1.681.389,3.988.681,7.976-.292,11.964-1.07,4.474-3.307,7.879-7.781,9.727a3.745,3.745,0,0,1-1.751.195,5.643,5.643,0,0,0-3.113,0,4.866,4.866,0,0,1-2.821-.681C78.849,81.4,73.694,79.26,69.22,76.051a22.125,22.125,0,0,1-4.572-4.474C64.653,70.306,63.388,69.333,63.583,67.972Z" transform="translate(-42.201 -24.66)" fill="#ec4c54"/>
    <path id="Path_46703" data-name="Path 46703" d="M71.3,42.834c.778-.584.778-1.459.973-2.237,1.459-4.377,4.182-6.517,8.851-6.906a1.63,1.63,0,0,1,1.167-.292,12.936,12.936,0,0,0,2.918,1.07,3.686,3.686,0,0,1,2.821,2.043,20.323,20.323,0,0,1,2.723,6.711c.195,1.07-.486,1.362-1.362,1.654A4.959,4.959,0,0,1,86.57,44.1a2.126,2.126,0,0,1-.292-.486,12.244,12.244,0,0,1-.389-2.626c-.389-1.362-.875-2.626-2.432-3.015s-2.626.486-3.5,1.556a22.4,22.4,0,0,1-3.113,3.7.729.729,0,0,1-.486-.1c-1.264-.681-2.334.1-3.5.486C72.37,43.32,71.786,43.126,71.3,42.834Z" transform="translate(-42.428 -24.034)" fill="#e7b47f"/>
    <path id="Path_46704" data-name="Path 46704" d="M62.237,110.2c4.669,1.264,9.435,2.043,14.2,3.015,3.307.778,3.307.778,2.432,4.474-2.626-.195-5.058-1.07-7.587-1.556A112.056,112.056,0,0,1,60,113.406c0-.389.1-.778.1-1.167h0C60.389,111.169,60.292,109.613,62.237,110.2Z" transform="translate(-42.119 -26.13)" fill="#fdfefe"/>
    <path id="Path_46705" data-name="Path 46705" d="M90.02,113.213c4.766-.973,9.532-1.751,14.2-3.015,1.264-.292,1.848.195,1.945,1.459a9.828,9.828,0,0,0,.292,1.654c-6.322,1.654-12.547,3.21-18.967,4.28a1.234,1.234,0,0,0-.1-.584C86.907,113.991,86.907,113.991,90.02,113.213Z" transform="translate(-42.861 -26.132)" fill="#fdfefe"/>
    <path id="Path_46706" data-name="Path 46706" d="M89.767,44.646l1.459-1.167c4.085-1.945,7.3-.1,7.49,4.474a14.061,14.061,0,0,1-.973,6.031c-.1-.1-.292-.1-.292-.195-.973-3.21-3.4-4.766-6.42-5.641-.973-.292-2.14-.195-2.334-1.556a1.413,1.413,0,0,1,1.07-1.946Z" transform="translate(-42.901 -24.289)" fill="#fd868d"/>
    <path id="Path_46707" data-name="Path 46707" d="M52.069,79.316A5.8,5.8,0,0,1,50.027,76.3c-.778-2.529-1.654-5.058-2.529-7.587.292-.778-.292-1.459,0-2.237a.759.759,0,0,1,.389-.389c1.945-1.167,2.723.195,3.4,1.556.389.292.292.681.1,1.07C51.68,72.215,51.875,75.717,52.069,79.316Z" transform="translate(-41.775 -24.916)" fill="#eeb87d"/>
    <path id="Path_46708" data-name="Path 46708" d="M118.969,69c-.778,2.626-1.654,5.155-2.432,7.781a3.875,3.875,0,0,1-1.848,2.432,2.584,2.584,0,0,1-.389-1.848,4.818,4.818,0,0,1,.195-1.654c.486-1.264.1-2.529.195-3.793a5.986,5.986,0,0,1,.195-1.848,20.718,20.718,0,0,0,.292-2.432.971.971,0,0,1,.389-.486c.778-1.07,1.459-2.237,3.113-1.167a10.585,10.585,0,0,1,.29,3.015Z" transform="translate(-43.603 -24.914)" fill="#eeb87d"/>
    <path id="Path_46709" data-name="Path 46709" d="M88.338,36.474a17.621,17.621,0,0,0-4.474-1.654,1.479,1.479,0,0,1-1.264-.973c-.1-.875.389-1.362,1.167-1.751,1.459-.389,1.848.292,1.556,1.556.875-.292,1.848-1.751,2.14.389,0,.292.1.292.292.292C90.187,34.431,88.533,35.7,88.338,36.474Z" transform="translate(-42.737 -23.996)" fill="#f4cf97"/>
    <path id="Path_46710" data-name="Path 46710" d="M82.942,31.723A1.9,1.9,0,0,1,80.9,29.389,2.738,2.738,0,0,1,82.845,29c1.264.681.778,1.751.584,2.821a.877.877,0,0,1-.487-.1Z" transform="translate(-42.69 -23.914)" fill="#e7b57f"/>
    <path id="Path_46711" data-name="Path 46711" d="M111.01,76.1c-.778,2.14-1.945,2.723-3.21,1.751a4.015,4.015,0,0,1,3.21-1.751Z" transform="translate(-43.426 -25.201)" fill="#f3f4ef"/>
    <path id="Path_46712" data-name="Path 46712" d="M59.113,77.94c-.389.584-.875.875-1.556.389-.875-.681-1.848-1.264-1.459-2.529A9.465,9.465,0,0,1,59.113,77.94Z" transform="translate(-42.01 -25.194)" fill="#f4f2e9"/>
    <path id="Path_46713" data-name="Path 46713" d="M63.584,68.3c.292,1.264,1.751,2.14,1.167,3.7-1.07-.973-1.264-2.334-1.751-3.5a1.382,1.382,0,0,1,.584-.2Z" transform="translate(-42.201 -24.989)" fill="#ee4b53"/>
    <path id="Path_46714" data-name="Path 46714" d="M82.845,28.988a2.738,2.738,0,0,1-1.945.389v-.389C81.581,28.5,82.262,28.307,82.845,28.988Z" transform="translate(-42.69 -23.902)" fill="#f6bb80"/>
    <path id="Path_46715" data-name="Path 46715" d="M87.4,85.29a3.5,3.5,0,0,1,3.113,0A8.369,8.369,0,0,1,87.4,85.29Z" transform="translate(-42.868 -25.443)" fill="#f84951"/>
    <path id="Path_46716" data-name="Path 46716" d="M76.464,43.372h.389a2.27,2.27,0,0,1,2.723-.875c2.334.389,4.766.778,6.711,2.237.389.195.681.389,1.07.584a20.2,20.2,0,0,0,2.334,3.307l.389.389c.1.389,0,.584-.389.389-.584,0-1.167-.681-1.751-.1-.292.389,0,.778.195,1.167.1.389,0,.486-.389.389-.292.778-.486,1.556-.778,2.432-1.556-.1-.973-1.654-1.556-2.432-.1-.292-.195-.486,0-.778.778-.292,1.654-.486,1.556-1.459-.1-.778-1.07-.584-1.751-.584-3.113-.195-6.031-1.556-9.143-1.945-.875-.1-1.167-.486-.584-1.264A12.671,12.671,0,0,0,76.464,43.372Z" transform="translate(-42.534 -24.28)" fill="#fe878d"/>
    <path id="Path_46717" data-name="Path 46717" d="M86.112,50.7c.681,0,.875.292.778.973a2.447,2.447,0,0,0,.292,1.848v1.07c-.681.875-.389,1.848-.389,2.723a1.829,1.829,0,0,1-1.167,1.945,2.765,2.765,0,0,1-1.167.389.841.841,0,0,1-.584-.292,1.382,1.382,0,0,1-.195-.584c-.486-1.556-1.167-3.21-.292-4.863.486-.778.584-1.848,1.167-2.626C84.944,50.8,85.528,50.9,86.112,50.7Z" transform="translate(-42.747 -24.507)" fill="#fe5b62"/>
    <path id="Path_46718" data-name="Path 46718" d="M89.688,65.2c2.14,1.167,4.474,2.14,5.155,4.863a1.382,1.382,0,0,0,.195.584,2.084,2.084,0,0,1-.1.584c-.973-.681-.875-1.848-1.459-2.626-.292-.389-.486-.875-1.07-.681-.486.1-.389.584-.389.973-.389,2.043-1.07,3.988-.292,6.128-.973-.486-.875-1.362-.875-2.14a7.907,7.907,0,0,1,.1-2.14c.584-2.14.778-4.085-1.654-5.155C89.2,65.2,89.4,65.1,89.688,65.2Z" transform="translate(-42.919 -24.903)" fill="#fe848b"/>
    <path id="Path_46719" data-name="Path 46719" d="M89.573,64.913l-.389.389c-.584,0-.778.486-1.167.778a.759.759,0,0,1-.389-.389c.486-.973-.486-5.155-1.362-5.836-.1-.1-.389.195-.584.389a.616.616,0,0,1-.584-.486.5.5,0,0,1,.292-.681c.973-.486,1.07-1.264,1.07-2.237,0-.778-.195-1.751.778-2.14C87.044,58.3,87.336,61.8,89.573,64.913Z" transform="translate(-42.804 -24.617)" fill="#fe8289"/>
    <path id="Path_46720" data-name="Path 46720" d="M87.677,66c.1.1.195.292.389.389-.389,1.751-.778,3.5-1.264,5.252a4.448,4.448,0,0,1-.875,1.945,9.714,9.714,0,0,0-2.237,4.182c-.292-.195-.1-.584-.389-.778a5.778,5.778,0,0,1,1.751-3.4c.389-.486,1.07-.973.681-1.654-.389-.584-1.07.1-1.654,0-.389.195-.778.389-.778-.389a3.533,3.533,0,0,0,3.6-3.307A8.71,8.71,0,0,1,87.677,66Z" transform="translate(-42.756 -24.926)" fill="#fe838a"/>
    <path id="Path_46721" data-name="Path 46721" d="M83.712,53.986c-.681,1.751-.195,3.4.292,5.058-.195.195,0,.681-.389.778l-.292-.875c-.195-.584,0-1.556-.875-1.459-.973.1-1.07.973-1.07,1.751a7.282,7.282,0,0,1-.195,2.043,2.917,2.917,0,0,1,.1-3.7c1.264-1.167,1.556-2.626,2.14-3.988C83.615,53.4,83.809,53.5,83.712,53.986Z" transform="translate(-42.682 -24.584)" fill="#fe838a"/>
    <path id="Path_46722" data-name="Path 46722" d="M64.486,57.034c-.195-.292-.292-.486-.486-.778A1.932,1.932,0,0,1,65.167,54.7a1.532,1.532,0,0,0,1.264.389c.1.1.389.195.389.389-1.654.292-1.945.973-1.264,2.626.778,1.751,2.237,3.4,1.945,5.544-1.07-.1-.195-1.167-.681-1.556-1.264-1.264-.973.778-1.556.778a.616.616,0,0,1-.584-.486C65.07,60.633,64.584,58.882,64.486,57.034Z" transform="translate(-42.229 -24.617)" fill="#fe8087"/>
    <path id="Path_46723" data-name="Path 46723" d="M66.889,55.577l-.389-.389c2.723-.778,3.7-.584,5.739,1.167-1.362,0-2.237-1.264-3.6-.875a11.334,11.334,0,0,0,3.793,5.155c-1.751-.486-2.043-.875-3.21-2.529C68.64,57.133,68.445,55.674,66.889,55.577Z" transform="translate(-42.297 -24.618)" fill="#fe838a"/>
    <path id="Path_46724" data-name="Path 46724" d="M90.016,48.574c-1.167-.681-2.334-1.362-2.723-2.821-.292-.486-.486-1.07.1-1.459.875-.486,1.556.1,2.237.389-1.07,1.654-.292,2.723,1.167,3.5A5.775,5.775,0,0,1,90.016,48.574Z" transform="translate(-42.857 -24.327)" fill="#fe5e63"/>
    <path id="Path_46725" data-name="Path 46725" d="M88.1,51.089l.389-.389c.875,1.167,1.848,2.334,2.723,3.5a.759.759,0,0,1-.389.389,10.46,10.46,0,0,0-1.459-1.264,6.238,6.238,0,0,0,.973,3.6c.195.389,0,.486-.389.389a5.4,5.4,0,0,1-1.459-4.28,2.039,2.039,0,0,0-.389-1.945Z" transform="translate(-42.887 -24.507)" fill="#fe7f86"/>
    <path id="Path_46726" data-name="Path 46726" d="M84.385,50.757c-1.167-.973-2.821-.681-4.085-1.264a4.078,4.078,0,0,1,4.183.681.458.458,0,0,1-.1.583Z" transform="translate(-42.674 -24.467)" fill="#fe7f86"/>
    <path id="Path_46727" data-name="Path 46727" d="M90.2,57.489l.389-.389a2.124,2.124,0,0,1,.389,2.723A21.658,21.658,0,0,1,90.2,57.489Z" transform="translate(-42.945 -24.682)" fill="#fe8087"/>
    <path id="Path_46728" data-name="Path 46728" d="M85.363,59.2a2.142,2.142,0,0,1-.1.778v.292c-.1.681.195,1.459-.389,2.043a1.7,1.7,0,0,1-.389,1.167,4.542,4.542,0,0,1,0-3.891,3.455,3.455,0,0,1,.878-.389Z" transform="translate(-42.776 -24.74)" fill="#fe565d"/>
    <path id="Path_46729" data-name="Path 46729" d="M83.789,53.921l-.389-.389A8,8,0,0,1,84.567,51.1a.418.418,0,0,1,.389.389C84.567,52.267,84.178,53.045,83.789,53.921Z" transform="translate(-42.759 -24.518)" fill="#fe7e85"/>
    <path id="Path_46730" data-name="Path 46730" d="M83.356,71.7c.292.1.486.292.778.389-.681.389-1.459.778-2.334,1.264C81.9,72.186,82.675,71.992,83.356,71.7Z" transform="translate(-42.715 -25.081)" fill="#fe838a"/>
    <path id="Path_46731" data-name="Path 46731" d="M79.256,49.889c-.584.584-.973.389-1.459.195,0-.1-.1-.292-.1-.389a1.214,1.214,0,0,1,1.559.194Z" transform="translate(-42.603 -24.474)" fill="#fe7e85"/>
    <path id="Path_46732" data-name="Path 46732" d="M83.7,59.978a5.775,5.775,0,0,1,.389-.778.735.735,0,0,0,.1.389,9.193,9.193,0,0,1,0,3.988h0c-.973-.1-.486-.681-.389-1.167a21.16,21.16,0,0,1-.1-2.432Z" transform="translate(-42.764 -24.74)" fill="#fe8990"/>
    <path id="Path_46733" data-name="Path 46733" d="M83.679,79.556c-.1.389.195.875-.584,1.167A3.75,3.75,0,0,1,83.29,78C83.776,78.486,83.29,79.167,83.679,79.556Z" transform="translate(-42.746 -25.254)" fill="#fe7b82"/>
    <path id="Path_46734" data-name="Path 46734" d="M66.9,62.4c.195.486.486.973.681,1.556v.875c-.292.195,0,.584-.389.778C66.606,64.54,66.9,63.47,66.9,62.4Z" transform="translate(-42.306 -24.827)" fill="#fe7a81"/>
    <path id="Path_46735" data-name="Path 46735" d="M84.2,63.488V59.5h.389v3.891a.735.735,0,0,1-.389.1Z" transform="translate(-42.781 -24.748)" fill="#fe6b72"/>
    <path id="Path_46736" data-name="Path 46736" d="M83.69,62.3c.1.389.292.778.389,1.167-.1.389.1.875-.584,1.167a2.822,2.822,0,0,1,.2-2.334Z" transform="translate(-42.757 -24.824)" fill="#fe8086"/>
    <path id="Path_46737" data-name="Path 46737" d="M64.781,62.8l.389.389c-.486.584-.1,1.654-1.07,1.848v-1.07C64.295,63.578,64.1,62.9,64.781,62.8Z" transform="translate(-42.231 -24.838)" fill="#fe848c"/>
    <path id="Path_46738" data-name="Path 46738" d="M84.889,51.467l-.389-.389v-.292a.729.729,0,0,1,.1-.486c.389,0,.778.1,1.167.1l.389.389C85.764,50.981,85.375,51.175,84.889,51.467Z" transform="translate(-42.789 -24.496)" fill="#fe858c"/>
    <path id="Path_46739" data-name="Path 46739" d="M68.489,67.2a2.535,2.535,0,0,1,.875,1.751c-.778-.195-.973-.875-1.264-1.362C68.2,67.395,68.295,67.2,68.489,67.2Z" transform="translate(-42.341 -24.958)" fill="#fe8188"/>
    <path id="Path_46740" data-name="Path 46740" d="M91,54.689l.389-.389a9.981,9.981,0,0,1,1.362.389,1.325,1.325,0,0,1-1.751,0Z" transform="translate(-42.966 -24.606)" fill="#fe888f"/>
    <path id="Path_46741" data-name="Path 46741" d="M65.3,54.656A1.665,1.665,0,0,1,66.467,53.1C66.273,53.781,66.078,54.462,65.3,54.656Z" transform="translate(-42.264 -24.573)" fill="#f2565e"/>
    <path id="Path_46742" data-name="Path 46742" d="M85.393,60l.389.389c-.1.681.1,1.362-.389,1.945A2.8,2.8,0,0,1,85.393,60Z" transform="translate(-42.806 -24.762)" fill="#fe878e"/>
    <path id="Path_46743" data-name="Path 46743" d="M85.291,59.9a18.742,18.742,0,0,0,.1,2.334H85a3.912,3.912,0,0,1,.291-2.334Z" transform="translate(-42.801 -24.759)" fill="#fe676e"/>
    <path id="Path_46744" data-name="Path 46744" d="M83.689,79.534a2.214,2.214,0,0,1-.389-1.556V77.2c.1.292.292.486.389.778Z" transform="translate(-42.756 -25.232)" fill="#fe878e"/>
    <path id="Path_46745" data-name="Path 46745" d="M90.1,49.489l.389-.389c.292.195.778.292.486.681C90.781,50.17,90.392,49.684,90.1,49.489Z" transform="translate(-42.942 -24.464)" fill="#fe7d84"/>
    <path id="Path_46746" data-name="Path 46746" d="M68.473,67.169c-.1.1-.195.292-.389.389a11.409,11.409,0,0,0-.486-1.07c-.195-.389,0-.486.389-.389a11.411,11.411,0,0,1,.486,1.07Z" transform="translate(-42.325 -24.927)" fill="#fe8a91"/>
    <path id="Path_46747" data-name="Path 46747" d="M67.978,65.967l-.389.389c-.1-.292-.292-.486-.389-.778.1-.292.292-.486.389-.778C67.686,65.189,67.881,65.578,67.978,65.967Z" transform="translate(-42.316 -24.893)" fill="#fe7e85"/>
    <path id="Path_46748" data-name="Path 46748" d="M63.19,60.3v3.21a3.713,3.713,0,0,1,0-3.21Z" transform="translate(-42.197 -24.77)" fill="#ed4d55"/>
    <path id="Path_46749" data-name="Path 46749" d="M63.2,65.2a2.738,2.738,0,0,1,.389,1.945A3.35,3.35,0,0,1,63.2,65.2Z" transform="translate(-42.207 -24.904)" fill="#ed4d55"/>
    <path id="Path_46750" data-name="Path 46750" d="M64.772,62.644c-.292.389-.486.778-.778,1.167V62.644a5.643,5.643,0,0,1,0-3.113c.195-.778.292-1.556.486-2.432C65.258,58.851,66.717,60.6,64.772,62.644Z" transform="translate(-42.223 -24.682)" fill="#fe5b62"/>
    <path id="Path_46751" data-name="Path 46751" d="M63.988,59.6v3.113a2.984,2.984,0,0,1,0-3.113Z" transform="translate(-42.216 -24.751)" fill="#ed4d55"/>
    <path id="Path_46752" data-name="Path 46752" d="M86.335,45.171C83.32,44,80.3,42.74,76.9,43.226a12.476,12.476,0,0,1,3.015-4.669c2.529-2.626,5.739-1.751,6.906,1.751a10.686,10.686,0,0,1,.292,3.5C86.724,44.1,87.113,44.977,86.335,45.171Z" transform="translate(-42.581 -24.134)" fill="#fdd197"/>
    <path id="Path_46753" data-name="Path 46753" d="M86.6,45.359c.292-.486.486-.973.778-1.459,0,.1.1.292.1.389,0,.486-.1.973-.1,1.459a1.955,1.955,0,0,1-.778-.389Z" transform="translate(-42.846 -24.322)" fill="#fdd799"/>
  </g>
</svg>
