<svg xmlns="http://www.w3.org/2000/svg" xmlns:xlink="http://www.w3.org/1999/xlink" width="117.2" height="117.199" viewBox="0 0 117.2 117.199">
  <defs>
    <linearGradient id="linear-gradient" y1="0.5" x2="1" y2="0.5" gradientUnits="objectBoundingBox">
      <stop offset="0" stop-color="#ebebeb"/>
      <stop offset="1" stop-color="#fff"/>
    </linearGradient>
    <clipPath id="clip-path">
      <circle id="Ellipse_1292" data-name="Ellipse 1292" cx="58.6" cy="58.6" r="58.6" transform="translate(8.2 8.8)"/>
    </clipPath>
  </defs>
  <g id="cosmetology" transform="translate(-8.2 -8.801)">
    <circle id="Ellipse_1291" data-name="Ellipse 1291" cx="58.6" cy="58.6" r="58.6" transform="translate(8.2 8.8)" fill="url(#linear-gradient)"/>
    <g id="Group_5734" data-name="Group 5734">
      <g id="Group_5733" data-name="Group 5733" clip-path="url(#clip-path)">
        <g id="Group_5730" data-name="Group 5730">
          <path id="Path_40760" data-name="Path 40760" d="M63.5,59.6c.7-1.1-3.3,3.3-3.9,9.1-.2,1.8.6,3.2.8,6.1.2,2.6-2.2,2.5-5.4,6.3-1.3,1.6-2.5,4.6-4.1,6.1-1.1,1,.7,2.7,1.6,2.9,1.4.2,3.5.4,3.5.4l.4,2.9a7.767,7.767,0,0,1,.7,4.2c-.3,1.9-1.3,4,.3,6.6,2.7,4.4,10,1.6,11.6,2.8,3.7,2.6,1.3,10.7.4,12.7a33.057,33.057,0,0,1-3.9,5.4s8.6,3.8,17.8,1.2c9.2-2.7,11.4-6.8,11.4-6.8s-11.8-8.8-7.3-19.8c2.7-6.9-1.1-41.3-1.1-41.3Z" fill="#f4ac81"/>
          <g id="Group_5729" data-name="Group 5729">
            <path id="Path_40761" data-name="Path 40761" d="M57.5,95c3.6.3,4.3.3,4.3.3a4.464,4.464,0,0,1-2.2,2.1c-1.6.7-3.3.5-3.6-.4C55.6,95.8,56.5,95.2,57.5,95Z" fill="#e17a67"/>
            <path id="Path_40762" data-name="Path 40762" d="M55.5,93.6c0,1.4,1.4,1.9,2.3,2.1,3.1.5,3.9-.4,3.9-.4l-5.4-2.9C56.4,92.4,55.5,92.9,55.5,93.6Z" fill="#e3886c"/>
          </g>
          <path id="Path_40763" data-name="Path 40763" d="M86.5,101.7c-3.7-3.3-4.1-9.2-5.4-10.4C89.8,95,88.4,80,84.7,78.1c-3-1.6-5.6,3-5.6,3a11.473,11.473,0,0,0-3.8-7.5c-5.3-5-8.3-3.3-11.9-14-4-11.8,13.9-18,25.3-18.1s19.2,9.1,22.9,18c4.1,9.8,2.7,27.8-1.6,32.2s-5.4,9.4-10.1,11.1S90.2,105,86.5,101.7Z" fill="#62bada"/>
          <path id="Path_40764" data-name="Path 40764" d="M70,64.5c1.8,1.1,3.8,1.8,5.6,2.9,2.2,1.4,2.1,3.1,2.8,5.4.5,1.5,1.1,3.3,2.8,3.7,1.6.4,3.1.3,4.5,1.5a10.08,10.08,0,0,1,3,10.6c-1.3,3.8-2.7,7.8-.6,11.7a14.009,14.009,0,0,0,3,3.6,9.38,9.38,0,0,1-4.6-2.2c-3.7-3.3-4.1-9.2-5.4-10.4C89.8,95,88.4,80,84.7,78.1c-3-1.6-5.6,3-5.6,3a11.473,11.473,0,0,0-3.8-7.5c-5.3-5-8.3-3.3-11.9-14a9.289,9.289,0,0,1-.4-1.3,21.03,21.03,0,0,0,7,6.2Z" fill="#45a2c2"/>
          <path id="Path_40765" data-name="Path 40765" d="M74.6,73.9a21.714,21.714,0,0,0-4.2-3.8c-2.1-1.4-7.1-1.7-8.3-1.3-.3.1,0,2.1.3,2.1s5.4-.6,7.7.3a13.864,13.864,0,0,1,4.5,2.7Z" fill="#593737"/>
          <path id="Path_40766" data-name="Path 40766" d="M80.2,81.9s1.1-3.6,4.1-2.5c1.8.7,2.2,5.5,2.2,5.5s-.7-3.9-2.7-4.7C81.8,79.5,80.2,81.9,80.2,81.9Z" fill="#cb8f6d"/>
          <path id="Path_40767" data-name="Path 40767" d="M83,89.3s-1.4-1.4-.7-2.7c.6-1,2.6.4,2.6.4s-1.5-1-2.1.2a2.269,2.269,0,0,0,.2,2.1Z" fill="#cb8f6d"/>
        </g>
        <g id="Group_5732" data-name="Group 5732">
          <path id="Path_40768" data-name="Path 40768" d="M50.5,66.9a30.479,30.479,0,0,1-3.9-7.1,79.39,79.39,0,0,1-2.1-8.5c-.2-.6-7.5-3.8-7.5-3.8s2.3,12,4.5,16.1a47.748,47.748,0,0,0,7.2,9.3C51.5,75.9,52.9,70.3,50.5,66.9Z" fill="#d79069"/>
          <path id="Path_40769" data-name="Path 40769" d="M49.6,73.2c-2.3-3.8-4.8-7.6-6.1-12.1a47.22,47.22,0,0,1-1.7-10.6l-7.2-.6s3.6,15.5,5.7,20a46.213,46.213,0,0,0,6.6,9.7C49.6,83,51.9,77,49.6,73.2Z" fill="#e49e77"/>
          <path id="Path_40770" data-name="Path 40770" d="M47.8,75.1c-2.5-3.6-4.5-8.4-6.4-12.7a41.557,41.557,0,0,1-2.6-10.1l-7,5s3.3,11.1,5.8,15.5A47.51,47.51,0,0,0,44.9,82C47.7,85.1,50.3,78.8,47.8,75.1Z" fill="#edaa83"/>
          <path id="Path_40771" data-name="Path 40771" d="M39,55.7c3.8,1,8.5-3.1,8.5-3.1s.4-4.8.5-8c0-3.2,1.3-4,1.3-4s-8.2.9-10.5,3.4C36.6,46.5,39.3,54.2,39,55.7Z" fill="#edaa83"/>
          <path id="Path_40772" data-name="Path 40772" d="M47.1-.9S35.9,30.7,34.9,35C34,38.7,31,54.2,31.3,56.2c.2,2.1,8.9,9.9,12.8,13.1,2.5,2,5.7-3.7,3.1-7-2.4-3.1-6.6-6.6-7-7.8-.4-1.1-.3-3.2-.2-5.6,0-2.4,5.9-3.4,6.8-3.3S49,49.5,49,49.5a19.908,19.908,0,0,0-.1,7c1.3,5.5,7.1,3.3,6.8,2-.6-3.1.1-6.8.3-9.4a12.246,12.246,0,0,0-1.5-6.7c-.4-1-6.8-8.4-6.8-8.4L61.2,7.1Z" fill="#f7ba8c"/>
          <g id="Group_5731" data-name="Group 5731">
            <path id="Path_40773" data-name="Path 40773" d="M47.9,64.4a6.39,6.39,0,0,0-1.3-2.9l3.6-1s-.4.9.5,3.1c.6,1.6,1,2.5,1.7,4.5S53.6,72,54,73.5a57.707,57.707,0,0,1,1.2,10V84s-2.6-1.4-5.1-9.1C48.6,70.4,48.7,68.2,47.9,64.4Z" fill="#c7c6c5"/>
            <path id="Path_40774" data-name="Path 40774" d="M49.8,69.3c-.1-.6,1.9-1.2,2.6-1.1.7,2,1.2,3.9,1.6,5.4a57.707,57.707,0,0,1,1.2,10C54.7,83.2,51.2,78,49.8,69.3Z" fill="#d4d4d3"/>
            <path id="Path_40775" data-name="Path 40775" d="M38.6,34.4c.1-1,2.7-1.8,3.6-1a24.542,24.542,0,0,0,.5,2.5c2.1,6,7.7,23.5,7.4,24.6-.3,1.4-2.7,1.8-3.6,1-.7-.7-5.3-18.4-6.9-24.7A8.566,8.566,0,0,0,38.6,34.4Z" fill="#c7c6c5"/>
          </g>
        </g>
      </g>
    </g>
  </g>
</svg>
