<svg id="dentist" xmlns="http://www.w3.org/2000/svg" xmlns:xlink="http://www.w3.org/1999/xlink" width="116.526" height="116.525" viewBox="0 0 116.526 116.525">
  <defs>
    <linearGradient id="linear-gradient" x1="0.001" y1="0.5" x2="1" y2="0.5" gradientUnits="objectBoundingBox">
      <stop offset="0" stop-color="#ebebeb"/>
      <stop offset="1" stop-color="#fff"/>
    </linearGradient>
    <clipPath id="clip-path">
      <circle id="Ellipse_1796" data-name="Ellipse 1796" cx="58.263" cy="58.263" r="58.263" transform="translate(0 0)"/>
    </clipPath>
  </defs>
  <circle id="Ellipse_1795" data-name="Ellipse 1795" cx="58.263" cy="58.263" r="58.263" transform="translate(0 0)" fill="url(#linear-gradient)"/>
  <g id="Group_7440" data-name="Group 7440">
    <g id="Group_7439" data-name="Group 7439" clip-path="url(#clip-path)">
      <g id="Group_7426" data-name="Group 7426" transform="translate(42.992 8.447)">
        <path id="Path_46778" data-name="Path 46778" d="M96.8,36.458l49.8,11.575,3.113-2.043L99.329,31.4Z" transform="translate(-66.258 -24.868)" fill="#897e76"/>
        <path id="Path_46779" data-name="Path 46779" d="M96.8,36.458l19.648,4.572,8.268-.292,25,5.252L99.329,31.4Z" transform="translate(-66.258 -24.868)" fill="#66574d"/>
        <path id="Path_46780" data-name="Path 46780" d="M99.1,35.857a2.2,2.2,0,0,0,1.556,2.918,2.613,2.613,0,0,0,3.21-1.362A2.2,2.2,0,0,0,102.31,34.5,2.522,2.522,0,0,0,99.1,35.857Z" transform="translate(-66.317 -24.948)" fill="#443731"/>
        <path id="Path_46781" data-name="Path 46781" d="M100,36.17a1.552,1.552,0,0,0,.973,2.043,1.908,1.908,0,0,0,2.237-.973,1.552,1.552,0,0,0-.973-2.043A1.814,1.814,0,0,0,100,36.17Z" transform="translate(-66.343 -24.97)" fill="#66574d"/>
        <path id="Path_46782" data-name="Path 46782" d="M75.4,35.691S90.087,24.213,93.492,24.7s10.116,6.128,10.019,7.2c-.292,2.626-12.937,13.715-12.937,13.715Z" transform="translate(-65.673 -24.685)" fill="#ccc0b6"/>
        <path id="Path_46783" data-name="Path 46783" d="M102.054,30.1c.195,4.474-12.353,8.851-12.353,8.851L79,33.115c-2.14,1.556-3.5,2.626-3.5,2.626L90.576,45.76s12.645-11.088,12.937-13.715C103.513,31.656,102.929,30.975,102.054,30.1Z" transform="translate(-65.676 -24.833)" fill="#ad9584"/>
        <path id="Path_46784" data-name="Path 46784" d="M65.4,41.751,77.461,32.9,92.635,45.156,83.4,51.673Z" transform="translate(-65.4 -24.909)" fill="#e5d9d1"/>
        <path id="Path_46785" data-name="Path 46785" d="M87.923,47.115,74.5,36.8l3.891-3.4L92.884,45.169l-9.24,6.517Z" transform="translate(-65.649 -24.923)" fill="#cebbae"/>
        <path id="Path_46786" data-name="Path 46786" d="M67,42.05l7.2-5.35L87.72,47.2l-4.863,3.5Z" transform="translate(-65.444 -25.013)" fill="#9e8f85"/>
        <path id="Path_46787" data-name="Path 46787" d="M67,42.05l7.2-5.35,8.268,8.559L80.52,47.3Z" transform="translate(-65.444 -25.013)" fill="#726054"/>
        <path id="Path_46788" data-name="Path 46788" d="M67,42.1l9.143-3.6,8.949,6.809-2.237,5.447Z" transform="translate(-65.444 -25.062)" fill="#ada19a"/>
        <path id="Path_46789" data-name="Path 46789" d="M72,40.126,84.061,48.2,86.3,46.06,75.307,37.5Z" transform="translate(-65.58 -25.035)" fill="#fcddb4"/>
        <path id="Path_46790" data-name="Path 46790" d="M141.9,46.553c-.1,1.07,2.237,2.14,5.252,2.237,3.015.195,5.447-.584,5.544-1.654S150.459,45,147.444,44.9C144.429,44.7,141.9,45.483,141.9,46.553Z" transform="translate(-67.49 -25.236)" fill="#897e76"/>
        <path id="Path_46791" data-name="Path 46791" d="M143.5,46.667c-.1.778,1.556,1.459,3.7,1.556s3.793-.389,3.891-1.167-1.654-1.459-3.7-1.556S143.6,45.889,143.5,46.667Z" transform="translate(-67.534 -25.253)" fill="#564941"/>
        <path id="Path_46792" data-name="Path 46792" d="M145,46.778c0,.486.973.973,2.334.973,1.264.1,2.432-.292,2.432-.778S148.793,46,147.432,46,145,46.292,145,46.778Z" transform="translate(-67.575 -25.267)" fill="#897e76"/>
        <path id="Path_46793" data-name="Path 46793" d="M74.6,41.548l9.532,6.711,2.237-2.043L77.323,39.7Z" transform="translate(-65.651 -25.095)" fill="#fff2ca"/>
        <g id="Group_7425" data-name="Group 7425" transform="translate(19.064 1.571)">
          <path id="Path_46794" data-name="Path 46794" d="M85,31.571,92.879,37.5l4.961-4.669a1.951,1.951,0,0,0,.681-1.654,1.715,1.715,0,0,0-.778-1.459l-3.015-2.237a3.256,3.256,0,0,0-3.5,0Z" transform="translate(-85 -26.318)" fill="#726054"/>
          <path id="Path_46795" data-name="Path 46795" d="M86.181,30.2l-.681.778L94.157,37.3l.681-.778Z" transform="translate(-85.014 -26.407)" fill="#ccc0b6"/>
          <path id="Path_46796" data-name="Path 46796" d="M87.878,28.9l-.778.681L95.854,36l.681-.778Z" transform="translate(-85.057 -26.371)" fill="#ccc0b6"/>
          <path id="Path_46797" data-name="Path 46797" d="M89.481,27.6l-.681.681,8.657,6.42.778-.778Z" transform="translate(-85.104 -26.336)" fill="#ccc0b6"/>
          <path id="Path_46798" data-name="Path 46798" d="M91.181,26.3l-.681.681,8.657,6.42.681-.778Z" transform="translate(-85.15 -26.3)" fill="#ccc0b6"/>
        </g>
        <path id="Path_46799" data-name="Path 46799" d="M131.1,112.284a.689.689,0,1,0,.681-.584A.65.65,0,0,0,131.1,112.284Z" transform="translate(-67.195 -27.063)" fill="#e5d3c7"/>
      </g>
      <g id="Group_7433" data-name="Group 7433" transform="translate(39.199 39.087)">
        <g id="Group_7427" data-name="Group 7427" transform="translate(11.647 12.622)">
          <path id="Path_46800" data-name="Path 46800" d="M75.954,70.7c.486.875.778,3.307,1.07,4.377l-.875.195c-.584-1.264-1.848-2.821-1.848-3.307C74.3,71.769,75.759,70.407,75.954,70.7Z" transform="translate(-73.496 -69.204)" fill="#c0edff"/>
          <path id="Path_46801" data-name="Path 46801" d="M74.569,72.457C74.277,72.068,73.3,71.193,73.5,71c.292-.292.973.486,1.362.875C75.347,72.457,74.569,72.457,74.569,72.457Z" transform="translate(-73.474 -69.211)" fill="#c0edff"/>
          <path id="Path_46802" data-name="Path 46802" d="M75.58,71.144c-.195-.486-.875-1.848-.681-1.945.389-.292,1.07,1.264,1.167,1.751C76.358,71.631,75.58,71.144,75.58,71.144Z" transform="translate(-73.512 -69.163)" fill="#c0edff"/>
          <path id="Path_46803" data-name="Path 46803" d="M76.1,71.467c.875.292.681-1.07,1.167-1.167.681-.1-.195,2.043-.584,2.723S76.1,71.467,76.1,71.467Z" transform="translate(-73.546 -69.194)" fill="#c0edff"/>
          <path id="Path_46804" data-name="Path 46804" d="M74.972,71.544C74.68,71.155,73.8,69.7,74,69.6c.292-.292,1.167,1.167,1.459,1.556C75.847,71.739,74.972,71.544,74.972,71.544Z" transform="translate(-73.487 -69.174)" fill="#c0edff"/>
        </g>
        <path id="Path_46805" data-name="Path 46805" d="M72.9,133.335H88.366L85.058,116.8l-9.629.292Z" transform="translate(-61.812 -57.843)" fill="#ddb499"/>
        <g id="Group_7429" data-name="Group 7429" transform="translate(28.28 27.486)">
          <path id="Path_46806" data-name="Path 46806" d="M94.034,142.567a1.167,1.167,0,1,0-1.167,1.167,1.124,1.124,0,0,0,1.167-1.167Z" transform="translate(-90.606 -86.002)" fill="#563e37"/>
          <path id="Path_46807" data-name="Path 46807" d="M110.534,142.567a1.167,1.167,0,1,0-1.167,1.167,1.183,1.183,0,0,0,1.167-1.167Z" transform="translate(-91.057 -86.002)" fill="#563e37"/>
          <path id="Path_46808" data-name="Path 46808" d="M101.934,142.567a1.167,1.167,0,1,0-1.167,1.167,1.183,1.183,0,0,0,1.167-1.167Z" transform="translate(-90.822 -86.002)" fill="#563e37"/>
          <path id="Path_46809" data-name="Path 46809" d="M100,121.4v17.313l1.264.1V121.4Z" transform="translate(-90.833 -85.455)" fill="#563e37"/>
          <path id="Path_46810" data-name="Path 46810" d="M94.1,141.026h14.2s-4.085-2.626-7.49-2.626C97.407,138.5,94.1,141.026,94.1,141.026Z" transform="translate(-90.671 -85.92)" fill="#563e37"/>
          <path id="Path_46811" data-name="Path 46811" d="M91.9,119.6h17.022a20.584,20.584,0,0,1-9.629,2.432C96.569,122.032,91.9,119.6,91.9,119.6Z" transform="translate(-90.611 -85.406)" fill="#563e37"/>
          <path id="Path_46812" data-name="Path 46812" d="M113.413,107.94a3.018,3.018,0,0,1-2.918,2.432h-8.268a2.738,2.738,0,0,1-2.043-.973,2.6,2.6,0,0,1-.486-2.237l4.085-19.842a2.8,2.8,0,0,1,2.237-2.237,24.055,24.055,0,0,1,9.435-.292,2.461,2.461,0,0,1,1.848,2.918Z" transform="translate(-90.822 -84.445)" fill="#c19178"/>
          <path id="Path_46813" data-name="Path 46813" d="M109.469,120.037a1.18,1.18,0,0,0,.778-1.264,1.133,1.133,0,0,0-1.07-.973H91.572a.947.947,0,0,0-.973.778.992.992,0,0,0,.584,1.167,3.248,3.248,0,0,0,1.459.292h16.341A.674.674,0,0,0,109.469,120.037Z" transform="translate(-90.575 -85.357)" fill="#ddba9b"/>
          <path id="Path_46814" data-name="Path 46814" d="M112.313,107.94a3.018,3.018,0,0,1-2.918,2.432h-8.268a2.738,2.738,0,0,1-2.043-.973,2.6,2.6,0,0,1-.486-2.237l4.085-19.842a2.8,2.8,0,0,1,2.237-2.237,24.055,24.055,0,0,1,9.435-.292,2.461,2.461,0,0,1,1.848,2.918Z" transform="translate(-90.792 -84.445)" fill="#ddba9b"/>
          <g id="Group_7428" data-name="Group 7428" transform="translate(0 32.541)">
            <path id="Path_46815" data-name="Path 46815" d="M109.5,120.2Z" transform="translate(-91.092 -117.963)" fill="#ddca9f"/>
            <path id="Path_46816" data-name="Path 46816" d="M90.6,118.678a.947.947,0,0,1,.973-.778H101.1a.947.947,0,0,0-.973.778.992.992,0,0,0,.584,1.167,3.248,3.248,0,0,0,1.459.292H92.642a3.248,3.248,0,0,1-1.459-.292A.992.992,0,0,1,90.6,118.678Z" transform="translate(-90.575 -117.9)" fill="#c19178"/>
          </g>
        </g>
        <path id="Path_46817" data-name="Path 46817" d="M95.943,78.4c-2.918.292-13.131,6.711-16.438,5.836-2.237-.584-4.377,3.21-2.918,5.155.875,1.264,11.867.875,15.757-1.751C96.429,84.916,101,77.913,95.943,78.4Z" transform="translate(-61.899 -56.792)" fill="#fff8dc"/>
        <path id="Path_46818" data-name="Path 46818" d="M97.5,78.6a16.524,16.524,0,0,1-5.35,6.322c-3.891,2.626-14.59,3.015-15.757,1.848a3.075,3.075,0,0,0,.292,2.626c.875,1.264,11.867.875,15.757-1.751C95.946,85.311,99.74,79.767,97.5,78.6Z" transform="translate(-61.903 -56.798)" fill="#edd7b7"/>
        <path id="Path_46819" data-name="Path 46819" d="M76.389,117.613H93.9c4.377,0,8.268-5.544,7.49-7.295-.584-1.459-6.031-3.891-7.684-2.529a5.027,5.027,0,0,1-3.6,1.167c-4.28.2-14.1,3.988-14.1,3.988Z" transform="translate(-61.896 -57.585)" fill="#4c2e2d"/>
        <path id="Path_46820" data-name="Path 46820" d="M66.655,143.746H61.5s3.793-2.432,4.766-1.848S66.655,143.746,66.655,143.746Z" transform="translate(-61.5 -58.526)" fill="#ddc4ab"/>
        <path id="Path_46821" data-name="Path 46821" d="M72.714,117.282c.389-.973,2.723-4.572,3.307-4.182s1.654,7.295.973,9.921-10.116,18.772-10.116,18.772L66.1,141.6C66,141.6,72.033,119.032,72.714,117.282Z" transform="translate(-61.626 -57.741)" fill="#5e3f3d"/>
        <path id="Path_46822" data-name="Path 46822" d="M105.117,114.454c2.432,1.556,7.879-18.772,2.14-31.32-1.556-3.5-8.462-8.365-12.645-4.474-1.751,1.654-4.28,4.377-2.14,14.4C95,104.824,91.5,108.034,91.5,108.034a63.057,63.057,0,0,1,13.617,6.42Z" transform="translate(-62.32 -56.761)" fill="#b8c462"/>
        <path id="Path_46823" data-name="Path 46823" d="M101.27,108.335c.389-2.237-.584-9.435-.875-10.8S99.811,84.5,102.632,81.1c0,0,3.5,25.192,2.043,28.013Z" transform="translate(-62.558 -56.867)" fill="#9da345"/>
        <path id="Path_46824" data-name="Path 46824" d="M94.7,79.673a9.487,9.487,0,0,0,3.307,4.28l6.128-4.474L101.7,78.7Z" transform="translate(-62.407 -56.801)" fill="#ecf487"/>
        <path id="Path_46825" data-name="Path 46825" d="M93.732,108.972c.875-1.167,2.237-2.237,1.945-4.766S94.413,81.251,95.288,79.5c0,0-1.751-.1-2.14,3.5s.389,20.037-.195,21.593a39.492,39.492,0,0,1-1.654,3.6Z" transform="translate(-62.314 -56.823)" fill="#9da345"/>
        <path id="Path_46826" data-name="Path 46826" d="M76.1,112.027c5.155-.778,14.687-1.07,16.925-5.447,2.237-4.28-2.237-21.885,2.918-29.18,0,0-7.3,2.723-5.642,11.867s1.848,15.076.584,17.022C89.231,108.914,82.617,108.233,76.1,112.027Z" transform="translate(-61.899 -56.766)" fill="#fff8dc"/>
        <path id="Path_46827" data-name="Path 46827" d="M97.923,83.143l5.739-3.988s-4.085-3.5-8.268-.1C94.324,79.836,97.923,83.143,97.923,83.143Z" transform="translate(-62.421 -56.77)" fill="#ffdeb3"/>
        <path id="Path_46828" data-name="Path 46828" d="M103.322,78.945s-1.167-8.17-2.821-12.645L97,67.564v10.6Z" transform="translate(-62.47 -56.462)" fill="#ffdeb3"/>
        <path id="Path_46829" data-name="Path 46829" d="M85.484,117.269h15.757a4.714,4.714,0,0,0,4.572-5.933c-1.07-2.626-7.49-2.334-8.073-2.237-3.988.195-12.839,3.891-12.839,3.891Z" transform="translate(-62.139 -57.631)" fill="#5e3f3d"/>
        <path id="Path_46830" data-name="Path 46830" d="M88.585,111.6c1.556,1.362,5.642,2.14,10.408,1.751a30.027,30.027,0,0,0,7-1.556c.486,1.945-.778,6.031-4.669,6.031H84.986l-.486-4.669C84.6,113.156,86.348,112.378,88.585,111.6Z" transform="translate(-62.129 -57.701)" fill="#4c2e2d"/>
        <path id="Path_46831" data-name="Path 46831" d="M83.1,117.282c.1-.973,1.07-4.572,1.751-4.182.778.389,4.28,7.295,4.572,9.921.195,2.626-3.21,18.772-3.21,18.772l-.875-.2C85.24,141.6,83,119.032,83.1,117.282Z" transform="translate(-62.09 -57.741)" fill="#4c2e2d"/>
        <path id="Path_46832" data-name="Path 46832" d="M74,75.075l1.654,12.742s.681,1.556,1.654,1.654,3.5-.973,3.7-2.043S77.891,74.2,77.891,74.2Z" transform="translate(-61.842 -56.678)" fill="#fff8dc"/>
        <path id="Path_46833" data-name="Path 46833" d="M94.075,117.42l-1.848,17.508-5.544-.681s-1.751-18.189.584-19.259,15.952-4.182,16.341-6.614S97.09,89.991,103.218,79c0,0,4.182.584,5.836,5.933,1.654,5.447,3.5,23.344-1.751,31.612Z" transform="translate(-62.171 -56.809)" fill="#fff8dc"/>
        <path id="Path_46834" data-name="Path 46834" d="M108.988,84.944a8.763,8.763,0,0,0-4.474-5.544c1.167,2.626,1.848,6.906,1.848,11.866,0,6.809-1.459,12.547-3.307,14.006a9.475,9.475,0,0,1,.486,3.113c-.389,2.432-14.006,5.544-16.341,6.614,2.14,2.821,4.961,19.94,4.961,19.94l1.848-17.508,13.131-.584C112.49,108.58,110.544,90.294,108.988,84.944Z" transform="translate(-62.202 -56.82)" fill="#edd7b7"/>
        <path id="Path_46835" data-name="Path 46835" d="M116.525,95.441c.681-2.432-3.7-15.854-12.256-16.341-1.654-.1-1.654,3.015,1.362,7.295s4.474,7.295,4.474,9.046C110.1,96.8,115.649,98.456,116.525,95.441Z" transform="translate(-62.638 -56.812)" fill="#fff8dc"/>
        <g id="Group_7430" data-name="Group 7430" transform="translate(31.024 39.814)">
          <path id="Path_46836" data-name="Path 46836" d="M95.2,98.7c.973-.195,3.307.292,4.474.389l-.1.875c-1.362.195-3.21.875-3.7.681C95.685,100.547,94.906,98.8,95.2,98.7Z" transform="translate(-93.443 -97.16)" fill="#c0edff"/>
          <path id="Path_46837" data-name="Path 46837" d="M96.45,100.587c-.486.1-1.654.778-1.751.584-.195-.389.778-.778,1.264-.973C96.742,99.906,96.45,100.587,96.45,100.587Z" transform="translate(-93.431 -97.201)" fill="#c0edff"/>
          <path id="Path_46838" data-name="Path 46838" d="M95.54,99.184c-.486,0-2.043.292-2.14,0-.1-.389,1.556-.584,2.043-.584C96.221,98.7,95.54,99.184,95.54,99.184Z" transform="translate(-93.396 -97.159)" fill="#c0edff"/>
          <path id="Path_46839" data-name="Path 46839" d="M95.978,98.754c.584-.681-.778-.973-.778-1.459.1-.681,1.848.778,2.334,1.459C98.118,99.338,95.978,98.754,95.978,98.754Z" transform="translate(-93.445 -97.118)" fill="#c0edff"/>
          <path id="Path_46840" data-name="Path 46840" d="M95.737,99.983c-.486.1-2.043.486-2.237.292-.195-.389,1.459-.681,1.945-.875C96.223,99.2,95.737,99.983,95.737,99.983Z" transform="translate(-93.398 -97.18)" fill="#c0edff"/>
        </g>
        <path id="Path_46841" data-name="Path 46841" d="M98.884,102.03l15.757-4.28s1.945-.875,1.751-1.945-3.7-4.182-4.474-3.21c-1.07,1.362-13.617,4.961-13.617,4.961Z" transform="translate(-62.506 -57.176)" fill="#fff8dc"/>
        <g id="Group_7431" data-name="Group 7431" transform="translate(12.158 17.425)">
          <path id="Path_46842" data-name="Path 46842" d="M80.623,84.41C80.137,81.395,78,74.1,78,74.1h-.1c.584,3.21,1.459,7.879,1.654,8.657C79.845,83.535,79.943,84.021,80.623,84.41Z" transform="translate(-74.107 -74.1)" fill="#edd7b7"/>
          <path id="Path_46843" data-name="Path 46843" d="M81.2,87.256a13.4,13.4,0,0,1-4.766-.778L74.292,75,74,75.1l1.264,12.936s1.07,1.459,2.043,1.556S83.24,88.131,81.2,87.256Z" transform="translate(-74 -74.125)" fill="#edd7b7"/>
        </g>
        <path id="Path_46844" data-name="Path 46844" d="M91.566,95.6l-.584-10.8a6.371,6.371,0,0,0-.486,4.085C90.885,91.122,91.566,95.6,91.566,95.6Z" transform="translate(-62.289 -56.968)" fill="#edd7b7"/>
        <path id="Path_46845" data-name="Path 46845" d="M76.021,113.1c-.195-.195-.681.195-1.07.778,1.167,1.654,1.556,4.669.292,9.435-1.654,6.225-5.642,13.52-8.462,15.465-.486,1.654-.681,2.723-.681,2.723l.778.2s9.338-16.146,10.116-18.772C77.675,120.394,76.6,113.585,76.021,113.1Z" transform="translate(-61.626 -57.74)" fill="#4c2e2d"/>
        <path id="Path_46846" data-name="Path 46846" d="M116.694,96.162a4.959,4.959,0,0,0-.875-1.362c-.1.973-1.751,1.751-1.751,1.751L98.7,100.344l.292,1.751,16.049-3.988C114.944,98.107,116.889,97.232,116.694,96.162Z" transform="translate(-62.517 -57.241)" fill="#e2c7a3"/>
        <path id="Path_46847" data-name="Path 46847" d="M104.9,79.1c7.392,2.14,11.38,13.909,10.8,16.146-.389,1.459-1.945,1.751-3.4,1.654,1.848.584,4.28.486,4.766-1.362C117.642,93.106,113.07,80.073,104.9,79.1Z" transform="translate(-62.686 -56.812)" fill="#e2c7a3"/>
        <path id="Path_46848" data-name="Path 46848" d="M97.893,85.438c3.6.973,6.322-2.821,8.462-6.225a.34.34,0,0,1-.195-.1h0a15.1,15.1,0,0,0-2.043-.389h-.292c-.195,0-.292-.1-.389-.1s-.1-.1-.195-.1C103.048,77.17,102.27,72.7,101.3,69a20.341,20.341,0,0,0-4.28,3.307V77.17c-.195.1-.486.1-.681.195a.209.209,0,0,1,.2-.195A8.594,8.594,0,0,0,94.2,78.629C93.71,81.547,94.586,84.563,97.893,85.438Z" transform="translate(-62.39 -56.536)" fill="#bc5642" opacity="0.5"/>
        <g id="Group_7432" data-name="Group 7432" transform="translate(26.952)">
          <path id="Path_46849" data-name="Path 46849" d="M102.165,71.781s5.447-8.559,5.252-9.629c-.195-.973-1.945-2.237-2.432-2.334,0,0-1.167-2.334-2.918-2.626-1.848-.389-5.447-.973-7.781,2.334,0,0-.778,2.14-.389,7.879C94.189,73.046,102.165,71.781,102.165,71.781Z" transform="translate(-89.335 -56.205)" fill="#7f4036"/>
          <path id="Path_46850" data-name="Path 46850" d="M103.94,62.623a13.52,13.52,0,0,0,1.167-2.723,4.353,4.353,0,0,1,2.432,2.334c.195.973-5.252,9.629-5.252,9.629s-5.544.875-7.587-2.043C97.813,69.724,101.606,67,103.94,62.623Z" transform="translate(-89.36 -56.287)" fill="#5b2e28"/>
          <path id="Path_46851" data-name="Path 46851" d="M90.2,73.1a25.8,25.8,0,0,0,3.21-7.879C94.091,61.139,94.48,59.1,97.4,59c3.015-.1,7.3-.389,5.933,5.641S96.62,76.312,96.62,76.312Z" transform="translate(-89.237 -56.262)" fill="#ffdeb3"/>
          <path id="Path_46852" data-name="Path 46852" d="M91.437,70.7s-1.07,1.654-1.945,2.918c-.584.778-.584,3.7,3.21,4.766a6.267,6.267,0,0,0,7.587-3.988c.973-2.626,2.14-5.739,2.626-5.739.584,0,1.654-5.35,1.654-5.35L103.11,60.1s-4.085,12.742-5.836,13.034C93.966,73.62,91.437,70.7,91.437,70.7Z" transform="translate(-89.21 -56.293)" fill="#7f4036"/>
          <path id="Path_46853" data-name="Path 46853" d="M100,71.894c1.264-3.4,3.891-7,4.182-10.894l.875,2.043s-1.264,5.739-1.848,5.739-1.751,3.015-2.626,5.641a6.293,6.293,0,0,1-7.683,3.89C95.234,77.243,98.444,75.784,100,71.894Z" transform="translate(-89.31 -56.317)" fill="#5b2e28"/>
          <path id="Path_46854" data-name="Path 46854" d="M102.262,60.7A24.517,24.517,0,0,1,93.8,57a31.083,31.083,0,0,1,7.879,1.848C105.18,60.307,103.138,60.7,102.262,60.7Z" transform="translate(-89.335 -56.208)" fill="#7f4036"/>
          <path id="Path_46855" data-name="Path 46855" d="M103.154,59.415A26.7,26.7,0,0,1,94.4,56.4a16.322,16.322,0,0,1,5.544,1.167C103.543,58.734,104.029,59.415,103.154,59.415Z" transform="translate(-89.351 -56.192)" fill="#7f4036"/>
          <path id="Path_46856" data-name="Path 46856" d="M103.506,58.826A16.76,16.76,0,0,1,96.6,56.2a10.521,10.521,0,0,1,4.474.875C103.992,58.242,104.284,58.826,103.506,58.826Z" transform="translate(-89.411 -56.186)" fill="#7f4036"/>
          <path id="Path_46857" data-name="Path 46857" d="M95.013,67.4,91.9,72.75s1.751.584,2.334.1C94.818,72.263,95.013,67.4,95.013,67.4Z" transform="translate(-89.283 -56.492)" fill="#ffdeb3"/>
          <path id="Path_46858" data-name="Path 46858" d="M104.2,71.983s.292.486.584.486.486-.486.292-.973C105.075,71.01,104.2,71.983,104.2,71.983Z" transform="translate(-89.619 -56.601)" fill="#5b413c"/>
          <path id="Path_46859" data-name="Path 46859" d="M101.5,72.6c.195.778,5.058-.875,4.182-2.723-.584-1.167-3.113-.875-3.793-.195C101.107,70.364,101.4,72.018,101.5,72.6Z" transform="translate(-89.542 -56.538)" fill="#ffdeb3"/>
          <path id="Path_46860" data-name="Path 46860" d="M102,72.14c.1.486,3.113-.486,2.529-1.654-.389-.778-1.848-.486-2.334-.1C101.8,70.778,101.9,71.751,102,72.14Z" transform="translate(-89.557 -56.563)" fill="#ef8f6f"/>
          <path id="Path_46861" data-name="Path 46861" d="M101.993,72.557c.1.195,1.751-.778,1.167-1.362-.292-.389-1.167,0-1.362.292S101.9,72.363,101.993,72.557Z" transform="translate(-89.552 -56.592)" fill="#ffdeb3"/>
          <path id="Path_46862" data-name="Path 46862" d="M96.7,74.392c.195.292.681.1.389-.195C96.893,74,96.5,74.1,96.7,74.392Z" transform="translate(-89.413 -56.675)" fill="#49221f"/>
        </g>
        <path id="Path_46863" data-name="Path 46863" d="M86.155,143.746H81s3.793-2.432,4.766-1.848C86.836,142.481,86.155,143.746,86.155,143.746Z" transform="translate(-62.033 -58.526)" fill="#ddc4ab"/>
      </g>
      <g id="Group_7438" data-name="Group 7438" transform="translate(7.299 51.432)">
        <g id="Group_7435" data-name="Group 7435" transform="translate(25.673 21.242)">
          <path id="Path_46864" data-name="Path 46864" d="M72.167,105.661c.195-.681.1-1.264-.195-1.362s-.681.389-.875,1.07-.1,1.264.195,1.362C71.681,106.731,72.07,106.245,72.167,105.661Z" transform="translate(-55.533 -91.087)" fill="#843a35"/>
          <path id="Path_46865" data-name="Path 46865" d="M70.967,110.461c.195-.681.1-1.264-.195-1.362s-.681.389-.875,1.07-.1,1.264.195,1.362S70.773,111.142,70.967,110.461Z" transform="translate(-55.5 -91.218)" fill="#843a35"/>
          <path id="Path_46866" data-name="Path 46866" d="M62.881,91.284c2.626,1.459,7.781,13.423,9.629,14.687,1.945,1.362-2.723,4.863-4.085,4.182S55.392,98,55.1,94.2C55,92.548,59.38,89.436,62.881,91.284Z" transform="translate(-55.098 -90.716)" fill="#964d44"/>
          <path id="Path_46867" data-name="Path 46867" d="M66,106.713a9.909,9.909,0,0,1,4.961-3.113l.389.584-3.015,4.085Z" transform="translate(-55.396 -91.068)" fill="#843a35"/>
          <path id="Path_46868" data-name="Path 46868" d="M70.282,108.534c-1.264-.486-10.991-8.073-14.882-13.034,1.945,4.572,11.867,14.493,13.034,15.174,1.07.584,4.28-1.848,4.474-3.5C72.033,108.145,70.963,108.825,70.282,108.534Z" transform="translate(-55.107 -90.847)" fill="#843a35"/>
          <path id="Path_46869" data-name="Path 46869" d="M72.278,105.3c-1.945-.778-5.642,1.362-3.891,4.572,1.751,3.307,14.493,3.113,17.411,3.5l-.486-.681C83.95,112.3,74.223,105.976,72.278,105.3Z" transform="translate(-55.449 -91.11)" fill="#ffdeb3"/>
          <path id="Path_46870" data-name="Path 46870" d="M69.741,109.188a3.04,3.04,0,0,1,.875-3.988c-1.848.389-3.891,2.237-2.529,4.766,1.751,3.307,14.785,3.015,17.605,3.4l-.486-.681C80.635,112.4,71.2,111.911,69.741,109.188Z" transform="translate(-55.441 -91.112)" fill="#f9ad8f"/>
          <path id="Path_46871" data-name="Path 46871" d="M70.245,110.441c-.195-.875,1.07-3.5,2.334-4.961l-.973-.681L68.3,109.177Z" transform="translate(-55.459 -91.101)" fill="#f9ad8f"/>
          <path id="Path_46872" data-name="Path 46872" d="M70.121,111.29c.1.486-2.334-.292-2.626-1.07-.389-.681-.584-4.766,3.891-6.42l.584.389C71.969,104.286,69.635,108.372,70.121,111.29Z" transform="translate(-55.432 -91.074)" fill="#c96e67"/>
          <path id="Path_46873" data-name="Path 46873" d="M71,105.464c-1.07,1.264-1.751,2.529-2.626,2.043a1,1,0,0,1-.486-.584,4.574,4.574,0,0,0-.292,3.307c.389.681,2.723,1.556,2.626,1.07-.389-2.918,1.848-7,1.848-7l-.195-.1C71.583,104.492,71.388,104.978,71,105.464Z" transform="translate(-55.435 -91.085)" fill="#b2544f"/>
          <g id="Group_7434" data-name="Group 7434" transform="translate(27.139 20.41)">
            <path id="Path_46874" data-name="Path 46874" d="M88.447,113.159c-.973-.584-3.891-1.07-5.058-1.459l-.389.875c1.459.681,3.113,2.14,3.7,2.237C86.793,114.813,88.739,113.354,88.447,113.159Z" transform="translate(-83 -111.7)" fill="#ffdeb3"/>
            <path id="Path_46875" data-name="Path 46875" d="M86.4,114.687c.486.292,1.556,1.264,1.751,1.07.389-.292-.584-.973-1.07-1.362C86.5,113.909,86.4,114.687,86.4,114.687Z" transform="translate(-83.093 -111.769)" fill="#ffdeb3"/>
            <path id="Path_46876" data-name="Path 46876" d="M87.9,113.483c.486.195,1.751.973,1.945.681.389-.389-1.07-1.07-1.556-1.264C87.41,112.7,87.9,113.483,87.9,113.483Z" transform="translate(-83.13 -111.732)" fill="#ffdeb3"/>
            <path id="Path_46877" data-name="Path 46877" d="M87.546,112.87c-.195-.875,1.362-.292,1.556-.778.195-.584-2.432-.195-3.307.1C84.92,112.578,87.546,112.87,87.546,112.87Z" transform="translate(-83.071 -111.702)" fill="#ffdeb3"/>
            <path id="Path_46878" data-name="Path 46878" d="M87.3,114.185c.486.292,1.751,1.264,1.945,1.07.389-.292-.875-1.167-1.362-1.459C87.2,113.31,87.3,114.185,87.3,114.185Z" transform="translate(-83.117 -111.753)" fill="#ffdeb3"/>
          </g>
        </g>
        <rect id="Rectangle_3995" data-name="Rectangle 3995" width="1.848" height="5.544" transform="matrix(0.719, -0.695, 0.695, 0.719, 8.962, 17.399)" fill="#4c392f"/>
        <path id="Path_46879" data-name="Path 46879" d="M31.424,88.572c1.07.778,6.225.778,7.2.195,1.07-.584,2.529-3.6,1.945-4.766-.875-2.043-10.894-4.572-11.672-3.113C28.116,82.444,29.867,87.4,31.424,88.572Z" transform="translate(-28.704 -69.194)" fill="#7cccce"/>
        <path id="Path_46880" data-name="Path 46880" d="M40.083,86.631c-.875.584-6.031.584-7.2-.195-1.167-.875-2.432-3.793-2.626-5.836-.681,0-1.167.195-1.264.486-.778,1.459.973,6.517,2.529,7.587,1.07.778,6.225.778,7.2.195a6.315,6.315,0,0,0,1.654-2.237C40.18,86.533,40.083,86.631,40.083,86.631Z" transform="translate(-28.706 -69.198)" fill="#61afaf"/>
        <path id="Path_46881" data-name="Path 46881" d="M40.861,84c-.875-2.043-11.186-4.572-11.964-3.015,0,.1-.1.195-.1.292,2.432-.486,10.213,1.751,10.991,3.5.389.875-.486,3.015-1.362,4.085.1,0,.1,0,.195-.1C39.6,88.184,41.347,85.072,40.861,84Z" transform="translate(-28.706 -69.195)" fill="#61afaf"/>
        <path id="Path_46882" data-name="Path 46882" d="M37.1,86.464a1.171,1.171,0,0,0,2.334-.2,1.044,1.044,0,0,0-1.167-1.07A1.343,1.343,0,0,0,37.1,86.464Z" transform="translate(-28.933 -69.323)" fill="#4c392f"/>
        <path id="Path_46883" data-name="Path 46883" d="M37.5,86.475a.828.828,0,1,0,.778-.875.922.922,0,0,0-.778.875Z" transform="translate(-28.944 -69.335)" fill="#7cccce"/>
        <path id="Path_46884" data-name="Path 46884" d="M51.527,86.5c-3.5-2.626-8.462,0-14.4-5.252-.778-.681-.195-2.529-.778-3.015A19.047,19.047,0,0,0,34.7,77.07c-.2-.292.778-1.945.778-2.237s-.778-1.264-.681-1.654.875-3.015,4.085-.584c0,0,.973-3.307,2.334-3.21a2.129,2.129,0,0,1,1.848.778s-.1-1.751,1.07-1.167,1.945,1.459,2.432,1.459,1.751-2.334,6.614,4.474C61.253,86.407,51.818,86.7,51.527,86.5Z" transform="translate(-28.867 -68.878)" fill="#dd6e43"/>
        <path id="Path_46885" data-name="Path 46885" d="M50.653,71.7c-.195.973-1.654,2.043-2.237,2.918-2.529,3.4-4.28-.875-9.629,0A5.385,5.385,0,0,1,34.9,73.354c.1.389.681,1.264.681,1.459,0,.292-1.07,2.043-.778,2.237a9.27,9.27,0,0,0,1.654,1.167c.584.486,0,2.334.778,3.015,5.933,5.252,9.046,3.4,12.547,6.031.389.292,11.38-1.167,3.5-12.45C52.209,73.451,51.334,72.478,50.653,71.7Z" transform="translate(-28.869 -68.955)" fill="#c65330"/>
        <path id="Path_46886" data-name="Path 46886" d="M95.774,112.7a4.671,4.671,0,0,0-2.334,0c-4.182.1-14.2.486-17.8,1.362-.681.195-9.727,3.4-9.24,5.739.486,1.848,2.821,4.474,7.392,3.015l21.01-6.128a46.659,46.659,0,0,0,5.252,4.669c2.237,1.459,17.411,6.128,17.411,6.128l.195-.875C117.854,126.6,97.428,113.474,95.774,112.7Z" transform="translate(-29.733 -70.071)" fill="#30242a"/>
        <path id="Path_46887" data-name="Path 46887" d="M95.961,114.386a4.379,4.379,0,0,0-2.334-.195c-4.182-.195-14.3-.584-17.9,0-.681.1-10.019,2.626-9.629,5.058.292,1.848,2.432,4.669,7.2,3.6l21.5-4.474a41.128,41.128,0,0,0,4.961,5.058c2.14,1.654,17.022,7.392,17.022,7.392l.292-.875C117.068,129.851,97.517,115.261,95.961,114.386Z" transform="translate(-29.725 -70.108)" fill="#3d3036"/>
        <path id="Path_46888" data-name="Path 46888" d="M101.5,122.244a37.542,37.542,0,0,1-4.377-5.447L74.757,119.52a5.364,5.364,0,0,1-5.836-2.821c-1.654.778-2.918,1.751-2.821,2.626a5.369,5.369,0,0,0,6.809,4.474l21.5-4.961a39.55,39.55,0,0,0,4.863,4.961c2.14,1.654,17.411,6.906,17.411,6.906l.195-.584C113.08,128.469,103.061,123.7,101.5,122.244Z" transform="translate(-29.725 -70.185)" fill="#30242a"/>
        <path id="Path_46889" data-name="Path 46889" d="M65.257,120.242c-7.392-11.575-13.423-16.535-15.466-24.511-1.751-6.42,4.669-6.614,10.31-5.447,2.432.486,5.642,3.5,9.24,13.325,2.237,6.128,5.933,7.781,4.766,9.143C71.871,115.476,68.37,125.106,65.257,120.242Z" transform="translate(-29.272 -69.448)" fill="#964d44"/>
        <path id="Path_46890" data-name="Path 46890" d="M69.642,104.74a4.213,4.213,0,0,1-.1.486c-.973,2.626-6.614-5.252-12.256-7.392-3.4-1.264-7.781-3.21-7.49-1.945,2.14,7.976,8.17,12.839,15.466,24.511,3.113,4.863,6.614-4.669,8.754-7.392C75.089,111.646,71.879,110.187,69.642,104.74Z" transform="translate(-29.28 -69.605)" fill="#843a35"/>
        <path id="Path_46891" data-name="Path 46891" d="M59.9,100.066,65.736,95.3,67,97.732l-5.836,5.641Z" transform="translate(-29.556 -69.6)" fill="#fce1ca" opacity="0.5"/>
        <path id="Path_46892" data-name="Path 46892" d="M62,104.544,67.544,99l.778,1.848-5.739,5.35Z" transform="translate(-29.614 -69.701)" fill="#fce1ca" opacity="0.5"/>
        <path id="Path_46893" data-name="Path 46893" d="M47.2,83.4l3.5,7.49,6.906-1.167L52.55,84.567Z" transform="translate(-29.209 -69.275)" fill="#ffdeb3"/>
        <g id="Group_7436" data-name="Group 7436" transform="translate(10.191 18.834)">
          <path id="Path_46894" data-name="Path 46894" d="M39.979,95.119c9.629,9.629,17.216,30.25,24.706,36.767a2.409,2.409,0,0,0,2.723.584l19.551-6.906a3.76,3.76,0,0,1,2.529,0l25.29,9.046a.933.933,0,0,0,.875-.2,2.256,2.256,0,0,0,.584-1.945,1.241,1.241,0,0,0-.486-.681L90.169,119.144a5.113,5.113,0,0,0-3.4-.292L68.575,124.1a1.278,1.278,0,0,1-1.167-.292c-6.225-5.252-16.146-22.177-22.858-34.141C42.6,86.267,37.255,92.4,39.979,95.119Z" transform="translate(-39.182 -88.252)" fill="#7cccce"/>
          <path id="Path_46895" data-name="Path 46895" d="M90.265,123.923a3.76,3.76,0,0,0-2.529,0l-19.843,7.49c-1.167.389-1.459-.292-2.432-1.167-7.587-6.517-17.314-25.1-25.873-37.059-.1-.195-.292-.292-.389-.486a4.156,4.156,0,0,0,.681,2.529c6.517,10.8,18.092,30.347,24.414,37.35a3.106,3.106,0,0,0,3.307.584l19.356-7.587a3.76,3.76,0,0,1,2.529,0l25.29,9.046a.933.933,0,0,0,.875-.2,2.319,2.319,0,0,0,.584-1.07Z" transform="translate(-39.181 -88.362)" fill="#61afaf"/>
          <path id="Path_46896" data-name="Path 46896" d="M41.586,89.855C51.6,99.873,58.9,121.369,65.611,127.01a1.548,1.548,0,0,0,1.264.292l19.94-6.225a4.872,4.872,0,0,1,3.7.292L115.9,133.722a2.339,2.339,0,0,0,.195-1.459,1.24,1.24,0,0,0-.486-.681L90.22,119.132a5.113,5.113,0,0,0-3.4-.292l-18.189,5.252a1.278,1.278,0,0,1-1.167-.292C61.239,118.548,52,100.456,45.19,89.076c-.875-1.459-2.821-.778-4.085.292C41.295,89.563,41.489,89.66,41.586,89.855Z" transform="translate(-39.233 -88.24)" fill="#98e5e5"/>
          <path id="Path_46897" data-name="Path 46897" d="M96.056,121.953l-5.836-2.821a5.113,5.113,0,0,0-3.4-.292L68.529,123.9a1.278,1.278,0,0,1-1.167-.292c-6.225-5.252-14.59-23.344-22.177-34.53-.973-1.459-2.821-.778-4.085.292,4.766,1.654,20.523,31.9,25.581,36.28a1.278,1.278,0,0,0,1.167.292l18.773-6.225a4.165,4.165,0,0,1,3.4.292l5.836,2.334Z" transform="translate(-39.233 -88.24)" fill="#61afaf"/>
          <path id="Path_46898" data-name="Path 46898" d="M82.2,126.7l-7.3,2.529.778,2.237,7.3-2.529Z" transform="translate(-40.157 -89.292)" fill="#665349"/>
          <path id="Path_46899" data-name="Path 46899" d="M69.681,120.3,69,120.5l6.031,9.24.778-.2Z" transform="translate(-39.996 -89.117)" fill="#665349"/>
          <path id="Path_46900" data-name="Path 46900" d="M79.8,116.586l.584-.486,2.237,10.991-.584.486Z" transform="translate(-40.291 -89.002)" fill="#665349"/>
          <path id="Path_46901" data-name="Path 46901" d="M79.629,117.2,70,121.188l.486,1.07,9.629-3.988Z" transform="translate(-40.023 -89.032)" fill="#665349"/>
          <path id="Path_46902" data-name="Path 46902" d="M68.885,121.309c-1.945.292-5.252-2.918-3.7-3.793s11.769-7.2,13.423-6.517,3.793,4.28,2.334,5.447C79.39,117.613,70.83,121.114,68.885,121.309Z" transform="translate(-39.881 -88.861)" fill="#7cccce"/>
          <path id="Path_46903" data-name="Path 46903" d="M78.611,111c-1.654-.778-11.867,5.641-13.423,6.517-.584.292-.486.875-.1,1.556,2.723-1.556,11.283-6.809,12.839-6.128a6.049,6.049,0,0,1,2.723,3.7c.1-.1.2-.1.292-.195C82.4,115.278,80.265,111.776,78.611,111Z" transform="translate(-39.88 -88.861)" fill="#98e5e5"/>
          <path id="Path_46904" data-name="Path 46904" d="M69.5,120.658c-1.654.195-4.572-2.432-3.21-3.21,1.362-.681,10.213-5.933,11.672-5.35s3.307,3.5,2.043,4.474C78.643,117.643,71.251,120.464,69.5,120.658Z" transform="translate(-39.912 -88.891)" fill="#61afaf"/>
          <path id="Path_46905" data-name="Path 46905" d="M67.9,119.375a.925.925,0,1,0,.973-.875.9.9,0,0,0-.973.875Z" transform="translate(-39.966 -89.068)" fill="#4c392f"/>
          <path id="Path_46906" data-name="Path 46906" d="M68.2,119.381a.681.681,0,1,0,.681-.681C68.492,118.8,68.2,118.992,68.2,119.381Z" transform="translate(-39.974 -89.073)" fill="#98e5e5"/>
          <path id="Path_46907" data-name="Path 46907" d="M78.1,115.375a.925.925,0,1,0,.973-.875.8.8,0,0,0-.973.875Z" transform="translate(-40.244 -88.958)" fill="#4c392f"/>
          <path id="Path_46908" data-name="Path 46908" d="M78.3,115.381a.681.681,0,1,0,.681-.681.819.819,0,0,0-.681.681Z" transform="translate(-40.25 -88.964)" fill="#98e5e5"/>
          <path id="Path_46909" data-name="Path 46909" d="M89.97,121.3l-.486-.1-.584,4.085h1.848Z" transform="translate(-40.539 -89.141)" fill="#61afaf"/>
          <path id="Path_46910" data-name="Path 46910" d="M68.04,126.695l-.486-.195L65.9,133.211h1.848Z" transform="translate(-39.911 -89.286)" fill="#61afaf"/>
          <path id="Path_46911" data-name="Path 46911" d="M65.6,131.759a1.459,1.459,0,1,0,1.459-1.459,1.5,1.5,0,0,0-1.459,1.459Z" transform="translate(-39.903 -89.39)" fill="#4c392f"/>
          <path id="Path_46912" data-name="Path 46912" d="M66.1,131.77a1.07,1.07,0,1,0,1.07-1.07A1.15,1.15,0,0,0,66.1,131.77Z" transform="translate(-39.916 -89.401)" fill="#7cccce"/>
        </g>
        <path id="Path_46913" data-name="Path 46913" d="M57.97,93.465c2.237,1.945,4.669,14.784,6.225,16.438,1.556,1.751-3.7,4.182-4.863,3.21S49.313,98.425,49.8,94.632C49.994,92.881,54.955,90.839,57.97,93.465Z" transform="translate(-29.28 -69.515)" fill="#964d44"/>
        <path id="Path_46914" data-name="Path 46914" d="M57.6,109.145a9.163,9.163,0,0,1,5.447-1.945l.292.681-3.793,3.4Z" transform="translate(-29.493 -69.925)" fill="#843a35"/>
        <path id="Path_46915" data-name="Path 46915" d="M61.472,111.852c-1.07-.778-8.949-10.31-11.672-15.952.875,4.863,8.365,16.73,9.435,17.6.875.778,4.572-.875,5.155-2.432C63.223,111.852,61.958,112.241,61.472,111.852Z" transform="translate(-29.28 -69.616)" fill="#843a35"/>
        <path id="Path_46916" data-name="Path 46916" d="M62.316,108.2c-2.043.1-4.572,3.5-1.654,5.836,2.918,2.237,14.493-3.21,17.314-3.988l-.778-.486C75.837,109.756,64.359,108.1,62.316,108.2Z" transform="translate(-29.541 -69.952)" fill="#ffdeb3"/>
        <path id="Path_46917" data-name="Path 46917" d="M62.729,113.841a10.241,10.241,0,0,1,1.362-5.544l-.681-.1-3.21,4.377Z" transform="translate(-29.564 -69.952)" fill="#f9ad8f"/>
        <path id="Path_46918" data-name="Path 46918" d="M61.633,112.888a2.894,2.894,0,0,1-.778-3.988c-1.556,1.167-2.529,3.7-.292,5.35,2.918,2.237,14.687-3.4,17.508-4.182l-.778-.389C72.819,111.234,64.065,114.833,61.633,112.888Z" transform="translate(-29.538 -69.972)" fill="#f9ad8f"/>
        <path id="Path_46919" data-name="Path 46919" d="M60.634,114.506c0,.486-2.14-.778-2.334-1.556s.389-4.766,5.252-5.35l.486.584C63.941,108.086,60.828,111.588,60.634,114.506Z" transform="translate(-29.512 -69.936)" fill="#c96e67"/>
        <path id="Path_46920" data-name="Path 46920" d="M62.674,108.97c-1.362,1.07-2.334,2.043-3.015,1.459a1.568,1.568,0,0,1-.389-.681,4.841,4.841,0,0,0-1.07,3.21c.195.778,2.334,2.043,2.334,1.556.195-2.918,3.4-6.42,3.4-6.42l-.195-.195a3.632,3.632,0,0,1-1.065,1.071Z" transform="translate(-29.509 -69.944)" fill="#b2544f"/>
        <path id="Path_46921" data-name="Path 46921" d="M50.2,91.345l-.1-.875,7.392-1.07.875.584A48.151,48.151,0,0,1,50.2,91.345Z" transform="translate(-29.288 -69.439)" fill="#dd7d76"/>
        <path id="Path_46922" data-name="Path 46922" d="M62.957,91.962a5.95,5.95,0,0,0-2.918-1.751c-.584-.1-1.07-.195-1.654-.292l-.875-.584h-.292L52.647,84.57,47.2,83.5l3.307,6.809-.292.1.1.875a2.319,2.319,0,0,0-.584,1.07,23.473,23.473,0,0,1,4.182-.681,54.056,54.056,0,0,1,9.044.289Z" transform="translate(-29.209 -69.277)" fill="#bc5642" opacity="0.5"/>
        <path id="Path_46923" data-name="Path 46923" d="M58.655,86.106c1.654-1.167-.292-3.113-.486-3.7s-3.113-4.863-3.891-5.155a3.792,3.792,0,0,1-2.14-2.334c-.195-.973-5.642-5.155-8.462-1.07-2.432,3.5.875,5.739,2.043,6.614C48.733,82.8,47.761,84.842,49.9,86.3,51.651,87.371,56.028,87.857,58.655,86.106Z" transform="translate(-29.089 -68.965)" fill="#ffdeb3"/>
        <path id="Path_46924" data-name="Path 46924" d="M42.663,77.044c-.1-1.264,1.264-1.751,2.723-2.237,1.556-.486,3.891-2.723,2.237-3.21S41.69,72.57,41.4,73.64,42.663,77.044,42.663,77.044Z" transform="translate(-29.05 -68.949)" fill="#dd6e43"/>
        <path id="Path_46925" data-name="Path 46925" d="M45.682,74.054a9.28,9.28,0,0,1-4.182.584c-.2,1.362,1.459,2.918,1.459,2.918-.1-1.264,1.07-2.043,2.529-2.529A4.643,4.643,0,0,0,48.114,72.4,6.207,6.207,0,0,1,45.682,74.054Z" transform="translate(-29.053 -68.974)" fill="#c65330"/>
        <path id="Path_46926" data-name="Path 46926" d="M54.2,81.066c.486.1,1.848-.973,1.848-1.167s-5.35-3.6-5.35-3.6S53.715,80.969,54.2,81.066Z" transform="translate(-29.305 -69.08)" fill="#ffdeb3"/>
        <path id="Path_46927" data-name="Path 46927" d="M43.736,74.565c-1.362.778-2.432,3.21-3.793,3.113A2.1,2.1,0,0,1,37.9,75.829s2.237,1.654,1.848-1.07C39.554,72.23,45.487,73.592,43.736,74.565Z" transform="translate(-28.955 -68.999)" fill="#dd6e43"/>
        <path id="Path_46928" data-name="Path 46928" d="M49.106,84.133l1.264-1.167s-7.2-3.793-8.17-4.766l1.459,3.21Z" transform="translate(-29.072 -69.132)" fill="#c65330"/>
        <path id="Path_46929" data-name="Path 46929" d="M46.055,82.5c-1.848-.1-2.043,2.529-.875,3.113s4.766.1,4.474-.778S47.319,82.6,46.055,82.5Z" transform="translate(-29.134 -69.25)" fill="#ffdeb3"/>
        <path id="Path_46930" data-name="Path 46930" d="M46.372,83.2c-1.167,0-1.264,1.751-.486,2.043.778.389,3.113-.1,2.918-.681A3.764,3.764,0,0,0,46.372,83.2Z" transform="translate(-29.159 -69.269)" fill="#f9ad8f"/>
        <path id="Path_46931" data-name="Path 46931" d="M47.781,83.9a.728.728,0,0,0-.292,1.362c.584.2,2.043-.1,1.945-.389a2.628,2.628,0,0,0-1.653-.973Z" transform="translate(-29.207 -69.288)" fill="#ffdeb3"/>
        <g id="Group_7437" data-name="Group 7437" transform="translate(45.031 37.398)">
          <path id="Path_46932" data-name="Path 46932" d="M80.252,108.7c-1.167-.195-3.988.681-5.252.778v.973c1.654.1,3.7.681,4.28.486C79.474,110.839,80.642,108.8,80.252,108.7Z" transform="translate(-75 -107.363)" fill="#ffdeb3"/>
          <path id="Path_46933" data-name="Path 46933" d="M79.1,110.983c.584,0,1.945.486,2.043.292.195-.389-.875-.681-1.556-.875C78.807,110.2,79.1,110.983,79.1,110.983Z" transform="translate(-75.111 -107.41)" fill="#ffdeb3"/>
          <path id="Path_46934" data-name="Path 46934" d="M79.892,109.38c.584,0,1.945.1,2.043-.195.195-.486-1.362-.584-1.945-.486C79.211,108.8,79.892,109.38,79.892,109.38Z" transform="translate(-75.126 -107.363)" fill="#ffdeb3"/>
          <path id="Path_46935" data-name="Path 46935" d="M79.442,108.857c-.584-.681,1.167-.875,1.07-1.362,0-.681-2.334.875-3.015,1.556C76.816,109.635,79.442,108.857,79.442,108.857Z" transform="translate(-75.065 -107.327)" fill="#ffdeb3"/>
          <path id="Path_46936" data-name="Path 46936" d="M79.7,110.181c.584.1,2.043.389,2.237.1.195-.389-1.362-.681-1.848-.778C79.21,109.4,79.7,110.181,79.7,110.181Z" transform="translate(-75.125 -107.386)" fill="#ffdeb3"/>
        </g>
        <path id="Path_46937" data-name="Path 46937" d="M118.37,132.3l5.058-3.7s-5.544.681-6.031,1.556S118.37,132.3,118.37,132.3Z" transform="translate(-31.125 -70.51)" fill="#edd7b7"/>
        <path id="Path_46938" data-name="Path 46938" d="M119.26,128.172l4.28-4.572s-5.252,1.654-5.642,2.626S119.26,128.172,119.26,128.172Z" transform="translate(-31.14 -70.373)" fill="#edd7b7"/>
      </g>
    </g>
  </g>
</svg>
