<svg id="dermatologist" xmlns="http://www.w3.org/2000/svg" xmlns:xlink="http://www.w3.org/1999/xlink" width="116.915" height="116.526" viewBox="0 0 116.915 116.526">
  <defs>
    <linearGradient id="linear-gradient" x1="0.001" y1="0.5" x2="1" y2="0.5" gradientUnits="objectBoundingBox">
      <stop offset="0" stop-color="#ebebeb"/>
      <stop offset="1" stop-color="#fff"/>
    </linearGradient>
    <clipPath id="clip-path">
      <circle id="Ellipse_1798" data-name="Ellipse 1798" cx="58.263" cy="58.263" r="58.263" transform="translate(0 0)"/>
    </clipPath>
    <linearGradient id="linear-gradient-2" x1="-33.912" y1="57.865" x2="-33.912" y2="62.219" gradientUnits="objectBoundingBox">
      <stop offset="0" stop-color="#262034"/>
      <stop offset="0.989" stop-color="#050013"/>
    </linearGradient>
    <linearGradient id="linear-gradient-3" x1="-151.823" y1="167.597" x2="-151.823" y2="180.207" xlink:href="#linear-gradient-2"/>
    <linearGradient id="linear-gradient-4" x1="-13.315" y1="38.984" x2="-14.144" y2="39.633" xlink:href="#linear-gradient-2"/>
  </defs>
  <circle id="Ellipse_1797" data-name="Ellipse 1797" cx="58.263" cy="58.263" r="58.263" transform="translate(0 0)" fill="url(#linear-gradient)"/>
  <g id="Group_7454" data-name="Group 7454" transform="translate(0.389)">
    <g id="Group_7441" data-name="Group 7441" clip-path="url(#clip-path)">
      <path id="Path_46939" data-name="Path 46939" d="M101.674,36.665c-4.572-7.1-13.326-9.629-21.4-7.781-8.073-1.848-16.827.681-21.4,7.781-1.556,2.432-8.851,17.411-.389,28.6a46.029,46.029,0,0,0,5.642,6.614c3.113,2.626,6.225,2.334,9.629,3.891a21.5,21.5,0,0,1,6.128,4.961l.292.292h0l.292-.292A21.5,21.5,0,0,1,86.6,75.766c3.307-1.556,6.517-1.264,9.629-3.891a40.583,40.583,0,0,0,5.642-6.614C110.525,53.978,103.23,39.1,101.674,36.665Z" transform="translate(-24.638 -16.823)" fill="#3e1314"/>
    </g>
    <g id="Group_7442" data-name="Group 7442" clip-path="url(#clip-path)">
      <path id="Path_46940" data-name="Path 46940" d="M125.818,110.714c-4.863-4.182-23.441-5.836-29.958-6.322a4.013,4.013,0,0,1-3.5-2.626c-2.434-6.614-1.56-17.6-1.56-17.6L79.227,79.2,67.652,84.161s.875,10.894-1.556,17.605a4.131,4.131,0,0,1-3.5,2.626c-6.517.486-25.192,2.14-29.958,6.322-2.237,1.945-4.28,5.447-5.836,9.338H131.654C130,116.161,128.055,112.66,125.818,110.714Z" transform="translate(-23.882 -18.214)" fill="#ffc8b1"/>
      <path id="Path_46941" data-name="Path 46941" d="M91.8,84.161,80.223,79.2,68.648,84.161s.973,11.769-1.848,18.286c3.5,1.264,11.769.195,15.757-1.362,4.377-1.751,5.933-4.377,9.24-7.879a78.954,78.954,0,0,1,0-9.045Z" transform="translate(-24.975 -18.214)" fill="#f09982"/>
    </g>
    <g id="Group_7445" data-name="Group 7445" clip-path="url(#clip-path)">
      <g id="Group_7443" data-name="Group 7443" transform="translate(34.305 45.405)">
        <path id="Path_46942" data-name="Path 46942" d="M63.282,64.464s-2.14-2.043-3.4-.973a2.343,2.343,0,0,0-.584,2.821c1.654,4.28,2.14,7.392,3.7,8.073,1.264.486,3.015-1.167,3.015-1.167Z" transform="translate(-59.069 -63.181)" fill="#ffc8b1"/>
        <path id="Path_46943" data-name="Path 46943" d="M64.391,71.425C64.2,65.2,60.5,65.2,60.5,65.2a6.317,6.317,0,0,1,1.362,3.4,7.991,7.991,0,0,1,.2,2.237C61.764,73.565,64.488,73.759,64.391,71.425Z" transform="translate(-59.108 -63.236)" fill="#f09982"/>
      </g>
      <g id="Group_7444" data-name="Group 7444" transform="translate(70.032 45.405)">
        <path id="Path_46944" data-name="Path 46944" d="M98.523,64.464s2.14-2.043,3.4-.973a2.343,2.343,0,0,1,.584,2.821c-1.654,4.28-2.14,7.392-3.7,8.073-1.264.486-3.015-1.167-3.015-1.167Z" transform="translate(-95.8 -63.181)" fill="#ffc8b1"/>
        <path id="Path_46945" data-name="Path 46945" d="M97.5,71.425c.195-6.225,3.891-6.225,3.891-6.225a6.317,6.317,0,0,0-1.362,3.4,7.992,7.992,0,0,0-.195,2.237C100.126,73.565,97.4,73.759,97.5,71.425Z" transform="translate(-95.846 -63.236)" fill="#f09982"/>
      </g>
    </g>
    <g id="Group_7446" data-name="Group 7446" clip-path="url(#clip-path)">
      <path id="Path_46946" data-name="Path 46946" d="M80.443,35.7S69.354,34.237,60.6,40.753c0,0,.778,31.125,3.6,37.934,1.167,2.821,3.4,3.891,6.031,6.614,3.6,3.793,7.781,5.641,10.31,5.641s6.711-1.848,10.31-5.641c2.626-2.723,4.863-3.793,6.031-6.614,2.723-6.809,3.6-37.934,3.6-37.934C91.531,34.139,80.443,35.7,80.443,35.7Z" transform="translate(-24.806 -17.02)" fill="#ffc8b1"/>
    </g>
    <g id="Group_7447" data-name="Group 7447" clip-path="url(#clip-path)">
      <path id="Path_46947" data-name="Path 46947" d="M79.6,32s-.778,17.021,23.441,17.6C103.041,49.6,108,31.124,79.6,32Z" transform="translate(-25.325 -16.923)" fill="#3e1314"/>
      <path id="Path_46948" data-name="Path 46948" d="M85.135,33.382S83.19,46.026,70.253,48.75c-13.034,2.723-9.338,8.365-9.338,8.365S45.353,28.032,85.135,33.382Z" transform="translate(-24.732 -16.944)" fill="#3e1314"/>
    </g>
    <g id="Group_7448" data-name="Group 7448" clip-path="url(#clip-path)">
      <path id="Path_46949" data-name="Path 46949" d="M92.954,80.063c-.389.292-.681.778-1.167.486a.85.85,0,0,1-.292-1.264A.878.878,0,0,1,92.76,78.9C93.246,79.188,93.052,79.674,92.954,80.063Z" transform="translate(-25.645 -18.202)" fill="#ff7373"/>
      <path id="Path_46950" data-name="Path 46950" d="M93.088,74.165a.612.612,0,0,1-.389-.778A.684.684,0,0,1,93.672,73a.56.56,0,0,1,.292.778C93.672,74.165,93.38,74.262,93.088,74.165Z" transform="translate(-25.682 -18.042)" fill="#ff7373"/>
      <path id="Path_46951" data-name="Path 46951" d="M95.388,78.168A.612.612,0,0,1,95,77.39c.1-.486.584-.389.973-.292.486.1.389.486.195.778C96.069,78.168,95.777,78.265,95.388,78.168Z" transform="translate(-25.745 -18.154)" fill="#ff7373"/>
      <path id="Path_46952" data-name="Path 46952" d="M89.365,79.576c-.195.389-.486.486-.778.292-.389-.195-.584-.486-.389-.875s.486-.292.778-.195C89.268,78.992,89.56,79.187,89.365,79.576Z" transform="translate(-25.558 -18.201)" fill="#ff7373"/>
      <path id="Path_46953" data-name="Path 46953" d="M95.8,74.3c.292-.389.486,0,.681.1s.486.292.292.486a.417.417,0,0,1-.681.1A.447.447,0,0,1,95.8,74.3Z" transform="translate(-25.765 -18.075)" fill="#ff7373"/>
      <path id="Path_46954" data-name="Path 46954" d="M88.68,71.731a1.284,1.284,0,0,1-.584-1.654A1.15,1.15,0,0,1,89.75,69.4a1.349,1.349,0,0,1,.486,1.654C89.945,71.731,89.361,71.828,88.68,71.731Z" transform="translate(-25.554 -17.942)" fill="#ff7373"/>
      <path id="Path_46955" data-name="Path 46955" d="M93.154,76.163c-.389.292-.681.778-1.167.486a.85.85,0,0,1-.292-1.264A.878.878,0,0,1,92.96,75C93.446,75.288,93.154,75.774,93.154,76.163Z" transform="translate(-25.651 -18.095)" fill="#ff7373"/>
      <path id="Path_46956" data-name="Path 46956" d="M93.188,70.265a.612.612,0,0,1-.389-.778.684.684,0,0,1,.973-.389.56.56,0,0,1,.292.778A.682.682,0,0,1,93.188,70.265Z" transform="translate(-25.685 -17.936)" fill="#ff7373"/>
      <path id="Path_46957" data-name="Path 46957" d="M95.588,74.268a.612.612,0,0,1-.389-.778c.1-.486.584-.389.973-.292.486.1.389.486.195.778a.613.613,0,0,1-.779.292Z" transform="translate(-25.75 -18.048)" fill="#ff7373"/>
      <path id="Path_46958" data-name="Path 46958" d="M89.565,75.676c-.195.389-.486.486-.778.292-.389-.195-.584-.486-.389-.875s.486-.292.778-.195C89.468,75.092,89.76,75.287,89.565,75.676Z" transform="translate(-25.563 -18.094)" fill="#ff7373"/>
      <path id="Path_46959" data-name="Path 46959" d="M95.9,70.4c.292-.389.486,0,.681.1s.486.292.292.486a.417.417,0,0,1-.681.1A.447.447,0,0,1,95.9,70.4Z" transform="translate(-25.768 -17.969)" fill="#ff7373"/>
      <path id="Path_46960" data-name="Path 46960" d="M94.48,81.731a1.284,1.284,0,0,1-.584-1.654A1.15,1.15,0,0,1,95.55,79.4a1.349,1.349,0,0,1,.486,1.654,1.184,1.184,0,0,1-1.556.677Z" transform="translate(-25.712 -18.216)" fill="#ff7373"/>
      <path id="Path_46961" data-name="Path 46961" d="M91.354,73.863c-.389.292-.681.778-1.167.486a.85.85,0,0,1-.292-1.264A.878.878,0,0,1,91.16,72.7C91.646,72.891,91.452,73.377,91.354,73.863Z" transform="translate(-25.602 -18.032)" fill="#ff7373"/>
      <path id="Path_46962" data-name="Path 46962" d="M93.788,71.868a.612.612,0,0,1-.389-.778c.1-.486.584-.389.973-.292.486.1.389.486.195.778a.515.515,0,0,1-.779.292Z" transform="translate(-25.701 -17.982)" fill="#ff7373"/>
      <path id="Path_46963" data-name="Path 46963" d="M87.765,73.276c-.195.389-.486.486-.778.292-.389-.195-.584-.486-.389-.875s.486-.292.778-.195C87.668,72.692,87.96,72.887,87.765,73.276Z" transform="translate(-25.514 -18.028)" fill="#ff7373"/>
      <path id="Path_46964" data-name="Path 46964" d="M94.1,68c.292-.389.486,0,.681.1s.486.292.292.486a.417.417,0,0,1-.681.1C94.1,68.579,94,68.384,94.1,68Z" transform="translate(-25.72 -17.903)" fill="#ff7373"/>
      <path id="Path_46965" data-name="Path 46965" d="M90.693,82.28a.468.468,0,0,1-.193-.58.6.6,0,0,1,.584-.1c.1,0,.195.292.195.389a.841.841,0,0,1-.586.291Z" transform="translate(-25.622 -18.278)" fill="#ff7373"/>
    </g>
    <g id="Group_7449" data-name="Group 7449" clip-path="url(#clip-path)">
      <path id="Path_46966" data-name="Path 46966" d="M70.076,76.681c-.195.1-.292.389-.584.292-.292-.195-.292-.389-.195-.681.195-.292.389-.389.681-.195C70.271,76.194,70.076,76.486,70.076,76.681Z" transform="translate(-25.042 -18.126)" fill="#ff7373"/>
      <path id="Path_46967" data-name="Path 46967" d="M70.093,73.583c-.195-.1-.292-.195-.195-.389A.355.355,0,0,1,70.385,73a.241.241,0,0,1,.1.389C70.483,73.583,70.288,73.68,70.093,73.583Z" transform="translate(-25.059 -18.043)" fill="#ff7373"/>
      <path id="Path_46968" data-name="Path 46968" d="M71.393,75.683c-.195-.1-.292-.292-.195-.389.1-.292.292-.195.486-.195s.195.195.1.389S71.588,75.78,71.393,75.683Z" transform="translate(-25.094 -18.101)" fill="#ff7373"/>
      <path id="Path_46969" data-name="Path 46969" d="M68.183,76.387c-.1.195-.292.292-.389.195-.195-.1-.292-.195-.195-.486a.241.241,0,0,1,.389-.1C68.183,76.1,68.28,76.193,68.183,76.387Z" transform="translate(-24.996 -18.125)" fill="#ff7373"/>
      <path id="Path_46970" data-name="Path 46970" d="M71.5,73.7c.1-.195.195,0,.292.1s.195.1.195.292c-.1.195-.195.1-.389.1C71.5,73.989,71.4,73.892,71.5,73.7Z" transform="translate(-25.102 -18.061)" fill="#ff7373"/>
      <path id="Path_46971" data-name="Path 46971" d="M67.79,72.363a.641.641,0,0,1-.292-.875.682.682,0,0,1,.875-.389.634.634,0,0,1,.195.875C68.47,72.363,68.179,72.363,67.79,72.363Z" transform="translate(-24.992 -17.992)" fill="#ff7373"/>
      <path id="Path_46972" data-name="Path 46972" d="M70.176,74.681c-.195.1-.292.389-.584.292-.292-.195-.292-.389-.195-.681.195-.292.389-.389.681-.195C70.274,74.194,70.176,74.389,70.176,74.681Z" transform="translate(-25.044 -18.072)" fill="#ff7373"/>
      <path id="Path_46973" data-name="Path 46973" d="M70.193,71.583c-.195-.1-.292-.195-.195-.389A.355.355,0,0,1,70.485,71a.241.241,0,0,1,.1.389C70.583,71.583,70.388,71.583,70.193,71.583Z" transform="translate(-25.061 -17.989)" fill="#ff7373"/>
      <path id="Path_46974" data-name="Path 46974" d="M71.393,73.683c-.195-.1-.292-.292-.195-.389.1-.292.292-.195.486-.195s.195.195.1.389C71.783,73.683,71.588,73.683,71.393,73.683Z" transform="translate(-25.094 -18.047)" fill="#ff7373"/>
      <path id="Path_46975" data-name="Path 46975" d="M68.283,74.387c-.1.195-.292.292-.389.195-.195-.1-.292-.195-.195-.486a.241.241,0,0,1,.389-.1C68.283,74.1,68.38,74.193,68.283,74.387Z" transform="translate(-24.999 -18.07)" fill="#ff7373"/>
      <path id="Path_46976" data-name="Path 46976" d="M71.6,71.6c.1-.195.195,0,.292.1s.195.1.195.292c-.1.195-.195.1-.389.1C71.6,71.889,71.5,71.792,71.6,71.6Z" transform="translate(-25.105 -18.004)" fill="#ff7373"/>
      <path id="Path_46977" data-name="Path 46977" d="M70.89,77.563a.641.641,0,0,1-.292-.875.682.682,0,0,1,.875-.389.634.634,0,0,1,.195.875.581.581,0,0,1-.778.389Z" transform="translate(-25.077 -18.134)" fill="#ff7373"/>
      <path id="Path_46978" data-name="Path 46978" d="M69.277,73.481c-.195.1-.292.389-.584.292-.292-.195-.292-.389-.195-.681.195-.292.389-.389.681-.195C69.374,72.994,69.277,73.189,69.277,73.481Z" transform="translate(-25.02 -18.039)" fill="#ff7373"/>
      <path id="Path_46979" data-name="Path 46979" d="M70.493,72.383c-.195-.1-.292-.292-.195-.389.1-.292.292-.195.486-.195s.195.195.1.389S70.688,72.48,70.493,72.383Z" transform="translate(-25.07 -18.011)" fill="#ff7373"/>
      <path id="Path_46980" data-name="Path 46980" d="M67.383,73.187c-.1.195-.292.292-.389.195-.195-.1-.292-.195-.195-.486a.241.241,0,0,1,.389-.1C67.285,72.9,67.48,72.9,67.383,73.187Z" transform="translate(-24.974 -18.037)" fill="#ff7373"/>
      <path id="Path_46981" data-name="Path 46981" d="M70.7,70.4c.1-.195.195,0,.292.1s.195.1.195.292c-.1.195-.195.1-.389.1C70.7,70.689,70.6,70.592,70.7,70.4Z" transform="translate(-25.08 -17.971)" fill="#ff7373"/>
      <path id="Path_46982" data-name="Path 46982" d="M68.9,77.789c-.1-.1-.195-.195-.1-.292a.357.357,0,0,1,.292-.1l.1.195C69.091,77.789,68.993,77.789,68.9,77.789Z" transform="translate(-25.029 -18.165)" fill="#ff7373"/>
    </g>
    <g id="Group_7451" data-name="Group 7451" clip-path="url(#clip-path)">
      <g id="Group_7450" data-name="Group 7450" transform="translate(56.016 46.581)">
        <path id="Path_46983" data-name="Path 46983" d="M98.2,80.921a40.63,40.63,0,0,0,6.128,5.35,35.957,35.957,0,0,0,8.657,3.891c1.362.389,2.432-1.459,1.264-2.723a41.028,41.028,0,0,0-6.906-5.933,38.064,38.064,0,0,0-7.392-3.4Z" transform="translate(-81.849 -64.765)" fill="url(#linear-gradient-2)"/>
        <path id="Path_46984" data-name="Path 46984" d="M101.313,80.337a3.081,3.081,0,0,0,.584-1.459c-.681-.292-1.362-.486-1.945-.778L98.2,80.921l1.362,1.362a8.362,8.362,0,0,0,1.751-1.946Z" transform="translate(-81.849 -64.765)" fill="url(#linear-gradient-3)"/>
        <path id="Path_46985" data-name="Path 46985" d="M82.956,68.874a9.848,9.848,0,1,0,13.617-2.918,9.848,9.848,0,0,0-13.617,2.918ZM95.7,67.318A8.161,8.161,0,1,1,84.417,69.75,8.161,8.161,0,0,1,95.7,67.318Z" transform="translate(-81.39 -64.39)" fill="url(#linear-gradient-4)"/>
      </g>
    </g>
    <g id="Group_7452" data-name="Group 7452" clip-path="url(#clip-path)">
      <path id="Path_46986" data-name="Path 46986" d="M64.732,104.2s13.131,10.408,28.694,0c0,0,.486,1.362,6.614,1.264s16.438,2.432,16.438,2.432,8.657.389,12.256,7.295l2.724,5.544H26.7s2.918-9.921,10.894-11.769a118.615,118.615,0,0,1,16.73-3.113C62.494,105.075,64.732,104.2,64.732,104.2Z" transform="translate(-23.879 -18.897)" fill="#80bedc"/>
    </g>
    <g id="Group_7453" data-name="Group 7453" clip-path="url(#clip-path)">
      <rect id="Rectangle_3996" data-name="Rectangle 3996" width="104.854" height="20.59" transform="translate(2.821 95.838)" fill="#80bedc"/>
    </g>
  </g>
</svg>
