<svg xmlns="http://www.w3.org/2000/svg" xmlns:xlink="http://www.w3.org/1999/xlink" width="117.2" height="117.199" viewBox="0 0 117.2 117.199">
  <defs>
    <linearGradient id="linear-gradient" y1="0.5" x2="1" y2="0.5" gradientUnits="objectBoundingBox">
      <stop offset="0" stop-color="#ebebeb"/>
      <stop offset="1" stop-color="#fff"/>
    </linearGradient>
    <clipPath id="clip-path">
      <circle id="Ellipse_1342" data-name="Ellipse 1342" cx="58.6" cy="58.6" r="58.6" transform="translate(8.2 8.8)"/>
    </clipPath>
  </defs>
  <g id="dietician" transform="translate(-8.2 -8.801)">
    <circle id="Ellipse_1341" data-name="Ellipse 1341" cx="58.6" cy="58.6" r="58.6" transform="translate(8.2 8.8)" fill="url(#linear-gradient)"/>
    <g id="Group_5863" data-name="Group 5863">
      <g id="Group_5799" data-name="Group 5799" clip-path="url(#clip-path)">
        <path id="Path_40858" data-name="Path 40858" d="M100.5,100s0,21.7,1.5,26H89.4l.7-29.5Z" fill="#cdebf2"/>
      </g>
      <g id="Group_5800" data-name="Group 5800" clip-path="url(#clip-path)">
        <path id="Path_40859" data-name="Path 40859" d="M76,99.9a36.954,36.954,0,0,1,.2-4.7l.3-.3c.8.4.6,1.1.5,1.7-.3,2,.6,3.2,2.3,4.1" fill="#1c80c2"/>
      </g>
      <g id="Group_5801" data-name="Group 5801" clip-path="url(#clip-path)">
        <path id="Path_40860" data-name="Path 40860" d="M64.3,102.8l.9-9.3c-.5,1.3-1,2.5-1.5,3.8a12.032,12.032,0,0,1-3.4,4.6,1.486,1.486,0,0,1-1.4.3,77.558,77.558,0,0,1-12.7-3.8c.1-.5.5-.6,1-.8a18.524,18.524,0,0,0,8-4.1.764.764,0,0,1,.5-.2,1.075,1.075,0,0,0,1-1,24.521,24.521,0,0,0,.2-2.7,2.822,2.822,0,0,1,.4-1.5,9.45,9.45,0,0,1,2.3-1.6,14.941,14.941,0,0,0,6-6.2,12.6,12.6,0,0,0,1-3.3c.2-1.2.1-1.3-1.1-1.4a1.978,1.978,0,0,1-1.1-.2c-.5-.7.1-1.3.3-1.9.4-.9.4-1.5-.6-1.9-.4-.2-1-.4-.9-1.1,1.9-.3,2.6-1.6,3-3.3a4.851,4.851,0,0,1,2.4-3.5A12.034,12.034,0,0,1,72,65.8c.6.4.6.9,0,1.3-2.2,1.4-1.8,3.1-.8,5,1.5,3.1,2.7,6.3,4.1,9.5a3.371,3.371,0,0,1,.5,1.7c-.3.5-.6.3-1,.1a14.132,14.132,0,0,0-2.2-.6,19.534,19.534,0,0,0-5.4,0c-.2.1-.5,0-.8.1-.4.1-1.1.1-1,.7.1.5.7.3,1.1.2.7-.1,1.4-.1,1.5.9.1.7.6.9,1.2,1,1.1.2,2.1.3,3.2.4a12.031,12.031,0,0,1,4,2.2c.4.3.7.5.7,1a33.813,33.813,0,0,1,.1,4.5,1.374,1.374,0,0,1-.4,1.2c-.1,0-.1.1-.2.1-.4-1.9-.1-3.8-.2-5.6.1,3.5-.1,7,.1,10.5" fill="#cdebf2"/>
      </g>
      <g id="Group_5802" data-name="Group 5802" clip-path="url(#clip-path)">
        <path id="Path_40861" data-name="Path 40861" d="M99.9,55.2v2c-.7.5-1.2-.1-1.8-.1-1-.4-1.8-.9-2.8-1.2-.4-.2-.8-.3-.8-.8.4-2.3,1.2-4.6,1.4-6.9.1-1.4.4-2.7.4-4.1a10.659,10.659,0,0,0-2.1-6.9,53.537,53.537,0,0,0-10.3-9.3c-.1-.1-.2-.1-.3-.2-2.1-1.5-2.1-1.5-3.7.6a23.8,23.8,0,0,0-4.6,13.8,28.651,28.651,0,0,0,.9,8.7,12.85,12.85,0,0,1,.7,3.4c-.8.9-2.1.7-3.1,1.1a29.309,29.309,0,0,0-2.9.5c-.4,0-.7.1-1-.3a203.066,203.066,0,0,1,.4-23.4,18.126,18.126,0,0,1,3.3-9.5,9.739,9.739,0,0,1,8.5-4,37.683,37.683,0,0,1,6.7.4c3.9.9,6.6,3.1,7.8,6.9a64.084,64.084,0,0,1,2.6,12.3,87.584,87.584,0,0,1,.8,10.3,49.948,49.948,0,0,0-.1,6.7Z" fill="#674a46"/>
      </g>
      <g id="Group_5803" data-name="Group 5803" clip-path="url(#clip-path)">
        <path id="Path_40862" data-name="Path 40862" d="M64.1,75.4h.4c2.9,0,2.6-.2,2.1,2.6a11.422,11.422,0,0,1-.9,2.6c-2.7.7-5.4,1.8-8.2,2.4a76.235,76.235,0,0,1-23.8,1.9,60.627,60.627,0,0,1-10.5-1.8,27.756,27.756,0,0,1-5.1-1.7,11.179,11.179,0,0,1-1.7-4.6c-.2-.9,0-1.5,1.2-1.4a16.134,16.134,0,0,0,2.2,0c.2-.4.7-.4,1.2-.4,8.2,0,16.4-.1,24.6,0,3.4,0,6.8-.1,10.1,0,2.3-.1,4.6,0,6.9,0A2.026,2.026,0,0,1,64.1,75.4Z" fill="#f9cee1"/>
      </g>
      <g id="Group_5804" data-name="Group 5804" clip-path="url(#clip-path)">
        <path id="Path_40863" data-name="Path 40863" d="M45.7,75.4H19.5a51.078,51.078,0,0,1-.5-5.5A7.289,7.289,0,0,1,21.3,65c.3-.9,1.2-1,1.9-1.4a7.911,7.911,0,0,1,4.8.3,3.81,3.81,0,0,1,1,.3c1.5.4,3.1,1,4.7.6a27.187,27.187,0,0,0,3.8-1.1l1.2-.3c4.2.1,7.1,2.6,7.5,6.4v3.3a2.605,2.605,0,0,1-.5,2.3Z" fill="#948cc3"/>
      </g>
      <g id="Group_5805" data-name="Group 5805" clip-path="url(#clip-path)">
        <path id="Path_40864" data-name="Path 40864" d="M98.1,56.8c.6.1,1.2.3,1.8.4a1.9,1.9,0,0,0,1.1.7c3.6,1.1,5,3.9,5.6,7.2a32.944,32.944,0,0,1,.1,8.3,98.385,98.385,0,0,1-1.4,10.9,43.911,43.911,0,0,1-1.3,5.2c-.6,0-.6-.5-.8-.9a9.8,9.8,0,0,0-1.3-2.2c-.9-1.1-1.9-2.1-2-3.8-.1-1-1.1-1.7-1.7-2.5-.3-.4-.7-.4-1.2-.3-.6.2-.7.7-.8,1.2-.3,2.2-.5,4.4-.8,6.7-.2,1.5-.2,3.1-.4,4.6-.1.7-.4,1.1-1.2.8a7.543,7.543,0,0,1-1.7-1c-.7-.6-1.9-.7-2.1-1.9.2-1.4-.3-2.8.3-4.2.1-.2.4.2.4,0a10.187,10.187,0,0,1,1.4-3.4c1.8-3.5,3.4-7.1,5.2-10.7.9-1.7.8-1.8-.5-3.1s-1.2-1.8.4-2.7a2.994,2.994,0,0,1,.8-.4,1.985,1.985,0,0,0,1.3-2.5A18.877,18.877,0,0,0,98,57.5a.391.391,0,0,1,.1-.7Z" fill="#ceebf2"/>
      </g>
      <g id="Group_5806" data-name="Group 5806" clip-path="url(#clip-path)">
        <path id="Path_40865" data-name="Path 40865" d="M18,81.4c.5-.3.9,0,1.3.1a61.9,61.9,0,0,0,14.2,3,88.53,88.53,0,0,0,10.3.2,70.772,70.772,0,0,0,13.7-2,58.313,58.313,0,0,0,7.1-2.2c.3-.1.8-.6,1,.1-1.3,2.8-3.6,4.6-6.1,6.2a25.293,25.293,0,0,1-2.2,1.3c-1,1.2-2.6,1.4-4,2-1.1.5-2.2.8-2.7,2.1a2.189,2.189,0,0,1-1,.9,3.194,3.194,0,0,1-1.4.3c-3.5,0-7.1.1-10.6,0a2.094,2.094,0,0,1-1.5-1.1,19.4,19.4,0,0,0-2.3-2.6c-1-.9-1.2-.9-1.9.3-.1.1-.2.3-.3.4C26,88.8,21.3,86,18,81.4Z" fill="#f5a3c7"/>
      </g>
      <g id="Group_5807" data-name="Group 5807" clip-path="url(#clip-path)">
        <path id="Path_40866" data-name="Path 40866" d="M68.4,64A8.755,8.755,0,0,0,66,68.3c-.5,1.9-1.3,2.5-3,2.5-1.3.2-2.2-.7-3.1-1.4a13.65,13.65,0,0,1-1.7-1.7c-.1-.2-.2-.3-.3-.5,0-1.3.4-2.6.4-4a2.513,2.513,0,0,1,.6-1.4c1.1-1.2,1-2.5.5-4-.3-.9-1.1-1.7-.9-2.8a3.027,3.027,0,0,1,3.9-.1c1,.5,2,1.1,3,1.6,2.3.8,3.2,2.8,3.7,5A2.548,2.548,0,0,1,68.4,64Z" fill="#66853a"/>
      </g>
      <g id="Group_5808" data-name="Group 5808" clip-path="url(#clip-path)">
        <path id="Path_40867" data-name="Path 40867" d="M93.8,93c.5.1.9.4.9-.5q.15-3.3.6-6.6c.3-1.6.3-3.3.6-5,.1-.6.1-1.4,1.1-1.3.7,0,1.3-.2,1.8.8.7,1.3,1.9,2.4,1.8,4.1,0,.4.7.8,1.1,1.2a16.35,16.35,0,0,1,2.4,4,37.065,37.065,0,0,1-3.3,9.7c-.6,1-.2,2-.3,3-.9-.3-.4-1.1-.5-1.5-.2.3-.4.7-.9.7a.967.967,0,0,1-.5-1.2c.4-1.6-.3-3-.9-4.3-.5-1.1-1.2-2-1.7-3.2-.6.4-.6,1.3-1.4,1.3a.6.6,0,0,1-.4-.1C93.8,93.7,93.4,93.5,93.8,93Z" fill="#d3e9f1"/>
      </g>
      <g id="Group_5809" data-name="Group 5809" clip-path="url(#clip-path)">
        <path id="Path_40868" data-name="Path 40868" d="M62.5,55a4.855,4.855,0,0,0-3.9.3c-.6-.1-.8-.6-1-1-.7-1-1.2-2.1-2.3-2.7a4.349,4.349,0,0,1-.6-.7,3.249,3.249,0,0,0-4.1-1.5,2.769,2.769,0,0,1-.9.1,21.656,21.656,0,0,0-2.5-.4c-1.9-.5-3.7-.3-5,1.4a2.024,2.024,0,0,1-1.4.8c-.2,0-.3-.1-.5-.3-.2-1.1-1.2-.5-1.7-.9A3.32,3.32,0,0,1,40,47.4c4.3-2.9,8.9-4.3,14-2.7,3.8,1.2,6.5,4,8.9,7.1C63.8,53,63.6,53.9,62.5,55Z" fill="#5e7735"/>
      </g>
      <g id="Group_5810" data-name="Group 5810" clip-path="url(#clip-path)">
        <path id="Path_40869" data-name="Path 40869" d="M37.1,93H47.8a6.448,6.448,0,0,0,2-.3c2-.2,3.9-.4,5.7.8a16.182,16.182,0,0,1-7.9,4.3,3.506,3.506,0,0,0-1.4.6c-2.7-.7-5.3-1.9-7.9-2.8a9.038,9.038,0,0,1-2.7-1.1C35.8,93.7,36.4,93.4,37.1,93Z" fill="#bde4ea"/>
      </g>
      <g id="Group_5811" data-name="Group 5811" clip-path="url(#clip-path)">
        <path id="Path_40870" data-name="Path 40870" d="M28.1,64.2a9.083,9.083,0,0,0-4.9-.2,1.344,1.344,0,0,1-.6-.7c-1.3-3.5-2.6-7-2.8-10.8a1.2,1.2,0,0,1,1.5-.8,4.3,4.3,0,0,1,3.8,1.7c.3.3.5.8.9,1,.6.2.6.8.7,1.3a31.845,31.845,0,0,0,.8,3.3c.1.9.4,1.8.5,2.8C27.7,62.6,28.6,63.4,28.1,64.2Z" fill="#f47744"/>
      </g>
      <g id="Group_5812" data-name="Group 5812" clip-path="url(#clip-path)">
        <path id="Path_40871" data-name="Path 40871" d="M31,45.1c2.6.7,3.2,2.9,3.7,5.2A6.922,6.922,0,0,1,33,54.2a40.807,40.807,0,0,0-2.5,3.3,1.47,1.47,0,0,1-1.4.5,1.069,1.069,0,0,1-.6-.9c-.1-3.7-.3-7.5.7-11.1,0-.2.1-.3.2-.5C29.9,44.9,30.4,44.7,31,45.1Z" fill="#f47744"/>
      </g>
      <g id="Group_5813" data-name="Group 5813" clip-path="url(#clip-path)">
        <path id="Path_40872" data-name="Path 40872" d="M30.4,57.2a4.728,4.728,0,0,1,.7-1.2,16.236,16.236,0,0,0,3.6-5.7,3.851,3.851,0,0,1,2.6.1c.2.5-.1.9-.1,1.4a10.03,10.03,0,0,0-.5,5.4,2.854,2.854,0,0,1,0,1.3c-.4,1-.6,2-.9,3-.6.5-.9-.1-1.3-.4-1-.9-1.5-2.1-2.5-2.9C31.8,57.2,31.1,57.3,30.4,57.2Z" fill="#67853a"/>
      </g>
      <g id="Group_5814" data-name="Group 5814" clip-path="url(#clip-path)">
        <path id="Path_40873" data-name="Path 40873" d="M29.6,45.4c-.9,3.7-.8,7.4-.8,11.2,0,.4-.3,1.1.5,1.3.1.4-.2.4-.4.5a1.262,1.262,0,0,0-1.7.8c-.8-1.5-.7-3.2-1.3-4.7-.2-1.2-.3-2.4-.5-3.6V48.6c0-1.1.9-1.7,1.6-2.3C27.8,45.5,28.6,44.9,29.6,45.4Z" fill="#f26737"/>
      </g>
      <g id="Group_5815" data-name="Group 5815" clip-path="url(#clip-path)">
        <path id="Path_40874" data-name="Path 40874" d="M20,52.3a42.566,42.566,0,0,0,2.9,11,1.854,1.854,0,0,1,.2.7c-.6.3-1.2.7-1.7,1-1.2-2.1-2.5-4.1-3.6-6.2-.9-1.6-1.2-3.2.1-4.8C18.4,53.2,18.8,52.2,20,52.3Z" fill="#f26737"/>
      </g>
      <g id="Group_5816" data-name="Group 5816" clip-path="url(#clip-path)">
        <path id="Path_40875" data-name="Path 40875" d="M37.1,93a3.615,3.615,0,0,1-1.5,1.5c-1.9.1-2.7-1.2-3.4-2.6a9.385,9.385,0,0,1-.6-1.5c.1-.7.2-1.5,1-1.7s1.2.5,1.7,1A32.153,32.153,0,0,1,37.1,93Z" fill="#f89e74"/>
      </g>
      <g id="Group_5817" data-name="Group 5817" clip-path="url(#clip-path)">
        <path id="Path_40876" data-name="Path 40876" d="M20,52.3c-.9.3-1.4,1.1-2.2,1.7a9.5,9.5,0,0,1-1.6-1.9c.4-.4.8,0,1.3,0-.6-1.6-1.1-3.2-1.6-4.8,1.1.3,1.2,1.4,1.9,2,.4-.4,0-.9.4-1.5.7,1.7,2.1,2.6,3.1,3.9C20.9,51.9,20.5,52.1,20,52.3Z" fill="#4bb64a"/>
      </g>
      <g id="Group_5818" data-name="Group 5818" clip-path="url(#clip-path)">
        <path id="Path_40877" data-name="Path 40877" d="M29.6,45.4c-1-.1-1.7.6-2.6.8-.3-.7-.6-1.5-.9-2.1.5-.4.8.3,1.3,0V39.6c1,.8.9,2,1.3,3.2.1-.8.2-1.4.3-2h.2a6.264,6.264,0,0,1,.6,2.7c1.3,0,.8,1.1,1.1,1.7C30.5,45.3,30,45.1,29.6,45.4Z" fill="#4bb74a"/>
      </g>
      <g id="Group_5819" data-name="Group 5819" clip-path="url(#clip-path)">
        <path id="Path_40878" data-name="Path 40878" d="M68.9,61.5a7.544,7.544,0,0,0-3.4-4.9c1.4-.4,2.9-.8,4.3-1.1h.9s.1.1,0,.1C70.1,57.5,69.6,59.5,68.9,61.5Z" fill="#cfebf1"/>
      </g>
      <g id="Group_5820" data-name="Group 5820" clip-path="url(#clip-path)">
        <path id="Path_40879" data-name="Path 40879" d="M37.1,51.4c-.4-.4.1-.7.2-1,.4-.1.9-.3,1.3-.4.7.1,2-1,1.9.9-.6.8-1.6.4-2.3.7a1.09,1.09,0,0,1-1.1-.2Z" fill="#583c33"/>
      </g>
      <g id="Group_5821" data-name="Group 5821" clip-path="url(#clip-path)">
        <path id="Path_40880" data-name="Path 40880" d="M99.9,55.2a18.854,18.854,0,0,1,0-6.7,37.484,37.484,0,0,1,0,6.7Z" fill="#5d3e3c"/>
      </g>
      <g id="Group_5822" data-name="Group 5822" clip-path="url(#clip-path)">
        <path id="Path_40881" data-name="Path 40881" d="M25.5,48.5a2.354,2.354,0,0,1,0,2.3,3.617,3.617,0,0,1,0-2.3Z" fill="#f16029"/>
      </g>
      <g id="Group_5823" data-name="Group 5823" clip-path="url(#clip-path)">
        <path id="Path_40882" data-name="Path 40882" d="M77.3,99.8a1.078,1.078,0,0,1-.6-1.1V89.1c1.1,0,1.7,1,2.5,1.5a7.887,7.887,0,0,1,1.5,1.2A97.9,97.9,0,0,0,89.2,99a1.387,1.387,0,0,1,.7.8" fill="#0b76b1"/>
      </g>
      <g id="Group_5824" data-name="Group 5824" clip-path="url(#clip-path)">
        <path id="Path_40883" data-name="Path 40883" d="M76.4,100c-.1-.1-.2-.2-.2-.3,0-3.4,0-6.8.3-10.3v5.8C76.5,96.7,76.4,98.3,76.4,100Z" fill="#dcf1f4"/>
      </g>
      <g id="Group_5825" data-name="Group 5825" clip-path="url(#clip-path)">
        <path id="Path_40884" data-name="Path 40884" d="M68.9,61.5a11.8,11.8,0,0,1,1.9-6,8.676,8.676,0,0,1,2.8-.5c.8.6.8,1.6,1.1,2.4a68.183,68.183,0,0,1,1.4,10.1c.3,3.7.5,7.4.8,11.1V83c-.1.4.1,1.1-.5,1.2-.5.1-.7-.3-.9-.7-1.9-4.4-3.7-8.8-5.6-13.1a1.478,1.478,0,0,1,.5-2c.6-.5,1.7-1.1,1.5-1.8-.1-.6-1.2-.9-1.9-1.4a7.551,7.551,0,0,1-1.4-1.1A23,23,0,0,0,68.9,61.5Z" fill="#f0f9fb"/>
      </g>
      <g id="Group_5826" data-name="Group 5826" clip-path="url(#clip-path)">
        <path id="Path_40885" data-name="Path 40885" d="M58.3,67.6c1.4,1.3,2.8,2.7,4.7,3.2.6.7,2.1.8,2.2,1.5.1,1-.7,2-1.1,3.1H55.9c-.6-.4-.6-1-.7-1.5V72a6.423,6.423,0,0,1,1.1-3,2.7,2.7,0,0,1,2-1.4Z" fill="#9a6828"/>
      </g>
      <g id="Group_5827" data-name="Group 5827" clip-path="url(#clip-path)">
        <path id="Path_40886" data-name="Path 40886" d="M72.5,82.6c-.4,1.3.3,2.6-.3,3.8-1.1-.1-2.1-.1-3.2-.2-.9-.1-1.9-.4-1.6-1.7.1-.5-.2-.4-.4-.4a6.753,6.753,0,0,1-1.4.2.854.854,0,0,1-1.1-.7c-.1-.6.3-.8.8-.9a18.683,18.683,0,0,1,4.7-.4A11.342,11.342,0,0,0,72.5,82.6Z" fill="#f79f75"/>
      </g>
      <g id="Group_5828" data-name="Group 5828" clip-path="url(#clip-path)">
        <path id="Path_40887" data-name="Path 40887" d="M76.5,80.1c-.4-6.3-.8-12.6-1.6-18.9A46.073,46.073,0,0,0,73.5,55c1.1-.2,2.1-.5,3.2-.7a.367.367,0,0,1,.3-.1,7.455,7.455,0,0,0,4.1,3.5c3.5,1,6.2-.4,8.7-2.5a4.735,4.735,0,0,1,1.3-1.1,5.163,5.163,0,0,1,3.3,1.2,2.994,2.994,0,0,1,.8.4,1.729,1.729,0,0,1-.1,1c-1.7,5-2.2,10.2-2.9,15.4-.3,2.5-.6,4.9-.8,7.4a2.106,2.106,0,0,1-.5,1.3,1.5,1.5,0,0,1-1.1.4,57.033,57.033,0,0,1-12.4-.7A1.222,1.222,0,0,1,76.5,80.1Z" fill="#2891cb"/>
      </g>
      <g id="Group_5829" data-name="Group 5829" clip-path="url(#clip-path)">
        <path id="Path_40888" data-name="Path 40888" d="M74.9,42c.2-5.8,1.9-11.1,5.9-15.4.4-.4.6-.9,1.4-.4C86,29,89.9,31.8,93,35.3a17.383,17.383,0,0,0,1.3,1.5.367.367,0,0,1,.1.3v1.3a16.533,16.533,0,0,1-3.7,8.8,18.658,18.658,0,0,1-3.4,2.9,5.2,5.2,0,0,1-5.5-.3,27.25,27.25,0,0,1-3.2-2.5C77.1,45.7,75.4,44.3,74.9,42Z" fill="#f8a275"/>
      </g>
      <g id="Group_5830" data-name="Group 5830" clip-path="url(#clip-path)">
        <path id="Path_40889" data-name="Path 40889" d="M90.9,80.6c.3-2.9.6-5.7,1-8.6a105.868,105.868,0,0,1,2.3-13.7,11.663,11.663,0,0,1,1-2.6,10.468,10.468,0,0,1,2.9,1.2c.2,1.4,1.1,2.6,1.1,4,.1,1,.3,2,.4,3a1.963,1.963,0,0,1-1.4,2.3c-2.6,1.2-2.6,1.3-.6,3.3.9.8.5,1.5.1,2.3-1.3,2.7-2.7,5.5-4,8.2l-3,6.3c-.2.5-.3.2-.3,0a2.026,2.026,0,0,1-.4-1.5C90.4,83.3,90.3,81.9,90.9,80.6Z" fill="#f0f9fb"/>
      </g>
      <g id="Group_5831" data-name="Group 5831" clip-path="url(#clip-path)">
        <path id="Path_40890" data-name="Path 40890" d="M94.2,37.1v-.2c2.3,2.7,2.5,5.9,2.2,9.3a49,49,0,0,1-1.6,8.5l-.3.6c-1.1-.3-2.2-.7-3.3-1a.78.78,0,0,1-1.1-.8c-.1-2.1-.5-4.2.3-6.3a19.108,19.108,0,0,0,3.7-8.8C94.3,38,94,37.5,94.2,37.1Z" fill="#4a302f"/>
      </g>
      <g id="Group_5832" data-name="Group 5832" clip-path="url(#clip-path)">
        <path id="Path_40891" data-name="Path 40891" d="M74.9,42a30.807,30.807,0,0,0,3.7,5.2c.6,2.1.1,4.2-.3,6.3a.92.92,0,0,1-1.4.7h-.1A31.293,31.293,0,0,1,75,45.1,5.43,5.43,0,0,1,74.9,42Z" fill="#4a302f"/>
      </g>
      <g id="Group_5833" data-name="Group 5833" clip-path="url(#clip-path)">
        <path id="Path_40892" data-name="Path 40892" d="M55.4,73.8c.1.5.3,1,.4,1.6H45.7a36.306,36.306,0,0,0,.3-5.7c.5.1.5.5.5.8.1,1.6.1,1.7,1.7,2a42,42,0,0,0,6.1.6C54.9,73.2,55.3,73.2,55.4,73.8Z" fill="#feee84"/>
      </g>
      <g id="Group_5834" data-name="Group 5834" clip-path="url(#clip-path)">
        <path id="Path_40893" data-name="Path 40893" d="M46.2,70.5a1.077,1.077,0,0,0-.2-.8c-1-3.9-3-5.6-7.3-5.9a7.8,7.8,0,0,1-2.3-5.2,13.507,13.507,0,0,1,0-5.3c.2-.6.2-1.4.8-1.8.3,0,.7-.1,1-.1a1.974,1.974,0,0,1,.6,1.2,18.739,18.739,0,0,0,4.8,9.5,35.7,35.7,0,0,0,4.6,4.2,16,16,0,0,1-3.8-7.7,7.719,7.719,0,0,1-.2-1.5,19.725,19.725,0,0,1,.6-4.8,4.273,4.273,0,0,1,1.1-2.1,2.361,2.361,0,0,1,.9-.8.949.949,0,0,1,1.1.4,2.769,2.769,0,0,1,.1.9c-.8,6.9,2.1,12.3,7.1,16.8.5.5,1.3.8,1.5,1.5a9.875,9.875,0,0,0-1.2,2.8,4.32,4.32,0,0,1-3.3.6C50,72.2,47.9,71.9,46.2,70.5Z" fill="#feef83"/>
      </g>
      <g id="Group_5835" data-name="Group 5835" clip-path="url(#clip-path)">
        <path id="Path_40894" data-name="Path 40894" d="M27.3,59.1c0-.2.1-.3,0-.5-.1-1,.3-1.2,1.1-.6.1.1.3.1.5.2a4.128,4.128,0,0,1,1.5.7,13.133,13.133,0,0,1,3.1,4.3,3.127,3.127,0,0,1,.4,1.9,8.7,8.7,0,0,1-4.8-.7,3.947,3.947,0,0,1-1.2-2.5,6.71,6.71,0,0,1-.6-2.8Z" fill="#c5da53"/>
      </g>
      <g id="Group_5836" data-name="Group 5836" clip-path="url(#clip-path)">
        <path id="Path_40895" data-name="Path 40895" d="M33.8,65.1c-.5-2.5-2.1-4.3-3.7-6.2A1.528,1.528,0,0,1,32,58c.9.2,1,1.1,1.5,1.6a13.362,13.362,0,0,0,2,2.1A3.681,3.681,0,0,1,37.6,64a11.94,11.94,0,0,1-3.8,1.1Z" fill="#fae14d"/>
      </g>
      <g id="Group_5837" data-name="Group 5837" clip-path="url(#clip-path)">
        <path id="Path_40896" data-name="Path 40896" d="M37.7,64c-.7-.8-1.4-1.5-2.1-2.3a5.533,5.533,0,0,1,.8-3.1,30.4,30.4,0,0,0,2.3,5.2,3.553,3.553,0,0,0-1,.2Z" fill="#9db85a"/>
      </g>
      <g id="Group_5838" data-name="Group 5838" clip-path="url(#clip-path)">
        <path id="Path_40897" data-name="Path 40897" d="M27.7,62c.4.8.8,1.7,1.2,2.5a2.92,2.92,0,0,0-.9-.2C28.2,63.4,27.3,62.8,27.7,62Z" fill="#ed6e3b"/>
      </g>
      <g id="Group_5839" data-name="Group 5839" clip-path="url(#clip-path)">
        <path id="Path_40898" data-name="Path 40898" d="M90.9,80.6c-.1,1.9-.2,3.8-.3,5.6a18.287,18.287,0,0,0-.2,3.3c0,.4.1.9-.2,1.2-.8.1-1.3-.6-2-.7a76.636,76.636,0,0,0-8.6-4.3c-.5-.2-1-.3-1.3-.8-.4-.4-1.2-.3-1.5-.8a26.2,26.2,0,0,0,.1-2.8,5.022,5.022,0,0,1-.2,2.1c-.1,0-.1-.1-.2-.1v-3a91.67,91.67,0,0,0,12.8.8C89.8,80.8,90.4,80.9,90.9,80.6Z" fill="#0a76b1"/>
      </g>
      <g id="Group_5840" data-name="Group 5840" clip-path="url(#clip-path)">
        <path id="Path_40899" data-name="Path 40899" d="M97.6,102.3c-1.7-.4-1.7-2.6-3.2-3.2-.1,0-.1-.1-.1-.2,0-2.2-1.6-3.7-2.5-5.5-.4-.7-.2-.9.4-1.2.6,0,1,.5,1.6.8,0,.4.4.5.5.8.8.1.9-.5,1.1-1,.1-.3.1-.6.5-.7.4,0,.4.3.5.6a15.09,15.09,0,0,0,1.5,2.8c.7,1.5,1.7,3.1.9,4.9a1.077,1.077,0,0,0,.2.8,1.934,1.934,0,0,1-1.4,1.1Z" fill="#d8e9f1"/>
      </g>
      <g id="Group_5841" data-name="Group 5841" clip-path="url(#clip-path)">
        <path id="Path_40900" data-name="Path 40900" d="M55.5,51.3c1.2.4,1.5,1.6,2.2,2.5.3.4.6.9.9,1.4.6,1.5,1.6,2.8,1.6,4.6a2.618,2.618,0,0,1-.5,1.7,3.654,3.654,0,0,0-1.1,3.1,6.92,6.92,0,0,1-.5,2.8c-.5.1-.7-.2-1-.5a31.343,31.343,0,0,1-4.2-4.7,2.458,2.458,0,0,1-.5-1.7,4.126,4.126,0,0,0,.2-2.9,1.183,1.183,0,0,1,.1-1,4.53,4.53,0,0,0,.7-3.9,1.02,1.02,0,0,1,.2-.9,1.847,1.847,0,0,1,1.9-.5Z" fill="#d0ce68"/>
      </g>
      <g id="Group_5842" data-name="Group 5842" clip-path="url(#clip-path)">
        <path id="Path_40901" data-name="Path 40901" d="M52.6,60.7c.2,1.4,1.2,2.3,2.1,3.3a21.861,21.861,0,0,0,3.4,3.4l.2.2c-.6.5-1.1.9-1.7,1.4-5.8-4.1-9.2-9.6-9.1-16.9a18.1,18.1,0,0,1,.3-2.3,1.648,1.648,0,0,1,2,.1,1.284,1.284,0,0,1,.4,1A19.013,19.013,0,0,0,51.9,59a6.69,6.69,0,0,1,.7,1.7Z" fill="#fbe14d"/>
      </g>
      <g id="Group_5843" data-name="Group 5843" clip-path="url(#clip-path)">
        <path id="Path_40902" data-name="Path 40902" d="M44.7,58.6A16.319,16.319,0,0,0,49.1,67a10.184,10.184,0,0,1-3.8-2.7c-3.2-3-5.8-6.4-6.7-10.9a15.524,15.524,0,0,1-.4-2.1c.7-.4,1.6-.2,2.3-.4.1.1.2.1.3.2.6.4.6,1.2,1,1.8a32.63,32.63,0,0,0,1.8,3.8,6.221,6.221,0,0,0,1.1,1.9Z" fill="#fae14d"/>
      </g>
      <g id="Group_5844" data-name="Group 5844" clip-path="url(#clip-path)">
        <path id="Path_40903" data-name="Path 40903" d="M41.5,52.9a4.167,4.167,0,0,1-.8-1.8,5.383,5.383,0,0,0,1.2-.9c1.4-1.8,3.3-1.9,5.3-1.4.1.5-.3.5-.5.8a3.508,3.508,0,0,0-.5.8,33.359,33.359,0,0,0-4,2.5C42,52.9,41.8,53.1,41.5,52.9Z" fill="#92ac51"/>
      </g>
      <g id="Group_5845" data-name="Group 5845" clip-path="url(#clip-path)">
        <path id="Path_40904" data-name="Path 40904" d="M50,50.8c-.1-.3-.2-.5-.3-.8-.2-.3-.2-.5.1-.7,2.6-1.1,3.6-.7,5.7,2-.6.2-1.2.4-1.9.6A5.89,5.89,0,0,1,50,50.8Z" fill="#93ad51"/>
      </g>
      <g id="Group_5846" data-name="Group 5846" clip-path="url(#clip-path)">
        <path id="Path_40905" data-name="Path 40905" d="M49.9,49.3a1.7,1.7,0,0,1-.1.7,13.8,13.8,0,0,0-2-.3c-.3-.1-.7-.2-1-.3a3.508,3.508,0,0,0,.5-.8,5.939,5.939,0,0,1,2.6.7Z" fill="#553930"/>
      </g>
      <g id="Group_5847" data-name="Group 5847" clip-path="url(#clip-path)">
        <path id="Path_40906" data-name="Path 40906" d="M95.6,102.3h2.1a1.986,1.986,0,0,1-2.1,0Z" fill="#d8e9f1"/>
      </g>
      <g id="Group_5848" data-name="Group 5848" clip-path="url(#clip-path)">
        <path id="Path_40907" data-name="Path 40907" d="M32,58c-.6.3-1.3.6-1.9.9a2.577,2.577,0,0,1-1.3-.8c.2-.1.3-.2.5-.3.3-.2.7-.4,1-.6C31.7,56.6,31.9,56.7,32,58Z" fill="#53352f"/>
      </g>
      <g id="Group_5849" data-name="Group 5849" clip-path="url(#clip-path)">
        <path id="Path_40908" data-name="Path 40908" d="M46.2,70.5c2.2.8,4.4,1.7,6.8,1.5l2.4-.3v2.1a12.42,12.42,0,0,0-3.8-.5,22.264,22.264,0,0,1-3.6-.5C46.2,72.4,46.2,72.4,46.2,70.5Z" fill="#fae14f"/>
      </g>
      <g id="Group_5850" data-name="Group 5850" clip-path="url(#clip-path)">
        <path id="Path_40909" data-name="Path 40909" d="M76.7,83.2V80.8a5.46,5.46,0,0,1,.1,3.1,1.7,1.7,0,0,1-.1-.7Z" fill="#056eae"/>
      </g>
      <g id="Group_5851" data-name="Group 5851" clip-path="url(#clip-path)">
        <path id="Path_40910" data-name="Path 40910" d="M76.8,54.3a1.622,1.622,0,0,0,1.3-1.6c.1-1.8.3-3.7.4-5.5,1.2.7,2.1,1.8,3.4,2.5a5.41,5.41,0,0,0,6.8-1c.6-.5,1.1-1,1.7-1.6v5.8c0,.7.1,1.1.8,1.2-2.1,2.3-4.6,4.1-7.8,4.1a6.6,6.6,0,0,1-6.6-3.9Z" fill="#ea8a61"/>
      </g>
      <g id="Group_5852" data-name="Group 5852" clip-path="url(#clip-path)">
        <path id="Path_40911" data-name="Path 40911" d="M94.2,37.1c0,.5.2.9-.2,1.3A2.954,2.954,0,0,1,94.2,37.1Z" fill="#674a46"/>
      </g>
      <g id="Group_5853" data-name="Group 5853" clip-path="url(#clip-path)">
        <path id="Path_40912" data-name="Path 40912" d="M41.5,52.9a11.6,11.6,0,0,1,4.7-2.7c-1.4,1.7-1.5,3.8-1.6,5.8a2.958,2.958,0,0,1-.2,1c-.5.3-.7-.1-1.1-.3A11.15,11.15,0,0,1,41.5,52.9Z" fill="#f4eb86"/>
      </g>
      <g id="Group_5854" data-name="Group 5854" clip-path="url(#clip-path)">
        <path id="Path_40913" data-name="Path 40913" d="M43.3,56.8c.4.1.7.2,1.1.3.4.4.2,1,.4,1.5C43.8,58.3,43.7,57.5,43.3,56.8Z" fill="#a4bb5b"/>
      </g>
      <g id="Group_5855" data-name="Group 5855" clip-path="url(#clip-path)">
        <path id="Path_40914" data-name="Path 40914" d="M94.3,93.8c.1.2.4.5,0,.7-.1,0-.4-.1-.4-.2C93.7,93.9,93.9,93.8,94.3,93.8Z" fill="#dbe9f2"/>
      </g>
      <g id="Group_5856" data-name="Group 5856" clip-path="url(#clip-path)">
        <path id="Path_40915" data-name="Path 40915" d="M50,50.8a15,15,0,0,1,3.6,1.1,11.018,11.018,0,0,0,.2,1.8,2.643,2.643,0,0,1-.5,2.4c-.4.5-.7,1.1-.4,1.6.6,1.1.1,2-.3,3A12.5,12.5,0,0,1,50.1,54C49.9,52.9,49.4,51.8,50,50.8Z" fill="#f4eb86"/>
      </g>
      <g id="Group_5857" data-name="Group 5857" clip-path="url(#clip-path)">
        <path id="Path_40916" data-name="Path 40916" d="M89.4,97.6c-.1.2.2.5,0,.7l-.3-.1C88.9,97.9,89.1,97.8,89.4,97.6Z" fill="#dbe9f2"/>
      </g>
      <g id="Group_5858" data-name="Group 5858" clip-path="url(#clip-path)">
        <path id="Path_40917" data-name="Path 40917" d="M77,89.4l-1.6,36.5h14l.9-31.8Z" fill="#0a76b1"/>
      </g>
      <g id="Group_5859" data-name="Group 5859" clip-path="url(#clip-path)">
        <path id="Path_40918" data-name="Path 40918" d="M64.3,102.8s-1.3,16.1-2.6,22.9l13.8.2L77,89.4,65.6,90.7l-1.1,11.6Z" fill="#cdebf2"/>
      </g>
      <g id="Group_5860" data-name="Group 5860" clip-path="url(#clip-path)">
        <path id="Path_40919" data-name="Path 40919" d="M75.4,83.4a9.291,9.291,0,0,0,1,.5c0-.3.1-.6.1-.9a.367.367,0,0,1,.3.1l.3.6c.3.5,1.1.4,1.3,1-.1.5.1.8.5,1.2A9.966,9.966,0,0,1,81,91.6c0,.2-.1.3-.3.2-1.4-.8-2.7-1.8-4-2.7a20.252,20.252,0,0,0-4.5-2.6c0-1.3-.7-2.6.3-3.8C73.5,82.9,74.4,83.2,75.4,83.4Z" fill="#e4eff5"/>
      </g>
      <g id="Group_5861" data-name="Group 5861" clip-path="url(#clip-path)">
        <path id="Path_40920" data-name="Path 40920" d="M88.3,89.7a4.6,4.6,0,0,1,1.8,1c.6.6,1.6.7,2.1,1.6a1.059,1.059,0,0,0,.1,1.3c.8,1,1.2,2.3,1.9,3.3.1.1,0-.1.1.1.1,1.5,1.2,2.4,1.9,3.6.4.7,1.3.9,1.4,1.8h0a3.75,3.75,0,0,1-2.1,0c-2.2-.2-3.9-1.5-5.7-2.6a3.039,3.039,0,0,0-.7-.5c.2-.4.6-.8.1-1.4-.1-.1-.1-.2-.2-.3-.6-2.7-2.5-4.6-3.6-7a2.622,2.622,0,0,1-.5-.9.913.913,0,0,1,.2-1.1.642.642,0,0,1,.9-.1,7.458,7.458,0,0,1,1.5.9A.67.67,0,0,0,88.3,89.7Z" fill="#dbe9f2"/>
      </g>
      <g id="Group_5862" data-name="Group 5862" clip-path="url(#clip-path)">
        <path id="Path_40921" data-name="Path 40921" d="M88.3,89.7a.668.668,0,0,1-1.1-.2,2.589,2.589,0,0,0-1.1-.7c-.4-.2-.7-.3-1,0-.3.4-.1.7.2,1,1.2,1.4,1.8,3.3,3.1,4.7a7.044,7.044,0,0,1,.9,3h0c.9.7.6,1.1-.2,1.5-3.2-2-5.8-4.7-8.5-7.2a9.661,9.661,0,0,0-1.2-4.4,2.982,2.982,0,0,0-1.2-1.7.615.615,0,0,1,.1-1,66.664,66.664,0,0,1,10,5Z" fill="#deebf2"/>
      </g>
    </g>
  </g>
</svg>
