<svg id="general_surgeon" xmlns="http://www.w3.org/2000/svg" xmlns:xlink="http://www.w3.org/1999/xlink" width="116.526" height="116.525" viewBox="0 0 116.526 116.525">
  <defs>
    <linearGradient id="linear-gradient" y1="0.5" x2="1" y2="0.5" gradientUnits="objectBoundingBox">
      <stop offset="0" stop-color="#ebebeb"/>
      <stop offset="1" stop-color="#fff"/>
    </linearGradient>
    <clipPath id="clip-path">
      <circle id="Ellipse_1815" data-name="Ellipse 1815" cx="58.263" cy="58.263" r="58.263" transform="translate(0 0)"/>
    </clipPath>
  </defs>
  <circle id="Ellipse_1814" data-name="Ellipse 1814" cx="58.263" cy="58.263" r="58.263" transform="translate(0 0)" fill="url(#linear-gradient)"/>
  <g id="Group_7471" data-name="Group 7471">
    <g id="Group_7470" data-name="Group 7470" clip-path="url(#clip-path)">
      <g id="Group_7464" data-name="Group 7464" transform="translate(56.878 9.204)">
        <path id="Path_47071" data-name="Path 47071" d="M120.4,86.663l7.1,1.556-.1-6.42-1.362,4.766Z" transform="translate(-80.01 -29.045)" fill="#376b54"/>
        <path id="Path_47072" data-name="Path 47072" d="M121.1,85l6.42-3.6-.1,2.529Z" transform="translate(-80.029 -29.034)" fill="#376b54"/>
        <path id="Path_47073" data-name="Path 47073" d="M80.192,81.007c-2.043-2.626,7.392-30.153,11.575-28.11,9.532,4.572-3.5,29.764-3.5,29.764Z" transform="translate(-78.904 -28.252)" fill="#79b29c"/>
        <path id="Path_47074" data-name="Path 47074" d="M92.011,52.9c-1.167-.584-.778,3.988-2.432,6.711,1.07,3.015-.292,4.863-.875,10.116a33,33,0,0,1-3.4,12.256l3.21.681S101.544,57.47,92.011,52.9Z" transform="translate(-79.051 -28.254)" fill="#5f9982"/>
        <path id="Path_47075" data-name="Path 47075" d="M79.969,83.871s-2.918-4.766.778-7.392,12.645,1.654,7.1,9.727C84.152,91.652,79.969,83.871,79.969,83.871Z" transform="translate(-78.875 -28.879)" fill="#9ed8c0"/>
        <path id="Path_47076" data-name="Path 47076" d="M84.866,75.9a10.719,10.719,0,0,1,.195,1.751c0,3.6-2.14,6.42-4.766,6.42H80.1c.681,1.07,4.474,7.1,7.879,2.14C91.869,80.472,88.465,76.678,84.866,75.9Z" transform="translate(-78.909 -28.884)" fill="#79bf9f"/>
        <path id="Path_47077" data-name="Path 47077" d="M127.989,142.592c0-1.654-6.225-6.614-5.642-10.408s8.56-34.043-.486-42.894c-1.654-1.654-19.551,2.918-20.621,8.657S94.724,130.629,95.7,135.3c1.945,9.435,5.155,36.767,5.155,36.767h1.362c-1.362-6.42,2.334-25.678,2.334-26.846s-3.988-7.587-3.988-11.38,7.3-21.4,9.435-25.192c.681-1.167,4.572-1.264,5.252-.486.875,1.07.195,20.231,2.432,26.456s8.657,30.347,9.532,37.448h1.264C127.309,168.271,127.989,144.246,127.989,142.592Z" transform="translate(-79.332 -29.241)" fill="#528972"/>
        <path id="Path_47078" data-name="Path 47078" d="M127.989,142.592c0-1.654-6.225-6.614-5.642-10.408s8.56-34.043-.486-42.894c-1.654-1.654-19.551,2.918-20.621,8.657S94.724,130.629,95.7,135.3c1.07,5.058,2.432,15.368,3.5,23.83h.1c1.264,0,2.237,3.6,2.237,8.17a23.456,23.456,0,0,1-.486,4.863h1.167c-1.362-6.42,2.334-25.678,2.334-26.846s-3.988-7.587-3.988-11.38,7.3-21.4,9.435-25.192c.681-1.167,4.572-1.264,5.252-.486.875,1.07.195,20.231,2.432,26.456,1.167,3.307,3.6,11.867,5.739,20.134.1-.389.292-.584.486-.584.973-.1,2.334,3.988,3.015,9.24a32.417,32.417,0,0,1,.195,7.976c0,.2.1.486.1.681h1.264C127.309,168.271,127.989,144.246,127.989,142.592Z" transform="translate(-79.332 -29.241)" fill="#376b54"/>
        <path id="Path_47079" data-name="Path 47079" d="M99.5,100.182c-.292-7.295,4.474-15.952,1.459-20.62C97.847,74.8,86.273,62.832,89.385,56.315s20.037-7.976,22.274-5.35,4.863,23.052,6.128,25.192c3.113,5.544,7.976,16.73,7.1,20.037C124.012,99.307,99.6,102.127,99.5,100.182Z" transform="translate(-79.148 -28.169)" fill="#6d635a"/>
        <path id="Path_47080" data-name="Path 47080" d="M95.1,153.616s-1.654-16.438-1.654-22.663c0-6.322,4.572-31.514,5.35-37.545,1.751-13.52-4.572-19.356-5.739-21.69-1.167-2.237-6.614-8.754-4.766-14.784,0,0,4.669-8.462,8.754-9.24s12.937.292,14.3,2.821c1.362,2.626,4.766,21.2,6.809,24.608s5.933,15.66,6.614,18.189c3.015,10.7-12.937,26.748-1.848,57.484,0,0-9.435-1.654-14.882,1.751C101.81,156.534,98.7,155.853,95.1,153.616Z" transform="translate(-79.122 -28.106)" fill="#79b29c"/>
        <path id="Path_47081" data-name="Path 47081" d="M102.468,50.375,98.577,38.8,94.2,49.694l1.362,3.891a2.884,2.884,0,0,0,1.556,1.654c.778.292,1.945.875,2.626.584a5.636,5.636,0,0,0,2.724-5.448Z" transform="translate(-79.294 -27.87)" fill="#ffcd9c"/>
        <path id="Path_47082" data-name="Path 47082" d="M94.7,52.7l3.5.875,2.821,2.14S97.423,59.022,94.7,52.7Z" transform="translate(-79.308 -28.25)" fill="#5f9982"/>
        <path id="Path_47083" data-name="Path 47083" d="M94.7,53.4l3.5.875,2.821,2.14S97.326,59.722,94.7,53.4Z" transform="translate(-79.308 -28.269)" fill="#79b29c"/>
        <path id="Path_47084" data-name="Path 47084" d="M103.9,78.78c.875-3.891,3.793-31.612,7.684-28.985,11.088,7.587,1.848,31.32,1.848,31.32Z" transform="translate(-79.559 -28.166)" fill="#79b29c"/>
        <path id="Path_47085" data-name="Path 47085" d="M111.737,49.8c2.334,3.988,5.642,7.2,1.751,21.3a29.454,29.454,0,0,1-3.988,8.95l4.085.973C113.585,81.12,122.826,57.387,111.737,49.8Z" transform="translate(-79.712 -28.171)" fill="#5f9982"/>
        <path id="Path_47086" data-name="Path 47086" d="M106.173,75.379s5.35-2.432,7.781,1.556-3.113,12.645-10.991,6.128C98.683,79.562,106.173,75.379,106.173,75.379Z" transform="translate(-79.498 -28.85)" fill="#9ed8c0"/>
        <path id="Path_47087" data-name="Path 47087" d="M113.953,76.951A4.515,4.515,0,0,0,112.1,75.2c.1,1.945-2.529,4.377-6.322,5.641a13.683,13.683,0,0,1-4.182.778,4.676,4.676,0,0,0,1.362,1.459C111.035,89.4,116.482,80.841,113.953,76.951Z" transform="translate(-79.496 -28.865)" fill="#79bf9f"/>
        <path id="Path_47088" data-name="Path 47088" d="M90.7,94.7c1.556-2.821,10.991-17.411,13.909-17.8,2.918-.292,9.143,3.015,8.365,4.863S94.493,92.17,92.062,95.283Z" transform="translate(-79.199 -28.911)" fill="#ffcd9c"/>
        <path id="Path_47089" data-name="Path 47089" d="M105.015,76.9c2.14.681,3.988,1.945,3.5,3.21C107.835,81.861,95.385,91,91.3,95.089l.681.292c2.432-3.113,20.134-11.672,20.912-13.52S108.127,76.9,105.015,76.9Z" transform="translate(-79.215 -28.911)" fill="#f4ad7d"/>
        <path id="Path_47090" data-name="Path 47090" d="M83.58,95.51c-.68-2.918-4.863-11.477-4.18-13.71,1.654-5.641,8.949-4.669,9.921,1.751.292,2.043-4.183,8.851-4.085,12.158Z" transform="translate(-78.888 -28.944)" fill="#ffcd9c"/>
        <path id="Path_47091" data-name="Path 47091" d="M89.349,83.546c-.875-5.544-6.322-7-8.949-3.793a3.748,3.748,0,0,1,2.529-.195c2.14.389,3.6,5.058,2.626,10.6a34.614,34.614,0,0,0-.389,5.544h0C85.069,92.4,89.64,85.589,89.349,83.546Z" transform="translate(-78.917 -28.943)" fill="#f4ad7d"/>
        <path id="Path_47092" data-name="Path 47092" d="M90.681,93.4l2.529,1.751s-.875,1.362-1.264,1.459S89.9,95.54,90,95.151a8.2,8.2,0,0,1,.681-1.751Z" transform="translate(-79.179 -29.362)" fill="#9ed8c0"/>
        <path id="Path_47093" data-name="Path 47093" d="M82.8,94.5l3.113.1s.1,1.556-.195,1.848a3.471,3.471,0,0,1-2.432-.1A6.474,6.474,0,0,1,82.8,94.5Z" transform="translate(-78.983 -29.392)" fill="#9ed8c0"/>
        <path id="Path_47094" data-name="Path 47094" d="M102.59,91.042c-2.432.195,8.754-3.21,11.672-1.654S105.217,90.848,102.59,91.042Z" transform="translate(-79.514 -29.242)" fill="#79b29c"/>
        <path id="Path_47095" data-name="Path 47095" d="M99.7,51.68l.292,4.474s4.766-1.264,3.7-6.225c-.195-.973-.973-2.432-2.043-2.529C101.645,47.3,101.256,50.221,99.7,51.68Z" transform="translate(-79.445 -28.105)" fill="#5f9982"/>
        <path id="Path_47096" data-name="Path 47096" d="M100.5,51.98l.292,4.474s4.766-1.264,3.7-6.225c-.195-.973-.973-2.432-2.043-2.529C102.445,47.6,102.056,50.521,100.5,51.98Z" transform="translate(-79.466 -28.113)" fill="#79b29c"/>
        <path id="Path_47097" data-name="Path 47097" d="M92.6,60.1s-1.07,8.657,5.642,14.59A22.118,22.118,0,0,1,92.6,60.1Z" transform="translate(-79.249 -28.452)" fill="#9ed8c0"/>
        <path id="Path_47098" data-name="Path 47098" d="M102.713,59.2,92.5,60.464l.1.584Z" transform="translate(-79.248 -28.427)" fill="#9ed8c0"/>
        <path id="Path_47099" data-name="Path 47099" d="M106.511,155.887c-4.377-10.894-3.015-30.736-2.723-28.791,3.307,23.441,9.435,25.873,9.435,25.873a42.241,42.241,0,0,0-6.712,2.918Z" transform="translate(-79.545 -30.28)" fill="#5f9982"/>
        <path id="Path_47100" data-name="Path 47100" d="M115.718,94.9c-1.07.195-1.556,13.131-2.918,18.578,3.891-3.6,3.793-15.952,8.56-14.006C121.36,99.471,117.566,94.608,115.718,94.9Z" transform="translate(-79.803 -29.403)" fill="#5f9982"/>
        <path id="Path_47101" data-name="Path 47101" d="M115.41,59.6c-.584,1.264-3.988,9.143-3.015,8.073s2.918-4.085,3.015-2.237C116.869,65.047,115.41,59.6,115.41,59.6Z" transform="translate(-79.787 -28.438)" fill="#5f9982"/>
        <path id="Path_47102" data-name="Path 47102" d="M95.663,62.436c4.28,2.237,8.949-3.793,12.353-10.408.584-1.167,1.07-2.14,1.556-3.21a23.111,23.111,0,0,0-7.976-1.654c-.1,0-.2-.1-.292-.1v.1h-.1L98.387,38.8,94.4,48.818a20.238,20.238,0,0,0-3.6,3.988C91.286,57.183,93.134,61.074,95.663,62.436Z" transform="translate(-79.201 -27.87)" fill="#b7624f" opacity="0.6"/>
        <path id="Path_47103" data-name="Path 47103" d="M88.811,39.964c0-.681-1.459-1.264-3.307-1.264s-3.4.584-3.4,1.264,1.848,1.07,3.7,1.07C87.547,41.034,88.811,40.645,88.811,39.964Z" transform="translate(-78.964 -27.867)" fill="#5f9982"/>
        <path id="Path_47104" data-name="Path 47104" d="M99,38.629l3.793-2.529-.195,1.751Z" transform="translate(-79.425 -27.796)" fill="#79b29c"/>
        <path id="Path_47105" data-name="Path 47105" d="M98.9,38.3l4.669.973-1.459.973Z" transform="translate(-79.423 -27.856)" fill="#79b29c"/>
        <path id="Path_47106" data-name="Path 47106" d="M90.581,53.928c-1.848-2.043-4.766-5.836-5.155-8.073-.389-2.043-2.043-.973-2.334-2.723C81.341,30.876,87.761,29.417,93.4,30.2c2.432.389,4.766,10.408,5.35,16.341C99.044,49.746,94.083,55.971,90.581,53.928Z" transform="translate(-78.983 -27.63)" fill="#ffcd9c"/>
        <path id="Path_47107" data-name="Path 47107" d="M93.691,39.237,82.8,40.793l-.1-2.334L93.5,37Z" transform="translate(-78.98 -27.821)" fill="#f4ad7d"/>
        <path id="Path_47108" data-name="Path 47108" d="M89.593,50.323c-.1-.875-.486-2.626,0-2.723s2.043,1.654,2.043,1.654Z" transform="translate(-79.162 -28.11)" fill="#f4ad7d"/>
        <path id="Path_47109" data-name="Path 47109" d="M87.3,44s.778,7,1.459,6.809a6.621,6.621,0,0,0,1.848-1.459Z" transform="translate(-79.106 -28.012)" fill="#ffcd9c"/>
        <path id="Path_47110" data-name="Path 47110" d="M100.5,44.568s1.07-8.365-3.015-11.186c-1.848-1.264-5.739-1.264-3.307,6.614C94.956,42.72,100.5,44.568,100.5,44.568Z" transform="translate(-79.272 -27.705)" fill="#93542a"/>
        <path id="Path_47111" data-name="Path 47111" d="M97.386,33.382c-1.654-1.167-5.155-1.362-3.7,5.252,5.155.486,4.961,5.155,5.155,5.739a8.34,8.34,0,0,0,1.654.292S101.569,36.2,97.386,33.382Z" transform="translate(-79.271 -27.704)" fill="#703a1b"/>
        <path id="Path_47112" data-name="Path 47112" d="M93.8,38.8c-.389,1.07,2.821,8.657,2.821,8.657,1.167-1.654-1.362-5.641.584-7.1A13.507,13.507,0,0,1,93.8,38.8Z" transform="translate(-79.282 -27.87)" fill="#93542a"/>
        <path id="Path_47113" data-name="Path 47113" d="M82.1,39.465c6.614-1.848,11.964-2.529,18.189-.973,0,0-1.945-9.046-5.252-10.116s-9.921-.778-9.921-.778S82.489,34.5,82.1,39.465Z" transform="translate(-78.964 -27.563)" fill="#9ed8c0"/>
        <path id="Path_47114" data-name="Path 47114" d="M95.3,28.381a28.221,28.221,0,0,0-3.7-.681,14.886,14.886,0,0,1,1.945,7.781c0,.778-.1,1.459-.1,2.14a30.8,30.8,0,0,1,7.1.875S98.6,29.451,95.3,28.381Z" transform="translate(-79.223 -27.566)" fill="#89c6aa"/>
        <path id="Path_47115" data-name="Path 47115" d="M96.584,53.024l2.821-9.24-.292-.584L96,52.635Z" transform="translate(-79.343 -27.99)" fill="#79b29c"/>
        <path id="Path_47116" data-name="Path 47116" d="M94.684,46.728,97.5,40.7l-.486-.1L94.1,46.241Z" transform="translate(-79.292 -27.919)" fill="#79b29c"/>
        <path id="Path_47117" data-name="Path 47117" d="M99.606,43.309c.292-1.556-.292-3.015-1.362-3.21-.875-.195-1.751.778-1.945,2.043a2.848,2.848,0,0,0,1.07,2.918C98.244,45.546,99.314,44.865,99.606,43.309Z" transform="translate(-79.35 -27.905)" fill="#ffcd9c"/>
        <path id="Path_47118" data-name="Path 47118" d="M86,47.823c3.015,3.6,8.851-2.723,8.851-2.723-.584,5.058,3.015,7.1.778,8.949a5.377,5.377,0,0,1-5.155.875C88.821,54.438,86.875,49.574,86,47.823Z" transform="translate(-79.07 -28.042)" fill="#9ed8c0"/>
        <path id="Path_47119" data-name="Path 47119" d="M94.906,45.1S90.918,48.893,88,48.893c.195.973.195,2.237.875,2.237.973-.1,9.435,3.4,2.043,3.891a5.183,5.183,0,0,0,4.766-.973C97.921,52.2,94.322,50.158,94.906,45.1Z" transform="translate(-79.125 -28.042)" fill="#8ac4a9"/>
        <path id="Path_47120" data-name="Path 47120" d="M99.034,43.14c.195-1.07-.292-2.043-.973-2.14s-1.264.486-1.362,1.362a1.868,1.868,0,0,0,.778,1.945C98.158,44.7,98.839,44.112,99.034,43.14Z" transform="translate(-79.362 -27.93)" fill="#f4ad7d"/>
        <path id="Path_47121" data-name="Path 47121" d="M98.561,44.364c.1-.584-.195-1.264-.584-1.264-.389-.1-.778.292-.778.875-.1.486.1,1.07.486,1.167C97.977,45.239,98.464,44.948,98.561,44.364Z" transform="translate(-79.376 -27.987)" fill="#ffcd9c"/>
        <path id="Path_47122" data-name="Path 47122" d="M81.9,39.056v.778a86.73,86.73,0,0,1,13.52-1.751V37.5C95.517,37.6,88.222,37.208,81.9,39.056Z" transform="translate(-78.958 -27.834)" fill="#d2f9e7"/>
        <path id="Path_47123" data-name="Path 47123" d="M94.68,36.541c-1.556-3.5-4.182-1.362-4.28-3.015S94.1,30.9,94.1,30.9,95.069,35.666,94.68,36.541Z" transform="translate(-79.19 -27.654)" fill="#89c6aa"/>
        <path id="Path_47124" data-name="Path 47124" d="M91.966,95c.1.389-.973,1.07-.681,2.529,0,.292.195.584.195.973.195.681,0,1.459-.292,1.459s-.1-.584-.195-1.07c-.1-.389-.1-.584-.195-.584s-.1.584-.1,1.167c0,.778-.195,1.362-.486,1.362s-.1-.486-.195-1.264c-.1-.584,0-.875-.292-.875-.1,0-.195.389-.292,1.07-.195.778-.486,1.167-.681,1.167-.292-.1,0-.389.1-1.264.1-1.167.389-2.237,0-2.821s-1.556.195-1.654-.389c0-.486,1.167-.584,2.626-.875C91.091,95.386,91.869,94.608,91.966,95Z" transform="translate(-79.103 -29.403)" fill="#9ed8c0"/>
        <path id="Path_47125" data-name="Path 47125" d="M84.046,94.8c-.292.292.195,1.362-.681,2.529-.195.195-.389.486-.681.778-.389.486-.681,1.264-.486,1.362s.389-.389.681-.778c.292-.292.389-.486.389-.389,0,0-.195.486-.486,1.07-.389.681-.486,1.264-.292,1.362s.292-.389.681-.973c.292-.486.486-.778.681-.681.1.1-.1.389-.292,1.07-.195.778-.195,1.264,0,1.264.292.1.195-.292.486-1.167.486-1.07.778-2.14,1.264-2.432s1.07.875,1.264.389c.195-.389-.584-1.07-1.459-1.945C84.435,95.577,84.338,94.507,84.046,94.8Z" transform="translate(-78.965 -29.399)" fill="#9ed8c0"/>
      </g>
      <path id="Path_47126" data-name="Path 47126" d="M93.692,96.5l3.5,3.113-.875.1L93.4,96.889Z" transform="translate(-22.395 -20.243)" fill="#7c97a0"/>
      <path id="Path_47127" data-name="Path 47127" d="M78.643,97.2,76.6,100.313l.584.1,1.654-2.821Z" transform="translate(-21.936 -20.262)" fill="#7c97a0"/>
      <path id="Path_47128" data-name="Path 47128" d="M54.4,96.393s6.809-8.462,12.839-.1l-1.264,1.264s-3.21-8.073-10.6-.292Z" transform="translate(-21.329 -20.137)" fill="#fff6dc"/>
      <path id="Path_47129" data-name="Path 47129" d="M48.882,112.75c-2.237-.681,1.264-6.128,14.3-5.252s13.131,5.058,13.131,5.058Z" transform="translate(-21.161 -20.541)" fill="#af9464"/>
      <path id="Path_47130" data-name="Path 47130" d="M120.662,135.6H94.4c6.517,13.325,8.851,22.469,0,34.043h26.262C114.632,158.847,114.923,149.8,120.662,135.6Z" transform="translate(-22.422 -21.312)" fill="#6b4e45"/>
      <path id="Path_47131" data-name="Path 47131" d="M120.662,135.6H94.4c6.517,13.325,8.851,22.469,0,34.043h3.891c.681-8.17,4.766-14.493,9.727-14.493s9.046,6.322,9.727,14.493h2.918C114.632,158.847,114.923,149.8,120.662,135.6Z" transform="translate(-22.422 -21.312)" fill="#543c33"/>
      <path id="Path_47132" data-name="Path 47132" d="M145.558,101.889c-4.961-1.556-6.809,1.945-3.015,3.113s6.031,5.058,8.365,5.641c6.711,1.556,6.128-2.14,28.791,1.362l.389-.778C176.2,110.643,159.37,106.071,145.558,101.889Z" transform="translate(-23.683 -20.38)" fill="#f4ad7d"/>
      <path id="Path_47133" data-name="Path 47133" d="M151.492,108.711c-2.334-.486-4.572-4.377-8.365-5.641a3.6,3.6,0,0,1-1.751-1.07c-1.362.778-1.167,2.334,1.264,3.113,3.793,1.167,6.031,5.058,8.365,5.641,6.711,1.556,6.128-2.14,28.791,1.362l.2-.389C159.176,108.517,158.009,110.17,151.492,108.711Z" transform="translate(-23.683 -20.393)" fill="#f4ad7d"/>
      <path id="Path_47134" data-name="Path 47134" d="M144.118,103.337c-.1,2.529-20.523,10.5-29.375,9.435s-5.155-10.116-2.529-10.7C114.938,101.489,144.313,99.641,144.118,103.337Z" transform="translate(-22.826 -20.369)" fill="#f4ad7d"/>
      <path id="Path_47135" data-name="Path 47135" d="M137.212,103.629c-2.529-.292-4.085-1.264-4.863-2.529-8.462-.1-18.578.584-20.134.973-2.626.584-6.322,9.629,2.529,10.7s29.569-6.517,29.375-9.435v-.1A21.721,21.721,0,0,1,137.212,103.629Z" transform="translate(-22.826 -20.369)" fill="#f4ad7d"/>
      <path id="Path_47136" data-name="Path 47136" d="M143.958,103.488c-4.961-1.654-6.809,1.751-3.015,3.015s5.933,5.252,8.268,5.836c6.614,1.654,6.225-2.043,28.791,2.043l.389-.778C174.306,112.922,157.673,108.059,143.958,103.488Z" transform="translate(-23.639 -20.422)" fill="#ffcd9c"/>
      <path id="Path_47137" data-name="Path 47137" d="M149.7,110.4c-2.334-.584-4.474-4.572-8.268-5.836a3.079,3.079,0,0,1-1.751-1.167c-1.362.681-1.167,2.334,1.167,3.113,3.793,1.264,5.933,5.252,8.268,5.836,6.614,1.654,6.225-2.043,28.791,2.043l.2-.389C157.379,110.4,156.212,112.057,149.7,110.4Z" transform="translate(-23.636 -20.432)" fill="#f4ad7d"/>
      <path id="Path_47138" data-name="Path 47138" d="M61.156,101.7c-1.654,1.167-7.781,2.432-9.629,2.334-1.945-.195-3.7,4.474-1.848,5.155,2.529.875,9.921-.389,11.478-1.07C62.615,107.341,61.156,101.7,61.156,101.7Z" transform="translate(-21.179 -20.385)" fill="#ffcd9c"/>
      <path id="Path_47139" data-name="Path 47139" d="M55.417,104.381a1.532,1.532,0,0,1-.681-.681,14.763,14.763,0,0,1-3.21.292c-1.945-.195-3.7,4.474-1.848,5.155,2.529.875,9.921-.389,11.478-1.07.778-.389.778-2.14.584-3.7C59.21,104.77,56.681,104.867,55.417,104.381Z" transform="translate(-21.179 -20.44)" fill="#f4ad7d"/>
      <path id="Path_47140" data-name="Path 47140" d="M142.416,104.927c-.2,2.529-20.815,10.018-29.569,8.754s-4.961-10.213-2.237-10.8C113.333,102.4,142.708,101.231,142.416,104.927Z" transform="translate(-22.778 -20.402)" fill="#ffcd9c"/>
      <path id="Path_47141" data-name="Path 47141" d="M135.511,105.121c-2.529-.389-3.988-1.362-4.766-2.723a168.524,168.524,0,0,0-20.134.486c-2.626.486-6.517,9.435,2.237,10.8,8.754,1.264,29.764-5.739,29.569-8.754v-.1A24.534,24.534,0,0,1,135.511,105.121Z" transform="translate(-22.779 -20.402)" fill="#f4ad7d"/>
      <path id="Path_47142" data-name="Path 47142" d="M69.669,112.242c22.469,2.723,28.4,0,31.515-2.334.778-.584,11.867-16.049-14.2-7.879-3.307,1.07-9.338-3.6-13.131-9.629,0,0-15.466,6.517-15.952,12.256C57.705,107.379,62.666,111.367,69.669,112.242Z" transform="translate(-21.425 -20.131)" fill="#ffcd9c"/>
      <path id="Path_47143" data-name="Path 47143" d="M87.136,102.044c-2.334.681-8.657-2.237-11.867-5.544-2.14,3.21-3.113,7.684-10.894,8.949-2.529.389.875,6.322,5.447,6.906,22.469,2.723,28.4,0,31.515-2.334C102.116,109.339,114.468,94.166,87.136,102.044Z" transform="translate(-21.578 -20.243)" fill="#f4ad7d"/>
      <path id="Path_47144" data-name="Path 47144" d="M61.692,107.06c1.751-4.377,24.609,2.529,26.943,3.793s-.778,3.21-3.21,3.113C82.994,113.966,58.58,114.938,61.692,107.06Z" transform="translate(-21.521 -20.493)" fill="#ffcd9c"/>
      <path id="Path_47145" data-name="Path 47145" d="M88.751,110.981a11.92,11.92,0,0,0-1.264-.486c0,1.07-2.237,2.14-4.085,2.14-1.751,0-15.368.486-21.3-2.334,3.7,4.474,21.3,3.793,23.344,3.793C87.876,114.191,91.086,112.245,88.751,110.981Z" transform="translate(-21.54 -20.62)" fill="#f4ad7d"/>
      <path id="Path_47146" data-name="Path 47146" d="M85.3,110.733c-.875-5.058,15.174-4.863,26.651-9.143,3.015-1.167,3.113.973.584,1.848C104.655,105.967,86.564,117.737,85.3,110.733Z" transform="translate(-22.173 -20.373)" fill="#ffcd9c"/>
      <path id="Path_47147" data-name="Path 47147" d="M113.507,101.889c-7.879,2.626-25.97,14.4-27.235,7.295-.292-1.459-1.167.584-.973,1.459,1.264,7.1,19.356-4.766,27.235-7.295,1.459-.486,2.043-1.362,1.751-1.848a2.912,2.912,0,0,1-.778.389Z" transform="translate(-22.173 -20.38)" fill="#f4ad7d"/>
      <path id="Path_47148" data-name="Path 47148" d="M55.463,99.156c1.556,4.669-2.626,11.866-7.684,12.936-7.879,1.556-10.408-3.307-11.38-8.073-.778-4.085,7-6.225,7.684-6.128C46.514,98.184,48.849,96.433,55.463,99.156Z" transform="translate(-20.836 -20.273)" fill="#ffcd9c"/>
      <path id="Path_47149" data-name="Path 47149" d="M50.2,111.776c.681-.486,1.751-.778,2.334-1.459.486-.681.778-3.6,0-2.821a5.219,5.219,0,0,1-5.836.681Z" transform="translate(-21.119 -20.54)" fill="#703616"/>
      <path id="Path_47150" data-name="Path 47150" d="M44.2,105.863c.1.195,4.085,3.015,4.085,3.015s-.292-2.529,1.751-2.529c2.14-.1,2.14-.778,2.237-1.07a3.619,3.619,0,0,1-3.21-.389C47.6,103.723,44.2,105.863,44.2,105.863Z" transform="translate(-21.05 -20.463)" fill="#703616"/>
      <path id="Path_47151" data-name="Path 47151" d="M50.726,108.625c.292-.875.584-2.334-.1-2.626s-2.14.875-2.432,1.751,0,1.848.681,2.043C49.656,110.084,50.434,109.6,50.726,108.625Z" transform="translate(-21.157 -20.502)" fill="#ffcd9c"/>
      <path id="Path_47152" data-name="Path 47152" d="M50.354,107.955c.195-.486.389-1.362-.1-1.556-.389-.195-1.264.486-1.459.973a1.025,1.025,0,0,0,.389,1.264.894.894,0,0,0,1.17-.681Z" transform="translate(-21.174 -20.513)" fill="#f4ad7d"/>
      <path id="Path_47153" data-name="Path 47153" d="M50.377,107.078c.1-.292.195-.778,0-.778-.195-.1-.681.292-.778.584a.558.558,0,0,0,.195.681C49.988,107.467,50.28,107.37,50.377,107.078Z" transform="translate(-21.197 -20.511)" fill="#ffcd9c"/>
      <g id="Group_7465" data-name="Group 7465" transform="translate(22.919 75.381)">
        <path id="Path_47154" data-name="Path 47154" d="M50.695,99.992A.209.209,0,0,1,50.5,99.8c0-.1.1-.1.195-.1a.209.209,0,0,1,.195.2C50.889,99.992,50.792,100.089,50.695,99.992Z" transform="translate(-44.141 -95.712)" fill="#5b371e"/>
        <path id="Path_47155" data-name="Path 47155" d="M46.773,101.123a2.007,2.007,0,0,1-.681-2.723A4.934,4.934,0,0,0,46.773,101.123Z" transform="translate(-44.013 -95.677)" fill="#f4ad7d"/>
        <path id="Path_47156" data-name="Path 47156" d="M48.586,101.845c-.292,0-.486-.389-.486-.875s.195-.973.486-1.07c.292,0,.584.389.584.973C49.073,101.554,48.781,101.943,48.586,101.845Z" transform="translate(-44.076 -95.718)" fill="#f4ad7d"/>
        <path id="Path_47157" data-name="Path 47157" d="M46.1,98.8c.1,0,.292.389.389.875s.1.973-.1.973a1.378,1.378,0,0,1-.486-.973C46,99.092,46,98.8,46.1,98.8Z" transform="translate(-44.016 -95.687)" fill="#f4ad7d"/>
        <path id="Path_47158" data-name="Path 47158" d="M50.992,99.454c-.195.292-.584-2.043.195-1.556a8.513,8.513,0,0,1-.2,1.556Z" transform="translate(-44.147 -95.661)" fill="#f4ad7d"/>
        <path id="Path_47159" data-name="Path 47159" d="M44.194,97.9a3.106,3.106,0,0,0,1.459,3.988A4.17,4.17,0,0,1,44.194,97.9Z" transform="translate(-43.963 -95.663)" fill="#a5331c"/>
        <path id="Path_47160" data-name="Path 47160" d="M49.21,96.184l.29,1.556H46l2.723-2.14Z" transform="translate(-44.018 -95.6)" fill="#ffcd9c"/>
        <path id="Path_47161" data-name="Path 47161" d="M51.048,97.77,49.3,96.7l-.1.875Z" transform="translate(-44.106 -95.63)" fill="#ffcd9c"/>
        <path id="Path_47162" data-name="Path 47162" d="M53.521,98.575a13.053,13.053,0,0,0-2.529-.875L50.7,99.84C50.8,99.84,53.034,99.645,53.521,98.575Z" transform="translate(-44.147 -95.657)" fill="#5b371e"/>
        <path id="Path_47163" data-name="Path 47163" d="M51.973,99.359l.1-1.167c-.292-.1-.681-.195-.973-.292L51,99.554Z" transform="translate(-44.155 -95.663)" fill="#ffeadc"/>
      </g>
      <g id="Group_7466" data-name="Group 7466" transform="translate(82.677 111.831)">
        <path id="Path_47164" data-name="Path 47164" d="M118.045,145.452c4.863.778,7.879-3.891,10.31-7.587,1.556-2.432,2.918-4.572,4.28-4.28l.1-.486c-1.654-.292-3.113,1.945-4.766,4.474-2.334,3.6-5.35,8.17-9.921,7.392-7.781-1.264-12.256-8.073-12.256-8.073l-.389.292C105.5,137.184,110.069,144.09,118.045,145.452Z" transform="translate(-105.4 -133.074)" fill="#543c33"/>
      </g>
      <g id="Group_7467" data-name="Group 7467" transform="translate(83.066 109.302)">
        <path id="Path_47165" data-name="Path 47165" d="M118.445,142.852c4.863.778,7.879-3.891,10.31-7.587,1.556-2.432,2.918-4.572,4.28-4.28l.1-.486c-1.654-.292-3.113,1.945-4.766,4.474-2.334,3.6-5.35,8.17-9.921,7.392-7.781-1.264-12.256-8.073-12.256-8.073l-.389.292C105.9,134.682,110.469,141.588,118.445,142.852Z" transform="translate(-105.8 -130.474)" fill="#543c33"/>
      </g>
      <g id="Group_7468" data-name="Group 7468" transform="translate(83.358 102.13)">
        <path id="Path_47166" data-name="Path 47166" d="M121.76,133.508c-3.988,2.237-7.684.1-10.7-1.654-1.945-1.167-3.6-2.14-4.766-1.459l-.195-.292c1.362-.778,3.113.292,5.155,1.459,2.918,1.751,6.517,3.891,10.213,1.654a21.038,21.038,0,0,0,8.657-10.116l.389.1A20.724,20.724,0,0,1,121.76,133.508Z" transform="translate(-106.1 -123.1)" fill="#543c33"/>
      </g>
      <path id="Path_47167" data-name="Path 47167" d="M91.6,119.2a15.427,15.427,0,0,0,30.347,0Z" transform="translate(-22.346 -20.864)" fill="#543c33"/>
      <path id="Path_47168" data-name="Path 47168" d="M121.318,137.015a13.8,13.8,0,1,0-4.11,9.742,13.911,13.911,0,0,0,4.11-9.742Z" transform="translate(-22.398 -20.976)" fill="#af9464"/>
      <path id="Path_47169" data-name="Path 47169" d="M117.448,137.129a9.826,9.826,0,1,0-9.824,9.629,9.694,9.694,0,0,0,9.824-9.629Z" transform="translate(-22.515 -21.091)" fill="#72544c"/>
      <path id="Path_47170" data-name="Path 47170" d="M116.408,137.157a8.7,8.7,0,1,0-2.582,6.143,8.755,8.755,0,0,0,2.582-6.143Z" transform="translate(-22.545 -21.118)" fill="#f2e8bb"/>
      <path id="Path_47171" data-name="Path 47171" d="M107.515,151.079a13.824,13.824,0,0,0,13.909-13.131,39.115,39.115,0,0,0-12.256-1.848A34.556,34.556,0,0,0,93.8,139.31,13.625,13.625,0,0,0,107.515,151.079Z" transform="translate(-22.406 -21.326)" fill="#ffd5c2" opacity="0.6"/>
      <path id="Path_47172" data-name="Path 47172" d="M107.569,125.5a11.645,11.645,0,1,0,8.29,3.342,11.576,11.576,0,0,0-8.29-3.342Zm0,22.663a11.09,11.09,0,1,1,11.283-11.088A11.09,11.09,0,0,1,107.569,148.163Z" transform="translate(-22.46 -21.036)" fill="#5e362a"/>
      <path id="Path_47173" data-name="Path 47173" d="M167.842,119.823c0,1.264-1.654,2.237-3.7,2.237H51.315c-1.654,0-3.015-.875-3.015-1.848v-1.654c0-.778,1.07-1.459,2.334-1.459H163.756c2.237,0,4.085,1.07,4.085,2.432Z" transform="translate(-21.162 -20.806)" fill="#543c33"/>
      <path id="Path_47174" data-name="Path 47174" d="M173.514,115.6c0-1.945-1.848-3.5-4.085-3.5H45.607a3.081,3.081,0,0,0-3.307,2.821v2.529a2.431,2.431,0,0,0,2.626,2.237H169.039c2.432,0,4.474-1.751,4.474-3.793V115.6Z" transform="translate(-20.998 -20.67)" fill="#bca173"/>
      <path id="Path_47175" data-name="Path 47175" d="M173.514,115.745c0-1.07-1.848-1.945-4.085-1.945H45.607c-1.848,0-3.307.681-3.307,1.556v1.459c0,.681,1.167,1.264,2.626,1.264H169.039c2.432,0,4.474-.973,4.474-2.14v-.195Z" transform="translate(-20.998 -20.716)" fill="#f2e8bb"/>
      <path id="Path_47176" data-name="Path 47176" d="M168.7,112.384c0-.292-1.654-.584-3.793-.584H50.813c-1.751,0-3.113.195-3.113.486v.389c0,.195,1.07.389,2.432.389H164.518c2.334-.1,4.183-.292,4.183-.681Z" transform="translate(-21.146 -20.661)" fill="#fff7d7"/>
      <path id="Path_47177" data-name="Path 47177" d="M169.058,119.8H128.4v10.6a5.418,5.418,0,0,0,5.447,5.35h31.126a4.027,4.027,0,0,0,4.085-3.988Z" transform="translate(-23.351 -20.88)" fill="#af9464"/>
      <path id="Path_47178" data-name="Path 47178" d="M168.442,120.5H130.8v9.338a4.389,4.389,0,0,0,4.669,4.085h28.11a4.607,4.607,0,0,0,4.863-4.377Z" transform="translate(-23.417 -20.899)" fill="#fff7d7"/>
      <path id="Path_47179" data-name="Path 47179" d="M150.348,127.851A104.456,104.456,0,0,1,130.7,126.1v3.891a4.389,4.389,0,0,0,4.669,4.085h28.11a4.607,4.607,0,0,0,4.863-4.377v-3.4a97.629,97.629,0,0,1-17.994,1.552Z" transform="translate(-23.414 -21.052)" fill="#f2e8bb"/>
      <path id="Path_47180" data-name="Path 47180" d="M165.785,123.167A1.237,1.237,0,0,0,164.423,122H135.048a1.752,1.752,0,0,0-1.848,1.654v.195a1.237,1.237,0,0,0,1.362,1.167h29.18a1.959,1.959,0,0,0,2.043-1.849Z" transform="translate(-23.482 -20.94)" fill="#543c33"/>
      <rect id="Rectangle_3997" data-name="Rectangle 3997" width="1.654" height="1.654" transform="translate(117.013 111.759)" fill="#af9464"/>
      <rect id="Rectangle_3998" data-name="Rectangle 3998" width="1.654" height="1.654" transform="translate(121.584 111.759)" fill="#af9464"/>
      <rect id="Rectangle_3999" data-name="Rectangle 3999" width="1.654" height="1.654" transform="translate(127.42 111.759)" fill="#af9464"/>
      <g id="Group_7469" data-name="Group 7469" transform="translate(22.463 92.672)">
        <path id="Path_47181" data-name="Path 47181" d="M48.752,115.636a2.478,2.478,0,0,0-2.821-2.237,2.593,2.593,0,0,0-2.432,2.723,2.478,2.478,0,0,0,2.821,2.237,2.537,2.537,0,0,0,2.432-2.723Z" transform="translate(-43.494 -113.376)" fill="#a06852"/>
        <path id="Path_47182" data-name="Path 47182" d="M48.469,115.742A2.247,2.247,0,0,0,45.94,113.7a2.286,2.286,0,0,0-2.14,2.432,2.247,2.247,0,0,0,2.529,2.043,2.41,2.41,0,0,0,2.14-2.433Z" transform="translate(-43.502 -113.385)" fill="#fff7d7"/>
      </g>
      <path id="Path_47183" data-name="Path 47183" d="M41.007,98.85c-.1-2.529-7.879-2.432-8.462.584,0,0-3.891,5.252-.681,6.031,0,0-.681,4.28,3.21,4.377,0,0-2.14,4.474,3.015,3.307,0,0-.389,1.751,4.766-.778,0,0,7.2-.778,7.684-1.362C50.637,111.008,41.1,100.989,41.007,98.85Z" transform="translate(-20.679 -20.258)" fill="#9ee8ef"/>
      <path id="Path_47184" data-name="Path 47184" d="M49.694,96.587c-.875.195.973,7.1,6.711,6.225C56.308,102.812,61.366,94.058,49.694,96.587Z" transform="translate(-21.195 -20.233)" fill="#fff6dc"/>
      <path id="Path_47185" data-name="Path 47185" d="M58.47,104.208a72.883,72.883,0,0,1-1.07,29.374c8.851,1.07,17.314,1.945,25.29,2.626.1-3.6-.389-9.824.486-9.727,2.14.195,10.31,3.988,12.547,7.392a12.612,12.612,0,0,0-1.848,3.21c8.754.584,17.216.973,25.387,1.07a21.951,21.951,0,0,0-2.723-5.252c.778,0,8.949-6.225,9.727-6.225.195,1.556-.195,10.7.195,11.477,12.158,0,24.122-.486,36.281-1.362l6.711-24.414s-35.794-13.909-60.5-9.338S74.519,93.8,74.519,93.8C66.64,96.134,61.583,99.344,58.47,104.208Z" transform="translate(-21.411 -20.169)" fill="#b7624f" opacity="0.6"/>
      <path id="Path_47186" data-name="Path 47186" d="M45.971,107.038c-6.517,0-11.769-3.793-11.769-8.462a2.693,2.693,0,0,1,.1-.875,2.465,2.465,0,0,0-1.654,1.751s-3.891,5.252-.681,6.031c0,0-.681,4.28,3.21,4.377,0,0-2.14,4.474,3.015,3.307,0,0-.389,1.751,4.766-.778,0,0,7.2-.778,7.684-1.362,0,0-1.751-1.848-3.7-4.085a3.31,3.31,0,0,1-.971.1Z" transform="translate(-20.681 -20.276)" fill="#68bcc1"/>
      <path id="Path_47187" data-name="Path 47187" d="M40.248,109.384c-1.654-2.237-2.529-6.128-1.167-7.684,0,0-.681,5.155,2.918,7.1Z" transform="translate(-20.892 -20.385)" fill="#68bcc1"/>
      <path id="Path_47188" data-name="Path 47188" d="M34.8,106.1c-.389-2.723.875-6.517,2.821-7.295,0,0-3.113,4.085-.973,7.587Z" transform="translate(-20.792 -20.306)" fill="#68bcc1"/>
      <path id="Path_47189" data-name="Path 47189" d="M40.891,97.2s-2.821,3.891,7.879,12.353l.778-.195C45.462,105.565,43.42,102.063,40.891,97.2Z" transform="translate(-20.951 -20.262)" fill="#68bcc1"/>
      <path id="Path_47190" data-name="Path 47190" d="M51.982,101.6,47.8,112.008l1.459-.292,3.4-9.824Z" transform="translate(-21.149 -20.383)" fill="#fff6dc"/>
      <path id="Path_47191" data-name="Path 47191" d="M55.15,99.329A5.1,5.1,0,0,1,50.481,96.8a4.212,4.212,0,0,0-.486.1c-.778.2.875,6.517,6.128,5.641a7.474,7.474,0,0,0,.973-3.5,11.67,11.67,0,0,1-1.946.288Z" transform="translate(-21.204 -20.251)" fill="#ffdec0"/>
      <path id="Path_47192" data-name="Path 47192" d="M56.6,102.241c-4.766.778-6.809-3.891-6.906-5.641h0c-.875.195.973,7.1,6.711,6.225,0,0,.292-.584.584-1.362Z" transform="translate(-21.195 -20.246)" fill="#fff6dc"/>
      <path id="Path_47193" data-name="Path 47193" d="M53.3,96.143S56.51,94,57.385,94.1c.973.1-.292,3.307-.292,3.307C55.732,96.434,54.759,95.851,53.3,96.143Z" transform="translate(-21.299 -20.177)" fill="#fcdbb1"/>
      <path id="Path_47194" data-name="Path 47194" d="M54.5,95.864S56.543,94.5,57.126,94.6c.584,0-.195,2.14-.195,2.14a2.938,2.938,0,0,0-2.431-.876Z" transform="translate(-21.332 -20.191)" fill="#fff6dc"/>
      <path id="Path_47195" data-name="Path 47195" d="M60,99.668s2.14,15.854.389,22.858c38.907,4.669,65.753,5.739,101.936,2.529l6.711-17.216S134.118,95,109.412,98.6s-34.433-7.2-34.433-7.2Z" transform="translate(-21.482 -20.104)" fill="#fff6dc"/>
      <path id="Path_47196" data-name="Path 47196" d="M122.937,118.638C95.119,116.984,71.288,110.37,60.2,102.2c.486,7.2,1.459,23.928.1,32.39,38.907,7.295,65.753,8.949,101.936,3.891l5.544-22.371C155.619,118.638,139.959,119.611,122.937,118.638Z" transform="translate(-21.488 -20.399)" fill="#f9e4c7"/>
      <path id="Path_47197" data-name="Path 47197" d="M124.234,120.731c-10.31-1.264-31.515-10.408-20.718-12.742s34.238,6.517,34.238,6.517Z" transform="translate(-22.59 -20.546)" fill="#f9e4c7"/>
      <path id="Path_47198" data-name="Path 47198" d="M89.5,117.5c5.155-3.4,4.474-11.38,9.532-10.408,5.155.875,14.493,9.921,14.493,9.921Z" transform="translate(-22.288 -20.531)" fill="#f9e4c7"/>
      <path id="Path_47199" data-name="Path 47199" d="M63.5,104.626c8.17-2.529,14.882-3.21,17.216-2.14s1.07,6.614,0,8.462C78.674,114.353,63.5,104.626,63.5,104.626Z" transform="translate(-21.578 -20.393)" fill="#f9e4c7"/>
      <path id="Path_47200" data-name="Path 47200" d="M78.7,97.275l1.556,2.334,11.867-.778A27.2,27.2,0,0,1,93.485,96.4C86.676,98.929,83.758,98.929,78.7,97.275Z" transform="translate(-21.993 -20.24)" fill="#f9e4c7"/>
    </g>
  </g>
</svg>
