<svg id="gynecologist" xmlns="http://www.w3.org/2000/svg" xmlns:xlink="http://www.w3.org/1999/xlink" width="116.102" height="116.443" viewBox="0 0 116.102 116.443">
  <defs>
    <linearGradient id="linear-gradient" x1="0.001" y1="0.5" x2="1" y2="0.5" gradientUnits="objectBoundingBox">
      <stop offset="0" stop-color="#ebebeb"/>
      <stop offset="1" stop-color="#fff"/>
    </linearGradient>
    <clipPath id="clip-path">
      <ellipse id="Ellipse_1817" data-name="Ellipse 1817" cx="58.017" cy="58.016" rx="58.017" ry="58.016" transform="translate(0 0)"/>
    </clipPath>
  </defs>
  <ellipse id="Ellipse_1816" data-name="Ellipse 1816" cx="58.026" cy="58.025" rx="58.026" ry="58.025" transform="translate(0 0)" fill="url(#linear-gradient)"/>
  <g id="Group_7489" data-name="Group 7489" transform="translate(0.067 0.413)">
    <g id="Group_7472" data-name="Group 7472" clip-path="url(#clip-path)">
      <path id="Path_47201" data-name="Path 47201" d="M65,40.13c-.891-2.079-.4-3.961.5-5.842a19.983,19.983,0,0,1,25.448-9.9,33.656,33.656,0,0,1,10.991,7.228c3.862,3.664,4.951,8.12,4.06,13.368a45.659,45.659,0,0,0-.99,9.011,13.713,13.713,0,0,0,5.842,11.288,44.784,44.784,0,0,0,7.03,4.06c2.575,1.287,5.05,2.574,7.426,4.06a1.274,1.274,0,0,1,1.188.4,16.2,16.2,0,0,1,4.06,4.555c.2.4.5.891.2,1.386l-.1.1c-1.485.693-1.485,1.089-.3,2.277.693.693,1.683.99,1.98,1.98.792,1.782.4,3.664.3,5.545a35.312,35.312,0,0,1-2.079,10.6,47.641,47.641,0,0,1-3.466,7.624c-.4.594-.693,1.188-1.089,1.782a22.989,22.989,0,0,1-3.961,4.852,76.959,76.959,0,0,1-17.24,13.258c-.891-.2-.99-.891-.99-1.584a97.564,97.564,0,0,0-4.357-17.625,11.68,11.68,0,0,1-.4-1.98,5.622,5.622,0,0,1,.693-2.178,46.228,46.228,0,0,0,3.862-13.071c1.089-4.456.3-8.714-.792-12.971a25.116,25.116,0,0,0-6.238-10.892c-.891-.891-1.386-2.178-2.575-2.674a11.2,11.2,0,0,1-1.98-4.258c-.3-.99-.594-1.98-.792-2.971a3.639,3.639,0,0,0-2.575-2.971l-6.238-2.079c-.1,0-.3-.1-.4-.1a11.788,11.788,0,0,0-1.485-.891,4.247,4.247,0,0,1-1.98-3.169c0-2.178.2-4.258-1.089-6.238C75.88,39.833,74,38.248,71.028,38.248a3.853,3.853,0,0,0-2.277.693,3.286,3.286,0,0,0-1.584,1.683c-.2.4-.4.792-.891.891A1.578,1.578,0,0,1,65,40.13Z" transform="translate(-25.158 -17.868)" fill="#3d315b"/>
    </g>
    <g id="Group_7473" data-name="Group 7473" clip-path="url(#clip-path)">
      <path id="Path_47202" data-name="Path 47202" d="M66.3,131.828a28.189,28.189,0,0,0,4.159-4.258,208.812,208.812,0,0,0,14.457-19.012A6.53,6.53,0,0,0,86.1,104.5c.1-6.337-.3-12.575-.693-18.913-.3-4.06,3.367-9.308,7.922-11.09a2.846,2.846,0,0,1,2.178-.3A2.279,2.279,0,0,1,96.6,75.486a36.674,36.674,0,0,1,3.565,12.971c.693,7.228-1.485,13.665-5.545,19.606-6.04,8.912-15.15,18.12-22.577,25.844" transform="translate(-25.175 -18.369)" fill="#f7aea5"/>
    </g>
    <g id="Group_7474" data-name="Group 7474" clip-path="url(#clip-path)">
      <path id="Path_47203" data-name="Path 47203" d="M75.38,129.943a172.028,172.028,0,0,0,16.14-18.814c3.268-4.456,6.337-9.11,7.526-14.655a32.135,32.135,0,0,0-2.079-19.012L95.481,74.2c.693-.891,1.485-.3,2.178-.2a7.161,7.161,0,0,1,3.862,3.565,23.25,23.25,0,0,1,2.773,14.358,28.082,28.082,0,0,1-1.98,8.516c-.792,2.178-1.782,4.357-2.674,6.436-.5,2.178-1.881,3.862-3.07,5.644a86.585,86.585,0,0,1-14.655,16.635,3.556,3.556,0,0,1-.99.693,2.421,2.421,0,0,0-1.089.891,34.707,34.707,0,0,1-4.127,3.031l-1.931-.507S72.212,133.211,75.38,129.943Z" transform="translate(-25.245 -18.366)" fill="#e88685"/>
    </g>
    <g id="Group_7475" data-name="Group 7475" clip-path="url(#clip-path)">
      <path id="Path_47204" data-name="Path 47204" d="M80.836,129.875a80.641,80.641,0,0,0,18.121-21.586,2.808,2.808,0,0,1,.792-1.089,137.7,137.7,0,0,1,4.555,16.635c.3,1.485.1,3.169.891,4.555-1.683.891-3.367,1.881-5.05,2.773-.2.1-.5.3-.693.1s0-.4,0-.594a46.635,46.635,0,0,0-.3-13.863,15.024,15.024,0,0,0-2.971,2.575A138.139,138.139,0,0,1,74.9,135.222a.742.742,0,0,1-.5.1c1.782-1.485,3.664-3.07,5.446-4.555a9.908,9.908,0,0,1,.99-.892Z" transform="translate(-25.255 -18.694)" fill="#add2e4"/>
    </g>
    <g id="Group_7476" data-name="Group 7476" clip-path="url(#clip-path)">
      <path id="Path_47205" data-name="Path 47205" d="M97.388,74.333a7.414,7.414,0,0,0-2.079-.2,8.723,8.723,0,0,0-7.625,7.228,30.661,30.661,0,0,0,.1,6.04c.4,5.149.5,10.3.5,15.546a6.66,6.66,0,0,1-1.386,4.258A189.6,189.6,0,0,1,69.86,128.992a12.538,12.538,0,0,1-2.476,2.079c-.891.594-.823.15-1.913-.147-1.188-.4-2.277-.792-3.466-1.089-1.287-.3-5.91-1.041-6.207-3.912a21.7,21.7,0,0,1,.4-5.644c.4-.3.1-.792.3-1.089.594-3.565,2.475-6.535,4.654-9.407.693-.891,1.584-1.683,2.376-2.574a2.782,2.782,0,0,1,2.178-.1c2.872.693,5.842,1.188,8.714.1a2.543,2.543,0,0,0,1.782-1.683,7.6,7.6,0,0,0,1.188-2.773c.2-1.683-.3-2.773-1.782-3.367-1.386-.5-2.575-.99-3.07-2.574-.2-.5-.792-.693-1.287-.891-.5-.1-1.089,0-1.485-.5-.693-1.683-.4-3.466-.792-5.149A16.1,16.1,0,0,1,72.44,76.508a7.614,7.614,0,0,1,1.782-1.782,1.739,1.739,0,0,0,.99-.891c.5-.594.891-1.287,1.782-1.188a1.121,1.121,0,0,1,.693,1.188c0,.5-.594,1.188.2,1.584a2.236,2.236,0,0,0,2.079-.2,58.076,58.076,0,0,0,8.12-5.446,21.743,21.743,0,0,1,1.782-1.386c.4-.3.792-.792,1.386-.792a1.964,1.964,0,0,1,1.287.594A26.04,26.04,0,0,1,96.9,73.14a.9.9,0,0,1,.49,1.193Z" transform="translate(-25.072 -18.306)" fill="#fefefe"/>
    </g>
    <g id="Group_7477" data-name="Group 7477" clip-path="url(#clip-path)">
      <path id="Path_47206" data-name="Path 47206" d="M74.829,74.858c-4.357,4.159-6.337,9.11-5.149,15.15a24.334,24.334,0,0,1,.4,5.347.823.823,0,0,1-1.287.4c-4.06-3.07-6.535-7.03-6.436-12.278a14.871,14.871,0,0,1,1.386-5.842c.5-1.287,1.089-2.475,1.683-3.664a9.925,9.925,0,0,0-.693-9.8,34.633,34.633,0,0,0-3.268-4.258A14.766,14.766,0,0,1,57.9,53.767c-.99-4.06.4-7.327,3.07-10.2A18.389,18.389,0,0,1,65.03,40.3c.5.4.891.693,1.386,1.089.5.2.594.594.693,1.089a9.965,9.965,0,0,0,1.98,3.961c1.485,1.881,2.575,3.862,1.683,6.337a1.4,1.4,0,0,0,.4,1.386,20.846,20.846,0,0,0,5.842,5.149,4.5,4.5,0,0,0,2.773.5,12.133,12.133,0,0,1,1.881-.2,2.9,2.9,0,0,1,3.169,2.674,7.218,7.218,0,0,1-2.575,7.228A21.747,21.747,0,0,1,80.473,70.9c-1.287.3-1.98,1.683-3.367,1.881a5.478,5.478,0,0,0-1.386,1.188A1.943,1.943,0,0,1,74.829,74.858Z" transform="translate(-25.09 -18.038)" fill="#252044"/>
    </g>
    <g id="Group_7478" data-name="Group 7478" clip-path="url(#clip-path)">
      <path id="Path_47207" data-name="Path 47207" d="M68.768,96.395c.4-.1.891-.3,1.287-.4,1.881-.4,2.773,0,3.466,1.782a1.912,1.912,0,0,0,1.287,1.188c3.763,1.089,4.555,3.862,2.079,6.931a4.052,4.052,0,0,1-2.773,1.782c-2.773.792-7.228-.693-8.219-3.169a10.135,10.135,0,0,1-.2-4.555,1.337,1.337,0,0,1,.792-1.188,25.266,25.266,0,0,0,2.281-2.371Z" transform="translate(-25.168 -18.583)" fill="#f7aea5"/>
    </g>
    <g id="Group_7479" data-name="Group 7479" clip-path="url(#clip-path)">
      <path id="Path_47208" data-name="Path 47208" d="M66.374,104.5a7.613,7.613,0,0,0,10.6,1.485c-.891,2.178-2.872,2.574-4.753,2.773a16.764,16.764,0,0,1-6.634-.792c-.594-.2-1.188-.2-1.881-.4a11.059,11.059,0,0,0,1.881-2.376C65.878,105.094,65.68,104.4,66.374,104.5Z" transform="translate(-25.15 -18.668)" fill="#add2e4"/>
    </g>
    <g id="Group_7480" data-name="Group 7480" clip-path="url(#clip-path)">
      <path id="Path_47209" data-name="Path 47209" d="M56.6,119.8c.3.5.3.792-.3,1.089a1.417,1.417,0,0,1,.3-1.089Z" transform="translate(-25.077 -18.818)" fill="#f1f8f9"/>
    </g>
    <g id="Group_7481" data-name="Group 7481" clip-path="url(#clip-path)">
      <path id="Path_47210" data-name="Path 47210" d="M80.263,70.579A7.338,7.338,0,0,1,81.55,69.39a6.761,6.761,0,0,0,2.971-7.03c-.3-1.683-1.188-2.773-2.674-2.376-4.357,1.089-7.03-1.485-9.7-4.159-.5-.5-.891-.99-1.386-1.485a1.753,1.753,0,0,1-.4-2.178c.792-1.98,0-3.664-1.287-5.05A10.641,10.641,0,0,1,66.4,41.368c.5-1.089.891-2.178,2.079-2.674,3.367-1.584,7.228.5,9.11,3.565,1.188,1.98,1.188,4.06,1.386,6.139a4.725,4.725,0,0,0,1.98,2.971,3.885,3.885,0,0,0,1.386.792h0a6.712,6.712,0,0,0,2.674,1.287A6.162,6.162,0,0,1,89.373,58c.792,2.674.792,5.446,1.089,8.12a4.827,4.827,0,0,1,0,2.376,63.475,63.475,0,0,1-10.4,7.327,3.147,3.147,0,0,1-.891.3,1.559,1.559,0,0,1-1.683-.5c-.5-.693-.1-1.188.3-1.683C77.985,72.262,79.174,71.47,80.263,70.579Z" transform="translate(-25.176 -18.017)" fill="#f7aea5"/>
    </g>
    <g id="Group_7482" data-name="Group 7482" clip-path="url(#clip-path)">
      <path id="Path_47211" data-name="Path 47211" d="M97.742,74.307A27.77,27.77,0,0,0,91.9,67.87a4.841,4.841,0,0,1,2.773-2.97,1.01,1.01,0,0,1,1.188.594,22.9,22.9,0,0,0,1.98,2.376,28.612,28.612,0,0,1,6.931,23.269,1.407,1.407,0,0,1-.2.594A32.009,32.009,0,0,0,102.1,79.158a9.5,9.5,0,0,0-4.358-4.851Z" transform="translate(-25.426 -18.279)" fill="#add2e4"/>
    </g>
    <g id="Group_7483" data-name="Group 7483" clip-path="url(#clip-path)">
      <path id="Path_47212" data-name="Path 47212" d="M94.581,64.776a19.715,19.715,0,0,1-2.773,2.971,10.519,10.519,0,0,0-1.089.891c-.792-1.485-.594-3.169-.792-4.753a49.821,49.821,0,0,0-.792-5.545,6.117,6.117,0,0,0-3.862-4.357c-.99-.4-2.079-.594-2.674-1.683,2.277.693,4.555,1.386,6.733,2.178a3.716,3.716,0,0,1,2.773,3.169,24.455,24.455,0,0,0,2.476,7.129Z" transform="translate(-25.335 -18.156)" fill="#e88685"/>
    </g>
    <g id="Group_7484" data-name="Group 7484" clip-path="url(#clip-path)">
      <path id="Path_47213" data-name="Path 47213" d="M79.1,48.4c-.2-.891-.3-1.881-.5-2.773-.891-3.367-2.773-5.941-6.337-7.03a8.063,8.063,0,0,0-3.763.1,5.073,5.073,0,0,1,5.149-.4A8,8,0,0,1,79.1,45.523a13.907,13.907,0,0,1,0,2.872Z" transform="translate(-25.197 -18.013)" fill="#e68685"/>
    </g>
    <g id="Group_7485" data-name="Group 7485" clip-path="url(#clip-path)">
      <path id="Path_47214" data-name="Path 47214" d="M82.586,52.292A1.405,1.405,0,0,1,81.2,51.5,2.823,2.823,0,0,1,82.586,52.292Z" transform="translate(-25.321 -18.148)" fill="#e88685"/>
    </g>
    <g id="Group_7486" data-name="Group 7486" clip-path="url(#clip-path)">
      <path id="Path_47215" data-name="Path 47215" d="M80.89,130.1a1.489,1.489,0,0,1-.99.891A1.06,1.06,0,0,1,80.89,130.1Z" transform="translate(-25.308 -18.919)" fill="#d2a2a8"/>
    </g>
    <g id="Group_7487" data-name="Group 7487" clip-path="url(#clip-path)">
      <path id="Path_47216" data-name="Path 47216" d="M80.37,70.9c-.792,1.089-1.683,2.178-2.475,3.169A1.721,1.721,0,0,0,77.3,72.98,7.368,7.368,0,0,1,80.37,70.9Z" transform="translate(-25.283 -18.338)" fill="#f9f9f8"/>
    </g>
    <g id="Group_7488" data-name="Group 7488" clip-path="url(#clip-path)">
      <path id="Path_47217" data-name="Path 47217" d="M75,75.191a1.943,1.943,0,0,1,.891-.891,1.05,1.05,0,0,1-.891.891Z" transform="translate(-25.26 -18.372)" fill="#f9f9f8"/>
    </g>
  </g>
</svg>
