<svg xmlns="http://www.w3.org/2000/svg" xmlns:xlink="http://www.w3.org/1999/xlink" width="117.2" height="117.199" viewBox="0 0 117.2 117.199">
  <defs>
    <linearGradient id="linear-gradient" y1="0.5" x2="1" y2="0.5" gradientUnits="objectBoundingBox">
      <stop offset="0" stop-color="#ebebeb"/>
      <stop offset="1" stop-color="#fff"/>
    </linearGradient>
    <clipPath id="clip-path">
      <circle id="Ellipse_1423" data-name="Ellipse 1423" cx="58.6" cy="58.6" r="58.6" transform="translate(8.2 8.8)"/>
    </clipPath>
  </defs>
  <g id="hair_transplant_surgeon" transform="translate(-8.2 -8.801)">
    <circle id="Ellipse_1422" data-name="Ellipse 1422" cx="58.6" cy="58.6" r="58.6" transform="translate(8.2 8.8)" fill="url(#linear-gradient)"/>
    <g id="Group_5939" data-name="Group 5939">
      <g id="Group_5921" data-name="Group 5921" clip-path="url(#clip-path)">
        <path id="Path_42099" data-name="Path 42099" d="M103.4,111.7c-4.8-5.3-27.2-8.7-27.2-8.7v.1C73,97,74,82.1,74,82.1L64.5,77l-9.4,5.1s.9,14.9-2.2,21V103s-22.5,3.3-27.2,8.7c-1.2,1.4-2.3,3.4-3.6,15.6h84.4C105.7,115.1,104.6,113,103.4,111.7Z" fill="#fbc7b2"/>
      </g>
      <g id="Group_5922" data-name="Group 5922" clip-path="url(#clip-path)">
        <path id="Path_42100" data-name="Path 42100" d="M80.9,45.8a19.281,19.281,0,0,0-4.3-4.7c-3.3-2.6-8.6,3.4-12.3,5.4-3.7-2-8.9-8-12.3-5.4a19.281,19.281,0,0,0-4.3,4.7c-2.2,3.5-3.9,4-3.9,8.2,0,4.6,4.5,15.8,5.4,16.8,1.6,1.7,4,4,6.4,4.5h.1c3.7-3.1,5.3-4.4,8.5-7.1,3.2,2.7,4.8,4,8.5,7.1h.1c2.4-.5,4.7-2.8,6.4-4.5.9-.9,5.4-12.1,5.4-16.8C84.8,49.8,83.2,49.3,80.9,45.8Z" fill="#3e1515"/>
      </g>
      <g id="Group_5923" data-name="Group 5923" clip-path="url(#clip-path)">
        <path id="Path_42101" data-name="Path 42101" d="M55.1,82.2v.5h0V83c.3,6.2-.1,14.5-1.9,18.7,4.8,2.1,10.1,2.7,14.5.6a16.569,16.569,0,0,0,6.6-6s-1.1-8.7-.5-14.3l-9.4-5L55,82C55.1,82.1,55.1,82.1,55.1,82.2Z" fill="#f19a83"/>
      </g>
      <g id="Group_5924" data-name="Group 5924" clip-path="url(#clip-path)">
        <path id="Path_42102" data-name="Path 42102" d="M48.4,65.9s-2-1.9-3.2-.9a2.243,2.243,0,0,0-.5,2.7c1.6,4,2,7,3.5,7.6,1.2.5,2.9-1.1,2.9-1.1Z" fill="#fbc7b2"/>
        <path id="Path_42103" data-name="Path 42103" d="M49.4,72.3c-.2-5.8-3.7-5.8-3.7-5.8A6.234,6.234,0,0,1,47,69.7a13.611,13.611,0,0,1,.2,2.1C46.9,74.4,49.5,74.6,49.4,72.3Z" fill="#f19a83"/>
      </g>
      <g id="Group_5925" data-name="Group 5925" clip-path="url(#clip-path)">
        <path id="Path_42104" data-name="Path 42104" d="M80.5,65.9s2-1.9,3.2-.9a2.243,2.243,0,0,1,.5,2.7c-1.6,4-2,7-3.5,7.6-1.2.5-2.9-1.1-2.9-1.1Z" fill="#fbc7b2"/>
        <path id="Path_42105" data-name="Path 42105" d="M79.5,72.3c.2-5.8,3.7-5.8,3.7-5.8a6.234,6.234,0,0,0-1.3,3.2,13.611,13.611,0,0,0-.2,2.1C82,74.4,79.4,74.6,79.5,72.3Z" fill="#f19a83"/>
      </g>
      <g id="Group_5926" data-name="Group 5926" clip-path="url(#clip-path)">
        <path id="Path_42106" data-name="Path 42106" d="M64.5,39c-2.7,0-19.4-.3-18.2,15.6.5,8.1,1.4,18.7,2.9,22.5,2.6,6.4,12.1,14.5,15.3,14.5s12.7-8.1,15.3-14.5c1.5-3.8,2.4-14.4,2.9-22.5C83.8,39.1,67.2,39,64.5,39Z" fill="#fbc7b2"/>
      </g>
      <g id="Group_5927" data-name="Group 5927" clip-path="url(#clip-path)">
        <path id="Path_42107" data-name="Path 42107" d="M82.9,57.3H81.5a45.975,45.975,0,0,1,.1,5.2c-.5,6-3.7,11.9-4.7,14.5l-.3.6a16.285,16.285,0,0,1-1.7,1.1A32.041,32.041,0,0,0,64.5,77h0a35.786,35.786,0,0,0-10.4,1.7,16.287,16.287,0,0,0-1.7-1.1l-.3-.6c-1-2.6-4.2-8.4-4.7-14.5a43.5,43.5,0,0,1-.2-5.2H46a128.912,128.912,0,0,0,2.4,17.3l-.1-.1c.5,5,1.1,8.6,2,10.8,2.4,5.9,11.1,8.8,14.1,8.8h0c3,0,11.7-2.9,14.1-8.8.9-2.2,1.5-5.7,2-10.8l-.1.1a111.378,111.378,0,0,0,2.5-17.3ZM64.4,83.5c-1.6,0-4.3-1.2-7.2-2.8,2.5-1.5,7.1-1.6,7.2-1.6s4.7.2,7.2,1.6C68.7,82.4,66,83.5,64.4,83.5Z" fill="#3e1515"/>
      </g>
      <g id="Group_5928" data-name="Group 5928" clip-path="url(#clip-path)">
        <path id="Path_42108" data-name="Path 42108" d="M55.7,39.3c-4.6-1.2-8.9,1.2-10.7,6.8a24.278,24.278,0,0,0,0,13.1,15.054,15.054,0,0,1,2.2,1.1,20.971,20.971,0,0,1,.7-5.6,5.131,5.131,0,0,1,1.5-2.3,12.865,12.865,0,0,0,2.1-1.9c1-1.5,1.2-3.1,1.8-4.7A31.1,31.1,0,0,1,55.8,42C56.4,41.1,57.1,39.7,55.7,39.3Z" fill="#3e1515"/>
      </g>
      <g id="Group_5929" data-name="Group 5929" clip-path="url(#clip-path)">
        <path id="Path_42109" data-name="Path 42109" d="M73.1,39.3c4.6-1.2,8.9,1.2,10.7,6.8a24.278,24.278,0,0,1,0,13.1,15.054,15.054,0,0,0-2.2,1.1,20.971,20.971,0,0,0-.7-5.6,5.131,5.131,0,0,0-1.5-2.3,12.865,12.865,0,0,1-2.1-1.9c-1-1.5-1.2-3.1-1.8-4.7A31.1,31.1,0,0,0,73,42C72.4,41.1,71.6,39.7,73.1,39.3Z" fill="#3e1515"/>
      </g>
      <g id="Group_5933" data-name="Group 5933" clip-path="url(#clip-path)">
        <g id="Group_5930" data-name="Group 5930">
          <path id="Path_42110" data-name="Path 42110" d="M52,50.7a.3.3,0,1,1,0-.6,1.087,1.087,0,0,0,.5-.1c.1,0,.3.1.3.2s-.1.3-.2.3A.988.988,0,0,1,52,50.7Z" fill="#ee3374"/>
        </g>
        <g id="Group_5931" data-name="Group 5931">
          <path id="Path_42111" data-name="Path 42111" d="M64.5,51.1h-.6c-.1,0-.2-.2-.2-.3s.2-.2.3-.2a1.7,1.7,0,0,0,1,0c.1,0,.3.1.3.2s-.1.3-.2.3Zm1.5-.3a.349.349,0,0,1-.2-.1c-.1-.1,0-.3.1-.4.1,0,.1-.1.2-.1.2-.1.5-.3.7-.4.1-.1.3,0,.4.1s0,.3-.1.4a4.347,4.347,0,0,0-.7.4.349.349,0,0,0-.2.1C66.1,50.7,66.1,50.8,66,50.8Zm-3.1,0h-.1a.349.349,0,0,1-.2-.1c-.2-.1-.5-.3-.7-.4-.1-.1-.2-.2-.1-.4.1-.1.2-.2.4-.1.3.1.5.3.8.4.1,0,.1.1.2.1.1.1.2.2.1.4C63.1,50.7,63,50.8,62.9,50.8Zm-9.4-.4c-.1,0-.2-.1-.3-.2,0-.1,0-.3.2-.3l1-.3c.1,0,.3,0,.3.2,0,.1,0,.3-.2.3Zm21.9,0h0l-1.1-.3c-.1,0-.2-.2-.2-.3s.2-.2.3-.2l1,.3c.1,0,.2.2.2.3a.215.215,0,0,1-.2.2Zm-19.8-.6c-.1,0-.2-.1-.3-.2,0-.1,0-.3.2-.3.4-.1.7-.2,1.1-.3.1,0,.3.1.3.2s-.1.3-.2.3C56.4,49.6,56,49.7,55.6,49.8Zm17.7,0h0c-.4-.1-.8-.2-1.1-.3-.1,0-.2-.2-.2-.3s.2-.2.3-.2c.4.1.7.2,1.1.3.1,0,.2.2.2.3C73.5,49.7,73.4,49.8,73.3,49.8Zm-5.3,0a.215.215,0,0,1-.2-.2.192.192,0,0,1,.1-.3A4.508,4.508,0,0,1,69,49c.2,0,.3.1.3.2s-.1.3-.2.3a2.279,2.279,0,0,0-1.1.3Zm-7.1,0h0a2.607,2.607,0,0,0-1.1-.3c-.1,0-.2-.2-.2-.3s.2-.2.3-.2c.3.1.7.2,1.1.3.1.1.2.2.2.3S61.1,49.8,60.9,49.8Zm-3.2-.4c-.1,0-.2-.1-.3-.2,0-.1.1-.3.2-.3.4,0,.7-.1,1-.1h.1a.319.319,0,0,1,.3.3q0,.15-.3.3h-.1a1.352,1.352,0,0,0-.9,0Zm13.5,0h0c-.4,0-.7-.1-1-.1h-.1a.3.3,0,1,1,0-.6h.1a3.4,3.4,0,0,1,1,.1c.1,0,.2.1.2.3s-.1.3-.2.3Z" fill="#ee3374"/>
        </g>
        <g id="Group_5932" data-name="Group 5932">
          <path id="Path_42112" data-name="Path 42112" d="M77,50.7a1.486,1.486,0,0,1-.6-.1c-.1,0-.2-.2-.2-.3s.2-.2.3-.2a4.331,4.331,0,0,1,.5.1.319.319,0,0,1,.3.3C77.2,50.6,77.1,50.7,77,50.7Z" fill="#ee3374"/>
        </g>
      </g>
      <g id="Group_5934" data-name="Group 5934" clip-path="url(#clip-path)">
        <path id="Path_42113" data-name="Path 42113" d="M57.8,40.4a.4.4,0,1,1-.4-.4C57.6,40.1,57.8,40.2,57.8,40.4Z" fill="#d32b44"/>
        <path id="Path_42114" data-name="Path 42114" d="M59.2,41.5a.4.4,0,1,1-.4-.4.43.43,0,0,1,.4.4Z" fill="#d32b44"/>
        <circle id="Ellipse_1433" data-name="Ellipse 1433" cx="0.4" cy="0.4" r="0.4" transform="translate(59.5 39.8)" fill="#d32b44"/>
        <path id="Path_42115" data-name="Path 42115" d="M61.9,41.2a.4.4,0,1,1-.4-.4.43.43,0,0,1,.4.4Z" fill="#d32b44"/>
        <circle id="Ellipse_1434" data-name="Ellipse 1434" cx="0.4" cy="0.4" r="0.4" transform="translate(62.3 39.6)" fill="#d32b44"/>
        <path id="Path_42116" data-name="Path 42116" d="M64.3,41.2a.4.4,0,1,1-.4-.4.43.43,0,0,1,.4.4Z" fill="#d32b44"/>
        <path id="Path_42117" data-name="Path 42117" d="M65.6,40a.4.4,0,1,1-.4-.4.43.43,0,0,1,.4.4Z" fill="#d32b44"/>
        <path id="Path_42118" data-name="Path 42118" d="M68,40.1a.4.4,0,1,1-.4-.4.366.366,0,0,1,.4.4Z" fill="#d32b44"/>
        <path id="Path_42119" data-name="Path 42119" d="M66.7,41.1a.4.4,0,1,1-.4-.4.43.43,0,0,1,.4.4Z" fill="#d32b44"/>
        <path id="Path_42120" data-name="Path 42120" d="M70.5,40.4a.4.4,0,1,1-.4-.4C70.3,40.1,70.5,40.2,70.5,40.4Z" fill="#d32b44"/>
        <path id="Path_42121" data-name="Path 42121" d="M71.6,41.7a.4.4,0,1,1-.4-.4.43.43,0,0,1,.4.4Z" fill="#d32b44"/>
        <path id="Path_42122" data-name="Path 42122" d="M69.1,41.5a.4.4,0,1,1-.4-.4.366.366,0,0,1,.4.4Z" fill="#d32b44"/>
        <path id="Path_42123" data-name="Path 42123" d="M58.3,42.9a.4.4,0,1,1-.4-.4C58.1,42.6,58.3,42.7,58.3,42.9Z" fill="#d32b44"/>
        <path id="Path_42124" data-name="Path 42124" d="M56.4,42.9a.4.4,0,1,1-.4-.4C56.2,42.6,56.4,42.7,56.4,42.9Z" fill="#d32b44"/>
        <path id="Path_42125" data-name="Path 42125" d="M57.3,44.6a.4.4,0,1,1-.4-.4A.43.43,0,0,1,57.3,44.6Z" fill="#d32b44"/>
        <path id="Path_42126" data-name="Path 42126" d="M55.2,44.9a.4.4,0,1,1-.4-.4.366.366,0,0,1,.4.4Z" fill="#d32b44"/>
        <path id="Path_42127" data-name="Path 42127" d="M59.5,44.4a.4.4,0,1,1-.4-.4.43.43,0,0,1,.4.4Z" fill="#d32b44"/>
        <path id="Path_42128" data-name="Path 42128" d="M60.6,42.8a.4.4,0,1,1-.4-.4C60.4,42.5,60.6,42.6,60.6,42.8Z" fill="#d32b44"/>
        <path id="Path_42129" data-name="Path 42129" d="M62.2,44.1a.4.4,0,1,1-.4-.4.43.43,0,0,1,.4.4Z" fill="#d32b44"/>
        <path id="Path_42130" data-name="Path 42130" d="M63.4,42.6a.4.4,0,1,1-.4-.4.43.43,0,0,1,.4.4Z" fill="#d32b44"/>
        <path id="Path_42131" data-name="Path 42131" d="M64.6,43.9a.4.4,0,1,1-.4-.4.43.43,0,0,1,.4.4Z" fill="#d32b44"/>
        <path id="Path_42132" data-name="Path 42132" d="M65.9,42.6a.4.4,0,1,1-.4-.4.43.43,0,0,1,.4.4Z" fill="#d32b44"/>
        <path id="Path_42133" data-name="Path 42133" d="M67.9,42.6a.4.4,0,1,1-.4-.4.366.366,0,0,1,.4.4Z" fill="#d32b44"/>
        <path id="Path_42134" data-name="Path 42134" d="M67,44.1a.4.4,0,1,1-.4-.4.366.366,0,0,1,.4.4Z" fill="#d32b44"/>
        <circle id="Ellipse_1435" data-name="Ellipse 1435" cx="0.4" cy="0.4" r="0.4" transform="translate(69.7 42.4)" fill="#d32b44"/>
        <path id="Path_42135" data-name="Path 42135" d="M71.9,44.3a.4.4,0,1,1-.4-.4.43.43,0,0,1,.4.4Z" fill="#d32b44"/>
        <path id="Path_42136" data-name="Path 42136" d="M72.9,42.9a.4.4,0,1,1-.4-.4C72.8,42.6,72.9,42.7,72.9,42.9Z" fill="#d32b44"/>
        <circle id="Ellipse_1436" data-name="Ellipse 1436" cx="0.4" cy="0.4" r="0.4" transform="translate(73.2 44.1)" fill="#d32b44"/>
        <path id="Path_42137" data-name="Path 42137" d="M69.5,44.1a.4.4,0,1,1-.4-.4.43.43,0,0,1,.4.4Z" fill="#d32b44"/>
        <path id="Path_42138" data-name="Path 42138" d="M56,46.3a.4.4,0,1,1-.4-.4.366.366,0,0,1,.4.4Z" fill="#d32b44"/>
        <path id="Path_42139" data-name="Path 42139" d="M57.5,47.4a.4.4,0,1,1-.4-.4A.43.43,0,0,1,57.5,47.4Z" fill="#d32b44"/>
        <path id="Path_42140" data-name="Path 42140" d="M58.5,46.1a.4.4,0,1,1-.4-.4.366.366,0,0,1,.4.4Z" fill="#d32b44"/>
        <path id="Path_42141" data-name="Path 42141" d="M60.1,47.1a.4.4,0,1,1-.4-.4.366.366,0,0,1,.4.4Z" fill="#d32b44"/>
        <path id="Path_42142" data-name="Path 42142" d="M61.3,45.9a.4.4,0,1,1-.4-.4.43.43,0,0,1,.4.4Z" fill="#d32b44"/>
        <path id="Path_42143" data-name="Path 42143" d="M62.5,47.1a.4.4,0,1,1-.4-.4C62.4,46.7,62.5,46.8,62.5,47.1Z" fill="#d32b44"/>
        <path id="Path_42144" data-name="Path 42144" d="M63.4,45.4A.4.4,0,1,1,63,45,.43.43,0,0,1,63.4,45.4Z" fill="#d32b44"/>
        <path id="Path_42145" data-name="Path 42145" d="M65.8,45.6a.4.4,0,1,1-.4-.4.43.43,0,0,1,.4.4Z" fill="#d32b44"/>
        <path id="Path_42146" data-name="Path 42146" d="M64.9,47a.4.4,0,1,1-.4-.4.366.366,0,0,1,.4.4Z" fill="#d32b44"/>
        <path id="Path_42147" data-name="Path 42147" d="M68.3,45.8a.4.4,0,1,1-.4-.4.366.366,0,0,1,.4.4Z" fill="#d32b44"/>
        <path id="Path_42148" data-name="Path 42148" d="M69.8,47.5a.4.4,0,1,1-.4-.4C69.6,47.2,69.8,47.3,69.8,47.5Z" fill="#d32b44"/>
        <path id="Path_42149" data-name="Path 42149" d="M68,48.7a.4.4,0,1,1-.4-.4.43.43,0,0,1,.4.4Z" fill="#d32b44"/>
        <circle id="Ellipse_1437" data-name="Ellipse 1437" cx="0.4" cy="0.4" r="0.4" transform="translate(66.6 46.7)" fill="#d32b44"/>
        <path id="Path_42150" data-name="Path 42150" d="M56.1,48.5a.4.4,0,1,1-.4-.4A.43.43,0,0,1,56.1,48.5Z" fill="#d32b44"/>
        <path id="Path_42151" data-name="Path 42151" d="M54.2,47a.4.4,0,1,1-.4-.4A.43.43,0,0,1,54.2,47Z" fill="#d32b44"/>
        <path id="Path_42152" data-name="Path 42152" d="M59,48.2a.4.4,0,1,1-.4-.4A.43.43,0,0,1,59,48.2Z" fill="#d32b44"/>
        <path id="Path_42153" data-name="Path 42153" d="M53.9,48.9a.4.4,0,1,1-.4-.4A.43.43,0,0,1,53.9,48.9Z" fill="#d32b44"/>
        <path id="Path_42154" data-name="Path 42154" d="M61.6,48.5a.4.4,0,1,1-.4-.4.43.43,0,0,1,.4.4Z" fill="#d32b44"/>
        <path id="Path_42155" data-name="Path 42155" d="M63.4,48.7a.4.4,0,1,1-.4-.4A.43.43,0,0,1,63.4,48.7Z" fill="#d32b44"/>
        <path id="Path_42156" data-name="Path 42156" d="M65.9,48.4a.4.4,0,1,1-.4-.4.43.43,0,0,1,.4.4Z" fill="#d32b44"/>
        <path id="Path_42157" data-name="Path 42157" d="M64.8,49.8a.4.4,0,1,1-.4-.4.366.366,0,0,1,.4.4Z" fill="#d32b44"/>
        <path id="Path_42158" data-name="Path 42158" d="M75,46.5a.4.4,0,1,1-.4-.4.43.43,0,0,1,.4.4Z" fill="#d32b44"/>
        <path id="Path_42159" data-name="Path 42159" d="M71.9,48a.4.4,0,1,1-.4-.4.366.366,0,0,1,.4.4Z" fill="#d32b44"/>
        <path id="Path_42160" data-name="Path 42160" d="M73.8,47.9a.4.4,0,1,1-.4-.4.366.366,0,0,1,.4.4Z" fill="#d32b44"/>
        <path id="Path_42161" data-name="Path 42161" d="M75.7,48.7a.4.4,0,1,1-.4-.4.43.43,0,0,1,.4.4Z" fill="#d32b44"/>
        <path id="Path_42162" data-name="Path 42162" d="M70.7,45.8a.4.4,0,1,1-.4-.4.366.366,0,0,1,.4.4Z" fill="#d32b44"/>
        <circle id="Ellipse_1438" data-name="Ellipse 1438" cx="0.4" cy="0.4" r="0.4" transform="translate(72 45.6)" fill="#d32b44"/>
      </g>
      <g id="Group_5937" data-name="Group 5937" clip-path="url(#clip-path)">
        <path id="Path_42163" data-name="Path 42163" d="M92.1,19.6S73.8,31,73.2,31.2c-.5.2-3.9,3.1-5.1,4.1a1.884,1.884,0,0,1-.9.4c-.8.1-2.5.5-2.6.5-.1.1,2.1.1,2.8.2a.6.6,0,0,0,.4-.1c1.1-.5,6.4-3.2,6.5-3.2S93,21.5,93.1,21.2C93.3,20.9,92.9,20,92.1,19.6Z" fill="#2d5e9c"/>
        <path id="Path_42164" data-name="Path 42164" d="M93.2,21.2C93.1,21.4,74.5,33,74.4,33s-2.7,1.3-4.7,2.3A67.527,67.527,0,0,0,75.1,30c4.8-2.9,17-10.5,17-10.5a2.123,2.123,0,0,1,1.1,1.7Z" fill="#2d5e9c" opacity="0.85"/>
        <g id="Group_5936" data-name="Group 5936">
          <path id="Path_42165" data-name="Path 42165" d="M65.7,32a6,6,0,0,0-.6,2.4C65,35.7,65,36.6,65,37c0,.2-.1.3-.1.5v.2c0,.1,0,.2.2.3.1,0,.2.1.3,0,0-.1.1-.1.1-.2v-.4a.349.349,0,0,0-.1-.2c0-.1-.1-.3-.1-.4V35.3a7.18,7.18,0,0,1,.2-1.7,7.568,7.568,0,0,1,.2-1.6Z" fill="#29303a"/>
          <g id="Group_5935" data-name="Group 5935">
            <path id="Path_42166" data-name="Path 42166" d="M65.4,38.4h-.5a.319.319,0,0,1-.3-.3V35.3h1v2.8C65.7,38.3,65.6,38.4,65.4,38.4Z" fill="#f3d6b9" opacity="0.55"/>
          </g>
          <path id="Path_42167" data-name="Path 42167" d="M65.7,35.4c0,.1-.2.1-.5.1a1.213,1.213,0,0,1-.5-.1c0-.1.2-.1.5-.1S65.7,35.3,65.7,35.4Z" fill="#f3d6b9"/>
          <path id="Path_42168" data-name="Path 42168" d="M65.2,35.4v-.1a7.18,7.18,0,0,1,.2-1.7,15.512,15.512,0,0,1,.3-1.6,6,6,0,0,0-.6,2.4c0,.4-.1.7-.1,1Z" fill="#29303a"/>
        </g>
        <path id="Path_42169" data-name="Path 42169" d="M92.1,19.6s-17.4,12.8-17.9,13-3.9,3.1-5.1,4.1a1.884,1.884,0,0,1-.9.4c-.8.1-2.5.5-2.6.5-.1.1,2.1.1,2.8.2a.6.6,0,0,0,.4-.1c1.1-.5,6.4-3.2,6.5-3.2S93,21.4,93.1,21.2C93.3,20.9,92.9,20,92.1,19.6Z" fill="#3e72a4"/>
      </g>
      <g id="Group_5938" data-name="Group 5938" clip-path="url(#clip-path)">
        <path id="Path_42170" data-name="Path 42170" d="M52.8,103.1s9.9,10.9,23.3,0c0,0,30,3,29.1,12.9l1.2,11.2H21.9l1.5-10.6s-.8-6.1,9.3-8.9C42.7,104.9,52.8,103.1,52.8,103.1Z" fill="#73c9ef"/>
      </g>
    </g>
  </g>
</svg>
