<svg xmlns="http://www.w3.org/2000/svg" xmlns:xlink="http://www.w3.org/1999/xlink" viewBox="0 0 558 558"><defs><style>.cls-1{fill:none;}.cls-2{isolation:isolate;}.cls-3{fill:url(#linear-gradient);}.cls-4{clip-path:url(#clip-path);}.cls-5{fill:#fdb48c;}.cls-6,.cls-7{fill:#1d3b5e;}.cls-7{opacity:0.3;mix-blend-mode:multiply;}.cls-8{fill:#3a59c9;}.cls-9{fill:#2a38b2;}.cls-10{fill:#122040;}.cls-11{fill:#e98c78;}.cls-12{fill:#fff;}.cls-13{opacity:0.5;}.cls-14{fill:#dbdbdb;}.cls-15{fill:#e73f64;}.cls-16{fill:#2b557c;}.cls-17{fill:#657187;}</style><linearGradient id="linear-gradient" y1="279" x2="558" y2="279" gradientUnits="userSpaceOnUse"><stop offset="0" stop-color="#ebebeb"/><stop offset="1" stop-color="#fff"/></linearGradient><clipPath id="clip-path"><circle class="cls-1" cx="279" cy="279" r="279"/></clipPath></defs><title>Remaining Icons</title><g class="cls-2"><g id="Layer_1" data-name="Layer 1"><circle class="cls-3" cx="279" cy="279" r="279"/><g class="cls-4"><path class="cls-5" d="M237.42,290.72s32.35,52.07,53.23,62.77,58,29.54,58,29.54l-5.08,11.18s-43.55-3.27-69.71-19.5c-18.77-11.65-48.16-38.79-48.16-38.79S227.15,306.35,237.42,290.72Z"/><path class="cls-6" d="M115.68,540.17c-.34,3.51-.68,7.1-.94,10.43-.43,5.67-.59,10.59,0,13.09,1.51,6.91-.23,15-1.92,19.54s-13.11,75.15-12.5,85.67,4.51,12.32,3,17.43-5.45,4.81-3,9.92c1.47,3.09.27,5-.54,6.63h36.43c.38-2.71-.56-5.26.51-6.33,1.8-1.8,2.1-8.11,0-10.52s-.37-6.31,1.46-10.82-1.83-9.32,0-13.53,8.16-47.79,9.66-50.5,8-11.1,9-32.76c.72-14.83,11.15-36.42,11.42-37,0,.08-.11.6-.28,1.5v0c0,.12,0,.25-.07.38h0c-1.74,9.33-9.21,49.94-10,63.61-.9,15.47,2.1,21.63,1.2,24.34s-.75,10.07-.45,13.83.45,7.67.15,8.57-4.21,3.75-3.76,8.86,5.26,7.67,6.92,11.88c.72,1.84,5.7,2.39,11.28,1.88,7.17-.65,15.32-3.05,16.68-6.69,2.4-6.46-.16-8.12,1.65-10.37s-1.51-4.66-1.65-8.72,2.4-9.32,2.4-13.08A100.69,100.69,0,0,1,195,618.7c1.51-5.86,3.61-26.91,7.22-38.18,3.38-10.57,4.78-18,10.14-31.84.35-.93.73-1.89,1.13-2.88a44.46,44.46,0,0,0,1.72-5.63Z"/><path class="cls-7" d="M168.73,540.17h-53c-.34,3.51-.68,7.1-.94,10.43,6.55,1.29,24.45,4.48,38.18,3.76,0,0-.21,22.89-5.55,39.41s-11.94,33.93-12.24,45.64-2.73,22.3-2.57,28-1,7.17-1.34,13.47.88,3.31,1.34,9.31c.27,3.56-1.51,8.59-2.64,12.72h6.21c.38-2.71-.56-5.26.51-6.33,1.8-1.8,2.1-8.11,0-10.52s-.37-6.31,1.46-10.82-1.83-9.32,0-13.53,8.16-47.79,9.66-50.5,8-11.1,9-32.76c.72-14.83,11.15-36.42,11.42-37,0,.09-.14.76-.36,1.91C168.19,542.18,168.49,541.08,168.73,540.17Z"/><path class="cls-7" d="M168.67,540.17l-.75,2.78v0c0,.12,0,.25-.07.38h0c-1.74,9.33-9.21,49.94-10,63.61-.9,15.47,2.1,21.63,1.2,24.34s-.75,10.07-.45,13.83.45,7.67.15,8.57-4.21,3.75-3.76,8.86,5.26,7.67,6.92,11.88c.72,1.84,5.7,2.39,11.28,1.88-2.29-3.75-6.4-7.83-3.81-12.3,3.3-5.71-1.8-15.62-2.59-24s5-10.52,2.59-28.54,2.4-29.42,3.6-41.44a35.35,35.35,0,0,1,7.91-19.21c8,.67,23.7-1,31.44-2.15.35-.93.73-1.89,1.13-2.88a44.46,44.46,0,0,0,1.72-5.63Z"/><path class="cls-8" d="M238.61,295.52l-10.5,51.88a15.24,15.24,0,0,1-5-.34c0,.16,0,.31.05.46,1.77,17.86.63,41.41,2.21,58.42,2.35,25.23-.51,123.33-1.83,127.15-3,8.82-22,10-41.38,11l-3.2.17c-3.88.2-7.74.42-11.45.7-23.22,1.79-60.49-5.54-60.49-5.54s-2.27-68.62-2.21-114.64c0-14.34.26-26.49.87-33.68,2.55-30.25,8.67-62.07,10.37-76.62.68-5.79.2-9.36-.62-11.55-1.24-3.32-3.27-3.51-3.27-3.51-13.25-21.1-36.53-26.62-36.53-26.62S89.93,246.2,95.91,238.9s7.39-12.13,17.19-21c1.61-1.46,6.2-3.56,11.72-5.76h0c3.68-1.46,5.94-2.46,9.42-3.59l1.61-.49c2-.6,3.69-1.07,5.28-1.45,5.23-1.27,9.06-1.59,16.16-2.25a42.81,42.81,0,0,1,19.4,2.71l6.27,2.53,6.28,2.54h0c.1.06,1.3.46,3.19,1.08l1.68.55c1.64.54,3.58,1.19,5.69,1.91,9,3.08,21,7.43,24.09,10,4.14,3.42,9.21,17.62,10.85,29.84,1.16,5.62,2.11,15.38,2.78,23.87C238.22,288.13,238.61,295.52,238.61,295.52Z"/><path class="cls-9" d="M184.08,239c-22.9.56-43.2-22.17-49.84-30.47.51-.16,1-.33,1.6-.49,2-.6,3.7-1.07,5.29-1.46,5.23-1.26,9.06-1.58,16.16-2.24a42.88,42.88,0,0,1,19.39,2.7l6.28,2.54,6.28,2.54h0c.11.06,1.31.45,3.2,1.08l1.68.54c1.63.54,3.58,1.19,5.69,1.92C201.87,225.65,201.2,238.6,184.08,239Z"/><path class="cls-9" d="M219.38,254.51c.32,5.36,6,46.24,11.25,74.09a144.57,144.57,0,0,0-2.52,18.79,15,15,0,0,1-5-.33Z"/><path class="cls-9" d="M242.63,294.6c-.35,1.83-1.22,6.38-3,12.38L228.11,347.4c-3,2.66-5-.34-5-.34l-1-25.15,15.4-42.56h0C240.94,285.78,243.72,290.14,242.63,294.6Z"/><path class="cls-9" d="M193.15,275.77l22.48-.15s3.17,21.77-7.33,23.05C193.15,300.52,193.15,275.77,193.15,275.77Z"/><polygon class="cls-9" points="215.15 269.4 192.67 269.4 191.78 262.48 214.26 262.48 215.15 269.4"/><path class="cls-9" d="M184,237.92h-3.16c1.49,21,3.7,56.91,4.91,99.24,1.63,57.66,1.65,138.47-6.77,207.11l3.2-.17c8.38-68.71,8.35-149.42,6.71-207C187.69,294.85,185.49,259,184,237.92Z"/><path class="cls-9" d="M71.85,277.61S105.3,296.1,112.2,309.7l6.9-6.56S101,275.62,75.66,269.4Z"/><path class="cls-10" d="M145.79,148.79l-8.11-26.6s-3.6-13.52,6.1-22.33c12.78-11.61,20.17-11.94,34.48-14.2,13.5-2.12,41.48,2.71,46.66,18.72,3.57,11-14.17,18.73-14.17,18.73s-49.13-3.4-54.68,4-2.61,23-2.61,23S154.13,154.65,145.79,148.79Z"/><path class="cls-10" d="M207.11,116.48s1.52,6.5,3.19,15.19a18.6,18.6,0,0,0,4.78-16.4Z"/><path class="cls-5" d="M136.56,161.86c4.37,14.11,14.89,10.76,14.89,10.76,2.43,23.34-4.3,34.13-4.3,34.13,12.72,15.27,26.11,15.54,35.11,15.35a41.69,41.69,0,0,0,5.83-.52,2,2,0,0,0,1.65-2.26c-1.89-14.44,6.35-28.46,6.35-28.46-46-6.5-44-39.69-44-39.69l-3.41-2.43C140.93,143.87,132.18,147.76,136.56,161.86Z"/><path class="cls-5" d="M159.21,176.94c11.25,12.66,28.16,16,38.31,13.64l.72-.18h0a16.37,16.37,0,0,0,4-1.61,10,10,0,0,0,1-.67,18.24,18.24,0,0,0,4.57-5.58c3.56-6.25,3.59-12.9,3-20l-1.38-15.79v-.11l.47-8.92.9-16.69q-1.5-1.23-3-2.28c-24.27-16.84-53.18-1.61-53.18-1.61S142.26,157.84,159.21,176.94Z"/><path class="cls-10" d="M165.74,109.56s-2.57,19.71-11,23.6c0,0-1.22,11.3,1.37,20l-5,4.76-1.85-17a38.16,38.16,0,0,1,7.31-27.13C159.57,109.83,162.94,107.2,165.74,109.56Z"/><path class="cls-11" d="M156.07,172.62s.4,19.57,18.11,28.31a15,15,0,0,1,7,6.83c1.54,3.22,2.5,7.88,1.11,14.34a40.44,40.44,0,0,0,5.92-.54,1.91,1.91,0,0,0,1.57-2.15c-1.94-14.47,6.34-28.55,6.34-28.55A38.85,38.85,0,0,1,156.07,172.62Z"/><path class="cls-11" d="M141.34,153.92s9.21-.39,6.07,12.48C147.41,166.4,148.06,157.08,141.34,153.92Z"/><path class="cls-11" d="M147.15,162.53s-1.39-4.15-4.71-2.37c0,0,.68-2.27,4.16-1.7Z"/><path class="cls-12" d="M208,182.57a17.23,17.23,0,0,1-4.36,5.33,1,1,0,0,1-.16.12c-14.57,5.11-32.54-3.1-33-3.3h0c2.22-10.14,0-27.5,0-27.5,11,7.39,23.74,6.47,32.26,4.54a57.55,57.55,0,0,0,7.79-2.35l.35,4C211.41,170.25,211.39,176.6,208,182.57Z"/><g class="cls-13"><path class="cls-14" d="M208,182.57a17.23,17.23,0,0,1-4.36,5.33,1,1,0,0,1-.16.12c-14.57,5.11-32.54-3.1-33-3.3,42.1,10,32.25-23,32.25-23a57.55,57.55,0,0,0,7.79-2.35l.35,4C211.41,170.25,211.39,176.6,208,182.57Z"/></g><path class="cls-12" d="M172.36,160.54c-8.17-1-19.29-8.4-28.35-16.14a.91.91,0,0,0-1.48.9v0a1,1,0,0,0,.3.49c7.2,6.14,19.48,15.39,29.37,16.56h.11a.92.92,0,0,0,.92-1A1,1,0,0,0,172.36,160.54Z"/><path class="cls-12" d="M172.24,179.17A44.7,44.7,0,0,1,152,176.5a.93.93,0,0,0-1.27.88v0a1,1,0,0,0,.59.85,45,45,0,0,0,16.46,3c1.47,0,3-.06,4.61-.2a1,1,0,0,0,.9-.91A.93.93,0,0,0,172.24,179.17Z"/><path class="cls-5" d="M75.58,177.9c-.21.58-.4.74-.56.39v0h0a7.24,7.24,0,0,1-.26-2.1A3.56,3.56,0,0,0,70.63,174c-3,.68-2.95,4.81-2.95,4.81a4,4,0,0,0-4.21-2.88c-2.85.18-2.74,4.58-2.69,7.1,0,0,0,0,0,0,0,.51,0,.93,0,1.24,0,.72-.21,1.95-.43,3.5-.75,5.28-2.16,14.22-1.64,18.92a42.93,42.93,0,0,0,1.77,9.15l-.3,3.74h0s9.24,4.51,16.84,2.29a.77.77,0,0,0,.46-.36.47.47,0,0,0,0-.16,0,0,0,0,1,0,0h0a3.16,3.16,0,0,1,.22-.92v0a5.12,5.12,0,0,1,1.17-1.74h0a9.78,9.78,0,0,1,3.67-2.18c5.1-1.83,8.84-3.31,10-8.27A51.67,51.67,0,0,0,94.28,202c.35-2.51.85-4.65-2.62-6.19A26.76,26.76,0,0,0,86.09,194a25.88,25.88,0,0,1,1.63-8.52c.7-2.15,5.32-14.78,5.54-19.2s.39-5.29-1.4-5.81-4.21,4.85-5.07,8.38c-.68,2.77-3,11.46-4,11.38,0,0-.43-3.65-2.28-4.42S76.49,175.38,75.58,177.9Z"/><path class="cls-11" d="M72.84,197.35a5.58,5.58,0,0,0,.77,1.14A10,10,0,0,0,77.72,201c3.22,1.24,8.72.56,8.86.51-.14,0-10.8-1.06-11.9-4.51a2.3,2.3,0,0,1-.13-.59c0-.12,0-.24,0-.36.09-3.51,7-2.52,11.57-2,0,0-6.4-2.87-11.41-.59C72.41,194.47,72.14,195.94,72.84,197.35Z"/><path class="cls-11" d="M72.77,194.14c-3.35.9-5.5-3.32-5.5-3.32s-1,3.45-3.93,1.61c-1.45-.9-2.39-2.87-3-4.65.22-1.55.38-2.78.43-3.5,0-.31,0-.73,0-1.24.29,2.84,1.69,8.16,4.05,8s2.46-4.39,2.47-4.61c.49,6.38,5,8,6.23,4.21l.62-3.36s-.93,5.13,1.94,4.83c2.25-.24,2.79-1.61,3.5-3.85,0,0,.24,2.91-1.14,4.12S72.77,194.14,72.77,194.14Z"/><path class="cls-11" d="M70.11,203.62c-.23,6.1,3.31,7.43,3.31,7.43-2.58-5.59-1.42-9.83.19-12.56A12.17,12.17,0,0,1,74.68,197a2.3,2.3,0,0,1-.13-.59c0-.12,0-.24,0-.36a11.2,11.2,0,0,0-1.69,1.35A9,9,0,0,0,70.11,203.62Z"/><path class="cls-5" d="M79.7,281.37A40.25,40.25,0,0,1,91,287.73a131.36,131.36,0,0,1,17.79,17S84,332.05,75.66,334a11,11,0,0,1-9.4-2.46h0c-1.89-1.22-5.06-2.93-6.36-4.24a34.79,34.79,0,0,1-2.76-3.14c-.48-.78-3.14-3.54-3.53-4.53-6.6-16.58.53-56.44,2.77-64.43,1.58-5.61,3.34-30.21,4.12-39.06A24.82,24.82,0,0,0,78,219.89c-1,5.93-1.73,19.5-.21,29a192.66,192.66,0,0,1,2.13,25.78h0s-.06,4.69-.19,6.73"/><path class="cls-11" d="M88.15,285.74c-4.06,7.5-10.41,17.62-10.41,17.62,1-5.29,2-22,2-22A21.29,21.29,0,0,1,88.15,285.74Z"/><path class="cls-12" d="M381,110.82v44a17.16,17.16,0,0,1-9.77,15.49l-11.07,5.28-10.09-5.16a17.18,17.18,0,0,1-9.34-15.28V110.82c0-5.11,4.61-9.25,10.3-9.25h19.68C376.4,101.57,381,105.71,381,110.82Z"/><path class="cls-15" d="M374.44,112v32.73a4.71,4.71,0,0,1-4.72,4.71H352a4.71,4.71,0,0,1-4.71-4.71V112a4.71,4.71,0,0,1,4.71-4.71h17.69A4.71,4.71,0,0,1,374.44,112Z"/><rect class="cls-12" x="358.01" y="89.44" width="5.74" height="12.27"/><path class="cls-6" d="M326.79,726.63h0a5.31,5.31,0,0,1-5.31-5.31V85.19H332.1V721.32A5.3,5.3,0,0,1,326.79,726.63Z"/><rect class="cls-6" x="293.31" y="78.56" width="68.79" height="7.28"/><circle class="cls-6" cx="360.88" cy="82.2" r="7.85"/><path class="cls-6" d="M301.16,82.2a7.85,7.85,0,1,1-7.85-7.85A7.85,7.85,0,0,1,301.16,82.2Z"/><path class="cls-12" d="M365.67,209a359,359,0,0,0-3.93-40.43l-2.87.49c.12.71,11.79,71.28-4.82,107.18-6.4,13.85-21.07,24.69-36.6,36.17-12.5,9.23-25.42,18.79-35,30.64-9.94,12.25-14.88,25.46-15,40a15.45,15.45,0,0,1,3.08-1c1.07-31.37,25.2-49.92,48.71-67.3C335,303,350,291.94,356.7,277.41,363.84,262,366.86,238.93,365.67,209Z"/><rect class="cls-10" x="420.74" y="305.56" width="163.22" height="229.87" rx="8.4" ry="8.4"/><rect class="cls-6" x="399.43" y="305.56" width="163.22" height="229.87" rx="8.4" ry="8.4"/><path class="cls-10" d="M416.7,502.55h0a5.25,5.25,0,0,1-5.25-5.25V323.51a5.25,5.25,0,0,1,5.25-5.25h0a5.25,5.25,0,0,1,5.25,5.25V497.3A5.25,5.25,0,0,1,416.7,502.55Z"/><path class="cls-10" d="M438.17,502.55h0a5.25,5.25,0,0,1-5.25-5.25V323.51a5.25,5.25,0,0,1,5.25-5.25h0a5.25,5.25,0,0,1,5.25,5.25V497.3A5.25,5.25,0,0,1,438.17,502.55Z"/><path class="cls-10" d="M459.64,502.55h0a5.25,5.25,0,0,1-5.25-5.25V323.51a5.25,5.25,0,0,1,5.25-5.25h0a5.25,5.25,0,0,1,5.25,5.25V497.3A5.25,5.25,0,0,1,459.64,502.55Z"/><path class="cls-10" d="M481.11,502.55h0a5.25,5.25,0,0,1-5.25-5.25V323.51a5.25,5.25,0,0,1,5.25-5.25h0a5.25,5.25,0,0,1,5.25,5.25V497.3A5.25,5.25,0,0,1,481.11,502.55Z"/><rect class="cls-10" x="497.32" y="318.26" width="10.5" height="184.29" rx="5.25" ry="5.25"/><path class="cls-10" d="M524,502.55h0a5.25,5.25,0,0,1-5.25-5.25V323.51a5.25,5.25,0,0,1,5.25-5.25h0a5.25,5.25,0,0,1,5.25,5.25V497.3A5.25,5.25,0,0,1,524,502.55Z"/><path class="cls-10" d="M545.51,502.55h0a5.25,5.25,0,0,1-5.25-5.25V323.51a5.25,5.25,0,0,1,5.25-5.25h0a5.25,5.25,0,0,1,5.25,5.25V497.3A5.25,5.25,0,0,1,545.51,502.55Z"/><rect class="cls-6" x="-80.03" y="499.91" width="664.01" height="75.55" rx="13.23" ry="13.23"/><path class="cls-10" d="M67.75,399.34H-198.54a21.88,21.88,0,0,0-21.87,21.88V553.59a21.87,21.87,0,0,0,21.87,21.87H67.75a21.88,21.88,0,0,0,21.88-21.87V421.22A21.89,21.89,0,0,0,67.75,399.34Zm-28.9,26.38a7.18,7.18,0,0,1-5.09,2.11h-212.3a7.19,7.19,0,0,1-7.19-7.19,7.16,7.16,0,0,1,2.11-5.09,7.17,7.17,0,0,1,5.08-2.11H33.76a7.19,7.19,0,0,1,5.09,12.28Z"/><path class="cls-16" d="M43.62,399.34H-198.54a21.88,21.88,0,0,0-21.87,21.88V553.59a21.87,21.87,0,0,0,21.87,21.87H43.62A21.88,21.88,0,0,0,65.5,553.59V421.22A21.88,21.88,0,0,0,43.62,399.34Zm-4.77,26.38a7.18,7.18,0,0,1-5.09,2.11h-212.3a7.19,7.19,0,0,1-7.19-7.19,7.16,7.16,0,0,1,2.11-5.09,7.17,7.17,0,0,1,5.08-2.11H33.76a7.19,7.19,0,0,1,5.09,12.28Z"/><rect class="cls-10" x="-199.72" y="454.9" width="245.4" height="89.52" rx="12.02" ry="12.02"/><path class="cls-12" d="M538.5,422.14c5.16,28.7,9.84,72.66-3.28,76.69-6.06,1.86-39.28,3.24-75.33,3.62-7.7.08-15.53.11-23.25.1-10.3,0-20.41-.14-29.76-.36-21.9-.5-39.64-1.57-46-3.36-17.38-4.9-6.79-104.16,13-156.73a33.83,33.83,0,0,1,34.59-21.78c11.64,1,26.44,2.38,41.2,4,9.61,1.07,19.2,2.25,27.9,3.51,9.4,1.37,17.75,2.82,24,4.34,20.32,5,33.65,9.2,40.64,16.93,3.65,4,5.58,9,5.86,15.59C548.81,383.82,533.35,393.44,538.5,422.14Z"/><path class="cls-14" d="M455.57,500c-5.19.78-12,1.68-18.93,2.55-10.3,0-20.41-.14-29.76-.36l6.8-12.77s45.48-4.69,45.4-31.56S435.23,399.44,432.27,376c-2.06-16.3,1.91-41.22,17.36-51.68,9.61,1.07,19.2,2.25,27.9,3.51.08,7-.95,17.85-7,26.61-9.69,14.06,2.53,17.21,8.87,31.71s11.12,39.84,12.06,66.08S472.46,497.46,455.57,500Z"/><path class="cls-14" d="M538.5,422.14c5.16,28.7,9.84,72.66-3.28,76.69-6.06,1.86-39.28,3.24-75.33,3.62,15.67-1.86,31.85-5.22,40.18-11.31,19.22-14.06,7.5-35.15,4.69-73.79s.72-46.38,10.31-61.65c9.37-14.92,27-6.59,27-6.59,3.65,4,5.58,9,5.86,15.59C548.81,383.82,533.35,393.44,538.5,422.14Z"/><path class="cls-12" d="M476.24,504.81c-2.71-10.93-11.81-23.42-20.23-33.17a213.75,213.75,0,0,0-16.14-16.74c-41.3-45.53-114.61-61.21-114.61-61.21-33.78-10.38-120.61.46-177.63,7.35-22.84,2.76-40.41,11.88-58,18.22l0,136.11c35.22-.71,82.43-2.46,126-6.68,83.52-8.1,194.92,21.06,240.59,11.74C474.46,556.7,481.65,526.65,476.24,504.81Z"/><path class="cls-14" d="M476.24,504.81c-2.71-10.93-11.81-23.42-20.23-33.17-18.44,1.27-49.05,4-76.71-3.24-36.91-9.71-58.56-31.56-65-27.68s37.89,31.07,51.24,44.18,70.31,36.9,44.94,45.65S346.33,520.83,297.61,515s-90.54,12.14-137.78,2.43c-25-5.14-50.17.85-70.2,1.84v36.1c35.22-.71,82.43-2.46,126-6.68,83.52-8.1,194.92,21.06,240.59,11.74C474.46,556.7,481.65,526.65,476.24,504.81Z"/><path class="cls-17" d="M406,266.68s-9.37,1.38-10.59,10.12,4.13,24,4.13,24S407.66,278.4,406,266.68Z"/><path class="cls-8" d="M492,434.59c.95,9.83-8,38.5-8,38.5s-8.83.06-36.5-8.55c-21.54-36.43-99.66-63.67-99.66-63.67h0l-7.74-2.7-12.78-4.47.84-.89c2.26-2.33,9.15-9.23,22.2-20.51,10.36-8.94,25.1-25.76,32-26.47s37.52,8.36,38,8.4c0,0,13.88,2.88,13.88,2.88,6.76,1.51,17.25,2.85,22.63,7.21,7.57,6.13,9.73,11,14.51,17.39,2.93,3.89,2.37,6.07,5.06,10h0A110,110,0,0,1,484,404.31C490.85,417.73,491.09,424.77,492,434.59Z"/><path class="cls-9" d="M445,414.28s1.93,16.85,1.11,21.74-5.73,18.88-5.73,18.88a103.77,103.77,0,0,0-11.17-10.69c.22-.2,7.25-6.42,10.78-9S445,414.28,445,414.28Z"/><path class="cls-5" d="M470.59,322.81c-6,13.51-13.44,10.19-13.44,10.19-5.13,22.9-.24,31.31-.24,31.31-14.41,13.69-29.82,14.28-38.74,13a41.41,41.41,0,0,1-5.73-1.2,2,2,0,0,1-1.38-2.43c3.56-14.13-3-29-3-29,46.44-1.11,48.31-34.32,48.31-34.32l3.67-2C468.33,304.43,476.57,309.31,470.59,322.81Z"/><path class="cls-5" d="M462.92,308.84a10.15,10.15,0,0,1-5.4,4.73c-1.78,8.28-5.15,16.19-11.2,21.59a41.86,41.86,0,0,1-10.22,6.7h0c-10.61,4.93-22.07,5-29.42,2.38L406,344h0a16.73,16.73,0,0,1-3.79-2.06,8.39,8.39,0,0,1-.78-.65l-.16-.13a18.25,18.25,0,0,1-3.89-6.08c-2.81-6.63-2.06-13.23-.68-20.24l.86-4.16,2.34-11.36v-.11l.57-8.92.83-13.17a6.69,6.69,0,0,1,.24-1.42v0c.16-.79,4.62-20.69,32.43-20.06C462.34,256.25,475.89,286.46,462.92,308.84Z"/><path class="cls-11" d="M449.94,331.23s-2.67,19.4-21.28,26a15,15,0,0,0-7.72,6c-1.91,3-3.4,7.54-2.77,14.12a42.23,42.23,0,0,1-5.82-1.22,1.91,1.91,0,0,1-1.31-2.32c3.61-14.16-3-29.11-3-29.11A38.85,38.85,0,0,0,449.94,331.23Z"/><path class="cls-11" d="M466.76,314.37s-9.1-1.47-7.49,11.69C459.27,326.06,459.71,316.73,466.76,314.37Z"/><path class="cls-11" d="M460,322.25s1.85-4,4.95-1.81c0,0-.41-2.33-3.94-2.18Z"/><path class="cls-17" d="M399.57,300.78s-7.95,25.71-6.81,32.5,6.35,17.76,20.57,19,30.47-6.5,36.61-21c2.11-5,8-23.2,8-23.2l-2.86-4.36-5.91,8.2s-11.89,24-23.89,26.1-26.28-4.4-26.83-11.91S398.9,307.89,399.57,300.78Z"/><path class="cls-5" d="M257.92,394.39a13.49,13.49,0,0,1,3.34-7.08,18.45,18.45,0,0,1,23.16-3.05l.66.43.32.23c4.18,3,11.73,11.31,13.09,14.28s5.44,7.16,5.44,7.16c-.75,2.2-3.48,2-3.48,2-2,.27-5.18-2.36-6.68-4.91-.93-1.6-4.86-5.3-7.66-7.84,2.77,3.17,5.06,7.66,6.81,10.85a77.68,77.68,0,0,0,4.71,7.48c-3.1,3.61-8-1.64-10.61-5.21-2.11-2.91-7.64-9.79-7.81-10a84.73,84.73,0,0,0,7.13,11.43c4.34,5.78,6.18,7.08,6.18,7.08-1.77,3.17-6.07,2.67-11-1.58s-12.19-14.88-12.19-14.88c.2,2.22,5.06,12.75,6.39,14.37s-.39,5.37-6.09,1.34-9.38-16.35-9.38-16.35h0a2.87,2.87,0,0,1-2.66-3.23C257.68,396.06,257.8,395.17,257.92,394.39Z"/><path class="cls-5" d="M484,473.09c-27.11,26.74-68.61,30.53-86.8,20.55s-44.74-29.57-44.74-29.57L362.52,449S406.33,473.8,417,471.61a36.53,36.53,0,0,0,23.42-16.71C456.71,466.15,472.85,471.66,484,473.09Z"/><path class="cls-5" d="M320.8,446.77c3,1.49,13.74,10.6,19.67,13a45.12,45.12,0,0,0,9.33,2.89l5.74,3.07.93.5s6.92-12.62,7.06-15.87a.91.91,0,0,0-.1-.59.49.49,0,0,0-.13-.12h0a2.91,2.91,0,0,1-.75-.65h0a5.23,5.23,0,0,1-1-1.94h0a10.22,10.22,0,0,1-.19-4.47c.82-5.61,1.3-9.8-2.71-13.28s-6.73-5.64-7.88-7.47-9.41-4-10.6-3.78-1.93,3.59,2.43,6.15,7.39,5.63,6.67,6.37-3.25-.51-6.4-2.12a30.43,30.43,0,0,1-7.56-5.91c-1.64-1.71-11-12.22-15-14.61s-4.69-3-6.05-1.58,2.39,6.29,5.23,8.83c2.22,2,9.08,8.47,8.55,9.28-.77,1.19-12.91-9.56-15.46-11.6s-6.95-5.27-8.27-1.91c-1.11,2.84,10.94,11.49,13,13.51,0,0,4.85,4.06,5.45,5.5s-1.55.41-2.48-.07a98.54,98.54,0,0,1-10-8c-2.34-2.3-5.18-5-6.79-3.77s-1,3.75,4.74,8.62,9.94,8.82,11.82,10.22.21,2.68-1.94,1.61-9.93-7-11.48-6.57-2.58,2.9.56,5.68A90.33,90.33,0,0,0,320.8,446.77Z"/><path class="cls-9" d="M367.08,374.15l-19.24,26.72-7.75-2.71C352,391.1,366.59,374.7,367.08,374.15Z"/><path class="cls-17" d="M453.58,271.56A14.25,14.25,0,0,0,452,284c2.42,7,3.72,10.51,3.72,10.51l-1.13,17.35,7.56-4.18s14-2.71,10.49-26.36C471.3,272.19,453.58,271.56,453.58,271.56Z"/><path class="cls-17" d="M404,267.22s-9.78-12.38-3.21-19.34,47-.13,58.33,7.07C476.42,266,471.86,279,471.86,279l-18.28-7.44s-3.64-1.11-18.28-4.88C425.11,264.06,414.51,269.62,404,267.22Z"/></g></g></g></svg>