<svg xmlns="http://www.w3.org/2000/svg" xmlns:xlink="http://www.w3.org/1999/xlink" width="117.2" height="117.199" viewBox="0 0 117.2 117.199">
  <defs>
    <linearGradient id="linear-gradient" x1="0.001" y1="0.5" x2="1" y2="0.5" gradientUnits="objectBoundingBox">
      <stop offset="0" stop-color="#ebebeb"/>
      <stop offset="1" stop-color="#fff"/>
    </linearGradient>
    <clipPath id="clip-path">
      <circle id="Ellipse_1446" data-name="Ellipse 1446" cx="58.6" cy="58.6" r="58.6" transform="translate(9.2 8.8)"/>
    </clipPath>
  </defs>
  <g id="homeopathist" transform="translate(-9.2 -8.801)">
    <circle id="Ellipse_1445" data-name="Ellipse 1445" cx="58.6" cy="58.6" r="58.6" transform="translate(9.2 8.8)" fill="url(#linear-gradient)"/>
    <g id="Group_5945" data-name="Group 5945">
      <g id="Group_5944" data-name="Group 5944" clip-path="url(#clip-path)">
        <path id="Path_42236" data-name="Path 42236" d="M88.3,144.5a32.29,32.29,0,0,1-9.3.4c-1.4-.1-2.7-.4-4.1-.6-.7-.1-.9-.4-.9-1.1a110.116,110.116,0,0,0-2.3-15.1c0-.2,0-.4-.3-.5l-.6,1.8c-1.9,2.9-3.6,6-5.3,9.1-1.1,2-2.1,4-3.3,6-.1.1-.3.1-.4.3a56.881,56.881,0,0,1-9.2-.6c-.4,0-.8-.1-.8-.7-.3-6.3-.2-12.5-.1-18.8,0-.1.1-.2.1-.3.5.4,1,.2,1.5-.1a50.009,50.009,0,0,0,6.1-4.1,22.61,22.61,0,0,1,5.2,0c3.1.3,6.1-.2,9.2-.2a23.983,23.983,0,0,0,4.6-.5c.1,0,.2-.1.3-.1a2.153,2.153,0,0,0,1.1-.2c.5,0,.7.3,1,.7.1.2,0,.4,0,.6.1.4.6.4.9.7a19.992,19.992,0,0,0,5.6,3.4c1.6.6,1.6.7,1.4,2.3a43.036,43.036,0,0,0-.4,15.6A3.39,3.39,0,0,1,88.3,144.5Z" fill="#279696"/>
        <path id="Path_42237" data-name="Path 42237" d="M40.7,74.4a135.423,135.423,0,0,1,3.3-14c1.1-3.5,3.8-5.6,7-7A54.881,54.881,0,0,1,57.8,51a.548.548,0,0,1,.4.6c0,.7-.5,1.2-.7,1.7a14.217,14.217,0,0,0-1.3,5,2.618,2.618,0,0,1-.5,1.7,1.7,1.7,0,0,1-.7.1c-.7-.1-.9.3-.9.9a16.045,16.045,0,0,0,.4,4.4A39.227,39.227,0,0,0,56,71.3c.3.8-.1,1.7.6,2.4.4.7,0,1.5.4,2.2a1.729,1.729,0,0,1,.1,1,24.617,24.617,0,0,0,.1,4.7,14.775,14.775,0,0,1,0,4.2c-.2,2.2-.2,4.4-.3,6.6-.2,3.3-.6,6.7-.8,10-.2,2.8-.4,5.6-.4,8.5a.6.6,0,0,1-.1.4c0,.1-.1.2-.2.3-.5-.2-.8.6-1.3.1-.7-1.9-.9-4-1.4-5.9-.5-2.1-.9-4.1-1.3-6.2,0-.1-.1-.2-.1-.4a33.813,33.813,0,0,1-.9-5.4c.8-4.4,1.8-8.7,3-13,1-3.8.4-7.4-.7-11l-.3-.9v-.3c-.6,2.3-1.2,4.5-1.6,6.8-.1.4-.1.9-.4,1.2a1.287,1.287,0,0,1-1.2.1c-2.3-.5-4.6-1-6.9-1.6C41.4,75,40.9,74.9,40.7,74.4Z" fill="#30bec2"/>
        <path id="Path_42238" data-name="Path 42238" d="M80.7,119.9a8.65,8.65,0,0,0-1-.7,1.588,1.588,0,0,1-.6-2,2.092,2.092,0,0,1,.4-.6c.7-.5,1.2-1.1,1.8-1.6a14.777,14.777,0,0,0,6-9.7,99.27,99.27,0,0,0,2.3-12.1,37.635,37.635,0,0,0-.2-7.5c-.2-1.7-.3-3.4-.6-5.2-.2-1.1.2-1.5,1.3-1.7,2-.4,4-.6,6-1.1.6-.1,1.1-.4,1.7-.5a49.812,49.812,0,0,1,.9,6.6,29.214,29.214,0,0,1-1.4,12.1c-1.4,3.8-2.5,7.8-4,11.6a.618.618,0,0,0-.2.7c-.7,2.1-1.5,4.3-2.2,6.4-.6,1.6-1.1,3.2-1.7,4.9a2.186,2.186,0,0,1-.3.5c-1.4,2.2-2.3,2.5-4.7,1.8-1.1-.3-2.1-.8-3.2-1.2a2.389,2.389,0,0,1-.3-.7Z" fill="#fcc496"/>
        <path id="Path_42239" data-name="Path 42239" d="M51.9,122.3c-2.2-1.6-3.1-4.1-4-6.5-2.6-6.7-5.2-13.3-7.5-20.1-1.4-4-1.2-8.1-.8-12.1l.3-2.7c.3-.3.1-.9.6-1,2.5.6,5.1.9,7.7,1.4,1,.2,1.3.7,1.1,1.7a59.833,59.833,0,0,0-.7,7.4,32.512,32.512,0,0,0,.9,8.8,81.625,81.625,0,0,0,2.6,9.7,14.107,14.107,0,0,0,2.5,4.5,6.815,6.815,0,0,0,1.2,1.2c.9.7,1.9,1.1,2.5,2.1a3.126,3.126,0,0,0,1.1.9,2.075,2.075,0,0,1,.6,1,1.8,1.8,0,0,1-.3,1.2c-.1.2-.3.3-.5.5a12.384,12.384,0,0,1-4.5,2.1,6.891,6.891,0,0,0-.8.3C53.1,122.6,52.4,123.1,51.9,122.3Z" fill="#fcc496"/>
        <path id="Path_42240" data-name="Path 42240" d="M62.5,46a16.176,16.176,0,0,1-5.3-8,3.508,3.508,0,0,0-.5-.8,7.1,7.1,0,0,0,.1-2.9,2.772,2.772,0,0,1,.3-2q.15-3.15.6-6.3a3.36,3.36,0,0,1,.5-1.4A4.439,4.439,0,0,1,61,23.2a14.21,14.21,0,0,1,4.6.1,10.913,10.913,0,0,0,6.9-.8,4.785,4.785,0,0,1,3.3-.4,2.186,2.186,0,0,1,.5.3c1.2,2.8,2.8,5.5,3.5,8.5a10.075,10.075,0,0,1,.3,2.5c0,1.3.3,2.6-.2,3.8-.6.2-.7-.3-1-.6-1.2-1.8-5.1-1.9-6.4-.2a1.48,1.48,0,0,0,.4,2.1,4.833,4.833,0,0,0,5.4-.1,11.731,11.731,0,0,0,1.1-.5A11.632,11.632,0,0,1,76,44.8c-.3.3-.6.5-.7.9a10.5,10.5,0,0,1-11.7,1.4A2.325,2.325,0,0,1,62.5,46Z" fill="#fcc496"/>
        <path id="Path_42241" data-name="Path 42241" d="M81.2,50.5a104.092,104.092,0,0,1,10.7,5,3.932,3.932,0,0,1,1.9,2.6c1.3,4.8,2.5,9.6,3.8,14.4a2.837,2.837,0,0,1-1.7.7,48.6,48.6,0,0,1-8.4,1.9c-.9-.2-1-.9-1.1-1.6A46.069,46.069,0,0,0,85,67.3c-.5.4-.6,1.1-1,1.4a3.083,3.083,0,0,1-1.9,0c-.5-.3-.3-.8-.3-1.3a19.325,19.325,0,0,0,.2-4.8c-.2-1-.3-1-1.1-.5-1,.6-1.7,1.5-2.9,1.7-.3-.8-.3-.8.2-2-.2.1-.3.6-.6.2-.3-1.5.3-2.9.3-4.4a15.169,15.169,0,0,1,.3-2.1,6,6,0,0,1,2-4.2A3.915,3.915,0,0,1,81.2,50.5Z" fill="#30bec2"/>
        <path id="Path_42242" data-name="Path 42242" d="M53.5,16.9a3.207,3.207,0,0,1-.4-1.8c.5.4,1,.7,1.5,1.1-.1-1.5-.4-2.9.7-4.1.4.2.4.5.4.9.1,2.9,1.7,4.5,4.5,4.9a18.58,18.58,0,0,0,7.7-.5,15.879,15.879,0,0,1-6.5-.1,4.734,4.734,0,0,1-3.1-2c-.2-.4-.5-.8-.2-1.2.4-.4.7.1,1,.2a11.83,11.83,0,0,0,6.7.9c2.5-.2,5-.7,7.5-.2a1.034,1.034,0,0,1,.4.1c-2.2-.7-4.5-.3-6.8-.1a15.015,15.015,0,0,1-5.6-.3,3.842,3.842,0,0,1-2.2-1.3c-.4-.6-.9-1.2-.1-1.9,1.3,2,3.2,1.5,5,1.3a23.745,23.745,0,0,1,8.8.4c1.9.5,3.6,1.3,4.3,3.4.1.5.5.5.9.7a6.52,6.52,0,0,1,3.7,3.2,11.793,11.793,0,0,1-.4,5.9,3.582,3.582,0,0,1-.4,1.1c-.2.4-.4,1-.9,1s-.6-.6-.7-1c-.5-1.7-1.6-3.1-2.1-4.7a8.4,8.4,0,0,1-.5-4.5c-1.3.4-2.4,1-3.5,1.3a38.863,38.863,0,0,1-13.6.7,8.652,8.652,0,0,1-6.1-3.4Z" fill="#7f471e"/>
        <path id="Path_42243" data-name="Path 42243" d="M98,77.2c-.9,1-2.1.9-3.3,1.2a36.533,36.533,0,0,1-4.6.7.924.924,0,0,0-.9,1.2c.4,2.3.4,4.7.8,7a30.543,30.543,0,0,1-.1,7.4,110.31,110.31,0,0,1-2.7,12.7,14.308,14.308,0,0,1-5.7,7.9.486.486,0,0,1-.6-.3c-.1-.8.6-1.1,1.1-1.6a5.7,5.7,0,0,0,2.8-4.6c.7-4.5,1.6-8.9,2.4-13.4.5-2.6.9-5.2,1.4-7.8.6-.7.5.2.8.2-.4-.5,0-1.1-.3-1.7,0-.1-.1-.2-.1-.3,0-.5.1-1-.3-1.4a1.352,1.352,0,0,1,.1,1.7c-.2.3-.5.1-.7-.2a21.145,21.145,0,0,1-.7-8.3,1.273,1.273,0,0,1,1.1-.9c2.7-.7,5.5-1.3,8.3-1.9a.955.955,0,0,1,1,.2,14.976,14.976,0,0,0,.2,2.2Z" fill="#fbb67e"/>
        <path id="Path_42244" data-name="Path 42244" d="M54.5,113.7a11.915,11.915,0,0,1-2.7-4.6A71.694,71.694,0,0,1,49.1,99a36.113,36.113,0,0,1-.5-12.7c.2-1.3.2-2.6.5-4,.1-.7-.4-.8-.9-.9l-5.4-.9a21.717,21.717,0,0,1-2.4-.7.188.188,0,0,1-.3,0c.1-.8.2-1.6.3-2.3.3-.4.7-.2,1.1-.2,2.8.6,5.5,1.1,8.3,1.7a1.738,1.738,0,0,1,1.1.6,1.8,1.8,0,0,1,.2,1,25.723,25.723,0,0,0-.2,4.8,4.671,4.671,0,0,1-.3,1.7,7.724,7.724,0,0,0-.1,5.4c.1.4-.2.9,0,1.3.3,1.8.6,3.6,1,5.4,0,.1-.2.1-.1.3,0-.1.1-.1.2-.1.8,3.6,1.6,7.1,2.4,10.7.1.6.3,1.1.4,1.7.4.3.3.8.8,1a1.38,1.38,0,0,1,.3.4.367.367,0,0,1-.1.3C55,113.8,54.8,113.9,54.5,113.7Z" fill="#fbb67d"/>
        <path id="Path_42245" data-name="Path 42245" d="M53.5,16.9c.7-.2,1,.5,1.3.8,1.6,1.7,3.6,2.2,5.8,2.5a41.8,41.8,0,0,0,11.7-.5,24.814,24.814,0,0,0,5.2-1.8c-1.1,2.3-.2,4.1.5,5.9.6,1.6,1.7,3.1,2.2,5.1a11.838,11.838,0,0,0,1.6-4.8c.2-1.1-.3-2.2.2-3.3a7.227,7.227,0,0,1,.2,6.1,12.561,12.561,0,0,0-1,3.8,3.153,3.153,0,0,1-.5,2.8c-.2.3-.5.6-.7,0a15.659,15.659,0,0,0-1.5-6.1c-.7-1.7-1.5-3.3-2.3-5a1.381,1.381,0,0,1-.3-.4c-.7-1.4-.7-1.4-2.2-1.1a49.864,49.864,0,0,1-12.8.8,15.822,15.822,0,0,1-3.6-.9A2.03,2.03,0,0,1,56,19.7a4.308,4.308,0,0,1-2.5-2.8Z" fill="#703f19"/>
        <path id="Path_42246" data-name="Path 42246" d="M88.3,144.5a21.264,21.264,0,0,1-.7-4.4,38.445,38.445,0,0,1,.7-13.1c0-.2.2-.3.2-.5a7.973,7.973,0,0,0,.3-1.5c.1-.4.1-1.1.9-.9.2,4.1.3,8.2.5,12.3.1,2,.2,3.9.2,5.9C90.5,144.4,90.5,144.4,88.3,144.5Z" fill="#238c8d"/>
        <path id="Path_42247" data-name="Path 42247" d="M62,144.5c2.5-4.8,5-9.6,7.9-14.2.3-.5.7-.9.9-.9-1.1,4.6-2.2,9.3-3.3,13.9a1.825,1.825,0,0,1-1.4,1.4C64.7,144.5,63.4,144.8,62,144.5Z" fill="#238c8c"/>
        <path id="Path_42248" data-name="Path 42248" d="M59.2,11.7c-.3,1.3.6,2.4,2.1,2.8a18.647,18.647,0,0,0,7.8.1c1.9-.3,4.8-.2,6.1,1.2-.7.3-1.1-.2-1.6-.3-2.6-.5-5.1,0-7.6.2-2.6.2-5.3.3-7.6-1.4a2.666,2.666,0,0,0,1.5,2.2,7.3,7.3,0,0,0,3.5.9,18.086,18.086,0,0,0,5.7-.4,1.4,1.4,0,0,1,1.2.2c-3,.7-5.8,1.8-8.9,1.3a9.743,9.743,0,0,1-3.6-1c-1.8-1.1-2.6-2.3-2.3-4.4,0-.3.1-.6-.1-.9a2.66,2.66,0,0,1,1-1.1c.4.4.2.9.5,1.4A3.832,3.832,0,0,1,59,10.8C59.3,11.1,59.2,11.4,59.2,11.7Z" fill="#6f3f19"/>
        <path id="Path_42249" data-name="Path 42249" d="M55.6,60A20.816,20.816,0,0,1,58,51.5a1.157,1.157,0,0,1,.5-.7A13.494,13.494,0,0,1,62,48a.749.749,0,0,1,.5.1,2.073,2.073,0,0,1-1,2.2,3.915,3.915,0,0,0-1,.8A10.092,10.092,0,0,0,59,53.2,16.427,16.427,0,0,0,57.3,61a39.587,39.587,0,0,0,.9,9.1c.1.6.3,1.2-.2,1.7a1.077,1.077,0,0,1-.8.2,1.573,1.573,0,0,1-1-1.1,11.415,11.415,0,0,1-.5-3.7,20.9,20.9,0,0,1,.1-2.5,3.421,3.421,0,0,0,.1-2V61.3a13.4,13.4,0,0,0,.1,2c.1.6,0,.6-.6.7a6.8,6.8,0,0,1,.2-4Z" fill="#505058"/>
        <path id="Path_42250" data-name="Path 42250" d="M55.7,19.7a13.288,13.288,0,0,0,4.7,1.7,35.416,35.416,0,0,1-1.9,3.3c-.8,2.5-.8,5.2-1,7.8-.9-.1-1.2-.6-1-1.9-.4-1.4-.8-2.7-1.2-4a12.512,12.512,0,0,1,.4-6.9Z" fill="#80471e"/>
        <path id="Path_42251" data-name="Path 42251" d="M50.6,79.7c-3.4-.9-6.9-1.5-10.3-2.2-.5-1.1.2-2.1.4-3.1a58.331,58.331,0,0,0,9.2,2.1c.8-.4,1.1.1,1.2.7a3.121,3.121,0,0,1-.5,2.5Z" fill="#21a5a8"/>
        <path id="Path_42252" data-name="Path 42252" d="M62.5,48.2c-.1,0-.3-.1-.4-.1.7-.5.3-1.3.4-2,3.8,3,8.1,2.6,12,.1a1.8,1.8,0,0,1,.9-.4.367.367,0,0,0,.1.3,1.6,1.6,0,0,1,.1,1.5c-3,3.6-9.3,4.2-12.8,1.2Z" fill="#fbb67d"/>
        <path id="Path_42253" data-name="Path 42253" d="M79.6,38a5.344,5.344,0,0,1-7,.7,1.884,1.884,0,0,1,.3-3,6.313,6.313,0,0,1,5.2-.4c1.1.3,1,1.4,1.7,2a.52.52,0,0,1,.4.2A2.651,2.651,0,0,0,79.6,38Z" fill="#fcc496"/>
        <path id="Path_42254" data-name="Path 42254" d="M75.5,47.7V46.1a7.561,7.561,0,0,1,2.3,3,2.729,2.729,0,0,1,.7,1.3c.5,1.6-.1,3.2-.1,4.9-.1,2.3-.6,4.6-.8,6.9,0,.2.1.4.1.6a17.5,17.5,0,0,1-.4,3.2.55.55,0,0,1-.5.3c-.4,0-.8-.2-1.2,0a1.645,1.645,0,0,1-.2-1c.1-2.6.8-5.2,1-7.8a13.4,13.4,0,0,0,.1-2c0-1.1,0-2.1-.1-3.2a5.42,5.42,0,0,0-.8-3.3C75.5,48.5,75.2,48.1,75.5,47.7Z" fill="#515059"/>
        <path id="Path_42255" data-name="Path 42255" d="M97.7,75.1a90.9,90.9,0,0,0-10.3,2.5c-.6-.5-.5-1.3-.7-2-.1-.5.3-.5.6-.7a61.056,61.056,0,0,0,9.4-2.2,1.7,1.7,0,0,1,.7-.1C97.6,73.4,98.4,74.2,97.7,75.1Z" fill="#21a5a8"/>
        <path id="Path_42256" data-name="Path 42256" d="M89.7,124.1c-.6.2-.5.8-.7,1.2a3.08,3.08,0,0,1-.5,1.2c0-.8.1-1.4-1.1-1.8-2.2-.8-4.4-1.7-6-3.7-.1-.1-.3-.2-.4-.4,0-.1.1-.2.1-.3,1.4.4,2.7,1,4.1,1.5A2.334,2.334,0,0,0,88,121c.4-.5.7-1.1,1.4-1.4A22.707,22.707,0,0,1,89.7,124.1Z" fill="#258f90"/>
        <path id="Path_42257" data-name="Path 42257" d="M56.6,30.6c.4.6,0,1.6,1,1.9a2.273,2.273,0,0,0-.3,1.8c.1,1,.7,2.1-.4,3A1.753,1.753,0,0,1,55.7,36a10.481,10.481,0,0,1-.7-3.6C54.9,31.3,55.3,30.6,56.6,30.6Z" fill="#fab47b"/>
        <path id="Path_42258" data-name="Path 42258" d="M54.5,122a18.471,18.471,0,0,0,4.5-2.1c.2.1.4.2.2.4,0,.2,0,.5-.2.6-2,1.3-3.9,2.7-6,3.8-.6.3-1.1.6-1.2-.5v-2c.6.4,1.3-.1,1.9,0,.2,0-.3.4.2.3C54.1,122.4,54.4,122.3,54.5,122Z" fill="#258f90"/>
        <path id="Path_42259" data-name="Path 42259" d="M80.2,37.5c-.2,0-.3,0-.4-.2V33.5c.4.4.5,0,.6-.2.2-.9.4-1.7.6-2.6.2.2.4.3.5.5C82.5,32.8,81.8,36.3,80.2,37.5Z" fill="#fab57c"/>
        <path id="Path_42260" data-name="Path 42260" d="M78.4,55.3c-.1-1.6.2-3.3-.2-4.9.1-.4.5-.6.9-.8a6.667,6.667,0,0,1,2.1.9c-.4.5-.8.9-1.2,1.4A4.774,4.774,0,0,0,78.4,55.3Z" fill="#25a5a6"/>
        <path id="Path_42261" data-name="Path 42261" d="M79.1,49.6a2.361,2.361,0,0,1-.9.8l-.3-1.2C78.3,49.1,78.7,49.4,79.1,49.6Z" fill="#e9c39e"/>
        <path id="Path_42262" data-name="Path 42262" d="M40,79.9h.3c0,.4.2.8-.4.9C39.8,80.5,39.7,80.2,40,79.9Z" fill="#f9cba4"/>
        <path id="Path_42263" data-name="Path 42263" d="M93.3,108.3c-.5-.4,0-.5.2-.7C93.5,107.8,93.6,108.1,93.3,108.3Z" fill="#fdcba3"/>
        <path id="Path_42264" data-name="Path 42264" d="M58.5,50.8a1.157,1.157,0,0,1-.5.7c-.1-.1-.2-.3-.3-.4A6.889,6.889,0,0,0,58.5,50.8Z" fill="#48aaa4"/>
        <path id="Path_42265" data-name="Path 42265" d="M59.2,120.4a.758.758,0,0,1-.2-.4c.1-.1.3-.2.4-.3.4-.3.7-.7,1.3-.4,0-.4-1.7-.1-.4-1,1.2-.3,2.3.2,3.5.1a107.318,107.318,0,0,0,13.8-1.3,2.15,2.15,0,0,1,1.9.2,1.676,1.676,0,0,0,.3,2c-.1.5-.3.5-.7.2-.1,0-.1-.3-.3-.2v.2c-.8.8-1.9.4-2.8.6a18.433,18.433,0,0,1-4.1.3c-2.1-.1-4.2.5-6.2.2a46.59,46.59,0,0,0-6.5-.2Z" fill="#238c8c"/>
        <path id="Path_42266" data-name="Path 42266" d="M78.8,119.4c-.7-.1-.1-.5-.4-.9a1.41,1.41,0,0,1,.7,1H79Z" fill="#1e8f83"/>
        <path id="Path_42267" data-name="Path 42267" d="M81.2,120.6c.1.2.2.3.2.5-.4-.1-1,0-.9-.7C80.8,120.2,81,120.5,81.2,120.6Z" fill="#23958e"/>
        <path id="Path_42268" data-name="Path 42268" d="M81.2,120.6a1.854,1.854,0,0,0-.7-.2.758.758,0,0,0,.2-.4c.2.1.3.3.5.4Z" fill="#479298"/>
        <path id="Path_42269" data-name="Path 42269" d="M79.5,117.3c-2.2.3-4.4.6-6.7.8-3.7.4-7.5.9-11.3.4a9.634,9.634,0,0,0-1.7,0c-.1.1-.2.1-.2,0-.2-.3-.3-.6-.5-.9-.5-.3-.7-.9-1.2-1.3a12.743,12.743,0,0,0-2.7-2.5.367.367,0,0,1-.1-.3c0-.1,0-.1-.1-.2,0-.3-.1-.5-.1-.8-.1-.4.3-.7,0-1.1A139.143,139.143,0,0,1,55.8,97c.3-2.7.4-5.4.5-8.1,0-1.4.2-2.8.2-4.2,0-2.3-.2-4.6-.3-6.9a.975.975,0,0,1,.4-.9c.4-.1.5.2.7.4,1.2,1,2.1,1.1,3.1.1a3.43,3.43,0,0,0,.4-3.1,3.369,3.369,0,0,0-.6-1.2,4.44,4.44,0,0,0-2.2-1c-.1-.1-.2-.1-.2-.2.4-1.1-.2-2.1-.3-3.1a39.98,39.98,0,0,1-.6-7.7,5.506,5.506,0,0,1,2.3,1.4,53.316,53.316,0,0,1,6.2,5.4c1.8,1.8,2.4,1.9,4.5.6a32.012,32.012,0,0,0,4.5-3c.3-.2.6-.8,1.1-.1v.9a7.6,7.6,0,0,0-3.1,5,6.729,6.729,0,0,0-.1,2,8.2,8.2,0,0,1,.2,2.2,41.359,41.359,0,0,0,.6,7c.2,1.1.4,2.2.7,3.3a5.637,5.637,0,0,0,.4,1.2c.1,1,1,1.7.9,2.8a2.33,2.33,0,0,1-2.6.5,6.056,6.056,0,0,1-2.8-1.6c-.4-.3-.1-1-.7-1.1a1,1,0,0,0-.5.4c-.1.3.2.4.4.4s.3.1.5.1a3.508,3.508,0,0,1,.8.5c1.6,1.3,3.3,2,5.3.9,1.2.9,2.7.8,4.1,1.2.2,2.5.4,5.1.6,7.6.3,2.9.5,5.8.8,8.7.2,2.1,1,4.1.8,6.3-.3.5-.9.7-1.1,1.4-.1.7-.7,1.1-1.1,1.7C79.7,117,79.6,117.1,79.5,117.3Z" fill="#42c1c4"/>
        <path id="Path_42270" data-name="Path 42270" d="M50.6,79.7a11.019,11.019,0,0,1,.2-1.8c.2-.7.1-1.4-.9-1.3a47.324,47.324,0,0,1,2-8.7,23.178,23.178,0,0,1,2,9.5,19.113,19.113,0,0,1-1,5.3c-1,3.7-1.8,7.5-2.6,11.3-.3-.4-.2-.9-.3-1.3a18.13,18.13,0,0,1,.1-5.2C50.6,84.9,50.4,82.3,50.6,79.7Z" fill="#22b5b7"/>
        <path id="Path_42271" data-name="Path 42271" d="M56.1,67.2a25.008,25.008,0,0,0,.6,3.8c.1.4.2.8.6.9a.44.44,0,0,1,.1.5c-.3.5-.4,1.1-1.1,1.4-.9.2-.6-.7-.6-.8,0-1.6-.8-3.1-1.1-4.7a39.863,39.863,0,0,1-1-6.8c.1-1.8.1-1.9,1.9-1.4,0,1.3.1,2.7.1,4C56.2,65,55.9,66.1,56.1,67.2Z" fill="#42c0c4"/>
        <path id="Path_42272" data-name="Path 42272" d="M56.3,73.7c.3-.5.4-1.1.9-1.4.5.3.5.7.4,1.2-.6.7-.4,1.7-.8,2.6a.188.188,0,0,1-.3,0,9.737,9.737,0,0,1-.2-2.4Z" fill="#6a7e80"/>
        <path id="Path_42273" data-name="Path 42273" d="M54.9,113.1c-.7-.1-.7-.7-.7-1.2.3.1.2-1.2.7-.2A1.063,1.063,0,0,1,54.9,113.1Z" fill="#3dbdb9"/>
        <path id="Path_42274" data-name="Path 42274" d="M54.9,113.1v-1.5h.2c.3.3,0,.7.2.9a.844.844,0,0,1-.2.7.349.349,0,0,0-.2-.1Z" fill="#3dc0ce"/>
        <path id="Path_42275" data-name="Path 42275" d="M56.6,76.1h.3a.856.856,0,0,1,.7.9q-.15.3-.3.3l-.5-.5a1.854,1.854,0,0,0-.2-.7Z" fill="#6a7f83"/>
        <path id="Path_42276" data-name="Path 42276" d="M51.4,99.5a5.735,5.735,0,0,1-.4.7c-.2-.5-.2-.8.3-.9C51.4,99.4,51.4,99.4,51.4,99.5Z" fill="#fab385"/>
        <path id="Path_42277" data-name="Path 42277" d="M55.4,112.5c-.4-.2-.2-.6-.2-.9v-.2C55.6,111.7,55.4,112.1,55.4,112.5Z" fill="#47c0ba"/>
        <path id="Path_42278" data-name="Path 42278" d="M79.8,116.8a3.858,3.858,0,0,1,1.1-1.7l.6.3a7.456,7.456,0,0,1-1.7,1.4Z" fill="#f1b984"/>
        <path id="Path_42279" data-name="Path 42279" d="M55.4,113.5a7.8,7.8,0,0,1,2.8,2.6.445.445,0,0,1-.2.6c-.6-1-1.7-1.3-2.4-2.1C55.3,114.4,54.7,114.1,55.4,113.5Z" fill="#f4b77e"/>
        <path id="Path_42280" data-name="Path 42280" d="M59.7,118.5h.2c0,.6,1.2-.1.9.7-.1.2-.7.2-1.1.3-.1,0-.2.1-.3.1C59.5,119.3,59.8,118.9,59.7,118.5Z" fill="#2b8f89"/>
        <path id="Path_42281" data-name="Path 42281" d="M58,116.8c.1-.2.1-.4.2-.6a2.434,2.434,0,0,1,1,1.4C58.5,117.9,58.5,117,58,116.8Z" fill="#f4bc87"/>
        <path id="Path_42282" data-name="Path 42282" d="M54.5,122c0,.2.6.3.1.4a3.328,3.328,0,0,0-1,.6c-.3-.4,0-.6.2-.9C54,122.1,54.2,122,54.5,122Z" fill="#2e8f88"/>
        <path id="Path_42283" data-name="Path 42283" d="M55.4,113.5c-.4.5.1.8.2,1.1-.6,0-.8-.7-1.2-1,.3-.1.5-.2.8-.3C55.3,113.5,55.4,113.5,55.4,113.5Z" fill="#f7b783"/>
        <path id="Path_42284" data-name="Path 42284" d="M58.5,24.7a7.343,7.343,0,0,1,1.9-3.3,63.694,63.694,0,0,0,13.1-.9c2.2-.4,2.2-.4,2.5,1.9-1.7-.3-3.2.5-4.8,1a12.175,12.175,0,0,1-5.4.4C63.4,23.4,60.8,22.9,58.5,24.7Z" fill="#fbbe8c"/>
        <path id="Path_42285" data-name="Path 42285" d="M62,39.6c-.8-.2-2.1-.1-3-1-1.4-1.4-.9-2.7.6-3.3a5.632,5.632,0,0,1,5.2.2,1.823,1.823,0,0,1,.1,3.3,4.348,4.348,0,0,1-2.9.8Z" fill="#fcc496"/>
        <path id="Path_42286" data-name="Path 42286" d="M87.4,74.9c-.6.4-.3.9-.2,1.4a7.006,7.006,0,0,0,.3,1.4c.1,1.9.3,3.8.4,5.6a15.945,15.945,0,0,0,.6,3,1.286,1.286,0,0,1,.4,1.2c0,2.3-.7,4.5-1,6.7-.1.4,0,1-.3,1.4-.7,0-.7-.5-.8-1-1-5.2-2.4-10.2-3.6-15.3a1.8,1.8,0,0,1,.2-1.6,2.779,2.779,0,0,0,.8-2.6c0-1.2,0-2.4-.1-3.6-.1-.9-.4-1.5-1.3-1.6-.4-.6.1-.6.4-.7.4-.1.9-.1,1.1-.7a1.689,1.689,0,0,1,.3-1c.2-.3-.1-1,.6-.8.4.1.4.6.5,1,.4,2.1,1.2,4.1,1.3,6.2a.586.586,0,0,0,.4,1Z" fill="#21b5b7"/>
        <path id="Path_42287" data-name="Path 42287" d="M77.3,65.9a13.817,13.817,0,0,1,.3-3.5c.6.6,0,1.4.3,1.9.1-.1-.1-.4.1-.6,1.1-.8,2.2-1.6,3.3-2.3.6-.4.8-.2,1,.6.5,2.2-.1,4.3-.3,6.5-.4.4-1,.3-1.5.3a1.794,1.794,0,0,1-.7-.5,4.863,4.863,0,0,0-1.1-1.4C78.3,66.4,77.5,66.6,77.3,65.9Z" fill="#42c1c4"/>
        <path id="Path_42288" data-name="Path 42288" d="M80.2,68.5H84c.4.6.3.9-.4,1-.4,0-.9-.1-1.2.2a2.038,2.038,0,0,1-2,.2c-.3-.2-.3-.4-.4-.7A1.445,1.445,0,0,1,80.2,68.5Z" fill="#21a6a9"/>
        <path id="Path_42289" data-name="Path 42289" d="M77.9,63.8A4.868,4.868,0,0,0,78,65c-.5-.8-.1-1.7-.4-2.6,0-.1.1-.2.1-.3.1-.2.3-.3.4-.5C78.3,62.4,77.8,63.1,77.9,63.8Z" fill="#35bcc7"/>
        <path id="Path_42290" data-name="Path 42290" d="M84.3,75.1c.1,1,.3,2.1-.9,2.8-.3.2-.3.6-.2,1,1,4.1,2.1,8.3,3.1,12.4.3,1,.4,2.1.6,3.1.1.4.1.9.5,1.1-.4,3.5-1.2,6.9-1.8,10.4-.2,1-.5,2.1-.6,3.1a5.29,5.29,0,0,1-3.1,4.7c-.6-.4-.3-1.1-.4-1.7a48.347,48.347,0,0,1-1.1-8.4c-.2-3-.6-6-.9-9-.1-1.2,0-2.4,0-3.7.8-1,2-1.5,2.9-2.3.2-.1.5-.2.7-.3.2-.4,0-.5-.3-.6s-.4.2-.5.4c-.7,1.1-1.5,2-2.9,2-.5-1.4-.2-2.9-.2-4.4,0-1.6.1-3.1.2-4.7a15.31,15.31,0,0,1,.7-4.7C81.5,75.8,82.9,75.5,84.3,75.1Z" fill="#30bec2"/>
        <path id="Path_42291" data-name="Path 42291" d="M88.7,87.5a5.639,5.639,0,0,1-.4-1.2c.7-.3.5-.9.2-1.4a1.163,1.163,0,0,1-.2-1,2.051,2.051,0,0,1,.7,2.2c.2.3,0,.7.1,1.1a2.161,2.161,0,0,1,.1-1.1c.6.7-.1,1.6.2,2.4C89.1,88.1,89.2,87.6,88.7,87.5Z" fill="#f8b779"/>
        <path id="Path_42292" data-name="Path 42292" d="M88.5,93c.2-.5.5-1,.2-1.5C89,92,89.3,92.6,88.5,93Z" fill="#f8b778"/>
        <path id="Path_42293" data-name="Path 42293" d="M89.3,86v.9h-.2V86Z" fill="#fab285"/>
        <path id="Path_42294" data-name="Path 42294" d="M75.8,65.2c-.8-.1-1.3.6-1.7,1a30.116,30.116,0,0,1-4.2,2.7c-2.2,1.3-2.9.6-4.6-1-1.2-1.1-2.3-2.3-3.6-3.3-1.5-1.2-3.1-2.4-4.6-3.6A15.766,15.766,0,0,1,59,53c.9-.3,1.2.5,1.6.9,2.3,2.7,4.6,5.4,6.8,8.1.8,1,.9,1,1.8.1,2-2.1,4.4-4,6.4-6.1.3-.4.6-1,1.3-.6,0,2.8-.7,5.6-1,8.4C75.9,64.2,75.8,64.7,75.8,65.2Z" fill="#30bec2"/>
        <path id="Path_42295" data-name="Path 42295" d="M75.5,47.7c.3,1.1,1.1,1.9,1.3,3a1.287,1.287,0,0,1-.1,1.2c-.1.6-.7.9-1.1,1.4-.5.5-1.1,1.1-1.5,1.6-1.9,1.2-3.3,3.1-5.1,4.6-.7.6-1.2.7-1.8-.1a23.392,23.392,0,0,0-2.5-3,2.651,2.651,0,0,1-.5-.6c-.9-1.4-2.1-2.6-3.1-3.9-.2-.3-.6-.5-.6-.9.1-.4.5-.5.7-.7a2.264,2.264,0,0,0,1.3-2.1c1.9,1.2,3.8,2.5,6.2,2.4a11.7,11.7,0,0,0,6.2-2.5,2.092,2.092,0,0,1,.6-.4Z" fill="#fcc496"/>
        <path id="Path_42296" data-name="Path 42296" d="M60.4,51a30.1,30.1,0,0,1,4,4.7.781.781,0,0,1-.4.4c.3-.1.5.2.8.1a20.787,20.787,0,0,1,2.7,3.2c.5.5.7.6,1.2.1,1.3-1.3,2.6-2.6,4-3.8a2.379,2.379,0,0,1,1.3-.9c.3-.1.9.1.8-.7,0-.3.5-.6.7-.9L76.7,52c.6,1.1.2,2.2.2,3.4-.5,0-.8.5-1.1.8-2.2,2.1-4.4,4.2-6.6,6.4-.7.7-1.1.9-1.8-.1-2.2-2.9-4.6-5.6-7-8.4-.4-.4-.7-1-1.4-1.1a4.261,4.261,0,0,1,1.4-2Z" fill="#20a5a8"/>
        <path id="Path_42297" data-name="Path 42297" d="M57.5,73.5l-.3-1.2v-.4c.2,0,.5-.1.7-.1.1,0,.1.1.2.1.3.2.3.5.4.8a10.039,10.039,0,0,0,.4,2.4.972.972,0,0,1-.1.9c-.2.4-.5.7-.9.5a.875.875,0,0,1-.6-.9A3.623,3.623,0,0,1,57.5,73.5Z" fill="#c6dbdc"/>
        <path id="Path_42298" data-name="Path 42298" d="M56.1,67.2a16.476,16.476,0,0,1-.4-3.2c.4-1.1,0-2.3.4-3.5v2.3a3.083,3.083,0,0,1,0,1.9A20.833,20.833,0,0,1,56.1,67.2Z" fill="#4c5456"/>
        <path id="Path_42299" data-name="Path 42299" d="M56.1,64.7V62.8a1.652,1.652,0,0,1,0,1.9Z" fill="#544b5f"/>
        <path id="Path_42300" data-name="Path 42300" d="M56.8,59.3v1.4h-.1V59.3Z" fill="#51504f"/>
        <path id="Path_42301" data-name="Path 42301" d="M77.3,65.9c.5.3,1.2.3,1.6.8a1.147,1.147,0,0,1-.5,1.2h-.1c-2.5-.8-3.2-.4-4.1,2.1,0,.2-.1.3-.1.5a7.789,7.789,0,0,0-.4,2.1.918.918,0,0,1-.4.6.765.765,0,0,1-.9-.2c-.3-2.9,1.2-6,3.5-6.8C76.1,65.3,76.8,66.2,77.3,65.9Z" fill="#4a4a51"/>
        <path id="Path_42302" data-name="Path 42302" d="M85.2,122.7c-.3-.1-.6.4-1,.1.4-.3.8-.6,1.3-.1a.187.187,0,0,1-.3,0Z" fill="#278d97"/>
        <path id="Path_42303" data-name="Path 42303" d="M85.2,122.7h.2c.2.1.4-.2.6,0a1.007,1.007,0,0,0-.1.3C85.6,123.3,85.4,123,85.2,122.7Z" fill="#1f918a"/>
        <path id="Path_42304" data-name="Path 42304" d="M82.6,88.9a9.73,9.73,0,0,1-3.1,2.2c-1.5.6-2.8-.1-4-1-.4,0-.4-.2-.3-.5A14.451,14.451,0,0,1,74.1,87c.2-.5-.1-.8-.3-1.2a12.978,12.978,0,0,1-.7-3.3c.1-.4-.3-1.1.5-1.2a4.779,4.779,0,0,1,.6,1.8A15.481,15.481,0,0,0,76,88.6a2.836,2.836,0,0,0,.8,1.1,3.391,3.391,0,0,0,3.1.4c1-.6,2.2-1.1,2.4-2.5a.382.382,0,0,1,.5-.3,1.651,1.651,0,0,1,1,1c.1.3-.1.4-.4.4C83,88.5,82.9,88.7,82.6,88.9Z" fill="#c7dfe0"/>
        <path id="Path_42305" data-name="Path 42305" d="M58.3,72.7a2.769,2.769,0,0,0-.1-.9,2.488,2.488,0,0,1,2.4.9c0,.6.6,1,.6,1.6a4.739,4.739,0,0,1-.4,3.1,2.159,2.159,0,0,1-3.5-.2l.3-.3a1.7,1.7,0,0,1,.7-.1A1.537,1.537,0,0,0,60,75.6a1.864,1.864,0,0,0-.6-2,1.622,1.622,0,0,1-1.1-.9Z" fill="#687b7b"/>
        <path id="Path_42306" data-name="Path 42306" d="M73.6,81.3c-.1.4-.3.8-.4,1.2a31.826,31.826,0,0,1-.7-6.2,12.223,12.223,0,0,0-.2-3.3h.8c.7.9.2,2,.4,2.9v.4c0,1.3.3,2.6.3,3.8C73.8,80.6,74,81,73.6,81.3Z" fill="#c6dedf"/>
        <path id="Path_42307" data-name="Path 42307" d="M75.3,89.6a.55.55,0,0,0,.3.5c-1.3,1.1-2.7.8-4,.1a17.033,17.033,0,0,1-2.2-1.5.55.55,0,0,1,.5-.3,11.781,11.781,0,0,0,1.9,1.1,3.382,3.382,0,0,0,3.5.1Z" fill="#bcd4d6"/>
        <path id="Path_42308" data-name="Path 42308" d="M60.8,77.5a18.412,18.412,0,0,0,.3-3.3c-.1-.2,0-.2.2-.2a3.691,3.691,0,0,1-.5,3.5Z" fill="#596f71"/>
        <path id="Path_42309" data-name="Path 42309" d="M69.9,88.4a.55.55,0,0,1-.5.3h-.5c-.1-.2,0-.4-.1-.6-.1-.4.6-.4.3-.8C69.8,87.2,69.8,87.2,69.9,88.4Z" fill="#d0e1e6"/>
        <path id="Path_42310" data-name="Path 42310" d="M61.3,74l-.2.2c-.2-.3-.5-.7-.7-1s0-.4.2-.4a3.458,3.458,0,0,1,.7,1.2Z" fill="#597574"/>
        <path id="Path_42311" data-name="Path 42311" d="M69.1,87.2c.3.4-.3.6-.2,1-.3.1-.4,0-.5-.2C68.4,87.5,68.8,87.4,69.1,87.2Z" fill="#c2e0e1"/>
        <path id="Path_42312" data-name="Path 42312" d="M68.4,87.9c.2.1.3.2.5.2.3.1,0,.3,0,.4C68.4,88.6,68.1,88.5,68.4,87.9Z" fill="#dae6ec"/>
        <path id="Path_42313" data-name="Path 42313" d="M73.8,85.8c.3.3.7.6.3,1.2a5.274,5.274,0,0,0-.3-1.2Z" fill="#cbdbe7"/>
        <path id="Path_42314" data-name="Path 42314" d="M58.3,72.7a2.044,2.044,0,0,0,.9.5,2.128,2.128,0,0,1,1,2.8c-.5,1.1-1.3,1.4-2.6.9-.2-.3-.5-.6-.7-.9-.1-.9-.3-1.9.6-2.6.4.6-.2,1.3,0,1.9.2.7.4,1.3,1.2.4a.75.75,0,0,0,0-.9C58,74.3,58.7,73.4,58.3,72.7Z" fill="#adc0c0"/>
        <path id="Path_42315" data-name="Path 42315" d="M56.2,114.9a.52.52,0,0,1-.2-.4c0-.1.1-.2.2-.1a1.38,1.38,0,0,1,.3.4A.367.367,0,0,0,56.2,114.9Z" fill="#f7b783"/>
        <path id="Path_42316" data-name="Path 42316" d="M84.3,75.1a6.979,6.979,0,0,1-4,1.2c-.7-.9-.2-1.8-.1-2.8a.756.756,0,0,1,.1-.4c0-.1.1-.2.1-.3a4.1,4.1,0,0,0,0-2.2c0-.3-.3-.7,0-1h2.1c1.7,0,1.8,0,1.9,2.1C84.3,72.9,84.3,74,84.3,75.1Z" fill="#41c1c4"/>
        <path id="Path_42317" data-name="Path 42317" d="M80.3,69.7c.1.3.1.6.2.9a6.456,6.456,0,0,1,0,2.4h0c-1.3.5-1.1-.7-1.4-1.3a9,9,0,0,0-.3-1.6c-.1-.7-.6-1.4-.5-2.2.2-.4.3-.8.5-1.2a2.56,2.56,0,0,1,1,1.3c.1.3.1.8.4,1A1.7,1.7,0,0,1,80.3,69.7Z" fill="#494c50"/>
        <path id="Path_42318" data-name="Path 42318" d="M80.2,69c-.9,0-.2-.7-.4-1,.1.2.3.4.4.6Z" fill="#4a4e55"/>
        <path id="Path_42319" data-name="Path 42319" d="M80.5,73.2c0,1-.3,2.1-.2,3.1-.1,1.6-.5,3.1-.5,4.7-.4,2-.5,4.1-1.4,5.9a8.8,8.8,0,0,1-1.8,2.9c-.2-.3-.5-.6-.7-.9,2.2-3.3,2.8-7,3.2-10.8.1-.7.2-1.4-.6-1.9a6.621,6.621,0,0,1-.1-2.8,11.187,11.187,0,0,0-.5-3.6c-.1-.5-.5-.8-.7-1.2v-.4c0-.1.1-.2.2-.3,1,.3,1.3,1.1,1.6,2a14.76,14.76,0,0,1,.5,4.7,3.255,3.255,0,0,1,.4-1.4Q80.05,73.05,80.5,73.2Z" fill="#bcd4d5"/>
        <path id="Path_42320" data-name="Path 42320" d="M76.5,89.8a32.389,32.389,0,0,1,1.7-3.2c.8-1.8.9-3.8,1.6-5.6-.1,2.8-.2,5.7-.3,8.5,0,.3-.1.5.3.5a2.565,2.565,0,0,1-3.3-.2Z" fill="#43c1c4"/>
        <path id="Path_42321" data-name="Path 42321" d="M82.6,88.9c.2-.2,0-.6.3-.6.1,0,.3.2.4.4C83.1,88.7,82.9,88.9,82.6,88.9Z" fill="#d8e4ed"/>
        <path id="Path_42322" data-name="Path 42322" d="M75.5,53.1c-.1.2-.1.4-.2.5-.4.7-.4.7.4,1.2a1.347,1.347,0,0,1-1.6-.1C74.3,54,75,53.6,75.5,53.1Z" fill="#23a7a3"/>
        <path id="Path_42323" data-name="Path 42323" d="M64.9,56.2c-.4.2-1,.1-1.3.8a1.167,1.167,0,0,1,.9-1.3A1,1,0,0,0,64.9,56.2Z" fill="#23a2ad"/>
        <path id="Path_42324" data-name="Path 42324" d="M69.8,57.7c-.1.1-.1.2-.2.3-.2.1-.3-.1-.3-.2a.215.215,0,0,1,.2-.2C69.5,57.5,69.6,57.6,69.8,57.7Z" fill="#fbc1a0"/>
        <path id="Path_42325" data-name="Path 42325" d="M70.2,59.6c-.2,1-.2,1-1.3,1C69.5,60.4,69.8,59.9,70.2,59.6Z" fill="#1ca9a5"/>
        <path id="Path_42326" data-name="Path 42326" d="M58.7,74.9c.5.3.3.6,0,.9Z" fill="#9bb0b0"/>
        <path id="Path_42327" data-name="Path 42327" d="M78.7,69.9a2.979,2.979,0,0,0-1.5-1.8c-.3.3-.8.2-1.2.3a1.644,1.644,0,0,0-1.2.8c-.2.3-.4.8-.9.8a3.248,3.248,0,0,1,1.2-2.2c.9-.9,2-.8,3.3.1a8.64,8.64,0,0,1,.7,2.1C78.9,70.1,78.8,70.1,78.7,69.9Z" fill="#47bbbe"/>
        <path id="Path_42328" data-name="Path 42328" d="M74,69.9c.7-.5.8-1.7,1.8-1.9.1.1.3.1.3.3,0,.1-.1.2-.1.3a2.639,2.639,0,0,0-1.2,2.1,23.212,23.212,0,0,0-.3,4.6c0,.7-.1,1.5-1.2,1.1V76c.4-1.1,0-2.4.3-3.5,0-.7.3-1.4.3-2.2A.756.756,0,0,1,74,69.9Z" fill="#b1d1d3"/>
        <path id="Path_42329" data-name="Path 42329" d="M73.6,72.5v2.7c0,.3.1.7-.4.8,0-1-.1-2-.1-3,.1-.2.2-.3.3-.5C73.5,72.4,73.6,72.4,73.6,72.5Z" fill="#45c1c5"/>
        <path id="Path_42330" data-name="Path 42330" d="M73.6,72.5h-.2a4.128,4.128,0,0,1,.4-2.2,5.339,5.339,0,0,1-.2,2.2Z" fill="#31bec2"/>
        <path id="Path_42331" data-name="Path 42331" d="M73.2,76.4c.8.1.9-.4.9-1.1,0-1.6-.3-3.3.4-4.9a13.12,13.12,0,0,1,.5,4.8,2.566,2.566,0,0,0,1.4,2.5,2.407,2.407,0,0,0,2.8.2,25.813,25.813,0,0,1-2.5,9.8,1.818,1.818,0,0,1-1,1.1c-1.4-2.3-1.8-5-2.2-7.6C73.5,79.7,73.3,78,73.2,76.4Z" fill="#42c1c4"/>
        <path id="Path_42332" data-name="Path 42332" d="M80.5,73.2h-.7c-.3.2-.5.1-.5-.3,0-.5-.2-.9.1-1.4.3.5,0,1.6,1.2,1.4A.774.774,0,0,0,80.5,73.2Z" fill="#4a4e55"/>
        <path id="Path_42333" data-name="Path 42333" d="M80.5,73V70.6A3.313,3.313,0,0,1,80.5,73Z" fill="#4a4e55"/>
        <path id="Path_42334" data-name="Path 42334" d="M79.4,71.6c.1.6-.4,1.3.4,1.6-.1.8-.2,1.7-.3,2.5h-.4c-.1-1.9.2-3.9-.5-5.8H79C79.4,70.4,79.3,71,79.4,71.6Z" fill="#52c2c5"/>
        <path id="Path_42335" data-name="Path 42335" d="M79.8,71.1V69.9C80.3,70.2,80.1,70.6,79.8,71.1Z" fill="#4a4e55"/>
        <path id="Path_42336" data-name="Path 42336" d="M79.3,78c-.3,1.2-1.2.9-1.9.6a3.319,3.319,0,0,1-2.5-3.7c.1-1.5-.4-3-.3-4.5a.844.844,0,0,1,.2-.7,1.481,1.481,0,0,1,1.3-.2c.4,1.3.4,2.7.8,4.1a4.514,4.514,0,0,0,1.8,2.7C80.4,76.3,79,77.5,79.3,78Z" fill="#31bec2"/>
        <path id="Path_42337" data-name="Path 42337" d="M78.7,76.3a1.736,1.736,0,0,1-1.5-1.1c-.8-1.5-.7-3.2-1.3-4.8-.2-.4.5-.3.4-.7.5-.5,1.1-.3,1.7-.3a9.489,9.489,0,0,1,.7,4.7,8.1,8.1,0,0,0,0,2.2Z" fill="#42c1c4"/>
        <path id="Path_42338" data-name="Path 42338" d="M77.9,69.4c-.5.5-1.1.2-1.7.3H74.8A1.8,1.8,0,0,1,76,68.5a.912.912,0,0,1,1.2,0C77.5,68.8,77.9,69,77.9,69.4Z" fill="#32a9ac"/>
        <path id="Path_42339" data-name="Path 42339" d="M76,68.3l-.2-.2h1.4v.2A1.275,1.275,0,0,1,76,68.3Z" fill="#c5d2db"/>
        <path id="Path_42340" data-name="Path 42340" d="M76,68.3h1.2v.2H76Z" fill="#97c7ca"/>
      </g>
    </g>
  </g>
</svg>
