<svg xmlns="http://www.w3.org/2000/svg" xmlns:xlink="http://www.w3.org/1999/xlink" width="117.2" height="117.199" viewBox="0 0 117.2 117.199">
  <defs>
    <linearGradient id="linear-gradient" y1="0.5" x2="1" y2="0.5" gradientUnits="objectBoundingBox">
      <stop offset="0" stop-color="#ebebeb"/>
      <stop offset="1" stop-color="#fff"/>
    </linearGradient>
    <clipPath id="clip-path">
      <circle id="Ellipse_1682" data-name="Ellipse 1682" cx="58.6" cy="58.6" r="58.6" transform="translate(8.2 8.8)"/>
    </clipPath>
  </defs>
  <g id="laparoscopic_surgeon" transform="translate(-8.2 -8.801)">
    <circle id="Ellipse_1677" data-name="Ellipse 1677" cx="58.6" cy="58.6" r="58.6" transform="translate(8.2 8.8)" fill="url(#linear-gradient)"/>
    <g id="Group_6831" data-name="Group 6831">
      <g id="Group_6830" data-name="Group 6830" clip-path="url(#clip-path)">
        <path id="Path_45261" data-name="Path 45261" d="M119.5,81.7,48,63.1,34.4,78.3l4.9,3.9,50,16.1,8.6,1.3,6.7-.7,8.7-6.3Z" fill="#daeaf3"/>
        <path id="Path_45262" data-name="Path 45262" d="M47,55.4s-4.9,4.4-8.2,4.4l-1.2.3.7,12.1.6-1.1,8.6,11.6s3.3-3.9,3.5-5.6,2.3-10.2,2.3-10.2l.4-.9C53.8,66.1,54.1,62.2,47,55.4Z" fill="#6dcde7"/>
        <path id="Path_45263" data-name="Path 45263" d="M104.6,77.6s.6-16.1-2.2-19.5L80.2,73.9l-.1,22.6Z" fill="#6dcde7"/>
        <path id="Path_45264" data-name="Path 45264" d="M57.3,33.8s-.8-7.5,5-9.1,9.3,5.9,9.3,5.9l.7,2s3.9,2.1-.7,4.9c0,0,1.7,1.7,3.9-1.1s-.9-11.3-.9-11.3-3.8-7.7-11.8-5.7-7.5,11.7-7.5,11.7l1.1,2.7Z" fill="#6fc196"/>
        <path id="Path_45265" data-name="Path 45265" d="M72,30.8s-6.9,4.5-14.8,2c0,0-1.6,7.7,5.6,8.9a12.4,12.4,0,0,0,7.8-2.8C74.2,35.9,72,30.8,72,30.8Z" fill="#c5e4f3"/>
        <path id="Path_45266" data-name="Path 45266" d="M69.6,42.6a2.015,2.015,0,0,1-.3-2.6,14.979,14.979,0,0,1-6.4,1.8,1.455,1.455,0,0,1-.8,1.5C62.1,43.2,66.1,44.6,69.6,42.6Z" fill="#ebd3c1"/>
        <path id="Path_45267" data-name="Path 45267" d="M55,60.6s-6.2-5.1.4-14.4c0,0,1.9-2.8,6.6-3.1,0,0,4.3,1.3,7.5-.6l.7-.2s9.1,1.3,9.4,7.1.1,5.9.1,5.9a4.4,4.4,0,0,1-1.8,2.6s.5,7-1.1,12.3l-20-4.5a6.668,6.668,0,0,1,.4-3.7Z" fill="#62bada"/>
        <ellipse id="Ellipse_1678" data-name="Ellipse 1678" cx="2.5" cy="2" rx="2.5" ry="2" transform="translate(54.347 61.34) rotate(-54.276)" fill="#fcfdfc"/>
        <ellipse id="Ellipse_1679" data-name="Ellipse 1679" cx="2.5" cy="2" rx="2.5" ry="2" transform="translate(67.672 57.627) rotate(-7.182)" fill="#fcfdfc"/>
        <path id="Path_45268" data-name="Path 45268" d="M31.3,73.9,34.2,81s1,.1.8-1.2-3.3-6-3.3-6Z" fill="#676767"/>
        <path id="Path_45269" data-name="Path 45269" d="M32.3,89.6l-2.5,2.6s-2.9-3.5.2-6.2C30.1,85.9,30.2,88.8,32.3,89.6Z" fill="#676767"/>
        <path id="Path_45270" data-name="Path 45270" d="M44.5,78.5l-5.4-2.1-.2-5.2Z" fill="#f3d1b9"/>
        <ellipse id="Ellipse_1680" data-name="Ellipse 1680" cx="8.2" cy="7.7" rx="8.2" ry="7.7" transform="translate(88.6 74.6)" fill="#f5d8c0"/>
        <path id="Path_45271" data-name="Path 45271" d="M91.3,73.4s-5.8-2.4-6.7,12a70.48,70.48,0,0,0,.1,24.8l-2.1.4s-.7-15.5-.2-20.9c.6-5.4.9-10,2.9-14.5s5.7-3,5.7-3Z" fill="#979897"/>
        <path id="Path_45272" data-name="Path 45272" d="M95.1,75.9l1.7-.9.2.8-2.4,1.5s-.3,1.9-1.1.7l-1.6.5-.1-.9,2.4-1.1L93.5,74l-2.2-.5-.2-1.2s2.7-.9,3.5,1.2C95.4,75.4,95.1,75.9,95.1,75.9Z" fill="#fff"/>
        <path id="Path_45273" data-name="Path 45273" d="M104.8,79.8s-.1,8.6-7.1,8.6-8.1-2.8-8.1-2.8a3.76,3.76,0,0,0,1.3,5.2c3.2,2,8.8,3.2,11.6,2.5a10.289,10.289,0,0,0,4.1-2.2S111.4,84.2,104.8,79.8Z" fill="#5db084"/>
        <ellipse id="Ellipse_1681" data-name="Ellipse 1681" cx="3" cy="2.3" rx="3" ry="2.3" transform="translate(68.2 32.7)" fill="#f6d7c0"/>
        <path id="Path_45274" data-name="Path 45274" d="M72,30.8s-2.9-6.7-9.7-6.1c0,0-5.3,0-5.1,8.1A17.567,17.567,0,0,0,72,30.8Z" fill="#f6d7c0"/>
        <path id="Path_45275" data-name="Path 45275" d="M70.8,60.5c0,1-1.2,1.7-2.5,1.7-.3,0-.6-.1-.9-.1a1.985,1.985,0,0,1-1.5-1.7c0-1,1.2-1.7,2.5-1.7S70.9,59.5,70.8,60.5Z" fill="#6d7379"/>
        <path id="Path_45276" data-name="Path 45276" d="M59.7,61.2c.4.6.1,1.6-.8,2.3l-.6.3a1.5,1.5,0,0,1-1.8-.4c-.4-.6-.1-1.6.8-2.3C58.2,60.6,59.3,60.6,59.7,61.2Z" fill="#6d7379"/>
        <path id="Path_45277" data-name="Path 45277" d="M73.5,59.2s1,.7,4.5-1.3" fill="none" stroke="#000" stroke-miterlimit="10" stroke-width="0.25"/>
        <path id="Path_45278" data-name="Path 45278" d="M70.8,57.5s3-3.6,2.1-6.6" fill="none" stroke="#000" stroke-miterlimit="10" stroke-width="0.25"/>
        <path id="Path_45279" data-name="Path 45279" d="M68.9,54.1s-1.6,2.3-6,4" fill="none" stroke="#000" stroke-miterlimit="10" stroke-width="0.25"/>
        <path id="Path_45280" data-name="Path 45280" d="M67.1,56.9a35.221,35.221,0,0,1-4.6,3.5" fill="none" stroke="#000" stroke-miterlimit="10" stroke-width="0.25"/>
        <path id="Path_45281" data-name="Path 45281" d="M58.6,58s-.2-2-1.1-2.5" fill="none" stroke="#000" stroke-miterlimit="10" stroke-width="0.25"/>
        <path id="Path_45282" data-name="Path 45282" d="M80.1,75.8,80,86.4s-17.5.3-26.1-2.7c0,0-2.5.4-3.7-.4s-.8-2.8-.8-2.8l4-7.1Z" fill="#77b7e1"/>
        <path id="Path_45283" data-name="Path 45283" d="M57.4,66.5s-4.8-2.4-6.1,2.5a9.484,9.484,0,0,0-.6,3.1s.1.4-.7,1.8.6,2.9.6,2.9S71.7,82,76.5,81.5c0,0,.8-2.2,2.1-2.5s1.3-2.7,1.3-2.7a4.361,4.361,0,0,1,.9-2.5,4.094,4.094,0,0,0,1.1-1.6l-1.7-.9-6.9-1.9Z" fill="#d9eef8"/>
        <path id="Path_45284" data-name="Path 45284" d="M80,86.4S76.1,83.3,68.8,84a75.907,75.907,0,0,1-10.9-2.2s-3.1-1.1-4.3,0c0,0-.7.5.6.7,0,0,.3.4-.3.5H52.7a.459.459,0,0,0-.1.8h1.3s.3.5-.4.7c-.8.1-.5,1,.5.9s1.2.4,1.3.5a3.369,3.369,0,0,0,2.3-.1,2.958,2.958,0,0,1,2.7.7,29.122,29.122,0,0,0,13.4,3.4c7.6,0,7.3-.4,7.3-.4Z" fill="#f3d1b9"/>
        <path id="Path_45285" data-name="Path 45285" d="M57.9,65.7s-1.9,3.8-.4,5.1c1.6,1.3,4.1,4.2,12.6,2.9,0,0,3.7-.7,3.2-4.2Z" fill="#f3d1b9"/>
        <path id="Path_45286" data-name="Path 45286" d="M64.7,71.2l.8.2,2.8-9.2-.5-1.1-.3.9Z" fill="#6d7379"/>
        <path id="Path_45287" data-name="Path 45287" d="M63,70.6l-.6.5-4.1-7.7.8-.9.3.7Z" fill="#6d7379"/>
        <path id="Path_45288" data-name="Path 45288" d="M119.5,81.7S107.7,100,99.2,98.3c0,0-23.3-3.5-64.7-20l.1,4.1s35.1,14.1,60.8,19.1c0,0,7.9,2.3,13.2-2.6C108.4,98.8,125.6,85.4,119.5,81.7Z" fill="#b4def3"/>
        <path id="Path_45289" data-name="Path 45289" d="M23.6,110.8h8.1s.9.7,3.1-1.2,7.3-7.3,7.3-7.3L40.4,88.5a2.94,2.94,0,0,0-3.1-2.9,7.011,7.011,0,0,0-4.9,2.7s-2.1,2.7-3.8,5.2a17.009,17.009,0,0,1-4.4,4.2s-1.6,1.1-1.1,5a73.748,73.748,0,0,1,.5,8.1Z" fill="#676767"/>
        <path id="Path_45290" data-name="Path 45290" d="M38.2,56.2,19.3,70.8V97.1L39.1,77.9Z" fill="#6c696c"/>
        <path id="Path_45291" data-name="Path 45291" d="M36.8,59.3,20.9,71.7V93.9L37.6,77.7Z" fill="#c9cbc9"/>
        <path id="Path_45292" data-name="Path 45292" d="M36,78.3S39.3,65,34.9,64.1C30.6,63.3,24.5,69,24.5,69s-4.1,4.2-3.3,10c.9,5.8.6,4.3,2,7.4s7.6-2.1,7.6-2.1Z" fill="#eba099"/>
        <path id="Path_45293" data-name="Path 45293" d="M29,75.2,26.4,88.3l-1.5,1.6Z" fill="#676767"/>
        <path id="Path_45294" data-name="Path 45294" d="M40.4,87.7,28.8,100.1s-1.8,1.8-4.8-.2" fill="none" stroke="#000" stroke-miterlimit="10" stroke-width="0.25"/>
        <line id="Line_135" data-name="Line 135" x1="0.7" y1="9.4" transform="translate(25.4 100.7)" fill="none" stroke="#000" stroke-miterlimit="10" stroke-width="0.25"/>
      </g>
    </g>
  </g>
</svg>
