<svg id="medical_specialist" xmlns="http://www.w3.org/2000/svg" xmlns:xlink="http://www.w3.org/1999/xlink" width="116.526" height="116.525" viewBox="0 0 116.526 116.525">
  <defs>
    <linearGradient id="linear-gradient" x1="0.001" y1="0.5" x2="1" y2="0.5" gradientUnits="objectBoundingBox">
      <stop offset="0" stop-color="#ebebeb"/>
      <stop offset="1" stop-color="#fff"/>
    </linearGradient>
    <clipPath id="clip-path">
      <circle id="Ellipse_1835" data-name="Ellipse 1835" cx="58.263" cy="58.263" r="58.263" transform="translate(0 0)"/>
    </clipPath>
  </defs>
  <circle id="Ellipse_1834" data-name="Ellipse 1834" cx="58.263" cy="58.263" r="58.263" transform="translate(0 0)" fill="url(#linear-gradient)"/>
  <g id="Group_7507" data-name="Group 7507">
    <g id="Group_7506" data-name="Group 7506" clip-path="url(#clip-path)">
      <g id="Group_7490" data-name="Group 7490" transform="translate(24.934 4.342)">
        <path id="Path_47218" data-name="Path 47218" d="M91.111,80.682,88.193,92.354c-1.07-.1-2.334-.195-3.7-.292v-.195L84.4,76.5C85.859,77.764,89.847,80.974,91.111,80.682Z" transform="translate(-50.001 -23.455)" fill="#9abbd6"/>
        <path id="Path_47219" data-name="Path 47219" d="M73.089,73.786s3.307,7,4.572,6.809c1.167-.195,5.933-4.669,5.933-4.669a5.954,5.954,0,0,0,.584.486l.1,15.368v.195c-1.556-.1-3.307-.1-4.961-.1V91.68L72.7,73.4l.1-.1c.195.1.292.195.486.195Z" transform="translate(-49.681 -23.367)" fill="#9abbd6"/>
        <path id="Path_47220" data-name="Path 47220" d="M85.178,75.929A19.294,19.294,0,0,0,93.64,73.4l.1.1s-1.07,6.614-2.626,7c-1.264.389-5.252-2.918-6.711-4.182v-.486a2.142,2.142,0,0,0,.775.1Z" transform="translate(-50.001 -23.37)" fill="#bad7f4"/>
        <path id="Path_47221" data-name="Path 47221" d="M83.5,75.934s-4.766,4.377-5.933,4.669C76.4,80.8,73,73.795,73,73.795l.1-.195a26.513,26.513,0,0,0,10.4,2.334Z" transform="translate(-49.689 -23.375)" fill="#bad7f4"/>
        <path id="Path_47222" data-name="Path 47222" d="M67.8,105.725c.195-6.322.778-11.769,1.751-12.158a18.51,18.51,0,0,1,4.085-.875,48.468,48.468,0,0,1,5.447-.292c1.654,0,3.4,0,4.961.1,1.362.1,2.529.195,3.7.292a15.63,15.63,0,0,1,3.7.681c.1,0,.1.1.195.1h0c.681.875.389,5.544.486,10.894a28.452,28.452,0,0,0,.1,2.918l-.1.292c-2.723-.875-6.614-3.7-7-2.043-.195.584.292,1.264,1.07,1.945h0s-1.459-.389-1.848.681c-.292.778.389,1.556,1.362,2.237-.584-.292-2.14-.778-2.14.778s5.155,4.572,8.754,6.322c-.1,4.863-.389,8.851-1.07,9.727-.778,1.07-3.7,1.556-7.2,1.556-5.739.1-12.937-.778-14.4-1.556-.778-.389-1.264-3.793-1.556-8.268C67.8,115.16,67.7,110.2,67.8,105.725Z" transform="translate(-49.546 -23.889)" fill="#64514b"/>
        <path id="Path_47223" data-name="Path 47223" d="M101.639,109.8a13.408,13.408,0,0,1-1.264,11.088h0a33.775,33.775,0,0,1-4.182-1.264c-.1,0-.2-.1-.292-.1l.1-.195a13.868,13.868,0,0,0,2.14-9.046,24.7,24.7,0,0,0,3.4-.584Z" transform="translate(-50.315 -24.362)" fill="#e0e2d9"/>
        <path id="Path_47224" data-name="Path 47224" d="M65.554,108.3s-1.362,6.906.973,11.769a23.814,23.814,0,0,1-4.961.389c-2.529-5.35-.292-10.894,0-11.672a6.553,6.553,0,0,0,3.988-.486Z" transform="translate(-49.344 -24.324)" fill="#e0e2d9"/>
        <path id="Path_47225" data-name="Path 47225" d="M93.742,73.584l-.1-.1a5.43,5.43,0,0,0,.78-.484l.1.2s2.237,8.073,2.14,10.5c-.1,2.723-4.183,8.754-4.669,9.532,0-.1-.1-.1-.195-.1a15.63,15.63,0,0,0-3.7-.681l2.918-11.672C92.672,80.1,93.742,73.584,93.742,73.584Z" transform="translate(-50.102 -23.359)" fill="#e0e2d9"/>
        <path id="Path_47226" data-name="Path 47226" d="M72.511,73.386l6.614,18.286v.195a47.23,47.23,0,0,0-5.447.292v-.195s-3.891-6.42-4.28-7.684C68.912,83.113,71.733,73,71.733,73l.1-.1c.292.195.584.292.875.486Z" transform="translate(-49.589 -23.356)" fill="#e0e2d9"/>
        <path id="Path_47227" data-name="Path 47227" d="M95.7,104.886a2.543,2.543,0,0,0-2.918-.973h-.1c-.1-5.35.195-10.018-.486-10.894h0c.486-.778,4.572-6.809,4.669-9.532.1-2.334-2.14-10.5-2.14-10.5s9.921-3.21,14.007,4.863c4.572,9.046,13.228,27.332,6.711,36.572a13.28,13.28,0,0,1-8.268,5.544,15.828,15.828,0,0,1-6.809-.2h0a13.408,13.408,0,0,0,1.264-11.088v-.1a27.379,27.379,0,0,1-3.4.584h-.486A11.147,11.147,0,0,0,95.7,104.886Z" transform="translate(-50.214 -23.341)" fill="#eff4ec"/>
        <path id="Path_47228" data-name="Path 47228" d="M70.5,72.393c.195.1.486.292.681.389v.195S68.36,83.093,68.847,84.26c.389,1.167,4.28,7.684,4.28,7.684v.195a18.51,18.51,0,0,0-4.085.875c-1.07.389-1.654,5.739-1.751,12.158a17.5,17.5,0,0,0-2.043,2.14,5.916,5.916,0,0,1-3.891.389c-.292.778-2.529,6.322,0,11.672a18.993,18.993,0,0,1-2.237-.195c-4.182-.681-8.657-2.821-9.921-8.268-1.07-4.572,3.307-25.873,9.532-33.849A11.346,11.346,0,0,1,70.5,72.393Z" transform="translate(-49.034 -23.335)" fill="#eff4ec"/>
        <path id="Path_47229" data-name="Path 47229" d="M90.528,177.443c-2.043.1-4.085.1-6.128.2h0l.1-47.466v-.389c3.5-.1,6.517-.486,7.2-1.556.681-.973.973-4.863,1.07-9.727,1.167.584,2.237,1.07,2.821,1.362a.357.357,0,0,0,.292.1,22.329,22.329,0,0,0,4.182,1.264,17.521,17.521,0,0,0,6.809.2c3.891,23.538,5.35,47.952,3.988,52.329-.389,1.07-3.6,2.043-8.462,2.723C99.087,176.86,95,177.249,90.528,177.443Z" transform="translate(-50.001 -24.603)" fill="#eff4ec"/>
        <path id="Path_47230" data-name="Path 47230" d="M69.322,128.265c1.459.778,8.657,1.654,14.4,1.556v.389l-.1,47.466H78.563A105.843,105.843,0,0,1,66.7,176.8c-5.252-.681-8.949-1.945-9.824-3.7-1.945-4.085-.973-29.277,2.334-52.621a17.365,17.365,0,0,0,2.237.195,18.615,18.615,0,0,0,4.961-.389,8.171,8.171,0,0,0,1.362-.389C68.058,124.472,68.544,127.876,69.322,128.265Z" transform="translate(-49.221 -24.641)" fill="#eff4ec"/>
        <path id="Path_47231" data-name="Path 47231" d="M92.754,118.027C89.155,116.179,84,113.261,84,111.7s1.556-1.07,2.14-.778c-.973-.681-1.654-1.459-1.362-2.237.389-1.07,1.848-.681,1.848-.681h0c-.778-.681-1.264-1.362-1.07-1.945.486-1.654,4.28,1.167,7,2.043l.1-.292c0-.973-.1-1.945-.1-2.918h.1a2.542,2.542,0,0,1,2.918.973,9.729,9.729,0,0,1,1.848,4.377h.486a13.868,13.868,0,0,1-2.14,9.046l-.1.195Z" transform="translate(-49.99 -24.227)" fill="#f9d2b2"/>
        <path id="Path_47232" data-name="Path 47232" d="M67.732,106.1c-.1,4.474,0,9.435.292,13.52a8.173,8.173,0,0,1-1.362.389c-2.334-4.863-.973-11.769-.973-11.769a17.5,17.5,0,0,1,2.043-2.14Z" transform="translate(-49.479 -24.264)" fill="#f9d2b2"/>
        <path id="Path_47233" data-name="Path 47233" d="M83.682,75.538A22.274,22.274,0,0,1,74.539,73.5c-.1-.1-.292-.1-.389-.195-.292-.1-.486-.292-.778-.389-.195-.1-1.459-.681-1.654-.778-5.447-3.4-6.225-7.976-6.225-7.976-5.35,2.14-9.143-4.377-6.517-7.879a4.524,4.524,0,0,1,3.6-2.043,5.185,5.185,0,0,1,1.848.389l.1-.195c3.015-7.684,2.237-19.161,2.237-19.161s4.766,6.42,16.341,5.544C94.673,39.841,97.883,34.2,97.883,34.2s.1,15.368,2.432,19.842l.1.1a6.947,6.947,0,0,1,1.654-.486,4.315,4.315,0,0,1,4.28,1.945c2.529,3.5-1.264,10.116-6.517,7.879a16.586,16.586,0,0,1-6.809,9.532,2.438,2.438,0,0,1-.681.389,17.468,17.468,0,0,1-7.49,2.237h-.681A1.057,1.057,0,0,0,83.682,75.538Z" transform="translate(-49.283 -22.298)" fill="#f9d2b2"/>
        <path id="Path_47234" data-name="Path 47234" d="M105.42,36.3c.389,3.988-2.14,16.341-2.237,17.119a6.946,6.946,0,0,0-1.654.486l-.1-.1C99.1,49.33,99,33.962,99,33.962l.681-1.362C99.584,32.7,105.031,32.308,105.42,36.3Z" transform="translate(-50.4 -22.255)" fill="#edeef0"/>
        <path id="Path_47235" data-name="Path 47235" d="M98.5,32.407l-.681,1.362s-3.113,5.739-14.785,6.614c-11.57.972-16.334-5.545-16.334-5.545S67.476,46.316,64.461,54l-.1.195a4.749,4.749,0,0,0-1.848-.389c-.486-1.556-3.793-11.866-2.821-16.243a5.869,5.869,0,0,1,5.739-4.669s-.486-8.657,13.909-10.7A17.486,17.486,0,0,1,98.5,32.407Z" transform="translate(-49.321 -21.964)" fill="#edeef0"/>
      </g>
      <path id="Path_47236" data-name="Path 47236" d="M79.91,60.985a1.847,1.847,0,0,1-1.848,1.848H71.448A1.847,1.847,0,0,1,69.6,60.985V58.748A1.847,1.847,0,0,1,71.448,56.9h6.614a1.847,1.847,0,0,1,1.848,1.848Z" transform="translate(-24.662 -18.577)" fill="#d5edfa"/>
      <path id="Path_47237" data-name="Path 47237" d="M97.31,61.285a1.847,1.847,0,0,1-1.848,1.848H88.848A1.847,1.847,0,0,1,87,61.285V59.048A1.847,1.847,0,0,1,88.848,57.2h6.614a1.847,1.847,0,0,1,1.848,1.848Z" transform="translate(-25.138 -18.585)" fill="#d5edfa"/>
      <g id="Group_7491" data-name="Group 7491" transform="translate(37.991 36.043)">
        <path id="Path_47238" data-name="Path 47238" d="M62.791,54.6c.584.195,1.264.389,1.848.584s1.167.486,1.751.681a28.441,28.441,0,0,1,3.5,1.654c.1.1.195.195.1.389-.1,0-.195.1-.292,0a22.518,22.518,0,0,1-3.6-1.264c-.584-.292-1.167-.486-1.751-.778L62.6,54.988c-.1-.1-.195-.195-.1-.389C62.6,54.6,62.693,54.5,62.791,54.6Z" transform="translate(-62.459 -54.556)" fill="#434040"/>
      </g>
      <g id="Group_7492" data-name="Group 7492" transform="translate(71.491 35.365)">
        <path id="Path_47239" data-name="Path 47239" d="M97.1,57.6a11.657,11.657,0,0,1,1.167-1.07c.389-.292.875-.681,1.264-.973a19.569,19.569,0,0,1,2.821-1.654c.1-.1.292,0,.389.1s0,.195-.1.292a16.618,16.618,0,0,1-2.529,2.043c-.486.292-.875.584-1.362.875a10.631,10.631,0,0,1-1.459.778c-.1.1-.292,0-.389-.1C97,57.79,97.1,57.692,97.1,57.6Z" transform="translate(-96.9 -53.859)" fill="#434040"/>
      </g>
      <g id="Group_7493" data-name="Group 7493" transform="translate(55.053 39.198)">
        <path id="Path_47240" data-name="Path 47240" d="M80.195,58.481c.584-.195,1.07-.292,1.654-.486A10.832,10.832,0,0,1,83.5,57.8a10.572,10.572,0,0,1,1.751.1,4.665,4.665,0,0,1,1.654.486c.1.1.195.195.1.389a.209.209,0,0,1-.195.2h0a8.367,8.367,0,0,0-1.556-.1H83.6c-.584,0-1.07.1-1.654.1s-1.07.1-1.654.1h0a.258.258,0,0,1-.292-.3C80,58.675,80.1,58.578,80.195,58.481Z" transform="translate(-80 -57.8)" fill="#434040"/>
      </g>
      <path id="Path_47241" data-name="Path 47241" d="M86.2,111.1a.34.34,0,0,1,.195.1" transform="translate(-25.116 -20.059)" fill="none" stroke="#1e120d" stroke-linecap="round" stroke-linejoin="round" stroke-miterlimit="10" stroke-width="0.996"/>
      <g id="Group_7494" data-name="Group 7494" transform="translate(70.324 88.318)">
        <path id="Path_47242" data-name="Path 47242" d="M118.071,108.592a12.759,12.759,0,0,1-1.945,7.2,14.407,14.407,0,0,1-5.739,5.058,14.128,14.128,0,0,1-7.49,1.07,20.2,20.2,0,0,1-7.1-2.237c-.1,0-.1-.195-.1-.292s.1-.1.195-.1a25.507,25.507,0,0,0,7,1.362,13.734,13.734,0,0,0,6.809-1.264,13.53,13.53,0,0,0,5.252-4.377,15.245,15.245,0,0,0,2.529-6.517c0-.1.195-.195.292-.195C118.071,108.3,118.071,108.4,118.071,108.592Z" transform="translate(-95.7 -108.3)" fill="#c2c6c4"/>
      </g>
      <g id="Group_7495" data-name="Group 7495" transform="translate(59.139 87.768)">
        <path id="Path_47243" data-name="Path 47243" d="M90.425,113.342a11.759,11.759,0,0,1-2.432-.778,7.346,7.346,0,0,1-2.237-1.264l.292.1h0l-.292-.1a8.771,8.771,0,0,1-.973-.875,2.184,2.184,0,0,1-.584-1.362,1.479,1.479,0,0,1,.973-1.264,2.137,2.137,0,0,1,1.362.1c.1,0,.1.1.1.195a.1.1,0,0,1-.1.1h0a1.924,1.924,0,0,0-1.07.2.843.843,0,0,0-.389.681,2.747,2.747,0,0,0,1.362,1.459l-.292-.1h0l.292.1a42.924,42.924,0,0,0,4.182,2.432h0c.1,0,.1.195.1.195A.278.278,0,0,1,90.425,113.342Z" transform="translate(-84.2 -107.734)" fill="#d89072"/>
      </g>
      <g id="Group_7496" data-name="Group 7496" transform="translate(59.892 85.317)">
        <path id="Path_47244" data-name="Path 47244" d="M91.322,110.939a29.148,29.148,0,0,1-3.988-1.751,7.728,7.728,0,0,1-1.751-1.362A2.219,2.219,0,0,1,85,106.659c0-.292-.1-.486.1-.778a.834.834,0,0,1,.681-.584,2.077,2.077,0,0,1,1.362.1c.389.1.681.292,1.07.389.681.292,1.264.681,1.945.973.584.292,1.264.681,1.848.973a7.742,7.742,0,0,0,1.945.681h0a.1.1,0,0,1,0,.2,8.7,8.7,0,0,1-4.182-1.167c-.681-.292-1.264-.584-1.945-.875a3.706,3.706,0,0,0-.973-.292,2.737,2.737,0,0,0-.778-.1c-.1,0-.1.1-.1.292a1.235,1.235,0,0,0,.389.681,11.121,11.121,0,0,0,1.556,1.362c1.167.778,2.334,1.459,3.6,2.237h0c.1,0,.1.195.1.195Z" transform="translate(-84.975 -105.214)" fill="#d89072"/>
      </g>
      <g id="Group_7497" data-name="Group 7497" transform="translate(72.561 84.646)">
        <path id="Path_47245" data-name="Path 47245" d="M98.195,109.85c2.043-.584,3.891-1.167,5.739-1.848a20.893,20.893,0,0,0,2.529-1.362,14.069,14.069,0,0,0,2.14-2.043h0a.182.182,0,0,1,.292,0c.1.1.1.1.1.195a5.775,5.775,0,0,1-1.751,2.821,10.363,10.363,0,0,1-2.723,1.848,11.584,11.584,0,0,1-3.113.973,11.841,11.841,0,0,1-3.21.1c-.1,0-.195-.1-.195-.292A.5.5,0,0,1,98.195,109.85Z" transform="translate(-98 -104.525)" fill="#c2c6c4"/>
      </g>
      <g id="Group_7498" data-name="Group 7498" transform="translate(24.9 92.071)">
        <path id="Path_47246" data-name="Path 47246" d="M49.486,112.3a11.968,11.968,0,0,0,2.918,4.28,11.172,11.172,0,0,0,4.474,2.432,29.6,29.6,0,0,0,5.252.875,19.794,19.794,0,0,0,5.35-.292h.1a.209.209,0,0,1,.195.2c0,.1,0,.1-.1.195h-.1a15.2,15.2,0,0,1-5.447,1.167,18.684,18.684,0,0,1-5.642-.681,11.216,11.216,0,0,1-4.961-2.918,9.318,9.318,0,0,1-1.654-2.334A12.729,12.729,0,0,1,49,112.491c0-.1.1-.292.195-.292C49.292,112.1,49.389,112.2,49.486,112.3Z" transform="translate(-49 -112.159)" fill="#c2c6c4"/>
      </g>
      <g id="Group_7499" data-name="Group 7499" transform="translate(36.475 70.575)">
        <path id="Path_47247" data-name="Path 47247" d="M60.9,107.9a69.662,69.662,0,0,1,.875-8.949A70.645,70.645,0,0,1,63.721,90.2c0-.1.1-.195.195-.1.1,0,.1.1.1.195a69.665,69.665,0,0,1-.875,8.949A70.158,70.158,0,0,1,61.289,108c0,.1-.2.195-.292.195S60.9,108.093,60.9,107.9Z" transform="translate(-60.9 -90.059)" fill="#c2c6c4"/>
      </g>
      <g id="Group_7500" data-name="Group 7500" transform="translate(76.355 70.283)">
        <path id="Path_47248" data-name="Path 47248" d="M102.386,89.9a68.672,68.672,0,0,1,2.043,8.851,69.9,69.9,0,0,1,.973,8.949.209.209,0,0,1-.195.195.34.34,0,0,1-.2-.1,71.158,71.158,0,0,1-2.043-8.754,68.119,68.119,0,0,1-1.07-8.949c0-.1.1-.292.195-.292C102.289,89.7,102.386,89.8,102.386,89.9Z" transform="translate(-101.9 -89.759)" fill="#c2c6c4"/>
      </g>
      <g id="Group_7501" data-name="Group 7501" transform="translate(58.652 109.619)">
        <path id="Path_47249" data-name="Path 47249" d="M84.673,130.4c.1,1.945.195,3.988.292,5.933l.1,5.933c.1,3.988.1,7.879.1,11.866-.1,3.988-.1,7.879-.195,11.867s-.195,7.879-.389,11.867a.2.2,0,0,1-.389,0c-.195-3.988-.292-7.879-.389-11.867s-.1-7.879-.1-11.867,0-7.879.1-11.866L84,136.328c.1-1.945.1-3.988.292-5.933,0-.1.1-.2.292-.2A.34.34,0,0,1,84.673,130.4Z" transform="translate(-83.7 -130.2)" fill="#c2c6c4"/>
      </g>
      <g id="Group_7502" data-name="Group 7502" transform="translate(58.36 57.679)">
        <path id="Path_47250" data-name="Path 47250" d="M84.081,76.8c.1,1.264.195,2.432.195,3.7s.1,2.432.1,3.7c0,2.432,0,4.961-.195,7.392h-.486C83.5,89.16,83.4,86.631,83.4,84.2V80.5c0-1.264.1-2.432.195-3.7Z" transform="translate(-83.4 -76.8)" fill="#7c95aa"/>
      </g>
      <g id="Group_7503" data-name="Group 7503" transform="translate(44.724 37.837)">
        <path id="Path_47251" data-name="Path 47251" d="M69.4,58.734a2.178,2.178,0,0,1,.584-1.654,2.118,2.118,0,0,1,.778-.486,3,3,0,0,1,.875-.1c1.07,0,2.043,0,3.113-.1,1.07,0,2.043,0,3.113.1a3,3,0,0,1,.875.1,2.224,2.224,0,0,1,1.459,2.14c0,.1-.1.292-.292.195a.209.209,0,0,1-.195-.195h0a1.638,1.638,0,0,0-.584-1.07l-.584-.292c-.195-.1-.389,0-.681,0-1.07,0-2.043,0-3.113.1-1.07,0-2.043,0-3.113-.1h-.681a.841.841,0,0,0-.584.292,1.482,1.482,0,0,0-.584,1.07h0c0,.1-.195.292-.292.195a.339.339,0,0,1-.094-.195Z" transform="translate(-69.381 -56.4)" fill="#343130"/>
      </g>
      <g id="Group_7504" data-name="Group 7504" transform="translate(61.667 38.128)">
        <path id="Path_47252" data-name="Path 47252" d="M86.8,58.645a2.306,2.306,0,0,1,.875-1.459,1.569,1.569,0,0,1,.875-.292,1.9,1.9,0,0,0,.778-.1c.973,0,2.043,0,3.015-.1.973,0,2.043,0,3.015.1a2.133,2.133,0,0,1,1.654.681,2.056,2.056,0,0,1,.584,1.654c0,.1-.1.292-.292.2a.209.209,0,0,1-.2-.195A1.55,1.55,0,0,0,95.36,57.77c-.973,0-2.043,0-3.015.1-.973,0-2.043,0-3.015-.1-.584,0-.875-.1-1.264.1a1.38,1.38,0,0,0-.778.875h0c0,.1-.195.195-.292.195C86.9,58.84,86.8,58.743,86.8,58.645Z" transform="translate(-86.8 -56.7)" fill="#343130"/>
      </g>
      <path id="Path_47253" data-name="Path 47253" d="M73.445,57.993c-.292-.486-.778-.195-1.167,0-.292.195-.681.389-.778.681-.1.195.1.389.292.486.292.1.681-.1.973-.195C73.153,58.868,73.736,58.479,73.445,57.993Z" transform="translate(-24.714 -18.6)" fill="#fff"/>
      <path id="Path_47254" data-name="Path 47254" d="M89.769,57.9a.685.685,0,0,0-.486.389c-.195.2-.292.389-.486.584-.389.292.1.778.486.584s1.167-.681,1.07-1.264a.831.831,0,0,0-.584-.293Z" transform="translate(-25.183 -18.604)" fill="#fff"/>
      <path id="Path_47255" data-name="Path 47255" d="M91.758,58.392a.434.434,0,0,0-.389-.292c-.389,0-.681.486-.973.778-.389.389.195.875.584.584S91.855,58.878,91.758,58.392Z" transform="translate(-25.227 -18.61)" fill="#fff"/>
      <path id="Path_47256" data-name="Path 47256" d="M74.97,58.394c-.292-.486-1.07,0-1.07.486a.258.258,0,0,0,.292.292h0c.1,0,.1,0,.195-.1.1,0,.1,0,.195-.1a1.343,1.343,0,0,0,.389-.292Z" transform="translate(-24.78 -18.612)" fill="#fff"/>
      <g id="Group_7505" data-name="Group 7505" transform="translate(33.46 84.914)">
        <path id="Path_47257" data-name="Path 47257" d="M65.581,108.5a4.91,4.91,0,0,1-2.237.875,5.816,5.816,0,0,1-2.529-.292,4.611,4.611,0,0,1-2.043-1.556,6.531,6.531,0,0,1-.973-2.237.535.535,0,0,1,.292-.486c.2,0,.292,0,.389.2h0a5.448,5.448,0,0,0,2.723,2.626,5.663,5.663,0,0,0,1.848.292,14.511,14.511,0,0,0,2.043-.195h0a.535.535,0,0,1,.486.292C65.776,108.3,65.776,108.5,65.581,108.5Z" transform="translate(-57.8 -104.8)" fill="#c2c6c4"/>
      </g>
      <path id="Path_47258" data-name="Path 47258" d="M67.715,105.306,64.7,99.665s.486-1.654.973-1.167a34.3,34.3,0,0,1,2.14,3.5Z" transform="translate(-24.529 -19.712)" fill="#151411"/>
    </g>
  </g>
</svg>
