<svg xmlns="http://www.w3.org/2000/svg" xmlns:xlink="http://www.w3.org/1999/xlink" width="117.2" height="117.199" viewBox="0 0 117.2 117.199">
  <defs>
    <linearGradient id="linear-gradient" y1="0.5" x2="1" y2="0.5" gradientUnits="objectBoundingBox">
      <stop offset="0" stop-color="#ebebeb"/>
      <stop offset="1" stop-color="#fff"/>
    </linearGradient>
    <clipPath id="clip-path">
      <circle id="Ellipse_1510" data-name="Ellipse 1510" cx="58.6" cy="58.6" r="58.6" transform="translate(8.2 8.8)"/>
    </clipPath>
  </defs>
  <g id="nephrologist" transform="translate(-8.2 -8.801)">
    <circle id="Ellipse_1506" data-name="Ellipse 1506" cx="58.6" cy="58.6" r="58.6" transform="translate(8.2 8.8)" fill="url(#linear-gradient)"/>
    <g id="Group_6266" data-name="Group 6266">
      <g id="Group_6264" data-name="Group 6264" clip-path="url(#clip-path)">
        <path id="Path_43596" data-name="Path 43596" d="M16.1,125a27.971,27.971,0,0,1,.6-2.8,14.682,14.682,0,0,0,.5-2.9c.1,0,.2,0,.2.1.5,1.2,1.3,1.2,2.4,1l15.6-1.8c1.9-.2,3.9-.4,5.8-.6,1.2-.1,1.5-.5,1.3-1.7a10.855,10.855,0,0,1-.4-2.5,4.413,4.413,0,0,1,3.7-1.2v.1c0,1.6,1.1,1.7,2.3,1.7.4,0,.7.1,1.1.1,1.2,0,1.2,0,1.4-1.2.2-1.7.4-3.4.5-5.2a4.013,4.013,0,0,1,.3-1.5c.2-.2.6-.2.9-.3.9-.1,1-.3.8-1.2-.7-3.3-1.7-6.6-2.6-9.8.1,2.5.3,4.9.5,7.4.1.9.1,1.8.2,2.7a1.02,1.02,0,0,1-.2.9,1.672,1.672,0,0,1-1.2.1,15.173,15.173,0,0,0-2.1-.3c-1.1-.2-1.1-.2-1.4,1a1.384,1.384,0,0,1-1.7.3,26.691,26.691,0,0,1-4.3-2.5L40,104c-.9-4.6-1.8-9.1-2.8-13.7a2.2,2.2,0,0,1-.1-.8c.1-.7.6-1.1.9-1.7,2.9-4.1,5.7-8.2,8.6-12.4.7-.9.6-1-.4-1.6-.3-.2-.7-.3-.9-.6a1.346,1.346,0,0,0-.5-1.2,12.878,12.878,0,0,1-1.7-1.6c-.2-.2-.6-.4-.2-.8a.446.446,0,0,1,.5,0c2.6.9,5.3,1.5,7.9,2.5a13.187,13.187,0,0,1,5.9,4.5,11.31,11.31,0,0,1,1.7,3.9c1.5,5.5,2.6,11.1,3.7,16.7,0,.2.1.5.1.7a1.1,1.1,0,0,0,0,.8c.5,3.2,1.3,6.5,1.1,9.8-.2,2.6-.9,4.6-3.9,5.7a4.433,4.433,0,0,1-2,.3,24.426,24.426,0,0,1-5.4-.2c-.6-.1-.9.1-.9.8.2,2.3.5,4.6.7,6.9.1,1,.2,2,.2,3Z" fill="#eceded"/>
        <path id="Path_43597" data-name="Path 43597" d="M5.6,93.7c.5-3.3,1.3-6.6,2.1-9.8l.9-3.6a10.86,10.86,0,0,1,5.5-7.2c.9-.5,1.8-1,2.7-1.4.1-.3.4-.4.7-.5,2.1-.8,4.2-1.4,6.4-2a.854.854,0,0,1,.7,0c.4.4,0,.7-.3.9A14.2,14.2,0,0,1,23,71.3c-.9.7-1.4,1.5-.8,2.6a7.24,7.24,0,0,1-1.1,1.9,1.2,1.2,0,0,0,0,1.4c.9,1.3,1.9,2.5,2.8,3.8.2.3.6.6.1,1a49.525,49.525,0,0,1-6.6.8l-5.4.6c-1.2.1-1.4.4-1.2,1.6l3,15.6c.2,1.2.5,2.5.7,3.7.2,1.1.4,1.2,1.5.9.9-.2-.8-.1.1-.2.5,0,.7.4.9.8.8,2.1,1.5,4.2,2.3,6.3a1.4,1.4,0,0,1,0,1.1c-1.1.9-.1.5-1.4,1.1-.6.3-1.1.4-1.5,1-.2-.4-.4-.6-1-.4a31.215,31.215,0,0,1-4.3,1.5,7.321,7.321,0,0,1-3.6.1c-2.2-.6-3.2-2.3-3.6-4.4a26.365,26.365,0,0,1,.1-9.7.783.783,0,0,0-.1-.8c.6-1,.5-2.2.7-3.3.3-1.3.5-2.6.8-3.9a2.544,2.544,0,0,0,.2-.7Z" fill="#ececed"/>
        <path id="Path_43598" data-name="Path 43598" d="M24.7,69.2a45.247,45.247,0,0,0-7.9,2.5c0-.1-.2-.1-.1-.2.4-2.7-.2-5.2-.8-7.8a18.942,18.942,0,0,1-.1-7.5c0-.3.1-.6.1-.9.7-4,2.1-7.8,1.8-12a24.644,24.644,0,0,1,1.8-11.7c.3-.6.5-1.2.8-1.7.6,0,.6.5.8.8.3.5.6.6,1.1.3a21.619,21.619,0,0,1,13.1-3.3,11.933,11.933,0,0,1,3.7.6c.3.2.2.5,0,.7a22.45,22.45,0,0,1-3.5,3.4c-.8-.1-1,.5-1.4.9a1.826,1.826,0,0,1-1.3.8c-.3,0-.5-.1-.8-.1a1.421,1.421,0,0,0-.6.2.758.758,0,0,1-.4.2c-.3.2-.6.2-.9.4a28.475,28.475,0,0,0-4.5,2.5c-.7.2-1.3.2-2,.4a4.256,4.256,0,0,0-3.1,2.7,1.721,1.721,0,0,1-1.1,1.1c-.9.3-.9.7-.2,1.3a1.779,1.779,0,0,1,.8,1.1,7.837,7.837,0,0,0,1.9,4,28.42,28.42,0,0,0,2.7,6.2,21.465,21.465,0,0,0,5.2,6,1.387,1.387,0,0,1,.7.8c0,1.5.3,3-.3,4.5a6.655,6.655,0,0,1-3.5,3.5c-.4-.5-.7-.9-1.3-.1C25.2,69.2,24.9,69.3,24.7,69.2Z" fill="#323441"/>
        <path id="Path_43599" data-name="Path 43599" d="M16.4,115.2c-.1-.5.1-.7.6-.9,1.5-.6,3.1-1.2,4.6-1.9a3.981,3.981,0,0,1,2.1-.9,9.379,9.379,0,0,0,2.8-1c.6-.2.3-.6.2-1-.2-.5-.8-1-.3-1.7,1.3-.4,2.7-.3,4-.6.3-.1.5.1.7.3a2.075,2.075,0,0,0,1,.6c.2.1.3.2.3.4-.3.5-.1.9.5,1a.367.367,0,0,1,.3.1c.2.1.5.1.6.4.1.4-.4.3-.5.6.4.6,1.3.3,1.7.9,0,.2-.1.2-.2.3s-.3,0-.4.2.1.3.3.3c2.2.7,4.4,1.6,6.9,1.1a.783.783,0,0,1,.8.1,25.58,25.58,0,0,1,.5,2.7c.2,1.2-.1,1.7-1.3,1.9-7.6.8-15.1,1.7-22.7,2.5-.9.1-1.2-.2-1.6-1.5C17,117.9,16.7,116.5,16.4,115.2Z" fill="#323441"/>
        <path id="Path_43600" data-name="Path 43600" d="M62.6,98.1a1.38,1.38,0,0,1,.3.4l-.2.2C62.6,98.5,62.2,98.4,62.6,98.1Z" fill="#deeae7"/>
        <path id="Path_43601" data-name="Path 43601" d="M18.6,104.5c-1,.4-2.1.7-3.1,1-.6.2-1,.2-1.1-.7-1.3-6.8-2.6-13.7-4-20.5-.2-.8.3-1.1,1-1.2,1.9-.2,3.7-.4,5.6-.7,2.4-.3,4.8-.5,7.2-.8.7-.6,1.6-.3,2.4-.5,1.1-.2,2.3-.2,3.4-.4,1.2-.1,2.4-.3,3.5-.4,2-.2,2.3,0,2.8,2l.3,1.8c.2,1.2.5,2.4.7,3.6a1.934,1.934,0,0,1,0,1.3c1,5.1,2,10.1,3,15.2a1.087,1.087,0,0,0,.1.5c-.9.2-1.7,0-2.6.2-.5,0-.8-.5-1.1-.4.1,0,.2,0,.3.2,0,.2-.1.4-.3.4a12.25,12.25,0,0,1-1.9.2c-.2,0-.5,0-.6-.3-.1-.2.1-.4.2-.6a16.6,16.6,0,0,0,1.3-1.4c0-.4-.7-.1-.6-.5,0-.3.3-.4.5-.6.3-.3.6-.6,0-.9-.3-.2-.1-.4.1-.6.2-.3.7-.5.6-1-.1-.3-.6-.1-.7-.6.1-.3.4-.4.6-.6.1-.1.4-.3.3-.5s-.4-.1-.6-.1c-.6,0-1.2.4-1.9.3-.1-.1-.2-.1-.2-.3.1-.4.5-.4.7-.7a1.4,1.4,0,0,0-1.1,0c-1.8.5-3.5,1.2-5.2,1.8a3.182,3.182,0,0,0-1.5,1.3c-.6.9-1.2,1.8-1.7,2.7-.2.4-.4.9-1,.7-.7-.9-.7-.9-1.8-.5a11.5,11.5,0,0,1-1.7.6,2.558,2.558,0,0,0-1.9,1Z" fill="#323441"/>
        <path id="Path_43602" data-name="Path 43602" d="M40.7,29a14.5,14.5,0,0,1,5.2,2.4,4.173,4.173,0,0,1,.8.6c.3-.8.7-1.5,1-2.2a19.4,19.4,0,0,1,2.4,6.6,25.06,25.06,0,0,1,.4,6.1,31.8,31.8,0,0,0,1.1,9.7,48.125,48.125,0,0,1,1.2,7.6,20.174,20.174,0,0,1-.8,5.4,18.4,18.4,0,0,0-.5,6.2c0,.3.2.7-.1.9-2.8-.9-5.7-1.8-8.5-2.7a.886.886,0,0,1-1-.4c-.4-.6-.8-.6-1.3,0a3.306,3.306,0,0,1-1.9-1.4,12.809,12.809,0,0,1-1.8-5.4,1.545,1.545,0,0,1,.8-1.6c4.6-3.4,7.1-8,8.3-13.5a20.211,20.211,0,0,0,1.1-3.2c.1-.6.6-.8,1-1.2.5-.4.5-1-.1-1.1-1.1-.3-1.4-1.1-1.7-2a15.793,15.793,0,0,0-4.8-9.7C41.2,29.7,40.7,29.5,40.7,29Z" fill="#323441"/>
        <path id="Path_43603" data-name="Path 43603" d="M45.8,112.5c.1-1.8.2-3.6.3-5.5.1-1.6.1-1.6,1.6-1.3.6.1,1.3-.1,1.9.3a2.016,2.016,0,0,1,.2,1.7c-.2,1.9-.3,3.7-.4,5.6a1.746,1.746,0,0,1-.4,1.2,14.154,14.154,0,0,1-2.9-.2c-.4,0-.4-.3-.4-.6a4.868,4.868,0,0,0,.1-1.2Z" fill="#fff"/>
        <path id="Path_43604" data-name="Path 43604" d="M37.2,87.9a22.582,22.582,0,0,0,2.2-3.7c1.9-3.3,3.8-6.7,5.6-10.1a9.292,9.292,0,0,0,.5-1c2.4.8,2.4,1.1,1,3-2.5,3.5-4.8,7-7.3,10.5-.6.9-1.2,1.7-1.8,2.5C37.3,88.7,37.3,88.3,37.2,87.9Z" fill="#acbcbb"/>
        <path id="Path_43605" data-name="Path 43605" d="M51,106c-.2-2-.3-4.1-.4-6.1a46.958,46.958,0,0,1-.2-5.3c0-.2,0-.3.3-.4.6,2.3,1.3,4.5,1.9,6.7.4,1.3.7,2.7,1,4s.2,1.5-1.1,1.5h-.7A1.506,1.506,0,0,1,51,106Z" fill="#96d5cf"/>
        <path id="Path_43606" data-name="Path 43606" d="M51,106c.3-.1.5.2.6.4-.3,2.6-.5,5.1-.8,7.7,0,.5-.3.6-.7.5-.3-.1-.6-.1-.9-.2.2-2.8.5-5.6.5-8.4Z" fill="#adbcbb"/>
        <path id="Path_43607" data-name="Path 43607" d="M5.6,93.7c.4.3,0,.4-.2.6a.735.735,0,0,1,.2-.6Z" fill="#dceae5"/>
        <path id="Path_43608" data-name="Path 43608" d="M22.1,73.9l3.6,6.3c.3.4.4,1,.9,1.2l-2.4.3c-1-1.7-2.3-3.1-3.3-4.7-.2-.3-.4-.6-.2-1C21.1,75.4,21.6,74.6,22.1,73.9Z" fill="#acbcbb"/>
        <path id="Path_43609" data-name="Path 43609" d="M28.2,75c-.5-2-1.1-4-1.6-5.9a9.479,9.479,0,0,0,3.3-3.3c.6-.5,1.4-.5,2-.8a18.715,18.715,0,0,0,4-2.7c.2-.1,0-.2.1-.1A4.913,4.913,0,0,1,30.2,61a23.349,23.349,0,0,1-8.5-12.8c.4-.2.6.1.8.3a5.846,5.846,0,0,0,8.9-3.2c0-.1.1-.3.1-.4.4-1.6.5-1.7,2.2-1.7,1.1,0,1.3.1,1.6,1.2a13.893,13.893,0,0,0,.6,1.9,5.957,5.957,0,0,0,9.5,1.5c.2-.2.4-.6.8-.5a23.109,23.109,0,0,1-4.4,10,17.267,17.267,0,0,1-4.2,3.9c-.3.2-.5.4-.4.8a14.8,14.8,0,0,0,1.3,5,4.1,4.1,0,0,0,2.2,2.1c-.6,2.1-1,4.2-1.8,6.3a2.178,2.178,0,0,1-.7.9c-1.1,1-2.1,2.1-3.2,3.1a1.794,1.794,0,0,1-.7.5c-.4.1-.7-.2-1.1-.2a31.679,31.679,0,0,1-5-4.7Z" fill="#f1c299"/>
        <path id="Path_43610" data-name="Path 43610" d="M40.7,29a16.539,16.539,0,0,1,5.6,9.7,3.4,3.4,0,0,1,.1,1c-.3.1-.4-.1-.5-.2a6.014,6.014,0,0,0-6.8-1.4,4.8,4.8,0,0,0-2.3,1.6,22.011,22.011,0,0,0-1.5,2.6,1.02,1.02,0,0,1-1.2.6h-.5a2.057,2.057,0,0,1-2.3-1.4,5.11,5.11,0,0,0-2.4-3,6.3,6.3,0,0,0-2.4-.9c-.3-.1-.7,0-.9-.3A15.041,15.041,0,0,1,30,34.7c.2-.2.5,0,.7-.1l.6-.3c.1-.1.2-.2.3-.2.3,0,.6-.1.9-.1a2.729,2.729,0,0,0,1.3-.7,3.766,3.766,0,0,1,1.5-.9A27.464,27.464,0,0,0,39,28.5a4.8,4.8,0,0,1,1.7.5Z" fill="#f1c299"/>
        <path id="Path_43611" data-name="Path 43611" d="M31.5,41.3a2.692,2.692,0,0,0,3.1,1.4c.2-.1.2-.3.3-.4.7-.9.9-2.1,1.8-2.9.2,0,.3.1.3.2.1.3-.1.5-.3.8a5.232,5.232,0,0,0,3.5,7.9,5.1,5.1,0,0,0,5.3-2.7,5.579,5.579,0,0,0,.6-3.1c-.5-3.3-2.6-4.8-6-4.4-.3,0-.6.1-.9.1-.2-.1-.4-.1-.4-.4,2.4-1.1,5.9-.5,7.5,1.8.1.3.3.6.4.9a.876.876,0,0,0,.9.8c.5,0,.8.4,1,.9.2.6-.3.7-.6.8a1.486,1.486,0,0,0-.8,1.4,8.8,8.8,0,0,1-1,2.7A6.908,6.908,0,0,1,42,49.5a6.047,6.047,0,0,1-6.6-3.9c-.1-.2-.1-.5-.2-.7-.5-1.8-.9-2-2.7-1.7-.4.1-.5.3-.6.7-.2.6-.3,1.2-.5,1.8A6.046,6.046,0,0,1,19.7,44c0-.7-.7-.7-1-1.1-.2-.2-.6-.3-.4-.7.2-.3.1-.8.7-.8.8,0,1.1-.5,1.4-1.2,1-2.2,3-2.8,5.2-3a6.062,6.062,0,0,1,3.5,1.1c0,.2-.1.3-.2.3-1.1-.2-2.2-.8-3.5-.6a2.769,2.769,0,0,0-.9.1c-.2.1-.3.1-.5.2-.8.1-1.2.8-1.8,1.2a1.2,1.2,0,0,0-.5.5,3.7,3.7,0,0,0-.5,1.1c-.1.4-.1.8-.2,1.2a4.3,4.3,0,0,0,0,1.6c0,.2.1.3.1.5a1.929,1.929,0,0,0,.3,1,5.228,5.228,0,0,0,3.9,3,2.228,2.228,0,0,0,1.4,0c3-.6,4.6-2.8,4.3-6,0-.3-.1-.6-.1-.9C31.1,41.1,31.3,41,31.5,41.3Z" fill="#f1c299"/>
        <path id="Path_43612" data-name="Path 43612" d="M30.2,61c.2.1.5.3.7.4a5.154,5.154,0,0,0,4.5.7,2.768,2.768,0,0,1,.9-.1,11.131,11.131,0,0,1-6.5,3.8,13.045,13.045,0,0,0,.4-4.8Z" fill="#c09c83"/>
        <path id="Path_43613" data-name="Path 43613" d="M35.4,32.3a2.9,2.9,0,0,1-1.5.9c.1-.7.8-.8,1.2-1.2C35.3,31.8,35.2,32.3,35.4,32.3Z" fill="#4c474a"/>
        <path id="Path_43614" data-name="Path 43614" d="M32.5,33.5a2.541,2.541,0,0,1,1.3-.5C33.4,33.3,33.1,33.6,32.5,33.5Z" fill="#f1c299"/>
        <path id="Path_43615" data-name="Path 43615" d="M32.6,34c-.3.1-.5.5-.9.2a.215.215,0,0,1,.2-.2.483.483,0,0,1,.7,0Z" fill="#6c5f55"/>
        <path id="Path_43616" data-name="Path 43616" d="M31,34.5c-.3.2-.6.1-.9.2.3-.2.6-.3.9-.5C31,34.3,31.1,34.4,31,34.5Z" fill="#907a6b"/>
        <path id="Path_43617" data-name="Path 43617" d="M31,34.5v-.3c.1,0,.2-.1.3-.1a.215.215,0,0,1,.2.2C31.4,34.6,31.2,34.5,31,34.5Z" fill="#746458"/>
        <path id="Path_43618" data-name="Path 43618" d="M31.5,34.3c-.1-.1-.2-.1-.2-.2.2-.1.4-.3.6-.2l-.2.2a.215.215,0,0,1-.2.2Z" fill="#bd9981"/>
        <path id="Path_43619" data-name="Path 43619" d="M34.9,111.6a1.135,1.135,0,0,1,.8.3,1.147,1.147,0,0,1-1-.1C34.9,111.7,34.9,111.6,34.9,111.6Z" fill="#b7957f"/>
        <path id="Path_43620" data-name="Path 43620" d="M32.2,108.5h.9a.755.755,0,0,1-.7.4.52.52,0,0,0-.2-.4Z" fill="#615557"/>
        <path id="Path_43621" data-name="Path 43621" d="M28.2,75c1.7,1.5,3.4,3.1,5.1,4.6.3.1.5.5.9.2,1.5-1.5,3.1-2.9,4.6-4.4-.2.7-.4,1.3-.6,2-.5,1.4-.9,2.9-1.5,4.3-.1.3-.2.8-.7.9-.7-2.1-.7-2.1-3-1.8-1,.1-2.1.2-3.1.3C29.3,79,28.7,77,28.2,75Z" fill="#acbcbb"/>
        <path id="Path_43622" data-name="Path 43622" d="M36.1,82.5c.7-1.5,1.2-3,1.8-4.5l.3-.6c-.6,2.3-1.2,4.6-1.8,6.8a5.079,5.079,0,0,1-.3-1.7Z" fill="#eaebeb"/>
        <path id="Path_43623" data-name="Path 43623" d="M37.7,104.7a1.7,1.7,0,0,0-.7.1c-.1-.3-.4-.1-.6-.3a1.481,1.481,0,0,1,1.3.2Z" fill="#313448"/>
        <path id="Path_43624" data-name="Path 43624" d="M34.1,97.8a2.817,2.817,0,0,1-1.1.4c.2-.4.6-.4.9-.5C34,97.7,34,97.7,34.1,97.8Z" fill="#746256"/>
        <path id="Path_43625" data-name="Path 43625" d="M36.6,99.2H35.2c.1-.3.3-.3.5-.3C36,99.2,36.5,98.9,36.6,99.2Z" fill="#7a6863"/>
        <path id="Path_43626" data-name="Path 43626" d="M34.2,106.5a6.493,6.493,0,0,1-2.2.5C32.7,106.1,33.5,106.5,34.2,106.5Z" fill="#474349"/>
        <path id="Path_43627" data-name="Path 43627" d="M35.3,106.5a.919.919,0,0,1,1-.2C35.9,106.4,35.6,106.6,35.3,106.5Z" fill="#aa9581"/>
        <path id="Path_43628" data-name="Path 43628" d="M38.5,54a5.849,5.849,0,0,1-1.4,2.4,3.788,3.788,0,0,1-1.5,0,19.806,19.806,0,0,0-4.2.3,10.526,10.526,0,0,1-3-3.6c.5-.2.9.1,1.4.1,1.8,1.3,3.9,1.1,6,.9a7.612,7.612,0,0,0,2.1-.3C38,53.9,38.3,53.8,38.5,54Z" fill="#f1c29a"/>
        <path id="Path_43629" data-name="Path 43629" d="M38.5,54a23.389,23.389,0,0,1-7,.4,2.194,2.194,0,0,1-1.8-1.1c1.3.1,2.7.3,4,.3a15.683,15.683,0,0,0,4.3-.4C38.9,53.1,38.8,53.5,38.5,54Z" fill="#f1c29a"/>
        <path id="Path_43630" data-name="Path 43630" d="M31.3,56.8c1.9-.9,3.8-.7,5.8-.4a3.8,3.8,0,0,1-5.8.4Z" fill="#f1c29a"/>
        <path id="Path_43631" data-name="Path 43631" d="M32.2,47c-.2,1-1,1.9.2,2.7C31,49.7,30.9,48.2,32.2,47Z" fill="#f1c29a"/>
        <path id="Path_43632" data-name="Path 43632" d="M34.3,79.7c-.5.7-.7.1-.9-.2C33.7,79.3,33.9,79.8,34.3,79.7Z" fill="#e8c29f"/>
        <path id="Path_43633" data-name="Path 43633" d="M30.7,49.5c-.2-.3-.2-.5,0-.7C31.1,49,31,49.2,30.7,49.5Z" fill="#efc593"/>
        <path id="Path_43634" data-name="Path 43634" d="M31.5,41.3c-.1,0-.3-.2-.4,0-.2,0-.3-.1-.4-.3A5.65,5.65,0,0,0,29,38.9c-.1-.1-.2-.2-.1-.4l.2-.2a5.11,5.11,0,0,1,2.4,3Z" fill="#f1c29a"/>
        <path id="Path_43635" data-name="Path 43635" d="M36.8,39.7l-.2-.2a4.355,4.355,0,0,1,2.2-1.6.52.52,0,0,0,.4.2A6.741,6.741,0,0,1,36.8,39.7Z" fill="#f1c29a"/>
        <path id="Path_43636" data-name="Path 43636" d="M36.8,39.7A10.392,10.392,0,0,1,39.2,38a9.721,9.721,0,0,1,3.4-.1c3,.6,3.9,3.7,3.6,5.8a5.235,5.235,0,0,1-4.7,4.8c-2.6.5-5.7-2-5.9-4.7a6.983,6.983,0,0,1,1.2-4.1Z" fill="#f0c29a"/>
        <path id="Path_43637" data-name="Path 43637" d="M28.9,38.6a6.721,6.721,0,0,1,2.2,2.8c.3,1.6.5,3.2-.5,4.6a4.61,4.61,0,0,1-3.9,2.5,7.519,7.519,0,0,0-1.5,0,4.489,4.489,0,0,1-4-3.2c-.2-.5-.1-1.1-.3-1.6a2.917,2.917,0,0,1,.1-1.6,11.929,11.929,0,0,1,2.1-2.9l.6-.6c.2-.3.6-.3.7-.7a6.4,6.4,0,0,1,4.5.7Z" fill="#f1c29a"/>
        <path id="Path_43638" data-name="Path 43638" d="M23.2,39.4a3.561,3.561,0,0,0-1.4,1.8,4.7,4.7,0,0,1-.6.9c-.5-.3-.1-.7-.1-1a3.128,3.128,0,0,1,.5-1,2.651,2.651,0,0,1,.5-.6,2.415,2.415,0,0,1,1.8-1.3c.2.3-.2.4-.2.6C23.6,39,23.2,39,23.2,39.4Z" fill="#deb594"/>
        <path id="Path_43639" data-name="Path 43639" d="M21.2,40.9c0,.4-.2.7,0,1.1-.3.5-.1,1.1-.1,1.6,0,.3.3.6-.2.8a.6.6,0,0,0-.1-.4,5.437,5.437,0,0,1,0-1.8,1.8,1.8,0,0,1,.3-1.2.1.1,0,0,1,.1-.1Z" fill="#443f51"/>
        <path id="Path_43640" data-name="Path 43640" d="M25.2,48.5a1.363,1.363,0,0,1,1.5,0A1.594,1.594,0,0,1,25.2,48.5Z" fill="#f8bf90"/>
        <path id="Path_43641" data-name="Path 43641" d="M20.9,44.4c.3-.2.1-.5.2-.8a4.735,4.735,0,0,1,.1,1.7C20.9,45.1,20.9,44.8,20.9,44.4Z" fill="#796f6b"/>
        <path id="Path_43642" data-name="Path 43642" d="M21.2,40.9h-.1a1.881,1.881,0,0,1,.5-1.1c.2,0,.3,0,.2.2a2.034,2.034,0,0,1-.6.9Z" fill="#4b4747"/>
        <path id="Path_43643" data-name="Path 43643" d="M20.8,42.2V44a2.775,2.775,0,0,1,0-1.8Z" fill="#515054"/>
        <path id="Path_43644" data-name="Path 43644" d="M23.6,38.7c.1-.2.4-.3.4-.6,0-.1.2-.1.4-.1.1.5-.3.6-.6.8C23.7,38.8,23.6,38.8,23.6,38.7Z" fill="#4e4b53"/>
        <path id="Path_43645" data-name="Path 43645" d="M21.8,40l-.2-.2c.1-.3.2-.5.5-.4A.855.855,0,0,1,21.8,40Z" fill="#5b5457"/>
        <path id="Path_43646" data-name="Path 43646" d="M33.6,56.6h2.5v.1a20.081,20.081,0,0,1-2.5-.1Z" fill="#f1c299"/>
        <path id="Path_43647" data-name="Path 43647" d="M33.5,57.4c.7-.2,1.3,0,2-.2C34.9,57.7,34.2,57.4,33.5,57.4Z" fill="#f1c299"/>
        <path id="Path_43648" data-name="Path 43648" d="M38.5,43.4a1.181,1.181,0,0,1,1-1.3c.5-.1,1,.6,1.1,1.4,0,.8-.5,1.5-1.1,1.5C38.9,44.9,38.5,44.3,38.5,43.4Z" fill="#f1c29a"/>
        <path id="Path_43649" data-name="Path 43649" d="M40.8,40.8a4.785,4.785,0,0,0-2.9,0c-.2.1-.4.2-.4-.2a2.852,2.852,0,0,1,3.5,0C41.1,40.8,41.1,40.9,40.8,40.8Z" fill="#f1c299"/>
        <path id="Path_43650" data-name="Path 43650" d="M37.6,40.6c.1.2.2.2.4.2-.3.1-.5.3-.8.4C37.1,40.8,37.4,40.7,37.6,40.6Z" fill="#f1c29a"/>
        <path id="Path_43651" data-name="Path 43651" d="M40.8,40.8c.1-.1.2-.1.2-.2.2.1.5.2.3.4C41.2,41.2,41,40.9,40.8,40.8Z" fill="#f1c29a"/>
        <path id="Path_43652" data-name="Path 43652" d="M27.6,42.1a1.856,1.856,0,0,1,.6,2.2c-.2.4-.4.7-.9.7a1.068,1.068,0,0,1-.9-.7,1.773,1.773,0,0,1,.7-2.2C27.3,41.9,27.4,41.9,27.6,42.1Z" fill="#f1c29a"/>
        <path id="Path_43653" data-name="Path 43653" d="M29,40.9a4.7,4.7,0,0,0-4,.2,2.543,2.543,0,0,1,4-.2Z" fill="#f1c29a"/>
        <path id="Path_43654" data-name="Path 43654" d="M23.6,38.7h.2l-.6.6C23,39,23.4,38.9,23.6,38.7Z" fill="#6b5b54"/>
        <path id="Path_43655" data-name="Path 43655" d="M27.6,42.1h-.5c0-.4.3-.1.4-.2C27.7,41.9,27.7,42,27.6,42.1Z" fill="#ebc5a6"/>
        <path id="Path_43656" data-name="Path 43656" d="M38.5,29.2a13.891,13.891,0,0,1-10.2,6.3s-2.5,1-2.7,1.8c0,0-4.9,3.3-3.9,10.9A22.12,22.12,0,0,0,30.2,61c7.3,5.5,14.2-7.9,14.2-7.9a23.329,23.329,0,0,0,.8-17.4h3.5l.9,6.5L48.2,53.9l-6,7.6s-9.6,7.1-17.2-1-7-20.7-7-20.7l11-9.4Z" fill="#323441"/>
        <path id="Path_43657" data-name="Path 43657" d="M37.5,63.7s-.2-1.7-.3-2.5a5.792,5.792,0,0,1-6.9-.4,13.21,13.21,0,0,1,0,3,6.156,6.156,0,0,1-.6,2.4C29.7,66.1,36.8,65.9,37.5,63.7Z" fill="#f1c299"/>
        <path id="Path_43658" data-name="Path 43658" d="M34,33.3s7.7-4.6,12.3,5.3l1.6-1.4s-4-10.5-10.9-8.8Z" fill="#323441"/>
        <path id="Path_43659" data-name="Path 43659" d="M20.3,29.8s3.4-7.7,14.3-7.5,13,7.5,13,7.5l1.1,5.9L32.6,29.9,20.9,35.7Z" fill="#323441"/>
        <g id="Group_6263" data-name="Group 6263">
          <g id="Group_6261" data-name="Group 6261">
            <path id="Path_43660" data-name="Path 43660" d="M18.4,98.5h0c-.1-.2-.1-.3-.2-.5h0a20.844,20.844,0,0,0-2.1-3.4,1.4,1.4,0,0,1,1.3-1.1,44.758,44.758,0,0,1,2.4,4.1s2.9,6.5,5.2,8.6a.5.5,0,0,1,.5-.1c.3.1,1.1,1.3.7,1.6a1.41,1.41,0,0,1-1.4.1C24.3,107.6,22,106.6,18.4,98.5Z" fill="#b2bdbb"/>
            <path id="Path_43661" data-name="Path 43661" d="M24.8,70.9l.6-1.6c-8.3,1.1-8,11.5-7.5,15.6-1,.4-1.9,1.3-2.5,3.2-1.2,4.3.7,6.7.7,6.7a1.355,1.355,0,0,1,1.2-1,7.37,7.37,0,0,1-.6-5.2c.8-3.1,3.7-2.4,4.6-1.8.8.6,1.6,3.8,1.2,5.6a1.238,1.238,0,0,1,1.5,0s.6-7.1-3.7-7.8a3.385,3.385,0,0,0-1.1,0C18.3,71.1,24.8,70.9,24.8,70.9Z" fill="#3a4f6e"/>
            <path id="Path_43662" data-name="Path 43662" d="M21.6,106.9a.906.906,0,0,0-.8-.7c-.7-.1-1.8-.2-2,.5-.3.7-.2,1.9.7,2.1s1.8.4,1.9-.1a3.948,3.948,0,0,0,.2-1.8Z" fill="#595353"/>
            <path id="Path_43663" data-name="Path 43663" d="M23.8,96.8h0v-.5h0a23.325,23.325,0,0,1,.3-3.9s-.6-.9-1.5,0a18.864,18.864,0,0,0-.4,4.4s.4,7.1-.7,10a.52.52,0,0,0-.5.1c-.3.2-.4,1.7.1,1.7a1.612,1.612,0,0,0,1.3-.6C22.7,107.6,24.3,105.6,23.8,96.8Z" fill="#becac8"/>
            <path id="Path_43664" data-name="Path 43664" d="M25,106.5a.746.746,0,0,1,.4-.9c.6-.4,1.4-1,2-.5s1.1,1.6.3,2.2-1.4,1.2-1.7.8C26,108.1,25,107.1,25,106.5Z" fill="#595353"/>
            <path id="Path_43665" data-name="Path 43665" d="M24,69.6a2.743,2.743,0,0,1-.6,1.7,3.279,3.279,0,0,1,1.4-.4l.6-1.6A5.824,5.824,0,0,0,24,69.6Z" fill="#2e405a"/>
          </g>
          <g id="Group_6262" data-name="Group 6262">
            <circle id="Ellipse_1507" data-name="Ellipse 1507" cx="3.6" cy="3.6" r="3.6" transform="translate(40.3 92)" fill="#6f7978"/>
            <circle id="Ellipse_1508" data-name="Ellipse 1508" cx="3.6" cy="3.6" r="3.6" transform="translate(38.919 95.306) rotate(-45)" fill="#9aa4a3"/>
            <path id="Path_43666" data-name="Path 43666" d="M42.3,69.2l.6,1.6s3.2.5,3.4,8.8c.1,8.3-2.4,13.2-2.4,13.2a2.536,2.536,0,0,1,1.9,1.1s2.7-9.2,2.1-16.3C47.5,73.7,46.3,69.9,42.3,69.2Z" fill="#3a4f6e"/>
            <circle id="Ellipse_1509" data-name="Ellipse 1509" cx="2.6" cy="2.6" r="2.6" transform="translate(41.4 92.4)" fill="#848d8d"/>
            <path id="Path_43667" data-name="Path 43667" d="M43.5,92.9a7.839,7.839,0,0,0,.8-1.8s1.6-.3,2.2.8c0,0-.4,1.8-.6,2.3C45.9,94.1,45.4,93,43.5,92.9Z" fill="#becac8"/>
            <path id="Path_43668" data-name="Path 43668" d="M41.7,94.9A2.3,2.3,0,1,1,44,97.2a2.473,2.473,0,0,1-2.3-2.3Z" fill="#becac8"/>
            <path id="Path_43669" data-name="Path 43669" d="M42.6,94.5a1.6,1.6,0,1,1,1.6,1.6,1.58,1.58,0,0,1-1.6-1.6Z" fill="#e4f4f3"/>
            <path id="Path_43670" data-name="Path 43670" d="M43.4,69.5a2.342,2.342,0,0,0-.1,1.4,2.269,2.269,0,0,0-.4-.1l-.6-1.6a9.684,9.684,0,0,1,1.1.3Z" fill="#2e405a"/>
          </g>
        </g>
        <path id="Path_43671" data-name="Path 43671" d="M40.7,69.1c.1-.3.2-.6.3-1a12.455,12.455,0,0,0,1.9,1.5,11.849,11.849,0,0,0,2.5,2.5c.4.4.4.7.1,1a1.676,1.676,0,0,1-.3,1.2c-2.4,4.2-4.7,8.5-7.1,12.7-.2.3-.3.8-.8.8a22.011,22.011,0,0,1-.7-3.7,15.253,15.253,0,0,1,.8-3.7,28.063,28.063,0,0,0,.8-3.1,16.553,16.553,0,0,1,.6-2.1c.5-1.7.9-3.4,1.4-5.1a1.107,1.107,0,0,1,.5-1Z" fill="#fff"/>
        <path id="Path_43672" data-name="Path 43672" d="M30,81a19.727,19.727,0,0,1-3.5.4c-.4.1-.6-.3-.8-.5-1.2-2.1-2.4-4.3-3.6-6.5a.9.9,0,0,1-.1-.5c-.1-.2-.1-.4-.2-.5a.985.985,0,0,1,.2-1.6c.7-.6,1.2-1.3,1.9-1.8a1.242,1.242,0,0,0,.6-.8c.2-.2.4-.3.5-.5.9-.9.9-.9,1.4.3a4.539,4.539,0,0,1,.8,2.3c.4,1.2.7,2.4,1,3.6A49.128,49.128,0,0,0,29.7,80C30.1,80.3,30.3,80.7,30,81Z" fill="#fff"/>
        <path id="Path_43673" data-name="Path 43673" d="M23.8,111.8c-1.1-2.4-2.2-4.7-3.2-7.1-.2-.4-.6-.8-.2-1.3.6-.2,1.3-.5,1.9-.7,1.2-.5,1.2-.5,1.8.7.9,1.6,1.4,3.3,2.4,4.8a4.552,4.552,0,0,0,.8,1.9c.1.2.3.5.1.6C26.1,111,25,111.7,23.8,111.8Z" fill="#fff"/>
        <path id="Path_43674" data-name="Path 43674" d="M18.6,104.5c.1-1.1.9-1.1,1.7-1.3.8,2.3,2,4.5,2.9,6.7.3.6.7,1.1.5,1.8-.7.2-1.5.5-2.2.7.2-.5-.1-.9-.2-1.3-.7-2-1.4-3.9-2.2-5.9a.64.64,0,0,0-.5-.7Z" fill="#acbcbb"/>
        <path id="Path_43675" data-name="Path 43675" d="M24,103.3a.548.548,0,0,0,.6-.4c1.5-4.2,5.1-5.4,8.9-6.3.6-.1,1.1-.2,1.6.4a7.46,7.46,0,0,0-1.2.7.536.536,0,0,1-.4.3c.2-.1.4,0,.6-.1.7-.1,1.4-.3,2-.4.2,0,.6-.1.7.2.2.3-.1.6-.3.8-.3.2-.5.4-.8.6-.2.2,0,.2.1.2.2,0,.5-.1.7.1.2.9-.7,1-1,1.6.2.3.7-.2.8.3.1.4-.3.6-.5.8a6.034,6.034,0,0,1-.8.8c.4.2.8-.4,1,0,.2.3-.3.6-.5.9a4.62,4.62,0,0,1-.7.7,8.177,8.177,0,0,1-.9.8,11.081,11.081,0,0,0,2.8-.4c.2-.2.5-.1.7-.1a6.15,6.15,0,0,1,2.7,0,20.16,20.16,0,0,1,3.2,1.8,2.532,2.532,0,0,0,2.5.4.713.713,0,0,1,.3.6c-.2,1.4,0,2.9-.3,4.3a.864.864,0,0,1-.3.6,8.456,8.456,0,0,0-3.5,1.1c-2.7.8-5.2-.2-7.7-1-.3-.1-.8-.2-.7-.6.1-.5.6-.2.9-.3.3.1.6,0,.7.1.3,0,.2-.2.2-.1h0c-.3.1-.5-.1-.7-.2l-1.2-.3c-.3-.1-.8-.2-.8-.5,0-.5.5-.4.9-.6a4.951,4.951,0,0,1-1.3-.4c-.7-.2-.9-.6-.1-1,0-.1.2-.1.2-.2-.1,0-.3-.1-.4-.1-.5-.1-1.1-.1-1.3-.8-.1-.3-.3-.1-.5-.1a27.107,27.107,0,0,1-4,.4c-.4.1-.5-.2-.6-.5l-1.8-3.9C23.9,103.6,23.9,103.4,24,103.3Z" fill="#f1c199"/>
      </g>
      <g id="Group_6265" data-name="Group 6265" clip-path="url(#clip-path)">
        <path id="Path_43676" data-name="Path 43676" d="M89.8,64.4s-.1,22.7-2.7,25.5l-5,4.8,2.1,2.1a17.868,17.868,0,0,0,5.9-6s4.2,4.9,7.1,6.5l1.9-1.6S92.6,90.6,93,75.4c0-.9.3-8.3.3-8.3s5.1,1,7.9.3l1.1-.8s-1.2-1.5.8-1.2c0,0,1.7-1.8-.6-1.3a6.46,6.46,0,0,1-8.3.5c-4.6-3.2-1.8-12.8-1.8-12.8s2-.8.3-1.6c0,0-.3,1.8-2.3.6,0,0-.9-1-.8,1.9,0,0,1.3,7.3-2.1,10.7C87.5,63.3,87.7,64.7,89.8,64.4Z" fill="#ddbfd9"/>
        <path id="Path_43677" data-name="Path 43677" d="M103.3,71.4s8-5.5,1.4-9.1l-2.2,1.6A8.236,8.236,0,0,1,99.2,70C96,72.2,103.3,71.4,103.3,71.4Z" fill="#deb086"/>
        <path id="Path_43678" data-name="Path 43678" d="M62.2,78c-.4-.2-.8-.4-.8-.9-.3-.3-.7-.5-.9-.9a10.986,10.986,0,0,1-.9-1.4c-.4-.4-.4-1.1-.7-1.5a8.8,8.8,0,0,1-.5-1.5c-.1-.4-.3-.7-.4-1.1a14.345,14.345,0,0,1-.4-2.2,6.542,6.542,0,0,1-.2-2.8c-.1-.5.8.7.5-.3a6.923,6.923,0,0,1,.4-3.5,20.841,20.841,0,0,1,7.2-11.7,31.326,31.326,0,0,1,3.2-1.5,8.278,8.278,0,0,1,5.6.2,3.545,3.545,0,0,0,1.1.3h.1a9.863,9.863,0,0,1,3.4,7.6c0,3.2-1.4,5.4-4.3,6.5a14.988,14.988,0,0,1-3.2,1c.3.7.7,1.4.3,2.2a1.323,1.323,0,0,0,.2,1.2c.2.4.5.9.2,1.2-.9,1-.3,1.9.1,2.8a5.657,5.657,0,0,1,.7,3.1,5.588,5.588,0,0,1-6.7,4.6C64.7,79.4,63.5,78.6,62.2,78Z" fill="#f8d7b5"/>
        <path id="Path_43679" data-name="Path 43679" d="M100.7,61.4c-.2-.3-.3-.7-.5-1-2-5-1-8.9,3-11.6a12.381,12.381,0,0,1,3.8-1.4,12.253,12.253,0,0,1,1.9-.2,4.552,4.552,0,0,1,2,.5,8.865,8.865,0,0,1,1.7.8,6.071,6.071,0,0,1,1,.7c7.8,7.2,5.8,19.8-1.2,26-2.2,2-5.7,3.3-8.4.8a2.286,2.286,0,0,1-.7-1,1.854,1.854,0,0,1-.2-.7,5.578,5.578,0,0,1,2-5.3c.6-.6,1.1-1.1.7-2.1-.2-.5.3-1,.2-1.6-.1-.5-.2-.9-.7-1.1-.3-.2-.6.1-.9.2H104a.758.758,0,0,1-.4-.2c-.3-.5-.9-.9-1.2-1.4-.1-.1-.2-.1-.3-.2a3.325,3.325,0,0,0-1.4-1.2Z" fill="#f8d7b5"/>
        <path id="Path_43680" data-name="Path 43680" d="M104,75.8c4,2.8,7.4.4,9.8-2.5,4.3-5.4,5.6-11.6,3.3-18.2-.8-2.3-2.4-3.9-3.9-5.7a.471.471,0,0,1,.6-.1,5.731,5.731,0,0,1,1.1,1.1c.5.1.9.3.9.9a5.391,5.391,0,0,1,1.4,1.6,3.491,3.491,0,0,0,1.2,1.5v.1a2.127,2.127,0,0,0,.7,1.5h0a3.486,3.486,0,0,0,.6,1.7l.1.1v.1a35.051,35.051,0,0,1,.3,5.6c0,.6.4,1.1,0,1.7a6.007,6.007,0,0,0-.7,2.7c-.1.3-.3.6-.4.9a11.938,11.938,0,0,0-.8,1.6,10.906,10.906,0,0,1-.6,1.1c-.3.4-.5.9-.7,1.2a8.65,8.65,0,0,1-.7,1c-.2.6-.7.9-1.1,1.3,0,1.4-1.4,1.6-2.2,2.2-.5.2-.9.7-1.6.7h-.1c-.5.6-1.2.5-1.8.8a9.653,9.653,0,0,1-1.7,0c-.7-.1-1.4-.4-2.2-.5l-.1-.1a6.122,6.122,0,0,1-1.7-1.5C103.9,76.2,103.9,76,104,75.8Z" fill="#deb085"/>
        <path id="Path_43681" data-name="Path 43681" d="M86.5,90.4a22.363,22.363,0,0,1-.7-5.1l.3-20.4V64a19.411,19.411,0,0,0,1,1.7V66a18.8,18.8,0,0,1-.2,4.1V83.2a14.473,14.473,0,0,0-.1,3.6,2.854,2.854,0,0,1,0,1.3c-.1.6.5,1.3.1,1.9Z" fill="#d2775f"/>
        <path id="Path_43682" data-name="Path 43682" d="M112,48.2s9.6,3.5,8.1,16.3c0,0-2,14.6-12.2,13.9,0,0-3.8-.2-4.7-3.4,0,0,6.1,5.2,11.4-3.1s3.2-14.2,3.2-14.2S117.5,52.5,112,48.2Z" fill="#deb085"/>
        <path id="Path_43683" data-name="Path 43683" d="M75.4,49.3s-9.1-6.2-16.8,7.5c0,0-5.2,12.3,2.7,20.2l1,1.1s4-10.9,4.3-11.3C67,66.6,75.4,49.3,75.4,49.3Z" fill="#f8d7b5"/>
        <path id="Path_43684" data-name="Path 43684" d="M75.4,49.3s8.3,5.3,1.8,13.7c0,0-1.9.3-1.9,1.3,0,0,8.1,5,4.8,24.6l-.4.2s1-17.8-3-21.4c0,0-2.9-2.9-2.9,2.8v.4l-1-1.1s3.3,7.9-2.4,10.1-8-1.8-8-1.8l.2-.4s4.2,3.1,7.7.6,1.3-6.8,1.3-6.8a1.708,1.708,0,0,1,.3-2.7s-1-.5-.6-3c0,0,.1-1.5-1.1-1.7,0,0,4.5-.6,6.3-2.3S80.3,55.1,75.4,49.3Z" fill="#deb086"/>
        <path id="Path_43685" data-name="Path 43685" d="M100,75.1s-2.7-.6-3.5,29.7v1.5H95.4S93,79.3,99.2,70c0,0,2.9-.9.8,3.6Z" fill="#f2d2b0"/>
        <path id="Path_43686" data-name="Path 43686" d="M98.6,78.5s2-5.8,4.5-6.9c0,0,1.2-1.5-.1-1.8l-.6-.4L100,70s.9.4.2,2.4S98.3,76.5,98.6,78.5Z" fill="#d3a982"/>
        <path id="Path_43687" data-name="Path 43687" d="M73.8,71.1s6.4,3.3,3.8,35.3h1s4-30.3-.6-36.4c0,0-1.4-3.5-3.4-2.7C72.7,68,73.8,71.1,73.8,71.1Z" fill="#f6d6b4"/>
        <path id="Path_43688" data-name="Path 43688" d="M83.2,77.2s1.4,7.9-3.1,13.5a29.1,29.1,0,0,1-6.5,3.8s-1.3,1.1.3,2.4A1.434,1.434,0,0,0,76,98c1.8-.7,4.4-4.7,4.4-4.7l4.4-4.7s-.2,5,4.4,6.9c0,0,2.1-1,.6-2.3a10.893,10.893,0,0,1-3.9-9.8c.4-5.6.4-19.5.4-19.5s1.8,9.1,15.6,5.2l1.7,1,.5-1s-2-1.4,1.7-1.7l-.7-.8a6.036,6.036,0,0,1-2.7-.3S93.5,72,87.7,63.9c0,0-3.7-4.7-.8-13.1,0,0-1.7.5-2.5-.4,0,0,.9,13.2-4.6,13.1l-4.3.4,1,.9s2.8-.2,2.6.1a13.086,13.086,0,0,1-1.6,1.3l.8,1.5s2.9-3.8,5.4-4.5Z" fill="#f2ab8f"/>
        <path id="Path_43689" data-name="Path 43689" d="M86.8,50.9s-1,9.4,1.3,13.7C88.1,64.7,84.1,60.3,86.8,50.9Z" fill="#d2775f"/>
        <path id="Path_43690" data-name="Path 43690" d="M86.3,64.3s-1.8,22.8.6,26.1c0,0-.2-21.8.2-24.4Z" fill="#d2775f"/>
        <path id="Path_43691" data-name="Path 43691" d="M84.7,88.8a4.486,4.486,0,0,0,.5,2.6s-3.7,3.6-5.5,3.8l.1-1.1Z" fill="#d2775f"/>
        <path id="Path_43692" data-name="Path 43692" d="M92.9,51s-1.2,10.7,1.2,13.5c0,0-4.5-.4-2.9-6.9a57.1,57.1,0,0,0,.5-6Z" fill="#bc80aa"/>
      </g>
    </g>
  </g>
</svg>
