<svg xmlns="http://www.w3.org/2000/svg" xmlns:xlink="http://www.w3.org/1999/xlink" width="117.2" height="117.199" viewBox="0 0 117.2 117.199">
  <defs>
    <linearGradient id="linear-gradient" y1="0.5" x2="1" y2="0.5" gradientUnits="objectBoundingBox">
      <stop offset="0" stop-color="#ebebeb"/>
      <stop offset="1" stop-color="#fff"/>
    </linearGradient>
    <clipPath id="clip-path">
      <circle id="Ellipse_1513" data-name="Ellipse 1513" cx="58.6" cy="58.6" r="58.6" transform="translate(8.2 8.8)"/>
    </clipPath>
  </defs>
  <g id="neurologist" transform="translate(-8.2 -8.801)">
    <circle id="Ellipse_1512" data-name="Ellipse 1512" cx="58.6" cy="58.6" r="58.6" transform="translate(8.2 8.8)" fill="url(#linear-gradient)"/>
    <g id="Group_6347" data-name="Group 6347">
      <g id="Group_6346" data-name="Group 6346" clip-path="url(#clip-path)">
        <path id="Path_43693" data-name="Path 43693" d="M73.2,123.9c.3.5,5.8,4,5.3,4.1H14.4s14.9-10.2,17.5-11.9,7.9-6.2,8.2-7c0-.1.1-.1.1-.2.2-.2.4-.3.5-.5.6-.8,1.2-1.5,1.8-2.3.6-.7,1.2-1.5,1.8-2.2a1.1,1.1,0,0,0,0-.8c-.2-.5,0-.8.4-1.1a2.506,2.506,0,0,0,.7-.4c.7-.3.8-1.1,1-1.7a7.772,7.772,0,0,0,.2-1.6c.1-.3.2-.7.3-1v-.1a.638.638,0,0,1,0-.6c.1-.1.1-.2.2-.3a.749.749,0,0,0,.1-.5,1.72,1.72,0,0,1,.1-1.4,2.2,2.2,0,0,0,.1-.8c-.1-1.5-.1-2.9-.3-4.4a4.264,4.264,0,0,0-.6-1.8,11.2,11.2,0,0,1-.9-2.2,12.147,12.147,0,0,0-.9-2c-.6-1.1-1.2-2.3-1.8-3.4a8.34,8.34,0,0,0-.8-1.2h0c-.1,0-.2,0-.2-.1-.3-.7-.6-1.3-.9-2v-.1a4.286,4.286,0,0,1-1.2-2.3c0-.1-.1-.1-.2-.2-.3-.1-.5-.3-.4-.6a.367.367,0,0,0-.1-.3,5.277,5.277,0,0,1-.8-2.2,17.378,17.378,0,0,0-1-1.9l-.1-.1c-.4-.9-.7-1.8-1.1-2.7-.1-.2-.3-.4-.4-.6-.5-1.3-1.1-2.7-1.6-4a4.961,4.961,0,0,1-.3-1.3,21.579,21.579,0,0,0-.5-2.7,7.367,7.367,0,0,1-.4-1.4,19.269,19.269,0,0,0-.1-2.4c-.1-.5.1-.7.2-1.1.1-.3,0-.6.1-.9a13.545,13.545,0,0,0,.8-4,.215.215,0,0,0-.2-.2c-.2,0-.5-.2-.5-.4h0c0-.1-.1-.1-.2,0l-.2.2a.1.1,0,0,1-.1-.1c0-.2.1-.4.1-.6,0-.1-.1-.1-.1,0-.1.1-.2.1-.3.2s-.2,0-.2-.1c0-.7.1-1.3.1-1.9a.1.1,0,0,0-.1-.1l-.2.1c-.1,0-.1,0-.1-.1.1-.2.1-.4.2-.6,0-.1.1-.3,0-.4-.7-.6.1-1,.2-1.5,0-.1.2-.2.3-.3v-.1c.1-.3.2-.5.3-.8.5-.6.7-1.5,1.3-2.1A21.454,21.454,0,0,0,36,36.5c.5-.8,1-1.7,1.5-2.6a2.073,2.073,0,0,0-.6.2l4.5-4.2h0c-.2.1-.5.1-.7.2.8-.9,1.5-1.7,2.3-2.5h-.6a5.236,5.236,0,0,1,1.9-1.1c.1,0,.1-.1.2-.1,1-1.4,2.5-1.6,3.8-2,.4-.1.9,0,1-.6a.31.31,0,0,0,.2-.1c2-.5,4-1.1,6-1.5a7.943,7.943,0,0,1,2.2-.1c.8-.1,1.6-.2,2.5-.3a.1.1,0,0,0,.1-.1v-.1c-.2,0-.5-.1-.7-.1a2.152,2.152,0,0,1-.8,0,.9.9,0,0,1,.5-.1c1.4-.1,2.7-.2,4.1-.3l2.4-.3c.3,0,.5-.4.8-.4,1-.1,2-.2,2.9-.2a9.317,9.317,0,0,1,3.9,1.2,7.273,7.273,0,0,0,2.9.7,1,1,0,0,1,.4.1c.1.1.2.2.3.2,1,.2,1.9.3,2.9.6a15.546,15.546,0,0,1,2.3.8c1.3.6,2.6,1.3,3.9,1.9a22.877,22.877,0,0,0,2.3,1,10.486,10.486,0,0,1,4.4,3,4.129,4.129,0,0,1,.7,1.1h0a4.594,4.594,0,0,1,.7,1.6c.1.2.1.5.2.7,0,.2.1.3.1.5,0,.4-.2.9-.2,1.3a9.719,9.719,0,0,1-1,3.7,1.379,1.379,0,0,0,0,.9c.1-.1.1-.2.2-.3-.2.7.1,1.5-.6,2.3.3.5.7,1,1.1,1.6.6.9,1.1,1.9,1.7,2.8V46c1,1.8,1.2,3.9,1.7,5.9.3,1,.5,2.1.7,3.1a5.7,5.7,0,0,1,.1,1.3,5.537,5.537,0,0,0,.2,1.8,1.756,1.756,0,0,1-.2,1.4A17.675,17.675,0,0,1,97,61.2a2.752,2.752,0,0,0,0,2.5s6.2,8.3,7.5,10.2c.1.1.1.2.2.3v.1a2.261,2.261,0,0,1-1,2.8,7.74,7.74,0,0,1-1.6.7,2.806,2.806,0,0,0-2.1,2.9,15.038,15.038,0,0,0,0,3c.1.8-.5,1.4-1,2l-.3.3h0c.9,1.4.3,2.6-.4,3.8a6.115,6.115,0,0,0-1,3.3,7.833,7.833,0,0,1-1.5,4.5,7.945,7.945,0,0,1-1.4,1.8,4.254,4.254,0,0,1-3.9,1.2c-2.2-.3-4.4-.9-6.5-1.3a11.136,11.136,0,0,0-1.7-.2c-.7,0-1,.4-1.2,1.1a11.219,11.219,0,0,1-1.6,4.3c-.5.8-1.1,1.5-1.5,2.3-.7,1.2-1.2,2.5-1.8,3.7l-1.5,2.7c0,.1-.1.1-.1.2-.1.2-.2.5-.4.6-.1.1-.2.2-.2.3-.8,1.3-1.6,2.6-2.4,4-.5.8-1,1.6-1.4,2.4a1.292,1.292,0,0,0,.5,1.6c.2.1.3.3.4.4.2.4.6.8,1,.7.5,0,.8-.1,1.1.5" fill="#f5bc94"/>
        <g id="Group_6345" data-name="Group 6345">
          <path id="Path_43694" data-name="Path 43694" d="M53.2,69.1a6.238,6.238,0,0,1,.2-4c.1-.2-.1-.4-.3-.5-1.9-.4-8.8-2.2-8.9-8.2,0-.1-.1-.3-.2-.3a9.293,9.293,0,0,1-4.2-7.9c-.1-5.8,4.5-17.4,20.3-20.1s27.2,7.7,28.5,15.8c1.2,7.3-7.1,9.4-8.8,9.8-.2,0-.3.2-.3.4-.1,1.3-1,6.3-11.8,5.2-.2,0-.4.1-.4.3-.4,1.2-2.3,5.6-9.4,5.4a.367.367,0,0,0-.3.1,16.423,16.423,0,0,0-3.7,4.2.4.4,0,0,1-.7-.2Z" fill="#fee689" stroke="#f38baf" stroke-miterlimit="10" stroke-width="2"/>
          <g id="Group_6267" data-name="Group 6267">
            <path id="Path_43695" data-name="Path 43695" d="M44,56a6.125,6.125,0,0,1-.6-.4,6.47,6.47,0,0,1,.8.9v-.1A.52.52,0,0,0,44,56Z" fill="#ffc809"/>
            <path id="Path_43696" data-name="Path 43696" d="M90.1,45.3c-.5-3.2-2.6-6.7-5.9-9.7a16.218,16.218,0,0,1,4.4,8.2c1.2,7.3-7.1,9.4-8.8,9.8-.2,0-.3.2-.3.4-.1,1.3-1,6.3-11.8,5.2-.2,0-.4.1-.4.3-.4,1.2-2.3,5.6-9.4,5.4a.367.367,0,0,0-.3.1,17.063,17.063,0,0,0-3.1,3.3,5.488,5.488,0,0,0,.2,2.3c.1.3.6.4.7.1a16.423,16.423,0,0,1,3.7-4.2.367.367,0,0,1,.3-.1c7.1.2,9-4.2,9.4-5.4.1-.2.2-.3.4-.3C80,61.8,81,56.8,81,55.5c0-.2.1-.3.3-.4C83,54.7,91.3,52.6,90.1,45.3Z" fill="#f05162" opacity="0.2"/>
            <path id="Path_43697" data-name="Path 43697" d="M53.1,64.6a14.853,14.853,0,0,1-6-2.6,11.752,11.752,0,0,0,6.1,3.7c.1-.2.1-.4.2-.6a.382.382,0,0,0-.3-.5Z" fill="#f05162" opacity="0.2"/>
          </g>
          <g id="Group_6344" data-name="Group 6344" opacity="0.86">
            <g id="Group_6269" data-name="Group 6269">
              <g id="Group_6268" data-name="Group 6268">
                <path id="Path_43698" data-name="Path 43698" d="M43.9,46.9c-.1-.6.5-.7.3-1.2a3.233,3.233,0,0,1,.3-3.8c.7-1.2,1.7-1.6,3.1-2.1.1-.1-.3-1.6.1-2.2A3.839,3.839,0,0,1,49,36.1c1.3-.8,1.9-.1,2.1-1,1.1-3.8,5.6-2.8,6.7-2.8,1.2-.1,2.2-2.1,4.2-1.6.1,0,1.5.7,1.7.7,1.1.1.6-.2,2.4-.5a10.445,10.445,0,0,1,2.5,0c.4,0,.9.7,1.4.8.6.1,1.1-.1,1.7,0,.8.1,1.4,1.2,1.6,1.2a6.688,6.688,0,0,1,3.1.2A3.82,3.82,0,0,1,77.9,35a11.185,11.185,0,0,1,4.3,1.5c1.5,1.2,2.1,1.5,2.1,5.4,2.2,2.1,1.9,3.6.5,4.5,0,0-.9,2.7-1.1,3-.5.6-2.2,0-3.2.3-.9.3-.9,1.1-2.5,1.5a17.191,17.191,0,0,1-2.6-.2,2.438,2.438,0,0,1,0,1.2A4.329,4.329,0,0,1,73.7,55c-.7.5-2.7.4-3.6.1,0-.4-.2.2-.4.5-1.6,1.5-3,.9-3.9-.4-.2-.3.2.5,0,.6a3.42,3.42,0,0,1-4,0c-1.5-.2-.9,1.6-2.8,3.4a1.273,1.273,0,0,1-2-.1c-.9,2.6-4.4,1.2-5.3.8-.8-.3-1.2-1.8-1.7-2.5-.2-.2-2.9.6-1.4-3.7.1-.2-.6-.3-1.5-.6a5.45,5.45,0,0,1-1.9-.8,5.224,5.224,0,0,1-1.4-2.5C43.5,48.9,44,47.8,43.9,46.9Z" fill="#f26b7a"/>
              </g>
            </g>
            <g id="Group_6270" data-name="Group 6270">
              <path id="Path_43699" data-name="Path 43699" d="M76.6,41.8a3.048,3.048,0,0,0,1.6-.8,2.372,2.372,0,0,0,.7-2,2.47,2.47,0,0,0-1.2-1.9l-.3.4a2.016,2.016,0,0,1,.9,1.5,1.739,1.739,0,0,1-.6,1.6,2.321,2.321,0,0,1-2.1.6,1.8,1.8,0,0,1-.9-.6.6.6,0,0,1-.1-.4c.1-.4.8-.8,1.3-1.1a1.38,1.38,0,0,0,.4-.3l-.3-.4a.758.758,0,0,1-.4.2c-.6.4-1.4.8-1.6,1.4a1.128,1.128,0,0,0,.1.8,2.326,2.326,0,0,0,1.2.8A3.994,3.994,0,0,0,76.6,41.8Z" fill="#f05364"/>
            </g>
            <g id="Group_6271" data-name="Group 6271">
              <path id="Path_43700" data-name="Path 43700" d="M77.7,39.5V39c-.1,0-1.8-.1-1.9-1.4h-.5a2.385,2.385,0,0,0,2.4,1.9Z" fill="#f05364"/>
            </g>
            <g id="Group_6272" data-name="Group 6272">
              <path id="Path_43701" data-name="Path 43701" d="M71.8,42.6l.4-.3a4.515,4.515,0,0,1-.7-4.9l-.5-.1a5.227,5.227,0,0,0,.8,5.3Z" fill="#f05364"/>
            </g>
            <g id="Group_6273" data-name="Group 6273">
              <path id="Path_43702" data-name="Path 43702" d="M56,46.1a5.638,5.638,0,0,0,1.2-.4,2.7,2.7,0,0,0,1.8-2c.1-.5-.1-1.2-1-2l-.3.4c.6.5.9,1,.8,1.5A2.324,2.324,0,0,1,57,45.2a2.7,2.7,0,0,1-2.3.2c-1.4-.4-1.9-1.9-1.9-3.2a7.221,7.221,0,0,1,1.1-4.1,2.952,2.952,0,0,1,2.4-.8l.1-.5a3.833,3.833,0,0,0-2.9,1c-.9,1-1.2,3-1.2,4.4a3.531,3.531,0,0,0,2.3,3.6,2.092,2.092,0,0,0,1.4.3Z" fill="#f05364"/>
            </g>
            <g id="Group_6274" data-name="Group 6274">
              <path id="Path_43703" data-name="Path 43703" d="M66.6,35.2l.5-.2c-1.8-3.2-6.2-1.7-6.2-1.7l.2.5C61.2,33.7,65.1,32.4,66.6,35.2Z" fill="#f05364"/>
            </g>
            <g id="Group_6275" data-name="Group 6275">
              <path id="Path_43704" data-name="Path 43704" d="M54.1,36.5l.3-.4c-.8-.6-.8-1.3,0-2.2l-.4-.3C53.1,34.7,53.1,35.7,54.1,36.5Z" fill="#f05364"/>
            </g>
            <g id="Group_6276" data-name="Group 6276">
              <path id="Path_43705" data-name="Path 43705" d="M49.9,44.7a3.016,3.016,0,0,0,1.5-.9l-.4-.3a1.612,1.612,0,0,1-1.6.7A1.753,1.753,0,0,1,48.1,43a2.02,2.02,0,0,1,.5-1.9l-.4-.3a2.235,2.235,0,0,0-.6,2.4,2.161,2.161,0,0,0,1.7,1.5.638.638,0,0,0,.6,0Z" fill="#f05364"/>
            </g>
            <g id="Group_6277" data-name="Group 6277">
              <path id="Path_43706" data-name="Path 43706" d="M52.6,46.4h.1l-.1-.5.1.2-.1-.2a1.379,1.379,0,0,1-1.8-1.6h-.5a1.847,1.847,0,0,0,.6,1.8,2.168,2.168,0,0,0,1.7.3Z" fill="#f05364"/>
            </g>
            <g id="Group_6278" data-name="Group 6278">
              <path id="Path_43707" data-name="Path 43707" d="M48.1,51.1l.3-.4c-1.5-1.1-2.2-2.6-1.9-3.2.1-.3.5-.3.9-.2l.1-.5c-1-.2-1.3.3-1.4.5C45.7,48.3,46.6,49.9,48.1,51.1Z" fill="#f05364"/>
            </g>
            <g id="Group_6279" data-name="Group 6279">
              <path id="Path_43708" data-name="Path 43708" d="M47.9,52.2a1.6,1.6,0,0,1,.5-1,1.48,1.48,0,0,1,1-.2l.1-.5a1.978,1.978,0,0,0-1.3.3,1.858,1.858,0,0,0-.7,1.3Z" fill="#f05364"/>
            </g>
            <g id="Group_6280" data-name="Group 6280">
              <path id="Path_43709" data-name="Path 43709" d="M60.9,47.5c1.1-.2,1.5-.8,1.5-1.4a1.627,1.627,0,0,0-1.6-1.5,6.247,6.247,0,0,0-3.9.7l.3.4a6.132,6.132,0,0,1,3.6-.6c.8.1,1.2.6,1.2,1,0,.5-.5.8-1.2.9l.1.5C60.8,47.5,60.9,47.5,60.9,47.5Z" fill="#f05364"/>
            </g>
            <g id="Group_6281" data-name="Group 6281">
              <path id="Path_43710" data-name="Path 43710" d="M84.1,42.5a5.3,5.3,0,0,0,.5-3.7c-.7-2.7-3.7-3.7-5.5-4-1.7-.3-4-.3-5.1.7a2.209,2.209,0,0,0-.7,2.1h.5a1.751,1.751,0,0,1,.6-1.7c1-.9,3-.9,4.6-.6s4.5,1.2,5.1,3.6a5,5,0,0,1-.4,3.4Z" fill="#f05364"/>
            </g>
            <g id="Group_6282" data-name="Group 6282">
              <path id="Path_43711" data-name="Path 43711" d="M77.8,35.2l.5-.1a3.3,3.3,0,0,0-1.7-2.3,4.619,4.619,0,0,0-4,0l.2.5a4.446,4.446,0,0,1,3.6,0A3.177,3.177,0,0,1,77.8,35.2Z" fill="#f05364"/>
            </g>
            <g id="Group_6283" data-name="Group 6283">
              <path id="Path_43712" data-name="Path 43712" d="M68.5,35l.5-.1a2.286,2.286,0,0,1,.7-2.4h0a2.066,2.066,0,0,1,1.6-.8A3.089,3.089,0,0,1,73.1,33l.4-.3a3.1,3.1,0,0,0-2.2-1.5,2.482,2.482,0,0,0-2.1.9A3.2,3.2,0,0,0,68.5,35Z" fill="#f05364"/>
            </g>
            <g id="Group_6284" data-name="Group 6284">
              <path id="Path_43713" data-name="Path 43713" d="M69.9,31.8l.4-.3c-2.2-2.4-6.9.1-7.1.2l.2.4S67.9,29.7,69.9,31.8Z" fill="#f05364"/>
            </g>
            <g id="Group_6285" data-name="Group 6285">
              <path id="Path_43714" data-name="Path 43714" d="M83.7,46.8c1-.1,2.2-.6,2.2-2a4.851,4.851,0,0,0-1.4-3.2l-.4.3a4.5,4.5,0,0,1,1.3,2.9c0,1-.8,1.5-2.7,1.5v.5Z" fill="#f05364"/>
            </g>
            <g id="Group_6286" data-name="Group 6286">
              <path id="Path_43715" data-name="Path 43715" d="M82.6,49.8a5.637,5.637,0,0,0,1.2-.4,4.226,4.226,0,0,0,1.4-3.2h-.5a3.584,3.584,0,0,1-1.2,2.7,3.194,3.194,0,0,1-2.9.1l-.2.5a4.353,4.353,0,0,0,2.2.3Z" fill="#f05364"/>
            </g>
            <g id="Group_6287" data-name="Group 6287">
              <path id="Path_43716" data-name="Path 43716" d="M58,36.1l.3-.4a1.43,1.43,0,0,1-.9-1.5c.1-1,1.3-2.2,2.8-2.8a3.632,3.632,0,0,1,3.7.4l.4-.4a3.706,3.706,0,0,0-4.2-.5c-1.7.6-3.1,2-3.2,3.2C56.7,34.6,56.9,35.4,58,36.1Z" fill="#f05364"/>
            </g>
            <g id="Group_6288" data-name="Group 6288">
              <path id="Path_43717" data-name="Path 43717" d="M50.9,36.1a4.784,4.784,0,0,1,2-3,6.331,6.331,0,0,1,5-.5l.1-.5c-2.2-.5-4-.4-5.4.5a4.891,4.891,0,0,0-2.2,3.3l.5.2h0Z" fill="#f05364"/>
            </g>
            <g id="Group_6289" data-name="Group 6289">
              <path id="Path_43718" data-name="Path 43718" d="M47.3,39.8l.5-.1a4.8,4.8,0,0,1,.7-3,3.44,3.44,0,0,1,2.3-1.2l-.1-.5a3.388,3.388,0,0,0-2.6,1.4,5.014,5.014,0,0,0-.8,3.4Z" fill="#f05364"/>
            </g>
            <g id="Group_6290" data-name="Group 6290">
              <path id="Path_43719" data-name="Path 43719" d="M44.5,46.9l.4-.3c-.6-.8-1.9-2.9-.2-4.7,1.2-1.3,3.5-2.6,5.3-2.2A2.892,2.892,0,0,1,52.2,42l.5-.1a3.371,3.371,0,0,0-2.6-2.6c-2-.4-4.5.9-5.8,2.3S43.1,45,44.5,46.9Z" fill="#f05364"/>
            </g>
            <g id="Group_6291" data-name="Group 6291">
              <path id="Path_43720" data-name="Path 43720" d="M49,53.7a3.565,3.565,0,0,0,1.5-.6,3.471,3.471,0,0,0,1.2-3l-.5.1a2.823,2.823,0,0,1-1,2.5A3.473,3.473,0,0,1,47,53c-3.1-.9-3.4-4.3-2.5-7.1l-.5-.1c-.9,3.1-.6,6.7,2.9,7.8a16.233,16.233,0,0,0,2.1.1Z" fill="#f05364"/>
            </g>
            <g id="Group_6292" data-name="Group 6292">
              <path id="Path_43721" data-name="Path 43721" d="M77.6,51.3A3.755,3.755,0,0,0,81,48.6c.3-1.9-1.7-3.5-3.6-4.4-1.7-.8-4.6-.2-6.4.8l.3.4c1.9-1.1,4.5-1.4,5.9-.8,1.7.7,3.5,2.2,3.3,3.8-.3,1.8-2.7,2.5-4.4,2.3a2.693,2.693,0,0,1-1.8-1,.934.934,0,0,1,.5-1.4l-.2-.3a1.5,1.5,0,0,0-.7,2.1A2.956,2.956,0,0,0,76,51.4a9.15,9.15,0,0,0,1.6-.1Z" fill="#f05364"/>
            </g>
            <g id="Group_6293" data-name="Group 6293">
              <path id="Path_43722" data-name="Path 43722" d="M72.7,55.5a3.582,3.582,0,0,0,1.1-.4c1.2-.7,1.9-2.1,2-4.3h-.5c-.1,2-.7,3.3-1.7,3.8-1.6.9-3.9-.3-3.9-.3l-.2.4a4.341,4.341,0,0,0,3.2.8Z" fill="#f05364"/>
            </g>
            <g id="Group_6294" data-name="Group 6294">
              <path id="Path_43723" data-name="Path 43723" d="M68,56.4a4.3,4.3,0,0,0,2.4-1.3l-.4-.4s-1.4,1.4-2.7,1.1a2.258,2.258,0,0,1-1.5-1.4l-.5.2a2.471,2.471,0,0,0,1.9,1.7.783.783,0,0,0,.8.1Z" fill="#f05364"/>
            </g>
            <g id="Group_6295" data-name="Group 6295">
              <path id="Path_43724" data-name="Path 43724" d="M64.3,56.5a4.323,4.323,0,0,0,1.9-.8l-.3-.4a3.028,3.028,0,0,1-4.4-.4c-1-1.2-1.4-3,.1-4.3.7-.7,2.5-1.5,3.4-1.1l.2-.5c-1.2-.5-3.2.5-3.9,1.2a3.5,3.5,0,0,0-.1,5,3.615,3.615,0,0,0,3.1,1.3Z" fill="#f05364"/>
            </g>
            <g id="Group_6296" data-name="Group 6296">
              <path id="Path_43725" data-name="Path 43725" d="M62,53.4a1.766,1.766,0,0,1,.7-1.6l.4.4a1.366,1.366,0,0,0-.6,1.1c.1.5.9.8,1.2.9l-.1.5C63.4,54.6,62.2,54.2,62,53.4Zm1.7.7h0l-.1.2Z" fill="#f05364"/>
            </g>
            <g id="Group_6297" data-name="Group 6297">
              <path id="Path_43726" data-name="Path 43726" d="M63.2,52.4c.2,0,.3-.1.4-.1l-.2-.4a.483.483,0,0,1-.4,0,1.69,1.69,0,0,1-.2-.5l-.5.1c.1.8.2.7.5.9Z" fill="#f05364"/>
            </g>
            <g id="Group_6298" data-name="Group 6298">
              <path id="Path_43727" data-name="Path 43727" d="M68.2,50.8v-.5a3.853,3.853,0,0,1-3.1-1.2,4.214,4.214,0,0,1-.9-3l-.5-.1a4.684,4.684,0,0,0,1.1,3.4A4.154,4.154,0,0,0,68.2,50.8Z" fill="#f05364"/>
            </g>
            <g id="Group_6299" data-name="Group 6299">
              <path id="Path_43728" data-name="Path 43728" d="M70.2,51.6a2.76,2.76,0,0,0,2.1-1.8l-.5-.2A2.458,2.458,0,0,1,70,51.1a2.352,2.352,0,0,1-1.9-.7c-1.1-1.3-.4-4.1-.4-4.1l-.5-.1c0,.1-.8,3,.5,4.5a3.108,3.108,0,0,0,2.5.9Z" fill="#f05364"/>
            </g>
            <g id="Group_6300" data-name="Group 6300">
              <path id="Path_43729" data-name="Path 43729" d="M72.5,50.1h0a1.117,1.117,0,0,0,.7-.4l-.4-.4a.584.584,0,0,1-.4.1h0a1.1,1.1,0,0,1-.9-.3l-.3.4a1.936,1.936,0,0,0,1.3.6Z" fill="#f05364"/>
            </g>
            <g id="Group_6301" data-name="Group 6301">
              <path id="Path_43730" data-name="Path 43730" d="M68.1,46.7a.764.764,0,0,0,.5-.2l-.3-.4c-.1.1-.5.3-.9-.3l-.4.3a.9.9,0,0,0,1.1.6Z" fill="#f05364"/>
            </g>
            <g id="Group_6302" data-name="Group 6302">
              <path id="Path_43731" data-name="Path 43731" d="M79.1,49.3c0-.1.3-2-3.3-2.8l-.2.5c3.1.7,3,2.1,2.9,2.2Z" fill="#f05364"/>
            </g>
            <g id="Group_6303" data-name="Group 6303">
              <path id="Path_43732" data-name="Path 43732" d="M75.2,47.5a1.258,1.258,0,0,0,.7-1.6l-.5.2.2-.1-.2.1a.725.725,0,0,1-.4.9Z" fill="#f05364"/>
            </g>
            <g id="Group_6304" data-name="Group 6304">
              <path id="Path_43733" data-name="Path 43733" d="M72.1,53.7c2.1-.3,2.4-2.1,2.7-3.2l-.5-.1c-.3,1.4-.7,2.7-2.5,2.8-1.7.1-2.5-1.3-3.2-2.5v-.1l-.4.2v.1c.7,1.3,1.6,2.9,3.6,2.8a.188.188,0,0,0,.3,0Z" fill="#f05364"/>
            </g>
            <g id="Group_6305" data-name="Group 6305">
              <path id="Path_43734" data-name="Path 43734" d="M70.8,48.4c.3-.7,1.1-3-.2-4.7a2.845,2.845,0,0,0-2.1-1.2,6.046,6.046,0,0,0-3.9,1.1l.3.4a5.049,5.049,0,0,1,3.5-1,2.534,2.534,0,0,1,1.8,1c.9,1.2.6,2.9.1,4.2Z" fill="#f05364"/>
            </g>
            <g id="Group_6306" data-name="Group 6306">
              <path id="Path_43735" data-name="Path 43735" d="M66.1,47.1c0-.1-.1-3.2-2-4.2-1-.6-2.4-.4-4,.6l.3.4c1.5-.9,2.6-1,3.5-.6,1.6.9,1.7,3.8,1.7,3.8Z" fill="#f05364"/>
            </g>
            <g id="Group_6307" data-name="Group 6307">
              <path id="Path_43736" data-name="Path 43736" d="M70.9,48.9l.5-.2a1.68,1.68,0,0,0-1.9-.8l.1.5a1.082,1.082,0,0,1,1.3.5Z" fill="#f05364"/>
            </g>
            <g id="Group_6308" data-name="Group 6308">
              <path id="Path_43737" data-name="Path 43737" d="M65.6,53.4a3,3,0,0,0,1-.4,3.71,3.71,0,0,0,1.2-2.6h-.5a3.122,3.122,0,0,1-.9,2.2,2.983,2.983,0,0,1-2.5.1l-.2.5a4.533,4.533,0,0,0,1.9.2Z" fill="#f05364"/>
            </g>
            <g id="Group_6309" data-name="Group 6309">
              <path id="Path_43738" data-name="Path 43738" d="M82.6,47.7c0-.1.9-1.3.2-2.2l-.4.3a1.515,1.515,0,0,1-.3,1.6Z" fill="#f05364"/>
            </g>
            <g id="Group_6310" data-name="Group 6310">
              <path id="Path_43739" data-name="Path 43739" d="M83,41.9h.1l-.1-.5c-.1,0-1.9.3-2.4-1.3l-.5.1A2.547,2.547,0,0,0,83,41.9Z" fill="#f05364"/>
            </g>
            <g id="Group_6311" data-name="Group 6311">
              <path id="Path_43740" data-name="Path 43740" d="M81.3,46.1l.3-.4a3.048,3.048,0,0,1-1.2-2,3.515,3.515,0,0,1,1-2.4L81,41a4.627,4.627,0,0,0-1.1,2.8A3.565,3.565,0,0,0,81.3,46.1Z" fill="#f05364"/>
            </g>
            <g id="Group_6312" data-name="Group 6312">
              <path id="Path_43741" data-name="Path 43741" d="M80.3,44v-.5c-.1,0-2.4.1-2.5-2.1h-.5a2.647,2.647,0,0,0,.9,1.9,2.968,2.968,0,0,0,2.1.7Z" fill="#f05364"/>
            </g>
            <g id="Group_6313" data-name="Group 6313">
              <path id="Path_43742" data-name="Path 43742" d="M81.7,39l.4-.2a4.272,4.272,0,0,0-2.2-2l-.1.5C80.9,37.5,81.7,39,81.7,39Z" fill="#f05364"/>
            </g>
            <g id="Group_6314" data-name="Group 6314">
              <path id="Path_43743" data-name="Path 43743" d="M79,37.6a1.643,1.643,0,0,0,1.4-1.2l-.5-.1s-.1.6-1,.8Z" fill="#f05364"/>
            </g>
            <g id="Group_6315" data-name="Group 6315">
              <path id="Path_43744" data-name="Path 43744" d="M75.3,44.2a3.7,3.7,0,0,0-.9-3.7,3.872,3.872,0,0,0-3.7-1.3l.1.5A3.656,3.656,0,0,1,74,40.8a3.523,3.523,0,0,1,.8,3.2Z" fill="#f05364"/>
            </g>
            <g id="Group_6316" data-name="Group 6316">
              <path id="Path_43745" data-name="Path 43745" d="M71.8,43.4a1.407,1.407,0,0,1,1.4-.7l.1-.5a1.8,1.8,0,0,0-1.9,1Z" fill="#f05364"/>
            </g>
            <g id="Group_6317" data-name="Group 6317">
              <path id="Path_43746" data-name="Path 43746" d="M67.8,39.4l.5-.2a3.447,3.447,0,0,1-.4-2.9,2.646,2.646,0,0,1,1.6-1.5,3.538,3.538,0,0,1,4.3,1l.4-.3a4.027,4.027,0,0,0-5-1.2,3.373,3.373,0,0,0-1.9,1.8,4.4,4.4,0,0,0,.5,3.3Z" fill="#f05364"/>
            </g>
            <g id="Group_6318" data-name="Group 6318">
              <path id="Path_43747" data-name="Path 43747" d="M67.2,41.7l-.1-.5s-3.1.4-4.3-2.1l-.6.2C63.6,42.1,67.2,41.7,67.2,41.7Z" fill="#f05364"/>
            </g>
            <g id="Group_6319" data-name="Group 6319">
              <path id="Path_43748" data-name="Path 43748" d="M62.4,39.5c.2,0,.3-.1.4-.1a1.414,1.414,0,0,0,.6-.9l-.5-.1s-.1.4-.4.5a.846.846,0,0,1-.7,0l-.2.5a.8.8,0,0,0,.8.1Z" fill="#f05364"/>
            </g>
            <g id="Group_6320" data-name="Group 6320">
              <path id="Path_43749" data-name="Path 43749" d="M66.3,39.9A5.416,5.416,0,0,0,64.6,36c-1.2-1-2.8-1.2-4.9-.8l.1.5c2-.4,3.5-.2,4.5.7a4.818,4.818,0,0,1,1.5,3.5Z" fill="#f05364"/>
            </g>
            <g id="Group_6321" data-name="Group 6321">
              <path id="Path_43750" data-name="Path 43750" d="M60.9,48.4a1.807,1.807,0,0,0,.2-1.4,1.515,1.515,0,0,0-1-.8l-.2.5.1-.2-.1.2s.5.2.6.6a1.211,1.211,0,0,1-.1,1Z" fill="#f05364"/>
            </g>
            <g id="Group_6322" data-name="Group 6322">
              <path id="Path_43751" data-name="Path 43751" d="M56.1,38.3l.4-.3-.2.1.2-.1a1.509,1.509,0,0,1,.2-1.8l-.2-.2a1.93,1.93,0,0,0-.4,2.3Z" fill="#f05364"/>
            </g>
            <g id="Group_6323" data-name="Group 6323">
              <path id="Path_43752" data-name="Path 43752" d="M58.6,39.7c0-.1-.1-2.8,2.4-3.2V36c-3.1.4-2.9,3.7-2.9,3.7Z" fill="#f05364"/>
            </g>
            <g id="Group_6324" data-name="Group 6324">
              <path id="Path_43753" data-name="Path 43753" d="M60.8,50.8h.3l-.1-.6a4.88,4.88,0,0,1-3.5-.7A4.285,4.285,0,0,1,56,45.8h-.5a5.232,5.232,0,0,0,1.7,4.1,4.568,4.568,0,0,0,3.6.9Z" fill="#f05364"/>
            </g>
            <g id="Group_6325" data-name="Group 6325">
              <path id="Path_43754" data-name="Path 43754" d="M60.9,34.3a1.347,1.347,0,0,0-.2-1.8l-.4.3.2-.2-.2.2s.6.6.2,1.1Z" fill="#f05364"/>
            </g>
            <g id="Group_6326" data-name="Group 6326">
              <path id="Path_43755" data-name="Path 43755" d="M49.9,39.4l.5-.2-.2.1.2-.1c0-.1-.7-2.2,3.4-3.8l-.2-.5C49,36.7,49.8,39.2,49.9,39.4Z" fill="#f05364"/>
            </g>
            <g id="Group_6327" data-name="Group 6327">
              <path id="Path_43756" data-name="Path 43756" d="M58,59.7a1.8,1.8,0,0,0,.9-.4c1.3-.9,1.9-2.6,2.4-4l-.5-.2h0c-.5,1.3-1.1,2.9-2.2,3.7a1.4,1.4,0,0,1-1.4.2,3.65,3.65,0,0,1-1.8-2.4c-.1-.7,0-2,.4-2.3l-.3-.3c-.7.6-.6,2.3-.5,2.8a3.983,3.983,0,0,0,2.1,2.8,2.769,2.769,0,0,0,.9.1Z" fill="#f05364"/>
            </g>
            <g id="Group_6328" data-name="Group 6328">
              <path id="Path_43757" data-name="Path 43757" d="M50.1,57.5a9.416,9.416,0,0,0,1.8-.6l-.2-.5c-1.5.6-2.5.7-2.9.3-.7-.7-.1-2.6.2-3.3l-.5-.2c0,.1-1.2,2.8-.1,3.8a1.706,1.706,0,0,0,1.7.5Z" fill="#f05364"/>
            </g>
            <g id="Group_6329" data-name="Group 6329">
              <path id="Path_43758" data-name="Path 43758" d="M54.6,60.6a10.826,10.826,0,0,0,2.7-.9l-.3-.5s-2.4,1.4-4.4.7a4.061,4.061,0,0,1-2.4-2.8l-.5.2a4.987,4.987,0,0,0,2.7,3.1,5.659,5.659,0,0,0,2.2.2Z" fill="#f05364"/>
            </g>
            <g id="Group_6330" data-name="Group 6330">
              <path id="Path_43759" data-name="Path 43759" d="M58.3,56.4c0-.1.7-2.5-2.4-4.9l-.3.5c2.8,2.2,2.2,4.2,2.2,4.3Z" fill="#f05364"/>
            </g>
            <g id="Group_6331" data-name="Group 6331">
              <path id="Path_43760" data-name="Path 43760" d="M54.9,52.5a2.145,2.145,0,0,0,1.6-2.1H56c0,.1-.1,1.4-1.2,1.6Z" fill="#f05364"/>
            </g>
            <g id="Group_6332" data-name="Group 6332">
              <path id="Path_43761" data-name="Path 43761" d="M46.9,45.3A1.869,1.869,0,0,0,48.5,44l-.5-.2a1.668,1.668,0,0,1-1.5,1v.5Z" fill="#f05364"/>
            </g>
            <g id="Group_6333" data-name="Group 6333">
              <path id="Path_43762" data-name="Path 43762" d="M46.4,45.8a1.135,1.135,0,0,0,.3-.8,1.416,1.416,0,0,0-.5-1l-.4.4.2-.2-.2.2a1.1,1.1,0,0,1,.3.7.52.52,0,0,1-.2.4Z" fill="#f05364"/>
            </g>
            <g id="Group_6334" data-name="Group 6334">
              <path id="Path_43763" data-name="Path 43763" d="M53.7,53.6c.9-2.2,1-3.8.1-4.8-1.2-1.5-3.6-1.1-3.6-1.1l.1.5s2.2-.3,3.1.9c.7.9.6,2.3-.2,4.3Z" fill="#f05364"/>
            </g>
            <g id="Group_6335" data-name="Group 6335">
              <path id="Path_43764" data-name="Path 43764" d="M53.9,58a3.425,3.425,0,0,0-.3-2.7,2.8,2.8,0,0,0-2.5-1v.5a2.222,2.222,0,0,1,2,.8,2.942,2.942,0,0,1,.2,2.2Z" fill="#f05364"/>
            </g>
            <g id="Group_6336" data-name="Group 6336">
              <path id="Path_43765" data-name="Path 43765" d="M54.2,58.8l.5-.2a1.708,1.708,0,0,0-1-1.2,1.013,1.013,0,0,0-1,.2l.3.4c.2-.1.3-.2.5-.1A1.4,1.4,0,0,1,54.2,58.8Z" fill="#f05364"/>
            </g>
            <g id="Group_6337" data-name="Group 6337">
              <path id="Path_43766" data-name="Path 43766" d="M51.5,55.6c0-.2.3-1.3-.1-1.7a.55.55,0,0,0-.5-.3v.5c.1,0,.1,0,.1.1.2.2.1.9,0,1.3Z" fill="#f05364"/>
            </g>
            <g id="Group_6338" data-name="Group 6338" opacity="0.25">
              <path id="Path_43767" data-name="Path 43767" d="M74.6,35.8a12.673,12.673,0,0,1,3.4-.4,7.067,7.067,0,0,1,3.4.8,5.263,5.263,0,0,1,1.4,1.2,3.63,3.63,0,0,1,.7,1.7,5.438,5.438,0,0,1,0,1.8,10.927,10.927,0,0,1-.5,1.7l-.1-.6c.3.2.5.5.8.7a3.128,3.128,0,0,1,.5,1c0,.2.1.4,0,.6a.764.764,0,0,1-.2.5,1.555,1.555,0,0,1-.8.6,1.344,1.344,0,0,0,.6-.7,1.1,1.1,0,0,0,0-.8,2.616,2.616,0,0,0-1.2-1.2l-.2-.1.1-.3a7.719,7.719,0,0,0,.2-1.5,7.569,7.569,0,0,0-.1-1.5,3.374,3.374,0,0,0-1.7-2.2,7.045,7.045,0,0,0-2.9-.9A20.918,20.918,0,0,0,74.6,35.8Z" fill="#fff"/>
            </g>
            <g id="Group_6339" data-name="Group 6339" opacity="0.25">
              <path id="Path_43768" data-name="Path 43768" d="M47.5,40.6a8.636,8.636,0,0,0-1.4,1.3,3.675,3.675,0,0,0-.8,1.5,2.2,2.2,0,0,0-.1.8,2.353,2.353,0,0,0,.2.8,5.988,5.988,0,0,0,.8,1.6l-.2.8h-.1l-.1.1c-.1.1-.1.2-.2.3a4.875,4.875,0,0,0-.3.7,2.2,2.2,0,0,0-.1.8v.8c-.1-.1-.1-.3-.2-.4,0-.1-.1-.3-.1-.4a2.769,2.769,0,0,1-.1-.9,1.978,1.978,0,0,1,.2-1,1.332,1.332,0,0,1,.3-.5l.2-.2.1-.1a.349.349,0,0,1,.2-.1l-.2.7a5.244,5.244,0,0,1-1-1.8,3.32,3.32,0,0,1,0-2.2,3.147,3.147,0,0,1,1.3-1.7,1.987,1.987,0,0,1,1.6-.9Z" fill="#fff"/>
            </g>
            <g id="Group_6340" data-name="Group 6340" opacity="0.25">
              <path id="Path_43769" data-name="Path 43769" d="M69.6,44.5a6.107,6.107,0,0,0-1.3-.3,2.537,2.537,0,0,0-1.2-.2,2.958,2.958,0,0,0-1,.2,4.7,4.7,0,0,0-.9.6l-.6.5-.1-.5a.349.349,0,0,1-.1-.2c0-.1-.1-.1-.1-.2l-.3-.3a.758.758,0,0,0-.4-.2c-.2-.1-.3-.1-.5-.2a1.421,1.421,0,0,1,.6-.2h.6a1.421,1.421,0,0,1,.6.2c.1.1.2.1.3.2s.2.1.3.3l-.8-.1a2.94,2.94,0,0,1,1.2-1,4.013,4.013,0,0,1,1.5-.3,3.36,3.36,0,0,1,1.4.5,8.341,8.341,0,0,0,.8,1.2Z" fill="#fff"/>
            </g>
            <g id="Group_6341" data-name="Group 6341" opacity="0.25">
              <path id="Path_43770" data-name="Path 43770" d="M58.5,57a9.151,9.151,0,0,0,.1-1.6,3.194,3.194,0,0,0-.3-1.4l-.3-.6a2.092,2.092,0,0,0-.4-.6,2.651,2.651,0,0,0-.5-.6c-.2-.2-.3-.4-.5-.6l-.3-.4.3-.2c.1,0,.1-.1.2-.2s.1-.2.2-.3c0-.1.1-.2.1-.3v-.4l.3.3a.6.6,0,0,1,.1.4.9.9,0,0,1-.1.5.52.52,0,0,1-.2.4l-.1-.5c.2.2.5.3.7.5l.6.6a4.172,4.172,0,0,1,.9,1.6,2.775,2.775,0,0,1,0,1.8,1.816,1.816,0,0,1-.8,1.6Z" fill="#fff"/>
            </g>
            <g id="Group_6342" data-name="Group 6342" opacity="0.25">
              <path id="Path_43771" data-name="Path 43771" d="M68.2,31.8a1.7,1.7,0,0,0-.7-.1h-.3a.367.367,0,0,0-.3.1,4.951,4.951,0,0,0-1.3.4l-.6.3a2.092,2.092,0,0,0-.6.4l-.6.4-.6.4-.8.6-.1-1c0-.1-.1-.4-.1-.5-.1-.2-.1-.3-.2-.4a1.234,1.234,0,0,0-.8-.4h-.6c-.2.1-.4.1-.6.2a6.373,6.373,0,0,1-.7.2,4.874,4.874,0,0,1-.7.3l.5-.5c.2-.2.4-.3.6-.5.1-.1.2-.1.3-.2l.3-.2c.1-.1.2-.1.4-.1l.2-.1h.2a2.769,2.769,0,0,1,.9.1c.1.1.3.1.4.2l.2.1.2.2a3.039,3.039,0,0,1,.5.7.6.6,0,0,1,.1.4c0,.1.1.3.1.4l-.9-.4.6-.5a4.348,4.348,0,0,1,.7-.4c.2-.1.5-.2.7-.3s.5-.2.7-.3a4.145,4.145,0,0,1,1.6-.2,5.387,5.387,0,0,1,1.3.7Z" fill="#fff"/>
            </g>
            <g id="Group_6343" data-name="Group 6343" opacity="0.25">
              <path id="Path_43772" data-name="Path 43772" d="M75,51.6a2.769,2.769,0,0,1-.1.9c0,.2-.1.3-.1.5-.1.2-.1.3-.2.5a2.94,2.94,0,0,1-1.5,1.4,3.64,3.64,0,0,1-2,.3c-.2,0-.3-.1-.5-.1s-.3-.1-.5-.1a3.552,3.552,0,0,1-.9-.4l.5-.3c0,.2-.1.2-.2.3s-.1.2-.2.2a1.69,1.69,0,0,1-.5.2h-.5c-.2,0-.3-.1-.5-.1.2,0,.3-.1.4-.1.1-.1.3-.1.4-.2l.2-.2a.1.1,0,0,1,.1-.1v-.1l.5-.3c.3,0,.6.1.9.1s.6.1.8.1a6.8,6.8,0,0,0,1.5-.2A4.847,4.847,0,0,0,75,51.6Z" fill="#fff"/>
            </g>
          </g>
        </g>
      </g>
    </g>
  </g>
</svg>
