<svg id="orthopedic_surgeon" xmlns="http://www.w3.org/2000/svg" xmlns:xlink="http://www.w3.org/1999/xlink" width="116.526" height="116.525" viewBox="0 0 116.526 116.525">
  <defs>
    <linearGradient id="linear-gradient" y1="0.5" x2="1" y2="0.5" gradientUnits="objectBoundingBox">
      <stop offset="0" stop-color="#ebebeb"/>
      <stop offset="1" stop-color="#fff"/>
    </linearGradient>
    <clipPath id="clip-path">
      <circle id="Ellipse_1837" data-name="Ellipse 1837" cx="58.263" cy="58.263" r="58.263" transform="translate(0 0)"/>
    </clipPath>
  </defs>
  <circle id="Ellipse_1836" data-name="Ellipse 1836" cx="58.263" cy="58.263" r="58.263" transform="translate(0 0)" fill="url(#linear-gradient)"/>
  <g id="Group_7516" data-name="Group 7516">
    <g id="Group_7515" data-name="Group 7515" clip-path="url(#clip-path)">
      <path id="Path_47259" data-name="Path 47259" d="M60.2,67.706a6.7,6.7,0,0,0,.292.778h0a16.934,16.934,0,0,0,7.1,8.559c3.113-1.848,5.447-4.863,7.2-8.949h0c.1-.1.1-.292.195-.389h-.1V60.9c-3.015,0-4.863-.1-5.836-.1H66.133c-1.07,0-2.821,0-5.836.1l-.1,6.809Z" transform="translate(-24.892 -17.711)" fill="#ebb677"/>
      <path id="Path_47260" data-name="Path 47260" d="M38.985,85.313l7.2,4.863v48.439H84.7L87.035,96.6l2.626,20.231h11.186L97.832,96.6l-2.14-14.5a8.446,8.446,0,0,0-6.225-7.879L74.39,68h-.1L67,77.435,59.7,68h-.1L44.529,74.225C40.736,75.295,37.04,78.894,38.985,85.313Z" transform="translate(-24.298 -17.908)" fill="#fff"/>
      <path id="Path_47261" data-name="Path 47261" d="M98.9,95c-2.723.486-7.392,1.167-10.6,1.654l.292,2.237,10.6-1.654Z" transform="translate(-25.66 -18.646)" fill="#b53d15"/>
      <path id="Path_47262" data-name="Path 47262" d="M77.19,138.9h36.962c.1-2.918.292-5.447.389-7.587,0-.778.1-1.556.1-2.14.1-2.043.195-3.307.195-3.5v-1.751c0-7.781-2.14-16.146-3.7-21.01-.778-2.626-1.459-4.28-1.459-4.28l7.781-13.715c-.973-.292-5.933-2.334-10.408-4.474-1.459-.681-2.821-1.362-3.988-1.945l-7,10.31a7.472,7.472,0,0,1-3.21,2.529C82.443,95.813,75.148,115.072,77.19,138.9Z" transform="translate(-25.347 -18.195)" fill="#ebb677"/>
      <path id="Path_47263" data-name="Path 47263" d="M105.554,99.172,107.6,101.7a4.153,4.153,0,0,0,4.377,1.167c-.778-2.626-1.459-4.28-1.459-4.28L118.3,84.874c-.973-.292-5.933-2.334-10.408-4.474a22.176,22.176,0,0,1-2.14,5.058C103.025,89.932,103.706,96.546,105.554,99.172Z" transform="translate(-26.087 -18.247)" fill="#1d1d1b" opacity="0.1"/>
      <g id="Group_7508" data-name="Group 7508" transform="translate(28.083 11.088)">
        <path id="Path_47264" data-name="Path 47264" d="M52.9,48.875c.292,1.848.681,3.21,1.751,3.6a1.655,1.655,0,0,0,.681.1c.1,0,.1,0,.195-.1A17.039,17.039,0,0,0,57.76,58.5c.389.584.778,1.167,1.07,1.654a14.3,14.3,0,0,0,.973,1.264c.1.1.1.195.195.292.195.195.292.389.486.584,2.237,2.529,2.918,2.626,6.711,2.626h.195c3.4,0,4.961-.486,6.711-2.626.195-.195.292-.389.486-.584.1-.1.1-.195.195-.292.292-.389.584-.778.973-1.264.292-.486.681-1.07,1.07-1.654a17.039,17.039,0,0,0,2.237-6.031c.1,0,.1.1.195.1a1.655,1.655,0,0,0,.681-.1c.973-.389,1.459-1.751,1.751-3.6.389-2.237.195-4.28-1.07-4.474H79.84V38.759A8.572,8.572,0,0,0,71.28,30.2H63.11a8.572,8.572,0,0,0-8.56,8.559V44.5h-.778C52.8,44.6,52.6,46.638,52.9,48.875Z" transform="translate(-52.772 -27.963)" fill="#f9c484"/>
        <path id="Path_47265" data-name="Path 47265" d="M53.7,39.086v.389l.389,4.863A2.075,2.075,0,0,1,56.034,45.5V39.377A4.816,4.816,0,0,1,60.9,34.514H73.931a4.816,4.816,0,0,1,4.863,4.863V45.5a2.265,2.265,0,0,1,1.945-1.167l.389-4.863v-.389a10.354,10.354,0,0,0-2.821-7.392C75.585,28.775,72.861,27.9,67.415,27.9h0c-5.447,0-8.17.973-10.894,3.793A9.813,9.813,0,0,0,53.7,39.086Z" transform="translate(-52.797 -27.9)" fill="#683c11"/>
        <path id="Path_47266" data-name="Path 47266" d="M56.1,39.563V41.12a4.816,4.816,0,0,1,4.863-4.863H74a4.816,4.816,0,0,1,4.863,4.863V39.563A4.816,4.816,0,0,0,74,34.7H60.963A4.816,4.816,0,0,0,56.1,39.563Z" transform="translate(-52.863 -28.086)" fill="#1d1d1b" opacity="0.1"/>
      </g>
      <path id="Path_47267" data-name="Path 47267" d="M56.408,107.828h0c2.529-2.529,1.945-6.225.389-9.921L51.156,83.9,38.9,85.845l6.711,18.87C48.335,110.065,53.976,110.259,56.408,107.828Z" transform="translate(-24.31 -18.342)" fill="#ededed"/>
      <g id="Group_7509" data-name="Group 7509" transform="translate(49.704 66.044)">
        <path id="Path_47268" data-name="Path 47268" d="M77.334,97.92l3.015-.973a5.147,5.147,0,0,0,2.043-1.07l1.556-1.264a1.568,1.568,0,0,1,.681-.389l4.28-1.556a1.3,1.3,0,0,0,.778-1.654h0a1.3,1.3,0,0,0-1.654-.778l-2.918,1.07,2.237-2.237,4.182-2.14H96.2a1.288,1.288,0,0,0,1.264-1.264h0A1.288,1.288,0,0,0,96.2,84.4s-5.544.1-5.642.1c0,0-3.6,1.07-4.766,1.556a5.776,5.776,0,0,1-.778.389A31.336,31.336,0,0,0,78.4,91.014L75,93.446Z" transform="translate(-75 -84.4)" fill="#ebb677"/>
        <path id="Path_47269" data-name="Path 47269" d="M87.56,89.093l1.07-.292,1.654-.195,3.307,1.167a1.18,1.18,0,0,0,1.264-.292l1.07.389a1.157,1.157,0,0,0,1.459-.681h0a.877.877,0,0,0,.1-.486,1.337,1.337,0,0,0,.778-.973h0a1.237,1.237,0,0,0-.973-1.459L92.326,85.3h-.389l-4.863,1.362a1.249,1.249,0,0,0-.875,1.556h0a1.043,1.043,0,0,0,1.361.875Z" transform="translate(-75.305 -84.425)" fill="#ebb677"/>
        <path id="Path_47270" data-name="Path 47270" d="M77.334,97.92l3.015-.973a5.147,5.147,0,0,0,2.043-1.07l2.723-4.572,2.237-2.237,4.182-2.14H96.2a1.288,1.288,0,0,0,1.264-1.264h0A1.288,1.288,0,0,0,96.2,84.4s-5.544.1-5.642.1c0,0-3.6,1.07-4.766,1.556a5.776,5.776,0,0,1-.778.389A31.336,31.336,0,0,0,78.4,91.014L75,93.446Z" transform="translate(-75 -84.4)" fill="#f9c484"/>
      </g>
      <path id="Path_47271" data-name="Path 47271" d="M45.8,104.745v.1a6.262,6.262,0,0,0,7.49,4.863l24.8-5.155L75.463,92.1l-24.8,5.155A6.384,6.384,0,0,0,45.8,104.745Z" transform="translate(-24.495 -18.567)" fill="#ededed"/>
      <path id="Path_47272" data-name="Path 47272" d="M80.264,73.833l-4.377.681,2.529,2.237L68.3,93.092,75.109,67.9l6.322,2.626Z" transform="translate(-25.113 -17.905)" fill="#ededed"/>
      <path id="Path_47273" data-name="Path 47273" d="M71.593,80.739l-3.793-3.5L75.1,67.9Z" transform="translate(-25.1 -17.905)" fill="#78dcff"/>
      <path id="Path_47274" data-name="Path 47274" d="M63.7,80.739l3.891-3.5L60.3,67.9Z" transform="translate(-24.895 -17.905)" fill="#78dcff"/>
      <path id="Path_47275" data-name="Path 47275" d="M68.191,93.549,71.5,81l-3.8-3.5-3.4,3.113Z" transform="translate(-25.004 -18.167)" fill="#65ccf0"/>
      <path id="Path_47276" data-name="Path 47276" d="M54.867,73.833l4.377.681-2.529,2.237L70.041,100.29,60.022,67.9,53.7,70.526Z" transform="translate(-24.714 -17.905)" fill="#ededed"/>
      <path id="Path_47277" data-name="Path 47277" d="M39,85.748l.875,2.529,5.739,16.341a6.47,6.47,0,0,0,1.654,3.113,6.368,6.368,0,0,0,5.836,1.848l23.344-4.863,1.459-.292-2.626-12.45-1.07.195L56.022,95.961,55.535,94.7,51.158,83.9l-.778.1Z" transform="translate(-24.313 -18.342)" fill="#fff"/>
      <path id="Path_47278" data-name="Path 47278" d="M67.1,81.575a.872.872,0,1,0,.255-.62.875.875,0,0,0-.255.62Z" transform="translate(-25.081 -18.255)" fill="#fff"/>
      <path id="Path_47279" data-name="Path 47279" d="M67.1,88.375a.872.872,0,1,0,.255-.62.875.875,0,0,0-.255.62Z" transform="translate(-25.081 -18.441)" fill="#fff"/>
      <rect id="Rectangle_4000" data-name="Rectangle 4000" width="13.423" height="3.793" transform="translate(25.581 102.713)" fill="#1d1d1b" opacity="0.1"/>
      <path id="Path_47280" data-name="Path 47280" d="M60.1,62.4a4.882,4.882,0,0,0,.195,1.167V66.68a5.912,5.912,0,0,0,4.571,2.72,20.72,20.72,0,0,0,2.626.195h.1a11.1,11.1,0,0,0,2.626-.195,5.763,5.763,0,0,0,4.572-2.723v-3.11a4.882,4.882,0,0,0,.2-1.167c-.1.1-.1.195-.2.292a2.579,2.579,0,0,0-.486.584C72.456,65.416,71,65.9,67.593,65.9H67.4c-3.891,0-4.474,0-6.711-2.626-.195-.195-.292-.389-.486-.584C60.2,62.6,60.1,62.5,60.1,62.4Z" transform="translate(-24.889 -17.755)" fill="#1d1d1b" opacity="0.1"/>
      <path id="Path_47281" data-name="Path 47281" d="M60.1,62.214a4.882,4.882,0,0,0,.195,1.167l.292.875a5.48,5.48,0,0,0,4.669,3.21,17.239,17.239,0,0,0,2.334.1h.1a17.24,17.24,0,0,0,2.334-.1,5.48,5.48,0,0,0,4.669-3.21l.292-.875a4.882,4.882,0,0,0,.195-1.167c.195-3.307-2.432-6.711-7.392-6.614h-.1C62.434,55.5,59.808,58.81,60.1,62.214ZM71.091,59.2a1.518,1.518,0,0,1-1.556,1.459H65.644a1.462,1.462,0,1,1,0-2.918h3.891A1.585,1.585,0,0,1,71.091,59.2Z" transform="translate(-24.889 -17.569)" fill="#683c11"/>
      <path id="Path_47282" data-name="Path 47282" d="M53.3,110.055,78.1,104.9l-1.07,2.918-24.706,5.058a5.9,5.9,0,0,1-2.918-.1l-1.459,7.781,2.14,14.4,63.224,4.669H46.3V106.651a6.4,6.4,0,0,0,7,3.4Z" transform="translate(-24.512 -18.917)" fill="#1d1d1b" opacity="0.1"/>
      <g id="Group_7510" data-name="Group 7510" transform="translate(77.19 44.792)">
        <path id="Path_47283" data-name="Path 47283" d="M104.4,75.349a31.446,31.446,0,0,1,6.225-8.073c11.867-9.629,18.286-1.07,21.982,3.21,4.085,5.155,4.863,12.839-2.626,19.745a13.432,13.432,0,0,1-1.848.584l-2.821,5.35a1.681,1.681,0,0,1-2.432.584l-1.264-.875c-.778.681-3.988,3.6-3.988,3.6-2.043,1.654-5.544,2.821-7.587.389L108,97.334c-2.237-3.307-2.626-10.894,2.626-15.174C109.162,80.31,103.229,77.587,104.4,75.349Z" transform="translate(-103.286 -62.56)" fill="#f9c484"/>
        <path id="Path_47284" data-name="Path 47284" d="M103.785,79.718C108.843,88.958,114,76.9,114,76.9s-1.264,4.182-1.556,5.447a17.047,17.047,0,0,0,2.237,2.334c10.213-8.073,12.937-13.715,20.037-.973,2.237,1.848,10.019-2.821-1.654-15.563-5.155-5.641-12.256-7.392-18.773-3.5S101.354,73.979,103.785,79.718Z" transform="translate(-103.259 -62.551)" fill="#3c3c3b"/>
        <path id="Path_47285" data-name="Path 47285" d="M112.244,76.567c-1.848,1.556-2.529,4.863-1.556,6.128,1.07,1.167,2.334-.195,4.182-1.751,1.167-1.07,3.21-2.237,2.432-3.793C116.718,75.691,114.87,74.33,112.244,76.567Z" transform="translate(-103.45 -62.901)" fill="#f9c484"/>
      </g>
      <path id="Path_47286" data-name="Path 47286" d="M67.415,29.548h0c-5.447,0-8.17.973-10.894,3.793A11.153,11.153,0,0,0,53.7,39.469v-.584a10.354,10.354,0,0,1,2.821-7.392c2.723-2.918,5.447-3.793,10.894-3.793h0c5.447,0,8.17.973,10.894,3.793a10.514,10.514,0,0,1,2.821,7.392v.584a9.723,9.723,0,0,0-2.821-6.128C75.585,30.521,72.862,29.548,67.415,29.548Z" transform="translate(-24.714 -16.806)" fill="#fff" opacity="0.2"/>
      <path id="Path_47287" data-name="Path 47287" d="M114.195,64.741c6.614-3.891,13.617-2.14,18.773,3.5,5.35,5.739,6.614,9.921,6.225,12.45-.292-2.529-1.945-6.128-6.225-10.7-5.155-5.641-12.256-7.392-18.773-3.5-5.155,3.015-10.213,7.1-10.8,11.575C102.62,72.912,108.359,68.146,114.195,64.741Z" transform="translate(-26.07 -17.762)" fill="#fff" opacity="0.2"/>
      <g id="Group_7513" data-name="Group 7513" transform="translate(82.872 61.278)" opacity="0.1">
        <g id="Group_7511" data-name="Group 7511">
          <path id="Path_47288" data-name="Path 47288" d="M116.006,98.272s3.5-2.918,4.377-3.5l1.264.973a1.686,1.686,0,0,0,2.529-.389l3.21-5.35a17.387,17.387,0,0,0,1.945-.584,18.713,18.713,0,0,0,5.252-6.517h0c1.264,1.167,4.474.195,4.863-3.4.486,4.474-3.113,5.933-4.572,4.766h0a17.734,17.734,0,0,1-4.766,6.517,13.429,13.429,0,0,1-1.848.584l-2.821,5.35a1.681,1.681,0,0,1-2.432.584l-1.264-.875c-.778.681-3.988,3.6-3.988,3.6-2.043,1.654-5.544,2.821-7.587.389l-1.07-1.362C111.045,100.607,114.061,99.634,116.006,98.272Z" transform="translate(-109.1 -79.5)" fill="#1d1d1b"/>
        </g>
        <g id="Group_7512" data-name="Group 7512">
          <path id="Path_47289" data-name="Path 47289" d="M116.006,98.272s3.5-2.918,4.377-3.5l1.264.973a1.686,1.686,0,0,0,2.529-.389l3.21-5.35a17.387,17.387,0,0,0,1.945-.584,18.713,18.713,0,0,0,5.252-6.517h0c1.264,1.167,4.474.195,4.863-3.4.486,4.474-3.113,5.933-4.572,4.766h0a17.734,17.734,0,0,1-4.766,6.517,13.429,13.429,0,0,1-1.848.584l-2.821,5.35a1.681,1.681,0,0,1-2.432.584l-1.264-.875c-.778.681-3.988,3.6-3.988,3.6-2.043,1.654-5.544,2.821-7.587.389l-1.07-1.362C111.045,100.607,114.061,99.634,116.006,98.272Z" transform="translate(-109.1 -79.5)" fill="#1d1d1b" opacity="0.1"/>
        </g>
      </g>
      <path id="Path_47290" data-name="Path 47290" d="M101.9,111.2l.973,13.909a6.591,6.591,0,0,0,6.031,6.225l6.42.681c0-.778.1-1.556.1-2.14l-6.906-1.459a4.535,4.535,0,0,1-3.4-3.307Z" transform="translate(-26.031 -19.089)" fill="#1d1d1b" opacity="0.1"/>
      <g id="Group_7514" data-name="Group 7514" transform="translate(54.135 65.169)">
        <path id="Path_47291" data-name="Path 47291" d="M88.3,140.584h2.432a.671.671,0,0,0-.973-.486,8.559,8.559,0,0,0-1.459.486Z" transform="translate(-79.795 -85.045)" fill="#634e42"/>
        <path id="Path_47292" data-name="Path 47292" d="M84.413,140.469a1.383,1.383,0,0,0-.195-.584c.1-.1.292-.1.389-.2.1.2.195.486.292.681v.1h1.945c.875-.292,1.654-.681,2.529-.973a.858.858,0,0,0,.486-1.167c-.292-.681-.486-1.362-.681-1.945-.195-.486-.584-.681-.973-.486-1.167.486-2.334,1.07-3.4,1.556a1.116,1.116,0,0,0-.486,1.167h0c-.1.1-.292.1-.389.2a2.122,2.122,0,0,0-.389-.486.634.634,0,0,0-.875.2.585.585,0,0,0-.1.389c-.195.584-.778.875-1.167,1.362l-.1.1h3.113Z" transform="translate(-79.603 -84.93)" fill="#634e42"/>
        <path id="Path_47293" data-name="Path 47293" d="M103.11,91.329c-.389-.195-.778-.486-1.167-.681a.458.458,0,0,1-.1-.584c.1-.1.1-.195.195-.292a.1.1,0,0,1-.1-.1c-.1.1-.1.195-.195.292,0,.1-.1.1-.1.195-.1.1-.195.1-.195,0-.1-.1,0-.195-.1-.292,0-.1-.1-.1-.292-.1a1.924,1.924,0,0,1-1.07-.195c-.1,0-.1-.1-.1-.2a.1.1,0,0,1,.1-.1c.292-.1.584.1.875-.1a.737.737,0,0,1,.389-.195c.195-.1.486,0,.681-.1.1,0,.1-.1.195-.1h.195c.1.1,0,.195,0,.292v.1a.1.1,0,0,1,.1.1h0a.454.454,0,0,1,.681-.1c.389.292.778.486,1.167.778a.367.367,0,0,1,.1.584c-.1.292-.292.486-.389.778a.73.73,0,0,1-.87.015Z" transform="translate(-80.112 -83.645)" fill="#e94e1b"/>
        <path id="Path_47294" data-name="Path 47294" d="M104.015,89.533c-.389-.195-.681-.486-1.07-.681a.339.339,0,0,1-.1-.486c.1-.1.1-.195.2-.292a.1.1,0,0,1-.1-.1.357.357,0,0,0-.1.292c0,.1-.1.1-.1.195-.1.1-.1.1-.195.1s0-.195-.1-.292c0-.1-.195-.1-.292-.1-.389,0-.778.1-1.07.1a.1.1,0,1,1,0-.195c.292-.1.584-.1.778-.292l.292-.292c.195-.1.486-.1.681-.195.1,0,.1-.1.195-.1s.1-.1.195,0a.182.182,0,0,1,0,.292v.1c.1,0,.1.1.195.1h0c.1-.195.389-.195.584-.1.389.195.681.486,1.07.681a.367.367,0,0,1,.1.584c-.1.195-.2.486-.292.681A.726.726,0,0,1,104.015,89.533Z" transform="translate(-80.142 -83.6)" fill="#e94e1b"/>
        <path id="Path_47295" data-name="Path 47295" d="M104.818,87.941c-.292-.195-.681-.389-.973-.584-.195-.1-.195-.292-.1-.486.1-.1.1-.195.195-.195h-.1c0,.1-.1.195-.1.292s-.1.1-.1.195c-.1.1-.1.1-.195.1-.1-.1,0-.195-.1-.292,0-.1-.195-.1-.292-.1a3.923,3.923,0,0,1-1.07,0,.1.1,0,1,1,0-.195c.292-.1.584,0,.778-.195l.292-.292c.195-.1.486-.1.681-.195.1,0,.1-.1.195-.1s.1-.1.195,0,0,.195,0,.292a.357.357,0,0,1-.1.292.1.1,0,0,1,.1.1h0a.276.276,0,0,1,.486,0,8.415,8.415,0,0,0,.973.681.339.339,0,0,1,.1.486l-.292.584C105.4,88.136,105.013,88.136,104.818,87.941Z" transform="translate(-80.166 -83.564)" fill="#e94e1b"/>
        <path id="Path_47296" data-name="Path 47296" d="M105.511,86.437a3.043,3.043,0,0,0-.973-.486.241.241,0,0,1-.1-.389c0-.1.1-.1.1-.195h-.1c-.1.1-.1.195-.195.195a.34.34,0,0,1-.195-.1c-.195,0-.389.1-.486,0-.389-.195-1.459.584-1.167-.1.195-.195.486-.778.681-.973.195-.1.292-.195.486-.195.1,0,.195.292.292.292.195.195.389.1.584.195.1,0,.1.1.1.195h0a.1.1,0,0,1,.1.1h0a.321.321,0,0,1,.486,0l.875.584c.195.1.292.292.195.389-.1.195-.1.389-.195.486C106,86.632,105.706,86.534,105.511,86.437Z" transform="translate(-80.178 -83.519)" fill="#e94e1b"/>
        <path id="Path_47297" data-name="Path 47297" d="M106.13,85.251a3.043,3.043,0,0,0-.973-.486.241.241,0,0,1-.1-.389c0-.1.1-.1.1-.2l-.1-.1h0a.357.357,0,0,0-.1.292l-.1.1c-.1,0-.195,0-.195-.1s0-.1-.1-.195-.1-.1-.195-.1a4.74,4.74,0,0,1-.681-.292s-.1-.1,0-.1l.1-.1c.195,0,.389.1.584.1.1,0,.195-.1.292-.1.195,0,.292.1.486,0a.1.1,0,0,0,.1-.1h.1v.195a.1.1,0,0,1,.1.1h0a.321.321,0,0,1,.486,0l.875.584a.388.388,0,0,1,.2.389c-.1.195-.1.389-.2.486a.579.579,0,0,1-.679.011Z" transform="translate(-80.214 -83.5)" fill="#e94e1b"/>
        <path id="Path_47298" data-name="Path 47298" d="M81.076,135.2c.292-.2.778-.389.973-.778.1-.292.1-.584.292-.778s.389-.1.584,0a.743.743,0,0,1,.195.486c.1,0,.2-.1.292-.1h0a1.115,1.115,0,0,1,.681-1.264c1.167-.389,2.432-.681,3.6-.973a.736.736,0,0,1,.875.778c.1.584.195,1.264.292,1.848a1.289,1.289,0,0,1-.875,1.264c-1.167.389-2.237.778-3.307,1.167-.389.1-.778-.2-.875-.778,0-.292-.1-.584-.1-.778-.1,0-.195.1-.292.1a9.436,9.436,0,0,1-.1,1.654.98.98,0,0,1-.1.292c-.195.1-.292-.1-.389-.2a.726.726,0,0,0-.875,0c-.292.2-.486.486-.778.681a.827.827,0,0,1-.486.292c-.195,0-.389,0-.389-.292a.434.434,0,0,1,0-.486,2.018,2.018,0,0,1,.782-2.14Z" transform="translate(-79.574 -84.82)" fill="#634e42"/>
        <path id="Path_47299" data-name="Path 47299" d="M80.961,129.64c.195-.2.486-.292.584-.584a7.491,7.491,0,0,0,.195-.778c.1-.292.389-.486.486-.292a.357.357,0,0,1,.1.292c0,.2.1.389.1.584.1,0,.292-.1.389-.1h0a.99.99,0,0,1,.875-1.07c1.167-.1,2.334-.1,3.5-.2.486,0,.778.389.778.973,0,.681.1,1.264.1,1.945a1.243,1.243,0,0,1-1.167,1.07c-1.167.1-2.334.292-3.5.389-.389,0-.681-.389-.681-.973v-.875c-.1,0-.195.1-.292.1v1.07a.729.729,0,0,1-.1.486c-.195.292-.681,0-.973.1s-.389.389-.486.778c-.1.292-.292.681-.389.973s-.292.584-.486.584-.292-.2-.389-.389,0-.486,0-.681C79.793,131.682,80.085,130.321,80.961,129.64Z" transform="translate(-79.556 -84.703)" fill="#634e42"/>
        <path id="Path_47300" data-name="Path 47300" d="M81.163,124.556a1.8,1.8,0,0,0,.681-.778c.1-.292.1-.584.292-.681.195-.195.486-.1.681.195a1.442,1.442,0,0,1,.1.681h.195c.1-.584.486-.973.973-.875,1.07.1,2.237.1,3.307.195.486,0,.681.486.681.973,0,.584-.1,1.264-.1,1.848a1.115,1.115,0,0,1-1.167.875H83.6a.866.866,0,0,1-.584-1.07c0-.292.1-.584.1-.778a.357.357,0,0,0-.292.1c-.1.292-.195.681-.292.973,0,.1,0,.195-.1.195a.729.729,0,0,1-.486.1c-.389,0-.681.486-.875.875a3.3,3.3,0,0,1-.875,1.362c-.1,0-.1.1-.2.1-.195-.1-.195-.389-.1-.584a5.851,5.851,0,0,1,1.266-3.706Z" transform="translate(-79.563 -84.58)" fill="#634e42"/>
        <path id="Path_47301" data-name="Path 47301" d="M81.07,120.633a2.84,2.84,0,0,1,.195-.875,1.438,1.438,0,0,1,1.07-.778,1.568,1.568,0,0,1,.389-.681c.195-.1.486-.1.584.1a1.341,1.341,0,0,1,0,.875v.195H83.5a.926.926,0,0,1,.973-.778c1.07.195,2.043.389,3.113.584a.92.92,0,0,1,.584,1.07l-.292,1.751c-.1.486-.875.778-1.264.681-1.07-.1-2.043-.292-3.113-.389a.87.87,0,0,1-.486-1.07c.1-.292.1-.486.195-.778-.1,0-.195,0-.195-.1-.1.292-.195.681-.292.973,0,.1,0,.195-.1.195-.195.195-.389,0-.584,0-.292,0-.486.486-.681.875a6.826,6.826,0,0,1-.584.875.743.743,0,0,1-.486.195c-.195,0-.292-.195-.292-.389a.743.743,0,0,1,.195-.486,3.567,3.567,0,0,0,.879-2.045Z" transform="translate(-79.568 -84.45)" fill="#634e42"/>
        <path id="Path_47302" data-name="Path 47302" d="M81.465,116.337c.195-.389.292-.875.486-1.167s.486-.584.778-.584a.729.729,0,0,0,.486-.1c.292-.1.486-.486.778-.389a.505.505,0,0,1,.195.389c0,.195-.1.292-.1.486v.1c.1,0,.195.1.292.1h0a.842.842,0,0,1,1.07-.584c.973.292,2.043.584,3.015.875a.87.87,0,0,1,.486,1.07c-.1.584-.292,1.07-.389,1.654a1.081,1.081,0,0,1-1.362.486c-.973-.195-2.043-.486-3.015-.681a.787.787,0,0,1-.389-1.07,1.8,1.8,0,0,0,.195-.681.357.357,0,0,1-.292-.1c-.1.195-.1.292-.195.486a2.438,2.438,0,0,1-.389.681c-.292.195-.681,0-.973,0-.584,0-.973.681-1.362,1.264-.1.195-.389.292-.486.195a.3.3,0,0,1,0-.389,3.043,3.043,0,0,1,.486-.973C81.076,116.92,81.368,116.726,81.465,116.337Z" transform="translate(-79.574 -84.336)" fill="#634e42"/>
        <path id="Path_47303" data-name="Path 47303" d="M84.12,110.291c.195,0,.389.1.486,0,.292-.1.584-.389.778-.292.1.1.195.292.1.389,0,.195-.1.292-.195.486h0c.1,0,.195.1.292.1h0a.858.858,0,0,1,1.167-.486c.875.389,1.848.778,2.723,1.167a.818.818,0,0,1,.389,1.07c-.195.584-.389,1.07-.584,1.654a1.077,1.077,0,0,1-1.362.389c-.875-.292-1.751-.681-2.529-.973a.782.782,0,0,1-.292-1.07,1.8,1.8,0,0,0,.2-.681c-.1,0-.292-.1-.389-.1-.1.195-.1.292-.195.486s-.195.486-.486.584c-.292.195-.486-.681-.778-.584a4.728,4.728,0,0,0-1.654,1.459c-.1.1-.389.292-.486.1-.1-.1,0-.292,0-.389a1.416,1.416,0,0,1,.584-.875c.2-.195.486-.389.778-.681.195-.292.389-.778.584-1.07A.99.99,0,0,1,84.12,110.291Z" transform="translate(-79.602 -84.224)" fill="#634e42"/>
        <path id="Path_47304" data-name="Path 47304" d="M86.913,106.388c.195-.1.389-.292.584-.389s.486,0,.486.195a.743.743,0,0,1-.195.486l-.195.2c.1.1.195.1.292.195h0a.928.928,0,0,1,1.167-.292c.778.486,1.459.973,2.237,1.459a.808.808,0,0,1,.195,1.167c-.292.486-.584.973-.875,1.556a1.167,1.167,0,0,1-1.459.1c-.681-.389-1.362-.875-2.14-1.264a.885.885,0,0,1-.1-1.167c.1-.195.2-.486.292-.681-.1-.1-.195-.1-.292-.195-.195.292-.389.681-.584.973,0,.1-.1.1-.1.195-.195.1-.292-.1-.389-.292-.1-.292-.292-.584-.486-.584a.743.743,0,0,0-.486.195,1.2,1.2,0,0,1-.973.2c-.1,0-.1,0-.1-.1s0-.195.1-.195a5.56,5.56,0,0,1,.681-.778,2.986,2.986,0,0,1,1.264-.778C86.232,106.485,86.621,106.583,86.913,106.388Z" transform="translate(-79.672 -84.114)" fill="#634e42"/>
        <path id="Path_47305" data-name="Path 47305" d="M89.217,103.189c.292,0,.584-.389.875-.389a.311.311,0,0,1,.292.292c0,.1-.1.195-.1.292a1.343,1.343,0,0,0-.292.389l-.1.1c.1.1.195.1.292.195h0a.792.792,0,0,1,1.07-.195,23.6,23.6,0,0,0,1.945,1.362.689.689,0,0,1,.1,1.07c-.292.389-.584.875-.875,1.264s-.973.292-1.362,0c-.584-.389-1.264-.778-1.848-1.167a.872.872,0,0,1-.1-1.07c.1-.195.292-.389.389-.584-.1-.1-.195-.1-.292-.195l-.1.1a.847.847,0,0,1-.875.389c-.2-.2.1-.584-.1-.778a1.151,1.151,0,0,0-.973-.1c-.195.1-.486.2-.681.292H86.3c-.1-.1,0-.292.1-.389a2.99,2.99,0,0,1,2.14-1.167C89.022,103,89.12,103.286,89.217,103.189Z" transform="translate(-79.739 -84.028)" fill="#634e42"/>
        <path id="Path_47306" data-name="Path 47306" d="M92.692,100.2c.1,0,.292,0,.292.1l-.1.292c-.1.195-.292.389-.389.584.1,0,.1.1.195.1h0a.677.677,0,0,1,.973-.195c.486.486,1.07.875,1.556,1.362a.648.648,0,0,1,0,.973c-.292.389-.584.875-.875,1.264a.9.9,0,0,1-1.167.1c-.486-.389-1.07-.778-1.556-1.167a.648.648,0,0,1,0-.973.971.971,0,0,1,.389-.486l-.195-.195-.1.1c-.195.195-.389.389-.681.292-.195-.1-.195-.486-.389-.681-.195-.292-.681,0-.973,0s-.973.1-.778-.195a1.567,1.567,0,0,1,1.751-.875c.1,0,.292.1.389.1C91.623,100.588,92.109,100,92.692,100.2Z" transform="translate(-79.81 -83.955)" fill="#634e42"/>
        <path id="Path_47307" data-name="Path 47307" d="M94.215,97.7a.693.693,0,0,1,.584.292.505.505,0,0,1-.2.389c.1.1.2.1.2.195h0a.774.774,0,0,1,.973-.195c.486.389.973.875,1.459,1.264a.648.648,0,0,1,0,.973c-.292.389-.486.875-.778,1.264a.8.8,0,0,1-1.167,0c-.486-.389-1.07-.778-1.556-1.167a.884.884,0,0,1,0-.973,2.122,2.122,0,0,1,.389-.486c-.1-.1-.292-.2-.389-.292l-.195.195c-.1.1-.1.195-.195.195-.195.1-.389.195-.486-.1,0-.195-.1-.486-.292-.486a1.382,1.382,0,0,0-.584.195c-.292.1-.778.389-.778,0a.646.646,0,0,1,.389-.486,1.234,1.234,0,0,1,.584-.1,7.333,7.333,0,0,0,1.264-.584C93.826,97.7,93.923,97.8,94.215,97.7Z" transform="translate(-79.874 -83.888)" fill="#634e42"/>
        <path id="Path_47308" data-name="Path 47308" d="M96.926,95.4a.311.311,0,0,1,.292.292.1.1,0,0,1-.1.1c0,.1-.1.1-.1.195l.195.195h0a.657.657,0,0,1,.973-.1c.486.389.875.875,1.362,1.264a.648.648,0,0,1,0,.973c-.292.389-.486.778-.778,1.167a.873.873,0,0,1-1.07,0,16.937,16.937,0,0,1-1.362-1.167.88.88,0,0,1,0-.973,1.708,1.708,0,0,1,.389-.486l-.1-.1-.1.1c-.1.1-.195.292-.389.389s-.292.292-.389.1c-.1-.1,0-.486,0-.584a.5.5,0,0,0-.681-.292.734.734,0,0,1-.778-.1c-.2-.195.875-.778,1.362-.778a3.941,3.941,0,0,0,1.07,0C96.634,95.6,96.731,95.5,96.926,95.4Z" transform="translate(-79.958 -83.825)" fill="#e94e1b"/>
        <path id="Path_47309" data-name="Path 47309" d="M97.367,93.689h.292c.195,0,.389-.195.681-.292.195-.1.486-.195.681,0,.1,0,.1.1.1.195s-.1.292-.195.292l-.1.1.195.195h0a.506.506,0,0,1,.778,0c.389.389.875.681,1.264,1.07a.6.6,0,0,1,.1.778l-.584.875a.748.748,0,0,1-.973-.1c-.486-.292-.875-.681-1.362-.973a.588.588,0,0,1,0-.778,1.343,1.343,0,0,0,.292-.389c-.1-.1-.2-.1-.292-.2a1.343,1.343,0,0,1-.389.292.34.34,0,0,1-.195.1.311.311,0,0,1-.292-.292c-.1-.1-.1-.292-.292-.389s-.389.1-.486.1c-.195.1-.486,0-.389-.195a.209.209,0,0,1,.195-.195,2.878,2.878,0,0,1,.971-.2Z" transform="translate(-80.01 -83.767)" fill="#e94e1b"/>
        <path id="Path_47310" data-name="Path 47310" d="M99.044,92c.292-.1.584.1.778,0,.1,0,.1-.1.195-.1h.195c.1.1,0,.195,0,.389a.1.1,0,0,1-.1.1l.1.1h0a.47.47,0,0,1,.681,0l1.167.875a.481.481,0,0,1,.1.681,2.912,2.912,0,0,0-.389.778c-.195.195-.584.1-.875-.1a14.227,14.227,0,0,0-1.264-.875.469.469,0,0,1-.1-.584c.1-.1.1-.2.195-.292l-.1-.1-.195.195c0,.1-.1.1-.195.195a.182.182,0,0,1-.292,0c-.1-.1,0-.195-.1-.292,0-.1-.195-.195-.292-.195a7.165,7.165,0,0,1-1.362-.389c-.1,0-.2-.1-.1-.2,0-.1.1-.1.195-.1.389,0,.681.195.973.1A1.257,1.257,0,0,0,99.044,92Z" transform="translate(-80.034 -83.73)" fill="#e94e1b"/>
        <path id="Path_47311" data-name="Path 47311" d="M100.262,90.5c.195-.1.486,0,.681-.1.1,0,.1-.1.195-.1h.195c.1.1,0,.195,0,.292s0,.1-.1.195h0l.1.1h0a.47.47,0,0,1,.681,0l1.167.875a.481.481,0,0,1,.1.681c-.1.292-.292.486-.389.778-.195.195-.584.1-.875-.1a5.514,5.514,0,0,0-1.264-.778.458.458,0,0,1-.1-.584c.1-.1.1-.195.195-.292l-.1-.1a.34.34,0,0,1-.1.195c0,.1-.1.1-.195.2s-.195.1-.195,0c-.1-.1,0-.195,0-.292s-.1-.1-.195-.195c-.389-.1-.778-.1-1.07-.195-.1,0-.1-.1-.1-.195a.1.1,0,0,1,.1-.1c.292-.1.584.1.875,0C99.97,90.592,100.067,90.5,100.262,90.5Z" transform="translate(-80.084 -83.686)" fill="#e94e1b"/>
      </g>
    </g>
  </g>
</svg>
