<svg xmlns="http://www.w3.org/2000/svg" xmlns:xlink="http://www.w3.org/1999/xlink" width="117" height="117" viewBox="0 0 117 117">
  <defs>
    <linearGradient id="linear-gradient" y1="0.5" x2="1" y2="0.5" gradientUnits="objectBoundingBox">
      <stop offset="0" stop-color="#00668d"/>
      <stop offset="0.274" stop-color="#5093af"/>
      <stop offset="0.532" stop-color="#95bacc"/>
      <stop offset="0.747" stop-color="#c6d6e0"/>
      <stop offset="0.909" stop-color="#e5e8ed"/>
      <stop offset="1" stop-color="#f0eef2"/>
    </linearGradient>
    <linearGradient id="linear-gradient-2" y1="0.5" x2="1" y2="0.5" gradientUnits="objectBoundingBox">
      <stop offset="0" stop-color="#ebebeb"/>
      <stop offset="1" stop-color="#fff"/>
    </linearGradient>
  </defs>
  <g id="pediatrician" transform="translate(-0.061)">
    <circle id="Ellipse_1838" data-name="Ellipse 1838" cx="58.263" cy="58.263" r="58.263" transform="translate(0.196 0.292)" fill="url(#linear-gradient)"/>
    <circle id="Ellipse_1839" data-name="Ellipse 1839" cx="58.5" cy="58.5" r="58.5" transform="translate(0.061)" fill="url(#linear-gradient-2)"/>
    <circle id="Ellipse_1840" data-name="Ellipse 1840" cx="58.263" cy="58.263" r="58.263" transform="translate(0.196 0.292)" fill="none"/>
    <g id="Group_7529" data-name="Group 7529" transform="translate(16.732 11.293)">
      <ellipse id="Ellipse_1841" data-name="Ellipse 1841" cx="35.405" cy="11.186" rx="35.405" ry="11.186" transform="translate(0 71.48)" fill="#c1e0eb" opacity="0.2"/>
      <g id="Group_7528" data-name="Group 7528" transform="translate(1.871)">
        <g id="Group_7517" data-name="Group 7517" transform="translate(7.514 51.882)">
          <path id="Path_47312" data-name="Path 47312" d="M52.766,110.276c1.362.778,2.626.1,3.988-.292a9.98,9.98,0,0,1,5.836.486c3.307,1.167,6.711,3.307,10.31,2.821a10.845,10.845,0,0,0,6.906-4.085,20.327,20.327,0,0,0,3.6-9.143c.681-3.4,1.264-7,.389-10.408a15.245,15.245,0,0,0-1.751-4.085,8.093,8.093,0,0,0-5.35-4.377,11.3,11.3,0,0,0-10.8,3.7,14.629,14.629,0,0,0-3.015,5.35,12.41,12.41,0,0,0-.584,3.21c-.1.973.1,1.945,0,2.918-.1,2.043-2.237.875-3.5.973a5.18,5.18,0,0,0-2.334.584,7.884,7.884,0,0,0-3.6,4.474C52.182,104.245,50.334,108.817,52.766,110.276Z" transform="translate(-51.548 -80.951)" fill="#98d2e9"/>
          <path id="Path_47313" data-name="Path 47313" d="M52.766,110.276c1.362.778,2.626.1,3.988-.292a9.98,9.98,0,0,1,5.836.486c3.307,1.167,6.711,3.307,10.31,2.821a10.845,10.845,0,0,0,6.906-4.085,20.327,20.327,0,0,0,3.6-9.143c.681-3.4,1.264-7,.389-10.408a15.245,15.245,0,0,0-1.751-4.085,8.093,8.093,0,0,0-5.35-4.377,11.3,11.3,0,0,0-10.8,3.7,14.629,14.629,0,0,0-3.015,5.35,12.41,12.41,0,0,0-.584,3.21c-.1.973.1,1.945,0,2.918-.1,2.043-2.237.875-3.5.973a5.18,5.18,0,0,0-2.334.584,7.884,7.884,0,0,0-3.6,4.474C52.182,104.245,50.334,108.817,52.766,110.276Z" transform="translate(-51.548 -80.951)" fill="#98d2e9" opacity="0.3"/>
          <path id="Path_47314" data-name="Path 47314" d="M52.766,110.276c1.362.778,2.626.1,3.988-.292a9.98,9.98,0,0,1,5.836.486c3.307,1.167,6.711,3.307,10.31,2.821a10.845,10.845,0,0,0,6.906-4.085,20.327,20.327,0,0,0,3.6-9.143c.681-3.4,1.264-7,.389-10.408a15.245,15.245,0,0,0-1.751-4.085,8.093,8.093,0,0,0-5.35-4.377,11.3,11.3,0,0,0-10.8,3.7,14.629,14.629,0,0,0-3.015,5.35,12.41,12.41,0,0,0-.584,3.21c-.1.973.1,1.945,0,2.918-.1,2.043-2.237.875-3.5.973a5.18,5.18,0,0,0-2.334.584,7.884,7.884,0,0,0-3.6,4.474C52.182,104.245,50.334,108.817,52.766,110.276Z" transform="translate(-51.548 -80.951)" fill="#98d2e9" opacity="0.5"/>
        </g>
        <g id="Group_7518" data-name="Group 7518" transform="translate(45.325 59.036)">
          <path id="Path_47315" data-name="Path 47315" d="M91.179,108.144a22.325,22.325,0,0,0,1.945,4.766,5.127,5.127,0,0,0,2.432,2.529,16.412,16.412,0,0,0,5.35.486c1.362.1,3.113.486,4.28-.292.875-.584.486-1.654-.195-2.334a3.749,3.749,0,0,0-1.751-.584,4.756,4.756,0,0,1-2.237-.778c-3.6-2.529-1.556-7.49-1.264-11.088a37.649,37.649,0,0,0-.1-9.921,1.655,1.655,0,0,0-.1-.681c0-.1-.1-.195-.1-.292s-.1-.292-.1-.389a.1.1,0,0,0-.1-.1c-.973-1.848-3.21-1.167-4.474.486a20.349,20.349,0,0,0-3.988,8.559,21.563,21.563,0,0,0,.4,9.633Z" transform="translate(-90.422 -88.307)" fill="#98d2e9"/>
          <path id="Path_47316" data-name="Path 47316" d="M91.179,108.144a22.325,22.325,0,0,0,1.945,4.766,5.127,5.127,0,0,0,2.432,2.529,16.412,16.412,0,0,0,5.35.486c1.362.1,3.113.486,4.28-.292.875-.584.486-1.654-.195-2.334a3.749,3.749,0,0,0-1.751-.584,4.756,4.756,0,0,1-2.237-.778c-3.6-2.529-1.556-7.49-1.264-11.088a37.649,37.649,0,0,0-.1-9.921,1.655,1.655,0,0,0-.1-.681c0-.1-.1-.195-.1-.292s-.1-.292-.1-.389a.1.1,0,0,0-.1-.1c-.973-1.848-3.21-1.167-4.474.486a20.349,20.349,0,0,0-3.988,8.559,21.563,21.563,0,0,0,.4,9.633Z" transform="translate(-90.422 -88.307)" fill="#98d2e9" opacity="0.3"/>
          <path id="Path_47317" data-name="Path 47317" d="M94.875,89.856c1.264-1.654,3.5-2.237,4.474-.486.1,0,.1,0,.1.1s.1.292.1.389.1.195.1.292a1.655,1.655,0,0,1,.1.681,29.287,29.287,0,0,1,.292,6.517,22.4,22.4,0,0,0-3.113,3.7,15.259,15.259,0,0,0-2.237,6.809,6.049,6.049,0,0,0,.486,3.21c.681,1.362,2.14,1.654,3.4,1.848a15.657,15.657,0,0,0,5.642-.292,1.955,1.955,0,0,1,.778.389,1.465,1.465,0,0,1,.195,2.334c-1.167.875-3.015.389-4.28.292-1.751-.1-3.7.1-5.35-.486a5.127,5.127,0,0,1-2.432-2.529,20.446,20.446,0,0,1-1.945-4.766,20.142,20.142,0,0,1-.292-9.629A20.751,20.751,0,0,1,94.875,89.856Z" transform="translate(-90.422 -88.306)" fill="#98d2e9" opacity="0.5"/>
          <path id="Path_47318" data-name="Path 47318" d="M93.6,114.045a13.024,13.024,0,0,0,7.1-1.945c.195.195.389.292.584.486a4.756,4.756,0,0,0,2.237.778,2.914,2.914,0,0,1,1.751.584,1.465,1.465,0,0,1,.195,2.334c-1.167.875-3.015.389-4.28.292-1.751-.1-3.7.1-5.35-.486A3.885,3.885,0,0,1,93.6,114.045Z" transform="translate(-90.509 -88.956)" fill="#ffd3c3"/>
        </g>
        <g id="Group_7520" data-name="Group 7520" transform="translate(4.374 37.222)">
          <path id="Path_47319" data-name="Path 47319" d="M52.484,98.681c8.073,10.018,22.955,13.131,34.433,7.587a29.379,29.379,0,0,0,16.827-25.484,11.616,11.616,0,0,0-.292-4.474c-.1-.486-.1-.973-.195-1.459,0-.1-.195-.195-.292-.195a13.829,13.829,0,0,0-7.49-7.684,14.217,14.217,0,0,0-8.56-.584,13.545,13.545,0,0,0-4.474,2.14c-1.654,1.07-3.21,1.848-5.252,1.459-3.21-.584-6.031-2.043-9.338-2.14A19.35,19.35,0,0,0,59.39,69.5C48.107,74.364,44.9,89.149,52.484,98.681Z" transform="translate(-48.321 -65.882)" fill="#b0e6f4"/>
          <path id="Path_47320" data-name="Path 47320" d="M59.389,69.453A19.625,19.625,0,0,1,67.851,67.8h.1A27.42,27.42,0,0,1,69.8,79.666c0,.195-.1.292-.292.389C64.836,82,60.07,83.946,56.374,87.545a14.8,14.8,0,0,0-4.474,10.6C44.993,88.712,48.4,74.317,59.389,69.453Z" transform="translate(-48.32 -65.931)" fill="#80bedc"/>
          <g id="Group_7519" data-name="Group 7519" transform="translate(0.034)" opacity="0.5">
            <path id="Path_47321" data-name="Path 47321" d="M103.624,74.459a7.888,7.888,0,0,1-5.35,5.155c-.195.1-.389-.195-.292-.292-2.821.973-6.225.195-8.949-.875-4.085-1.654-7.392-4.766-10.8-7.392-.681-.584-1.459-1.07-2.237-1.654a15.549,15.549,0,0,0,2.043.486c2.043.389,3.6-.389,5.252-1.459a14.627,14.627,0,0,1,4.474-2.14,13.631,13.631,0,0,1,8.56.681A14.8,14.8,0,0,1,103.624,74.459Z" transform="translate(-49.11 -65.879)" fill="#b0e6f4"/>
            <path id="Path_47322" data-name="Path 47322" d="M51.025,79.607C50.636,84.47,52.679,92.349,59.1,90.5c2.043-.584,3.793-1.945,5.836-2.626a6.747,6.747,0,0,1,5.933.681c2.237,1.362,3.891,3.5,6.517,4.182,3.4.875,5.058-2.723,6.128-5.252a4.119,4.119,0,0,1,.584-1.362.219.219,0,0,1,.389.2c-1.264,4.863.681,9.921,5.739,11.283a8.509,8.509,0,0,0,7-1.264,36.6,36.6,0,0,0,3.015-2.432,29.655,29.655,0,0,1-13.326,12.742c-11.575,5.447-26.359,2.432-34.433-7.587a19.459,19.459,0,0,1-.875-22.76,16.7,16.7,0,0,0-.582,3.307Z" transform="translate(-48.355 -66.164)" fill="#b0e6f4"/>
          </g>
        </g>
        <g id="Group_7521" data-name="Group 7521" transform="translate(0 54.216)">
          <path id="Path_47323" data-name="Path 47323" d="M45.066,112.676c1.362.778,2.626.1,3.988-.292a9.98,9.98,0,0,1,5.836.486c3.307,1.167,6.711,3.307,10.31,2.821a10.845,10.845,0,0,0,6.906-4.085,20.326,20.326,0,0,0,3.6-9.143c.681-3.4,1.264-7,.389-10.408a15.245,15.245,0,0,0-1.751-4.085,8.093,8.093,0,0,0-5.35-4.377,11.3,11.3,0,0,0-10.8,3.7,14.629,14.629,0,0,0-3.015,5.35,12.41,12.41,0,0,0-.584,3.21c-.1.973.1,1.945,0,2.918-.1,2.043-2.237.875-3.5.973a5.18,5.18,0,0,0-2.334.584,7.884,7.884,0,0,0-3.6,4.474C44.482,106.645,42.634,111.217,45.066,112.676Z" transform="translate(-43.824 -83.351)" fill="#98d2e9"/>
          <path id="Path_47324" data-name="Path 47324" d="M45.162,105.135c0-.1.1-.195.1-.292-.292,1.264-.778,2.918-.292,4.182.778,1.654,3.113-.195,4.085-.584,4.085-1.751,8.851.681,12.937,1.459,5.058.875,9.143-2.14,11.672-6.225A21.169,21.169,0,0,0,76.482,95.7a30.556,30.556,0,0,1-.875,7.295,24.009,24.009,0,0,1-3.6,9.143,9.885,9.885,0,0,1-6.906,4.085c-3.6.486-7-1.751-10.31-2.821a9.98,9.98,0,0,0-5.836-.486c-1.362.389-2.626,1.07-3.988.292C42.633,111.554,44.482,106.983,45.162,105.135Z" transform="translate(-43.823 -83.688)" fill="#98d2e9" opacity="0.5"/>
        </g>
        <g id="Group_7525" data-name="Group 7525" transform="translate(29.791)">
          <g id="Group_7522" data-name="Group 7522" transform="translate(41.166 24.744)">
            <path id="Path_47325" data-name="Path 47325" d="M116.9,59.907c-.195,1.459-.292,3.21.778,4.28a2.55,2.55,0,0,0,3.307.486,9.1,9.1,0,0,0,2.918-4.182c.681-1.751,1.167-3.7.389-5.447a3.03,3.03,0,0,0-3.113-1.945,3.246,3.246,0,0,0-1.167.486,3.96,3.96,0,0,0-1.362,1.167,8.894,8.894,0,0,0-1.75,5.155Z" transform="translate(-116.774 -53.05)" fill="#ffd3c3"/>
            <path id="Path_47326" data-name="Path 47326" d="M116.9,59.907c-.195,1.459-.292,3.21.778,4.28a2.55,2.55,0,0,0,3.307.486,9.1,9.1,0,0,0,2.918-4.182c.681-1.751,1.167-3.7.389-5.447a3.03,3.03,0,0,0-3.113-1.945,3.246,3.246,0,0,0-1.167.486,3.96,3.96,0,0,0-1.362,1.167,8.894,8.894,0,0,0-1.75,5.155Z" transform="translate(-116.774 -53.05)" fill="#ffd3c3" opacity="0.5"/>
            <path id="Path_47327" data-name="Path 47327" d="M120.761,57.272c.584-.778,2.237-1.556,2.821-.389.1.195,0,.292-.195.292-2.529-.584-2.821,2.723-3.5,4.377-.1.195-.292.1-.389,0C119.01,60.093,119.885,58.342,120.761,57.272Z" transform="translate(-116.844 -53.139)" fill="#ffd3c3" opacity="0.5"/>
          </g>
          <path id="Path_47328" data-name="Path 47328" d="M80.465,66.9a17.379,17.379,0,0,0,5.058,6.809c5.155,4.182,11.672,5.544,18.092,5.641,3.6.1,3.113-.292,6.614-1.459a13.77,13.77,0,0,0,7.1-5.058c3.015-4.669,4.474-7.392,2.821-12.256-.778-5.447.681-11.38-2.237-16.341-3.307-5.544-9.532-7.879-15.66-8.657C96.514,34.8,89.219,34.023,84.745,38.5c-4.669,4.673-5.059,11.871-5.445,18.1C79.1,60,79.1,63.693,80.465,66.9Z" transform="translate(-74.581 -27.812)" fill="#ffd3c3"/>
          <g id="Group_7523" data-name="Group 7523" transform="translate(4.541 8.744)">
            <path id="Path_47329" data-name="Path 47329" d="M80.365,47.4c-.292,1.848-.584,3.793-.778,5.739a24.991,24.991,0,0,0,1.167,9.629C82.8,68.7,88.146,72.106,93.691,74.44c6.031,2.529,11.769,1.848,18.384,1.751,1.459,0,2.626.1.778.875-.973.389-1.848.875-2.821,1.264-3.5,1.264-2.918,1.556-6.517,1.459-6.42-.195-12.937-1.556-18.092-5.641a17.379,17.379,0,0,1-5.058-6.809A24.662,24.662,0,0,1,79.2,57.029,53.169,53.169,0,0,1,80.365,47.4Z" transform="translate(-79.12 -36.895)" fill="#ffd3c3" opacity="0.5"/>
            <path id="Path_47330" data-name="Path 47330" d="M84.658,38.545A10.231,10.231,0,0,1,87.284,36.6a24.222,24.222,0,0,0-4.961,17.411.413.413,0,0,1-.681.292A10.162,10.162,0,0,1,79.6,52.26C79.989,47.3,81.059,42.144,84.658,38.545Z" transform="translate(-79.133 -36.6)" fill="#ffd3c3" opacity="0.5"/>
          </g>
          <ellipse id="Ellipse_1842" data-name="Ellipse 1842" cx="5.252" cy="2.237" rx="5.252" ry="2.237" transform="translate(33.482 33.568) rotate(-6.517)" fill="#ffd3c3"/>
          <path id="Path_47331" data-name="Path 47331" d="M99.261,34.409c.973.292,2.432-.584,3.015-1.167h0a2.137,2.137,0,0,1,.778,1.751c-.1,1.556-1.167,2.14-2.529,2.14-.1,0-.1.1-.1.195,2.043,1.362,3.891-1.751,3.015-3.5a3.808,3.808,0,0,0-.778-.973,2.032,2.032,0,0,0,.1-2.432,2.574,2.574,0,0,0-1.848-.875,1.9,1.9,0,0,0,.778-1.751c0-.195-.292-.292-.389,0a2.065,2.065,0,0,1-1.751,1.848h0c-.195.1-.1.292,0,.292h.292a2.621,2.621,0,0,1,1.945.292,1.445,1.445,0,0,1,.292,2.237c-1.362-.973-3.307-1.362-4.182.2C97.7,33.436,98.58,34.214,99.261,34.409Zm.584-2.14h.778a6.753,6.753,0,0,1,1.264.486c-.1.1-.2.1-.2.195a2.118,2.118,0,0,1-.778.486,3.455,3.455,0,0,1-.875.389,1.278,1.278,0,0,1-1.167-.292C98.191,32.95,99.164,32.172,99.845,32.269Z" transform="translate(-75.091 -27.611)" fill="#303030"/>
          <g id="Group_7524" data-name="Group 7524" transform="translate(0 20.587)">
            <path id="Path_47332" data-name="Path 47332" d="M75.763,59.3c1.751,2.334,5.933,2.334,6.614-.875.389-1.848.584-5.35-.584-7.392-.681-2.14-3.891-3.21-5.544-1.167a8.033,8.033,0,0,0-.486,9.434Z" transform="translate(-74.452 -48.777)" fill="#ffd3c3"/>
            <path id="Path_47333" data-name="Path 47333" d="M76.8,54.164c.389-1.459,1.945-1.556,3.015-.875a3.483,3.483,0,0,1,.973,3.6,3.5,3.5,0,0,1-.195,1.07c-.1.195-.292.195-.292,0a6.731,6.731,0,0,0-.486-2.723,1.843,1.843,0,0,0-2.723-.875C76.9,54.456,76.7,54.358,76.8,54.164Z" transform="translate(-74.515 -48.889)" fill="#ffd3c3" opacity="0.5"/>
            <path id="Path_47334" data-name="Path 47334" d="M76.152,49.786a2.579,2.579,0,0,1,.584-.486,17.659,17.659,0,0,0-1.07,2.918,8.275,8.275,0,0,0,.195,4.863A4.845,4.845,0,0,0,79.654,60.1,3.285,3.285,0,0,0,81.6,60a3.949,3.949,0,0,1-5.836-.681,8.347,8.347,0,0,1,.388-9.533Z" transform="translate(-74.451 -48.791)" fill="#ffd3c3" opacity="0.5"/>
          </g>
        </g>
        <g id="Group_7526" data-name="Group 7526" transform="translate(35.477 54.945)">
          <path id="Path_47335" data-name="Path 47335" d="M80.3,111.629c-.1,2.821,1.848,4.28,4.474,4.766a22.548,22.548,0,0,0,5.739.195c1.167-.195,2.529-.195,3.113-1.362.486-.973-.681-1.556-1.459-1.751-1.264-.389-2.432-.681-3.7-.973a48.641,48.641,0,0,0,3.6-7.1,71.835,71.835,0,0,0,2.821-8.073c.778-2.918,1.264-6.322-.2-9.143a6.717,6.717,0,0,0-6.42-3.988c-2.723.292-4.669,2.821-5.447,5.155-1.167,3.307-1.264,7-1.556,10.5C80.981,103.653,80.4,107.641,80.3,111.629Z" transform="translate(-80.296 -84.102)" fill="#98d2e9"/>
          <path id="Path_47336" data-name="Path 47336" d="M80.3,111.626c.1-3.891.681-7.879.973-11.866.292-3.5.292-7.2,1.556-10.5.875-2.334,2.821-4.961,5.447-5.155h.486a7.185,7.185,0,0,0-2.918,2.723c-1.945,2.918-2.334,7.1-2.334,10.5a22.642,22.642,0,0,0,.584,5.155c.389,1.751.778,4.28,2.334,5.447,1.654,1.264,3.988-1.167,5.058-2.334.292-.389.681-.778.973-1.167-.1.292-.195.486-.292.778a40.583,40.583,0,0,1-3.6,7.1c1.264.292,2.432.681,3.7.973.681.195,1.945.875,1.459,1.751-.584,1.167-1.945,1.167-3.113,1.362a16.279,16.279,0,0,1-5.739-.2C82.148,115.906,80.2,114.447,80.3,111.626Z" transform="translate(-80.296 -84.1)" fill="#98d2e9" opacity="0.5"/>
          <path id="Path_47337" data-name="Path 47337" d="M80.3,112.6a13.888,13.888,0,0,0,4.085.875,16.069,16.069,0,0,0,4.28-.486c0,.1-.1.1-.1.195,1.264.292,2.432.681,3.7.973.681.195,1.945.875,1.459,1.751-.584,1.167-1.945,1.167-3.113,1.362a16.279,16.279,0,0,1-5.739-.2C82.245,116.685,80.3,115.226,80.3,112.6Z" transform="translate(-80.297 -84.879)" fill="#ffd3c3"/>
        </g>
        <g id="Group_7527" data-name="Group 7527" transform="translate(17.433 45.154)">
          <path id="Path_47338" data-name="Path 47338" d="M65.983,74.682a2.669,2.669,0,0,1,.778,2.237,2.84,2.84,0,0,1-.195.875A2.465,2.465,0,0,1,61.9,77.21a2.51,2.51,0,0,1,4.086-2.528Z" transform="translate(-61.748 -74.033)" fill="#fff"/>
          <path id="Path_47339" data-name="Path 47339" d="M61.8,77.115A2.649,2.649,0,0,1,63.647,74.1a2.21,2.21,0,0,0-.973,2.918,2.011,2.011,0,0,0,3.21.389c.875-.875.486-1.945,0-2.821l.1.1a2.669,2.669,0,0,1,.778,2.237,2.84,2.84,0,0,1-.195.875,2.541,2.541,0,0,1-4.767-.683Z" transform="translate(-61.746 -74.035)" fill="#e4e4e4"/>
          <path id="Path_47340" data-name="Path 47340" d="M64.886,76.9a.486.486,0,1,1-.486.486C64.5,77.192,64.692,76.9,64.886,76.9Z" transform="translate(-61.819 -74.112)" fill="#303030"/>
          <path id="Path_47341" data-name="Path 47341" d="M63.889,75h0a.487.487,0,0,1,.486.584.5.5,0,0,1-.681.292h0A.485.485,0,0,1,63.889,75Z" transform="translate(-61.794 -74.06)" fill="#303030"/>
        </g>
      </g>
    </g>
  </g>
</svg>
