<svg xmlns="http://www.w3.org/2000/svg" xmlns:xlink="http://www.w3.org/1999/xlink" width="117.2" height="117.201" viewBox="0 0 117.2 117.201">
  <defs>
    <linearGradient id="linear-gradient" y1="0.5" x2="1" y2="0.5" gradientUnits="objectBoundingBox">
      <stop offset="0" stop-color="#ebebeb"/>
      <stop offset="1" stop-color="#fff"/>
    </linearGradient>
    <clipPath id="clip-path">
      <circle id="Ellipse_1684" data-name="Ellipse 1684" cx="58.6" cy="58.6" r="58.6" transform="translate(8.2 8.8)"/>
    </clipPath>
    <linearGradient id="linear-gradient-2" x1="-0.001" y1="0.497" x2="0.997" y2="0.497" xlink:href="#linear-gradient"/>
    <clipPath id="clip-path-19">
      <circle id="Ellipse_1703" data-name="Ellipse 1703" cx="58.6" cy="58.6" r="58.6" transform="translate(-76 -55)"/>
    </clipPath>
    <clipPath id="clip-path-20">
      <circle id="Ellipse_1705" data-name="Ellipse 1705" cx="58.6" cy="58.6" r="58.6" transform="translate(-75.8 -55.8)"/>
    </clipPath>
  </defs>
  <g id="pediatric_surgeon" transform="translate(-8.2 -8.799)">
    <circle id="Ellipse_1683" data-name="Ellipse 1683" cx="58.6" cy="58.6" r="58.6" transform="translate(8.2 8.8)" fill="url(#linear-gradient)"/>
    <g id="Group_6884" data-name="Group 6884">
      <g id="Group_6839" data-name="Group 6839" clip-path="url(#clip-path)">
        <g id="Group_6837" data-name="Group 6837">
          <g id="Group_6832" data-name="Group 6832">
            <path id="Path_45295" data-name="Path 45295" d="M76.1,77.4l-1.3.7a1.58,1.58,0,0,0-.6,2.1l.3.6a1.58,1.58,0,0,0,2.1.6l1.3-.7a1.58,1.58,0,0,0,.6-2.1l-.4-.6a1.408,1.408,0,0,0-2-.6Z" fill="#fabaad"/>
          </g>
          <g id="Group_6833" data-name="Group 6833">
            <path id="Path_45296" data-name="Path 45296" d="M76.5,80.2l-3.3,1.9a.574.574,0,0,0-.2.7h0a.574.574,0,0,0,.7.2L77,81.1a.574.574,0,0,0,.2-.7h0A.663.663,0,0,0,76.5,80.2Z" fill="#fabaad"/>
          </g>
          <g id="Group_6834" data-name="Group 6834">
            <path id="Path_45297" data-name="Path 45297" d="M74.8,79.6l-2.6,1.5a.574.574,0,0,0-.2.7h0a.574.574,0,0,0,.7.2l2.6-1.5a.574.574,0,0,0,.2-.7h0A.574.574,0,0,0,74.8,79.6Z" fill="#fabaad"/>
          </g>
          <g id="Group_6835" data-name="Group 6835">
            <path id="Path_45298" data-name="Path 45298" d="M74.8,78.2,71.7,80a.574.574,0,0,0-.2.7h0a.574.574,0,0,0,.7.2l3.1-1.8a.574.574,0,0,0,.2-.7h0A.663.663,0,0,0,74.8,78.2Z" fill="#fabaad"/>
          </g>
          <g id="Group_6836" data-name="Group 6836">
            <path id="Path_45299" data-name="Path 45299" d="M77,77.8l-3.6-.1a.472.472,0,0,0-.5.5h0a.472.472,0,0,0,.5.5l3.6.1a.472.472,0,0,0,.5-.5h0a.472.472,0,0,0-.5-.5Z" fill="#fabaad"/>
          </g>
        </g>
        <g id="Group_6838" data-name="Group 6838">
          <path id="Path_45300" data-name="Path 45300" d="M77.3,80.6a2.088,2.088,0,0,1-1.6-.8,1.814,1.814,0,0,1,.5-2.6A20.786,20.786,0,0,0,81,72.1c2.1-3.4,2.2-4.9,2.2-5.1a1.893,1.893,0,0,1,1.4-2.2,1.853,1.853,0,0,1,2.3,1.3c.2.8.4,3.1-2.7,7.9a24.371,24.371,0,0,1-5.8,6.2A1.5,1.5,0,0,1,77.3,80.6ZM83.3,67.1ZM83.3,67.1Z" fill="#fabaad"/>
        </g>
      </g>
      <g id="Group_6840" data-name="Group 6840" clip-path="url(#clip-path)">
        <path id="Path_45301" data-name="Path 45301" d="M98.8,81.9l-17,.1.3-2.8,1.4-11.5a5.656,5.656,0,0,1,.8-2.8,6.436,6.436,0,0,1,6-3.4c3.9.1,7.1,2.6,7.1,5.7v.1Z" fill="#fabaad"/>
      </g>
      <g id="Group_6841" data-name="Group 6841" clip-path="url(#clip-path)">
        <path id="Path_45302" data-name="Path 45302" d="M86.2,69l-4,10.2h0l1.4-11.5a5.656,5.656,0,0,1,.8-2.8l.8.1,1.1,1.6Z" fill="#f79b81"/>
      </g>
      <g id="Group_6842" data-name="Group 6842" clip-path="url(#clip-path)">
        <path id="Path_45303" data-name="Path 45303" d="M90.2,64.5h0A1.793,1.793,0,0,0,92,62.7l.1-4.2-3.7-.1-.1,4.2a1.967,1.967,0,0,0,1.9,1.9Z" fill="#fabaad"/>
      </g>
      <g id="Group_6843" data-name="Group 6843" clip-path="url(#clip-path)">
        <path id="Path_45304" data-name="Path 45304" d="M81.2,46.1s-.8,3.2-.9,3.4a9.23,9.23,0,0,0-.1,3.7,9.565,9.565,0,0,0,6.9,8l.3.1a9.94,9.94,0,0,0,12.2-6.6l.8-2.8a9.531,9.531,0,0,0-6.8-11.7l-.3-.2C88.2,38.5,82.7,41,81.2,46.1Z" fill="#fabaad"/>
      </g>
      <g id="Group_6844" data-name="Group 6844" clip-path="url(#clip-path)">
        <path id="Path_45305" data-name="Path 45305" d="M97.3,53.7a2.146,2.146,0,0,0,1.5,2.7h0a2.146,2.146,0,0,0,2.7-1.5h0a2.146,2.146,0,0,0-1.5-2.7h0a2.275,2.275,0,0,0-2.7,1.5Z" fill="#fabaad"/>
      </g>
      <g id="Group_6845" data-name="Group 6845" clip-path="url(#clip-path)">
        <path id="Path_45306" data-name="Path 45306" d="M100.7,54.9a1.287,1.287,0,0,1-1.7.6c-.6-.3-.2-.7.1-1.3s.3-1.3.9-1a1.278,1.278,0,0,1,.7,1.7Z" fill="#f69082" opacity="0.66"/>
      </g>
      <g id="Group_6846" data-name="Group 6846" clip-path="url(#clip-path)">
        <path id="Path_45307" data-name="Path 45307" d="M96.4,87l-12.1-.2c-1.4,0-3.4-1.5-3.3-3.2h0c0-1.7.1-4.3,1.5-4.3l15.9.3c1.4,0,.7,2.6.7,4.3h0A3.068,3.068,0,0,1,96.4,87Z" fill="url(#linear-gradient-2)"/>
      </g>
      <g id="Group_6848" data-name="Group 6848" clip-path="url(#clip-path)">
        <path id="Path_45308" data-name="Path 45308" d="M71.5,83.4l1.7,3.8s4.2-3.1,5.5-3.1a8.7,8.7,0,0,1,3.2,1.4,1.828,1.828,0,0,0,2.7-1.9h0a1.548,1.548,0,0,0-.8-1.1c-1.4-.7-4.3-2.3-5.6-2.3C76.4,80.2,71.5,83.4,71.5,83.4Z" fill="#f79b81"/>
        <g id="Group_6847" data-name="Group 6847">
          <path id="Path_45309" data-name="Path 45309" d="M73.9,87.3c-.3.1-2,1-2,1L69.8,84l2-1Z" fill="#6860a9"/>
        </g>
        <path id="Path_45310" data-name="Path 45310" d="M71.9,88.3l1-.5c.1,0,.1-.2.1-.3l-1.5-3.1a3.1,3.1,0,0,0-2.2-1.9.665.665,0,0,0-.7.9l2.1,4.5A.926.926,0,0,0,71.9,88.3Z" fill="#514099"/>
      </g>
      <g id="Group_6849" data-name="Group 6849" clip-path="url(#clip-path)">
        <path id="Path_45311" data-name="Path 45311" d="M94.7,86.6H93.1a1.793,1.793,0,0,1-1.8-1.8V84a1.793,1.793,0,0,1,1.8-1.8h1.6A1.793,1.793,0,0,1,96.5,84v.8a1.933,1.933,0,0,1-1.8,1.8Z" fill="#3e4058" opacity="0.25"/>
      </g>
      <g id="Group_6850" data-name="Group 6850" clip-path="url(#clip-path)">
        <path id="Path_45312" data-name="Path 45312" d="M99,81.5H96.2a.645.645,0,0,1-.6-.6h0a.645.645,0,0,1,.6-.6H99a.645.645,0,0,1,.6.6h0a.576.576,0,0,1-.6.6Z" fill="#a6d8bb"/>
      </g>
      <g id="Group_6851" data-name="Group 6851" clip-path="url(#clip-path)">
        <path id="Path_45313" data-name="Path 45313" d="M82.9,81H81.4a.43.43,0,0,1-.4-.4v-.4a.43.43,0,0,1,.4-.4h1.5a.472.472,0,0,1,.5.5v.2C83.3,80.8,83.1,81,82.9,81Z" fill="#a6d8bb"/>
      </g>
      <g id="Group_6853" data-name="Group 6853" clip-path="url(#clip-path)">
        <path id="Path_45314" data-name="Path 45314" d="M82.5,83.1l1.6,4s4.4-2.8,5.7-2.7a9.259,9.259,0,0,1,3.3,1.7,1.764,1.764,0,0,0,2.7-1.6h0a2.173,2.173,0,0,0-1.1-1.7c-1.4-.8-4.1-2.3-5.3-2.3C87.6,80.3,82.5,83.1,82.5,83.1Z" fill="#fabaad"/>
        <g id="Group_6852" data-name="Group 6852">
          <path id="Path_45315" data-name="Path 45315" d="M84.9,87.1c-.3.1-2.1.9-2.1.9L81,83.6l2.1-.8Z" fill="#6860a9"/>
        </g>
        <path id="Path_45316" data-name="Path 45316" d="M82.8,88l1-.4c.1,0,.1-.1.1-.2l-1.3-3.2a2.933,2.933,0,0,0-1.9-2,.708.708,0,0,0-.9.9l1.7,4.4A1.027,1.027,0,0,0,82.8,88Z" fill="#514099"/>
      </g>
      <g id="Group_6854" data-name="Group 6854" clip-path="url(#clip-path)">
        <path id="Path_45317" data-name="Path 45317" d="M92.6,68.7a.41.41,0,1,1-.4-.5A.458.458,0,0,1,92.6,68.7Z" fill="#f69082" opacity="0.43"/>
        <path id="Path_45318" data-name="Path 45318" d="M86.9,68.7a.41.41,0,1,1-.4-.5C86.8,68.2,86.9,68.4,86.9,68.7Z" fill="#f69082" opacity="0.43"/>
      </g>
      <g id="Group_6855" data-name="Group 6855" clip-path="url(#clip-path)">
        <path id="Path_45319" data-name="Path 45319" d="M73.4,76.1a14.372,14.372,0,0,1-9.3,2.7c-1.9-.2-5.1-1.2-11.3-8.3a73.585,73.585,0,0,1-5.5-7.2,3.061,3.061,0,0,1,.8-4.3h0a3.061,3.061,0,0,1,4.3.8h0s2.3,3.3,5.1,6.6c5.1,5.9,7,6.2,7,6.2,5.2.4,9.9-5.9,9.9-5.9,2.2-2.3,2.7-2,4.1-1s2.6,2,1.6,3.4a34.448,34.448,0,0,1-4.9,5.5A9.513,9.513,0,0,1,73.4,76.1Z" fill="#fabaad"/>
      </g>
      <g id="Group_6856" data-name="Group 6856" clip-path="url(#clip-path)">
        <path id="Path_45320" data-name="Path 45320" d="M75,66.4s2.7-3,3.8-3.9c1.1-.8,5.2.8,6,1.6.4.4.6.4.3.9-.4.7-.7,1.6-1.5,1.2-.9-.3-1.6-.6-1.8-.3-.3.5-3.3,5.3-3.6,5.2C78,71,75,66.4,75,66.4Z" fill="#fabaad"/>
      </g>
      <g id="Group_6857" data-name="Group 6857" clip-path="url(#clip-path)">
        <path id="Path_45321" data-name="Path 45321" d="M79.8,70.7s-6.1,8.2-10.9,8.8a16.018,16.018,0,0,1-7.4-1c-2.6-1-4.9-2.5-5.9-4l-.8-8.1-.5-4.8s8.2,10.2,11.1,10.3c3,.1,9-6.5,9-6.5Z" fill="#62bada"/>
      </g>
      <g id="Group_6858" data-name="Group 6858" clip-path="url(#clip-path)">
        <path id="Path_45322" data-name="Path 45322" d="M61.6,78.5c-2.6-1-4.9-2.5-5.9-4l-.8-8.1C55.8,68.4,59,74,61.6,78.5Z" fill="#3e4058" opacity="0.18"/>
      </g>
      <g id="Group_6859" data-name="Group 6859" transform="translate(84.2 63.8)" clip-path="url(#clip-path-19)">
        <ellipse id="Ellipse_1702" data-name="Ellipse 1702" cx="1.4" cy="2.7" rx="1.4" ry="2.7" transform="translate(0 0)" fill="#3e4058"/>
      </g>
      <g id="Group_6860" data-name="Group 6860" transform="translate(84 64.6)" clip-path="url(#clip-path-20)">
        <ellipse id="Ellipse_1704" data-name="Ellipse 1704" cx="1.1" cy="2" rx="1.1" ry="2" transform="translate(0)" fill="#8bcdcb"/>
      </g>
      <g id="Group_6861" data-name="Group 6861" clip-path="url(#clip-path)">
        <path id="Path_45323" data-name="Path 45323" d="M53,114.8H34.3l-.8-41.4-.1-4.6V67.3a10.807,10.807,0,0,1,3.2-7.7,15.582,15.582,0,0,1,2-1.6h0a9.347,9.347,0,0,1,2.9-1.2,13.505,13.505,0,0,1,2.8-.4,11.623,11.623,0,0,1,4.2.8,4.671,4.671,0,0,1,1,.5h0a8.342,8.342,0,0,1,1.2.8,10.837,10.837,0,0,1,4.4,8.8l-.4,2.4-.2,1.1Z" fill="none"/>
      </g>
      <g id="Group_6862" data-name="Group 6862" clip-path="url(#clip-path)">
        <path id="Path_45324" data-name="Path 45324" d="M49.4,57.5c-.1,0-2.5,8.8-2.4,24.6,0,11.4.5,43.1.5,43.1H60.8l-5.5-62S54.4,59.7,49.4,57.5Z" fill="#62bada"/>
      </g>
      <g id="Group_6863" data-name="Group 6863" clip-path="url(#clip-path)">
        <path id="Path_45325" data-name="Path 45325" d="M45,85.4c.1,7.1-.3,8-.3,8l-.1,1-1.9,30.8H26.9s2-19.7,3.7-36.4c1.2-12,2.3-22.4,2.3-22.5a1.7,1.7,0,0,1,.1-.7.749.749,0,0,1,.1-.5,9.724,9.724,0,0,1,7.3-8.2S44.6,64.9,45,85.4Z" fill="#62bada"/>
      </g>
      <g id="Group_6864" data-name="Group 6864" clip-path="url(#clip-path)">
        <path id="Path_45326" data-name="Path 45326" d="M48.8,91a11.028,11.028,0,0,1-4,2.4,19.062,19.062,0,0,1-3.4,1c-2.2.4-7.5.7-7.5.7l-3,30.2H27.1s2-19.7,3.7-36.4c1.2-12,2.3-22.4,2.3-22.5a1.7,1.7,0,0,1,.1-.7,8.749,8.749,0,0,1,1.5,1.6c.3.3.4,14.1.9,18.8.2,2.6,3.4,3,6.2,2.8,1.4-.1,2.7-.4,3.5-.5a2.8,2.8,0,0,1,.6-.1Z" fill="#3e4058" opacity="0.18"/>
      </g>
      <g id="Group_6865" data-name="Group 6865" clip-path="url(#clip-path)">
        <path id="Path_45327" data-name="Path 45327" d="M40.5,57l2.2,6.8,2.8-2.4,2.6,2.8,1.4-6.7C49.4,57.5,46,54.9,40.5,57Z" fill="#fff"/>
      </g>
      <g id="Group_6866" data-name="Group 6866" clip-path="url(#clip-path)">
        <path id="Path_45328" data-name="Path 45328" d="M44.9,60.2h0a2.433,2.433,0,0,1-2.4-2.4V52.7a2.433,2.433,0,0,1,2.4-2.4h0a2.433,2.433,0,0,1,2.4,2.4v5.1a2.369,2.369,0,0,1-2.4,2.4Z" fill="#fabaad"/>
      </g>
      <g id="Group_6867" data-name="Group 6867" clip-path="url(#clip-path)">
        <path id="Path_45329" data-name="Path 45329" d="M53.1,85.2l3.8-.3c1.7-.2,1.7.9,1.9,2.6h0A3.126,3.126,0,0,1,56,90.9l-2,.2a3.126,3.126,0,0,1-3.4-2.8h0a2.638,2.638,0,0,1,2.5-3.1Z" fill="#fabaad"/>
        <path id="Path_45330" data-name="Path 45330" d="M55.8,89.2l6.2-.9a.7.7,0,0,1,.9.7h0a.7.7,0,0,1-.7.9l-6.2.9a.7.7,0,0,1-.9-.7h0a.961.961,0,0,1,.7-.9Z" fill="#fabaad"/>
        <path id="Path_45331" data-name="Path 45331" d="M57.7,86.8l5-.7a.7.7,0,0,1,.9.7h0a.7.7,0,0,1-.7.9l-5,.7a.7.7,0,0,1-.9-.7h0a.779.779,0,0,1,.7-.9Z" fill="#fabaad"/>
        <path id="Path_45332" data-name="Path 45332" d="M56.5,85l5.9-.9a.7.7,0,0,1,.9.7h0a.7.7,0,0,1-.7.9l-5.9.9a.7.7,0,0,1-.9-.7h0a.8.8,0,0,1,.7-.9Z" fill="#fabaad"/>
      </g>
      <g id="Group_6868" data-name="Group 6868" clip-path="url(#clip-path)">
        <path id="Path_45333" data-name="Path 45333" d="M45.3,92.1a14,14,0,0,1-8.9-3.8C35,87,33.2,84.1,32.9,74.7c-.1-4.7.2-8.9.2-9a3.216,3.216,0,0,1,3.4-2.9h0a3.186,3.186,0,0,1,2.9,3.3h0s-.3,4-.2,8.4c.2,7.8,1.4,9.7,1.4,9.7,3.7,3.6,11.5,1.2,11.6,1.2,3.1-.4,3.3.2,3.9,1.8A3.08,3.08,0,0,1,54,91.1a29.367,29.367,0,0,1-6.1.9A11.329,11.329,0,0,1,45.3,92.1Z" fill="#fabaad"/>
      </g>
      <g id="Group_6869" data-name="Group 6869" clip-path="url(#clip-path)">
        <path id="Path_45334" data-name="Path 45334" d="M33.2,65.1s-2.1,17.4,2.1,23.3c4.2,6,15,4.2,19,3L53.2,85s-11.9,2.5-12.4-2.1c-.5-4.7-.7-18.5-1.1-18.8C39.4,63.8,35.8,58.9,33.2,65.1Z" fill="#62bada"/>
      </g>
      <g id="Group_6870" data-name="Group 6870" clip-path="url(#clip-path)">
        <path id="Path_45335" data-name="Path 45335" d="M48.6,60.7s.6,11.8,8.5,15.9c9.1,4.7,21.3,1.2,24.9-8.1.3-.8,1.1-2.5,2.9-2" fill="none" stroke="#3e4058" stroke-linecap="round" stroke-miterlimit="10" stroke-width="1"/>
      </g>
      <g id="Group_6871" data-name="Group 6871" clip-path="url(#clip-path)">
        <path id="Path_45336" data-name="Path 45336" d="M83.4,67.7l-3,1.5a.841.841,0,0,1-1.1-.4h0a.841.841,0,0,1,.4-1.1l3-1.5a.841.841,0,0,1,1.1.4h0a.949.949,0,0,1-.4,1.1Z" fill="#fabaad"/>
      </g>
      <g id="Group_6874" data-name="Group 6874" clip-path="url(#clip-path)">
        <path id="Path_45337" data-name="Path 45337" d="M29.4,98l11.4.6S35.2,95.8,29.4,98Z" fill="#5e5e5e" opacity="0.59"/>
        <g id="Group_6872" data-name="Group 6872">
          <path id="Path_45338" data-name="Path 45338" d="M29.9,94.5,31,98.2h1.5l-1.3-4Z" fill="#bcbcbb"/>
          <path id="Path_45339" data-name="Path 45339" d="M32.6,93.9l-4.5,1.2a.8.8,0,0,1-1-.6h0a.8.8,0,0,1,.6-1l4.5-1.2a.8.8,0,0,1,1,.6h0A.887.887,0,0,1,32.6,93.9Z" fill="#3e4058"/>
        </g>
        <g id="Group_6873" data-name="Group 6873">
          <path id="Path_45340" data-name="Path 45340" d="M36.4,98.4H34.7L33,90.9a.832.832,0,0,1,.6-1h0a.832.832,0,0,1,1,.6Z" fill="#bcbcbb"/>
          <path id="Path_45341" data-name="Path 45341" d="M35.3,97.2h0a.55.55,0,0,1-.5-.3L34,93.2a.55.55,0,0,1,.3-.5h0a.55.55,0,0,1,.5.3l.8,3.8C35.6,97,35.5,97.2,35.3,97.2Z" fill="#3e4058"/>
          <path id="Path_45342" data-name="Path 45342" d="M34.8,91l-1.6.4-.2-.6a.887.887,0,0,1,.6-1h0a.887.887,0,0,1,1,.6Z" fill="#f47c68"/>
          <path id="Path_45343" data-name="Path 45343" d="M35.1,96l-.2.1-.5-2.4h.2Z" fill="#fff"/>
        </g>
      </g>
      <g id="Group_6875" data-name="Group 6875" clip-path="url(#clip-path)">
        <rect id="Rectangle_3911" data-name="Rectangle 3911" width="2.4" height="35.8" transform="translate(68.8 89.5)" fill="#3e4058"/>
        <rect id="Rectangle_3912" data-name="Rectangle 3912" width="2.4" height="35.8" transform="translate(109.5 89.5)" fill="#3e4058"/>
        <path id="Path_45344" data-name="Path 45344" d="M113.5,91.1H67.4a2.22,2.22,0,0,1-2.2-2.2h0a2.22,2.22,0,0,1,2.2-2.2h46.1a2.22,2.22,0,0,1,2.2,2.2h0A2.22,2.22,0,0,1,113.5,91.1Z" fill="#3e4058"/>
      </g>
      <g id="Group_6880" data-name="Group 6880" clip-path="url(#clip-path)">
        <path id="Path_45345" data-name="Path 45345" d="M62,37.8c0,.2-.1.4-.1.6a13.087,13.087,0,0,1-.9,2.8,13.95,13.95,0,0,1-14.9,8.1,13.286,13.286,0,0,1-8.4-4.8A14.523,14.523,0,0,1,36,41.9a5.359,5.359,0,0,1-.5-1.1,14.454,14.454,0,0,1-.9-7.5A13.862,13.862,0,0,1,49.9,21.7c.2,0,.4.1.6.1a14.032,14.032,0,0,1,10.3,7.6h0A11.486,11.486,0,0,1,62,33.1a18.479,18.479,0,0,1,0,4.7Z" fill="#312d51"/>
        <path id="Path_45346" data-name="Path 45346" d="M39.5,42.7V43a5.638,5.638,0,0,1-.4,1.2,6.007,6.007,0,0,1-3.9,3.4,6.2,6.2,0,0,1-2.7.2,5.794,5.794,0,0,1-3.7-2.1,7.632,7.632,0,0,1-.8-1.1c-.1-.2-.2-.3-.2-.5a6.094,6.094,0,0,1,6.4-8.4h.3A5.882,5.882,0,0,1,39,39.1h0a9.829,9.829,0,0,1,.5,1.6A4.5,4.5,0,0,1,39.5,42.7Z" fill="#312d51"/>
        <g id="Group_6876" data-name="Group 6876">
          <path id="Path_45347" data-name="Path 45347" d="M43.3,39a1.135,1.135,0,0,1-.3.8,2.7,2.7,0,0,1-.7.8,2.383,2.383,0,0,1-1.8.5l-2.6-.4.7-5,2.6.4A2.446,2.446,0,0,1,43.3,38Z" fill="#fabaad"/>
          <path id="Path_45348" data-name="Path 45348" d="M38.6,35.8v.1l-.1.4-.1.5-.1.6h0l-.5,3.3-.1,1v1.4a11.405,11.405,0,0,0,8.4,11.6l1.5.3a8.6,8.6,0,0,0,1.6.1h.4a11.57,11.57,0,0,0,10.6-8.2,7.58,7.58,0,0,0,.3-1.6l.1-.8.8-5.4a19.419,19.419,0,0,0,.2-2.4,11.019,11.019,0,0,0-.2-1.8,10.693,10.693,0,0,0-1.9-4.2,11.626,11.626,0,0,0-7.6-4.4,12.291,12.291,0,0,0-6.6,1,2.177,2.177,0,0,0-.8.5A10.745,10.745,0,0,0,41,31h0a10.539,10.539,0,0,0-.7,1.1c0,.1-.1.1-.1.2a7.4,7.4,0,0,0-1.6,3.5Z" fill="#fabaad"/>
          <path id="Path_45349" data-name="Path 45349" d="M48.2,28a69.869,69.869,0,0,1-5.4,9.6c-2.3,3.2-1.5-2.5-2.6-2.7l-.1,3.3L36.3,37c.3-2.4,5.5-12.4,7.7-12.5C44.2,24.7,47.6,27.9,48.2,28Z" fill="#312d51"/>
          <path id="Path_45350" data-name="Path 45350" d="M38.7,43.2l-.9-.1h-.2a2.938,2.938,0,0,1-2.3-3.2,2.453,2.453,0,0,1,1.1-1.8,2.506,2.506,0,0,1,1.9-.5h.2l1.2-.1-.1,4Z" fill="#fabaad"/>
        </g>
        <path id="Path_45351" data-name="Path 45351" d="M41.2,41.7h0a1.58,1.58,0,0,0,1.6-1.6V28.8a1.58,1.58,0,0,0-1.6-1.6h0a1.58,1.58,0,0,0-1.6,1.6V40a1.738,1.738,0,0,0,1.6,1.7Z" fill="#312d51"/>
        <path id="Path_45352" data-name="Path 45352" d="M61.9,33.1,60.5,33,48.2,31.8h0L40.7,31a8,8,0,0,1,4.6-5.6,9.394,9.394,0,0,1,3.1-.8,20.083,20.083,0,0,1,2.5-.1,14.418,14.418,0,0,1,9.9,4.9h0a15.773,15.773,0,0,1,1.1,3.7Z" fill="#21213a"/>
        <g id="Group_6878" data-name="Group 6878">
          <path id="Path_45353" data-name="Path 45353" d="M43,31.3c.3,0,18.8,1.3,18.8,1.3s.6-8.1-7.6-9S43,31.3,43,31.3Z" fill="#fff"/>
          <g id="Group_6877" data-name="Group 6877">
            <rect id="Rectangle_3913" data-name="Rectangle 3913" width="1.5" height="4.9" transform="translate(54.15 26.04) rotate(5.796)" fill="#89cdaa"/>
            <rect id="Rectangle_3914" data-name="Rectangle 3914" width="1.5" height="4.9" transform="translate(57.067 28.061) rotate(95.796)" fill="#89cdaa"/>
          </g>
        </g>
        <path id="Path_45354" data-name="Path 45354" d="M45.8,31.5l.8,6,17.7,1.1s-.2-6-3.6-6.2C56.2,32,45.8,31.5,45.8,31.5Z" fill="#312d51"/>
        <g id="Group_6879" data-name="Group 6879">
          <path id="Path_45355" data-name="Path 45355" d="M48.4,61.1h-.3A10.67,10.67,0,0,1,37.5,50.5V39.2h.8V50.5a9.816,9.816,0,0,0,9.8,9.8h.3a9.841,9.841,0,0,0,9.8-9.6,12.487,12.487,0,0,1,.8-1.2v1.1A10.65,10.65,0,0,1,48.4,61.1Z" fill="#b2dece"/>
        </g>
        <ellipse id="Ellipse_1719" data-name="Ellipse 1719" cx="1" cy="1.4" rx="1" ry="1.4" transform="translate(37 38.8)" fill="#3e4058"/>
        <path id="Path_45356" data-name="Path 45356" d="M49.9,61.4H47.5a.684.684,0,0,1-.7-.7h0a.684.684,0,0,1,.7-.7h2.4a.684.684,0,0,1,.7.7h0a.684.684,0,0,1-.7.7Z" fill="#8bcdcb"/>
      </g>
      <g id="Group_6881" data-name="Group 6881" clip-path="url(#clip-path)">
        <path id="Path_45357" data-name="Path 45357" d="M54.6,65.9Z" fill="#fff"/>
      </g>
      <g id="Group_6882" data-name="Group 6882" clip-path="url(#clip-path)">
        <path id="Path_45358" data-name="Path 45358" d="M99.8,78.6v.8a1.736,1.736,0,0,0,1.9,1.7h0a1.736,1.736,0,0,0,1.7-1.9v-.8a1.736,1.736,0,0,0-1.9-1.7h0a1.853,1.853,0,0,0-1.7,1.9Z" fill="#fabaad"/>
        <path id="Path_45359" data-name="Path 45359" d="M102.4,79.3l.1,3.7a.472.472,0,0,0,.5.5h0a.472.472,0,0,0,.5-.5l-.1-3.7a.472.472,0,0,0-.5-.5h0a.472.472,0,0,0-.5.5Z" fill="#fabaad"/>
        <path id="Path_45360" data-name="Path 45360" d="M101.1,80.4l.1,2.9a.472.472,0,0,0,.5.5h0a.472.472,0,0,0,.5-.5l-.1-2.9a.472.472,0,0,0-.5-.5h0A.536.536,0,0,0,101.1,80.4Z" fill="#fabaad"/>
        <path id="Path_45361" data-name="Path 45361" d="M99.9,79.8l.1,3.5a.472.472,0,0,0,.5.5h0a.472.472,0,0,0,.5-.5l-.1-3.5a.472.472,0,0,0-.5-.5h0A.536.536,0,0,0,99.9,79.8Z" fill="#fabaad"/>
        <path id="Path_45362" data-name="Path 45362" d="M100.5,77.7l-1.7,3a.663.663,0,0,0,.2.7h0a.663.663,0,0,0,.7-.2l1.7-3a.663.663,0,0,0-.2-.7h0a.527.527,0,0,0-.7.2Z" fill="#fabaad"/>
      </g>
      <g id="Group_6883" data-name="Group 6883" clip-path="url(#clip-path)">
        <path id="Path_45363" data-name="Path 45363" d="M95.3,64.9A40.976,40.976,0,0,1,99,70.7a20.26,20.26,0,0,1,2.5,7.1" fill="none" stroke="#fabaad" stroke-linecap="round" stroke-linejoin="round" stroke-miterlimit="10" stroke-width="3"/>
      </g>
    </g>
  </g>
</svg>
