<svg xmlns="http://www.w3.org/2000/svg" xmlns:xlink="http://www.w3.org/1999/xlink" width="117.2" height="117.199" viewBox="0 0 117.2 117.199">
  <defs>
    <linearGradient id="linear-gradient" y1="0.5" x2="1" y2="0.5" gradientUnits="objectBoundingBox">
      <stop offset="0" stop-color="#ebebeb"/>
      <stop offset="1" stop-color="#fff"/>
    </linearGradient>
    <clipPath id="clip-path">
      <circle id="Ellipse_1610" data-name="Ellipse 1610" cx="58.6" cy="58.6" r="58.6" transform="translate(8.2 8.8)"/>
    </clipPath>
  </defs>
  <g id="physiotherapist" transform="translate(-8.2 -8.801)">
    <circle id="Ellipse_1609" data-name="Ellipse 1609" cx="58.6" cy="58.6" r="58.6" transform="translate(8.2 8.8)" fill="url(#linear-gradient)"/>
    <g id="Group_6546" data-name="Group 6546">
      <g id="Group_6545" data-name="Group 6545" clip-path="url(#clip-path)">
        <path id="Path_44492" data-name="Path 44492" d="M106.4,129.7c-.9,9.4-22.6,18.7-48.6,20.8s-46.3-3.8-45.4-13.2S35,118.6,61,116.5C86.9,114.4,107.3,120.3,106.4,129.7Z" fill="#e9e8e8"/>
        <path id="Path_44493" data-name="Path 44493" d="M93.4,23.1s1.8-3.9,4.4-1.3c2.7,2.6,2.2,8.5,2.2,11.3s.6,4.6,1.8,5.4c-1,2.1-5,1.7-6.2.4-2.1-2.4-1.4-8.8-1.5-10.7a24.7,24.7,0,0,0-.7-5.1Z" fill="#724429"/>
        <path id="Path_44494" data-name="Path 44494" d="M91.8,22.7a1.375,1.375,0,0,1,1.7-.8c1.2.4,3.6,1.2,2.6,3.2a18.01,18.01,0,0,0-4.3-2.4Z" fill="#2b2c2b"/>
        <g id="Group_6531" data-name="Group 6531">
          <path id="Path_44495" data-name="Path 44495" d="M90.3,113.7s.7,3.8-1.3,5.9c-1.9,2.1-7.5,4.2-9.1,5.4-1.6,1.1-.9,4.2,6.8,2.1,7.7-2,11.1-1.9,10.9-3.9s-1.6-5.4-1.2-7.6S90.3,113.7,90.3,113.7Z" fill="#d6b59f"/>
          <path id="Path_44496" data-name="Path 44496" d="M96.4,115.6c.2-.8-.6-1.3-1.7-1.6a.821.821,0,0,1,.1.7c-.4,2.2,1,5.6,1.2,7.6s-3.3,1.9-10.9,3.9c-2.7.7-5.1,1-5.9-.3-.3,2.2,2.8,2.4,7.4,1.2,7.7-2,11.1-1.9,10.9-3.9C97.5,121.1,96,117.8,96.4,115.6Z" fill="#c5a996"/>
        </g>
        <g id="Group_6532" data-name="Group 6532">
          <path id="Path_44497" data-name="Path 44497" d="M94.2,118.4s1,3.7-.6,5.9c-1.6,2.3-7.6,5.3-9,6.5-1.2,1,1.3,2.8,4.6,2.8a12.668,12.668,0,0,0,3.3-.9c7.1-2.8,10.1-3.8,9.7-5.7s-2.1-5.1-1.9-7.3C100.4,117.4,94.2,118.4,94.2,118.4Z" fill="#eac9b1"/>
          <path id="Path_44498" data-name="Path 44498" d="M100.2,119.6c.1-.9-.8-1.3-2-1.4a1,1,0,0,1,.6,1c-.2,2.2,1.6,5.4,1.9,7.3.4,1.9-2.6,2.9-9.7,5.7a7.148,7.148,0,0,1-3.2.8,7.325,7.325,0,0,1-3-.9,7.14,7.14,0,0,0,4.4,1.4,12.668,12.668,0,0,0,3.3-.9c7.1-2.8,10.1-3.8,9.7-5.7S100,121.9,100.2,119.6Z" fill="#d6b59f"/>
        </g>
        <path id="Path_44499" data-name="Path 44499" d="M101.4,71.4s-1.3,13.4-1.9,19.2-.3,24.2.4,27c-6.7,2.2-9.9.1-9.9.1S88.1,100,87.4,92.8s0-22.3,0-22.3Z" fill="#0d7e9a"/>
        <path id="Path_44500" data-name="Path 44500" d="M108.6,78.6s-3,13.2-4.3,18.8-2.6,21.8-2.2,24.6a12.363,12.363,0,0,1-8.9,0l-.1-1.1s-.2-19.7,0-26.9,1.7-18,1.7-18Z" fill="#1084aa"/>
        <path id="Path_44501" data-name="Path 44501" d="M93.9,83.3c2.3.3,6.6.3,13.9-1.3.5-2,.8-3.4.8-3.4L94.8,76S94.4,79.2,93.9,83.3Z" fill="#0d7e9a"/>
        <path id="Path_44502" data-name="Path 44502" d="M77,50.9s-.7-.2-.8.1c-.1.4,0,1,2.7,2.7s3.6,2.2,3.8,1.9C82.8,55.3,81.7,50.3,77,50.9Z" fill="#054f5c"/>
        <path id="Path_44503" data-name="Path 44503" d="M84.3,38.3c-2.7,1.6-8,15.7-9.1,16.6s-12,3.9-12,3.9v4.6s7-1.6,13.5-3c3.2-.7,7.3-7.8,7.3-7.8S87.4,36.5,84.3,38.3Z" fill="#eac9b1"/>
        <path id="Path_44504" data-name="Path 44504" d="M84.5,38.2c.5,3.5-1.6,13.3-1.6,13.3s-4.1,7.7-7.2,8.5c-4.9,1.3-11.9,2.8-13.5,3.4h.9s7-1.6,13.5-3c3.2-.7,7.3-7.8,7.3-7.8S87.2,37.3,84.5,38.2Z" fill="#d6b59f"/>
        <path id="Path_44505" data-name="Path 44505" d="M85.6,37.5s-2.5.2-4.2,3.5-5.3,10-5.3,10,5.6.7,6.5,4.6C84,54.5,86.8,38.1,85.6,37.5Z" fill="#0d7e9a"/>
        <path id="Path_44506" data-name="Path 44506" d="M107.4,60.8h0a48.594,48.594,0,0,1-.6-6.4c.5-10.1-.7-10.8-4.1-13-1.7-1.1-7.3-3.9-7.3-3.9s-1.1-1.5-2-1.4c-2.3,0-7.9.9-9.1,2.2-.9,1-1,4.4-1.7,5.5-3.7,5.7-.4,9.6,1.8,12.8,3.5,7.9,1.5,22,1.5,22l3.2,2.5,2.2-6.4.3,7.2s4.1,2.4,19.1-1.4C110.5,74.1,107.4,60.8,107.4,60.8Z" fill="#1084aa"/>
        <path id="Path_44507" data-name="Path 44507" d="M83.6,31.1s-1.5-4.4,1.8-7,6.5-2.5,9.8-.2c3.2,2.2,4.1,9.2.2,13.3C93.5,36.1,83.6,31.1,83.6,31.1Z" fill="#8a542f"/>
        <g id="Group_6534" data-name="Group 6534">
          <path id="Path_44508" data-name="Path 44508" d="M94.8,34.1s.1,3.3,1.3,4.4c-1.5,3.6-9.2,11-9.2,11s1.8-8.6,1.2-10.6C87,35.3,93.5,34,94.8,34.1Z" fill="#d6b39a"/>
          <path id="Path_44509" data-name="Path 44509" d="M91.1,23.1s-7.1-.6-7.6,7.3a38.962,38.962,0,0,0,1,6.5c.5,1.9.5,3,1.7,3.8,2.2,1.5,7.1-1.6,7.9-3.4a30.738,30.738,0,0,1,1.7-3S97.1,25.1,91.1,23.1Z" fill="#eac9b1"/>
          <path id="Path_44510" data-name="Path 44510" d="M94.8,33.4a10.126,10.126,0,0,1,.3-2.4,1.574,1.574,0,0,1,2-1.2c.9.3,1.1,4.7-2,5a2.236,2.236,0,0,1-.3-1.4Z" fill="#eac9b1"/>
          <g id="Group_6533" data-name="Group 6533">
            <path id="Path_44511" data-name="Path 44511" d="M84.3,31.1s.7.8-.1,2.6c-.9,1.7-1,1.9,0,2.3,1.1.4,2.6,0,2.1-1s-1-.2-1-.2" fill="#eac9b1"/>
            <path id="Path_44512" data-name="Path 44512" d="M84.3,31.1h0c.1.2.1.3.2.4,0,.1,0,.1.1.2v.9c-.1.2-.1.5-.2.7,0,.1-.1.3-.1.4-.2.2-.3.3-.3.4-.1.3-.3.5-.4.8a.749.749,0,0,0-.1.5c0,.2,0,.4.2.5a.758.758,0,0,0,.4.2c.1.1.3.1.4.2a2.769,2.769,0,0,0,.9.1,1.136,1.136,0,0,0,.8-.3c.1-.1.2-.2.2-.3.1-.1,0-.3,0-.4l-.3-.6a.31.31,0,0,0-.2-.1h-.2c-.1,0-.2.1-.3.2a.1.1,0,0,1-.1.1l.1-.1c.1,0,.1-.1.3-.2h.2c.1,0,.1.1.2.1a2.186,2.186,0,0,1,.3.5.481.481,0,0,1-.2.6,6.889,6.889,0,0,1-.8.3,2.769,2.769,0,0,1-.9-.1c-.1,0-.3-.1-.4-.1-.1-.1-.3-.1-.4-.2-.2-.2-.1-.5,0-.8s.3-.5.4-.8c.1-.1.1-.3.2-.4,0-.1.1-.3.1-.4.1-.2.1-.5.2-.7v-.9c0-.1,0-.2-.1-.2,0-.2-.1-.3-.2-.5Z" fill="#d6b49d"/>
          </g>
        </g>
        <path id="Path_44513" data-name="Path 44513" d="M43.5,73.8a1.9,1.9,0,0,1-1.2.6c-.8.1-4.8-.1-4.1-5.2.1-1.7.4-2.9,1.7-3.1C41.2,66,46.2,70.8,43.5,73.8Z" fill="#399b7c"/>
        <path id="Path_44514" data-name="Path 44514" d="M43,65.6h-.4a48.875,48.875,0,0,0-5.8,2.3c-3.5,1.5-9.3,4.9-12.1,6.5a8.423,8.423,0,0,0-1.4.8c-.4.2-2.3.7-4.4,1.6h-.1a14.918,14.918,0,0,0-2.4,1.4A10.778,10.778,0,0,0,13.9,80c-.5.5-.5.7-.2.7-.1.1-.2.1-.2.2-.8.8-.2.9.4.8h0c-1,.8.1.8.7.6.1-.1.3-.1.6-.3-.8.7.1.8.6.6.2-.1,1.2-.5,2.4-1a13.321,13.321,0,0,0,1.9-.5c-.4.2-.9.3-1,.4-.5.5,1.1.6,2.2.2,1.6-.5,3.4-2.4,4.2-3.4a14.337,14.337,0,0,1,4.6-1.6c4.4-.8,11.4-1.9,15.2-5.2C48.9,68.2,43,65.6,43,65.6ZM20.2,81c.2-.1.3-.2.5-.2a1.689,1.689,0,0,0-.5.2Z" fill="#eac9b1"/>
        <g id="Group_6535" data-name="Group 6535">
          <path id="Path_44515" data-name="Path 44515" d="M44.9,66.8a20.992,20.992,0,0,1-2.8,4.3c-3.5,3.3-8.4,3.1-12.7,4.4a16.946,16.946,0,0,0-4.4,2c-.8,1-2.3,3.2-3.8,3.8-.9.4-2.1.5-2.3.2-.1.3,1.3.4,2.3.1,1.6-.5,3.4-2.4,4.2-3.4A14.337,14.337,0,0,1,30,76.6c4.4-.8,11.4-1.9,15.2-5.2C47.4,69.6,46.2,67.9,44.9,66.8Z" fill="#d6b59f"/>
        </g>
        <path id="Path_44516" data-name="Path 44516" d="M58,65.8s-3.3-6.1-4-5.9c-5,1.1-14.7,6.5-14.7,6.5a4.624,4.624,0,0,1,4,4.1c.4,3.6-1,3.9-1,3.9s10.5-2.5,12.8-3.6S57.7,66.9,58,65.8Z" fill="#39997e"/>
        <path id="Path_44517" data-name="Path 44517" d="M39.2,66.4s9.8-5.3,14.7-6.5c.2,0,.6.4,1.1,1.1L41.3,66.7A5.149,5.149,0,0,0,39.2,66.4Z" fill="#399b7c"/>
        <path id="Path_44518" data-name="Path 44518" d="M27.3,129.2s.6,3.4-1.2,5.3-6.9,3.8-8.3,4.8-.9,3.8,6.1,2,10.1-1.6,9.9-3.4c-.1-1.8-1.4-4.9-1-6.9S27.3,129.2,27.3,129.2Z" fill="#d6b59f"/>
        <path id="Path_44519" data-name="Path 44519" d="M32.8,131c.1-.7-.6-1.2-1.5-1.4a.661.661,0,0,1,.1.6c-.4,2,.9,5.1,1,6.9s-3,1.7-9.9,3.4c-2.4.6-4.7.9-5.3-.3-.3,2,2.6,2.2,6.7,1.1,7-1.8,10.1-1.6,9.9-3.4C33.7,136,32.4,133,32.8,131Z" fill="#c5a996"/>
        <path id="Path_44520" data-name="Path 44520" d="M34.3,132s.6,3.8-1.3,5.8c-1.9,2.1-8.1,4.4-9.7,5.4-1.3.9,1,2.9,4.2,3.3a9.374,9.374,0,0,0,3.4-.6c7.4-1.9,10.5-2.6,10.3-4.6-.1-2-1.5-5.3-1.1-7.5C40.5,131.7,34.3,132,34.3,132Z" fill="#eac9b1"/>
        <path id="Path_44521" data-name="Path 44521" d="M40.1,133.9c.2-.9-.7-1.3-1.8-1.6a1.022,1.022,0,0,1,.4,1c-.4,2.2.9,5.5,1.1,7.5.1,2-2.9,2.6-10.3,4.6a10.591,10.591,0,0,1-3.3.5,7.179,7.179,0,0,1-2.9-1.2,7.912,7.912,0,0,0,4.2,1.9,9.374,9.374,0,0,0,3.4-.6c7.4-1.9,10.5-2.6,10.3-4.6C41.1,139.5,39.7,136.1,40.1,133.9Z" fill="#d6b59f"/>
        <path id="Path_44522" data-name="Path 44522" d="M84.8,121.9c-.1,11.4-11.5,11.6-23.7,14.2-14.8,3.1-23.4-8.5-23.4-17.4s10.1-16,22.6-16C72.7,102.7,84.9,103.1,84.8,121.9Z" fill="#1084aa"/>
        <path id="Path_44523" data-name="Path 44523" d="M66.5,92.8s1.2,8.6-3.5,12.2-14.6,4.5-26.9-.1c.9,4.9.2,18.9-.7,25.1-3.6,2.5-8,1.9-9.5.2-.2-6.5-1.3-27.3,0-32.3S53.1,91.4,57,94C60.7,96.5,66.5,92.8,66.5,92.8Z" fill="#8a716b"/>
        <path id="Path_44524" data-name="Path 44524" d="M73.2,96.9s1.2,8.6-3.5,12.2c-4.7,3.7-14.6,4.5-26.9-.1.9,4.9.8,19.3-.1,25.5-3.6,2.5-8.7,1.4-10.1-.2-.2-6.5-1.3-27.3,0-32.3s20.6-5.3,24.5-2.7C60.7,101.8,73.2,96.9,73.2,96.9Z" fill="#9b7e79"/>
        <g id="Group_6536" data-name="Group 6536">
          <path id="Path_44525" data-name="Path 44525" d="M73.2,96.9s-1,.4-2.5.9c.2,2.3.2,8.4-3.6,11.3-2.2,1.7-5.7,2.8-10,3,5.5.2,9.9-.9,12.6-3C74.3,105.5,73.2,96.9,73.2,96.9Z" fill="#8a706c"/>
        </g>
        <path id="Path_44526" data-name="Path 44526" d="M61.3,60.3l9.4,4.3.8,18.6.3,15.4s-9.3,4.6-18-.6c-3.9-2-3.9-10.2-4.1-14.2s-.5-12-.8-16.9c-.1-1.3.4-5.3,2.4-6.4C53.2,59.3,61.3,60.3,61.3,60.3Z" fill="#40a88c"/>
        <path id="Path_44527" data-name="Path 44527" d="M71.4,95.1l-2.7-8.5s2.6-15.6-.1-20.2c-1.2-2-8.9-6-8.9-6s-3.4-.2-6.6-.1c3.5-.2,8.2,0,8.2,0l9.4,4.3s5.5,2.7,2.9,17.4C73,85.2,73,95,73,95a29.048,29.048,0,0,1-9.6,1.9,27.07,27.07,0,0,0,8-1.8Z" fill="#399b7c"/>
        <g id="Group_6537" data-name="Group 6537">
          <path id="Path_44528" data-name="Path 44528" d="M67.6,89.7c4.4-16.6,2.9-16.4,2.5-21.8l1.2,13.3s3.6,13.9,1.2,17.2c-2.2,3.2-9.2,3-15.6,1.1C60.9,98.6,65.7,97.2,67.6,89.7Z" fill="#399b7c"/>
        </g>
        <g id="Group_6540" data-name="Group 6540">
          <path id="Path_44529" data-name="Path 44529" d="M64.4,57.5a12.561,12.561,0,0,0-1,5.1c-1.8,3.5-8.9,5.4-8.9,5.4s-1-3.4-.7-4.3C55.1,60.2,63.1,57.3,64.4,57.5Z" fill="#d6b59f"/>
          <path id="Path_44530" data-name="Path 44530" d="M59.1,47.1s-6.1-.9-8.2,6.5c-.1,1.1,1.1,5.2.8,6.5-.3,1.4-1,2.1.9,3.9s7.8-1,8.8-2.8a9.893,9.893,0,0,0,1.3-2.8S65,49.6,59.1,47.1Z" fill="#eac9b1"/>
          <path id="Path_44531" data-name="Path 44531" d="M50.9,51.7s4.9-1.4,8.2,0c-1.8,2.2-1,2.6,0,4a8.429,8.429,0,0,1,1.1,3.7l.8-.3s.1-2.8.6-3.6c.5-.7,3-2.1,3,.1a4.837,4.837,0,0,1-.8,3.1,12.413,12.413,0,0,0,3.1-5.8,4.448,4.448,0,0,0-3.6-5.7C62.4,45.6,53,43.3,50.9,51.7Z" fill="#bbb"/>
          <g id="Group_6538" data-name="Group 6538">
            <path id="Path_44532" data-name="Path 44532" d="M59.1,51.7a4.951,4.951,0,0,1,1.3.4c-1.8,2.2-1,2.6,0,4a5.988,5.988,0,0,1,.8,1.6,11.309,11.309,0,0,0-.1,1.4l-.8.3a8.429,8.429,0,0,0-1.1-3.7c-1.1-1.4-1.9-1.8-.1-4Z" fill="#c2c1c1"/>
            <path id="Path_44533" data-name="Path 44533" d="M65.9,55.8a16.91,16.91,0,0,1-2,2.9,4.837,4.837,0,0,0,.8-3.1,1.166,1.166,0,0,0-.2-.7C65.2,54.7,65.8,54.9,65.9,55.8Z" fill="#c2c1c1"/>
            <path id="Path_44534" data-name="Path 44534" d="M62,46.3c-3.1-.7-7.9-.2-9.6,5.1-.9.2-1.4.3-1.4.3C52.6,45,59,45.1,62,46.3Z" fill="#c2c1c1"/>
          </g>
          <path id="Path_44535" data-name="Path 44535" d="M61.9,57.6a8.42,8.42,0,0,1,.5-2.3,2.1,2.1,0,0,1,2.1-1.2c.5.2,1,5.6-2.4,5A2.211,2.211,0,0,1,61.9,57.6Z" fill="#eac9b1"/>
          <path id="Path_44536" data-name="Path 44536" d="M51.6,59.3s-1,2.5-.4,2.9a9.1,9.1,0,0,1,.3-1.2l.6.5a10.9,10.9,0,0,1,2.2.4c.6.3.5.7.5.7s-3,.3-3.4-1.2a3.744,3.744,0,0,0,.3,2.9,6.469,6.469,0,0,0,3.7.4,8.231,8.231,0,0,0,3.1-1.3,6.036,6.036,0,0,1-2.7-.3C56.1,62,54.7,59.8,51.6,59.3Z" fill="#e2e2e2"/>
          <g id="Group_6539" data-name="Group 6539">
            <path id="Path_44537" data-name="Path 44537" d="M51.6,54.5s.7.8-.3,2.6c-1,1.7-1.2,1.8-.2,2.3s2.6.2,2.2-.8-1-.3-1-.3" fill="#eac9b1"/>
            <path id="Path_44538" data-name="Path 44538" d="M51.6,54.5h0c.1.2.1.3.2.4v.8a.367.367,0,0,1-.1.3c-.1.2-.1.5-.3.7-.1.1-.1.2-.2.4a.52.52,0,0,0-.2.4,5.583,5.583,0,0,0-.5.8c-.1.1-.1.3-.2.4a.749.749,0,0,0,.1.5c.1.1.3.2.4.3s.3.1.4.2a2.769,2.769,0,0,0,.9.1,1.884,1.884,0,0,0,.8-.2l.3-.3a.3.3,0,0,0,0-.4l-.3-.6-.2-.2h-.2c-.1,0-.2.1-.3.2a.1.1,0,0,0-.1.1l.1-.1c.1,0,.1-.1.3-.1h.2c.1,0,.1.1.2.2a.845.845,0,0,1,.2.6.713.713,0,0,1-.3.6,1.884,1.884,0,0,1-.8.2,2.769,2.769,0,0,1-.9-.1c-.1-.1-.3-.1-.4-.2s-.3-.2-.4-.3c-.2-.2-.1-.5.1-.8a3.508,3.508,0,0,1,.5-.8.52.52,0,0,0,.2-.4c.1-.1.1-.3.2-.4.1-.2.2-.5.3-.7a.367.367,0,0,1,.1-.3V55a.4.4,0,0,0-.1-.5Z" fill="#d6b59f"/>
          </g>
          <path id="Path_44539" data-name="Path 44539" d="M52.8,55.4a.31.31,0,0,0,.2-.1c.1-.1.3-.1.5-.2h1c.1,0,.2.1.3.1.1.1.2.1.4.2.1.1.3.1.4.2a4.875,4.875,0,0,1,.7.3,1.087,1.087,0,0,0,.5.1H57a.31.31,0,0,0-.1-.2l-.4-.4c-.2-.2-.4-.3-.6-.5a.52.52,0,0,0-.4-.2l-.1-.1h-.1l-.2-.1c-.2-.1-.3-.1-.5-.2H54a1.909,1.909,0,0,0-.8.3,1.756,1.756,0,0,0-.4.5Q52.8,55.4,52.8,55.4Z" fill="#e2e2e2"/>
          <path id="Path_44540" data-name="Path 44540" d="M51.8,54.8h0c.1-.2.1-.2.1-.3a.735.735,0,0,0-.2-.6l-.1-.1a.349.349,0,0,0-.2-.1c-.1-.1-.2-.1-.4-.1h-.2a2471.261,2471.261,0,0,1-.2.2l.1.1v.2c0,.1,0,.1.1.2v.1a.1.1,0,0,0,.1.1c.1.1.2.3.4.3Z" fill="#e2e2e2"/>
        </g>
        <path id="Path_44541" data-name="Path 44541" d="M81.7,113c.6-3.8-2.9-7.3-6.7-8.6,1.2,1.3,2.6,4-1.6,7-5.9,4.2-17.4,6.5-24.6,4.1s-8.2,10.9,8.2,10.4C71.2,125.5,80.7,121,81.7,113Z" fill="#139dbf"/>
        <path id="Path_44542" data-name="Path 44542" d="M83.9,27.7s.8.1,4.1.2c4.1,0,3.6,2.1,4.7,3.1a3.469,3.469,0,0,1,1.5,2.1c.4.7.7-2.8,1.6-3.1s-.8-6.9-3.5-7.2C89.8,22.4,83.8,22.5,83.9,27.7Z" fill="#8a542f"/>
        <path id="Path_44543" data-name="Path 44543" d="M36.8,76.2a7.6,7.6,0,1,1-7.6-7.6A7.6,7.6,0,0,1,36.8,76.2Z" fill="#1084aa"/>
        <path id="Path_44544" data-name="Path 44544" d="M35.1,74.1a3.9,3.9,0,1,1-3.9-3.9,3.9,3.9,0,0,1,3.9,3.9Z" fill="#0e99bb"/>
        <path id="Path_44545" data-name="Path 44545" d="M86.3,31.1a3.609,3.609,0,0,1,.5-.4,1.483,1.483,0,0,1,.7-.1,2.2,2.2,0,0,1,.8.1,2.507,2.507,0,0,1,.7.4,2.181,2.181,0,0,1,.5.4,2.22,2.22,0,0,1,.4.5,3.609,3.609,0,0,0-.5-.4c-.2-.1-.3-.2-.5-.3l-.6-.3a2.979,2.979,0,0,0-1.3-.1,3.125,3.125,0,0,0-.7.2Z" fill="#8a542f"/>
        <path id="Path_44546" data-name="Path 44546" d="M84.3,31.1h-.2c-.1,0-.3-.1-.3,0h0l-.1.1a.349.349,0,0,1-.1.2h0a.1.1,0,0,0-.1-.1v-.2c0-.1.1-.2.3-.2.3,0,.4.1.4.2Z" fill="#8a542f"/>
        <path id="Path_44547" data-name="Path 44547" d="M93.4,54.2s-.3.2-.3.3c-.1.2.4.9,2.2,2.1s3.3,2,4.2,2.5c.8.6,2.2.9,2.6-.1.3-1-5.6-6.2-8.7-4.8" fill="#054f5c"/>
        <g id="Group_6542" data-name="Group 6542">
          <path id="Path_44548" data-name="Path 44548" d="M58.4,79.7a2.381,2.381,0,0,1-1.3.7c-.8.2-5.1-.1-4.4-5.5.1-1.8.4-3.1,1.8-3.3C55.9,71.3,61.4,76.5,58.4,79.7Z" fill="#399b7c"/>
          <path id="Path_44549" data-name="Path 44549" d="M57.9,70.9l.2.6A36.282,36.282,0,0,0,49.8,74c-3.8,1.6-8.6,4.7-11.6,6.4-.1,0-.7.4-1.5.8q-.3.15-1.5.6h0s-3.3.7-5.1,1.3a4.629,4.629,0,0,0-2.5,2.2c-1.1.9-2.3,1.9-2.8,2.4-.7.7-.4.9.1.8-.1,0-.1.1-.2.1-.9.8-.1.9.5.8-.4.6.5.5,1,.3.1,0,.2-.1.3-.1-.7.6.2.7.7.5.6-.2,7.3-2.4,7.3-2.4a10.543,10.543,0,0,0,4.5-3A16.389,16.389,0,0,1,43.9,83c4.8-.9,12.3-2.1,16.3-5.6C64.3,73.7,57.9,70.9,57.9,70.9Z" fill="#eac9b1"/>
          <g id="Group_6541" data-name="Group 6541">
            <path id="Path_44550" data-name="Path 44550" d="M24.5,88.4Z" fill="#d6b59f"/>
            <path id="Path_44551" data-name="Path 44551" d="M25.1,89.3a1.268,1.268,0,0,1-.6.1,1.268,1.268,0,0,0,.6-.1Z" fill="#d6b59f"/>
            <path id="Path_44552" data-name="Path 44552" d="M59.8,72.1c.6,1,.6,2.3-1.1,3.9-4,3.7-10.4,5.2-15.1,6.2a15.39,15.39,0,0,0-5.2,1.9,8.449,8.449,0,0,1-4,3s-6.7,2.7-7.2,2.9a1.1,1.1,0,0,1-.8,0c.1.2.6.2.9.1.6-.2,7.3-2.4,7.3-2.4a10.543,10.543,0,0,0,4.5-3A16.389,16.389,0,0,1,44,83c4.8-.9,12.3-2.1,16.3-5.6C62.7,75.1,61.3,73.2,59.8,72.1Z" fill="#d6b59f"/>
            <path id="Path_44553" data-name="Path 44553" d="M26.2,89.6c0-.1.1-.1.2-.2a.367.367,0,0,1-.3.1,3.711,3.711,0,0,1-.9.2,1.211,1.211,0,0,0,1-.1Z" fill="#d6b59f"/>
          </g>
          <path id="Path_44554" data-name="Path 44554" d="M73,70.6c-.2-1.9-2.3-5.7-5.5-5-5.4,1.2-13.7,6.2-13.7,6.2s4.4-.3,4.8,3.6-1.5,5-1.5,5,11.3-2.7,13.8-3.9S73.1,71.8,73,70.6Z" fill="#44b290"/>
        </g>
        <g id="Group_6544" data-name="Group 6544">
          <path id="Path_44555" data-name="Path 44555" d="M100.4,43.4c-2.3,2.1-6.7,13.5-7.8,14.4-.9.7-13.5,6.1-19.3,8.6h0a19.123,19.123,0,0,1-2.7.6c-1.2.1-2.8-.3-4.5-.3a4.848,4.848,0,0,0-2.8,1c-1.2.4-2.5.8-3.1,1.1-.8.4-.6.6-.2.7-.1,0-.1,0-.2.1-1,.4-.4.8.2.8-.5.3.2.6.7.6H61c-.7.3,0,.7.5.7s6.9.3,6.9.3c2.3.1,4.3-1.2,5.4-1.7.1-.1.2-.1.3-.2,3.1-.7,15.3-3.6,21-5.9,3-1.2,5.9-6.6,5.9-6.6s4.3-7.1,4.8-10.5C106.4,42.8,102.2,41.8,100.4,43.4Z" fill="#eac9b1"/>
          <path id="Path_44556" data-name="Path 44556" d="M102.1,42.7c1.4.5,2.5,1.8,2.1,4.2-.5,3.3-4,7.7-4,7.7s-3.6,8.1-6.7,9.3c-5.7,2.3-17.9,5.2-21,5.9-.1.1-.2.1-.3.2a10.431,10.431,0,0,1-5.4,1.7s-4-.2-5.9-.3a1.421,1.421,0,0,0,.6.2c.5,0,6.9.3,6.9.3,2.3.1,4.3-1.2,5.4-1.7.1-.1.2-.1.3-.2,3.1-.7,15.3-3.6,21-5.9,3-1.2,5.9-6.6,5.9-6.6s4.3-7.1,4.8-10.5C106.3,43.9,104,42.5,102.1,42.7Z" fill="#d6b59f"/>
          <g id="Group_6543" data-name="Group 6543">
            <path id="Path_44557" data-name="Path 44557" d="M59.7,69.4l.1.1h.1C59.8,69.4,59.8,69.4,59.7,69.4Z" fill="#d6b59f"/>
            <path id="Path_44558" data-name="Path 44558" d="M59.9,70.3a4.331,4.331,0,0,1-.5-.1,4.335,4.335,0,0,0,.5.1Z" fill="#d6b59f"/>
            <path id="Path_44559" data-name="Path 44559" d="M60.7,70.9a.349.349,0,0,1,.2-.1c-.1,0-.2,0-.2.1a6.374,6.374,0,0,1-.9-.2,1.344,1.344,0,0,0,.9.2Z" fill="#d6b59f"/>
          </g>
        </g>
        <path id="Path_44560" data-name="Path 44560" d="M93.1,54.6s4.5-9.9,5.8-11.3c1.2-1.3,4.2-1.4,5.5-.4,1.3,1.1,3.3,2.6,0,10.5a59.212,59.212,0,0,1-2.3,5.6S97.3,53,93.1,54.6Z" fill="#0e99bb"/>
      </g>
    </g>
  </g>
</svg>
