<svg xmlns="http://www.w3.org/2000/svg" xmlns:xlink="http://www.w3.org/1999/xlink" width="117.201" height="117.199" viewBox="0 0 117.201 117.199">
  <defs>
    <linearGradient id="linear-gradient" y1="0.5" x2="1" y2="0.5" gradientUnits="objectBoundingBox">
      <stop offset="0" stop-color="#ebebeb"/>
      <stop offset="1" stop-color="#fff"/>
    </linearGradient>
    <clipPath id="clip-path">
      <circle id="Ellipse_1621" data-name="Ellipse 1621" cx="58.6" cy="58.6" r="58.6" transform="translate(8.1 8.8)"/>
    </clipPath>
    <clipPath id="clip-path-2">
      <circle id="Ellipse_1623" data-name="Ellipse 1623" cx="58.6" cy="58.6" r="58.6" transform="translate(-82.7 -54.6)"/>
    </clipPath>
    <clipPath id="clip-path-5">
      <circle id="Ellipse_1626" data-name="Ellipse 1626" cx="58.6" cy="58.6" r="58.6" transform="translate(-81.4 -70.2)"/>
    </clipPath>
    <clipPath id="clip-path-6">
      <circle id="Ellipse_1627" data-name="Ellipse 1627" cx="58.6" cy="58.6" r="58.6" transform="translate(-74.1 -87.7)"/>
    </clipPath>
  </defs>
  <g id="radiologist-24" transform="translate(-8.1 -8.801)">
    <circle id="Ellipse_1619" data-name="Ellipse 1619" cx="58.6" cy="58.6" r="58.6" transform="translate(8.1 8.8)" fill="url(#linear-gradient)"/>
    <circle id="Ellipse_1620" data-name="Ellipse 1620" cx="58.6" cy="58.6" r="58.6" transform="translate(8.1 8.8)" fill="url(#linear-gradient)"/>
    <g id="Group_6673" data-name="Group 6673">
      <g id="Group_6595" data-name="Group 6595" clip-path="url(#clip-path)">
        <path id="Path_44801" data-name="Path 44801" d="M88.4,72.8c-.1.1-1.9,1.3-1.7,1.3h20.9s-4.8-3.3-5.7-3.9a13.686,13.686,0,0,1-2.7-2.3v-.1l-.2-.2c-.2-.2-.4-.5-.6-.7s-.4-.5-.6-.7V66c.1-.2,0-.3-.1-.3s-.1-.1-.2-.1a.55.55,0,0,1-.3-.5c-.1-.2,0-.3-.1-.5,0-.1-.1-.2-.1-.3h0v-.2a.1.1,0,0,0-.1-.1v-.1c.1-.2,0-.3,0-.4v-.3a6.6,6.6,0,0,1,.1-1.4,1.421,1.421,0,0,1,.2-.6c.1-.2.2-.5.3-.7a4.876,4.876,0,0,0,.3-.7c.2-.4.4-.7.6-1.1.1-.1.2-.3.3-.4h.1a4.875,4.875,0,0,0,.3-.7h0c.3-.2.3-.5.4-.7l.1-.1c.1,0,.1-.1.1-.2v-.1c.2-.2.2-.5.3-.7l.3-.6h0a3.552,3.552,0,0,1,.4-.9c0-.1.1-.1.1-.2a6.944,6.944,0,0,0,.5-1.3.6.6,0,0,0,.1-.4c.1-.3.1-.6.2-.9a.9.9,0,0,0,.1-.5v-.8a.6.6,0,0,0-.1-.4v-.3a4.962,4.962,0,0,1-.3-1.3.1.1,0,0,1,.1-.1c.1,0,.1-.1.2-.1h.1l.1.1h0v-.2h0a.1.1,0,0,1,.1.1h.1v-.6h0c0-.1,0-.1-.1-.2v-.1c.2-.2,0-.3-.1-.5l-.1-.1h0c0-.1-.1-.2-.1-.3-.2-.2-.2-.5-.4-.7a5.548,5.548,0,0,1-.6-.8,5.583,5.583,0,0,0-.5-.8h.2c-.5-.5-1-.9-1.5-1.4h0c.1,0,.1,0,.2.1l-.8-.8h.2a1.538,1.538,0,0,0-.6-.4h-.1a2.925,2.925,0,0,0-1.2-.7c-.1,0-.3,0-.3-.2h0a14.619,14.619,0,0,0-2-.5c-.2-.1-.5,0-.7,0-.3,0-.5-.1-.8-.1H93c-.4,0-.9-.1-1.3-.1-.3,0-.5-.1-.8-.1-.1,0-.2-.1-.3-.1-.3,0-.6-.1-1-.1a2.836,2.836,0,0,0-1.3.4,2.959,2.959,0,0,1-1,.2h-.1l-.1.1c-.3.1-.6.1-.9.2a4.875,4.875,0,0,0-.7.3c-.4.2-.8.4-1.3.6a6.889,6.889,0,0,1-.8.3,3.587,3.587,0,0,0-1.4,1,.52.52,0,0,0-.2.4h0c-.1.2-.2.3-.2.5,0,.1,0,.2-.1.2v.2c0,.1.1.3.1.4a2.663,2.663,0,0,0,.3,1.2v.3a.1.1,0,0,0-.1-.1c.1.2,0,.5.2.8-.1.1-.2.3-.4.5a4.053,4.053,0,0,0-.5.9h0a13.893,13.893,0,0,0-.6,1.9,3.553,3.553,0,0,0-.2,1v.4a1.268,1.268,0,0,1-.1.6.6.6,0,0,0,.1.4,1,1,0,0,0,.4.5,1.1,1.1,0,0,1,0,.8s-2,2.7-2.4,3.3a.1.1,0,0,1-.1.1h0a.759.759,0,0,0,.3.9c.2.1.3.2.5.2a.928.928,0,0,1,.7.9v1a1.493,1.493,0,0,0,.3.7l.1.1h0a1.213,1.213,0,0,0,.1,1.3,2.016,2.016,0,0,1,.3,1.1,2.976,2.976,0,0,0,.5,1.5c.1.2.3.4.4.6a1.479,1.479,0,0,0,1.3.4c.7-.1,1.4-.3,2.1-.4.2,0,.4-.1.6-.1s.3.1.4.3a3.36,3.36,0,0,0,.5,1.4,3.039,3.039,0,0,1,.5.7l.6,1.2c.2.3.3.6.5.9v.1c0,.1.1.1.1.2l.1.1c.3.4.5.9.8,1.3a2.994,2.994,0,0,1,.4.8.44.44,0,0,1-.1.5.1.1,0,0,0-.1.1c-.1.1-.2.3-.3.2-.2-.2-.2-.3-.4-.1" fill="#f5bc94"/>
      </g>
      <g id="Group_6596" data-name="Group 6596" transform="translate(90.8 63.4)" clip-path="url(#clip-path-2)">
        <circle id="Ellipse_1622" data-name="Ellipse 1622" cx="1.6" cy="1.6" r="1.6" transform="translate(0 0)" fill="#ed2024"/>
      </g>
      <g id="Group_6597" data-name="Group 6597" clip-path="url(#clip-path)">
        <path id="Path_44802" data-name="Path 44802" d="M95.4,73.6h0a1.04,1.04,0,0,0,.6-1.3l-1.4-3.5a1.04,1.04,0,0,0-1.3-.6h0a1.04,1.04,0,0,0-.6,1.3L94.1,73a1.082,1.082,0,0,0,1.3.6Z" fill="#ed2024"/>
      </g>
      <g id="Group_6598" data-name="Group 6598" clip-path="url(#clip-path)">
        <path id="Path_44803" data-name="Path 44803" d="M93,77a5.273,5.273,0,0,1-3.1,2c-1.2.2-2.6-.2-4.2-2h20a5.8,5.8,0,0,0,5.8-5.8v-31a5.8,5.8,0,0,0-5.8-5.8h-31a5.8,5.8,0,0,0-5.8,5.8" fill="none" stroke="#00738c" stroke-miterlimit="10" stroke-width="1"/>
      </g>
      <g id="Group_6599" data-name="Group 6599" transform="translate(89.5 79)" clip-path="url(#clip-path-5)">
        <line id="Line_131" data-name="Line 131" y1="17.5" fill="none" stroke="#00738c" stroke-miterlimit="10" stroke-width="1"/>
      </g>
      <g id="Group_6600" data-name="Group 6600" transform="translate(82.2 96.5)" clip-path="url(#clip-path-6)">
        <line id="Line_132" data-name="Line 132" x1="14.5" fill="none" stroke="#00738c" stroke-miterlimit="10" stroke-width="1"/>
      </g>
      <g id="Group_6672" data-name="Group 6672" clip-path="url(#clip-path)">
        <g id="Group_6601" data-name="Group 6601">
          <path id="Path_44804" data-name="Path 44804" d="M79.7,83.2a20.575,20.575,0,0,0,2.9-3c.8-1,.6-2.5.4-3.7a1.445,1.445,0,0,0-.2-.7c-.4-.9-1.2-.5-1.8-.8a.1.1,0,0,1-.1-.1v-.1c.4-1.2.9-2.4,1.3-3.6a2.7,2.7,0,0,0,.3-1.5c0-.2,0-.3-.1-.4-.1-.2-.4-.2-.6-.1s-.3.3-.4.4a17.325,17.325,0,0,0-3,5.3,3.225,3.225,0,0,0-2.4,2,19.855,19.855,0,0,0-.9,2.6,1.566,1.566,0,0,0,.5,1.8,8.624,8.624,0,0,0,2.7,2,2.354,2.354,0,0,0,.8.2C79.5,83.4,79.5,83.4,79.7,83.2Z" fill="#fdc587"/>
        </g>
        <g id="Group_6602" data-name="Group 6602">
          <path id="Path_44805" data-name="Path 44805" d="M79.4,83.8a5.806,5.806,0,0,1-1.1,2.4,39.009,39.009,0,0,1-1.9,3.5c-1.3,2.3-1.7,2.1-3.5,4.1A21.273,21.273,0,0,1,67.7,98c-1.8,2.2-5.1,1.8-8,.6a17.393,17.393,0,0,1-1.8-1.1c-.8-.6-1.6-1.3-2.4-1.9a88.214,88.214,0,0,0,.3,8.9c.1,1.5.2,3,.2,4.5,0,.6-.2,4,.1,4.2L26.4,89.7c-.3,2.2-1.1,5.3.1,7.2,2.9,4.4,6.6,8.4,8.6,13.4a8.487,8.487,0,0,1,.7,4.7,2.2,2.2,0,0,1-.5,1.2,2.294,2.294,0,0,1-2.1.7c-2.5-.4-2.6-7.4-4.6-8.7a29.238,29.238,0,0,1-7.7-6.1c-1.5-1.7-4.3-4.1-4.7-6.5a7.89,7.89,0,0,1,.3-3.4,36.977,36.977,0,0,1,3.4-9.1c1.5-3.2,3.3-6.9,6.1-8.9,2.9-2,6.1-3.9,9-5.9,2.1-1.4,4.1-.3,6.4.7,1.5.7,5,.8,6.6,1.5.2.1.3.1.5.2a21.01,21.01,0,0,1,8.5,6,63.307,63.307,0,0,0,5.7,5.9.52.52,0,0,0,.4.2c.5,0,4,5.2,5.1,4.1,2.1-2.2,4.1-4.4,6-6.8a1.779,1.779,0,0,1,.8-.7c.1,0,.3-.1.4,0a.85.85,0,0,1,.5.3c.8.7,1.7,1.5,2.5,2.2a4.3,4.3,0,0,1,.9,1C79.3,83.3,79.4,83.6,79.4,83.8Z" fill="#f3fafe"/>
        </g>
        <g id="Group_6603" data-name="Group 6603">
          <path id="Path_44806" data-name="Path 44806" d="M55,69.4c-.1.5-.7.5-1.2.4a5.7,5.7,0,0,0-1.3-.1,1.8,1.8,0,0,0-1,.2.1.1,0,0,0-.1.1l-.9.3a3.553,3.553,0,0,1-1-.2,6.15,6.15,0,0,0-1.4-.1,23.809,23.809,0,0,1-3.8.1.6.6,0,0,1-.4-.1c-1.1-.2-.9-2-.9-2.9a.764.764,0,0,0-.2-.5c-.1-.3-1.6-3.6-1.5-3.6-1.3,1.1-2.6,2.2-3.8,3.3a2.186,2.186,0,0,1-.5.3c-.7.1-1-1.1-1.3.3-.3,1.3.4,2.7-1,3.4a4.146,4.146,0,0,1-1.6.3,10.454,10.454,0,0,0-2.5,0,5.775,5.775,0,0,1-1.7.6,3.022,3.022,0,0,1-1.6-.5,6.907,6.907,0,0,0-2.5-.9h0a3.178,3.178,0,0,0-1.3.2c-.1,0-.1,0-.2.1a1.7,1.7,0,0,1-.7.1.756.756,0,0,1-.4-.1.779.779,0,0,1-.3-.7c0-.9.7-1.5.9-2.3.2-1-.3-1.9-.4-2.9v-.6a9.38,9.38,0,0,1,1-2.8.1.1,0,0,1,.1-.1v-.1c0-.1.1-.1.1-.2a11.791,11.791,0,0,0,.9-4.6v-1c0-.8-.1-1.6-.1-2.5V50.6l.3-2.1h0a3.553,3.553,0,0,0,.2-1c0-.1.1-.3.1-.4.1-.4.2-.7.3-1.1.3-.9.6-1.8,1-2.7a10.93,10.93,0,0,1,.8-1.5,16.971,16.971,0,0,1,4.2-5A16.287,16.287,0,0,1,33,35.7a10.7,10.7,0,0,1,7.4-1.2,12.816,12.816,0,0,1,7.1,4.9h0a23.856,23.856,0,0,1,4.1,8.1c.4,1.5.2,3.1.6,4.6a22.5,22.5,0,0,1,.8,2.4c.2,1.6-.7,3.2-.5,4.9v.2c0,.2.1.4.1.6.3,1,.7,1.9.9,2.9.3,1.8-.2,3.8,1,5.3A1.016,1.016,0,0,1,55,69.4Z" fill="#643d34"/>
        </g>
        <g id="Group_6604" data-name="Group 6604">
          <path id="Path_44807" data-name="Path 44807" d="M43.2,75.4A23.58,23.58,0,0,1,42,78.2a20.13,20.13,0,0,1-1.4,2.5c-.1.2-.2.4-.4.4-.3.1-.5-.3-.6-.5-1.5-3-2.9-6-4.2-9.1.1-1.1.2-2.1.2-3.2,0-1.5-.1-3-.1-4.4a19.269,19.269,0,0,0-.1-2.4l7.5-2.6a26.153,26.153,0,0,0,0,2.8h0a21.75,21.75,0,0,0,.1,2.5c.1,1.9,1.1,6.7,1.1,6.8C43.2,73.1,43.8,73.8,43.2,75.4Z" fill="#fdc587"/>
        </g>
        <g id="Group_6608" data-name="Group 6608">
          <g id="Group_6605" data-name="Group 6605" opacity="0.913">
            <path id="Path_44808" data-name="Path 44808" d="M43.2,75.4A23.58,23.58,0,0,1,42,78.2a56.727,56.727,0,0,0-.5-5.8A14.028,14.028,0,0,0,40,67.1a4.1,4.1,0,0,0-2-1.7c-.4-.2-2.6-1.2-2.6-1.7a19.269,19.269,0,0,0-.1-2.4l7.5-2.6a13.1,13.1,0,0,0,0,2.8h0a21.752,21.752,0,0,0,.1,2.5c.1,1.9,1.1,6.7,1.1,6.8C43.2,73.3,43.8,73.8,43.2,75.4Z" fill="#fdc587"/>
          </g>
          <g id="Group_6606" data-name="Group 6606">
            <path id="Path_44809" data-name="Path 44809" d="M48.5,54.7a2.725,2.725,0,0,1-.6,1.2l-.2.2c-.2.2-.5.2-.7.3-.5.2-.5.8-.7,1.3a9.65,9.65,0,0,1-1.2,2.5c-.1.1-.1.2-.2.3l-.1.1c-.1.1-.1.2-.2.3-.3.4-.6.7-.9,1.1-.3.3-.7.6-1,.9-.2.1-.3.3-.5.4A20.942,20.942,0,0,1,39.4,65a2.92,2.92,0,0,1-.9.2h-.3a1.854,1.854,0,0,1-.7-.2,13.3,13.3,0,0,1-6.3-6.1.1.1,0,0,0-.1-.1h0a.1.1,0,0,0-.1-.1c0-.1-.1-.2-.1-.3a.349.349,0,0,0-.1-.2v-.1h0a.349.349,0,0,0-.1-.2.1.1,0,0,0-.1-.1h0L30.4,56,30,54.1c.3-.9,1.2-2.6-.3-1.8V50.9A14.279,14.279,0,0,1,30,48c.7-3.6,2.7-6.8,6.1-8.1a5.84,5.84,0,0,1,1.8-.4,7.724,7.724,0,0,1,4.2.8A6.857,6.857,0,0,1,45,43a10.931,10.931,0,0,1,.8,1.5,12.254,12.254,0,0,1,1.4,4.2c.1.6.1,1.1.2,1.7,0,.2-.1.6.1.7a1.5,1.5,0,0,1,1.2,1.1,5.229,5.229,0,0,1-.2,2.5Z" fill="#fdc587"/>
          </g>
          <g id="Group_6607" data-name="Group 6607">
            <path id="Path_44810" data-name="Path 44810" d="M30.7,57.7c-.1-.1-.2-.1-.3-.2h-.6c-.7-.2-1-1-1.2-1.7a3.655,3.655,0,0,1-.1-2.3,2.651,2.651,0,0,1,.5-.6,4.234,4.234,0,0,0,.7-.5V53l.3,1.2a.756.756,0,0,0-.1.4,11.364,11.364,0,0,0,.6,2.5,2.073,2.073,0,0,0,.2.6Z" fill="#fdc587"/>
          </g>
          <path id="Path_44811" data-name="Path 44811" d="M35.2,51v8H31.3a.1.1,0,0,0-.1-.1h0a.1.1,0,0,0-.1-.1h0a.349.349,0,0,0-.1-.2h0c0-.1-.1-.1-.1-.2v-.1h0a.349.349,0,0,0-.1-.2.1.1,0,0,0-.1-.1h0c-.1-.1-.2-.1-.3-.2h-.6c-.7-.2-1-1-1.2-1.7a3.655,3.655,0,0,1-.1-2.3,2.651,2.651,0,0,1,.5-.6,4.234,4.234,0,0,0,.7-.5V51.3h5.5Z" fill="#fdc587"/>
        </g>
        <g id="Group_6609" data-name="Group 6609">
          <path id="Path_44812" data-name="Path 44812" d="M35.3,70.9a8.493,8.493,0,0,0,4.1,1.2A7.584,7.584,0,0,0,42,72a5.273,5.273,0,0,0,2.4-1.4c-.3,1.4.4,3.4.1,4.8a71.949,71.949,0,0,1-4,12.7C38.1,83.6,35,76.9,35.3,71" fill="#a2d8c8"/>
        </g>
        <g id="Group_6610" data-name="Group 6610">
          <path id="Path_44813" data-name="Path 44813" d="M44.3,76.6c.3-1.7,1-3.3.6-4.9-.1-.3-.5-2.1-.9-2.1-.1,0-.5.6-.6.6a8.743,8.743,0,0,1-1,.8,1.524,1.524,0,0,1-1,.6c0,1.1.1,2.4,0,3.5a15.356,15.356,0,0,1-2,7.3,6.154,6.154,0,0,1-1.6-2c-.9-1.5-1.4-3.2-2.2-4.8-.2.1,0,1,0,1.3a11.019,11.019,0,0,0,.2,1.8,33.834,33.834,0,0,0,.8,3.4c.7,2.4,1.5,4.7,2,7.2,1.4-1.9,2.8-3.9,4-5.9C43.7,81.3,43.9,79,44.3,76.6Z" fill="#a2d8c8"/>
        </g>
        <g id="Group_6611" data-name="Group 6611">
          <path id="Path_44814" data-name="Path 44814" d="M56.8,120.7a1.136,1.136,0,0,1-.3.8c-.2.2-.4.2-.7.3a38.564,38.564,0,0,1-10.7,1.1c-1.2-.1-2.4-.3-3.7-.5-1.5-.1-3-.1-4.5-.1-3.1,0-6.2.1-9.3.1H24c-.5,0-1,0-1.3-.4a2.016,2.016,0,0,1-.3-1.1c0-10.4-.6-23.7-.6-34.1L55.7,95a7.174,7.174,0,0,0,.1,1.3C56.1,101.6,57.1,117.7,56.8,120.7Z" fill="#f3fafe"/>
        </g>
        <g id="Group_6613" data-name="Group 6613">
          <g id="Group_6612" data-name="Group 6612">
            <path id="Path_44815" data-name="Path 44815" d="M35.1,68.9c-4.8.8-5.4,6-5.5,10v5.9c0,1.8-.3,4.1.3,5.8.4,1.3,2.5,1.5,2.8,0,.6-2.9,0-6.3,0-9.2,0-3.5-.7-9.4,2.9-11.2a.7.7,0,0,0-.5-1.3Z" fill="#6c6e6e"/>
          </g>
        </g>
        <g id="Group_6615" data-name="Group 6615">
          <g id="Group_6614" data-name="Group 6614">
            <path id="Path_44816" data-name="Path 44816" d="M44,70.1c3.1,1.6,2.9,6.2,3,9.2a56.421,56.421,0,0,0,.5,8.2c.3,1.7,2.7,1.1,2.9-.4a42.832,42.832,0,0,0-.2-6.2c-.1-1.9-.1-3.7-.3-5.6-.4-3.1-1.9-6-5.3-6.5a.73.73,0,0,0-.6,1.3Z" fill="#6c6e6e"/>
          </g>
        </g>
        <g id="Group_6616" data-name="Group 6616" opacity="0.579">
          <path id="Path_44817" data-name="Path 44817" d="M48.5,54.7a2.725,2.725,0,0,1-.6,1.2l-.2.2c-.2.2-.5.2-.7.3-.5.2-.5.8-.7,1.3a9.65,9.65,0,0,1-1.2,2.5c-.1.1-.1.2-.2.3l-.1.1c-.1.1-.1.2-.2.3a10.626,10.626,0,0,1-.9,1.1c-.3.3-.7.6-1,.9-.2.1-.3.3-.5.4a4.129,4.129,0,0,1-1.1.7l-.6.3c-.1.1-.2.2-.3.2a21.965,21.965,0,0,0,1.4-1.8c.4-.6.7-1.4,1.1-2A17.236,17.236,0,0,0,44.6,54a8.854,8.854,0,0,0,0-2.3,5.678,5.678,0,0,0-.7-2.2,14.961,14.961,0,0,0-1.1-1.3,11.46,11.46,0,0,1-1.3-3.4,15.582,15.582,0,0,0-1.6,2c-.4.7-.7,1.5-1.1,2.2a3.462,3.462,0,0,1-2.7,1.4c-.6,0-.8-.1-1.3.4a7.1,7.1,0,0,0-1,1.4,9.172,9.172,0,0,1-1.3,2.1,2.248,2.248,0,0,1-2,.9h-.1c-.7-.1-.9-.7-1-1.4a4.234,4.234,0,0,1,.2-2.5c0-.1.1-.2.2-.3l.3-.6a5.019,5.019,0,0,0,.2-1.2c0-.6-.3-.5-.4-1.2-.1-.5-.2-1.1-.3-1.6a4.869,4.869,0,0,1-.1-1.2,1.975,1.975,0,0,1,.6-1.1,5.383,5.383,0,0,0,.9-1.2,16.412,16.412,0,0,1,2.1-2.4,6.524,6.524,0,0,1,2.1-1.6c1.7-.8,3.6-.4,5.4,0L42,40.4l3.7,4.1a12.254,12.254,0,0,1,1.4,4.2c.1.6.1,1.1.2,1.7,0,.2-.1.6.1.7a1.5,1.5,0,0,1,1.2,1.1A4.236,4.236,0,0,1,48.5,54.7Z" fill="#fdc587"/>
        </g>
        <g id="Group_6617" data-name="Group 6617">
          <path id="Path_44818" data-name="Path 44818" d="M40.7,37.4c-.1-.8,0-1.2.8-.8a13.521,13.521,0,0,1,5.7,4.9,10.758,10.758,0,0,1,1.3,4.3,10.123,10.123,0,0,1-.2,3,26.718,26.718,0,0,1-.9,2.6c-.4,1.2-.5,2.5-1,3.7-.1.1-.1.3-.3.3s-.3-.2-.3-.4c-.4-1.8-.2-3.8-1.2-5.3a14.7,14.7,0,0,0-1-1.3,6.785,6.785,0,0,1-.9-2.5c-.1-.4-.2-.9-.3-1.3,0-.1-.4-1-.4-1.1a8.6,8.6,0,0,1-1.8,2,6.071,6.071,0,0,0-1,.7c-.6.5-.7,1.3-1.1,1.9A3.815,3.815,0,0,1,37,49.5a11.938,11.938,0,0,1-1.6.8,4.944,4.944,0,0,0-1.6,1.9,9.8,9.8,0,0,1-1.3,2.2,2.512,2.512,0,0,1-2.1,1c-1.2-.2-.8-1.7-1.3-2.7-.1-.3-.4-.6-.5-.9a7.75,7.75,0,0,1-.2-3.4c.4-3.7,2.5-6.8,4.9-9.4a6.845,6.845,0,0,1,2.1-1.7c1.7-.9,3.7-.5,5.5,0" fill="#643d34"/>
        </g>
        <g id="Group_6618" data-name="Group 6618" opacity="0.342">
          <path id="Path_44819" data-name="Path 44819" d="M36.4,80.1a22.285,22.285,0,0,1-1-4.3,16.414,16.414,0,0,1-.2-2.3,16.151,16.151,0,0,0,0-2.2,2.151,2.151,0,0,0-1.2.9A7.847,7.847,0,0,0,32.4,75a10.542,10.542,0,0,1-1.3,2.6c-.5.7-1.1,1.4-1.6,2.1-.1.1-.2.2-.2.3,0,.2.2.4.5.5a5.886,5.886,0,0,0,4.5-.3,4.567,4.567,0,0,1-.7,2.7c-.4.8-1,1.5-1.5,2.3-.1.2-.2.4,0,.5.1.1.1.1.2.1a7.967,7.967,0,0,1,3.5,1.6,9.266,9.266,0,0,1,1.4,1.4c.3.4.8,1.4,1.2,1.6.5.2,1.1-2.1,1.2-2.6a3.722,3.722,0,0,0-.7-2,49.05,49.05,0,0,1-2.5-5.7Z" fill="#98c6d4"/>
        </g>
        <g id="Group_6619" data-name="Group 6619">
          <path id="Path_44820" data-name="Path 44820" d="M36.8,78.8a23.553,23.553,0,0,1-1-4.6,19.419,19.419,0,0,1-.2-2.4,17.652,17.652,0,0,0,0-2.3,2.151,2.151,0,0,0-1.2.9,10.548,10.548,0,0,0-1.5,3,14.255,14.255,0,0,1-1.3,2.8c-.6.8-1.1,1.5-1.6,2.3-.1.1-.2.2-.2.3,0,.3.2.4.5.5a5.469,5.469,0,0,0,4.5-.3,4.521,4.521,0,0,1-.7,2.8c-.4.9-1,1.6-1.5,2.5-.1.2-.2.4,0,.6.1.1.1.1.2.1a8.163,8.163,0,0,1,3.5,1.7,6.73,6.73,0,0,1,1.4,1.5c.3.4.8,1.5,1.2,1.7.5.2,1.1-2.3,1.2-2.7a4.05,4.05,0,0,0-.7-2.1,64.752,64.752,0,0,1-2.6-6.3Z" fill="#f3fafe"/>
        </g>
        <g id="Group_6620" data-name="Group 6620" opacity="0.342">
          <path id="Path_44821" data-name="Path 44821" d="M42.5,79.9a23.728,23.728,0,0,0,1.1-4.6,19.419,19.419,0,0,0,.2-2.4,17.652,17.652,0,0,1,0-2.3,2.151,2.151,0,0,1,1.2.9,14.287,14.287,0,0,1,1.6,3,14.255,14.255,0,0,0,1.3,2.8c.5.8,1.1,1.5,1.7,2.3.1.1.2.2.2.3,0,.3-.2.4-.5.5a5.677,5.677,0,0,1-4.6-.3,4.521,4.521,0,0,0,.7,2.8c.4.9,1,1.6,1.5,2.5.1.2.2.4,0,.6h-.3a9.224,9.224,0,0,0-5,3.1c-1.4,1.5-2.5,3.2-3.9,4.7-.2-2.7,1-5.3,2.1-7.8a41.815,41.815,0,0,0,2.7-6.1Z" fill="#98c6d4"/>
        </g>
        <g id="Group_6621" data-name="Group 6621">
          <path id="Path_44822" data-name="Path 44822" d="M42.4,78.4a23.553,23.553,0,0,0,1-4.6,19.42,19.42,0,0,0,.2-2.4,17.652,17.652,0,0,1,0-2.3,2.151,2.151,0,0,1,1.2.9,10.548,10.548,0,0,1,1.5,3,14.255,14.255,0,0,0,1.3,2.8c.5.8,1.1,1.5,1.6,2.3.1.1.2.2.2.3,0,.3-.2.4-.5.5a5.469,5.469,0,0,1-4.5-.3,4.521,4.521,0,0,0,.7,2.8c.4.9,1,1.6,1.5,2.5.1.2.2.4,0,.6-.1.1-.1.1-.2.1a8.979,8.979,0,0,0-4.9,3.1c-1.3,1.5-2.5,3.2-3.8,4.7-.2-2.7,1-5.3,2.1-7.8C40.7,82.5,41.7,80.5,42.4,78.4Z" fill="#f3fafe"/>
        </g>
        <g id="Group_6623" data-name="Group 6623">
          <g id="Group_6622" data-name="Group 6622">
            <path id="Path_44823" data-name="Path 44823" d="M41.4,38.9c-1,1.8-1,3.5-2.9,4.7-1.4.9-2.3,1.1-3.2,2.5a6.894,6.894,0,0,1-2.2,2.3c-.6.4-1,.5-1.4,1.1-.7,1-.7,3.8-2.2,4.1-1.3.2-.7,2.2.5,2,1.6-.3,2.1-1.4,2.6-2.8.4-1.3.6-2.1,1.9-2.8a6.1,6.1,0,0,0,1.6-1.2c.8-1,.8-2.1,2-3a22.606,22.606,0,0,0,2.6-1.6c1.3-1.3,1-3.2,1.6-4.9a.493.493,0,1,0-.9-.4Z" fill="#502c25"/>
          </g>
        </g>
        <g id="Group_6625" data-name="Group 6625">
          <g id="Group_6624" data-name="Group 6624">
            <path id="Path_44824" data-name="Path 44824" d="M41,38.9A8.14,8.14,0,0,1,36.6,42a5.119,5.119,0,0,0-3.3,2.6A5.45,5.45,0,0,1,32.1,47c-.4.4-.9.5-1.3,1-1.1,1.4-.6,3.5-1.3,5.1A.878.878,0,0,0,31,54c.9-1.6.5-4.1,1.8-5.3.4-.4,1-.6,1.4-1.1.6-.8.6-1.7,1.2-2.6,1-1.4,2.6-1.6,3.9-2.6a5.584,5.584,0,0,0,2.3-3.3.329.329,0,0,0-.6-.2Z" fill="#502c25"/>
          </g>
        </g>
        <ellipse id="Ellipse_1628" data-name="Ellipse 1628" cx="2.9" cy="3.2" rx="2.9" ry="3.2" transform="translate(28.5 87.7)" fill="#dbebf3"/>
        <ellipse id="Ellipse_1629" data-name="Ellipse 1629" cx="2.9" cy="3.2" rx="2.9" ry="3.2" transform="translate(28.9 88.1)" fill="#dbebf3"/>
        <path id="Path_44825" data-name="Path 44825" d="M34.2,90.9a3.042,3.042,0,0,1-2.9,3.2,2.907,2.907,0,0,1-2.6-1.8,2.656,2.656,0,0,0,2.2,1.1,3.042,3.042,0,0,0,2.9-3.2,3.194,3.194,0,0,0-.3-1.4A2.971,2.971,0,0,1,34.2,90.9Z" fill="#98c6d4" opacity="0.342"/>
        <g id="Group_6627" data-name="Group 6627" opacity="0.342">
          <g id="Group_6626" data-name="Group 6626">
            <path id="Path_44826" data-name="Path 44826" d="M37.4,93.5c-.7,4.7-.4,9.8-.3,14.5,0,2.5.1,5,.1,7.5.1,2.3-.1,4.9.6,7.1.2.5,1,.6,1.1,0,.6-2.3.3-4.8.3-7.1,0-2.5-.1-5-.2-7.5-.1-4.8,0-9.9-.9-14.5-.1-.3-.7-.3-.7,0Z" fill="#98c6d4"/>
          </g>
        </g>
        <g id="Group_6629" data-name="Group 6629">
          <g id="Group_6628" data-name="Group 6628">
            <path id="Path_44827" data-name="Path 44827" d="M46,96.3c-.7,1.8.8,12.7,4.1,9.6a.668.668,0,0,0-.1-1c-1.7-1.1-1.8-2.5-2.1-4.3a13.911,13.911,0,0,0-1.3-4.4c-.2-.3-.5-.2-.6.1Z" fill="#dbebf3"/>
          </g>
        </g>
        <g id="Group_6631" data-name="Group 6631">
          <g id="Group_6630" data-name="Group 6630">
            <path id="Path_44828" data-name="Path 44828" d="M51.8,96.2a22.261,22.261,0,0,0-1.3,4.4c-.4,1.8-.5,3.2-2.1,4.3a.668.668,0,0,0-.1,1c3.3,3.1,4.8-7.8,4.1-9.6-.1-.3-.5-.4-.6-.1Z" fill="#dbebf3"/>
          </g>
        </g>
        <path id="Path_44829" data-name="Path 44829" d="M46.4,97c-.2-1.4-.8-6.9,1.1-9.2a1.9,1.9,0,0,1,1.7-.7,3.121,3.121,0,0,1,2,2.4,24.884,24.884,0,0,1,.8,7.2" fill="none" stroke="#6c6e6e" stroke-linecap="round" stroke-miterlimit="10" stroke-width="3"/>
        <ellipse id="Ellipse_1630" data-name="Ellipse 1630" cx="1.3" cy="1.4" rx="1.3" ry="1.4" transform="translate(30.1 89.5)" fill="#6c6e6e"/>
        <g id="Group_6632" data-name="Group 6632">
          <path id="Path_44830" data-name="Path 44830" d="M32.9,90.9a1.655,1.655,0,0,1-1.5,1.7,1.59,1.59,0,0,1-1.5-1.7,1.655,1.655,0,0,1,1.5-1.7,1.59,1.59,0,0,1,1.5,1.7Z" fill="#6c6e6e"/>
          <path id="Path_44831" data-name="Path 44831" d="M32.9,90.9a1.655,1.655,0,0,1-1.5,1.7,1.693,1.693,0,0,1-1.4-.9,1.389,1.389,0,0,0,1,.5,1.59,1.59,0,0,0,1.5-1.7,2.353,2.353,0,0,0-.2-.8A1.309,1.309,0,0,1,32.9,90.9Z" fill="#6c6e6e" opacity="0.366"/>
        </g>
        <g id="Group_6633" data-name="Group 6633" opacity="0.332">
          <ellipse id="Ellipse_1631" data-name="Ellipse 1631" cx="0.8" cy="0.9" rx="0.8" ry="0.9" transform="translate(30.6 90)" fill="#f3fafe"/>
        </g>
        <g id="Group_6634" data-name="Group 6634">
          <path id="Path_44832" data-name="Path 44832" d="M50.5,106.3c.6.5,1.9.2,1.8-.8a.969.969,0,0,0-.7-.8c-.4-.1-.9.2-1.3.2a4.329,4.329,0,0,1-.5-.1c-.2,0-.4-.1-.6,0-.4.2-.3.7,0,1a.778.778,0,0,0,.8.2h.3C50.4,106.1,50.4,106.2,50.5,106.3Z" fill="#6c6e6e"/>
        </g>
        <g id="Group_6635" data-name="Group 6635">
          <path id="Path_44833" data-name="Path 44833" d="M50.5,106.3c-.1-.1-.2-.2-.3-.2h-.3a1.077,1.077,0,0,1-.8-.2.744.744,0,0,1-.1-.9.758.758,0,0,0,.2.4.778.778,0,0,0,.8.2h.3c.1,0,.2.1.3.2a1.165,1.165,0,0,0,1.7-.3C52.4,106.5,51.1,106.8,50.5,106.3Z" fill="#6c6e6e"/>
        </g>
        <g id="Group_6636" data-name="Group 6636">
          <path id="Path_44834" data-name="Path 44834" d="M47.7,106.3c-.6.5-1.9.2-1.8-.8a.969.969,0,0,1,.7-.8c.4-.1.9.2,1.3.2a4.33,4.33,0,0,0,.5-.1c.2,0,.4-.1.6,0,.4.2.3.7,0,1a.778.778,0,0,1-.8.2h-.3C47.9,106.1,47.8,106.2,47.7,106.3Z" fill="#6c6e6e"/>
        </g>
        <g id="Group_6637" data-name="Group 6637" opacity="0.347">
          <path id="Path_44835" data-name="Path 44835" d="M49.1,105.8a.778.778,0,0,1-.8.2H48c-.1,0-.2.1-.3.2-.5.5-1.7.3-1.8-.5a1.127,1.127,0,0,0,1.6.2c.1-.1.2-.2.3-.2h.3a1.077,1.077,0,0,0,.8-.2.764.764,0,0,0,.2-.5C49.4,105.1,49.3,105.6,49.1,105.8Z" fill="#6c6e6e"/>
        </g>
        <g id="Group_6638" data-name="Group 6638">
          <path id="Path_44836" data-name="Path 44836" d="M55,69.4c-.1.5-.7.5-1.2.4a5.7,5.7,0,0,0-1.3-.1,1.8,1.8,0,0,0-1,.2.1.1,0,0,0-.1.1l-.9.3a3.553,3.553,0,0,1-1-.2,6.15,6.15,0,0,0-1.4-.1,23.809,23.809,0,0,1-3.8.1.349.349,0,0,0,.1-.2,3.108,3.108,0,0,1,1.5-1.3,9.83,9.83,0,0,1,1.6-.5,2.822,2.822,0,0,0,1.5-.4,1.722,1.722,0,0,0,1-1.2c.3-.9-.2-2,.2-2.8a9.143,9.143,0,0,0,.7-1.4,2.792,2.792,0,0,0-.6-1.8,8.651,8.651,0,0,1-.7-1.7,4.588,4.588,0,0,1,.3-2.6c2-5.8-2.2-16.6-2.3-16.9a23.856,23.856,0,0,1,4.1,8.1c.4,1.5.2,3.1.6,4.6a22.5,22.5,0,0,1,.8,2.4c.2,1.6-.7,3.2-.5,4.9v.2c0,.2.1.4.1.6.3,1,.7,1.9.9,2.9.3,1.8-.2,3.8,1,5.3C54.8,68.6,55.1,69,55,69.4Z" fill="#502c25"/>
        </g>
        <g id="Group_6639" data-name="Group 6639">
          <path id="Path_44837" data-name="Path 44837" d="M24.7,48.4a27.188,27.188,0,0,0-.4,3V51a20.236,20.236,0,0,1,.4-2.6Z" fill="#502c25"/>
        </g>
        <g id="Group_6640" data-name="Group 6640">
          <path id="Path_44838" data-name="Path 44838" d="M25.2,46.7c-.1.2-.1.4-.2.6,0-.1.1-.3.1-.4Z" fill="#502c25"/>
        </g>
        <g id="Group_6641" data-name="Group 6641">
          <path id="Path_44839" data-name="Path 44839" d="M33.2,70.2h0a7.485,7.485,0,0,0-2.6.1,5.775,5.775,0,0,1-1.7.6,3.022,3.022,0,0,1-1.6-.5,6.907,6.907,0,0,0-2.5-.9h0a2,2,0,0,0-1.3.2c-.1,0-.1,0-.2.1a1.7,1.7,0,0,1-.7.1.756.756,0,0,1-.4-.1.779.779,0,0,1-.3-.7c0-.9.7-1.5.9-2.3.2-1-.3-1.9-.4-2.9v-.6a8.634,8.634,0,0,1,1.1-2.9v-.1c.1-.3.2-.5.3-.8a15.475,15.475,0,0,0,.7-4.3v-.7c0-.8-.1-1.7-.1-2.5V50.3l.3-2.1h0a3.553,3.553,0,0,0,.2-1c0-.1.1-.3.1-.4.1-.4.2-.7.3-1.1.3-.9.6-1.8,1-2.7a10.93,10.93,0,0,1,.8-1.5,16.971,16.971,0,0,1,4.2-5c-1.4,1.3-4,5.8-4.3,7.5-.2.9,0,1.9-.2,2.9s-.4,2-.7,3a7.512,7.512,0,0,0-.4,3.3,17.6,17.6,0,0,0,.9,2,6.923,6.923,0,0,1,.4,3.5,24.884,24.884,0,0,1-1.1,2.9,4.27,4.27,0,0,0,.1,2.5,2.589,2.589,0,0,0,.7,1.1c.2.2.5.3.7.5a3.134,3.134,0,0,1,.8,1.1c.1.3.2.7.3,1a1.2,1.2,0,0,0,1,.7c.4,0,.8-.1,1.2-.1C31.7,68.6,32.2,70,33.2,70.2Z" fill="#502c25"/>
        </g>
        <g id="Group_6643" data-name="Group 6643" opacity="0.579">
          <g id="Group_6642" data-name="Group 6642">
            <path id="Path_44840" data-name="Path 44840" d="M47.5,52.6a3.3,3.3,0,0,0-.2,2.2.15.15,0,1,0,.3,0,3.4,3.4,0,0,0,.1-1,4.034,4.034,0,0,0,0-1.1c0-.1-.1-.2-.2-.1Z" fill="#eea153"/>
          </g>
        </g>
        <g id="Group_6645" data-name="Group 6645" opacity="0.579">
          <g id="Group_6644" data-name="Group 6644">
            <path id="Path_44841" data-name="Path 44841" d="M47.6,53.9a1.024,1.024,0,0,1,.6-.5c.3-.1.2-.6-.1-.5-.5.1-.6.5-.7.9C47.3,54,47.6,54.1,47.6,53.9Z" fill="#eea153"/>
          </g>
        </g>
        <g id="Group_6646" data-name="Group 6646" opacity="0.342">
          <path id="Path_44842" data-name="Path 44842" d="M56.8,120.7a1.136,1.136,0,0,1-.3.8c-.2.2-.4.2-.6.3a35.471,35.471,0,0,1-10.2,1.1c-1.2-.1-2.3-.3-3.5-.5-1.4-.1-2.9-.1-4.3-.1-1.5,0-2.9,0-4.4.1-.5,0-4.1.4-4-.1,0-.3,1.7-.5,2-.6l2.4-.6c4.4-1.2,8.8-2.3,12.9-4.3a10.526,10.526,0,0,0,5.3-4.9,15.969,15.969,0,0,0,1.4-4.2c.3-1.4.8-2.7,1.1-4.1.5-2.6,1-5.1,1.3-7.7C56.1,101.2,57.1,117.7,56.8,120.7Z" fill="#98c6d4"/>
        </g>
        <g id="Group_6648" data-name="Group 6648">
          <g id="Group_6647" data-name="Group 6647">
            <path id="Path_44843" data-name="Path 44843" d="M80.7,74.7a6.422,6.422,0,0,0-1.8,2.5c-.2.7,0,1.6.9,1.3a2.735,2.735,0,0,0,1.3-1.3c.3-.5.7-1,1-1.5.1-.2-.2-.3-.3-.1-.5.7-1,1.4-1.5,2-.1.1-.3.4-.5.4-.2-.2-.4-.3-.5-.5,0-.1,0-.1.1-.2,0-.2.2-.4.3-.6.4-.7.9-1.2,1.3-1.9a.192.192,0,0,0-.3-.1Z" fill="#f09e4e"/>
          </g>
        </g>
        <g id="Group_6650" data-name="Group 6650">
          <g id="Group_6649" data-name="Group 6649">
            <path id="Path_44844" data-name="Path 44844" d="M79.6,78.4a.774.774,0,0,0,1.1,1,5.462,5.462,0,0,0,1.9-2.1c.1-.2-.2-.4-.3-.3a10.592,10.592,0,0,1-1,1.2l-.5.5c-.1.1-.3.2-.4.3-.4.1-.8-.1-.7-.6C79.8,78.4,79.7,78.3,79.6,78.4Z" fill="#f09e4e"/>
          </g>
        </g>
        <g id="Group_6652" data-name="Group 6652">
          <g id="Group_6651" data-name="Group 6651">
            <path id="Path_44845" data-name="Path 44845" d="M80.5,79.3a1.126,1.126,0,0,0,1.2.8,2.76,2.76,0,0,0,1.6-1.2c.2-.2-.2-.5-.4-.3-.5.6-1.5,1.5-2.2.6C80.7,79.1,80.5,79.1,80.5,79.3Z" fill="#f09e4e"/>
          </g>
        </g>
        <g id="Group_6654" data-name="Group 6654">
          <path id="Path_44846" data-name="Path 44846" d="M77.2,75.9a3.4,3.4,0,0,1,1.4-.2c.5.1,1,.5,1.5.6.1,0,.2.1.3.1v.3a1.057,1.057,0,0,1-.7.6,4.013,4.013,0,0,1-1.5.3,2.1,2.1,0,0,1-1.1.8" fill="#fdc587"/>
          <g id="Group_6653" data-name="Group 6653">
            <path id="Path_44847" data-name="Path 44847" d="M77.2,75.9a5.23,5.23,0,0,1,1.8.3c.3.1.5.3.8.4s.3.2,0,.4a2.994,2.994,0,0,1-.8.4h-.9a.769.769,0,0,0-.3.2,2.837,2.837,0,0,1-.9.6c-.4.1-.2.7.2.6a2.075,2.075,0,0,0,1-.6c.3-.3.6-.2,1-.3.6-.1,1.5-.6,1.6-1.2a.864.864,0,0,0-.3-.6A.6.6,0,0,0,80,76c-.3-.1-.5-.3-.8-.4a1.869,1.869,0,0,0-2,.3Z" fill="#f09e4e"/>
          </g>
        </g>
        <path id="Path_44848" data-name="Path 44848" d="M47.5,97.2l-6.7,26.1a1.063,1.063,0,0,1-1.2.8l-17.5-5.4-.6-.2a1.274,1.274,0,0,1-.7-1.4L27.5,91a1.063,1.063,0,0,1,1.2-.8L46,95.6l.8.3A1.146,1.146,0,0,1,47.5,97.2Z" fill="#00738c"/>
        <path id="Path_44849" data-name="Path 44849" d="M41,99.1l-.5,1.8c0,.2-.2.2-.3.2l-9.3-2.9-.2-.1c-.1,0-.2-.2-.2-.4l.5-1.8c0-.2.2-.2.3-.2l9.2,2.9.2.1C41,98.8,41,98.9,41,99.1Z" fill="#00738c" opacity="0.336"/>
        <g id="Group_6655" data-name="Group 6655" opacity="0.336">
          <path id="Path_44850" data-name="Path 44850" d="M47.5,97.2l-6.7,26.1a1.063,1.063,0,0,1-1.2.8l-17.5-5.4c5,.3,10.4-.6,14.5-4.1,4.8-4.1,6.8-10.9,8.8-17.2a8.651,8.651,0,0,1,.7-1.7l.8.3C47.3,96,47.6,96.7,47.5,97.2Z" fill="#00738c"/>
        </g>
        <g id="Group_6656" data-name="Group 6656">
          <path id="Path_44851" data-name="Path 44851" d="M41.5,113.4a6.97,6.97,0,0,1-4-1.8,2.36,2.36,0,0,1-.7-1.6,4.009,4.009,0,0,1,1-2.2,10.243,10.243,0,0,0,1-2.1c.3-.8.3-1,1.1-.9a11.4,11.4,0,0,1,3.4,1.5,4.531,4.531,0,0,1,1.5,4.6,2.877,2.877,0,0,1-1.8,2.3,2.83,2.83,0,0,1-1.5.2Z" fill="#fdc587"/>
        </g>
        <g id="Group_6657" data-name="Group 6657">
          <path id="Path_44852" data-name="Path 44852" d="M23.6,104.7a43.846,43.846,0,0,0,6,3.9,53.7,53.7,0,0,0,6.9,3.1,1.4,1.4,0,0,0,1.4,0,2.186,2.186,0,0,0,.3-.5,13.969,13.969,0,0,0,.9-2.9,6.522,6.522,0,0,0,.2-2.4c-.2-1.3-1.1-1.7-2-2.3-1.2-.7-2.4-1.3-3.5-2-2.3-1.4-6.3-4.3-8.1-6.6" fill="#f3fafe"/>
        </g>
        <g id="Group_6659" data-name="Group 6659">
          <g id="Group_6658" data-name="Group 6658">
            <path id="Path_44853" data-name="Path 44853" d="M28.5,58.9a5.534,5.534,0,0,0-1.9,5c.1.4.3.7.4,1.1.6,1.4.2,1.6-.1,2.9a2.043,2.043,0,0,0,.1,2,.758.758,0,0,0,1.4-.4c.1-1.6,1.2-2.6.6-4.3-.4-1-1-1.7-.9-2.9.1-1,.7-2,.9-3,.1-.4-.3-.6-.5-.4Z" fill="#502c25"/>
          </g>
        </g>
        <g id="Group_6661" data-name="Group 6661">
          <g id="Group_6660" data-name="Group 6660">
            <path id="Path_44854" data-name="Path 44854" d="M29.7,61.1a4.24,4.24,0,0,0-.9,3.6,4.5,4.5,0,0,1-.1,2.8,3.322,3.322,0,0,0-.3,2.4.885.885,0,0,0,1.7,0,8.6,8.6,0,0,0,.9-4.2,3.946,3.946,0,0,0-.6-1.5,3.283,3.283,0,0,1-.2-2.9c.2-.3-.3-.4-.5-.2Z" fill="#502c25"/>
          </g>
        </g>
        <g id="Group_6663" data-name="Group 6663">
          <g id="Group_6662" data-name="Group 6662">
            <path id="Path_44855" data-name="Path 44855" d="M31.3,62.5a3.15,3.15,0,0,0-.5,3.1c.5,1.4-.4,2.7-.1,4.1a1.006,1.006,0,0,0,1.9,0,14.219,14.219,0,0,0,.5-3.6,7.838,7.838,0,0,0-.5-1.4,14.16,14.16,0,0,1-.4-2c-.2-.3-.6-.5-.9-.2Z" fill="#502c25"/>
          </g>
        </g>
        <g id="Group_6665" data-name="Group 6665">
          <g id="Group_6664" data-name="Group 6664">
            <path id="Path_44856" data-name="Path 44856" d="M43.9,63.2c-.5,1.1-.8,2-.1,3.1a3.444,3.444,0,0,1,.4,2,1.964,1.964,0,0,0,.5,1.5.716.716,0,0,0,1.2-.3,7.57,7.57,0,0,0,0-3,2.1,2.1,0,0,0-.7-1.1,2.883,2.883,0,0,1-.7-2c.1-.4-.5-.5-.6-.2Z" fill="#502c25"/>
          </g>
        </g>
        <g id="Group_6667" data-name="Group 6667">
          <g id="Group_6666" data-name="Group 6666">
            <path id="Path_44857" data-name="Path 44857" d="M45.6,60.4a4,4,0,0,0-.2,1.9c.1,1.1.9,1.9,1,2.9.2,1.5-.5,3.1.8,4.2a.564.564,0,0,0,.9-.1c.1-.1.1-.2.2-.3a.956.956,0,0,0,0-.9c-.6-1.2,0-2.6-.5-3.9a7.143,7.143,0,0,0-.8-1.5,10.1,10.1,0,0,1-.7-2.3.385.385,0,0,0-.7,0Z" fill="#502c25"/>
          </g>
        </g>
        <g id="Group_6669" data-name="Group 6669">
          <g id="Group_6668" data-name="Group 6668">
            <path id="Path_44858" data-name="Path 44858" d="M47.6,57.2a6.154,6.154,0,0,0-.2,1.9c.1,1,.8,1.7.8,2.7,0,2-.7,3.7.3,5.6a.644.644,0,0,0,1.2-.3c0-.9-.3-1.7-.3-2.6,0-1,.3-2,.2-3-.1-1.6-1.2-2.7-1.4-4.3C48.2,57,47.7,56.9,47.6,57.2Z" fill="#502c25"/>
          </g>
        </g>
        <g id="Group_6671" data-name="Group 6671" opacity="0.342">
          <g id="Group_6670" data-name="Group 6670">
            <path id="Path_44859" data-name="Path 44859" d="M26,90.4c-.7,1.8-1.5,3.7-.5,5.4.4.7,1.5,0,1.1-.6a2.734,2.734,0,0,1-.3-2.5,18.1,18.1,0,0,0,.3-2.3C26.6,90.1,26.1,90.1,26,90.4Z" fill="#98c6d4"/>
          </g>
        </g>
      </g>
    </g>
  </g>
</svg>
