<svg xmlns="http://www.w3.org/2000/svg" xmlns:xlink="http://www.w3.org/1999/xlink" width="117.2" height="117.199" viewBox="0 0 117.2 117.199">
  <defs>
    <linearGradient id="linear-gradient" y1="0.5" x2="1" y2="0.5" gradientUnits="objectBoundingBox">
      <stop offset="0" stop-color="#ebebeb"/>
      <stop offset="1" stop-color="#fff"/>
    </linearGradient>
    <clipPath id="clip-path">
      <circle id="Ellipse_1634" data-name="Ellipse 1634" cx="58.6" cy="58.6" r="58.6" transform="translate(8.2 8.8)"/>
    </clipPath>
  </defs>
  <g id="rheumatologist" transform="translate(-8.2 -8.801)">
    <circle id="Ellipse_1633" data-name="Ellipse 1633" cx="58.6" cy="58.6" r="58.6" transform="translate(8.2 8.8)" fill="url(#linear-gradient)"/>
    <g id="Group_6692" data-name="Group 6692">
      <g id="Group_6674" data-name="Group 6674" clip-path="url(#clip-path)">
        <path id="Path_44860" data-name="Path 44860" d="M69.7,76.9c-.4.1-1,0-1.4.1a2.079,2.079,0,0,1-1.1.1,1.794,1.794,0,0,1-.7-.5,2.01,2.01,0,0,1-.4-.8,2.016,2.016,0,0,1,1.1-.3c.5,0,1.4.1,1.9.1a1.984,1.984,0,0,0,1.3-.6c.1-.1.2-.3.4-.4a.44.44,0,0,1,.5-.1c.2.1.6.9-.3,1.7a4.15,4.15,0,0,1-1.3.7Z" fill="#e8bc90"/>
      </g>
      <g id="Group_6675" data-name="Group 6675" clip-path="url(#clip-path)">
        <path id="Path_44861" data-name="Path 44861" d="M72.4,80.9h.5a.247.247,0,0,0,.1-.4c.6.2,2.1.3,1.8-.4.4,0,.7-.2.7-.5a.909.909,0,0,0-.4-.8,2.01,2.01,0,0,0-.8-.4c-1.6-.7-3.1-1.3-4.7-2a9.678,9.678,0,0,0-2.4-.8H66.1c-1-.6-1.6-.6-2.6-1.1a6.989,6.989,0,0,0-3.9,2.4c1.8.4,3.7.8,5.5,1.2,0,.1.1.2.1.3.4.8.2,1.1,1.1,1.3C68.5,80.2,70.4,80.6,72.4,80.9Z" fill="#fecf9f"/>
      </g>
      <g id="Group_6676" data-name="Group 6676" clip-path="url(#clip-path)">
        <path id="Path_44862" data-name="Path 44862" d="M41.6,52.9l1-6.1c2.6.5,6,1,6.7,1,0,0-.7,4.4-.8,6.3C48.4,57.9,44.2,57.9,41.6,52.9Z" fill="#e8bc90"/>
      </g>
      <g id="Group_6677" data-name="Group 6677" clip-path="url(#clip-path)">
        <path id="Path_44863" data-name="Path 44863" d="M42.6,47.7a6.214,6.214,0,0,1,.6-3c2.2-5.5,5.2-3.6,7.2-2.8,2.4,1,4.1,3.5,2.9,7.3a4.432,4.432,0,0,0-.5.6v2.4a.563.563,0,0,1-.7.6h-.6c-.1.4-.7,2-.7,2-.4.9-1.3,2.3-2.6,1.7-3.5-1.7-4.3-3.9-2.9-7C44.5,48.9,42.6,48.6,42.6,47.7Z" fill="#fecf9f"/>
        <path id="Path_44864" data-name="Path 44864" d="M42.2,50.4c2.6,1.8,2.9-2.9,2.9-2.9s2.1.1,2.6.2c-1.4-4.6,0-7.4,4.6-4.5.9-.5-.7-2.3-3.3-2.7-3-.5-5.4.2-6.8,2.8C41.5,45,40,48.3,42.2,50.4Z" fill="#3d3d3c"/>
        <path id="Path_44865" data-name="Path 44865" d="M44.5,47.3c-.3.9.1,2.2.6,2.4.6.2.9-.5,1.2-1.4.2-.6.5-1.4,0-1.8C45.9,46.2,45,46,44.5,47.3Z" fill="#fed2a1"/>
      </g>
      <g id="Group_6686" data-name="Group 6686" clip-path="url(#clip-path)">
        <g id="Group_6678" data-name="Group 6678">
          <path id="Path_44866" data-name="Path 44866" d="M79.5,63.4h0a.553.553,0,0,0-.8.3l-2.1,4.5a.63.63,0,0,0,.3.8h0a.63.63,0,0,0,.8-.3l2.1-4.5a.67.67,0,0,0-.3-.8Z" fill="#fecf9f"/>
          <path id="Path_44867" data-name="Path 44867" d="M78.8,62.6h0a.651.651,0,0,0-.9.2L75.3,67a.524.524,0,0,0,.2.8h0a.524.524,0,0,0,.8-.2l2.6-4.2a.619.619,0,0,0-.1-.8Z" fill="#fecf9f"/>
          <path id="Path_44868" data-name="Path 44868" d="M80.5,63.9h0a.63.63,0,0,0-.8.3l-1.8,4.1a.63.63,0,0,0,.3.8h0a.63.63,0,0,0,.8-.3l1.8-4.1C81,64.4,80.8,64.1,80.5,63.9Z" fill="#fecf9f"/>
          <path id="Path_44869" data-name="Path 44869" d="M81.5,64.4h0a.61.61,0,0,0-.7.3l-1,3.1a.61.61,0,0,0,.3.7h0a.61.61,0,0,0,.7-.3l1-3.1a.517.517,0,0,0-.3-.7Z" fill="#fecf9f"/>
          <path id="Path_44870" data-name="Path 44870" d="M82.4,59.5l-1.3-2.2-1.4,2.8a1.391,1.391,0,0,0-1.5.4.52.52,0,0,0-.2.4L77.4,62l.4.4L77,64.1a12.71,12.71,0,0,0,4.6,1.3l.9-2.3a2.208,2.208,0,0,0,0-1.6l1.6-3.1Z" fill="#e8bc90"/>
          <path id="Path_44871" data-name="Path 44871" d="M76.9,61.4a4.4,4.4,0,0,1-1.7,1.4c-.6.3-.2,1.7,1.2.8a7.551,7.551,0,0,0,1.4-1.1,2.253,2.253,0,0,0,2.6,0l-1.9-2.4C78,60.1,77.4,60.7,76.9,61.4Z" fill="#fecf9f"/>
          <path id="Path_44872" data-name="Path 44872" d="M81.1,57.3,79.8,60a2.333,2.333,0,0,0-1.8.2l-.2,1.3.5.9c1,.4,2.2.4,2.6-.7h0L82.2,59Z" fill="#fecf9f"/>
        </g>
        <g id="Group_6680" data-name="Group 6680">
          <path id="Path_44873" data-name="Path 44873" d="M97.7,113.6v.2c0,.1-.1.1-.2.1l-1,.3a2.485,2.485,0,0,1-.8.1l-2.3.1h-.2l-5.3.4a13.4,13.4,0,0,1-2-.1,11.62,11.62,0,0,1-3.1-.8c-.1-.1-.2-.2-.2-.3l.1-.6,14.6-.5Z" fill="#e1e2e1"/>
          <g id="Group_6679" data-name="Group 6679">
            <path id="Path_44874" data-name="Path 44874" d="M86.6,110.5c1.5-.5,3.4-.1,4.9-1.8.6-.6,1.6-3.2-.4-3.1-.2,0,0,.6-.4,1.3-1.2,2.2-3.3,2.9-4.9,3.4h0A.83.83,0,0,0,86.6,110.5Z" fill="#e1e2e1"/>
            <path id="Path_44875" data-name="Path 44875" d="M96.6,108.2c-2.4,1.8-4,.3-5-.4a.616.616,0,0,0-.7.1,11.021,11.021,0,0,1-4.3,2.6.778.778,0,0,1-.8-.2h0c-1.2.4-2.2.6-2.6,1.2-.4.3-.6,1.4-.3,1.5a10.358,10.358,0,0,0,3.6.7,11.451,11.451,0,0,0,3.2-.1L92,113a2.769,2.769,0,0,1,.9-.1l4.5-.3a7.183,7.183,0,0,0-.8-4.4Z" fill="#46364d"/>
          </g>
          <path id="Path_44876" data-name="Path 44876" d="M97.1,109.4c-.8.3-.8-.3-1.9-.4.1-.2.4-.2.6-.8.1-.4.2-.9.4-1l.2-.1h.1l.1.1C96.7,107.6,96.9,108.6,97.1,109.4Z" fill="#e1e2e1"/>
          <path id="Path_44877" data-name="Path 44877" d="M87.2,111.1h0c-.1.1-.3,0-.4-.1l-.4-.8c-.1-.1,0-.3.1-.4h0c.1-.1.3,0,.4.1l.4.8C87.4,110.9,87.3,111,87.2,111.1Z" fill="#cfcfce"/>
          <path id="Path_44878" data-name="Path 44878" d="M88,110.8h0c-.1.1-.3,0-.4-.1l-.4-.8c-.1-.1,0-.3.1-.4h0c.1-.1.3,0,.4.1l.4.8C88.1,110.6,88.1,110.7,88,110.8Z" fill="#cfcfce"/>
          <path id="Path_44879" data-name="Path 44879" d="M88.7,110.5h0c-.1.1-.3,0-.4-.1l-.4-.8c-.1-.1,0-.3.1-.4h0c.1-.1.3,0,.4.1l.4.8C88.9,110.2,88.8,110.4,88.7,110.5Z" fill="#cfcfce"/>
          <path id="Path_44880" data-name="Path 44880" d="M89.5,110h0c-.1.1-.3,0-.4-.1l-.5-.8a.247.247,0,0,1,.1-.4h0c.1-.1.3,0,.4.1l.5.8C89.6,109.8,89.6,110,89.5,110Z" fill="#cfcfce"/>
          <path id="Path_44881" data-name="Path 44881" d="M90.2,109.5h0a.247.247,0,0,1-.4-.1l-.6-.7a.3.3,0,0,1,0-.4h0a.247.247,0,0,1,.4.1l.6.7C90.3,109.3,90.3,109.5,90.2,109.5Z" fill="#cfcfce"/>
          <path id="Path_44882" data-name="Path 44882" d="M90.9,108.9h0a.3.3,0,0,1-.4,0l-.7-.7a.3.3,0,0,1,0-.4h0a.3.3,0,0,1,.4,0l.7.7a.3.3,0,0,1,0,.4Z" fill="#cfcfce"/>
        </g>
        <path id="Path_44883" data-name="Path 44883" d="M97.5,108.8c-1.9.9-7.5.6-7.8-1.1l-.5-5.4-.8-8.6L88,89.2l-.2-2.4c0-.2-.1-.4-.1-.6v-.6a.6.6,0,0,1,.1-.4,3.606,3.606,0,0,1,2.5-2.6h.1a3.083,3.083,0,0,1,1-.1,3.731,3.731,0,0,1,2.9,2.1,4.875,4.875,0,0,1,.3.7,17.014,17.014,0,0,1,1.1,5.1C96.3,97.7,95.6,94.5,97.5,108.8Z" fill="#21576b"/>
        <path id="Path_44884" data-name="Path 44884" d="M97.3,63.1l-.5,4.7L96,75.4,95.7,78a55.834,55.834,0,0,1-.9,5.9c-.1.5-.2.9-.3,1.4v.1a3.65,3.65,0,0,1-3.6,2.8h-.1a3.529,3.529,0,0,1-1.4-.3A3.007,3.007,0,0,1,88,86.8h0c-.1-.2-.2-.3-.3-.5h0a.764.764,0,0,1-.2-.5,3.6,3.6,0,0,1-.2-1.1c-.1-1.8-.2-3.6-.2-5.4v-2h0v-.2a21.752,21.752,0,0,1,.1-2.5l.2-5.7.2-6.7a4.835,4.835,0,0,1,5.2-4.5h.1a2.92,2.92,0,0,1,.9.2h0a5.118,5.118,0,0,1,3.5,5.2Z" fill="#21576b"/>
        <path id="Path_44885" data-name="Path 44885" d="M88.2,36.8,88,44.1l-.1,3.8h0v.5a2.737,2.737,0,0,1-2.6,2.7h-.7c-.2,0-.3-.1-.5-.1a3.023,3.023,0,0,1-1.8-1.7,3.6,3.6,0,0,1-.2-1.1l.1-4,.2-7.4a2.725,2.725,0,0,1,1.7-2.5,1.445,1.445,0,0,1,.7-.2h0c.2,0,.4-.1.6,0h.1a2.836,2.836,0,0,1,1.3.4h0a1.962,1.962,0,0,1,.9.9,1.813,1.813,0,0,1,.5,1.4Z" fill="#fecf9f"/>
        <path id="Path_44886" data-name="Path 44886" d="M87.9,50.1c-.6,1.6-1.2,3.1-1.7,4.4-.3.7-.5,1.3-.8,1.9-.7,1.6-1.5,3-2.3,4.5-.2.3-.3.5-.5.8a4.811,4.811,0,0,0-1.1-.9,4.923,4.923,0,0,0-1.7-.6v-.1l2.5-10.7.3-1.2A2.94,2.94,0,0,1,84,46.7h.1c.1,0,.2-.1.3-.1a3.083,3.083,0,0,1,1.9,0h.1A3.168,3.168,0,0,1,88,48,3.09,3.09,0,0,1,87.9,50.1Z" fill="#fecf9f"/>
        <path id="Path_44887" data-name="Path 44887" d="M88.2,36.8,88,44.1H82.2l.2-7.4a2.725,2.725,0,0,1,1.7-2.5,1.445,1.445,0,0,1,.7-.2h0c.2,0,.4-.1.6,0h.1a2.836,2.836,0,0,1,1.3.4h0a1.962,1.962,0,0,1,.9.9,2.251,2.251,0,0,1,.5,1.5Z" fill="#b94f41"/>
        <path id="Path_44888" data-name="Path 44888" d="M100,61.4h0l-1.1.6h0l-1.5,1h-.1l-.1.1-1.7,1-8.2,5v.1h0V69l-.8-9.5h0l2.1-.6,1.3-.4,2.3-.6,5.1-1.5,1.4-.4.7,2.7V59Z" fill="#27647d"/>
        <path id="Path_44889" data-name="Path 44889" d="M100.3,64.4c0,.3-.1.6-.1.9a.6.6,0,0,1-.1.4v.2a6.468,6.468,0,0,1-.4,1.3,2.01,2.01,0,0,1-.4.8,7.165,7.165,0,0,1-1.1,1.5l-.2.2-.2.2h0c-.1.1-.2.1-.3.2a20.435,20.435,0,0,1-1.6,5.3,21.86,21.86,0,0,1-1.6,3,21.839,21.839,0,0,1-2.2,3.1,5.008,5.008,0,0,1-.7.8l-.3.3a15.936,15.936,0,0,1-1.3,1.3,1.756,1.756,0,0,1-.5.4,1.756,1.756,0,0,0-.5.4,8.343,8.343,0,0,1-1.2.8c-.1,0-.1.1-.2.1a.349.349,0,0,0-.2.1,2.972,2.972,0,0,1-1.8.4h0a3.553,3.553,0,0,1-1-.2h-.1a1.612,1.612,0,0,1-.7-.4,3.606,3.606,0,0,1-1.3-4.1c0-.2.1-.3.2-.5h0l.4-1.2c.3-.7.5-1.4.8-2.1.1-.3.3-.7.4-1l.9-2.1.6-1.4,1.5-3.9h0v-.1l3.2-8.3c.1-.2.1-.3.2-.4a4.392,4.392,0,0,1,3-2.3h0a6.15,6.15,0,0,1,2.7,0,.758.758,0,0,1,.4.2l1.4.4a1.794,1.794,0,0,1,.7.5l.3.3a.1.1,0,0,0,.1.1,7.509,7.509,0,0,1,.7,1.8h0c.1.3.1.7.2,1v.1a2.485,2.485,0,0,0,.1.8A1.978,1.978,0,0,1,100.3,64.4Z" fill="#27647d"/>
        <g id="Group_6682" data-name="Group 6682">
          <path id="Path_44890" data-name="Path 44890" d="M85,111.8c0,.1,0,.2-.1.2,0,.1-.1.1-.2.1l-1,.1h-.9l-2.3-.3h-.2l-5.3-.4a7.106,7.106,0,0,1-2-.4l-.9-.3a7.454,7.454,0,0,1-2-1c-.1-.1-.2-.2-.1-.4l.2-.6h0l6.4.7,8.1.9v.2Z" fill="#ededee"/>
          <g id="Group_6681" data-name="Group 6681">
            <path id="Path_44891" data-name="Path 44891" d="M74.4,107.2c1.5-.3,3.4.4,5.1-1,.7-.5,2.1-3,0-3.1-.2,0-.1.6-.6,1.2-1.5,2-3.7,2.4-5.3,2.7h0a1.884,1.884,0,0,0,.8.2Z" fill="#ededee"/>
            <path id="Path_44892" data-name="Path 44892" d="M84.8,110.7h0l-4.5-.3h-1l-2.4.2a17.329,17.329,0,0,1-3.2-.3c-.2,0-.3-.1-.4-.1a18.956,18.956,0,0,1-3-1.1l-.1-.1h0a1.755,1.755,0,0,1,.6-1.4,7.841,7.841,0,0,1,2.8-.8h0l.1.1a.349.349,0,0,0,.2.1.749.749,0,0,0,.5.1h.1c.2,0,.3-.1.5-.1a.367.367,0,0,0,.3-.1c.2,0,.3-.1.5-.1a.367.367,0,0,0,.3-.1c.2,0,.3-.1.5-.2.1,0,.2-.1.3-.1.2-.1.3-.1.5-.2.1,0,.2-.1.3-.1.2-.1.3-.2.5-.2.1-.1.2-.1.3-.2s.3-.2.4-.3l.2-.2a.1.1,0,0,0,.1-.1.483.483,0,0,1,.7,0l.3.3a5.689,5.689,0,0,0,1.7,1.2,3.211,3.211,0,0,0,1.4.1,6.517,6.517,0,0,0,1.5-.5,2.663,2.663,0,0,1,.3,1.2v.1a10.235,10.235,0,0,1-.3,3.2Z" fill="#46364d"/>
          </g>
          <path id="Path_44893" data-name="Path 44893" d="M84.9,107.5c-.8.2-.7-.5-1.8-.7.2-.2.4-.2.7-.7.2-.4.3-.8.6-.9l.3-.1h.1v.1a20.158,20.158,0,0,0,.1,2.3Z" fill="#ededee"/>
          <path id="Path_44894" data-name="Path 44894" d="M74.9,107.8h0c-.1,0-.3,0-.3-.2l-.3-.8c0-.2,0-.3.2-.4h0c.1,0,.3,0,.3.2l.3.8C75.1,107.6,75,107.8,74.9,107.8Z" fill="#dbdada"/>
          <path id="Path_44895" data-name="Path 44895" d="M75.7,107.6h0c-.1,0-.3,0-.3-.2l-.3-.8c0-.2,0-.3.2-.4h0c.1,0,.3,0,.3.2l.3.8C75.9,107.4,75.8,107.6,75.7,107.6Z" fill="#dbdada"/>
          <path id="Path_44896" data-name="Path 44896" d="M76.5,107.4h0c-.1,0-.3,0-.3-.2l-.3-.8c-.1-.2,0-.3.2-.4h0c.1,0,.3,0,.3.2l.3.8C76.7,107.2,76.6,107.4,76.5,107.4Z" fill="#dbdada"/>
          <path id="Path_44897" data-name="Path 44897" d="M77.3,107.1h0c-.1.1-.3,0-.4-.2l-.4-.8c-.1-.2,0-.3.1-.4h0c.1-.1.3,0,.4.2l.4.8C77.5,106.9,77.4,107,77.3,107.1Z" fill="#dbdada"/>
          <path id="Path_44898" data-name="Path 44898" d="M78.1,106.7h0c-.1.1-.3,0-.4-.1l-.5-.8a.247.247,0,0,1,.1-.4h0c.1-.1.3,0,.4.1l.5.8C78.3,106.5,78.2,106.6,78.1,106.7Z" fill="#dbdada"/>
          <path id="Path_44899" data-name="Path 44899" d="M78.9,106.2h0c-.1.1-.3,0-.4-.1l-.6-.8a.3.3,0,0,1,0-.4h0c.1-.1.3,0,.4.1l.6.8A.3.3,0,0,1,78.9,106.2Z" fill="#dbdada"/>
        </g>
        <path id="Path_44900" data-name="Path 44900" d="M101.4,44.3c0,1,0,2.1-.1,3.1,0,.8-.1,1.6-.1,2.4,0,.4-.1.8-.1,1.1,0,.5-.1,1-.1,1.5,0,.3-.1.6-.1.9h0a26.129,26.129,0,0,1-.6,3.2h0a9.275,9.275,0,0,1-.8,2.2h0c0,.1-.1.1-.1.2a.1.1,0,0,1-.1.1h0c-.1,0-.2.1-.3.1a19.753,19.753,0,0,1-2.6.8,7.719,7.719,0,0,1-1.5.2,20.337,20.337,0,0,1-4.2.2h-.3a15.155,15.155,0,0,1-2.3-.2,2.91,2.91,0,0,1-1.4-.4q-.15,0-.3-.3h0a8.808,8.808,0,0,1-1.1-3.2c-.3-1.5-.6-3.3-.9-5.3-.2-1.5-.4-3.1-.5-4.6,0-.4-.1-.8-.1-1.2s-.1-.8-.1-1.1c-.3-3.6-.5-6.3-.5-6.3a3.047,3.047,0,0,1,1-3.5.52.52,0,0,1,.4-.2.1.1,0,0,0,.1-.1h0c.5-.3,1.1-.5,1.6-.8a10.708,10.708,0,0,1,2.7-.9,15.873,15.873,0,0,1,3.8-.6,14.573,14.573,0,0,1,6.9,1.3h0l.6.3h0c.1,0,.1.1.2.2a12.273,12.273,0,0,1,.5,3.2,56.87,56.87,0,0,1,.4,7.7Z" fill="#b94f41"/>
        <path id="Path_44901" data-name="Path 44901" d="M87.7,35.2a2.836,2.836,0,0,1-1-.9h0a1.421,1.421,0,0,1-.2-.6l-.1-.5-.1-.3-.1-.5L85,27.8l4.3-1.1,1.7-.4h.1l.8,2.4,1,3,.1.2C93.7,34.2,89.8,36.1,87.7,35.2Z" fill="#fecf9f"/>
        <path id="Path_44902" data-name="Path 44902" d="M91,26.2a5.3,5.3,0,0,1-1.5.8h0a6.888,6.888,0,0,1,.1,2c-.2,1.5-1.2,2.7-3,3.7l-.3.1-.7.2a1.926,1.926,0,0,1-1.9-.3,2.747,2.747,0,0,1-.9-1.5l-.5-1.8h-.4a.755.755,0,0,1-.7-.4,1.077,1.077,0,0,1-.2-.8l.5-2.2s-.5-.4-.5-.5a7.2,7.2,0,0,1,.1-3.6,5.006,5.006,0,0,1,4.2-3.4c3.3-.5,5.5,0,6.4,3.9C92.1,24.2,92.1,25.4,91,26.2Z" fill="#fecf9f"/>
        <path id="Path_44903" data-name="Path 44903" d="M87.3,25c.6-.1,1.5-.2,1.6.5.6,2.7,2.5,3.5,3.2,3.1,1-.7.7-4.3.1-6.7-.9-3.8-3-5.1-6.4-4.4-5.8,1.1-6.4,3.8-4.6,4.6l2.3-.5C85.9,20.7,86.7,22.1,87.3,25Z" fill="#3d3d3c"/>
        <path id="Path_44904" data-name="Path 44904" d="M90,24.5c.2,1-.1,2.2-.8,2-.5-.2-.8-.7-1-1.5a1.186,1.186,0,0,1,.7-1.5C89.4,23.2,89.9,23.7,90,24.5Z" fill="#fecf9f"/>
        <path id="Path_44905" data-name="Path 44905" d="M89.5,87.2a66200.585,66200.585,0,0,0-.2,1.4c0,.3-.1.6-.1.9s-.1.6-.1.9a32.684,32.684,0,0,1-.7,3.4c0,.1-.1.2-.1.3-.7,2.4-1.4,4.1-2.8,13.5h-.6a7.391,7.391,0,0,1-3.4-.7,9.64,9.64,0,0,1-1.8-1,5.546,5.546,0,0,1-.8-.6l-.5-.5v-.1l2.2-12.4.7-3.8.2-.9.4-2.2.5-3.1a3.255,3.255,0,0,1,.4-1.4h0a3.915,3.915,0,0,1,.8-1,3.566,3.566,0,0,1,2.3-.8H86a3.553,3.553,0,0,1,1,.2h.1a2.361,2.361,0,0,1,.9.6h0a4.876,4.876,0,0,1,1.4,2.8c0,.1.1.3.1.4a1.087,1.087,0,0,0,.1.5c0,.3.1.5.1.8C89.6,85.2,89.6,86.1,89.5,87.2Z" fill="#27647d"/>
        <path id="Path_44906" data-name="Path 44906" d="M94.5,78.4a21.837,21.837,0,0,1-2.2,3.1c-2.5-1.7-5.4-3.5-8-4.9l.9-2.1.6-1.4a87.953,87.953,0,0,1,8.7,5.3Z" fill="#ededee"/>
        <path id="Path_44907" data-name="Path 44907" d="M89.1,90.3a27.609,27.609,0,0,1-.8,3.7,53.133,53.133,0,0,0-7.7-1.7l.7-3.8C83.8,88.9,86.7,89.7,89.1,90.3Z" fill="#ededee"/>
        <path id="Path_44908" data-name="Path 44908" d="M91.6,82.3A12.1,12.1,0,0,1,90,83.9c-.2-.1-.4-.3-.6-.4-1.9-1.2-4-2.6-6-3.6-.1-.1-.3-.1-.4-.2.3-.7.5-1.4.8-2.1,1,.5,2,1.1,3,1.7h0c.3.2.7.4,1,.6h0C89.3,80.7,90.5,81.6,91.6,82.3Z" fill="#ededee"/>
        <path id="Path_44909" data-name="Path 44909" d="M89.5,87.2c0,.4-.1.9-.1,1.3,0,.3-.1.6-.1.9a73.12,73.12,0,0,0-7.8-1.8l.4-2.2c.9.1,1.8.3,2.8.5h0a4.253,4.253,0,0,0,1.1.2h0A25.941,25.941,0,0,0,89.5,87.2Z" fill="#ededee"/>
        <path id="Path_44910" data-name="Path 44910" d="M89.5,77.5a.962.962,0,1,0-1.7-.9L84,83.2l.1.3a6.448,6.448,0,0,0,2,.3v-.3Z" fill="#3d3d3c"/>
        <path id="Path_44911" data-name="Path 44911" d="M83,90.9a1.008,1.008,0,0,0,.7,1.1h.1a.991.991,0,0,0,1.1-.8L86,84.1a10.086,10.086,0,0,1-1.8-.9Z" fill="#3d3d3c"/>
        <path id="Path_44912" data-name="Path 44912" d="M83.7,83.8a1.557,1.557,0,1,0,1.4-1.7,1.455,1.455,0,0,0-1.4,1.7Z" fill="#3d3d3c"/>
        <path id="Path_44913" data-name="Path 44913" d="M88.1,77.1a.552.552,0,1,0,.5-.6.739.739,0,0,0-.5.6Z" fill="#ededee"/>
        <path id="Path_44914" data-name="Path 44914" d="M83.5,90.9a.51.51,0,1,0,.6-.4C83.8,90.5,83.5,90.6,83.5,90.9Z" fill="#ededee"/>
        <path id="Path_44915" data-name="Path 44915" d="M84.2,83.7a1,1,0,1,0,.9-1.1,1.018,1.018,0,0,0-.9,1.1Z" fill="#ededee"/>
        <path id="Path_44916" data-name="Path 44916" d="M84.7,83.5a.569.569,0,1,0,.267-.345.57.57,0,0,0-.267.345Z" fill="#3d3d3c"/>
        <path id="Path_44917" data-name="Path 44917" d="M106.8,52.6l-1.7-.5c.2-1.1.4-2.3.5-3.4a1.483,1.483,0,0,0-.1-.7h0l-1.1-4.5.4-.1-1.3-4.3-.6-1.9h0a3.371,3.371,0,0,0-1.7-.5,8.845,8.845,0,0,0-2.3,0,12,12,0,0,0-2,.3c-.2,0-.3.1-.5.1a19.479,19.479,0,0,0,.2,2.5c.2,1.8.6,3.6.9,5.4a26.793,26.793,0,0,1,.6,8,13.71,13.71,0,0,1-.8,3.5,13.016,13.016,0,0,1-.8,1.7c-.2.4-.5.7-.7,1.1-.3.3-.6.7-.9,1a.1.1,0,0,1,.1.1c1.7,1.2,1.1,2.4.7,3.7,0,.1-.1.2-.1.3a3.3,3.3,0,0,0,0,2.4,8.719,8.719,0,0,0,.9,1.7,2.407,2.407,0,0,0-.6.8,3.553,3.553,0,0,0-.2,1A17.152,17.152,0,0,1,93.5,78a13.432,13.432,0,0,1-2.2,3.1c-.2.3-.5.5-.7.8A11.986,11.986,0,0,1,89.4,83c-.2.1-.3.3-.5.4a7.1,7.1,0,0,1-1.4,1,4.507,4.507,0,0,1,.3,1.1c0,.1.1.2.1.3.1.4.1.8.2,1.2h0a17.654,17.654,0,0,1,0,2.3v.1c0,.3-.1.5-.1.8a28.369,28.369,0,0,1-.6,3.1,1.421,1.421,0,0,1-.2.6c-.2.8-.4,1.6-.6,2.3q-.9,3.45-2.1,6.9a6.061,6.061,0,0,1-1.7,2.9c-.3.3-.7.5-1,.8l-.2.2a1.072,1.072,0,0,0-.2.6c0,.2.1.4,0,.6-.1.3-.4.4-.6.5a11.748,11.748,0,0,1-4.1,1h-.3a9.928,9.928,0,0,0-3,.5h-.1a10.54,10.54,0,0,0-1.1.7l.9.3a11.8,11.8,0,0,0,2,.4l5.3.4h.2l2.2.3h1l1-.1c.1,0,.1,0,.2-.1,0-.1.1-.1.1-.2l-.2-1.1v-.6a10.417,10.417,0,0,0,0-2.5h.6a86.612,86.612,0,0,1,2.1-11.2c.2-.9.5-1.5.7-2.3,0-.1.1-.2.1-.3l.8,8.6c.2-1.7.5-3.4.7-5a37.1,37.1,0,0,1,2.4-9.4A15.715,15.715,0,0,1,94.1,85c.2-.2.3-.4.5-.6l.2-.2c.4-2,.7-4,.9-5.9l.3-2.7a19.373,19.373,0,0,0,1.6-5.3c.1-.1.2-.1.3-.2h0l.2-.2.2-.2h0a5.826,5.826,0,0,0,1.1-1.5c.1.1.2.2.3.2l.2.1a.6.6,0,0,0,.4-.1l.3-.3c0,.2.2.3.4.4h.2c.3,0,.5-.1.5-.3v-.1h.1v1.8a3.915,3.915,0,0,1,.8-1,4.349,4.349,0,0,0,.6-.7h0V68c.1,0,.1-.1.2-.2h0V66.1a3.529,3.529,0,0,1,.3-1.4l.2-.6.1-.3a.367.367,0,0,0-.1-.3l1.6-5.5.9-3h.1l.3-1,.2-.7C107.1,52.8,107,52.6,106.8,52.6ZM102.5,63h0a1.38,1.38,0,0,1-.4-.3,55.729,55.729,0,0,0,2.5-8.3l.4.1-.9,2.9Z" fill="#1d1d1b" opacity="0.15"/>
        <path id="Path_44918" data-name="Path 44918" d="M104.4,49.5a6.261,6.261,0,0,1-1.4.4,2.2,2.2,0,0,1-1.8-.2,1.344,1.344,0,0,1-.7-.6,5.387,5.387,0,0,1-.7-1.3L99,44.9l-2.2-8.2h0a2.879,2.879,0,0,1,2-3.5h.1a2.459,2.459,0,0,1,1.7.1,3.882,3.882,0,0,1,.9.8,2.4,2.4,0,0,1,.7,1.2l.6,1.3.1.3.7,2.8.9,3.5,1.1,4.5h0C105.8,48.7,105.1,49.2,104.4,49.5Z" fill="#fecf9f"/>
        <path id="Path_44919" data-name="Path 44919" d="M105.6,48.7c-.1,1.1-.3,2.3-.5,3.4l-.3,1.8c0,.2-.1.4-.1.6a70.762,70.762,0,0,1-2.5,8.3c0,.1-.1.2-.1.3l-1-.3h0l-.5-.1-.3-.1L98.9,62h0l.3-1.5v-.1c0-.3.1-.6.1-.9a.9.9,0,0,1,.1-.5h0v-.3c.2-1.9.3-3.9.5-5.8a5.853,5.853,0,0,1,.2-1.3c0-.3.1-.6.1-.9.1-.3.1-.6.2-.9,0-.2.1-.4.1-.6a3.839,3.839,0,0,1,.9-1.8,2.1,2.1,0,0,1,1.4-.7,3.812,3.812,0,0,1,1.5.1,2.07,2.07,0,0,1,1.3,1.1h0Z" fill="#fecf9f"/>
        <path id="Path_44920" data-name="Path 44920" d="M104.8,43.3l-.4.1-1.6.4-1.5.4-2.3.7-.9.3-1.6-5.8-.7-2.5a3.212,3.212,0,0,1,2.3-4h.1a3.788,3.788,0,0,1,1.5,0h0a3.865,3.865,0,0,1,1.9,1.2h0a2.092,2.092,0,0,1,.4.6h0c.1.2.1.3.2.5l.5,1.5.1.4.6,1.9,1.4,4.3Z" fill="#b94f41"/>
        <path id="Path_44921" data-name="Path 44921" d="M100.9,61.1l-.4,1.3a2.129,2.129,0,0,1-2.2,1.9l-.3.5v.3l.3.6a.854.854,0,0,1,0,.7.821.821,0,0,1-.5.5V67a.481.481,0,0,1-.6-.2l-.3-.7-.5-1c-.1-.1.1-.5.2-.6h0a14.165,14.165,0,0,1,.8-1.8,1.785,1.785,0,0,1,1.2-.9l.3-.1,1.1-5.4,2,.5Z" fill="#e0b68c"/>
        <g id="Group_6685" data-name="Group 6685">
          <g id="Group_6684" data-name="Group 6684">
            <path id="Path_44922" data-name="Path 44922" d="M106.6,54.1l-.3.8h0l-.9,3-1.6,5.5-.2.5-.5,1.7v.3l.1,1.5v1.4l.7,42v1.3h-1.3v-1.6l-.7-39.8-.1-.9V65.3l.5-1.8.2-.4V63l1.6-5.6.9-2.9.2-.6.1-.2.5.1Z" fill="#9c4337"/>
            <path id="Path_44923" data-name="Path 44923" d="M102,112l.2-.8c0-.2.2-.3.4-.3h1.3c.2,0,.4.1.4.3l.2.8Z" fill="#3d3d3c"/>
            <rect id="Rectangle_3904" data-name="Rectangle 3904" width="2.4" height="2.2" transform="matrix(1, -0.022, 0.022, 1, 102.081, 112.031)" fill="#272626"/>
            <path id="Path_44924" data-name="Path 44924" d="M103.3,67.7h0c0,.2-.1.2-.2.2h-1.5l-.1-.1v-.5h1.7Z" fill="#fff"/>
            <path id="Path_44925" data-name="Path 44925" d="M103.9,63.7l-.1.3-.2-.1-1-.4-.2-.1-.2-.1.1-.2c0-.1.1-.1.1-.2h.2l1.2.4h0A.756.756,0,0,1,103.9,63.7Z" fill="#fff"/>
            <path id="Path_44926" data-name="Path 44926" d="M103.8,64l-.2.6c-.1.4-.2.9-.3,1.4v1.5h-1.7v-.7a.6.6,0,0,0-.1-.4.822.822,0,0,0-.6-.4h-.1a1.7,1.7,0,0,1-.7-.1h-.4a5.853,5.853,0,0,1-1.3-.2h-.1c-.4-.1-.9-.1-1.2-.2H97a.367.367,0,0,1-.3-.1h-.1c-.1,0-.2,0-.2.1-.1.1-.1.1-.2.1s-.2-.1-.2-.3V64h0c0-.1.2-.2.3-.2a.349.349,0,0,1,.2.1c.1.1.1.2.3.2h.5a11.136,11.136,0,0,1,1.7.2h0c.5.1.9.1,1.3.2.3,0,.6.1.8.1a.952.952,0,0,0,.7-.2.52.52,0,0,0,.2-.4l.2-.6.2.1.2.1,1,.4Z" fill="#3d3d3c"/>
            <g id="Group_6683" data-name="Group 6683">
              <path id="Path_44927" data-name="Path 44927" d="M107.1,53l-.2.7-.3,1h-.3l-1.1-.3-.4-.1L104,54l-2.9-.9h0l-.6-.2c-.2,0-.3-.1-.4-.3a.959.959,0,0,1-.2-.9l.2-.6.1-.5a.215.215,0,0,1,.2-.2h.2l.7.2,3.1.9.9.3,1.7.5C107,52.6,107.1,52.8,107.1,53Z" fill="#3d3d3c"/>
              <path id="Path_44928" data-name="Path 44928" d="M106.1,54.5a.224.224,0,1,1,.3-.1.367.367,0,0,1-.3.1Z" fill="#fff"/>
              <path id="Path_44929" data-name="Path 44929" d="M106.4,53.3a.224.224,0,1,1,.3-.1,1.007,1.007,0,0,1-.3.1Z" fill="#fff"/>
            </g>
          </g>
          <path id="Path_44930" data-name="Path 44930" d="M106.8,53.7l-.3,1h-.1l-.9,3-1.3-.5.9-2.9-.4-.1-.8-.3L101,53h0l-.6-.2c-.2,0-.3-.1-.4-.3a.959.959,0,0,1-.2-.9l.2-.6.2.2a6.469,6.469,0,0,0,.9.8,6.86,6.86,0,0,0,2.9,1.3,2.769,2.769,0,0,0,.9.1h1a.687.687,0,0,0,.9.3Z" fill="#010101" opacity="0.1"/>
          <path id="Path_44931" data-name="Path 44931" d="M102.2,111.2l-.2.8v2.2l2.4-.1v-2.2l-.2-.8c0-.2-.2-.3-.4-.3l-.1-3.3a13.59,13.59,0,0,1-1.3,3v.3C102.4,110.9,102.2,111,102.2,111.2Z" fill="#010101" opacity="0.1"/>
          <path id="Path_44932" data-name="Path 44932" d="M103.3,67.4v.2h0c0,.1-.1.1-.2.2v.9h-1.4v-.8h-.1l-.1-.1V66.6a.6.6,0,0,0-.1-.4.822.822,0,0,0-.6-.4h-.1a1.7,1.7,0,0,1-.7-.1h-.4a5.853,5.853,0,0,1-1.3-.2h-.1c-.4-.1-.9-.1-1.2-.2h-.1a.367.367,0,0,1-.3-.1h-.1c-.1,0-.2,0-.2.1-.1.1-.1.1-.2.1s-.2-.1-.2-.3L96,64h0c0-.1.2-.2.3-.2a.349.349,0,0,1,.2.1c.1.1.1.2.3.2h.3l.1.1h.1a5.582,5.582,0,0,0,.8.5,10.33,10.33,0,0,0,2.1.7,9,9,0,0,0,1.6.3h0a.6.6,0,0,1,.4.1c.3,0,.6.1.9.1h.2v1.5Z" fill="#010101" opacity="0.1"/>
        </g>
        <path id="Path_44933" data-name="Path 44933" d="M102.6,63.6a3.751,3.751,0,0,1-.1,1l-.3,1.3-.4,1.5h-.2a9.718,9.718,0,0,1-3.7-.5,3.091,3.091,0,0,0-.8-.2c-.2,0-.3-.1-.5-.2a1.213,1.213,0,0,0,.1-.5,4.331,4.331,0,0,0,.1-.5c.1-.4.2-.9.3-1.3v-.1a3.067,3.067,0,0,0,.1-1.3,1.765,1.765,0,0,1,.9-.8h0c.1,0,.2-.1.3-.1h.1a.781.781,0,0,0,.4-.4l.2-.9v-.1l.3-1.7h0l.4-2.3.3.1,2.9.5h.3l-1.4,5.7.1.1.3.3h0v.1C102.5,63.2,102.6,63.4,102.6,63.6Z" fill="#fecf9f"/>
        <path id="Path_44934" data-name="Path 44934" d="M98.3,66a.618.618,0,0,0-.5-.8h-.1a.618.618,0,0,0-.8.5L96.5,67a.68.68,0,0,0,.4.8l.2.1a.6.6,0,0,0,.4-.1l.3-.3Z" fill="#e8bc90"/>
        <path id="Path_44935" data-name="Path 44935" d="M99.7,66.3a.749.749,0,0,0-.1-.5c-.1-.2-.2-.3-.4-.3h-.1a.68.68,0,0,0-.8.4l-.5,1.6a.9.9,0,0,0,.1.5,1.381,1.381,0,0,0,.4.3l.2.1a.569.569,0,0,0,.7-.4Z" fill="#e8bc90"/>
        <path id="Path_44936" data-name="Path 44936" d="M101,66.5v.2l-.2.7-.2.6h0a.319.319,0,0,1-.3.3.6.6,0,0,1-.4.1l-.2-.1c-.1,0-.3-.1-.3-.2a.349.349,0,0,1-.1-.2v-.4l.1-.4.2-.9c0-.1.1-.2.1-.3l.1-.1h.1c.1,0,.1-.1.2-.1h.4c.1,0,.2.1.3.2h0C100.9,66.2,101,66.3,101,66.5Z" fill="#e8bc90"/>
        <path id="Path_44937" data-name="Path 44937" d="M101.9,67h0l-.1.5v.2h0l-.1.3v.1a.382.382,0,0,1-.5.3H101a.43.43,0,0,1-.4-.4h0v-.2l.1-.4.1-.6c0-.1.1-.2.2-.3a.6.6,0,0,1,.4-.1h.1c.1,0,.2.1.3.2S101.9,66.8,101.9,67Z" fill="#e8bc90"/>
        <path id="Path_44938" data-name="Path 44938" d="M89.6,28.6V29a10.073,10.073,0,0,1-.3,2.5c-.1.2-.1.4-.2.6a3.14,3.14,0,0,1-1.5,1.7,1.33,1.33,0,0,1-.8.3h0a1.421,1.421,0,0,1-.2-.6l-.1-.5-.1-.3-.8.3a1.926,1.926,0,0,1-1.9-.3,4.758,4.758,0,0,0,2.6-.4,2.01,2.01,0,0,0,.8-.4,5.586,5.586,0,0,0,2.5-3.3Z" fill="#1d1d1b" opacity="0.15"/>
        <path id="Path_44939" data-name="Path 44939" d="M90.5,60.4c-.6-.2-2.8,2.4-3.2,7.2a7.519,7.519,0,0,0,0,1.5.1.1,0,0,0-.1-.1l-.8-9.4h0a8.808,8.808,0,0,1-1.1-3.2c-.7,1.6-1.5,3-2.3,4.5a.367.367,0,0,1,.1-.3c.1-.5.2-1.1.3-1.6a42.485,42.485,0,0,0,.6-8V48.8a16.2,16.2,0,0,0-.1-2.2V43.4c0,.2.1.4.1.8.1.6.2,1.4.3,2.3.2,1.4.5,3,.9,4.7.3,1.1.6,2.3,1,3.4a12.784,12.784,0,0,0,2.4,4.5c.1.1.2.3.4.4a5.428,5.428,0,0,0,1.5.9Z" fill="#1d1d1b" opacity="0.15"/>
        <path id="Path_44940" data-name="Path 44940" d="M102.5,63h0a1.38,1.38,0,0,1-.4-.3,55.729,55.729,0,0,0,2.5-8.3l.4.1-.9,2.9Zm4.3-10.4-1.7-.5c.2-1.1.4-2.3.5-3.4a1.483,1.483,0,0,0-.1-.7h0l-1.1-4.5.4-.1h0l-1.3-4.3-.6-1.9-.1-.4-.5-1.5a.764.764,0,0,0-.2-.5h0c0,.3.9,3.4,1.2,5.1a8.14,8.14,0,0,1-.4,4.1h0a2.845,2.845,0,0,1,1.2,2.1c.1.3.1.6.2.8a12.213,12.213,0,0,1,.1,2.7,17.852,17.852,0,0,1-.2,2.3c-.1.6-.2,1.3-.3,1.9,0,.2-.1.3-.1.5-.2.9-.4,1.9-.6,2.8,0,.1,0,.2-.1.2-.5,1.9-.9,3.9-2.2,5.5h0a1.88,1.88,0,0,1,.8,1.7V71a.1.1,0,0,1,.1-.1,11.782,11.782,0,0,1,1.1-1.9c.1-.1.1-.2.2-.3h0v-.5c.1,0,.1-.1.2-.2h0V66.3a3.529,3.529,0,0,1,.3-1.4l.2-.6.1-.3a.367.367,0,0,0-.1-.3l1.6-5.5.9-3h.1l.3-1,.2-.7C107.1,52.8,107,52.6,106.8,52.6Z" fill="#1d1d1b" opacity="0.15"/>
      </g>
      <g id="Group_6691" data-name="Group 6691" clip-path="url(#clip-path)">
        <path id="Path_44941" data-name="Path 44941" d="M29.8,74.4a24.681,24.681,0,0,1-5.1-6.8c-.3-.6-.7-1.2-1-1.8a1.844,1.844,0,0,1,.1-1.9,34.66,34.66,0,0,1,9.8-10l-.1,5.5v.2Z" fill="#ededee"/>
        <path id="Path_44942" data-name="Path 44942" d="M29.8,74.4a24.681,24.681,0,0,1-5.1-6.8l3-.3,3.9-8.6,1.9.9Z" fill="#151515" opacity="0.15"/>
        <path id="Path_44943" data-name="Path 44943" d="M50.5,116.2v1.4H40.9a12.322,12.322,0,0,1,.7-5h0v-.1c1.6-.9,3.7-.7,6.3.5l1.2.8.3.2a2.951,2.951,0,0,1,1.1,2.2Z" fill="#3d3d3c"/>
        <path id="Path_44944" data-name="Path 44944" d="M50.5,89.7c0,.3-.1.7-.1,1V91h0c-.3,2.6-.5,5.5-.8,8.5a107.018,107.018,0,0,1-1.2,11.2,14.19,14.19,0,0,1-.5,2.2c-2.2.4-4-1.5-6.3-.5A62.239,62.239,0,0,1,41,99.1a34.157,34.157,0,0,1,1.1-7.3l.3-.9a10.376,10.376,0,0,1,.4-1,5.547,5.547,0,0,1,.6-.8c2.2-2.4,3.3-1.5,6.2,0A7.014,7.014,0,0,0,50.5,89.7Z" fill="#27647d"/>
        <path id="Path_44945" data-name="Path 44945" d="M68.8,117.1v.5H55a7.748,7.748,0,0,1,0-4l.7-.1-.7.1a6.523,6.523,0,0,1,3.1-1.8,9.4,9.4,0,0,1,3.4-.3c.8,1.3,4.1,2.4,5.6,3.1a2.725,2.725,0,0,1,1.7,2.5Z" fill="#3d3d3c"/>
        <path id="Path_44946" data-name="Path 44946" d="M58.5,84.3,57,91.1H42.3c-6.7-.1-13-.1-13-.1a5.512,5.512,0,0,1-1.2-2.3,14.191,14.191,0,0,1-.5-2.2,11.342,11.342,0,0,1,.4-4.8c.1-.4,6.9-.4,11.4-.4h6.8a36.143,36.143,0,0,1,8,1.3A11.9,11.9,0,0,1,58.5,84.3Z" fill="#27647d"/>
        <path id="Path_44947" data-name="Path 44947" d="M61.6,111.5c-1,.4-1.9.8-2.9,1.1a15.752,15.752,0,0,1-3.6.9h0c-.1-.2-.1-.3-.2-.5A56.721,56.721,0,0,1,52,99.5a39.431,39.431,0,0,1-.3-8.2h0V91h0a4.97,4.97,0,0,1,.7-2.5h0A9.733,9.733,0,0,1,53.5,87a13.107,13.107,0,0,1,5.1-2.8h0c.1.4,1.1,7.1,1.9,14.1C61.1,103.5,61.6,108.7,61.6,111.5Z" fill="#27647d"/>
        <path id="Path_44948" data-name="Path 44948" d="M61.1,98a4.348,4.348,0,0,1-.7.4c-1.5.7-4.3,1-7.3,1.1H49.5c-3.4,0-6.6-.2-8.5-.4-1.1-.1-1.7-.2-1.7-.2.3-3.2-.7-4.7-2.1-5.5C34.8,92.2,31,93,29,91.6c-.3-.1-.7-1.3-1.1-3h0c-.2-.7-.3-1.4-.5-2.2h0c-1-4.6-1.7-10.8-.6-12.4a9.5,9.5,0,0,0,1-1.7c2-3.9,3.1-9.3,4.1-13.5a18,18,0,0,1,1.7-5,55.819,55.819,0,0,1,6.8-.6l1.3-1.8a10.487,10.487,0,0,1,5.7,2.7,1.421,1.421,0,0,1,.2,1.5c2.9,1.8,3.9,2.6,5.1,4.4-.4.8-1.8,4.2-3.5,8.1h0c-.3.6-.5,1.2-.8,1.9-.7,1.6-1.5,3.3-2.2,4.9-.3.7-.6,1.3-.9,1.9a11.111,11.111,0,0,0-.7,1.6c-.1.1-.1.3-.2.4L43.8,80a9.249,9.249,0,0,0-.5,1h0c0,.1-.1.2-.1.3h3a36.144,36.144,0,0,1,8,1.3c.7.2,1.3.4,1.9.6.2.1.4.1.6.2s.5.2.7.3.3.1.5.2.3.2.5.2a2.186,2.186,0,0,1,.5.3h0C58.6,84.7,60.8,92.8,61.1,98Z" fill="#ededee"/>
        <path id="Path_44949" data-name="Path 44949" d="M66.3,75.4a23.568,23.568,0,0,1-.7,4.8c-4.7,0-8.1-1.7-12.5-2.1a5.716,5.716,0,0,1-.8-.7l-.8-.8A19.446,19.446,0,0,1,48.2,70a26.623,26.623,0,0,1-.8-3.3,4.332,4.332,0,0,0-.1-.5l.4-.4h0l.7-.9L52.5,60a46.154,46.154,0,0,1,2.4,10.6Z" fill="#ededee"/>
        <path id="Path_44950" data-name="Path 44950" d="M53.9,82.4a14.969,14.969,0,0,1,4.6,1.9c-13.2-2.7-16.6.7-19.3-1.8,0,0,.3-.5.8-1.3,1.8-2.9,6.1-10.2,7.4-14.5.1-.3.2-.6.3-1h0a15.984,15.984,0,0,0,.5-2.1,5.019,5.019,0,0,1,.2,1.2c.2,1.2.4,2.3.6,3.2h0c.8,3.5,1.7,5.8,4.3,8.4l12.2,3.7c-4.7,0-8.1-1.7-12.5-2.1a5.716,5.716,0,0,1-.8-.7l-.8-.8a19.446,19.446,0,0,1-3.3-6.6c-.7,1.6-1.5,3.3-2.2,4.9-.6,1.2-1.1,2.4-1.6,3.5-.3.6-.5,1.1-.8,1.6a9.249,9.249,0,0,0-.5,1h0c0,.1-.1.2-.1.3h3a35.536,35.536,0,0,1,8,1.2Z" fill="#151515" opacity="0.15"/>
        <path id="Path_44951" data-name="Path 44951" d="M58.7,112.6a4.053,4.053,0,0,1-.5-.9,41.677,41.677,0,0,1-5-12.3c-.4-1.5-.7-3.2-1.1-5.1l-.4-3-.4-1.8s-20.4,1.5-23.5-8c-1.1,3.6-.1,7.6,1.4,9.3,0,0,6.4.1,13,.1h5.2a37.935,37.935,0,0,0-5.4.9,25.619,25.619,0,0,0-4.9,1.6c1.4.8,2.4,2.3,2.1,5.5,0,0,.6.1,1.7.2a61.566,61.566,0,0,0,.6,13.3v.1a28.721,28.721,0,0,0,7.5,1.2l-1.2-.8c.2-.7.3-1.5.5-2.2a107.021,107.021,0,0,0,1.2-11.2h2.4A56.721,56.721,0,0,0,54.8,113c.1.2.1.4.2.5h0a16.71,16.71,0,0,0,3.7-.9Z" fill="#151515" opacity="0.15"/>
        <g id="Group_6690" data-name="Group 6690">
          <g id="Group_6687" data-name="Group 6687">
            <rect id="Rectangle_3905" data-name="Rectangle 3905" width="0.9" height="2.5" transform="translate(25.3 112.1)" fill="#585856"/>
            <path id="Path_44952" data-name="Path 44952" d="M28.2,115.8a1.774,1.774,0,0,1-1.7,1.8,1.71,1.71,0,0,1-1.7-1.8,1.774,1.774,0,0,1,1.7-1.8,1.654,1.654,0,0,1,1.7,1.8Z" fill="#20201e"/>
          </g>
          <g id="Group_6688" data-name="Group 6688">
            <rect id="Rectangle_3906" data-name="Rectangle 3906" width="0.9" height="2.5" transform="translate(37.6 112.1)" fill="#585856"/>
            <path id="Path_44953" data-name="Path 44953" d="M40.6,115.8a1.774,1.774,0,0,1-1.7,1.8,1.71,1.71,0,0,1-1.7-1.8,1.774,1.774,0,0,1,1.7-1.8,1.654,1.654,0,0,1,1.7,1.8Z" fill="#20201e"/>
          </g>
          <g id="Group_6689" data-name="Group 6689">
            <rect id="Rectangle_3907" data-name="Rectangle 3907" width="0.9" height="2.5" transform="translate(50.2 112.1)" fill="#585856"/>
            <path id="Path_44954" data-name="Path 44954" d="M48.2,115.8a1.774,1.774,0,0,0,1.7,1.8,1.71,1.71,0,0,0,1.7-1.8,1.774,1.774,0,0,0-1.7-1.8,1.654,1.654,0,0,0-1.7,1.8Z" fill="#20201e"/>
          </g>
          <rect id="Rectangle_3908" data-name="Rectangle 3908" width="3.1" height="8.5" transform="translate(36.7 95.3)" fill="#9c9c9b"/>
          <rect id="Rectangle_3909" data-name="Rectangle 3909" width="4.6" height="8.5" transform="translate(35.9 102.3)" fill="#717070"/>
          <path id="Path_44955" data-name="Path 44955" d="M24.6,113H51.8v-1.7l-13.6-1.7-13.6,1.7Z" fill="#3d3d3c"/>
          <path id="Path_44956" data-name="Path 44956" d="M28.2,90.5H49.5a1.367,1.367,0,0,1,1.4,1.4v3a1.367,1.367,0,0,1-1.4,1.4H28.2a1.367,1.367,0,0,1-1.4-1.4v-3a1.367,1.367,0,0,1,1.4-1.4Z" fill="#9c4337"/>
          <path id="Path_44957" data-name="Path 44957" d="M38.9,83.4H24.3a2.63,2.63,0,0,1-2.6-2.8l1.6-18.2A2.61,2.61,0,0,1,25.9,60H37.6a2.616,2.616,0,0,1,2.6,2.4l1.3,18.2a2.63,2.63,0,0,1-2.6,2.8Z" fill="#b94f41"/>
          <path id="Path_44958" data-name="Path 44958" d="M36.3,83.4H21.7a2.63,2.63,0,0,1-2.6-2.8l1.6-18.2A2.61,2.61,0,0,1,23.3,60H35a2.616,2.616,0,0,1,2.6,2.4L39,80.6a2.651,2.651,0,0,1-2.7,2.8Z" fill="#9c4337"/>
          <path id="Path_44959" data-name="Path 44959" d="M37.5,98.7a9.525,9.525,0,0,1-7.4-3.5c-2.9-3.4-4.1-8.7-3.2-13.9a1.275,1.275,0,1,1,2.5.5c-.8,4.4.2,9,2.6,11.8a7.262,7.262,0,0,0,5.6,2.6,1.251,1.251,0,1,1,.1,2.5Z" fill="#3d3d3c"/>
        </g>
      </g>
    </g>
  </g>
</svg>
