<svg xmlns="http://www.w3.org/2000/svg" xmlns:xlink="http://www.w3.org/1999/xlink" width="117.201" height="117.201" viewBox="0 0 117.201 117.201">
  <defs>
    <linearGradient id="linear-gradient" y1="0.5" x2="1" y2="0.5" gradientUnits="objectBoundingBox">
      <stop offset="0" stop-color="#ebebeb"/>
      <stop offset="1" stop-color="#fff"/>
    </linearGradient>
    <clipPath id="clip-path">
      <circle id="Ellipse_1644" data-name="Ellipse 1644" cx="58.6" cy="58.6" r="58.6" transform="translate(-62.9 -40.8)"/>
    </clipPath>
    <clipPath id="clip-path-2">
      <circle id="Ellipse_1646" data-name="Ellipse 1646" cx="58.6" cy="58.6" r="58.6" transform="translate(-67.1 -44.9)"/>
    </clipPath>
    <clipPath id="clip-path-3">
      <circle id="Ellipse_1647" data-name="Ellipse 1647" cx="58.6" cy="58.6" r="58.6" transform="translate(8.2 8.8)"/>
    </clipPath>
  </defs>
  <g id="sexologist" transform="translate(-8.2 -8.799)">
    <circle id="Ellipse_1640" data-name="Ellipse 1640" cx="58.6" cy="58.6" r="58.6" transform="translate(8.2 8.8)" fill="url(#linear-gradient)"/>
    <g id="Group_6724" data-name="Group 6724">
      <g id="Group_6698" data-name="Group 6698" transform="translate(71.1 49.6)" clip-path="url(#clip-path)">
        <circle id="Ellipse_1643" data-name="Ellipse 1643" cx="15.9" cy="15.9" r="15.9" transform="translate(0 0)" fill="#7cd3f7"/>
      </g>
      <g id="Group_6699" data-name="Group 6699" transform="translate(75.3 53.7)" clip-path="url(#clip-path-2)">
        <circle id="Ellipse_1645" data-name="Ellipse 1645" cx="12" cy="12" r="12" fill="#fff"/>
      </g>
      <g id="Group_6700" data-name="Group 6700" clip-path="url(#clip-path-3)">
        <path id="Path_44965" data-name="Path 44965" d="M98.3,57.3l8.8-8.7V56a2.2,2.2,0,0,0,2.3,1.3s1.8-.1,1.9-1.4c.2-1.3,0-12,0-12a2.62,2.62,0,0,0-2.8-2.9c-2.9.1-12.1,0-12.1,0a1.929,1.929,0,0,0-1.9,2.1c.1,2.1,1.8,1.9,1.8,1.9l7.2.1-9,8.7Z" fill="#7cd3f7"/>
      </g>
      <g id="Group_6701" data-name="Group 6701" clip-path="url(#clip-path-3)">
        <path id="Path_44966" data-name="Path 44966" d="M87.7,99.1H86.3a1.752,1.752,0,0,1-1.7-1.7v-16a1.752,1.752,0,0,1,1.7-1.7h1.4a1.752,1.752,0,0,1,1.7,1.7v16a1.752,1.752,0,0,1-1.7,1.7Z" fill="#7cd3f7"/>
      </g>
      <g id="Group_6702" data-name="Group 6702" clip-path="url(#clip-path-3)">
        <path id="Path_44967" data-name="Path 44967" d="M94.3,92.5H79.6a1.685,1.685,0,0,1-1.7-1.7V89.4a1.685,1.685,0,0,1,1.7-1.7H94.2a1.685,1.685,0,0,1,1.7,1.7v1.4a1.666,1.666,0,0,1-1.6,1.7Z" fill="#7cd3f7"/>
      </g>
      <g id="doctor_9_" clip-path="url(#clip-path-3)">
        <path id="Path_44968" data-name="Path 44968" d="M44.2,46.4h9l.6,4H43.6Z" fill="#e6e7e7"/>
        <g id="Group_6703" data-name="Group 6703">
          <path id="Path_44969" data-name="Path 44969" d="M53.6,47.6l-1.2-.5V43.3H45v3.8l-1.2.5.3,10.6H45v1.7h7.4V58.2h.9Z" fill="#f7cdba"/>
          <path id="Path_44970" data-name="Path 44970" d="M45,43.3v2.2l7.4,1.3V43.3Z" fill="#f5ccb9"/>
        </g>
        <g id="Group_6717" data-name="Group 6717">
          <g id="Group_6705" data-name="Group 6705">
            <path id="Path_44971" data-name="Path 44971" d="M50.1,85.3h-13l.8,63.5h8.2l1.5-54.4h2.2l1.5,54.4h8.2l.8-63.5Z" fill="#383744"/>
            <g id="Group_6704" data-name="Group 6704">
              <path id="Path_44972" data-name="Path 44972" d="M60.2,87.7H37.1V85.3H60.3Z" fill="#221f1f"/>
              <path id="Path_44973" data-name="Path 44973" d="M49.7,88.4h-2A1.367,1.367,0,0,1,46.3,87V86a1.367,1.367,0,0,1,1.4-1.4h2A1.367,1.367,0,0,1,51.1,86v1a1.367,1.367,0,0,1-1.4,1.4Zm-2-3.1a.684.684,0,0,0-.7.7v1a.684.684,0,0,0,.7.7h2a.684.684,0,0,0,.7-.7V86a.684.684,0,0,0-.7-.7Z" fill="#44414e"/>
            </g>
          </g>
          <g id="Group_6706" data-name="Group 6706">
            <path id="Path_44974" data-name="Path 44974" d="M53.7,47.6l-.3,1.1c-.5,1.4-1.7,3.7-4.6,3.7-3.3,0-4.6-2.9-5-4.2l-.1-.6c-6.1,2.3-4.2,21.6-4.2,21.6v16H58.6l-.3-16C58.2,69.2,59.8,49.9,53.7,47.6Z" fill="#a5d8ed"/>
            <path id="Path_44975" data-name="Path 44975" d="M50.5,51.8l-.7,1.4H47.6l-.7-1.4,1.8-1.4Z" fill="#383744"/>
            <path id="Path_44976" data-name="Path 44976" d="M48.7,50.4l-2.3,2.5-3.9-4.8L45,46.9l.9.9Z" fill="#86cbe6"/>
            <path id="Path_44977" data-name="Path 44977" d="M52.5,46.8l-3.8,3.6L51,52.8l3.9-4.7Z" fill="#86cbe6"/>
            <path id="Path_44978" data-name="Path 44978" d="M49.8,53.6l.9,29-2,2.2-2-2.2.9-29Z" fill="#383744"/>
          </g>
          <path id="Path_44979" data-name="Path 44979" d="M43.7,67.9v40.8H34c.2-3.8.8-20.3,1.3-32.1,0-1,.1-1.9.1-2.8.2-5.6.3-9.6.3-9.6s-4.8-5.3-3.8-11c.6-3.5,5.7-3.5,11.8-5.9Z" fill="#fff"/>
          <path id="Path_44980" data-name="Path 44980" d="M53.7,67.9V47.3c6.1,2.3,11.2,2.3,11.8,5.9,1,5.7-3.8,11.1-3.8,11,0,0,1.3,38.3,1.7,44.5H53.7Z" fill="#fff"/>
          <g id="Group_6708" data-name="Group 6708">
            <g id="Group_6707" data-name="Group 6707">
              <path id="Path_44981" data-name="Path 44981" d="M55.5,90.3l2.8-6.1,4.2,2-2.8,6.1a2.415,2.415,0,0,1-3.1,1.2,2.554,2.554,0,0,1-1.1-3.2Z" fill="#f7cdba"/>
              <path id="Path_44982" data-name="Path 44982" d="M54.9,88.6a5.924,5.924,0,0,1,3.1-3,.779.779,0,0,1,.9.6.887.887,0,0,1-.6,1,.31.31,0,0,0-.2.1c-.1.1-.3.2-.5.4a5.154,5.154,0,0,0-1.2,1.6.758.758,0,0,1-1,.4.749.749,0,0,1-.5-1.1Z" fill="#f7cdba"/>
            </g>
            <path id="Path_44983" data-name="Path 44983" d="M62.1,76.6l-4.5,9.6-1.1-.5L62,73.8C62,74.7,62.1,75.6,62.1,76.6Z" fill="#e6e7e7"/>
            <path id="Path_44984" data-name="Path 44984" d="M62.1,88.3,57,85.9l6.2-13.4L58.6,55.4l6.8-2.3L69,72.4a3.21,3.21,0,0,1-.2,1.7Z" fill="#fff"/>
          </g>
          <g id="Group_6710" data-name="Group 6710">
            <g id="Group_6709" data-name="Group 6709">
              <path id="Path_44985" data-name="Path 44985" d="M41.8,90.3,39,84.2l-4.2,2,2.8,6.1a2.415,2.415,0,0,0,3.1,1.2,2.367,2.367,0,0,0,1.1-3.2Z" fill="#f7cdba"/>
              <path id="Path_44986" data-name="Path 44986" d="M42.5,88.6a5.924,5.924,0,0,0-3.1-3,.779.779,0,0,0-.9.6.887.887,0,0,0,.6,1,.31.31,0,0,1,.2.1c.1.1.3.2.5.4A5.154,5.154,0,0,1,41,89.3a.758.758,0,0,0,1,.4.749.749,0,0,0,.5-1.1Z" fill="#f7cdba"/>
            </g>
            <path id="Path_44987" data-name="Path 44987" d="M40.9,85.6l-1.1.5-4.5-9.6c0-1,.1-1.9.1-2.8Z" fill="#e6e7e7"/>
            <path id="Path_44988" data-name="Path 44988" d="M35.2,88.3,28.6,74a2.464,2.464,0,0,1-.2-1.7L31.9,53l6.8,2.3L34.1,72.4l6.2,13.4Z" fill="#fff"/>
          </g>
          <g id="Group_6711" data-name="Group 6711">
            <path id="Path_44989" data-name="Path 44989" d="M43.2,94.5l-5.7,1.9-2.1-7.9,7-1.9Z" fill="#fff"/>
            <path id="Path_44990" data-name="Path 44990" d="M42.6,87.2l-7,1.9-.2-.6,7-1.9Z" fill="#e6e7e7"/>
          </g>
          <g id="Group_6713" data-name="Group 6713">
            <g id="Group_6712" data-name="Group 6712">
              <path id="Path_44991" data-name="Path 44991" d="M41,48.1l.1,3.6,1.8,1.5-1.4,1.9,2.2,12.8.4-21.5Z" fill="#e6e7e7"/>
            </g>
          </g>
          <g id="Group_6714" data-name="Group 6714">
            <path id="Path_44992" data-name="Path 44992" d="M54.2,94.5l5.7,1.9L62,88.5l-7-1.9Z" fill="#fff"/>
            <path id="Path_44993" data-name="Path 44993" d="M54.8,87.2l7,1.9.2-.6-7-1.9Z" fill="#e6e7e7"/>
          </g>
          <g id="Group_6716" data-name="Group 6716">
            <g id="Group_6715" data-name="Group 6715">
              <path id="Path_44994" data-name="Path 44994" d="M56.4,48.1l-.1,3.6-1.8,1.5,1.4,1.9L53.7,67.9l-.4-21.5Z" fill="#e6e7e7"/>
            </g>
          </g>
        </g>
        <g id="Group_6722" data-name="Group 6722">
          <path id="Path_44995" data-name="Path 44995" d="M55.9,53.8c0-.3-.3-6.6-3.5-8.2v.7c2.6,1.7,2.8,7.4,2.8,7.5v.3h.6Z" fill="#a8aaad"/>
          <path id="Path_44996" data-name="Path 44996" d="M45,46.3v-.7c-5.1,2.6-3,16.2-2.9,16.8l.1.3.6-.1-.1-.3C42.7,62.1,40.6,49.1,45,46.3Z" fill="#a8aaad"/>
          <g id="Group_6718" data-name="Group 6718">
            <path id="Path_44997" data-name="Path 44997" d="M57.7,63.7a7.494,7.494,0,0,1-1.6-.5,7.414,7.414,0,0,0,2.5-6.1c-.1-2.2-1.3-3.5-3.1-3.5s-3,1.4-3.1,3.5a8.071,8.071,0,0,0,2.5,6.1,3.022,3.022,0,0,1-1.6.5.3.3,0,1,0,0,.6h0a4.851,4.851,0,0,0,2.1-.8,4.851,4.851,0,0,0,2.1.8h0a.265.265,0,0,0,.3-.3C58,63.9,57.9,63.7,57.7,63.7ZM53.1,57c0-.9.4-2.9,2.5-2.9s2.4,2,2.5,2.9a6.8,6.8,0,0,1-2.5,5.7A6.8,6.8,0,0,1,53.1,57Z" fill="#a8aaad"/>
            <path id="Path_44998" data-name="Path 44998" d="M53,64.5h-.5c-.3,0-.4-.3-.4-.5,0-.3.3-.4.5-.4h.9a.453.453,0,1,1,.1.9Z" fill="#43414e"/>
            <path id="Path_44999" data-name="Path 44999" d="M58.2,64.5h-.5c-.3,0-.4-.3-.4-.5,0-.3.3-.4.5-.4h.9a.453.453,0,1,1,.1.9Z" fill="#43414e"/>
          </g>
          <g id="Group_6721" data-name="Group 6721">
            <g id="Group_6719" data-name="Group 6719">
              <circle id="Ellipse_1650" data-name="Ellipse 1650" cx="1.9" cy="1.9" r="1.9" transform="translate(40.5 60.5)" fill="#e6e7e7"/>
              <path id="Path_45000" data-name="Path 45000" d="M42.4,60.5a1.9,1.9,0,1,1-1.9,1.9,1.9,1.9,0,0,1,1.9-1.9m0-.6a2.476,2.476,0,1,0,1.775.725A2.5,2.5,0,0,0,42.4,59.9Z" fill="#a8aaad"/>
            </g>
            <g id="Group_6720" data-name="Group 6720">
              <path id="Path_45001" data-name="Path 45001" d="M43.7,62.4a1.415,1.415,0,0,1-1.3,1.4,1.4,1.4,0,1,1,1.3-1.4Z" fill="#a8aaad"/>
            </g>
          </g>
        </g>
        <g id="Group_6723" data-name="Group 6723">
          <path id="Path_45002" data-name="Path 45002" d="M56.8,32.6l.3-3.3c0-4.4-4.1-7.9-8.4-7.9s-8.4,3.5-8.4,7.9l.3,3.3a3.329,3.329,0,0,0-.6.3,1.656,1.656,0,0,0-.5,1.2v1.6A1.561,1.561,0,0,0,41,37.3c0,4.1,4.9,8,7.8,8s7.8-3.9,7.8-8a1.5,1.5,0,0,0,1.5-1.6V34.1a1.828,1.828,0,0,0-1.3-1.5Z" fill="#f7cdba"/>
          <path id="Path_45003" data-name="Path 45003" d="M56.8,32.6l.3-3.3c0-4.4-4.1-7.9-8.4-7.9h0V32.6a36.837,36.837,0,0,0-1.9,6h1.9v6.8h0c2.9,0,7.8-3.9,7.8-8A1.5,1.5,0,0,0,58,35.8V34.2a1.621,1.621,0,0,0-1.2-1.6Z" fill="#f7cdba"/>
          <path id="Path_45004" data-name="Path 45004" d="M57.4,32.6a20.035,20.035,0,0,1-1,2.6V32.1l-1.7-5.4a37.844,37.844,0,0,1-6,.7,37.844,37.844,0,0,1-6-.7l-1.8,5.4v3.1a27.728,27.728,0,0,1-1-2.6,20.514,20.514,0,0,1-.5-5.4,11.019,11.019,0,0,1,.2-1.8,8.78,8.78,0,0,1,.7-2.3S42.2,18,48.8,18h.4a8.712,8.712,0,0,1,4.2.9,4.577,4.577,0,0,0,3.6.2c.1,0,.1,0,.1.1a2.107,2.107,0,0,1-.4,1.1,7.084,7.084,0,0,0,1.4-.1h0a4.764,4.764,0,0,1-.9,2.9,15.457,15.457,0,0,1,.7,2.3,11.019,11.019,0,0,1,.2,1.8,21.083,21.083,0,0,1-.7,5.4Z" fill="#503d31"/>
        </g>
      </g>
    </g>
  </g>
</svg>
