<svg xmlns="http://www.w3.org/2000/svg" xmlns:xlink="http://www.w3.org/1999/xlink" viewBox="0 0 558 558"><defs><style>.cls-1,.cls-16,.cls-17,.cls-18{fill:none;}.cls-2{isolation:isolate;}.cls-3{fill:url(#linear-gradient);}.cls-4{clip-path:url(#clip-path);}.cls-5{clip-path:url(#clip-path-2);}.cls-6{fill:#b6bbd4;}.cls-7{fill:#858eba;opacity:0.54;}.cls-11,.cls-15,.cls-17,.cls-20,.cls-27,.cls-7,.cls-9{mix-blend-mode:multiply;}.cls-8,.cls-9{fill:#e9f0f4;}.cls-9{opacity:0.81;}.cls-10{fill:#23266b;}.cls-11{fill:#474546;}.cls-11,.cls-15,.cls-20,.cls-23,.cls-25,.cls-26,.cls-27{opacity:0.36;}.cls-12{fill:#619cd4;}.cls-13{fill:#f4b1a4;}.cls-14{fill:#ffc4b6;}.cls-15{fill:#d1a195;}.cls-16{stroke:#794c54;stroke-linecap:round;stroke-linejoin:round;stroke-width:0.41156px;}.cls-17{stroke:#619cd4;}.cls-17,.cls-18{stroke-miterlimit:10;stroke-width:0.61734px;}.cls-18{stroke:#23266b;}.cls-19{fill:#d5dbf0;}.cls-20{fill:#a7d8e8;}.cls-21{fill:#d63067;}.cls-22,.cls-23{fill:#ea4272;}.cls-24{fill:#71c5e2;}.cls-25,.cls-26,.cls-27{fill:#46b7e8;}.cls-26{mix-blend-mode:screen;}</style><linearGradient id="linear-gradient" x1="2.34781" y1="278.03407" x2="554.55816" y2="278.03407" gradientUnits="userSpaceOnUse"><stop offset="0" stop-color="#ebebeb"/><stop offset="1" stop-color="#fff"/></linearGradient><clipPath id="clip-path"><circle class="cls-1" cx="278.45298" cy="278.03407" r="276.10518"/></clipPath><clipPath id="clip-path-2"><rect class="cls-1" x="25.69714" y="17.25038" width="507.35332" height="540.74962"/></clipPath></defs><title>Icons</title><g class="cls-2"><g id="Layer_1" data-name="Layer 1"><circle class="cls-3" cx="278.45298" cy="278.03407" r="276.10518"/><g class="cls-4"><g class="cls-5"><path class="cls-6" d="M-58.39026,471.27291c-21.58661,56.14783-1.3871,135.91547-1.334,247.0838S-70.29564,977.085-34.5248,999.31269c35.77084,22.22793,128.77448,4.15874,243.44949,6.79293,114.675,2.63393,171.22119,3.62644,216.93606,8.11539,73.38,7.20543,40.61132-128.097,43.14954-185.83885s2.931-123.64938,0-226.53507c-1.6783-58.91791-.27183-140.978-.27183-140.978s-181.93982-23.39118-282.83555-10.42231S-58.39026,471.27291-58.39026,471.27291Z"/><path class="cls-7" d="M-18.05025,609.48968C-1.02434,649.2963,2.745,637.37222,11.13161,721.46745c4.4783,44.907,22.19724-63.80113,7.72681-137.88762s27.07439-111.2943,4.06217-111.88021C-.09137,471.1137-47.758,540.03366-18.05025,609.48968Z"/><path class="cls-8" d="M352.52784,94.47307c-67.7397-29.14535-199.37309-14.86382-254.28635-3.625C91.77765,92.1712,86.67931,97.70576,85.452,104.731c-8.87528,50.81094-13.35708,99.12583,2.27573,146.9363A15.84854,15.84854,0,0,0,98.44341,262.273c26.60785,7.23066,119.115,27.89578,241.82119,5.66839,6.49366-1.17639,11.69789-6.58815,13.079-13.59183,6.95149-35.24767,10.59106-112.35019,8.82352-145.35875A16.56187,16.56187,0,0,0,352.52784,94.47307Z"/><path class="cls-9" d="M235.0196,163.81038s-92.55721-57.50287-104.40419-42.39462c-30.89316,39.39753,69.90822,96.384,69.90822,96.384Z"/><path class="cls-9" d="M188.01532,202.28234s-50.42249,32.67409-52.21826,47.22477c-1.796,14.55065,62.86948-11.67548,62.86948-11.67548Z"/><path class="cls-9" d="M275.67175,179.12927s50.51082-42.23153,44.13743-59.96492C313.436,101.431,215.65608,143.302,215.65608,143.302Z"/><path class="cls-9" d="M232.32691,209.77327s49.67493,38.74251,79.48613,25.87305c16.48773-7.11763-58.72559-62.85744-58.72559-62.85744Z"/><path class="cls-10" d="M335.16175,243.18515c1.10064-9.09048,5.54758-17.85557,8.778-26.88467,5.21834-14.58534,3.90964-29.436-11.71963-36.86822-14.455-6.87387-26.72416-6.08721-35.46179-23.44585-7.28677-14.476-11.78606-28.24251-25.70324-39.5134-15.05131-12.1897-31.9773-15.46663-49.16348-11.88763-16.91645,3.52244-22.96439,9.33572-22.96439,9.33572s-6.59-5.91353-17.9573-4.72911c-13.86723,1.44495-23.82136,8.84765-30.57216,21.27991-8.18731,15.07772-1.5173,33.47095-13.84437,46.8172-9.72109,10.52444-25.87251,15.37442-30.30244,30.58374-3.98192,13.67163,7.20093,22.18531,14.06838,32.37981,10.46142,15.52961,2.78562,25.82381-5.16067,40.34563-12.80965,23.40994-4.1977,47.08308,20.27549,58.3974,16.17055,7.4756,31.17349-4.55918,47.567-2.34848,16.58164,2.23644,22.79751,19.05554,35.87208,27.14654,14.37983,8.89884,36.65757,8.48285,52.71013,5.57849,16.34912-2.958,27.72994-10.46091,44.63764-9.16526,12.50164.95821,24.0225-1.58539,33.2217-10.60109,14.894-14.59714,21.85631-41.89967,10.80207-60.23876C351.21937,274.39394,332.70059,263.51142,335.16175,243.18515Z"/><path class="cls-11" d="M162.15223,154.442s-3.73584,8.76724-18.83473,40.22851c-8.15038,16.98313,25.72423,52.83927,3.422,80.67652-48.70324,60.7909,31.85163,68.73716,72.17145,59.15244,40.31957-9.58473,107.68933,10.74421,56.61792-59.1058-17.18616-23.50563,22.76722-41.0015,21.18349-61.76841s-27.993-69.69563-50.1517-68.69079C224.402,145.9396,162.15223,154.442,162.15223,154.442Z"/><path class="cls-7" d="M145.70054,562.89682c-18.62188,9.91145-7.49589,33.46077,48.91584,11.8158,56.41143-21.6447,95.58516-10.43357,118.8097,0s85.19925,8.40647,20.77826-12.37679-112.00791-44.11358-139.588-27.92462C167.036,550.60018,145.70054,562.89682,145.70054,562.89682Z"/><path class="cls-8" d="M218.97529,470.363c55.02249-14.24923,182.41546.14742,229.45312,6.22257a18.196,18.196,0,0,0,20.31-15.71643l.10469-.77836A18.29057,18.29057,0,0,0,452.806,439.4088c-51.22473-5.61575-193.96237-20.91379-240.48771-22.23544C92.78686,413.77824-6.62,436.02707-46.174,446.48932a18.34279,18.34279,0,0,0-12.694,23.2636l.47779,1.52a18.12965,18.12965,0,0,0,22.73506,11.952C94.6597,441.93846,136.07883,491.83075,218.97529,470.363Z"/><path class="cls-12" d="M334.09194,332.41529c-23.42171-17.61863-86.5611-39.50616-86.5611-39.50616l-46.94067.075s-57.04149,8.043-101.6419,35.06921c-8.4937,5.1467-26.15975,30.94451-45.21053,64.52294a114.259,114.259,0,0,1,11.456,7.81359c20.21413,15.64379,35.71051,36.0242,49.007,57.94872,6.27621-14.91181,11.13582-25.70347,11.13582-25.70347s52.55548,16.807,93.63874,2.13512c36.13408-12.90453,74.80188-2.13512,74.80188-2.13512s45.62853,42.41589,58.86889,139.93189c6.55336,48.26643-19.84476,115.47743-18.00434,116.74414,14.90357,10.25747,31.50646,16.97455,48.81033,21.49674,16.963-42.35585,25.01713-88.28989,26.8448-115.51388C419.549,457.47182,352.88548,346.55249,334.09194,332.41529Z"/><path class="cls-12" d="M128.56221,432.60407a298.71008,298.71008,0,0,0-14.2225-34.12146A344.13268,344.13268,0,0,0,74.43044,373.598c-3.5549-1.86173-12.24125,4.44178-20.6927,18.97834C28.452,439.02149,20.88379,469.67331,9.42139,568.88861c-3.13132,27.10285,1.77718,102.88677,9.18379,147.9532,17.86483-.61111,35.52-3.51816,52.281-10.254,2.06976-.83169-5.00655-88.60858,1.54706-136.875C83.71839,486.59614,118.52677,443.51661,128.56221,432.60407Z"/><path class="cls-13" d="M170.72644,202.07376s-10.43616-17.77677-14.56076,0c-4.1249,17.7765,12.95922,28.34329,12.95922,28.34329S175.03866,216.82126,170.72644,202.07376Z"/><path class="cls-13" d="M269.5939,202.51735s10.43641-17.7765,14.561,0c4.1249,17.7765-12.95924,28.34355-12.95924,28.34355S265.28193,217.26512,269.5939,202.51735Z"/><path class="cls-14" d="M242.84448,255.54237c-.73155,15.83811,2.31076,31.676,8.42248,36.5155,6.11172,4.83926,16.75276,9.30651,16.75276,9.30651s-14.47362,23.73586-53.861,21.04967c-24.39241-1.66366-34.85382-22.43726-34.85382-22.43726s15.92927-4.35065,21.28527-14.3141c5.356-9.96318,4.37732-27.9206,4.37732-27.9206Z"/><path class="cls-15" d="M197.57443,289.74558a92.61112,92.61112,0,0,0,34.5934-3.52459,131.2341,131.2341,0,0,0,13.24065-4.69372c-2.09526-7.11055-3.00006-16.54705-2.564-25.9849l-37.877,2.19972s.97867,17.95742-4.37732,27.92087A19.04531,19.04531,0,0,1,197.57443,289.74558Z"/><path class="cls-14" d="M274.82791,167.56581c-18.86688-15.04743-45.1122-19.572-68.56793-20.53426a328.37445,328.37445,0,0,0-37.53207.94641c-2.9036,10.878-2.90413,28.29451-2.90413,56.184,0,41.02267,28.985,77.22752,58.57818,74.96482C261.9832,276.253,275.5289,245.18465,275.5289,204.162c0-14.933-.0008-26.85894-.44669-36.39113C274.99744,167.70277,274.91294,167.63362,274.82791,167.56581Z"/><path class="cls-16" d="M221.12661,212.29506s-3.39121,6.8267-7.0723,14.19482c-3.30992,6.62461,2.77922,7.18962,4.69963,7.57263"/><path class="cls-17" d="M128.56221,436.02493s.85059-25.76645-14.80684-67.00382"/><path class="cls-17" d="M293.77717,428.86158s4.78228-36.04376,19.64891-47.77915"/><path class="cls-10" d="M204.13576,162.85466s6.58153,15.621,34.06461,14.74884,35.42672,14.725,33.32588,31.60708c-2.10084,16.88235,2.11758,63.22862,17.34985,3.3643,4.39087-17.25679,6.66124-43.11786-26.8929-61.50064-25.23689-13.82656-86.08279-24.52092-96.15942-18.03113-23.47353,15.11792-10.1707,66.91188-10.1707,66.91188s17.90256,32.535,14.88815,3.5345C167.52656,174.48873,204.13576,162.85466,204.13576,162.85466Z"/><path class="cls-10" d="M235.5423,182.67649c.31994,4.14427,4.25854,6.66052,8.174,7.95671a111.4551,111.4551,0,0,0,12.59838,2.63259s-4.83756-2.24957-10.70029-4.639C241.42842,186.92046,235.5423,182.67649,235.5423,182.67649Z"/><path class="cls-10" d="M207.25805,183.25784c-.56148,4.11827-4.64012,6.396-8.6247,7.45711a111.34446,111.34446,0,0,1-12.73044,1.87915s4.96059-1.958,10.95273-3.995C201.13438,187.1448,207.25805,183.25784,207.25805,183.25784Z"/><path class="cls-10" d="M210.65006,246.23961c8.38608-2.72853,12.61645-4.085,17.129-1.90622l4.51256,2.17908s-8.35685-.54571-12.56463,0A36.17463,36.17463,0,0,1,210.65006,246.23961Z"/><path class="cls-15" d="M242.18893,205.33621a2.16615,2.16615,0,0,1-.78177-.7805,12.37547,12.37547,0,0,0-2.94,8.385c0,5.76906,3.24638,10.4459,7.25062,10.4459,4.00451,0,7.25063-4.67684,7.25063-10.4459a13.86589,13.86589,0,0,0-1.18408-5.712A13.59116,13.59116,0,0,1,242.18893,205.33621Z"/><path class="cls-18" d="M239.04485,203.55972c3.91921,3.48545,9.75005,5.37666,14.50125,3.233"/><path class="cls-10" d="M244.05194,206.79268a6.41746,6.41746,0,0,0-1.20746,3.84542c0,3.03275,1.8856,5.49111,4.21124,5.49111,2.32591,0,4.21124-2.45836,4.21124-5.49111a6.57822,6.57822,0,0,0-.909-3.40129A20.27164,20.27164,0,0,1,244.05194,206.79268Z"/><path class="cls-15" d="M201.24572,205.33621a2.16422,2.16422,0,0,0,.78178-.7805,12.37556,12.37556,0,0,1,2.94,8.385c0,5.76906-3.24612,10.4459-7.25063,10.4459s-7.25062-4.67684-7.25062-10.4459a13.87022,13.87022,0,0,1,1.18407-5.712A13.5912,13.5912,0,0,0,201.24572,205.33621Z"/><path class="cls-18" d="M204.39006,203.55972c-3.91947,3.48545-9.75032,5.37666-14.50125,3.233"/><path class="cls-10" d="M199.3827,206.79268a6.41559,6.41559,0,0,1,1.20747,3.84542c0,3.03275-1.88534,5.49111-4.21124,5.49111-2.32565,0-4.21124-2.45836-4.21124-5.49111a6.57814,6.57814,0,0,1,.90905-3.40129A20.27092,20.27092,0,0,0,199.3827,206.79268Z"/><ellipse class="cls-19" cx="404.27292" cy="314.14607" rx="125.91497" ry="127.00569"/><path class="cls-20" d="M484.73768,382.33505c0,3.76725-36.804,6.821-82.20429,6.821s-82.20429-3.05374-82.20429-6.821,36.804-6.82124,82.20429-6.82124S484.73768,378.5678,484.73768,382.33505Z"/><path class="cls-21" d="M408.709,219.09854h46.53616a1.8296,1.8296,0,0,1,1.8296,1.8296v16.47547a0,0,0,0,1,0,0H406.87931a0,0,0,0,1,0,0V220.92824A1.8297,1.8297,0,0,1,408.709,219.09854Z"/><path class="cls-22" d="M389.20736,379.61453h87.31641a4.21236,4.21236,0,0,1-4.1943,4.23039H393.40166a4.21235,4.21235,0,0,1-4.1943-4.23039Z"/><path class="cls-23" d="M476.52377,287.4964v92.90912a3.42484,3.42484,0,0,1-3.41011,3.4394H392.61747a3.42484,3.42484,0,0,1-3.41011-3.4394V287.4964a28.78172,28.78172,0,0,1,7.17618-19.03161L408.453,254.775a4.87,4.87,0,0,0,1.2142-3.22022V237.40182H456.0639v14.15294a4.871,4.871,0,0,0,1.214,3.22022l12.06974,13.68981A28.7804,28.7804,0,0,1,476.52377,287.4964Z"/><rect class="cls-22" x="389.20736" y="297.40182" width="87.31641" height="67.93318"/><rect class="cls-8" x="389.20736" y="299.50678" width="87.31641" height="63.72326"/><rect class="cls-22" x="393.81062" y="303.53053" width="58.53107" height="7.09284"/><rect class="cls-22" x="393.81062" y="315.15757" width="36.26221" height="7.09284"/><path class="cls-24" d="M335.74688,269.12637h61.69656a3.7249,3.7249,0,0,1,3.7249,3.7249v19.59566a0,0,0,0,1,0,0H332.02208a0,0,0,0,1,0,0V272.85117A3.7248,3.7248,0,0,1,335.74688,269.12637Z"/><path class="cls-24" d="M333.775,375.3844h65.64006a0,0,0,0,1,0,0v5.2282a3.2318,3.2318,0,0,1-3.2318,3.2318H337.00695a3.2319,3.2319,0,0,1-3.2319-3.2319v-5.2281A0,0,0,0,1,333.775,375.3844Z"/><path class="cls-22" d="M367.78887,356.52l-5.60094,12.32571-12.80652-5.92055a6.80382,6.80382,0,0,1-3.30971-8.98758h0a6.69755,6.69755,0,0,1,8.91039-3.33838Z"/><path class="cls-8" d="M362.18793,368.84575,367.78887,356.52l12.80652,5.92054a6.80383,6.80383,0,0,1,3.3097,8.98759h0a6.69743,6.69743,0,0,1-8.91038,3.33812Z"/><path class="cls-22" d="M354.584,361.8258v13.5586H340.49612a6.75037,6.75037,0,0,1-6.72107-6.7793h0a6.75037,6.75037,0,0,1,6.72107-6.7793Z"/><path class="cls-8" d="M354.584,375.3844V361.8258h14.08766a6.75021,6.75021,0,0,1,6.72107,6.7793h0a6.75021,6.75021,0,0,1-6.72107,6.7793Z"/><path class="cls-22" d="M379.3708,350.15222l-11.3966-7.19028,7.4708-12.0472a6.68738,6.68738,0,0,1,9.26255-2.15253h0a6.814,6.814,0,0,1,2.134,9.3428Z"/><path class="cls-8" d="M367.9742,342.96194l11.3966,7.19028L371.9,362.19917a6.68744,6.68744,0,0,1-9.26255,2.15253h0a6.81355,6.81355,0,0,1-2.13405-9.34255Z"/><path class="cls-22" d="M352.69035,345.706l3.78738,13.00929-13.51721,4.00355a6.71255,6.71255,0,0,1-8.34246-4.59456h0a6.78834,6.78834,0,0,1,4.55509-8.41473Z"/><path class="cls-8" d="M356.47773,358.71528,352.69035,345.706l13.51694-4.00354A6.7127,6.7127,0,0,1,374.55,346.297h0a6.78908,6.78908,0,0,1-4.55535,8.415Z"/><path class="cls-22" d="M380.57664,352.96812l12.72817,4.3603-4.53049,13.455a6.7077,6.7077,0,0,1-8.52552,4.23908h0a6.79331,6.79331,0,0,1-4.20266-8.59938Z"/><path class="cls-8" d="M393.30481,357.32842l-12.72817-4.3603,4.53048-13.455a6.7078,6.7078,0,0,1,8.52552-4.23908h0a6.79347,6.79347,0,0,1,4.20266,8.59963Z"/><path class="cls-25" d="M333.775,292.44694h65.64006a0,0,0,0,1,0,0V380.1196a3.7248,3.7248,0,0,1-3.7248,3.7248H337.49995a3.7249,3.7249,0,0,1-3.7249-3.7249V292.44694A0,0,0,0,1,333.775,292.44694Z"/><rect class="cls-26" x="340.16855" y="292.44694" width="11.06293" height="91.39747"/><rect class="cls-26" x="386.84159" y="292.44694" width="5.63059" height="91.39747"/><rect class="cls-26" x="393.85246" y="292.44694" width="2.01919" height="91.39747"/><rect class="cls-27" x="336.08834" y="276.09543" width="4.04573" height="16.3515"/><rect class="cls-27" x="344.22671" y="276.09543" width="4.04547" height="16.3515"/><rect class="cls-27" x="352.36506" y="276.09543" width="4.04547" height="16.3515"/><rect class="cls-27" x="360.50316" y="276.09543" width="4.04547" height="16.3515"/><rect class="cls-27" x="368.64152" y="276.09543" width="4.04547" height="16.3515"/><rect class="cls-27" x="376.77988" y="276.09543" width="4.04547" height="16.3515"/><rect class="cls-27" x="384.91798" y="276.09543" width="4.04547" height="16.3515"/><rect class="cls-27" x="393.05634" y="276.09543" width="4.04547" height="16.3515"/></g></g></g></g></svg>