<svg xmlns="http://www.w3.org/2000/svg" xmlns:xlink="http://www.w3.org/1999/xlink" width="117.2" height="117.199" viewBox="0 0 117.2 117.199">
  <defs>
    <linearGradient id="linear-gradient" y1="0.5" x2="1" y2="0.5" gradientUnits="objectBoundingBox">
      <stop offset="0" stop-color="#ebebeb"/>
      <stop offset="1" stop-color="#fff"/>
    </linearGradient>
    <clipPath id="clip-path">
      <circle id="Ellipse_1737" data-name="Ellipse 1737" cx="58.6" cy="58.6" r="58.6" transform="translate(8.2 8.8)"/>
    </clipPath>
  </defs>
  <g id="sonologist" transform="translate(-8.2 -8.801)">
    <circle id="Ellipse_1736" data-name="Ellipse 1736" cx="58.6" cy="58.6" r="58.6" transform="translate(8.2 8.8)" fill="url(#linear-gradient)"/>
    <g id="Group_7019" data-name="Group 7019">
      <g id="Group_7018" data-name="Group 7018" clip-path="url(#clip-path)">
        <g id="Group_6993" data-name="Group 6993">
          <rect id="Rectangle_3950" data-name="Rectangle 3950" width="7" height="3.5" transform="translate(73.5 58.8)" fill="#989898"/>
          <g id="Group_6992" data-name="Group 6992">
            <path id="Path_45576" data-name="Path 45576" d="M93.6,58.3a1.11,1.11,0,0,1-1.1,1.1H61.6a1.11,1.11,0,0,1-1.1-1.1V35.2a1.11,1.11,0,0,1,1.1-1.1H92.4a1.11,1.11,0,0,1,1.1,1.1V58.3Z" fill="#c4c4c4"/>
            <rect id="Rectangle_3951" data-name="Rectangle 3951" width="28.9" height="19.1" transform="translate(62.6 36.1)" fill="#4e4e4e"/>
            <path id="Path_45577" data-name="Path 45577" d="M80.5,57.2a.9.9,0,0,1-.9.9H74.4a.9.9,0,0,1-.9-.9h0a.9.9,0,0,1,.9-.9h5.2a.9.9,0,0,1,.9.9Z" fill="#989898"/>
            <rect id="Rectangle_3952" data-name="Rectangle 3952" width="28.9" height="1.3" transform="translate(62.6 36.1)" fill="#78a0d4"/>
            <rect id="Rectangle_3953" data-name="Rectangle 3953" width="28.9" height="1.3" transform="translate(62.6 53.9)" fill="#78a0d4"/>
            <path id="Path_45578" data-name="Path 45578" d="M82.7,38.9a5.72,5.72,0,0,1-3.4,1h0a5.72,5.72,0,0,1-3.4-1l-5.7,10c1.5,2.1,5.5,3.4,9.1,3.4h0c3.6,0,7.6-1.3,9.1-3.4Z" fill="#78a0d4"/>
            <rect id="Rectangle_3954" data-name="Rectangle 3954" width="3.8" height="14.2" transform="translate(63.6 38.4)" fill="#78a0d4"/>
            <path id="Path_45579" data-name="Path 45579" d="M80.5,46.4a1.205,1.205,0,0,0,.5-.5c.2-.3.3-.3.6-.2a1.185,1.185,0,0,0,.8.1c.4-.2.7-.5,1-.4,2.7.3,2.1,2.8,1.4,3.6a2.377,2.377,0,0,1-2.5.5c-1.3-.3-2.1,2-5.4.7a10.27,10.27,0,0,1-3.1-1.7,2.293,2.293,0,0,1-.2-2c.4-.6,1.1-1.1,1.2,0,0,.2.2.9.7.8.8-.3,1.3-.4,1.6-.5A3.09,3.09,0,0,1,80,47.9c.1.1.5,0,.5,0S80.1,46.8,80.5,46.4Z" fill="#a9cbeb"/>
            <rect id="Rectangle_3955" data-name="Rectangle 3955" width="2.6" height="0.4" transform="translate(64.1 39.2)" fill="#4e4e4e"/>
            <rect id="Rectangle_3956" data-name="Rectangle 3956" width="2.6" height="0.4" transform="translate(64.1 44.3)" fill="#4e4e4e"/>
            <rect id="Rectangle_3957" data-name="Rectangle 3957" width="2.6" height="0.4" transform="translate(64.1 45.6)" fill="#4e4e4e"/>
            <rect id="Rectangle_3958" data-name="Rectangle 3958" width="2.6" height="0.4" transform="translate(64.1 47.1)" fill="#4e4e4e"/>
            <rect id="Rectangle_3959" data-name="Rectangle 3959" width="2.6" height="0.4" transform="translate(64.1 48.4)" fill="#4e4e4e"/>
          </g>
          <path id="Path_45580" data-name="Path 45580" d="M81.9,63a.684.684,0,0,1-.7.7H73a.684.684,0,0,1-.7-.7h0a.684.684,0,0,1,.7-.7h8.2a.684.684,0,0,1,.7.7Z" fill="#c4c4c4"/>
          <rect id="Rectangle_3960" data-name="Rectangle 3960" width="3.7" height="0.6" transform="translate(86.8 38.8)" fill="#d2d2d2"/>
          <rect id="Rectangle_3961" data-name="Rectangle 3961" width="3.7" height="0.6" transform="translate(86.8 40.3)" fill="#d2d2d2"/>
          <rect id="Rectangle_3962" data-name="Rectangle 3962" width="3.7" height="0.6" transform="translate(68.7 38.8)" fill="#d2d2d2"/>
          <rect id="Rectangle_3963" data-name="Rectangle 3963" width="3.7" height="0.6" transform="translate(68.7 40.3)" fill="#d2d2d2"/>
        </g>
        <g id="Group_6994" data-name="Group 6994">
          <path id="Path_45581" data-name="Path 45581" d="M67.6,73.1a3.864,3.864,0,0,0,1.7-.7c.8-.6,2.1-1.8,3.1-1.9a12.475,12.475,0,0,1,3,.4l.6,3.9s-1.8,2.2-3.4,2.7a19.718,19.718,0,0,1-5,0V73.1Z" fill="#fbb580"/>
          <path id="Path_45582" data-name="Path 45582" d="M71.7,72.3s-.1.5-1,1.1a19.567,19.567,0,0,1-3.3,1.5l.8,2.7L74,74.7Z" fill="#ec8a41"/>
        </g>
        <g id="Group_7006" data-name="Group 7006">
          <g id="Group_6995" data-name="Group 6995">
            <path id="Path_45583" data-name="Path 45583" d="M50.8,47.5c-1.2-1-1.5-2.5.1-3.3,2.1-1.1,1.6-1.6.4-4.1-1-1.9-.6-2.3-.4-3.9.4-3-2.4-9.8-8.2-7.6,0,0-1.1-2.4-4.8-2.3a7.015,7.015,0,0,0-6.8,6.3c-.4,3.4-1.2,3.2-2.3,3.8-2.1,1.2-2.6,3.8-.1,5.1,2.1,1-.1,2.6-1.2,4.1s.2,2.8,2,3c1.7.2,1.4,1.6-.6,2.7-3.3,1.8-.1,5-.1,5a4.763,4.763,0,0,1,4.2-.8c-1.3-1.6-2.1-4.2-.6-5.5a2.038,2.038,0,0,0,.9-2.1c-.2-1.1-1.7-1.5-2.3-2.3a1.051,1.051,0,0,1,0-1.3,4.473,4.473,0,0,0,.9-2.5c-.1,0-.2-.2,0-.3v-.2c0-.1.1-.2.2-.1h0A9.409,9.409,0,0,1,34.3,40a21.54,21.54,0,0,1,5.6-1.2,20.146,20.146,0,0,1,6,.2,2.883,2.883,0,0,1,2.5,2.2v.2c.3.5.9.9,1,1.6.1.4-.2.8-.4,1.1a18.258,18.258,0,0,0-1.3,1.6c-.6,1,.2,1.5.9,2.1.5.5.9,1.2.4,1.8-.3.5-1,.8-1.2,1.3-.4.8.5,1.5.9,2.1.8,1.1,0,2.5-1.2,3.5,1.9-.3,3.3-.8,4-1.9,1.1-1.8-1.6-2.8-.4-3.7C52.5,49.9,52.7,49.1,50.8,47.5Z" fill="#dc4637"/>
            <path id="Path_45584" data-name="Path 45584" d="M48.3,53.2c-.4-.6-1.3-1.2-.9-2.1a15.378,15.378,0,0,1,1.2-1.3,1.283,1.283,0,0,0-.4-1.8c-.6-.6-1.4-1.1-.9-2.1a18.26,18.26,0,0,1,1.3-1.6,2.1,2.1,0,0,0,.4-1.1c-.1-.7-.7-1-1-1.6v-.2a3,3,0,0,0-2.5-2.2,24.134,24.134,0,0,0-6-.2,18.107,18.107,0,0,0-5.6,1.2,9.409,9.409,0,0,0-2.2,1.2h0c0-.1-.2,0-.2.1v.2a.187.187,0,0,0,0,.3,4.759,4.759,0,0,1-.9,2.5,1.051,1.051,0,0,0,0,1.3c.6.8,2.2,1.2,2.3,2.3.2,1-.3,1.5-.9,2.1-1.6,1.3-.7,3.9.6,5.5,4.1.8,10.2,1.7,14.2,1.1C48.3,55.7,49.2,54.4,48.3,53.2Z" fill="#c22e27"/>
          </g>
          <g id="Group_6996" data-name="Group 6996">
            <path id="Path_45585" data-name="Path 45585" d="M42.8,53.4a5.4,5.4,0,0,1-2.4-.2,8.714,8.714,0,0,1-3.5-2,11.019,11.019,0,0,1-.2,1.8c-.3,1.7-2.4,2.4-2.4,2.4a17.343,17.343,0,0,0,5.4,1.2h0a17.343,17.343,0,0,0,5.4-1.2,4.863,4.863,0,0,1-2.3-2Z" fill="#fbb580"/>
            <path id="Path_45586" data-name="Path 45586" d="M42.8,53.4a.6.6,0,0,1-.1-.4,19.978,19.978,0,0,1-.2-3.4,8.709,8.709,0,0,1-1.9.5l-.9.7-.9-.8a5.609,5.609,0,0,1-1.9-.9v2.1a8.445,8.445,0,0,0,3.5,2,12.49,12.49,0,0,0,2.4.2Z" fill="#ec8a41"/>
          </g>
          <path id="Path_45587" data-name="Path 45587" d="M49,38.9c-.3-1.1-1.4-.9-1.8-.8C46.5,33.4,43.6,30,40,30c-3.8,0-6.6,3.3-7.2,8.1-.4-.1-1.5-.3-1.8.8-.3,1.3.3,3.4,1.8,3.9h0a5.64,5.64,0,0,0,.7,2.3c1.6,3.5,4.5,6,6.5,6,2.1,0,4.8-2.5,6.3-6a15.546,15.546,0,0,0,.8-2.3h.1C48.6,42.3,49.3,40.2,49,38.9Z" fill="#fbb580"/>
          <path id="Path_45588" data-name="Path 45588" d="M32.6,41.6c-.4-.2-.6-.5-.3-.8a.864.864,0,0,0,.3-.6,1.575,1.575,0,0,0-.4-1.3.43.43,0,0,0-.7.2.854.854,0,0,0,0,.7c.1.2.2,0,.2-.2,0-.4.3-.8.5-.1a1.949,1.949,0,0,1,.1.8c-.1.4-.5.5-.4.9a1.167,1.167,0,0,0,.6.6C32.7,41.8,32.7,41.6,32.6,41.6Z" fill="#ec8a41"/>
          <path id="Path_45589" data-name="Path 45589" d="M47.2,41.6c.4-.2.6-.5.3-.8a.864.864,0,0,1-.3-.6,1.575,1.575,0,0,1,.4-1.3.43.43,0,0,1,.7.2.854.854,0,0,1,0,.7c-.1.2-.2,0-.2-.2,0-.4-.3-.8-.5-.1a1.949,1.949,0,0,0-.1.8c.1.4.5.5.4.9a1.167,1.167,0,0,1-.6.6C47.2,41.8,47.1,41.6,47.2,41.6Z" fill="#ec8a41"/>
          <g id="Group_6997" data-name="Group 6997">
            <path id="Path_45590" data-name="Path 45590" d="M48.2,37c-.1-1.4-3.3-8.8-8.3-7.3-.3-.1-.6-.2-1-.3-8.9-.9-6.7,5.6-6.5,8.3,0,.1.1.3.1.4a2.832,2.832,0,0,1,2-3.2c1.3-.3,2.5.2,3.8-.1,1.8-.4,2.6-1.8,3.2-3.4A4.47,4.47,0,0,0,43,34.3a3.513,3.513,0,0,0,2,.5,3.5,3.5,0,0,1,2.2.6c1.1.9.8,2.7-.5,3.8a.1.1,0,0,0-.1.1h0S48.4,38.5,48.2,37Z" fill="#dc4637"/>
            <path id="Path_45591" data-name="Path 45591" d="M33.6,39.1Z" fill="#dc4637"/>
            <path id="Path_45592" data-name="Path 45592" d="M47.1,35.3a3.5,3.5,0,0,0-2.2-.6,3.513,3.513,0,0,1-2-.5,4.47,4.47,0,0,1-1.5-2.9c-.6,1.6-1.4,3-3.2,3.4-1.3.3-2.4-.2-3.8.1a2.777,2.777,0,0,0-2,3.2,2.79,2.79,0,0,0,1.1,1.1V39a2.045,2.045,0,0,1-.4-2c.7-1.4,2.3-1.9,4.7-1.3A3.016,3.016,0,0,0,41.3,34c.5,1,1.2,1.8,2,1.6,2-.6,3.5.1,3.5,1.5a4.2,4.2,0,0,1-.4,2,.1.1,0,0,0,.1-.1C47.8,38,48.2,36.2,47.1,35.3Z" fill="#c22e27"/>
          </g>
          <g id="Group_6998" data-name="Group 6998">
            <path id="Path_45593" data-name="Path 45593" d="M51.3,56.4a33.206,33.206,0,0,0-7-1.6v1.7L42.7,60l-3.4,2.5L36,59.9l-1.6-3.5V54.7a33.206,33.206,0,0,0-7,1.6c-2.2,1.1-3.6,3.9-3.4,8.6.1,3.7-.1,20.2-.1,24.5l30-2.7,14.8-7.6-.6-6.7L56.2,73.8c-.9-3.1-1.7-5.4-1.6-8.7C54.9,59.4,53.6,57.4,51.3,56.4Z" fill="#dcdee0"/>
            <path id="Path_45594" data-name="Path 45594" d="M36.5,59.9l3,6,3.3-6,1.6-3.5V54.7a1.75,1.75,0,0,0-.5-.1,6.284,6.284,0,0,1-4.3,1.8,5.055,5.055,0,0,1-4-1.8,6.173,6.173,0,0,0-.9.1l.2,1.4Z" fill="#6b2718"/>
          </g>
          <g id="Group_7001" data-name="Group 7001">
            <g id="Group_6999" data-name="Group 6999">
              <path id="Path_45595" data-name="Path 45595" d="M30.3,67.7c-.1-.3-1.8-6.9-.3-10.2,1.8-3.8,4.5-3.4,4.6-3.4l-.1.5c-.1,0-2.4-.4-4,3.1-1.5,3.1.3,9.7.3,9.8Z" fill="#e77324"/>
            </g>
            <g id="Group_7000" data-name="Group 7000">
              <path id="Path_45596" data-name="Path 45596" d="M32,68.3a1.1,1.1,0,1,1-1.1-1.1A1.1,1.1,0,0,1,32,68.3Z" fill="#fff"/>
              <path id="Path_45597" data-name="Path 45597" d="M30.9,69.7a1.4,1.4,0,1,1,1.4-1.4,1.5,1.5,0,0,1-1.4,1.4Zm0-2.3a.9.9,0,1,0,.9.9,1.055,1.055,0,0,0-.9-.9Z" fill="#557ebf"/>
            </g>
          </g>
          <g id="Group_7005" data-name="Group 7005">
            <g id="Group_7002" data-name="Group 7002">
              <path id="Path_45598" data-name="Path 45598" d="M47.9,64.7c.1.1.1.2,0,.2.1,0,.2.1.3.1s.1,0,.1.1c.5-2.3,1-6,0-8.2-1.8-3.8-4.5-3.4-4.6-3.4l.1.5c.1,0,2.4-.4,4,3.1C48.8,59.1,48.3,62.5,47.9,64.7Z" fill="#e77324"/>
            </g>
            <g id="Group_7003" data-name="Group 7003">
              <path id="Path_45599" data-name="Path 45599" d="M44.5,67.7c.1-.1-.3-.4-.4-.3-.7,1.3-2.6,4.8-2.8,5.4a1.483,1.483,0,0,0,1,2.1c.2.1.3-.3.1-.4-.6-.5-1-.9-.7-1.5C42.5,71.4,44.1,68.5,44.5,67.7Z" fill="#fff"/>
              <path id="Path_45600" data-name="Path 45600" d="M42.8,74.6a.552.552,0,1,1-.5-.6C42.5,74.1,42.8,74.3,42.8,74.6Z" fill="#6b2718"/>
            </g>
            <g id="Group_7004" data-name="Group 7004">
              <path id="Path_45601" data-name="Path 45601" d="M48.1,68.9c0-.1.5-.1.5,0-.3,1.4-1.1,5.4-1.4,6-.3.8-.9,1.3-2.2.9-.2-.1,0-.4.1-.4.8,0,1.3-.1,1.5-.7C47.2,73,47.9,69.7,48.1,68.9Z" fill="#fff"/>
              <path id="Path_45602" data-name="Path 45602" d="M44.9,75.3a.57.57,0,1,0,.8-.1.521.521,0,0,0-.8.1Z" fill="#6b2718"/>
            </g>
            <path id="Path_45603" data-name="Path 45603" d="M49.1,65.7c-.1-1-.1-3.3-.1-3.5,0-.4-.1-.4-.4-.4-.2,0-.4-.1-.6.3a11.549,11.549,0,0,1-2.3,3A7.847,7.847,0,0,0,44,67.2c-.3.6.4.9.7.5A7.627,7.627,0,0,1,46,66c1.4-1.2,2.2-.5,2.2.7a10.58,10.58,0,0,1-.3,2c-.1.8.8.8.9.2a15.823,15.823,0,0,0,.3-3.2Z" fill="#557ebf"/>
          </g>
          <path id="Path_45604" data-name="Path 45604" d="M35.5,54.6l4,11.3-5.7-5,.9-2.4L32,57.8s1.1-6.6,4.7-5.4A2.45,2.45,0,0,1,35.5,54.6Z" fill="#acafb3"/>
          <path id="Path_45605" data-name="Path 45605" d="M43.9,54.6,39.5,65.9l6.1-5-.9-2.4,2.6-.6s-1.1-6.6-4.7-5.4A2.386,2.386,0,0,0,43.9,54.6Z" fill="#acafb3"/>
          <path id="Path_45606" data-name="Path 45606" d="M50.9,77.4c-.1-3.4.4-8.6-.8-15.3a55.473,55.473,0,0,1-2,15.3Z" fill="#acafb3"/>
          <path id="Path_45607" data-name="Path 45607" d="M28.3,86c.1-3.4-.7-17.1.5-23.8C28.7,68.3,30.2,83,31.1,86Z" fill="#acafb3"/>
        </g>
        <g id="Group_7008" data-name="Group 7008">
          <path id="Path_45608" data-name="Path 45608" d="M84.8,81.4l22.3-21.2s6.7,2.2,9.6,3.3c2.7,1.1,12.5,5.6,12.5,5.6l-25.3,31.5-90.7,6L-6,87Z" fill="#9cd8d8"/>
          <path id="Path_45609" data-name="Path 45609" d="M134.2,73.3l-5.1-4a.792.792,0,0,0-1.1.1L109.5,93h0l-6.2,7.8-91.2,4.9.4,8,94.5-5.1a.55.55,0,0,0,.5-.3l.1-.1,5.5-7h0l21.2-26.9a.609.609,0,0,0-.1-1Z" fill="#58a3a3"/>
          <path id="Path_45610" data-name="Path 45610" d="M12.6,105.7-.1,92.9h0l-5.6-5.7c-.3-.3-.5-.3-.5.2l-.2,6.2a2.106,2.106,0,0,0,.5,1.3l8.2,8.3h0l10.4,10.5C12.6,112.4,12.6,106.5,12.6,105.7Z" fill="#70b8bc"/>
          <g id="Group_7007" data-name="Group 7007">
            <path id="Path_45611" data-name="Path 45611" d="M105.5,85c1.5-1.4,4.6-3.7,5.9-4.8s3.4-6.4,5.1-7.7c1.3-1,5-2.1,6.9-2.7-4.4-4.3-10.3-5.9-15.4-7.2a50.8,50.8,0,0,1-7.7-3.1A36.63,36.63,0,0,0,91.8,69c-2.9,4.6-3.4,11.2-3.4,11.2l12.3,10.4s.3.1.7.2A39.028,39.028,0,0,1,105.5,85Z" fill="#70b8bc"/>
            <path id="Path_45612" data-name="Path 45612" d="M112,86c3.2-4.7,11.1-11.9,11.5-16.2h0c-1.9.6-5.7,1.7-6.9,2.7-1.7,1.4-3.9,6.6-5.1,7.7-1.3,1.1-4.3,3.4-5.9,4.8a30.656,30.656,0,0,0-4.1,5.9c.6,1,1.6,1.2,2.9,2.2C106.6,92.7,109.9,88.9,112,86Z" fill="#58a3a3"/>
          </g>
        </g>
        <g id="Group_7015" data-name="Group 7015">
          <g id="Group_7012" data-name="Group 7012">
            <path id="Path_45613" data-name="Path 45613" d="M97.8,60.7s-1.6-.2-2.2.9c-.5.8-.1,1.4.5,2.1s-.7,1.9-1.8.7a1.586,1.586,0,0,0,1.8,1.8c-.1.4-1.7.5-1.4,1.7.2.8,1.2.6,1.4,1.1.3,1.1-1.3,1.2-.5,2.4,0,0,7.6,3,9.9,2.9s2.4-.6,2.4-1.7,1.6.4,2.1-.7c-.9-.1-2.1-.8-1.4-1.7.5-.6.9,0,1.7.1a1.205,1.205,0,0,0,.8-2.1,1.17,1.17,0,0,1-.1-1.9c.6-.5,1.1-1.7-.6-2.2C108.8,63.5,97.8,60.7,97.8,60.7Z" fill="#972b1f"/>
            <g id="Group_7011" data-name="Group 7011">
              <g id="Group_7009" data-name="Group 7009">
                <path id="Path_45614" data-name="Path 45614" d="M105.4,72.5a2.01,2.01,0,0,1-.4-.8,4.887,4.887,0,0,1,.1-2.4,8.046,8.046,0,0,1-3.9,1,3.34,3.34,0,0,1-2.1-.8,2.545,2.545,0,0,1-1.2,1.1c-.7.4-1.7.2-2.6.3,1.3,1.9,2.6,6.6,4.7,7.1s6.7-1.6,8.8-2.7A29.705,29.705,0,0,1,105.4,72.5Z" fill="#fbb580"/>
                <path id="Path_45615" data-name="Path 45615" d="M105.2,69.3a11.413,11.413,0,0,1,.7-1.9l-3.1-.2L100,65.9a10,10,0,0,1-.4,2.6c-.1.3-.3.6-.4.9a3.765,3.765,0,0,0,2.1,1,4.462,4.462,0,0,0,3.9-1.1Z" fill="#ec8a41"/>
              </g>
              <path id="Path_45616" data-name="Path 45616" d="M113.4,59.8a1,1,0,0,0-.9-.8s-.2-2.7-.2-4.7a17.379,17.379,0,0,0-5.2-3.2h0c-.3-.1-.9-.2-1.2-.3a17.558,17.558,0,0,0-3.9-.6,3.4,3.4,0,0,1-1-.1c-.9,2-2.5,5.5-2.8,5.4h-.1a.872.872,0,0,0-1,.3,3.259,3.259,0,0,0-.1,3.3,2.311,2.311,0,0,0,.7.7,8.516,8.516,0,0,0,.7,4.4c1.6,2.9,3.4,3.9,4,4.1a.31.31,0,0,1,.2.1h.1a9.239,9.239,0,0,0,5.6-1.7,5.825,5.825,0,0,0,2.7-3.4c.2-.1.5-.2,1-.4a3.95,3.95,0,0,0,1.4-3.1Z" fill="#fbb580"/>
              <g id="Group_7010" data-name="Group 7010">
                <path id="Path_45617" data-name="Path 45617" d="M97.8,56.5l-.2,1.7a1.643,1.643,0,0,1-.4-1.3C97.2,56.5,97.5,56.3,97.8,56.5Z" fill="#ec8a41"/>
                <path id="Path_45618" data-name="Path 45618" d="M112.1,60.1l-.6,1.6a1.687,1.687,0,0,0,1-.9C112.6,60.4,112.5,60,112.1,60.1Z" fill="#ec8a41"/>
              </g>
            </g>
            <path id="Path_45619" data-name="Path 45619" d="M97.5,55.3s1.2,1.2,1.6-.1c.3-.9,2-1.7,2-1.7s1.2-.6,3.6.8,4.4-1.5,4.4-1.5-.6,2.9.9,3.4,1.9,1.1,1.9,2.1.7,1.5,1.3,1.1c1.5-1,4.7-7.8-1-10-1.4-4.5-6.9-4.9-11.2-2.1a7.811,7.811,0,0,0-3.5,8Z" fill="#972b1f"/>
          </g>
          <g id="Group_7013" data-name="Group 7013">
            <path id="Path_45620" data-name="Path 45620" d="M84.6,76.4s-3.9-4-10.8-2c-3.1.9-5.7,3.8-6.7,5a6.993,6.993,0,0,0,4.6,6.5,24.316,24.316,0,0,0,5.5.9,29.782,29.782,0,0,0,10.1-1.3A57.673,57.673,0,0,1,89.2,92C96.6,90.1,91.5,79.6,84.6,76.4Z" fill="#fbb580"/>
            <path id="Path_45621" data-name="Path 45621" d="M77.2,86.4c-5.5-.1-9.4-2.8-9.3-5.7a6.122,6.122,0,0,1-.5.6l3.7,11.5s10.4,1,18-.9h.1c-.4-2.4.2-5.1-.3-6.9a41.424,41.424,0,0,1-11.7,1.4Z" fill="#ec8a41"/>
          </g>
          <path id="Path_45622" data-name="Path 45622" d="M108.9,75.3a29.1,29.1,0,0,0-2.4-1.8s-6.6,1.5-9.4-2.7c-4.2-.3-3.8.7-7.1.2-3.6-.5-3.8,1.4-4.4,3.3-.1.4-.3.8-1,.3a1.38,1.38,0,0,1-.4-.3.715.715,0,0,0-1,.7h-.4s3.9,4.9,3.1,10.6c1.7.5,3.4.7,4.9-.8,1.4-1.4-1.7-2.9-1.9-4.6a5.288,5.288,0,0,1,1.7-4.1s-.2,3.1,2.3,4.4c2.6,1.3,6.7-1.8,8.2-2.6a8.245,8.245,0,0,1,3.3-.3c.1,0,.1-.1.2-.1a5.218,5.218,0,0,1,6.1.4,11.8,11.8,0,0,0-1.8-2.6Z" fill="#acafb3"/>
          <path id="Path_45623" data-name="Path 45623" d="M101.1,78.1c-1.5.7-5.6,3.9-8.2,2.6s-2.3-4.4-2.3-4.4-2.5,1.7-2.1,4c.3,1.7,1.6,2.1.8,3.8-.5,1-1.3,1.1-3.4,1.7-.4,3.3-1.2,7-1.2,7s8.7-.6,12.8-4.1c4-3.5,3.6-8.7,7-10.8A7.226,7.226,0,0,0,101.1,78.1Z" fill="#787878"/>
          <path id="Path_45624" data-name="Path 45624" d="M20.2,91.4a15.172,15.172,0,0,1-3.1-2.2A14.216,14.216,0,0,1,15,85.9c-.6-1.2-1.2-1.3-2-.2-1,1.4.2,2.7,0,3.4-.2.8-.4,2.5.4,3.3a29.331,29.331,0,0,0,4.3,2.2Z" fill="#dcdee0"/>
          <path id="Path_45625" data-name="Path 45625" d="M20.2,95.2c0,2.4-1.2,5.7-2,5.8-1.4.2-2-3.5-2-6s.9-4.3,1.7-4.3S20.2,92.7,20.2,95.2Z" fill="#4081c3"/>
          <path id="Path_45626" data-name="Path 45626" d="M20.3,92.4s-3.4.4-4.7-.3a8.882,8.882,0,0,1-3.8-4.7c-.9-2.5-1-3.7-1.8-3.6a2.3,2.3,0,0,0-1.9,2.3c0,1.1.7,1.7.7,2.3,0,.5-.3,3.3.5,5a6.01,6.01,0,0,1,.3,4.9c-.6,1.6.8,4.1,2.8,3.8,3-.6,5.3-3.1,7-3.4C21.2,98.3,22.4,96.1,20.3,92.4Z" fill="#fff"/>
          <path id="Path_45627" data-name="Path 45627" d="M65.6,77.8a19.87,19.87,0,0,1-4.5-1.7c-1.3-.6-10.8-4.1-14.8-5.8-4-1.6-4.8-.3-7.5,2.7C36,76.3,30.2,83.6,28.6,86a21.547,21.547,0,0,1-5.1,4.7s3.3,3.8,4.9,3.7c5.1-.2,15-13.7,15-13.7s10.8,8.6,17.9,8.9,6.9-.5,6.9-.5,2-4,.9-6.7a34.841,34.841,0,0,0-3.5-4.6Z" fill="#5f92cd"/>
          <g id="Group_7014" data-name="Group 7014">
            <path id="Path_45628" data-name="Path 45628" d="M44,91.1c3.2-1.9,4.3-1.5,7-1.5a69.693,69.693,0,0,0,9.2,0c4-.4,3.1-.2,3.8-1.4.8-1.2.3-2.8,0-4.3a2.681,2.681,0,0,1,1.3-2.4c2.2,1.9,4.5,8.5,5.7,12.4a6.89,6.89,0,0,0,.8-.3c.5-2.5-2.1-11-4.6-13.8-1.2-.6.6.7-1.2.8-3.4.1-18.6,3-20.9,3.1-3.7.2-4.6,1.3-6.8,2.1-1.6.6-20.4,4.9-20.4,4.9s2,.6,2.1,5.8c.1,3.1,10.3-2.4,11.8-2.7C35.6,92.9,42.7,91.8,44,91.1Z" fill="#78a0d4"/>
            <path id="Path_45629" data-name="Path 45629" d="M42.8,96.1a68.525,68.525,0,0,1,13.7-.7,52.144,52.144,0,0,0,14.6-1.6c-1.2-3.8-3.5-10.4-5.7-12.4a2.681,2.681,0,0,0-1.3,2.4c.2,1.5.7,2.3-.1,3.5s-.8,1.5-4.8,1.9-5.7-.2-8.3-.2c-2.7,0-3.6.2-6.9,2.1-1.3.7-7.8,1.5-12.1,2.2-1.5.3-8.9,1.6-12,2.1.1,4.9-1.6,5.5-1.6,5.5C34.6,97.2,38.3,96.8,42.8,96.1Z" fill="#5f92cd"/>
          </g>
          <path id="Path_45630" data-name="Path 45630" d="M63,76.9s1.2,2.9,3.2,6.6c1.6,2.9,1.3,7.7,2.3,10.8.7,2.1,1,3.1,3.2,3.1A9.309,9.309,0,0,0,77,95.2s4.3-.9,3.6-1.9c-2-2.6-3.8,0-5.9-1.4-1.3-.9-1.3-3.4-1.6-5.3-.6-4.8-3.9-9.6-3.9-9.6s-.6-.9-1.4-.8c-.4,0-.8.7-1.3.7-1.3.2-1.2-1-1.8-1C64,75.9,63.7,76.7,63,76.9Z" fill="#fff"/>
          <path id="Path_45631" data-name="Path 45631" d="M110.6,78.5c-.3-1.5-1.1-2.8-3.6-2.5-2.5.2-4.4,2.2-5.7,4.4s-4.5,7.6-5.4,8.7c-1.6,2-4.3,1.3-7.9,2.2-3.6.8-7.1,1.4-8,1.5a15,15,0,0,0-7.1,3.6c-2.3,1.9-1.3,2.4.5,1.2A11.836,11.836,0,0,0,75,96.4a18.956,18.956,0,0,1-1.6,2c-.9,1.1-.3,1.2.3,1,1.2-.4,2.4-2.3,2.4-2.3a8.283,8.283,0,0,1-.8,2.3c-.6,1.2.2,1.5,1.1.1.8-1.2.9-1.5,1.3-2,0,0-.6,2.2-.8,2.9s.3.6.8.1c.9-1.1.9-2.7,2.4-3.2,1.4-.5,1.8-1.3,3.3-1.6a16.684,16.684,0,0,1,3.8.1c4.5.3,6.8.5,8.6-.1,1.8-.5,5.3-3.6,6.4-5.4C103.3,88.7,111.5,82.8,110.6,78.5Z" fill="#fbb580"/>
          <path id="Path_45632" data-name="Path 45632" d="M74.8,75.8c0,.2-.2.4-.5.5a.758.758,0,0,1-.7-.1c0-.2.2-.4.5-.5a.467.467,0,0,1,.7.1Z" fill="#ec8a41"/>
          <path id="Path_45633" data-name="Path 45633" d="M66.6,78.9a14.3,14.3,0,0,0,1.3,3.5c.8,1.8,2.2,6.8,2.1,8.7,0,1.5.8,4.2,2.3,4.6,1,.3.6-1-.3-3.4-.8-2-.9-4.5-1.2-6.2s-.7-4-1.7-5.2C67.5,78.8,66.3,77.4,66.6,78.9Z" fill="#dcdee0"/>
        </g>
        <g id="Group_7017" data-name="Group 7017">
          <path id="Path_45634" data-name="Path 45634" d="M75.8,70.8a12.53,12.53,0,0,1,1.4.1c.6.1,1.3.4.7.7a3.458,3.458,0,0,1-1.8.2C75.4,71.7,75.8,70.8,75.8,70.8Z" fill="#fbb580"/>
          <path id="Path_45635" data-name="Path 45635" d="M76.6,71.5a10.5,10.5,0,0,1,1.1.1c.6.1,1.3.4.7.7a2.786,2.786,0,0,1-1.6.1C76.2,72.3,76.6,71.5,76.6,71.5Z" fill="#fbb580"/>
          <path id="Path_45636" data-name="Path 45636" d="M76.6,72.3h1.1c.6,0,1.4.3.8.7a1.876,1.876,0,0,1-1.5.2C76.3,73.1,76.6,72.3,76.6,72.3Z" fill="#fbb580"/>
          <path id="Path_45637" data-name="Path 45637" d="M76.6,72.9h1.1c.6,0,1.4.3.8.7a1.876,1.876,0,0,1-1.5.2C76.3,73.7,76.6,72.9,76.6,72.9Z" fill="#fbb580"/>
          <g id="Group_7016" data-name="Group 7016">
            <path id="Path_45638" data-name="Path 45638" d="M71.6,72.2c2.2-.1,1.6-1.3,3.1-1.3,1.5.1,1,1.2,3.1,1.3.6,2.1-1.3,3.1-3.1,3.1S70.9,74.3,71.6,72.2Z" fill="#898989"/>
            <path id="Path_45639" data-name="Path 45639" d="M74.1,68.9h1.4a7.751,7.751,0,0,1,.6,2.6H73.5A7.3,7.3,0,0,1,74.1,68.9Z" fill="#dcdee0"/>
            <path id="Path_45640" data-name="Path 45640" d="M75.4,68.9a4.919,4.919,0,0,0-1.5-2.5,5.3,5.3,0,0,0-2.8-.3c-4.3.5-7.3,3.6-8.9,6.8,0,.1-.1.1-.1.2h.4A10.972,10.972,0,0,1,63.8,71c1.5-1.9,4-4.1,6.8-4.3,2.4-.2,2.7.1,3.1.5.3.3.2,1.8.2,1.8h1.5Z" fill="#898989"/>
          </g>
          <path id="Path_45641" data-name="Path 45641" d="M72.9,70.5a11.38,11.38,0,0,0,1.9,0c.9-.2.5,1-.3,1s-1.6,1-2.5.6C71.1,71.6,72.9,70.5,72.9,70.5Z" fill="#fbb580"/>
        </g>
      </g>
    </g>
  </g>
</svg>
