<svg xmlns="http://www.w3.org/2000/svg" xmlns:xlink="http://www.w3.org/1999/xlink" width="117.2" height="117.199" viewBox="0 0 117.2 117.199">
  <defs>
    <linearGradient id="linear-gradient" y1="0.5" x2="1" y2="0.5" gradientUnits="objectBoundingBox">
      <stop offset="0" stop-color="#ebebeb"/>
      <stop offset="1" stop-color="#fff"/>
    </linearGradient>
    <clipPath id="clip-path">
      <circle id="Ellipse_1661" data-name="Ellipse 1661" cx="58.6" cy="58.6" r="58.6" transform="translate(9.2 8.8)"/>
    </clipPath>
  </defs>
  <g id="sports_medicine" transform="translate(-9.2 -8.801)">
    <circle id="Ellipse_1660" data-name="Ellipse 1660" cx="58.6" cy="58.6" r="58.6" transform="translate(9.2 8.8)" fill="url(#linear-gradient)"/>
    <g id="Group_6750" data-name="Group 6750">
      <g id="XMLID_1532_" clip-path="url(#clip-path)">
        <path id="XMLID_2957_" d="M66.2,68.9c-3.9-7.2-1.6-7.6-3-8.8s-.5-2.6-.1-4l4.2-1.7a3.963,3.963,0,0,1,2.9,4.3c-.1,1,3.5,10.2,2.8,10.8C71.2,70.8,66.2,68.9,66.2,68.9Z" fill="#cc1d60"/>
        <path id="XMLID_3000_" d="M62.9,48.2a18.77,18.77,0,0,1,3,1.2c-1,5.1-3.4,4.6-3.4,4.6l-.7-1a2.308,2.308,0,0,1,.1-3.1,4.486,4.486,0,0,0,1-1.7Z" fill="#f68c6e"/>
        <g id="XMLID_2987_">
          <rect id="XMLID_2999_" width="1.1" height="1" transform="translate(68.387 44.351) rotate(-36.044)" fill="#280f0e"/>
          <path id="XMLID_2998_" d="M69.8,44.8l-.7-1c-.1-.1,0-.2.1-.2l.4-.1h.1l.5.7v.1l-.2.5C69.9,44.8,69.8,44.9,69.8,44.8Z" fill="#280f0e"/>
          <path id="XMLID_2996_" d="M69.3,46.8,70,46l-1.9-2.6-1.1.3Z" fill="#32150d"/>
          <path id="XMLID_2991_" d="M64.6,44.8h0c-.2-.3-.1-.5.1-.6l2.1-1.1a.44.44,0,0,1,.5.1l2.4,3.6a.3.3,0,0,1,0,.4L68,48.9a.33.33,0,0,1-.5,0h0a.44.44,0,0,0-.5-.1l-.8.4c-.2.1-.2.3-.1.5l.1.2c.1.2.1.4-.1.5l-7.2,5.3c-.2.1-.4.1-.5-.1l-3-3.6c-.1-.2-.1-.4.1-.5l7.2-5.9c.2-.1.4-.1.5.1l.2.2a.283.283,0,0,0,.5,0l.7-.7C64.7,45.2,64.7,45,64.6,44.8Z" fill="#cc4a27"/>
          <path id="XMLID_2988_" d="M63.6,46.7a1.136,1.136,0,0,0,.8-.3l.7-.7a.913.913,0,0,0,.2-1.1l1.6-.8,1,1.6L57.3,53.2l-1.1-1.4,6.7-5.5A.842.842,0,0,0,63.6,46.7Z" fill="#f47b20"/>
        </g>
        <path id="XMLID_2975_" d="M63.7,53.5s-1.5-2.2.3-2.9V49.1s-1.2-1.7-.7-1.8c.4-.1,1.6.7,2,2a10,10,0,0,1,.4,2.6Z" fill="#fbc1a5"/>
        <path id="XMLID_2956_" d="M67.3,54.4,65.6,52l-3.2,1.9.7,2.2Z" fill="#ee357c"/>
        <path id="XMLID_2963_" d="M70.3,64.2c-.1-.9,1.8,2.7,2.1,1.8.7-2.1.7.1,1.1.9,6.3-12.4,8.6-15.3,14.1-14.4-1.7,5.3-3.6,10.6-5.7,15.7-.7,1.7-1.6,1.8-3.1,2.8-1.6,1.1-5.3,5.9-8.4,3.5-1.1-.8-2.7-3.2-4.2-5.7a4.643,4.643,0,0,1-.6-4.1C66.2,63.4,69.1,63.4,70.3,64.2Z" fill="#cc1d60"/>
        <g id="XMLID_3200_">
          <path id="XMLID_3201_" d="M102.4,31a4.86,4.86,0,0,1,2.9-.5,3.419,3.419,0,0,1,2.6,1.4,4.652,4.652,0,0,1,.3,4,13.821,13.821,0,0,0-1,4,3.808,3.808,0,0,0,.3,1.6,1.681,1.681,0,0,0,1.3.9,1.216,1.216,0,0,0,1.3-.9,3.829,3.829,0,0,1,.1,3.6,5.26,5.26,0,0,1-2.8,2.3,9.379,9.379,0,0,1-3.7.4,9.692,9.692,0,0,1-5.2-1.9,7.541,7.541,0,0,1-2.8-7,7.08,7.08,0,0,1,1.8-3.8,10.7,10.7,0,0,1,1.6-1.4c.5-.3,1.2-.5,1.5-.9a7.689,7.689,0,0,1,1.8-1.8Z" fill="#32150d"/>
        </g>
        <g id="XMLID_3182_">
          <path id="XMLID_3183_" d="M81.5,110.1c.8,1.2-.1,6.7,2.3,13.5a48.683,48.683,0,0,1,2.6,13.7h2a3.749,3.749,0,0,1,1.1.1c-.3-1.9-.6-4.1-.8-5.9-.4-3.3.1-12-.5-13.5a35.1,35.1,0,0,1-1.4-5.3c-.1-1,.1-14.9.1-14.9l-9.3-3.3s2.3,9.8,2.7,11.7C80.9,108.3,80.7,108.9,81.5,110.1Z" fill="#f68c6e"/>
        </g>
        <g id="XMLID_3180_">
          <path id="XMLID_3181_" d="M92.1,97.6s-.9,8.3-1.1,10.3a12.134,12.134,0,0,0,.6,5.5c.6,1.5,3.1,6.8,3.7,10.8.6,3.9,1.2,13,1.9,15.8a4.015,4.015,0,0,1,.3,1.5c0,.3,1.4,2.4,1.9,3.8.4,1.4.4,3-.8,3.3s-2.1-1.5-2.6-3.3-.4-2.9-.7-3.6a4.647,4.647,0,0,1-.2-1.8c-.2-1.2-5.4-13.2-6-15.6-.6-2.3-1.5-6.5-2.2-7.4-.6-1-2-2.3-2.1-4.7-.1-2.5-2.6-15.2-2.6-15.2Z" fill="#fbc1a5"/>
        </g>
        <g id="XMLID_3178_">
          <path id="XMLID_3179_" d="M94.1,136.3a.908.908,0,0,0,.7-.3.854.854,0,0,0,0-.7c-2.2-7-4.2-14.1-6.4-21a2.04,2.04,0,0,1-2.3-.6,4.648,4.648,0,0,1-.9-2.3,20.36,20.36,0,0,1,.4-8.5,10.7,10.7,0,0,0,5.9-.4c.3-2.5.5-4.8.5-4.8l-9.3-.8-.6.6c.5,2.6,2.4,12.5,2.5,14.6.1,2.5,1.5,3.8,2.1,4.7.6,1,1.5,5.1,2.2,7.4.4,1.6,3.1,8.1,4.7,12.2A2.036,2.036,0,0,0,94.1,136.3Z" fill="#f79e7d"/>
        </g>
        <path id="XMLID_3112_" d="M87.2,49.9s.7-.8,2.6-.5c1.8.3-1.3,1.8-1.3,1.8Z" fill="#ee357c"/>
        <g id="XMLID_3164_">
          <path id="XMLID_3165_" d="M88.2,53.9a4.726,4.726,0,0,0,2.2.7c1.3,0,1.7-.7,2.2-.8l4.1-9.5-7.5,3.4V48Z" fill="#fbc1a5"/>
        </g>
        <g id="XMLID_3162_">
          <path id="XMLID_3163_" d="M88.8,50.3l.4-2.3v-.3l4.6-2.1h1.7C94,48.2,91.6,50.7,88.8,50.3Z" fill="#f79e7d"/>
        </g>
        <path id="XMLID_3108_" d="M85.5,35.4a6.889,6.889,0,0,1-.3.8c-.1.2-.1.3-.3.4a.44.44,0,0,1-.5.1.651.651,0,0,0,.9.2c-.1.1-.1.3-.2.4a2.258,2.258,0,0,1-1.4,1.3,1.391,1.391,0,0,0,1.5-.4,6.552,6.552,0,0,0,0,1.4,1.814,1.814,0,0,1-.3,1.3.52.52,0,0,1-.4.2.6.6,0,0,1-.4-.1,1.134,1.134,0,0,0,1.3.4,2.132,2.132,0,0,0,1-1.1,6.678,6.678,0,0,0,.2-3.7,1.613,1.613,0,0,0-.3-.9.63.63,0,0,0-.8-.3Z" fill="#4b1d0d"/>
        <path id="XMLID_3054_" d="M99.1,42.2a3.265,3.265,0,0,1-1,3.2,2.7,2.7,0,0,0-.8.7c-.2.3-.5.6-.5.9a.751.751,0,0,0,.4.9,1.308,1.308,0,0,1-1-1.4,1.721,1.721,0,0,0-.2,1.2,4.131,4.131,0,0,1,1.6-5.5C98.1,41.9,98.8,41.8,99.1,42.2Z" fill="#4b1d0d"/>
        <g id="XMLID_3160_">
          <path id="XMLID_3161_" d="M87,33.3A14.392,14.392,0,0,0,85.6,37a7.376,7.376,0,0,0,.4,2.6,7.349,7.349,0,0,1-.7,1.6c-.4.6-.4,1.5.2,3.3a13.463,13.463,0,0,1,.9,2.8c.1.8.2,1.7,2.1,1.6a13.853,13.853,0,0,0,5.9-2.1,19.206,19.206,0,0,0,2-2.3s.6.5,1.9-.8c1.2-1.3,1.2-3.1-.6-2.3,0,0,1.6-1.4,1.1-5.1a6.025,6.025,0,0,0-6.9-5C89,31.6,87.7,32.3,87,33.3Z" fill="#fbc1a5"/>
        </g>
        <g id="XMLID_3027_">
          <path id="XMLID_3030_" d="M95.2,41.5a.6.6,0,0,0-.4.1C95,41.6,95.1,41.5,95.2,41.5Z" fill="#f79e7d"/>
          <path id="XMLID_3031_" d="M97.4,38.5a5.762,5.762,0,0,0-3.2-3.3,12.727,12.727,0,0,0-7.7-.9c-.2.6-.4,1.2-.6,1.7a18.73,18.73,0,0,1,8.7,1.9,1.485,1.485,0,0,0,.4,1.4,3.528,3.528,0,0,1,.8,1.3.87.87,0,0,1-.4.9c.3,0,.7-.1,1-.1a3.3,3.3,0,0,0-1.3,3.2A16.473,16.473,0,0,0,97,41.9a5.748,5.748,0,0,0,.4-3.4Z" fill="#f79e7d"/>
        </g>
        <path id="XMLID_3056_" d="M94.8,36.8a3.132,3.132,0,0,0,.2,1.9c.2.4.4.7.6,1.1.1.4.1.9-.2,1.1A.779.779,0,0,0,96,40a1.489,1.489,0,0,1,.2,1.8,15.257,15.257,0,0,1-1.1,1.6,1.979,1.979,0,0,0-.4,1.8A2.8,2.8,0,0,1,95.8,43a7.725,7.725,0,0,0,1.7-1.9,4.514,4.514,0,0,0-.4-3.9,2.836,2.836,0,0,0-.8-1.1,1.063,1.063,0,0,0-1.2-.2C94.8,36.1,94.5,36.5,94.8,36.8Z" fill="#4b1d0d"/>
        <g id="XMLID_3141_">
          <path id="XMLID_3142_" d="M98.4,41.7c.4.7-1.2,2.2-1.7,2.2-.5-.1-.1-.6.1-.7.6-.4-.1-.3.1-.7C97.3,42,98.2,41.2,98.4,41.7Z" fill="#f79e7d"/>
        </g>
        <g id="XMLID_3131_">
          <path id="XMLID_3132_" d="M77.3,78.2a30.729,30.729,0,0,0-.2,18.6S79.9,99,82,99l.3,1.6s7.7,1.4,11.2-.4l1.4-7s1.9-10.1-3.6-14.6C85.9,74,77.3,78.2,77.3,78.2Z" fill="#f9a11b"/>
        </g>
        <path id="XMLID_3035_" d="M77.3,78.2A29.034,29.034,0,0,0,76,84.3a9.681,9.681,0,0,0,6.4,2.1,32.179,32.179,0,0,0,12.1-3,9.556,9.556,0,0,0-3.1-4.8C85.9,74,77.3,78.2,77.3,78.2Z" fill="#f36b21"/>
        <g id="XMLID_3099_">
          <path id="XMLID_3100_" d="M86.7,141.5s-1.2-7.7-1.1-7.9a29.637,29.637,0,0,1,3.8-.9l.8,8.3Z" fill="#f3e1d8"/>
        </g>
        <g id="XMLID_3063_">
          <path id="XMLID_3064_" d="M80.4,82.9a6.677,6.677,0,0,0,1.2,3.2s-2.2.5-3.7-2.2a39.664,39.664,0,0,0,3.7,5.7c1.3,1.5-1.9,6.9-5.1,4.9a17.128,17.128,0,0,0,.6,2.2S79.9,99,82,99l.5-13.6S81.5,85.5,80.4,82.9Z" fill="#f36b21"/>
        </g>
        <path id="XMLID_3055_" d="M90.2,31.2c2.7-2.2,10.1-2.5,12.1,2.7a5.879,5.879,0,0,1-2.6,7.6Z" fill="#4b1d0d"/>
        <path id="XMLID_3133_" d="M99.4,66.4l-5.9,7.3s2.2,1,.6,2.2L95.7,81s-7.3,3.7-13.6,3.7S74,81.5,74.2,81a16.167,16.167,0,0,1,.8-2s-1.3-.3-.4-1.9,0,.1,1.3-2.3,4.4-10.1,4.4-10.1-3.3-3.5-.4-6.5a68.242,68.242,0,0,1,6.4-5.7l9,1s6.9,3.3,8.7,6.5c1.9,3.2,5.3,14,5,17.1h-6.7s-1.5-1.5.4-1.9c0,0-1.1-.1-.7-1.6C102.3,72,99.4,66.4,99.4,66.4Z" fill="#ee357c"/>
        <path id="XMLID_3110_" d="M109,77.1c-.1,6.9-5.5,12.4-5.2,14.2s-.5,2.4-1.7,3.3l-4.3-1.4a4.029,4.029,0,0,1,.6-5.2c2.5-2.6.4-4.8,2.4-8,2.1-3.2.7-4.8,2.9-4.8a16.516,16.516,0,0,1,5.3,1.9Z" fill="#ee357c"/>
        <path id="XMLID_3135_" d="M97.8,93.1,97.5,96l3.7.6.9-2Z" fill="#cc1d60"/>
        <path id="XMLID_3053_" d="M85.3,35.8s8.5-2.7,12.2,5.5c0,0,2.3-.9,1.1,1.8a8.318,8.318,0,0,0,2-.9c.2-.3,1.9-5.9-1.3-9.5s-9.6-3-10.6-2.3a7.894,7.894,0,0,0-3.4,5.4Z" fill="#ee357c"/>
        <path id="XMLID_3036_" d="M93.7,35.4a13.409,13.409,0,0,0-7.1-1.5c-.1.3-.3.6-.4.9a13.786,13.786,0,0,1,2.2-.2,9.924,9.924,0,0,1,9.4,5.8h.6A9.948,9.948,0,0,0,93.7,35.4Z" fill="#cc1d60"/>
        <path id="XMLID_2967_" d="M100.5,38.2a7.667,7.667,0,0,0-1.7-5.1c-2.1-2.3-5.5-2.6-7-2.6h-.1a15.915,15.915,0,0,1,6,6.4,14.632,14.632,0,0,1,2.8,1.3Z" fill="#f05f88"/>
        <path id="XMLID_3111_" d="M87.2,49.9s2.6,2,7,0l.7-1.6,1.6,1L95,54.2a8.741,8.741,0,0,1-6.1.3,4.466,4.466,0,0,1-2.7-2Z" fill="#cc1d60"/>
        <g id="XMLID_2958_">
          <path id="XMLID_2959_" d="M97.2,64.7a6.418,6.418,0,0,1-7.3,1.6c-1.7-.8-3.1-2.4-4.8-3.1-1.4-.6-2.9-.7-4.3-1.2a5.071,5.071,0,0,1-1.6-.9,5.818,5.818,0,0,0,1.4,3.1l.3.3-.2.4c-.1.3-3.1,7.8-4.4,10.2a12.055,12.055,0,0,1-.9,1.6,3.578,3.578,0,0,0-.4.7,1.433,1.433,0,0,0-.2.7c0,.1.2.1.2.1h0l.8.2-.3.8c-.2.4-.5,1.4-.7,1.8.2.6,2,2.9,7.1,2.9H82a23.332,23.332,0,0,0,5.8-.9c-1-.3-2-.6-3.1-1a9.864,9.864,0,0,1-4.5-2.4,6.911,6.911,0,0,1-1.4-4,13.944,13.944,0,0,1,1.8-8.2,56.806,56.806,0,0,0,5.7,5.3,14.989,14.989,0,0,1-5.9-3.3,10.924,10.924,0,0,0,7.3,6.1,8.086,8.086,0,0,1,2.5.8c1.7,1,2.1,3.1,3,4.8.6-.3,1.1-.5,1.5-.7l-1.5-5,.4-.3.3-.3a1.359,1.359,0,0,0-.8-.6l-.8-.2,7.1-8.8a3,3,0,0,1-2.2-.5Z" fill="#cc1d60"/>
          <path id="XMLID_2960_" d="M99.6,65.2Z" fill="#cc1d60"/>
        </g>
        <path id="XMLID_2966_" d="M104.1,85.4a8.235,8.235,0,0,1-5.9,4,3.161,3.161,0,0,0,0,3.2l3.7,1.2a2.032,2.032,0,0,0,1.1-2.4c-.2-1.1.7-2.8,2.3-5.8a42.7,42.7,0,0,0,3.2-7h0c-2.4,2.2-4.1,5.3-6.7,7.5C102.6,85.8,103.4,85.6,104.1,85.4Z" fill="#cc1d60"/>
        <path id="XMLID_2955_" d="M105.8,31.5a3.123,3.123,0,0,1,1.6,1.6c.5,1.3,0,2.8-.5,4.2-.5,1.3-1,2.9-.3,4.2a4.287,4.287,0,0,1-.7-3.3,5.471,5.471,0,0,0-.4,3.1,6.146,6.146,0,0,1-.5-3,5.549,5.549,0,0,0-.6,2.2,7.778,7.778,0,0,1,.2-4,11.5,11.5,0,0,0,.6-1.7,2.464,2.464,0,0,0-.2-1.7,1.147,1.147,0,0,0-1.6-.3,2.254,2.254,0,0,1,2.7.1,4.929,4.929,0,0,0-2.3-1.1C104,31.2,105.2,31.3,105.8,31.5Z" fill="#4b1d0d"/>
      </g>
      <g id="Group_6749" data-name="Group 6749" clip-path="url(#clip-path)">
        <path id="XMLID_1005_" d="M54,50.9c.9.9,3.7,16.8,4,19.3.2,2.6-5,17.4-5,17.4s-2.1-28.4-2.1-28.5C50.7,59,54,50.9,54,50.9Z" fill="#6dbdbf"/>
        <path id="XMLID_1403_" d="M54.9,65.1A19.1,19.1,0,0,0,57.1,72a6.633,6.633,0,0,0,.2-1.7c-.2-2.3-1.8-11-2.9-15.8a47.121,47.121,0,0,0,.5,10.6Z" fill="#9ad2bf"/>
        <path id="XMLID_71_" d="M40.6,23.4a7.363,7.363,0,0,1,4.3,1.4,1,1,0,0,1,.4.5,1.022,1.022,0,0,1-.4,1,4.012,4.012,0,0,1-2.4,1c-1.5.2-4.3,0-5.1-1.5C36.3,24,39.4,23.4,40.6,23.4Z" fill="#0e0c0e"/>
        <g id="XMLID_55_">
          <g id="XMLID_68_">
            <path id="XMLID_1051_" d="M43.2,132.5a90.259,90.259,0,0,1,.2-12.9c.6-4.1,1.1-6.3,1.1-6.3a1.53,1.53,0,0,1-.4-1L38.2,95.1a138.352,138.352,0,0,1-.4-15.8l7.9-.3s6.5-.5,6.7,1.5c0,0-.9,2.4,0,11.3a87.484,87.484,0,0,1-.5,17.5,8.761,8.761,0,0,1,.3,4.7c-.5,2.9-1.6,15-2.1,18.8-.5,3.9-.7,5.8-.5,7.5.1,1.7.5,3.2.5,3.6,0,0-4.7,1.2-6.6,3.4a7.171,7.171,0,0,1-.5-1.4c0-.3.1-2,.1-2s-.5-.1-.4-1.1A83.957,83.957,0,0,0,43.2,132.5Z" fill="#1a181a"/>
          </g>
          <g id="XMLID_66_">
            <path id="XMLID_67_" d="M43.3,142.8v.5l.4.1v.5a15.557,15.557,0,0,0-.1,2c0,.1.1.2.1.4a17.3,17.3,0,0,1,5.8-2.9.6.6,0,0,0-.1-.4c0-.2-.1-.4-.1-.6-4.5-.5-4.8-10.1-3.8-18.1.7-5.6,3.8-8.1,6-9.2.1-.5.1-.9.2-1.3.5-2.6-.2-4.3-.3-4.3v-.2s-.1-1.1-.6-3.6c-4.1.1-9.7-10.3-8.2-13.4,1.3-2.6,4.3-8,4.3-8l-3-5.3c-.3,2.8-6.1,12.9-6.4,13.6l.5-.1,6.7,19.6v.1a.764.764,0,0,0,.2.5l.2.2-.1.3s-.5,2.3-1.1,6.3a63.025,63.025,0,0,0-.3,9.8c0,1,0,1.9.1,3a68.022,68.022,0,0,1-.5,9.9,2.142,2.142,0,0,1,.1.6Z" fill="#0e0c0e"/>
          </g>
          <g id="XMLID_60_">
            <path id="XMLID_61_" d="M31.5,79.7l9.9-.4c0,4.6-.1,9.1.2,13.7l-.1-.2s-1.1,14.7-1.1,16c0,1.2.5,3.3.3,3.9l-.8,2.4s-.4,7.1-.1,17.5,1,12.4,1,12.4l-.4,1.3a13.412,13.412,0,0,1-2.9.7c-.9,0-1-1.1-1.9-2s.1-1.2-.4-3a128.035,128.035,0,0,1-3.5-16.1,62.75,62.75,0,0,1,.1-14.9s-1.3-1.9-.2-2.1c0,0-1.1-1.1-.6-2.2.4-1.1-.5-7.1-.8-12.6C30,88.5,31.5,79.7,31.5,79.7Z" fill="#1a181a"/>
          </g>
          <path id="XMLID_1416_" d="M42,93c-.2-3.2-.3-6.3-.2-9.5a6.931,6.931,0,0,0-6.4-.4c-2.3,1.1-3.6,3.6-4.5,6a8.8,8.8,0,0,0-.5,1.5,19.267,19.267,0,0,0,0,3.4c.2,5.5,1.2,11.5.8,12.6a2.466,2.466,0,0,0,.6,2.2c-1.1.1.2,2.1.2,2.1a2.8,2.8,0,0,1-.1.6h.4a17.359,17.359,0,0,0,8.3-3c.1-2.4,1.4-15.7,1.4-15.7Z" fill="#0e0c0e"/>
          <g id="XMLID_58_">
            <path id="XMLID_59_" d="M45.7,78.9l-7.9.3v.2l-6.3.3a2.8,2.8,0,0,1-.1.6,1.329,1.329,0,0,0-.7-.3c-1.1-.1-1,1.1-1.1,2a11.019,11.019,0,0,0-.2,1.8,24.117,24.117,0,0,0,12.5,3.8,28.167,28.167,0,0,0,10.3-2c-.1-3.9.4-5.1.4-5.1C52.2,78.4,45.7,78.9,45.7,78.9Z" fill="#0e0c0e"/>
          </g>
          <g id="XMLID_56_">
            <path id="XMLID_57_" d="M35.8,141.6a3.862,3.862,0,0,1,.1,2.1c-.1.4-.1.5.2.7a7.293,7.293,0,0,1,.9,1.1c.3.5.5.7.7.7h.1a6.539,6.539,0,0,0,2.3-.6l.3-.9c-.2-.7-.7-3.6-.9-12.4-.3-10.3.1-17.4.1-17.5v-.2s.6-1.7.8-2.3a12.275,12.275,0,0,0-.1-1.7.9.9,0,0,0-.1-.5c-1,3.7-2.2,7.4-3.5,7.5-1.4.1-3.2-1-4.6-2a47.824,47.824,0,0,0,.3,9.9,118.235,118.235,0,0,0,3.4,16.1Z" fill="#0e0c0e"/>
          </g>
        </g>
        <g id="XMLID_959_">
          <g id="XMLID_962_">
            <g id="XMLID_49_">
              <path id="XMLID_53_" d="M33.9,38.3,36.5,48s7.1,14.7,5.8-.2v-.4Z" fill="#fbc1a5"/>
            </g>
            <g id="XMLID_46_">
              <path id="XMLID_47_" d="M42.3,47.4l.1-3.4-3.9-2.6-1.9.3C36.6,41.6,39.2,47.5,42.3,47.4Z" fill="#f79e7d"/>
            </g>
          </g>
        </g>
        <g id="XMLID_957_">
          <path id="XMLID_958_" d="M51.9,50a28.054,28.054,0,0,0-9.6-2.6l.6,1L41.8,50l-.3,4.3-1.1-4.1-1.7-.1s-1.5-2.5-1.5-2.7a31.424,31.424,0,0,0-12.1,3.4c-3.3,1.8,2.1,8.6,2.1,8.6l5,14.7s-1.2,3.2-1,4.5a2.932,2.932,0,0,0,.4.8c8.1,3.9,14.1,4.3,19,.3.6-.5-.1-3.3-.1-3.3L51,59.2C53.6,53.6,53.8,50.9,51.9,50Z" fill="#f3e1d8"/>
        </g>
        <g id="XMLID_953_">
          <path id="XMLID_954_" d="M45.4,63.7a7.512,7.512,0,0,0-5.2,1.8c-1.7,1.4-3.7,2.6-6.2,1.8a7.83,7.83,0,0,1-3.4-3.1c-.8-1-1.5-2.2-2.2-3.2l4.4,13-.1.2a12.641,12.641,0,0,0-1,4.2.914.914,0,0,0,.3.5c4.2,2,7.7,3,10.7,3h0a11.108,11.108,0,0,0,7.5-2.8,5.774,5.774,0,0,0-.3-2.7v-.1L51.4,62C51.1,62.1,47.1,63.8,45.4,63.7Z" fill="#ccccce"/>
        </g>
        <path id="XMLID_45_" d="M43.3,46.7s9.9,2.5,10.7,4.2-2.7,10.4-2.2,15.3,2.6,39.1,2.6,41.5a25.064,25.064,0,0,1-6.7.7S47.3,66.1,46.3,61a106.94,106.94,0,0,0-3-11.1Z" fill="#9ad2bf"/>
        <path id="XMLID_44_" d="M42.9,46.1s4.3,1.3,4.7,2.6c.4,1.4-2,2.1-2,2.1a20.583,20.583,0,0,1,2.8,5.6c.6,2.5-1.6,10.8-1.6,10.8Z" fill="#6dbdbf"/>
        <g id="XMLID_566_">
          <path id="XMLID_568_" d="M42.4,45.9a15.822,15.822,0,0,1-.6,4.1s2.3,2.3,2.8,2.3c.5-.1-.2-5.2-.5-5.8S42.4,45.9,42.4,45.9Z" fill="#ccccce"/>
        </g>
        <g id="XMLID_43_">
          <path id="XMLID_551_" d="M42.8,48.2c-.1.6-.2,1.2-.3,1.7a18.269,18.269,0,0,0,1.7,1.5,20.917,20.917,0,0,0-.4-3.4A3.553,3.553,0,0,1,42.8,48.2Z" fill="#f3e1d8"/>
        </g>
        <path id="XMLID_42_" d="M46.2,26.4A2.607,2.607,0,0,1,50,29.2c-.2,1.1-1.1,1.9-1.6,2.9a1.884,1.884,0,0,0-.2.8c.1.3.3.5.6.4a1.894,1.894,0,0,1-2.2-.6,4.539,4.539,0,0,1-.8-2.3,13.279,13.279,0,0,1,.4-4Z" fill="#0e0c0e"/>
        <g id="XMLID_40_">
          <path id="XMLID_41_" d="M47.3,29.2a9.463,9.463,0,0,1,.4,4.4,10.778,10.778,0,0,1-1.2,2.6,12.5,12.5,0,0,1,.3,1.9c0,.8-.2,1.4-1.2,3.5-.9,1.8-2.7,4.5-4.6,3.8a15.836,15.836,0,0,1-5.7-4,16.612,16.612,0,0,1-1.4-3.1s-.8.3-1.7-1.5-.4-3.7,1.4-2.3c0,0-1.3-2,.4-5.8,2.1-4.8,6-4.5,8.9-3.2C45.7,26.8,46.8,27.9,47.3,29.2Z" fill="#fbc1a5"/>
        </g>
        <g id="XMLID_38_">
          <path id="XMLID_39_" d="M32.4,34.7c-.6.6.6,2.8,1.1,2.8.6.1.3-.6.1-.8-.5-.6.2-.3.1-.8S32.9,34.3,32.4,34.7Z" fill="#f79e7d"/>
        </g>
        <path id="XMLID_37_" d="M42.4,25.4a18.993,18.993,0,0,0-4-1.4,5.782,5.782,0,0,0-4.1.5A9.137,9.137,0,0,0,32,26.6c-.4.5-.9,1-1.3,1.5a.864.864,0,0,0-.3.6.382.382,0,0,0,.5.3,1.232,1.232,0,0,0-.2,1c.1.3.4.4.7.6a2.2,2.2,0,0,1,.5,1.2c.1.4.1.9.3,2.3a1.19,1.19,0,0,1,1.1.4,3.88,3.88,0,0,1,.6,1.1,2.552,2.552,0,0,0,.7,1,.91.91,0,0,0,1.2.1,1.7,1.7,0,0,0,0-1,7.837,7.837,0,0,0-1-1.5A1.512,1.512,0,0,0,35.9,33a4.845,4.845,0,0,0,0-1.7,6.714,6.714,0,0,0,5.2-1,4.084,4.084,0,0,0,1.3-4.9Z" fill="#0e0c0e"/>
        <g id="XMLID_33_">
          <path id="XMLID_34_" d="M40.8,40.5a14.519,14.519,0,0,0,2,.2,2.264,2.264,0,0,1,1,.3s.5-.4.8-.1c.1.2.1.3-.5.4a4,4,0,0,1-1.9-.3,7.583,7.583,0,0,1-1.4-.5Z" fill="#e6836c"/>
        </g>
        <path id="XMLID_9_" d="M46.4,31.3a4.328,4.328,0,0,0,.4-6.2c-1.8-1.8-5.2-1.3-6,1.2a15.17,15.17,0,0,0-.3,2.1,2.748,2.748,0,0,1-1,1.9,1.215,1.215,0,0,1-1.8-.5,3.7,3.7,0,0,0,2,2.4,6.219,6.219,0,0,0,3.3.5,6.861,6.861,0,0,0,3.4-1.4Z" fill="#1a181a"/>
        <path id="XMLID_1004_" d="M39,68.7c.4,5.1-.1,34.5-.3,40.1a28.36,28.36,0,0,1-11.9-.9s1.1-21.5,2.9-32a.982.982,0,0,1-.2-1.3c.5-.7-1.2-.2-.8-1.8s-.8-10.1-1.2-11.3C27,60.2,25,50.8,25,50.8a31.626,31.626,0,0,1,6.7-2.5c3.1-.7,4.3,6.1,4.3,6.2Z" fill="#9ad2bf"/>
        <path id="XMLID_968_" d="M33.9,47.4l-2.1.3s-1.2,3-.8,3c.5.1,2.7-.3,2.7.5s-1.3,2.8-.1,4.5a58.208,58.208,0,0,1,5.5,13S39,53.9,37.9,51.1A7.117,7.117,0,0,0,33.9,47.4Z" fill="#6dbdbf"/>
        <path id="XMLID_1003_" d="M25,50.8c2.7-.3,6,6.9,3.8,13.1a59.653,59.653,0,0,1-3.4,8.3s.9.3-.4,1.4c0,0,2.3.3.2,2.1L31.5,91l-4,4.8S17.7,77.4,16.9,75.5,23.1,51,25,50.8Z" fill="#9ad2bf"/>
        <path id="XMLID_1420_" d="M25,79.5a18.9,18.9,0,0,1-3.3-8.9,35.552,35.552,0,0,1,0-10.8c0-.2.1-.3.1-.5-.4,1.1-.8,2.3-1.2,3.7-2.1,6.5-3.1,11.4-2.9,12.1.7,1.6,8,15.4,10,19.3l3-3.6-3.6-8.7A17.085,17.085,0,0,1,25,79.5Z" fill="#6dbdbf"/>
        <g id="XMLID_8_">
          <path id="XMLID_964_" d="M36.8,76.5h-.7c.1-2.1.1-8.1-1.5-9.6a.855.855,0,0,0-.9-.3,1.05,1.05,0,0,0-.9.5c-1.3,1.8-.7,7.3-.3,9.2l-.7.1c-.1-.3-1.3-7.4.5-9.8a1.873,1.873,0,0,1,1.4-.8,1.651,1.651,0,0,1,1.5.5C37.2,68.5,36.8,76.2,36.8,76.5Z" fill="#6dbdbf"/>
        </g>
        <path id="XMLID_5_" d="M32,76c-.6.2-.5,2.1.3,2C33,78,32.6,75.8,32,76Z" fill="#f3e1d8"/>
        <path id="XMLID_1056_" d="M36.5,76.4c-.6.2-.8,2,0,2C37.1,78.5,37.1,76.2,36.5,76.4Z" fill="#f3e1d8"/>
        <g id="XMLID_1057_">
          <path id="XMLID_963_" d="M33.6,66.6c-.2,0-.3-.1-.4-.3-.5-1.6-4.5-16-3.6-18a.381.381,0,1,1,.7.3c-.5,1.3,2,11.4,3.7,17.5a.51.51,0,0,1-.4.5C33.7,66.5,33.7,66.6,33.6,66.6Z" fill="#6dbdbf"/>
        </g>
        <g id="XMLID_1058_">
          <path id="XMLID_961_" d="M50.1,69.7h0a.43.43,0,0,1-.4-.4c.4-4.7-.3-17.1-1.7-21a.381.381,0,0,1,.7-.3c1.4,4.1,2.1,16.4,1.7,21.3C50.5,69.6,50.3,69.7,50.1,69.7Z" fill="#6dbdbf"/>
        </g>
        <path id="XMLID_2_" d="M51.4,71.8c-.2,1.2-1,2-1.8,1.9s-1.3-1.2-1.1-2.4,1-2,1.8-1.9S51.6,70.6,51.4,71.8Z" fill="#f3e1d8"/>
        <ellipse id="XMLID_960_" cx="1.5" cy="1.1" rx="1.5" ry="1.1" transform="translate(49.064 72.868) rotate(-81.31)" fill="#ccccce"/>
        <path id="XMLID_7_" d="M54,86.2c.9,2.9-1.5,5.9-1.4,9a48.637,48.637,0,0,1-1.4-8.5C51.2,84.1,53.2,83.5,54,86.2Z" fill="#9ad2bf"/>
        <path id="XMLID_1401_" d="M38.6,24.7a8.523,8.523,0,0,0-3.2.3,3.582,3.582,0,0,0-1.1.4A5.347,5.347,0,0,0,33,26.7a2.75,2.75,0,0,0-.5,2.3,3.321,3.321,0,0,1,1.7-1.8,5.291,5.291,0,0,0-1.1,2.1c.7-1.3,2.6-1.6,3.3-2.9a3.476,3.476,0,0,1-2.2,3.2,4.894,4.894,0,0,0,4.4-1.7c.1-.1.2-.2.3-.2s.1.2.1.3a3.128,3.128,0,0,1-.5,1c.5,0,.8-.4,1.1-.8a2.619,2.619,0,0,0,.4-2.1C39.6,25.3,39.3,24.8,38.6,24.7Z" fill="#1a181a"/>
        <g id="XMLID_945_">
          <path id="XMLID_946_" d="M35.9,45.3s3.9,4.2,4.5,4.8c0,0-2.6,2.6-3.3,2.8s-3.5-5.4-3.6-5.9C33.4,46.6,35.9,45.3,35.9,45.3Z" fill="#ccccce"/>
        </g>
        <g id="XMLID_569_">
          <path id="XMLID_944_" d="M37.6,48.1c-1.2.8-2.7.8-3.2-.8h0c-.1.1-.2.2-.2.3a24.778,24.778,0,0,0,3,4.9,18.3,18.3,0,0,0,2.5-2.2C39.1,49.7,38.3,48.9,37.6,48.1Z" fill="#f3e1d8"/>
        </g>
      </g>
    </g>
  </g>
</svg>
