<svg id="Layer_1" data-name="Layer 1" xmlns="http://www.w3.org/2000/svg" xmlns:xlink="http://www.w3.org/1999/xlink" viewBox="0 0 558 558"><defs><style>.cls-1{fill:none;}.cls-2{fill:url(#linear-gradient);}.cls-3{clip-path:url(#clip-path);}.cls-4{fill:#6c97f5;}.cls-5{fill:#23224d;}.cls-6{fill:#1e3865;}.cls-7{fill:#23224c;}.cls-8{fill:#f5ae90;}.cls-9{fill:#fdfdfd;}.cls-10{fill:#eaa38b;}.cls-11{fill:#2b274e;}.cls-12{fill:#d66765;}.cls-13{fill:#f7e9e8;}.cls-14{fill:#e9807c;}.cls-15{fill:#f4ccc7;}.cls-16{fill:#df7370;}.cls-17{fill:#e07370;}.cls-18{fill:#d66a68;}.cls-19{fill:#d76968;}.cls-20{fill:#ea8e8b;}.cls-21{fill:#e98e8b;}.cls-22{fill:#ea8c88;}.cls-23{fill:#e98884;}.cls-24{fill:#e88580;}.cls-25{fill:#e8847d;}.cls-26{fill:#e8817f;}.cls-27{fill:#e88382;}.cls-28{fill:#e98682;}.cls-29{fill:#e88783;}.cls-30{fill:#e98480;}.cls-31{fill:#e98886;}.cls-32{fill:#f1c9c5;}.cls-33{fill:#f2cac5;}.cls-34{fill:#f2c9c7;}.cls-35{fill:#f2c8c4;}.cls-36{fill:#f1c8c4;}.cls-37{fill:#f3c9c3;}.cls-38{fill:#f3ceca;}.cls-39{fill:#f2ceca;}.cls-40{fill:#f2cfca;}.cls-41{fill:#f5e4e5;}.cls-42{fill:#f5e1e1;}.cls-43{fill:#f6e2df;}.cls-44{fill:#f7e3e2;}.cls-45{fill:#f5e2e2;}.cls-46{fill:#f6e4e2;}.cls-47{fill:#f7e9e9;}.cls-48{fill:#f8e9e9;}.cls-49{fill:#f8e9e8;}.cls-50{fill:#f8e9ea;}.cls-51{fill:#f8eae9;}.cls-52{fill:#e54a4f;}.cls-53{fill:#cec0d6;}.cls-54{fill:#e07471;}.cls-55{fill:#dd656c;}.cls-56{fill:#e8807c;}.cls-57{fill:#e8827e;}.cls-58{fill:#e9817d;}.cls-59{fill:#ea8b88;}.cls-60{fill:#f5dfd9;}.cls-61{fill:#f4dad7;}.cls-62{fill:#f4b5ae;}.cls-63{fill:#f0e0db;}.cls-64{fill:#f5d3cf;}.cls-65{fill:#ebb2ad;}.cls-66{fill:#f2cfcb;}.cls-67{fill:#f4d9d2;}.cls-68{fill:#f3d0cd;}.cls-69{fill:#f1b6af;}.cls-70{fill:#ee9c99;}.cls-71{fill:#f5c3c3;}.cls-72{fill:#f2c4bf;}.cls-73{fill:#efb7b0;}.cls-74{fill:#f3cec5;}.cls-75{fill:#e9807d;}.cls-76{fill:#f2d0cd;}.cls-77{fill:#f3cecb;}.cls-78{fill:#e9817e;}.cls-79{fill:#f3d0ce;}.cls-80{fill:#f1beb6;}.cls-81{fill:#f3c3c1;}.cls-82{fill:#eebcb7;}.cls-83{fill:#f5dad4;}.cls-84{fill:#eb918c;}.cls-85{fill:#f2beb6;}.cls-86{fill:#f0a79f;}.cls-87{fill:#efbdb9;}.cls-88{fill:#e5aea3;}.cls-89{fill:#e99995;}.cls-90{fill:#e73d3e;}</style><linearGradient id="linear-gradient" x1="-0.44" y1="279" x2="557.56" y2="279" gradientUnits="userSpaceOnUse"><stop offset="0" stop-color="#ebebeb"/><stop offset="1" stop-color="#fff"/></linearGradient><clipPath id="clip-path"><circle class="cls-1" cx="279" cy="279" r="279"/></clipPath></defs><title>Remaining Icons</title><circle class="cls-2" cx="278.56" cy="279" r="279"/><g class="cls-3"><path class="cls-4" d="M39.4,474.41a19.19,19.19,0,0,1,8.32-11.36c9.38-6.23,11.36-15.95,11.88-26.25.85-2.18,2.78-2.41,4.75-2.91,9-2.26,18.12-4.71,26.42-8.9,7.16-3.61,14.65-4.66,22.3-5,6.67-.3,13.18-1,19.47-3.25a17.42,17.42,0,0,1,1.77,0c5.44,2,11.08,3.61,14.43,8.95a6.42,6.42,0,0,1-.3,4.08c-.62,1.2-2,1.37-3,2.2.86,1.81,3.75,2.21,3.45,4.83A5.27,5.27,0,0,1,146,439.6c-9.91,3.09-20.14,2.33-30.31,2.6C101,442.59,82.89,455,80.91,469.27a7.74,7.74,0,0,1-2.63,5.14Z"/><path class="cls-4" d="M78.28,474.41c-.45-11.16,5.16-19.18,13.56-25.57a43.17,43.17,0,0,1,27.58-9.09c7.81.12,15.87,1.53,23.27-2.66,1.6-.91,2.53.83,3.6,1.7a2.33,2.33,0,0,1,1.28,1.64c.67,10.36,3.82,20.3,5.2,30.54a4,4,0,0,1-1.05,3.44Z"/><path class="cls-4" d="M199.24,459.3c-3.32,4.83-4.38,9.81-1.08,15.11H153.88c-3.18-8.72-3.77-18-5.9-27,.38-6.32,1.08-6.88,7-5.22,3.35.93,6.74.69,10.12.67A133.18,133.18,0,0,1,186,444.07c2.81.43,5.39,1.25,6.86,3.63A78.43,78.43,0,0,1,199.24,459.3Z"/><path class="cls-4" d="M149.53,447.42c.72,9.12,4.3,17.77,4.35,27h-2.16c-1.42-11.93-5.87-23.4-5.43-35.62a2.55,2.55,0,0,1,2.28-2.23,1.06,1.06,0,0,1,1.46.38C151.64,440.52,147.13,443.8,149.53,447.42Z"/><path class="cls-5" d="M137.13,191.75c-1.29-20-3.7-40.12.63-60.05,2-9.22,6-17.26,16.25-20.31,3.56-1.06,4.25-5.67,7.54-7.36,2.84-1.34,5.25.11,7.65,1.28,11.22,5.46,20.89,13.25,30.73,20.75,10.13,7.73,20.18,15.54,31.67,21.24,17.37,8.62,33.1,6.55,47.79-6.34,2.56-2.25,5.09-4.54,7.74-6.68,1.54-1.25,3-2.73,5.2-1.12.29.62.55,1.25-.13,1.82a1.92,1.92,0,0,0,1-.86c1.23-2.17,2.79-3.9,5.44-4.23,1.8-.79,3.6-2.33,5.35.06-.9,13.29-7.3,23.87-16.58,32.86-2.34,2.28-3.19,4-2.15,7.35A17.33,17.33,0,0,1,284,183.24c-4.4,8.89-8,18.16-13.29,26.62a4.06,4.06,0,0,1-2.31-3.93c.21-8.38-1.26-16.69-1-25.05a5.48,5.48,0,0,0,0-1.07c-1.57-11.45-2.09-10-10.95-9.14-21.56,2-42.24-2-61.82-11.38-2.75-1.31-5.34-3-8.27-3.89-1.29-.38-2.57-1.34-4.14-.81-.62,2-.05,3.89.31,5.81a30.34,30.34,0,0,1-6.22,25.35c-4.05,5.13-7.49,10.55-8.85,17.06a4.48,4.48,0,0,1-.3,1.58c-1.07,2.43-1.87,5.63-5,5.52-2.81-.11-2.35-3.61-3.67-5.38-1.66-5.28-1.6-11-4-16.11-1.26-2.7-2.16-6.11-5.78-6.43-3.8-.34-5.54,2.61-7.15,5.52C140.56,189.35,139.68,191.47,137.13,191.75Z"/><path class="cls-5" d="M292.2,134.35c-1.51-1.41-2.06.1-3,.89-5.35,4.75-10.39,9.91-16.63,13.56-17.79,10.39-34.29,6.25-50.54-4.1-14.23-9.06-27-20.06-40.77-29.7-6.22-4.35-13-7.62-19.75-11a28.56,28.56,0,0,1,9.66-7.32c19.95.15,38.53,6.28,56.44,14.13,12.7,5.56,25.39,7.6,38.81,4.83,6.74-1.4,12.81-4.67,18.5-8.53,1.64-1.11,3.11-2.46,5.25-2.47,3.73,8,4.24,16.52,3.27,25.18C294.58,131.78,294.91,133.5,292.2,134.35Z"/><path class="cls-6" d="M269.81,338.83c1.58,7.17,2.67,14.44,7.78,20.36,1.67,1.93,2.43,4.81,3.14,7.39,3.61,13.13,6.89,26.35,9.21,39.79-2.85,2-5.59.25-8.37-.24-15.51-3.52-31.25-3.79-47-3.63-3,0-5.9,2-9,.51-2.65-2.21-1.69-4.89-.79-7.4,7.47-20.93,15-41.84,20-63.54a10.8,10.8,0,0,1,2.63-5.23,5.89,5.89,0,0,1,3.47-.9q3.47-.06,6.93,0a7.14,7.14,0,0,1,1.59.2c7.45,2.1,7.63,2.67,2.87,9.08C264.44,337.18,268.7,334.9,269.81,338.83Z"/><path class="cls-7" d="M290.21,104.67c-5.28,7.9-13.83,10.84-22.16,13-13.71,3.48-27.22,2-40.31-4.17-16.8-7.87-34.65-12.46-53-14.88-1.46-.19-2.9-.17-3.49-1.87,16.52-9.39,34-8.89,51.84-5.15,8.11,1.69,15.81,4.71,23.66,7.23,3.88,1.81,7.82,3.47,11.59,5.47,2,1.07,3.27.3,4.85-.71a96.37,96.37,0,0,1,10.13-6C283,92.86,286.5,94.43,290.21,104.67Z"/><path class="cls-6" d="M133.42,418.24c-6.95,2.67-14.19,3.1-21.56,3.41a56.91,56.91,0,0,0-22.11,5.68c-9.53,4.49-19.83,7.15-30.15,9.47-8.88,1.13-17.71,3-26.74,1.13-9.95-2-14.16-6.51-15.25-16.64-1.72-16.05,2.37-31.37,5.92-46.75,2.5-10.85,6.23-21.33,9.59-31.92.44-1.51,2.21-1.94,2.75-3.38a24.28,24.28,0,0,0,2.74-4.57,121.46,121.46,0,0,1,13.48-20.74c.46-.55-.17.1.31-.44,2.09-2.36,4.36-6.39,7.65-4.08,3.69,2.6.08,5.88-1.72,8.21A234.89,234.89,0,0,0,38.39,348.3c-7.85,14.25-10.71,30-14,45.62a100,100,0,0,0-2.13,23.54c.28,11,4.72,15.27,15.89,15.85,13,.67,25.49-1.76,37.49-6.2,15.33-5.67,30.48-11.62,47.23-11.13,2.52.07,4.85-1.38,7.35-1.58C132.82,414.18,135.2,414.55,133.42,418.24Z"/><path class="cls-4" d="M149.53,447.42c-1.77-3.54-1.4-7.09,0-10.63,1.27-1.76,3.17-1.7,4.88-1.29,12,2.85,24.22,1.73,36.36,2.06A14.81,14.81,0,0,1,195,438c2.59,2.09,5.64,3.35,8.63,4.75,1.66,1.68,1,3.75.92,5.72a31,31,0,0,1-5.34,10.83,10.23,10.23,0,0,1-6.57-7.26c-1.13-4.26-4-5.42-8.33-5.89-8.75-1-17.48-.77-26.22-.94-1.4,0-3.07,0-4.13-.79C149.63,441.4,149.34,443.94,149.53,447.42Z"/><path class="cls-6" d="M283.48,405.29c2.34-.77,4.34.54,6.46,1.08,2.7,10.67,4.93,21.38,3.42,32.5-1.68,12.32-8.1,18.34-20.38,18.51a198.85,198.85,0,0,1-57.51-7.92,2.42,2.42,0,0,1,1.46-3c8.35-.43,16.22,2.62,24.39,3.52,9.8,1.08,19.55,2.73,29.46,2.64,11.37-.11,16.84-5.12,17.83-16.49a69.2,69.2,0,0,0-2-21.91c-.62-2.67-3.07-4-3.8-6.41A2.64,2.64,0,0,1,283.48,405.29Z"/><path class="cls-4" d="M48.23,301l2.05.64a4.75,4.75,0,0,1,.47,5.51c-4.36,8.73-6.48,18.42-11.61,26.81a2.22,2.22,0,0,1-1.56.54,2.29,2.29,0,0,1-1.69-1.7A193.93,193.93,0,0,1,48.23,301Z"/><path class="cls-4" d="M216.58,447.56l-1.11,1.9c-2.14-.63-4.32-1.18-6.43-1.91-1.73-.6-3.33-1.15-4.46.92-.33-1.46-2.1-2.65-.8-4.4,4.25-3.47,8-1.13,11.81,1A3.31,3.31,0,0,1,216.58,447.56Z"/><path class="cls-6" d="M73.84,268.33c3-1.72,5.29-4.58,8.74-5.62,2,4.41,3.91,8.82,6.22,14.05,1.77-4,3.27-7.38,5.18-11.72l5,11.65a4.18,4.18,0,0,1,1.64,2.65,4.71,4.71,0,0,0-.19-.64c-.42-1.07,0-2.23-.36-3.31l-3.69-16.84c5.69-2.27,14.66.51,19.55,6.06A80.26,80.26,0,0,1,123.55,277c6.54,13.45,4.73,26.44-2.14,39.09-10,18.42-24,33.87-37.21,49.9-2.19,2.65-5.51,3.8-8.79,4.9-11.21,3.76-21,10-30,17.6-1.41,1.18-2.23,2.81-3.32,4.18,6.39-8.3,15.28-13.3,24.29-18.09,5.22-2.79,10.93-4.47,16.37-6.78C87,366,91.88,366.05,96.45,366c8-.1,15.12-2.57,21.91-6.38a36.35,36.35,0,0,1,11-4.23c4.25-.81,8.25-.42,10.88,3.72-.42,2.55-2.45,3.44-4.49,4.09-4.1,1.3-5.23,4.26-5.52,8.21-.69,9.66.56,18.89,5.08,27.56-1.32,4-.28,7,3.6,9a4,4,0,0,1,2.45,3.76c-.66,1.71-2.46,2.37-3.43,3.8a17.55,17.55,0,0,1-3.39,2.68l-1.11.05c-.09-1.67-.43-2.86-2.59-2-7.68,3.17-15.78,3.12-23.89,3.09-4.59,0-8.73,1.53-12.92,3.35-18.1,7.85-36.62,13.82-56.78,12.92C25.51,435.11,19.81,430,20,418.39c.54-32.91,8.62-63.55,28.17-90.59a190.42,190.42,0,0,0,11.68-17.65c-8.84,7.1-14.09,17-20.43,26-2,.09-1.78-.95-1.12-2.21,2.75-11.23,8.13-21.5,12-32.33l27.34,6.45c-2.29-3.92-4.1-7-6.14-10.52,4.36-.36,7.54,1.8,11.07,1.92,1.25,1,2.77-.12,4.06.51,1.08.35,2.13.78,3.18,1.05l.45.15a.46.46,0,0,0-.13-.07,23.53,23.53,0,0,1-2.69-.87,4.59,4.59,0,0,1-2.8-1.69L63,289.71l3.23,8.44c-4.53-.6-8.08-2.38-11.64-4.13l9.66-15c2.66,2.06,5.31,4.13,8,6.17.67.52,1.3,1.39,2.3.94s.72-1.5.69-2.32c-.08-2.45-.24-4.89-.38-7.68,3.09.52,4.44,2.88,6.53,4,2.85.82,4.72,3,6.8,4.89,1.15,1.15,2.3,2.31,3.46,3.45.69.84,1.54,1.53,2.27,2.32-.58-.61-1.2-1.2-1.8-1.8-1.44-1.52-2.91-3-4.44-4.43-1.57-2-4.48-2.85-4.91-5.81Z"/><path class="cls-8" d="M141.06,411.57c-2.28-1.4-4.63-2.71-6.83-4.22-3.53-2.44-4.06-4.9.26-7.12,2.7-2.73,4.76.27,7.06.78l.33.11c.42.22.44.23,0,0-3.58-1.14-5.26-3.64-3.85-7s4.59-2.87,7.46-2.07c3.67,1,6.56,4.56,10.91,3.39,5.27,2.93,11.14,4.28,16.82,6.56-3.78-3.86-7.7-7.1-13.37-6.89a27.87,27.87,0,0,0-5.91.42c-4.47-.54-6.73-3-8-7.41-2.49-8.32-1.9-16.73-1.75-25.16a6.34,6.34,0,0,1,1.46-4c.88-1.2,2.12-2.05,3.09-3.16,10-5.47,20.43-10.41,29.47-17.6a6.55,6.55,0,0,1,3.26-.64c4.43,3.5,4.33,5.75-.51,12.25a25.72,25.72,0,0,0-2.88,2.93c-.46.55-.37,1.12-.05.48,0,0,.27.09.46.12,7.76-3.87,15.36-7.93,23.06-11.78a18.14,18.14,0,0,1,1.95-.91c3-1,6.17-3.19,8.61.68,1.57,2.52-.05,5.54-3.94,8.17,1.79-.61,3-2.33,4.92-2.94,2.55-.81,5-1,6.83,1.47,1.67,2.27.76,4.37-.62,6.45-2.65,4-7.18,5.23-10.91,7.59a1.61,1.61,0,0,1,.25-.1c5.46-3.17,8.91-3.42,10.46-.4,2.41,4.72-1.66,6.71-4.4,9.07-5,4.28-11.14,6.3-17,8.87-1,.41-2,.65-2.95,1,1-.37,2.15-.61,3.18-1.07a60.12,60.12,0,0,1,9.51-3.77c2.7-.81,5.71-1.08,7.23,1.71,1.63,3-.75,5.13-3,6.68A49.65,49.65,0,0,1,197,390.7c-4.44-.15-8.28,2.3-13.11,2.71,2.71,1.39,5.19,1.79,7.37,2.94,3.85,1.64,8.17,2.17,11.58,4.87a11.36,11.36,0,0,1,5.38,8.28c1.29,7.63,2.18,15.23.66,22.94s-6,10.31-13.13,7.56c-14.05-.1-28.18,1.15-42.05-2.3-1.38-.34-2.77-.6-4.16-.91a1.34,1.34,0,0,0-1-.23c-1.73-.85-3.52-1.6-5.16-2.58-1.27-.76-3.42-1.3-2.76-3.26.59-1.73,2.49-1.63,4.14-1.34.86.15,1.73.22,2.6.32a4.92,4.92,0,0,1,4-.93c2.21,1,4.66,1,6.92,1.76.31.07.62.15.92.25.69.21-.24,0,.46.16,0,0-.09,0-.17-.08a46.53,46.53,0,0,0-5.95-1.38c-1.19-.35-2.28-1-3.47-1.31a7.61,7.61,0,0,1-2.64-2.62c-4.23-2.61-9.07-4.15-13-7.35-.43-2.06-.26-3.83,2.17-4.51a27.59,27.59,0,0,1,2.83-.65c.54-.51,1.51,1.14,1.82-.4A2.53,2.53,0,0,1,141.06,411.57Z"/><path class="cls-4" d="M147.5,425.55a4.52,4.52,0,0,1,3.18,1.29c.58.89,1.59,1.56,1.4,2.83-.11.19-.22.38-.34.56l-4.35-.53C147.43,428.32,147.47,426.94,147.5,425.55Z"/><path class="cls-8" d="M269.26,179.58c1.25,10.06,1.07,20.18,1.42,30.28-.1,3.23-.21,6.46-.31,9.69-1.38,1.85-3.5,2.4-5.52,3.08a18.06,18.06,0,0,0-6.62,3.44c-1.94,1.75-4.6,3.38-3.66,6.59.9,3,3.76,3.58,6.43,4,2.28.35,4.72.09,6.28,2.33-5.13,16.65-16.49,27.58-31.92,34.78-1.29.6-2.57,1.22-3.85,1.83a2.65,2.65,0,0,1-1.59,1.63c-2,1.25-4.59,1.16-6.59,2.53a6.07,6.07,0,0,1-3.37.37c-5.63-.19-11.28.63-16.88-.48C185,276.25,171,266.76,161.43,251.09c-4.7-7.7-8.21-15.94-7-25.37.85-6,1.43-12.09,2.58-18.07.36-1.9.46-4.07,3.14-4.31.61,1.95,1.21,3.91,2,6.53l3.68-7.5a155.16,155.16,0,0,1,13.59-20,26.56,26.56,0,0,0,5.79-19.66c-.2-2.07-1-4.55,1.27-5.95s4.29.34,5.93,1.45A108.5,108.5,0,0,0,215.39,170a118.66,118.66,0,0,0,45.4,7.36C263.76,177.25,267,176.68,269.26,179.58Z"/><path class="cls-9" d="M202.64,278c6.23-.08,12.46-.47,18.66.37,1.44,2,.4,3.74-.65,5.42a36.5,36.5,0,0,1-7.91,8.64c-10.34,8.6-22.05,15-33.81,21.37a17,17,0,0,1-4.39,1.84,5.23,5.23,0,0,1-1.58,0c-5-1.72-8.88-5.16-12.76-8.58-12.58-10.3-24.86-20.88-33.68-34.82-2.1-3.33-4.22-6.63-5.28-10.48-.74-2.68-1-5.29,1.22-7.49,2.27-10.72,15.87-19.14,26.46-16.4,2.05,2.55,1,5.31-.09,7.62-4.19,9-1.31,16.56,3.91,24a91.68,91.68,0,0,0,18.1,19.67c4.37,3.45,8.52,3.85,13.36,1.28,5.53-2.93,11.38-5.31,15.23-10.65A4.62,4.62,0,0,1,202.64,278Z"/><path class="cls-10" d="M202.64,278c-4.92,10.62-15,13.73-24.94,17-2.24.73-4.45-1.26-6.32-2.59-11.36-8.12-19.73-18.77-26-31.16a11.44,11.44,0,0,1-.7-8.89c1.48-4.8,2.82-9.65,4.22-14.49a20.17,20.17,0,0,0,2-7c0-3.34-1.12-7.12,3.64-8.37,1.73.69.36,2.61,1.4,3.58,1.34,19.49,11.41,33.49,27.38,43.91C189.33,273.86,196.33,275.06,202.64,278Z"/><path class="cls-8" d="M156,226.05c-.42-1.2-.85-2.39-1.27-3.58-4.68-.91-9.18-2.14-11.7-6.77-6.8-6.8-7.13-15.18-5.89-23.95,1.51-3.23,2.64-6.67,5.07-9.4,4.23-4.76,9-4.45,12.31,1,3.72,6.11,4.6,13.1,5.65,20C158.09,210.78,158.57,218.7,156,226.05Z"/><path class="cls-4" d="M122.46,254.24c-.24,8,4,14.28,8.38,20.38,8.62,12,19.63,21.65,30.59,31.35-2.17,2.31-2.85,2.63-5.85.81a211.12,211.12,0,0,1-24.55-17,12.37,12.37,0,0,0-3.86-2.67,66.4,66.4,0,0,0-11-21.41c-.8-2.51-3.83-3.43-4.38-6.12C116.07,259.28,118.3,254.83,122.46,254.24Z"/><path class="cls-11" d="M143,215.7c3,1.55,5.8,3.51,9.25,4,1.61.22,2.7.92,2.45,2.78L151,230.84C147.51,226.21,144.52,221.34,143,215.7Z"/><path class="cls-8" d="M269.26,179.58c-17.66.6-35.14-.24-52-6.38-9-3.27-17.71-6.88-25.34-12.79-1.35-1-2.66-2.46-5-2.61,4.5,20.35-10.13,31.57-21.1,44.57,1.67-6.23,3.52-12.27,8-17.33,7.9-8.94,8.49-19.39,5.3-30.38-.43-1.51-.91-3-1.48-4.88,2.86-.15,4.83,1.36,6.94,2.41,20.32,10.1,41.35,17.48,64.49,16.52a111,111,0,0,0,14.47-1.36c3.41-.59,4.64.49,4.85,3.68C268.61,173.89,269,176.73,269.26,179.58Z"/><path class="cls-4" d="M174.07,314.31l3.59-1.84c16-4.9,31.33-11.05,43.92-22.59,3-2.77,5.72-6,9.77-7.41,2.42-.1,3.88,1.27,5,3.23.68,3.66,4.3,4.83,6.32,7.37,1.55,1.94,3.5,3.55,2,6.36l-2.38,4.34c.42.74.85.38,1.29,0l2.23-2c6.24,1.79,5.11,6.79,5,11.35,1,3.95,1.11,7.87-.5,11.71-.28,1.34-2.52,1-2.35,2.76-2.58,15.8-7.68,30.9-12.81,46-3.23,9.49-6.63,18.92-10,28.38-2.24,2.5-5.71,2.2-8.4,3.69-5.57.89-10.26-2.14-15.33-3.5a46.58,46.58,0,0,1-11-4.27c-.85-4.69,2.21-7,5.59-9,5.38-2.42,11.24-3.85,16-7.61.94-.75,2.42-1.49,1.94-2.92-.6-1.77-2.41-1.39-3.72-1.11-4.37.94-8.7,2.08-13.05,3.15-.68-.33-.79-.79-.32-1.38,6.27-4.1,13.26-7.05,19-12,1.41-1.21,3.72-2.34,2.31-4.72-1.28-2.17-3.41-1.34-5.27-.64-2.33.88-4.65,1.82-7,2.73-1.15.42-1.35-.11-1.1-1.1,4.05-2.95,8.17-5.83,12.12-8.91,1.64-1.28,3.7-2.92,2.12-5.37s-3.85-1.46-5.79-.49c-3.42,1.71-6.74,3.63-10.85,4.42,2.22-1.93,4.53-3.77,6.63-5.81,1.53-1.5,3.28-3.46,1.67-5.59-1.37-1.82-3.39-.21-4.87.52-7.57,3.69-15,7.56-22.59,11.29a57.12,57.12,0,0,1-5.48,2.06c-1.73-2.5,1.48-4,1.26-6.21,1.54-3.35,7.16-5.89,2.09-10.55-2.87-1.89-1.41-4.92-1.91-7.43A132.39,132.39,0,0,0,174.07,314.31Z"/><path class="cls-4" d="M216.54,404c2.58-1.79,5.53-2,8.53-2a179.14,179.14,0,0,1,55.45,2.21,20.26,20.26,0,0,1,3,1.09v2.1c-2.1,2.22-4.64,1.17-7.05.88-14-1.66-27.89-3.95-42-1.89-5.17.76-10.32-.44-15.48-.66A3.13,3.13,0,0,1,216.54,404Z"/><path class="cls-4" d="M216.54,404l2,.25c5.55-.12,7.85,3.18,8.75,8.14,1.72,9.43,2.61,18.87-1.23,28-2.51,5.95-5.69,8-10.68,6.05-3.86-.88-7.6-2.37-11.64-2.37-2.33-2-6.86.26-8-4.07,9.7-1.15,11.88-3.82,11.71-16.16-.08-5.48-1.27-10.94-2-16.41-.33-2.58-2.29-3.88-4.16-5.25C206.63,401,211.42,403.89,216.54,404Z"/><path class="cls-6" d="M215.42,446.44c3.48.69,5.23-1.66,6.9-4,5.13-7.24,5.46-28.37.82-35.86-1.2-1.93-3.38-.9-4.56-2.28,15.49-.14,31-2.09,46.48-.08a138.13,138.13,0,0,1,18.41,3.19c3.48,1,4.91,3.24,5.67,6.91,1.78,8.72,3,17.4,1.12,26.17-2.13,10.12-7.57,14.47-17.77,14.47-19,0-37.51-3.11-55.91-7.38Z"/><path class="cls-4" d="M156.93,396.84c-4.56.25-8.69-1.46-12.91-2.78-1.65-.51-3.74-1.65-4.82.28s.66,3.62,2.11,5c.91.84,1.92,1.57,2.89,2.36-.44,1.08-1.34.95-2.23.85l-7.48-2.28C125.8,389.56,127,377.29,128.8,365c.41-2.83,3-2.63,4.91-3.41,2.13-.89,4.31-1.63,6.47-2.44a3,3,0,0,1,1.58-1.89,4.51,4.51,0,0,1,4.93-.38,1.81,1.81,0,0,1,.88,2.2c-2.74,10.76-1.56,21.38,1.62,31.81.69,2.24,3,3.57,5.6,3.52,1.55.11,3.38-1.3,4.59.57.51.8-.27,1.57-1,2.1A1.75,1.75,0,0,1,156.93,396.84Z"/><path class="cls-4" d="M142,358.64l-1.77.46c-6.52-3.68-13-2.77-18.9,1-9.63,6.25-20.53,6.79-31.36,8.46-19.45,3-36,11.67-48.77,27-1,1.18-1.41,3-4.66,2.79,3-5.1,6.09-9.44,10.36-12.76,9-7,18.38-13.22,29.5-16.35,3.13-.88,5.14-3.27,7.16-5.54C97,348.62,110.08,333.08,120,315.2c8.25-14.89,7.89-29.51-1.4-43.83-1.17-1.81-2.4-3.59-3.6-5.37.12-1.56,1-1.62,2.17-1.11,4.79,6.61,9.56,13.23,10.72,21.63,4.32,5.86,2.69,12.4,1.3,18.45-2.28,9.9-7.8,18.43-13.57,26.68A242.4,242.4,0,0,1,93.55,359.4,7.15,7.15,0,0,0,91.63,363c7.12-.08,13.82-.59,20.2-3.6,5-2.37,9.86-5.12,15.19-6.83,3.93-1.26,7.79-1.31,11.47.7C140.55,354.41,142.63,355.67,142,358.64Z"/><path class="cls-4" d="M141.06,411.57a1.57,1.57,0,0,1,.87.36c.22,1.72-.41,2.55-2.23,2.12l-3-.36Z"/><path class="cls-4" d="M142,358.64c-3.94-4.62-8.63-5.92-14.46-3.86-5,1.76-9.51,4.3-14.21,6.55-8.35,4-17.19,4.19-27.34,3.91,6.6-8,12.63-15,18.37-22.21a200.23,200.23,0,0,0,18.57-27.74c5.05-9.16,5.64-18.78,5-28.77,1.76-3.17,2.65.08,3.36.69,8,6.88,17.1,12.25,25.84,18.09,1.21.8,2.65,2.12,4.35.67l12.16,8.38c4.22,7.9,6.88,16.12,5.29,25.24-8.12,8.34-18.62,12.73-29,17.4-1.12.82-2.5.23-3.69.7Z"/><path class="cls-4" d="M156.93,396.84l1.29-.31c1.39-.39,1.29-1.92,2.13-2.74,4.6-1.19,8.18.11,11.35,3.77,1.9,2.2,4.68,3.63,6.83,5.91A30.06,30.06,0,0,1,156.93,396.84Z"/><path class="cls-4" d="M196,388.87q-2.79,4.51-5.59,9c-4.28-1.06-8.61-2-13-5.43Z"/><path class="cls-4" d="M178.88,339.59c-.81-8.62-3.26-16.88-5.29-25.24l.48,0c5.56,5.16,5.49,12.34,6.75,19a36,36,0,0,1,.22,5.31Z"/><path class="cls-4" d="M179,349.19c1.09,2.38-.59,4.19-1.26,6.21-1.49.25-3,.69-4.77-.44Z"/><path class="cls-4" d="M139.7,414.05l2.23-2.12a17.22,17.22,0,0,1,6.61,4C144.85,416.34,142.28,415.12,139.7,414.05Z"/><path class="cls-4" d="M153.88,428.05l6.39,2.16c.34,1,0,1.44-1.09,1.26-2.48-.38-5.09-.06-7.44-1.24l-.16-.35A6.83,6.83,0,0,1,153.88,428.05Z"/><path class="cls-4" d="M142,402.51l2.23-.85c1.45.67,3.38.75,3.77,3.12A7.06,7.06,0,0,1,142,402.51Z"/><path class="cls-4" d="M160.35,393.79c-.11,1.38-.2,2.78-2.13,2.74.58-3.46-3-.38-3.43-2.17C156.56,393.36,158.45,393.59,160.35,393.79Z"/><path class="cls-4" d="M159.18,431.47l1.09-1.26,5.55,1.56C162.5,432.47,160.83,432.53,159.18,431.47Z"/><path class="cls-4" d="M153.88,428.05a2,2,0,0,1-2.3,1.84c-.93-.84-1.75-1.7-.9-3.05Z"/><path class="cls-4" d="M196.78,379c.11.46.21.92.32,1.38a4.46,4.46,0,0,1-4.72.76A7.55,7.55,0,0,1,196.78,379Z"/><path class="cls-4" d="M193.87,359.55a6.29,6.29,0,0,1-1.29.88c-.48.2-1.13.15-.85-.59.14-.38.79-.64,1.26-.79C193.18,359,193.5,359.33,193.87,359.55Z"/><path class="cls-4" d="M146.23,357.69a3,3,0,0,1,3.69-.7,3.59,3.59,0,0,1-2.35,2Z"/><path class="cls-4" d="M204.73,363.28l1.1,1.1c-.89.83-2.15,2-3,.79C202.19,364.25,203.83,363.71,204.73,363.28Z"/><path class="cls-4" d="M231.61,283.47a97.74,97.74,0,0,1-45.3,28.24c-2.75.79-5.57,2.84-8.65.76,9.86-5.69,19.93-11.07,29-18.12,5.76-4.51,11.56-9,14.69-16l1.82-.92C227.11,277.82,230.67,278.79,231.61,283.47Z"/><path class="cls-4" d="M220.28,354.48a4.19,4.19,0,0,1,.45,1.18c0,.47-.09,1.12-.83.78-.24-.11-.41-.55-.47-.86C219.33,355.06,219.43,354.57,220.28,354.48Z"/><path class="cls-12" d="M404.45,253.47c2.94,4.29.45,8.72.12,13a23.15,23.15,0,0,1-2.61,8.74c-5.55,10.56-7,21.9-6.29,33.5.54,9.17-3.74,14.46-11.74,17.84-10.37,4.38-21.55,5.57-32.26,8.58-6.4,1.79-12.77,3.69-19.17,5.48-11.54,3.23-18.35-2.54-16.83-14.55,3-23.66,8.71-46.62,18.35-68.51,6.78-15.41,15.28-29.69,27.73-41.31,2,1.8,2,1.84.87,4.2-5.07,10.38-10.29,20.7-14.36,31.53-3.13,5.72-4.64,12.12-7.6,17.92a15.65,15.65,0,0,0-.64,2.25,131.75,131.75,0,0,0-8.84,38.08c-.32,3.71.33,7.12.85,10.62.43,2.85,2.57,3.85,5.28,4.54,9.87,2.51,19.14-.73,28.5-2.74a102.54,102.54,0,0,0,12-3.11c7.11-2.47,10-6,9.72-13.55-.28-8,.82-15.7,2.16-23.48a34.75,34.75,0,0,1,3.15-10.23c2.08-4,3.7-8.1,3.62-12.79a6.54,6.54,0,0,1,4.63-6.59A4.06,4.06,0,0,1,404.45,253.47Z"/><path class="cls-12" d="M491.5,217.31c14.33,13.31,23,30.2,30.07,48a247.54,247.54,0,0,1,14.91,58.88,35.88,35.88,0,0,1,.3,5.38c-.17,9.06-6.49,14.27-15.13,11.53-14.76-4.68-29.85-7.95-44.84-11.62a48.86,48.86,0,0,1-7.17-2.35c-10.28-4.25-13.12-8.14-12.82-19.22.31-11.53-1.38-22.51-6.44-33a41.49,41.49,0,0,1-3.58-14.59c.29-2.76-2.12-6.52,2.79-7.58,2.73.22,5.36,1.42,5.63,4.13.83,8.2,4.86,15.33,7,23s2.28,15.57,2.31,23.48c0,10.25,3.15,14.69,12.94,16.94,9,2.08,17.89,4.92,27.26,5.6,15.64,1.13,17.74-3.17,16.38-17.18-1.11-11.44-3.12-22.75-7.89-33.36a9.36,9.36,0,0,1-.64-3.15c-.32-5.29-4.24-9.18-5.57-14.11-.54-2-1.62-3.88-1.46-6.06-5.93-9.37-9.76-19.79-14.82-29.61C489.88,220.78,487.79,218.55,491.5,217.31Z"/><path class="cls-13" d="M404.45,253.47l-3.75.8c-3,.64-5.37,3.33-8.76,2.66a28.51,28.51,0,0,0-5.73,1.46c-9.06,3.16-10.62,8.55-4.74,16.38a5.67,5.67,0,0,1,2,4.55,3.26,3.26,0,0,1-2.91,2.95,4.8,4.8,0,0,1-3.24-.9c-2-1.48-3.52-3.49-6.12-6.09-1.54,7.14-5,13-5.18,19.87-.15,5-1.89,9.23-5.82,12.18s-6.06,6.37-5.73,11.28c-.52,1.11-1.24,1.88-2.61,1.62-2.5-1.61-2.9-4.17-3.06-6.84.41-3.87,1.06-7.65,3.94-10.63,1.81-1.89.17-2.22-1.25-2.6-1.23-.34-2.47-.65-3-2,.62-2.19-.93-2.64-2.49-3.08-1.06-.79-2-1.62-1.81-3.14,1.35-2.11,3.55-2.06,5.67-2.21,5.69-.4,9.57-3.64,9.88-8.25.23-3.35-4.16-6.69-9.59-7.27-4.4-.2-8.8-.35-12.09-3.91l1.07-1.27c2.07-1.08,4.09-2.13,6.57-2.14,4,0,5.52-2,4.18-5.94a5.5,5.5,0,0,1,.08-3.73,3,3,0,0,1,1.8-1.6c2.87-.33,3.81,1.88,5,3.77,1.59,2,2.45,4.38,3.87,6.44,2.26,3.28,3.59,3.27,4.92-.4a26.66,26.66,0,0,1,11-13.48c3.87-2.53,3.88-3.3.26-6.18-4.05-3.21-7.48-6.72-7.17-12.42a2.68,2.68,0,0,1,1.61-1.55c3.14-.49,4.64,2.2,7,3.82,1.58-2.56-.08-5.4,1-7.79a3,3,0,0,1,1.69-1.48c3.74.44,4.72-1.87,5.52-4.95.49-1.87.47-5.76,4.51-3.21,1,3.31.31,6.69.48,10,.3,2.52-1.17,4.19-2.59,6.07-3.13,4.12-2.8,7.9.63,11.72,3.75,1,7.26-.67,10.9-1,1.63-.68,3.12,0,4.62.51,4.47-.26,8.58-1.46,12-4.58a5.29,5.29,0,0,1,1.7-.75,12.07,12.07,0,0,1,5.24.72c2.39.7,3,2.32,1.62,4.5C419.62,251,412.1,252.39,404.45,253.47Z"/><path class="cls-14" d="M448.06,197.88c3.11-2.09,6.24-.6,9.28.1a65.31,65.31,0,0,1,30.75,16.18,64.27,64.27,0,0,0,3.11,10.12c.76,1.88,1.92,3.92.45,6.05a2.71,2.71,0,0,1-1.29.64c-1.36,0-2.77-.73-4.06.3a9.83,9.83,0,0,1-2.92,1c-2.32.36-3.7,1.86-4.92,3.73-1.48,2.26-3.16,4.7-6.4,3.55-3.44-1.22-3-4.58-3.16-7.29a7.89,7.89,0,0,1,1.83-4.91c.86-1,1.79-1.87,2.7-2.78l1.49-1.5-1.43,1.44c-.9.91-1.81,1.8-2.68,2.73-1.28,1.56-1.81,4.26-4.75,3.35-2.49-.77-2.89-3-3.19-5.15-.26-1.93-.88-3.88-.22-5.39-.2,4.37.1,8.6,4.39,12.27,6,5.19,2.52,15.32-5.88,18a3.56,3.56,0,0,1-3.5-1.86c4.72-9.15,1.39-17.54-2.48-25.87C451.54,214.72,446.42,207.27,448.06,197.88Z"/><path class="cls-14" d="M389.9,217.65c-2.29,2-1.21,4.89-1.9,7.32-.53,1.88-.67,4.15-2.67,4.83-2.23.77-2.22-2.31-3.79-3-2.52-.06-3.45-2.21-4.85-3.72-.73-1-1.91-1.67-2.32-2.86,0,.07,0,0,0,.08a8.43,8.43,0,0,0,1.85,2.3c1.43,1.76,3.1,3.34,3.92,5.53a9.47,9.47,0,0,1,.42,1c1.13,3.49,2,8-.9,9.87-2.62,1.64-3.82-3.29-6-5-.69-.54-1.35-1.14-2-1.72-1.65-.63-3.45-.17-5.12-.69-1.55-.84-3.54-.52-4.9-1.85-1.87-6.51,1.75-11.63,4.32-17a63.25,63.25,0,0,1,33.7-15.65c3.92,1.14,5.79,3.85,4.83,7.73-2.21,8.94-6.4,17.05-11.23,24.84a2.56,2.56,0,0,1-1.87.93,1.3,1.3,0,0,1-1-1.07c-.1-3.84,0-7.69-.05-11.53,0-.72-.05-1.22,0-.5A2.16,2.16,0,0,1,389.9,217.65Z"/><path class="cls-15" d="M457.7,247.77l3.5,1c2.69,1.27,5.4-1.64,8.1,0,8.39,3.53,14.77,9,17.49,18a11.68,11.68,0,0,0,2,3.71c1.08,2,1.44,4.24,2.35,6.3.46,4.47,1.15,8.84,5,11.88,3.87,2.08,8,1.74,12.12,1.35a6.85,6.85,0,0,1,3.13.88,2.54,2.54,0,0,1,.85,1.3c-1.31,3.85-5,2.45-7.67,3.59.17,1,1.31,1.53,1.32,2.63a2.53,2.53,0,0,1-1.07,2c-3.82,2.18-7.56-.77-11.36-.2-2.91-.62-3.58-3.23-4.41-5.44-.62-1.67-.95-3.35-2.6-4.35-4.15-4.7-4.13-11-6.16-16.46-.49-1.32-.52-2.81-1.56-3.91-.93-2.32-.56-5.48-4-6.16-4.32-3.51-8.87-6.52-14.66-7-3.76.91-6.21-2.77-9.7-2.77-5.46-.41-2.58,4-3.59,6.18.06-5.59-3-7.87-8.29-8.67-4.83-.73-8.85-3.68-12.93-6.26-.34-5.44-5.66-1.75-7.64-4.18a17,17,0,0,1,16.29,0c4.11,2.14,8.25,4.2,13,4.31,1.56-.37,3.08-1.14,4.74-.42C453.92,246,456.56,245.26,457.7,247.77Z"/><path class="cls-16" d="M391,230.37q5.2-11.07,10.41-22.12c1.92-4.08,2-7.88-1.68-11.1,8.5.2,12,4.16,10.42,12.18-.68,3.49-1.78,6.89-2.69,10.34-3.28,6.13-4.41,12.92-5.54,19.63-.41,2.42-.51,4.92-1.08,7.33-4,1-7.85,2.78-12.06,1.08C388.45,241.8,387.22,235.76,391,230.37Z"/><path class="cls-17" d="M457.7,247.77c-2.17-.2-4.45.22-6.42-1.12-.49-6.08-1.14-12.13-3.08-18-.55-1.65-.41-3.65-2.22-4.73-2.32-5.43-3-11.27-4.05-17-.82-4.65,1.44-7.84,6.13-9.08,1.12.27,3.28,0,2.72,1.67-3.08,9.07,3.73,15.12,6.66,22.25,2.68,6.5,4.86,13,4.92,20C462.38,245.07,461.29,247.4,457.7,247.77Z"/><path class="cls-17" d="M366,212.8c-1.61,5.48-1.86,11.3-4.11,16.62a8.6,8.6,0,0,1,1.18,1.45c1.59,2.93.56,5.88.11,8.85-.79,5.24-.86,10.62-2.46,15.72-.77,2.48-1.6,5.26-5.16,5.05l-3.36-4.32A15.78,15.78,0,0,1,347,253.9c-.41-.61-.83-1.22-.31-2,2.18-9.32,6.71-17.62,10.88-26.12,1.51-3.08,4.94-5.45,4.21-9.54Z"/><path class="cls-17" d="M490.35,230.37c.07-4.47-2.72-8.26-3-12.65-.08-1.26-1.53-2.79.73-3.56a7.76,7.76,0,0,1,3.41,3.15c-2,3,1.51,3.93,2.32,5.84,3.05,7.23,6.49,14.3,9.7,21.47,1.28,2.84,2.35,5.78,6.34,5.89-.89,2.16-2.6.33-3.34,1.44l-.88,1.07c-1.24,1.09-2.85,1.65-4.05,2.82-1.9,1.72-2.73,5-6.25,4.39-2.81-1.06-3.17-3.76-3.72-6.07a99.34,99.34,0,0,1-2.6-19.43C489,233.11,488.88,231.51,490.35,230.37Z"/><path class="cls-18" d="M400.82,246.63c-3.58-3.14-1.07-7-.6-10.22.82-5.53,3.88-10.6,5-16.2.23-1.17,1.37-.77,2.22-.54-1.31,8.57-4.49,17-2.38,25.86C403.85,246.67,402.34,246.67,400.82,246.63Z"/><path class="cls-19" d="M446,224c.37-1.36,1.06-1.43,1.66-.25,3.21,6.37,5.4,13,5.59,20.22,0,1.25-.33,2.51-2,2.72-1.45,0-2.87,0-4-1.07C449.53,238.21,446.68,231.15,446,224Z"/><path class="cls-20" d="M433.05,229.32c1.62,1.41,1.63,2.81,0,4.2-2,2.63-4.73,2.26-7.47,2.06-2.46.28-4.79.13-6.5-2-2.4-1.42-2.52-2.84,0-4.26,1.72-2.14,4.05-2.29,6.51-2C428.28,227.1,431.07,226.72,433.05,229.32Z"/><path class="cls-21" d="M419.08,200c-2.06-1.38-2.74-2.78-.05-4.22,1.74-2.1,4.08-2.22,6.53-1.95,2.73-.2,5.51-.56,7.55,1.93,1.61,1.46,1.51,2.9,0,4.33-2,2.58-4.77,2.24-7.52,2C423.07,202.38,420.74,202.2,419.08,200Z"/><path class="cls-22" d="M434,154.53a2.88,2.88,0,0,1-1,3.46c-2,2.55-4.76,2.19-7.49,2-2.44.26-4.78.17-6.52-1.94-1.33-.91-2.74-1.8-1-3.56C423.39,153.12,428.73,149.85,434,154.53Z"/><path class="cls-23" d="M433.07,162.32a3,3,0,0,1,1,3.4c-5.31,3.69-10.66,1.49-16,.09-1.8-1.77-.36-2.64,1-3.54,1.74-2.11,4.07-2.2,6.51-1.94C428.3,160.13,431.07,159.77,433.07,162.32Z"/><path class="cls-24" d="M433.14,204.31c1.24.9,1.25,2.13.92,3.45-5.32,3.36-10.64,1.88-16,0-1.65-1.69-.88-2.71.94-3.44,1.77-2.07,4.11-2.14,6.54-1.88C428.31,202.24,431.07,201.9,433.14,204.31Z"/><path class="cls-25" d="M434,179.57c.32,1.29.39,2.52-.88,3.4-1.8,2-4.11,2.19-6.57,1.8-2.7.13-5.5.67-7.57-1.82-2.66-1.24-2.38-2.44.05-3.62,1.81-1.89,4.1-2.08,6.52-1.85C428.6,177.34,431.58,177.37,434,179.57Z"/><path class="cls-26" d="M433.17,212.84c1.5,1.22,1.36,2.43,0,3.62-2.05,2.46-4.89,1.83-7.55,2-2.44.23-4.76.05-6.54-1.95-2.49-1.18-2.65-2.38,0-3.61,1.81-1.93,4.13-2.14,6.57-1.9C428.24,211.08,431.08,210.47,433.17,212.84Z"/><path class="cls-27" d="M433.11,170.86c1.4,1.18,1.47,2.38.06,3.61-5.08,3.3-10.08,1.48-15.08-.24-1.73-1.72-.48-2.59,1-3.4,1.77-2,4.08-2.22,6.53-2C428.24,169,431.1,168.34,433.11,170.86Z"/><path class="cls-28" d="M434.23,241.27l-16.29,0a5,5,0,0,0-.92-.3,3.14,3.14,0,0,1,2.05-3.12c1.75-2.09,4.08-2.15,6.51-1.9,2.72-.2,5.48-.56,7.5,1.94A3.24,3.24,0,0,1,434.23,241.27Z"/><path class="cls-29" d="M419.05,225.05c-1.34-.88-2.8-1.73-.95-3.47,5.32-1.8,10.65-3.32,16,0a2.93,2.93,0,0,1-1,3.41c-2,2.48-4.79,2.13-7.51,1.92C423.15,227.2,420.8,227.13,419.05,225.05Z"/><path class="cls-30" d="M419.05,149.47c-2.1-1.24-2.7-2.47,0-3.69a9.64,9.64,0,0,1,1.71-1c4.14.19,8.5-2.34,12.37,1,.33.11.67.21,1,.29.85,1.11,1,2.17-.21,3.15a3.88,3.88,0,0,0-.84.14c-2,2.49-4.78,2.17-7.52,1.93C423.16,151.6,420.81,151.54,419.05,149.47Z"/><path class="cls-31" d="M434.1,188.06a3.09,3.09,0,0,1-1,3.47c-2.05,2.48-4.81,2.14-7.54,1.93-2.45.27-4.8.17-6.54-2-1.35-.87-2.73-1.73-1-3.47C423.41,186.28,428.76,184.94,434.1,188.06Z"/><path class="cls-32" d="M434.06,221.61l-16,0,1-1c1.33-2.63,5.25-1.27,6.4-4.17l7.63,0A9,9,0,0,0,434.06,221.61Z"/><path class="cls-33" d="M433.17,212.84l-7.66,0c-1.2-2.84-5.11-1.47-6.42-4.13l-1-1h16A8.45,8.45,0,0,0,433.17,212.84Z"/><path class="cls-34" d="M418.09,174.23l15.08.24a9.25,9.25,0,0,0,.86,5.1l-8.51-.19c-1.27-2.8-5.13-1.49-6.5-4.12Z"/><path class="cls-35" d="M434.1,188.06l-16.05,0,1.05-.93c1.7-2.78,5.66-1.42,7.44-4.07l6.61-.07A8,8,0,0,0,434.1,188.06Z"/><path class="cls-36" d="M425.49,149.44l7.62,0a8.89,8.89,0,0,0,.93,5.12c-5.32-1.26-10.65.74-16-.05l1.08-.93C420.66,151.27,424,151.81,425.49,149.44Z"/><path class="cls-32" d="M433.11,170.86h-7.59c-1.14-2.93-5.07-1.59-6.43-4.19l-1-.88,16-.08A9,9,0,0,0,433.11,170.86Z"/><path class="cls-37" d="M433.15,145.83l-13,.06c.27-4.08,5.19-2.23,6.45-5.06C430.34,140.45,433.75,140.51,433.15,145.83Z"/><path class="cls-38" d="M433.14,204.31l-7.64,0a3,3,0,0,1,.09-4.32l7.48,0C433.09,201.48,433.12,202.9,433.14,204.31Z"/><path class="cls-38" d="M433.07,162.32l-7.55,0a3,3,0,0,1,0-4.27h7.53C433.06,159.43,433.06,160.87,433.07,162.32Z"/><path class="cls-39" d="M425.5,225h7.59c0,1.43,0,2.86,0,4.3l-7.5,0A3,3,0,0,1,425.5,225Z"/><path class="cls-40" d="M433.08,237.87l-7.58,0a3,3,0,0,1,.05-4.26l7.46,0C433,235,433.06,236.42,433.08,237.87Z"/><path class="cls-38" d="M425.52,191.51l7.59,0v4.21l-7.59,0A3.05,3.05,0,0,1,425.52,191.51Z"/><path class="cls-41" d="M426.59,140.83c.39,4.93-4.07,3.68-6.46,5.06h-.53l-.53-.12C418.29,139.15,423.07,141,426.59,140.83Z"/><path class="cls-42" d="M426.54,183c-.16,5.6-4.39,3.76-7.44,4.07L419,183Z"/><path class="cls-43" d="M419.09,166.68c2.12,1.43,8.44-3.57,6.43,4.19l-6.46,0Z"/><path class="cls-44" d="M419,175.26c1.42,0,2.84,0,4.25,0,3.17.05,3.66,1.58,2.25,4.13l-6.46,0C419,178,419,176.62,419,175.26Z"/><path class="cls-45" d="M425.51,216.44c2,7.73-4.3,2.73-6.4,4.17l-.06-4.14Z"/><path class="cls-46" d="M419.09,208.74c2.09,1.46,8.34-3.55,6.42,4.14l-6.49,0C419,211.49,419.06,210.12,419.09,208.74Z"/><path class="cls-47" d="M425.55,233.57c0,1.42,0,2.84-.05,4.26h-6.43l0-4.28Z"/><path class="cls-48" d="M425.59,200l-.09,4.32-6.46,0c0-1.45,0-2.9,0-4.35Z"/><path class="cls-49" d="M425.53,158c0,1.43,0,2.85,0,4.27h-6.46c0-1.41,0-2.82,0-4.23Z"/><path class="cls-48" d="M425.49,149.44c.54,5.47-3.46,3.95-6.35,4.11l-.09-4.08Z"/><path class="cls-50" d="M425.52,191.51v4.26H419v-4.25Z"/><path class="cls-51" d="M425.5,225c0,1.42,0,2.85.05,4.28H419c0-1.42,0-2.83,0-4.25Z"/><path class="cls-52" d="M318.61,291c.36-1.51.73-3,1.09-4.55C321.57,288.53,321.25,290.05,318.61,291Z"/><path class="cls-53" d="M434,149.27l.21-3.15C437,147.37,435.85,148.34,434,149.27Z"/><path class="cls-17" d="M391,255.21a37.83,37.83,0,0,1,9.72-.94c-.27,1.58-2.54,2-2.19,4,1.11,6.48-2.52,11.66-4.59,17.37a71.13,71.13,0,0,0-4.09,27.5c.51,11.36-2.59,16.44-13.52,19.25-9.37,2.41-18.91,4.19-28.42,6.05-4.68.92-9.32-.39-13.88-1.25-3-.56-3.85-3.38-4.55-6.11-1.75-6.82-.28-13.54.45-20.27,1.14-10.59,4.44-20.64,8.17-30.55,4.49-.34,8.56,1.82,12.93,2.19,2.19,2.38,1.05,4.71-.24,6.89a89.26,89.26,0,0,1-8.88,12.71c-.44.58-.69,1.17.11,1.74a6.4,6.4,0,0,1,1.37,5.89,5.25,5.25,0,0,1-.74,1.38c-.13.22-.81.31-.24.8s-.19,0,.57,0c4.67,2,6.85,5.79,7.85,10.49.5,2.45,1,4.89,1.51,7.34a3.2,3.2,0,0,1,.75,1.84,12.22,12.22,0,0,0,.38-1.44,10.14,10.14,0,0,0,.27-3.11c-.49-3.85,1.34-4.92,5-4.91,7.26,0,8.4-1.1,9.75-8.48,1.15-6.3,1.19-12.84,3.9-18.82,1.18-2.61,2.08-5.55,5.92-5l2.06,1.21c5.73,3.27,6.21,4.51,4.06,10.5-.64,1.22-1.73,2.12-2.48,3.28a30.3,30.3,0,0,1,2-2.41c2-3.22,2.83-6.46-.27-9.49-1.11-1.09-.13-2.8-1.37-3.75L380,276c-.8-2.82.94-4.52,3-5.66,4.14-2.32,6.33-5.5,6-10.39A5.74,5.74,0,0,1,391,255.21Z"/><path class="cls-54" d="M346.66,251.92l1.46,1.28c1.11,1.33,2.49,2.48,2.7,4.36,4.36,10.41,3.64,11.53-7.42,11.46-1.42,0-2.83,0-4.25,0C341.36,263.2,342.8,257,346.66,251.92Z"/><path class="cls-55" d="M392.3,314V303.5A18.66,18.66,0,0,1,392.3,314Z"/><path class="cls-17" d="M450.39,254.18l10.77,1.06a6.3,6.3,0,0,1,2,5.3c-.11,4.41,1.9,7.35,5.6,9.52,2,1.17,3.74,2.75,4.07,5.31.08,1.77-.94,3-2,4.21-6,6.77-6,8.54,0,15.48.46.54,1,1,1.48,1.55.86,1.11,1.77,2.2,2.51,3.35.06.22.11.34.11.21a28.39,28.39,0,0,0-3.21-4.18,27.7,27.7,0,0,1-2.44-2.86c-4.95-6.47-2.86-12.53,5.19-15,6.25,3.09,6.15,9.66,7.88,15.06A43.29,43.29,0,0,1,484,304.26c.26,6.14,2,7.63,8.27,8.05,2.62.17,6.11-1.06,6.72,3.31,0,.7,0,1.41,0,2.12,0,.47,0,.71,0,.72-.15-.22-.15-.4,0-.53a35.37,35.37,0,0,1,.79-5.7c2.35-3.77,4.42-7.77,8.46-10.12a7.54,7.54,0,0,1,6.19,2.53c-.95-1.8-3.84-1.56-4.7-3.82-1.44-3.57,1.87-5.89,2.35-9l-.11-.1c-6.6-4-9.7-10.68-12.88-17.15-1.63-3.3,1.86-3.87,4.07-4.79,3-.17,5.76-1.92,8.88-1.54,1.2.71,2.63,1.27,2.09,3.13,6.36,13.68,9.22,28.19,9.61,43.15.28,10.77-2.88,14.1-13.63,14-13-.16-25.52-3.5-37.84-7.37-7.76-2.44-10-8.78-9.95-16.06.07-9.35.29-18.76-3.11-27.6-2.44-6.34-5.87-12.31-5.61-19.38C453.67,255.79,451.69,255.29,450.39,254.18Z"/><path class="cls-17" d="M514.12,271.41l-1.59-2.16c-2.5-.49-4.92.18-7.38.42-6.9.69-9.59-3.18-6.8-9.58.65-1.48,1.52-2.82,2.28-4.23a26.88,26.88,0,0,1,4.66-3.85l1.24-.06c3.71,5.4,3.92,12.54,8.73,17.43C516,270.08,514.88,270.93,514.12,271.41Z"/><path class="cls-56" d="M355.57,260.49c3.55-4,3.79-8.93,4.23-13.9.48-5.47,1.37-10.9,2.09-16.35,1.86-1,3.52,0,5.22.54a3.62,3.62,0,0,1,3.26,2.92c2.71,4.09,4.19,8.87,9.4,11.3,3.88,1.8,3.37,5.91-.41,7.82-6.5,3.27-10.7,8.28-12.26,15.43-1.05,4.84-3.44,4.12-6.24,1.5S356.92,263.82,355.57,260.49Z"/><path class="cls-14" d="M378.29,279.83c-5.16,5-5.57,11.76-6.73,18.23-.41,2.28-.49,4.63-.88,6.91-1.4,8.11-4,10.32-12.43,9.39-3.36-.37-4.23.64-4.08,3.57-.42.54-.7.44-.86-.19-.87-5.31.66-9.31,5.58-12.17a10.34,10.34,0,0,0,5-9.53c-.14-9.14,4.53-16.88,7-26.69C373.55,273.85,375.52,277.16,378.29,279.83Z"/><path class="cls-14" d="M340.29,292.1c2-4.84,5.52-8.79,8.26-13.2,1.24-2,2.53-3.92,2.46-6.41,6-3.05,7.33,3.46,10.73,5.53,3,1.83.15,4.49-.6,6.64-1.8,5.23-5,8.52-11.16,7.34-1.71-.33-3.56.06-5.35.12C343.18,293.43,341.73,293.13,340.29,292.1Z"/><path class="cls-14" d="M391,255.21c.64,7.25,1,14.33-7.76,17.46A6.58,6.58,0,0,0,380,276c-4.27-3.47-5.63-8.52-3.61-12.95C378.93,257.38,384.74,255.33,391,255.21Z"/><path class="cls-57" d="M350.81,312.4q-4.2-4.83-8.39-9.68c.17-3.77,3.14-3.81,5.72-4,1.37-.12,2.8.56,4.18-.16l6.23-1C357.55,303.68,349.76,305.87,350.81,312.4Z"/><path class="cls-58" d="M391,230.37c-1.18,5.72.86,11.86-2.22,17.34-5.3-3.46-6.13-10-1.75-14.06a8.66,8.66,0,0,0,2.95-4.33c.18-.56.49-.64.92-.24Z"/><path class="cls-59" d="M342.4,299.54q-.57-2.67-1.15-5.33c1.71-1.85,3.58-.72,5.42-.31s3.9-.13,5.63,1.89L349,297.45C347.2,299.49,345.13,300.55,342.4,299.54Z"/><path class="cls-60" d="M383.27,291.68c2.77-4.57-.42-7.51-2.92-10.64a2,2,0,0,0,1.9-1.87c5.57,5.56,6,8.22,2.3,13.86C383.46,293.2,382.94,292.84,383.27,291.68Z"/><path class="cls-61" d="M342.4,299.54l6.56-2.09c.93.95,2.18.89,3.36,1.07-3.2,1.63-7.15,1.52-9.9,4.2-2.11.33-3.28,2.72-6.18,2.65C337.65,302.35,340.69,301.59,342.4,299.54Z"/><path class="cls-62" d="M390.88,229.08c-.31.08-.61.17-.92.24l-.06-11.67c-.39-1.47-1.38-3,1-5Z"/><path class="cls-63" d="M346.67,293.9l-5.42.3L338,294c.13-1.5,1.72-1,2.26-1.88l4.34,0Z"/><path class="cls-64" d="M380.18,228.18a16.23,16.23,0,0,1-4.68-5.31,1.1,1.1,0,0,1,1.63-.19l4.41,4.17Z"/><path class="cls-65" d="M353.31,317.74l.86.19c0,2.06.5,4.22-1.85,6.87v-5.06Z"/><path class="cls-66" d="M350.82,257.56c-1.33-1.19-2.74-2.32-2.7-4.36a4.82,4.82,0,0,1,4.09,3Z"/><path class="cls-67" d="M370.37,233.7l-3.16-2.25a1,1,0,0,1,0-1.47,6.67,6.67,0,0,1,4.5,2.38Z"/><path class="cls-14" d="M490.35,230.37c1.92,8.51,1.67,17.36,4.19,25.79.41,1.38.36,2.87,2.12,3.32,1.23,6.3-2.5,11.55-8.49,11.94-2,0-2.91-1.28-3.27-3-1.8-8.26-7.14-13.41-14.55-16.83-.75-.35-1.27-1.2-1.89-1.83-1-3.05.54-5.44,2.74-6.9a24.08,24.08,0,0,0,8.49-9.21c.84-1.63,2.59-2.36,4.09-3.29l2-1.11a6.79,6.79,0,0,1,4.39,1Z"/><path class="cls-68" d="M483.78,230.38c-3.61,7.65-10.39,12.8-15.32,19.4-2.5.2-5.17,1.65-7.26-1,7.67-4.14,8.58-10,2.86-16.73-4-4.67-2.8-10-1.27-16.71.56,3.65.87,6,1.29,8.29.38,2.07.11,4.76,2.46,5.62,2.58.94,2.35-2.75,4.24-3.31,1.11-.25,1.54.18,1.29,1.3a10.82,10.82,0,0,0-1.09,3c-.15,2.79-1.35,6.63,1.35,7.94,3,1.46,3.93-2.66,5.65-4.46S481.09,230.17,483.78,230.38Z"/><path class="cls-69" d="M473,223.8l4.29-4.65c.32,2.8-1,4.56-3,5.94A1.45,1.45,0,0,1,473,223.8Z"/><path class="cls-70" d="M490.2,230.26c-1.56.09-3.14.27-4.39-1C487.69,227.71,489.1,228.3,490.2,230.26Z"/><path class="cls-71" d="M473,223.8l1.29,1.29-2.18,2.14-1.29-1.3Z"/><path class="cls-72" d="M367.21,230v1.47l-5.32-1.21a3.21,3.21,0,0,1,0-.82C363.7,229.36,365.55,228.78,367.21,230Z"/><path class="cls-73" d="M373.52,219.58a2.34,2.34,0,0,1-.25-3.42l1.4,3.44C374.28,220.28,373.9,220.27,373.52,219.58Z"/><path class="cls-74" d="M373.52,219.58l1.15,0,2.46,3.09-1.63.18A4.73,4.73,0,0,1,373.52,219.58Z"/><path class="cls-75" d="M498,316.83c.08-2.89-1.84-2.32-3.68-2.3-10.58.15-11.61-1.15-12.7-11.78-.85-8.38-2.39-16.72-7.51-23.83.45-3.94,2-7.22,5.54-9.31,3,2.15,3.23,5.71,4.33,8.81,1.35,3.81,1.39,8.1,4.16,11.39l.64.51c.85,1.52.31,3.25.73,4.84a13.7,13.7,0,0,0,5.92,9c4.65,3.1,5.83,7.23,4,12.38A1,1,0,0,1,498,316.83Z"/><path class="cls-14" d="M503.32,271.61c-1.55.85-4,.61-1.52,3.85,3.91,5,6.83,10.83,10.16,16.3l-3.07.06c-5-1.48-10.31.79-15.28-1.2-1.42-3.07-2.75-6.2-4.3-9.21a3.2,3.2,0,0,1,1.09-4.59C492.22,269.69,497.56,267.54,503.32,271.61Z"/><path class="cls-14" d="M471.93,275.47c-.88-.88-1.6-2.16-2.65-2.57-8.48-3.29-9-10.13-8.12-17.66,6.47-.35,10.83,3.52,15.12,7.53,1.48,3.19,2,6.42.38,9.73C475.71,274.48,474.74,276.45,471.93,275.47Z"/><path class="cls-76" d="M503.32,271.61c-5.78-1.92-9.17,2.09-12.92,5.21-2.88-.92-2.91-3-2.23-5.4,4.59-2.73,6.65-7.25,8.49-11.94,1.52-1.76,2.43-4.05,4.52-5.33,1.13-.32,1.42.17,1.18,1.2-.17.31-.34.62-.5.93-5.28,10-4.41,11.52,6.66,11.93,1.42.06,2.84.05,4,1Z"/><path class="cls-77" d="M471.93,275.47c4.59-3.16,4.4-8,4.35-12.7,5.65.07,2.8,4.27,3.32,6.83a21.2,21.2,0,0,1-5.54,9.32c-8.13,6.82-8.14,7-1.31,17.39a.91.91,0,0,1-.7.71C464.5,290.92,461.53,285.77,471.93,275.47Z"/><path class="cls-78" d="M508.7,302.53c-1.34,4.16-5.23,6.4-7.42,9.92-1.83-3.31-3.27-6.85-6.67-9.08-1.2-.79-1.31-2.43-.9-3.9.15-1.79,1.12-1.85,2.62-1.47,2.61.65,5.26,1.09,7.9,1.63C506,300.15,508.83,299.07,508.7,302.53Z"/><path class="cls-79" d="M493.71,299.47c3,4.08,8.49,6.65,7.57,13q-.69,3.14-1.4,6.27c-1.87.09-1.57-.92-1-2.05.72-5.09-.93-8.85-5.49-11.66-3.45-2.12-5.59-5.47-5.1-9.9a6,6,0,0,0-.15-5.35l0,.05c1.89-1.11,2.17.24,2.19,1.56C490.31,294.57,492,297,493.71,299.47Z"/><path class="cls-30" d="M512.07,291.86c1.26.37,4.35.25,1.68,2.37-2.35,1.87-2,4.25-2.91,6.35-2.5,1-3.87-.76-5.39-2.18-1.95-1.43-4.71-1.39-6.66-3.68C503.27,293.09,508.07,294.15,512.07,291.86Z"/><path class="cls-80" d="M505.45,298.4l5.39,2.18c2.73,2.11,5.49,4.19,7.19,7.38-3.29-1.59-5.87-4.27-9.33-5.43l-4.47-2.91Z"/><path class="cls-81" d="M493.61,290.62c5,1.16,10.31-.77,15.28,1.21C503.8,291.37,498.52,293.35,493.61,290.62Z"/><path class="cls-82" d="M502.36,255.35l-1.18-1.2A4.47,4.47,0,0,1,505.3,252C504.8,253.55,503.5,254.38,502.36,255.35Z"/><path class="cls-83" d="M383.27,291.68l1.28,1.35c-1.88,2.66-3.93,5.14-7.57,6.08Z"/><path class="cls-84" d="M383.54,313.16c-.47.56-.81,1.32-1.3,1.44-.65.16-.64-.59-.51-1.07s-.12-1.51.83-1.57C382.81,311.94,383.12,312.62,383.54,313.16Z"/><path class="cls-85" d="M379.93,307.76c-.32.32-.65.68-.67.67a5.54,5.54,0,0,1-1.43-1.38c-.35-.66.27-1,.77-.71A6.23,6.23,0,0,1,379.93,307.76Z"/><path class="cls-86" d="M498.85,316.67l1,2.05c-.15,1.5-.3,3-.49,4.85-2.34-2.2-1.21-4.6-1.44-6.75Z"/><path class="cls-87" d="M472.05,297a1.6,1.6,0,0,1,.7-.71c1.54,1.41,4,2.38,2.43,5.24a2.16,2.16,0,0,1-1-1Z"/><path class="cls-88" d="M474.17,300.56l1,1c.37,1.4,1.58,2.94-1,4.08Z"/><path class="cls-89" d="M471.23,310.16c-.49.68-1,1.94-1.49,1.95-1.72,0-.6-1.06-.33-1.62.19-.4.75-.62,1.14-.93Z"/><path class="cls-15" d="M488.11,289.76c1.56,1.74,1.47,3.53.15,5.35Z"/><path class="cls-8" d="M270.37,219.55s.29,10.94-3.09,19.42l-15.87,11.32-19.8-24.16,20.58-18.87Z"/><path class="cls-6" d="M231.35,282.47s24.49-7.09,46.24,76.72l-20.7,14.52-31-47.33Z"/><polygon class="cls-90" points="285.3 270.92 277.26 265.48 260.02 289 258.23 280.95 240.79 305.94 254.32 295.42 255.98 304.4 285.3 270.92"/><polygon class="cls-90" points="315.62 295.54 310.22 287.49 285.41 302.82 286.77 294.68 261.23 311.31 277.71 306.63 275.88 315.57 315.62 295.54"/><polygon class="cls-90" points="311.75 330.64 308.24 321.6 280.68 331.1 283.79 323.47 255.22 334.08 272.33 333.13 268.58 341.46 311.75 330.64"/><path class="cls-6" d="M96.41,258.55s-35.76-4.44-63.29,84.07l22.14,11.86s57.59-47.16,56.52-49.34S96.41,258.55,96.41,258.55Z"/><polygon class="cls-90" points="16.78 297.16 15.56 306.78 44.33 311.52 37.96 316.76 68.14 321.01 52.64 313.71 59.9 308.17 16.78 297.16"/><polygon class="cls-90" points="25.03 258.98 20.29 267.44 45.17 282.63 37.3 285.09 63.69 300.36 52.06 287.77 60.86 285.36 25.03 258.98"/><polygon class="cls-90" points="58.08 246.56 51.6 253.78 72.55 274.06 64.32 274.74 86.71 295.43 78.13 280.59 87.25 280.17 58.08 246.56"/><polygon class="cls-4" points="39.4 474.41 111.78 573.12 204.26 595.12 203.78 444.07 78.28 474.41 39.4 474.41"/></g></svg>