<svg xmlns="http://www.w3.org/2000/svg" xmlns:xlink="http://www.w3.org/1999/xlink" width="117.201" height="117.199" viewBox="0 0 117.201 117.199">
  <defs>
    <linearGradient id="linear-gradient" y1="0.5" x2="1" y2="0.5" gradientUnits="objectBoundingBox">
      <stop offset="0" stop-color="#ebebeb"/>
      <stop offset="1" stop-color="#fff"/>
    </linearGradient>
    <clipPath id="clip-path">
      <circle id="Ellipse_1739" data-name="Ellipse 1739" cx="58.6" cy="58.6" r="58.6" transform="translate(8.2 8.8)"/>
    </clipPath>
    <clipPath id="clip-path-3">
      <circle id="Ellipse_1741" data-name="Ellipse 1741" cx="58.6" cy="58.6" r="58.6" transform="translate(-24.6 -45.5)"/>
    </clipPath>
  </defs>
  <g id="urologist" transform="translate(-8.2 -8.801)">
    <circle id="Ellipse_1738" data-name="Ellipse 1738" cx="58.6" cy="58.6" r="58.6" transform="translate(8.2 8.8)" fill="url(#linear-gradient)"/>
    <g id="Group_7020" data-name="Group 7020">
      <path id="Path_45642" data-name="Path 45642" d="M27.7,90.7a.548.548,0,0,1-.6-.4,5.026,5.026,0,0,0-2-1.8.762.762,0,0,1,.6-1.4,5.926,5.926,0,0,1,2.7,2.4.714.714,0,0,1-.3,1C27.9,90.7,27.8,90.7,27.7,90.7Z" fill="#f7cdba"/>
      <path id="Path_45643" data-name="Path 45643" d="M20.9,87.1a48.089,48.089,0,0,0,2.8,6.4,2.241,2.241,0,0,0,1.9,1.2,3.553,3.553,0,0,0,1-.2,2.067,2.067,0,0,0,.9-2.9c-1.1-2.2-2-4.3-2.7-6.1Z" fill="#f7cdba"/>
      <path id="Path_45644" data-name="Path 45644" d="M21.2,89.3c-5-9.1-4.3-16.6-2.8-21.3a31.752,31.752,0,0,1,4.9-9.2l4.8,4.5c-.4.4-10.1,9.3-2.4,23.4Z" fill="#fff"/>
    </g>
    <g id="Group_7036" data-name="Group 7036">
      <g id="black_board_1_" clip-path="url(#clip-path)">
        <g id="Group_7021" data-name="Group 7021">
          <rect id="Rectangle_3964" data-name="Rectangle 3964" width="44.9" height="50.5" transform="translate(63.5 33.8)" fill="#fff"/>
          <path id="Path_45645" data-name="Path 45645" d="M63,32.7h45.9V85.3H63V32.7m1,50.5h44V34.8H64Z" fill="#2f6b99"/>
          <path id="Path_45646" data-name="Path 45646" d="M64.1,34.8H64v.3L63,33v-.3h.1Z" fill="#8e7245"/>
          <path id="Path_45647" data-name="Path 45647" d="M107.8,34.8h.2v.3l.9-2.1v-.3h-.1Z" fill="#8e7245"/>
          <path id="Path_45648" data-name="Path 45648" d="M107.8,83.2h.2v-.3l.9,2.2v.2h-.1Z" fill="#8e7245"/>
          <path id="Path_45649" data-name="Path 45649" d="M64.1,83.2H64v-.3l-1,2.2v.2h.1Z" fill="#8e7245"/>
        </g>
      </g>
      <g id="Group_7022" data-name="Group 7022" clip-path="url(#clip-path)">
        <path id="Path_45650" data-name="Path 45650" d="M76.4,46.5h-.1c-.1,0-.1,0-.2.1,0,0-6.8,9.6-10.1,14.3a2.106,2.106,0,0,0-1.3.5,2.026,2.026,0,0,0-1.4.6,2.36,2.36,0,0,0-.5,1.8l-.4.5-.4-.2-5.1,6.5L52,60.5c-.8-2.1-3.3-2.6-7.1-3.8v-.2L42,55h-.8V52.3l.1-.1.1-.1.2-.2.1-.1c.1-.1.1-.1.2-.1h0l.2-.2h0l.3-.3.1-.1.2-.2a.1.1,0,0,1,.1-.1l.2-.2.1-.1c0-.1.1-.1.1-.2l.1-.1c0-.1.1-.1.1-.2l.1-.1c0-.1.1-.1.1-.2s.1-.1.1-.2a.1.1,0,0,1,.1-.1c0-.1.1-.1.1-.2s.1-.1.1-.2v-.1c0-.1.1-.2.1-.3v-.1c0-.1.1-.2.1-.3a.349.349,0,0,1,.1-.2v-.1c0-.1.1-.2.1-.3h0c0-.1.1-.2.1-.3h0v-.4h0V45.8a1.456,1.456,0,0,0,1.3-1.6l-.1-1.5a1.1,1.1,0,0,0-.6-1c.5-1.9,1-4.9-.2-7.4.2-1-.2-2.5-1.3-4.8a.656.656,0,0,0-1.1-.1c-.8,1.2-2,1.3-3.9.4-2.8-1.2-4.9-.6-6.2.6-7.3,1.8-5,9.3-3.6,12.6h0a1.5,1.5,0,0,0-.4,1.1l.1,1.5a1.456,1.456,0,0,0,1.6,1.3c.2,2.3,2.1,4.4,4.1,5.6V55h-.8l-2.9,1.5v.2c-3.1,1-5.4,1.5-6.5,2.8l-.1.1-.1.1a28.953,28.953,0,0,0-4.8,9c-1.3,4.7-2,12.2,3,21.3l.4-.2q.9,2.1,2.1,4.5a2.41,2.41,0,0,0,1,1,8.622,8.622,0,0,1-.1,1.7v.6h1.8l.1,6.1h9.4c.1-2.9.1-4.7.1-4.7h2s.1,1.8.1,4.7h9.4l.1-6.1h1.8V97c-.3-5.5-.1-21.8-.1-26.8l3.8,6.5A2.588,2.588,0,0,0,56,78.2h.3a2.61,2.61,0,0,0,2-1l7.8-9.9-.4-.3,2-2.7a2.182,2.182,0,0,0-.4-3,.908.908,0,0,0-.7-.3l9.8-14.1C76.5,46.7,76.5,46.6,76.4,46.5Zm-51,22.4c0,1.3.1,9.2.1,16.6-3.2-7.2-1.9-12.9-.1-16.6Z" fill="#cfcfce"/>
      </g>
      <g id="Group_7023" data-name="Group 7023" transform="translate(32.8 54.3)" clip-path="url(#clip-path-3)">
        <rect id="Rectangle_3965" data-name="Rectangle 3965" width="8.5" height="3.6" fill="#231f20"/>
      </g>
      <g id="Group_7024" data-name="Group 7024" clip-path="url(#clip-path)">
        <path id="Path_45651" data-name="Path 45651" d="M41.6,55.3l-1.1-.5V51.4H33.6v3.4l-1.1.5.3,9.8h.8v1.5h6.9V65.1h.8Z" fill="#f7cdba"/>
        <path id="Path_45652" data-name="Path 45652" d="M33.6,51.4V53l6.9,1.6V51.4Z" fill="#deb4a0"/>
      </g>
      <g id="Group_7025" data-name="Group 7025" clip-path="url(#clip-path)">
        <path id="Path_45653" data-name="Path 45653" d="M38.3,89.8h-12l.7,58.1h7.6L36,98.1h2l1.4,49.8H47l.7-58.1H38.3Z" fill="#1a1819"/>
      </g>
      <g id="Group_7031" data-name="Group 7031" clip-path="url(#clip-path)">
        <g id="Group_7026" data-name="Group 7026">
          <path id="Path_45654" data-name="Path 45654" d="M47.8,92.1H26.4V89.8H47.9Z" fill="#231f20"/>
          <path id="Path_45655" data-name="Path 45655" d="M38.1,92.7H36.2a1.324,1.324,0,0,1-1.3-1.3v-.9a1.324,1.324,0,0,1,1.3-1.3h1.9a1.324,1.324,0,0,1,1.3,1.3v.9a1.324,1.324,0,0,1-1.3,1.3Zm-1.9-2.8a.576.576,0,0,0-.6.6v.9a.576.576,0,0,0,.6.6h1.9a.576.576,0,0,0,.6-.6v-.9a.576.576,0,0,0-.6-.6Z" fill="#43414e"/>
        </g>
        <g id="Group_7027" data-name="Group 7027">
          <path id="Path_45656" data-name="Path 45656" d="M41.7,55.4l-.3,1a4.493,4.493,0,0,1-4.3,3.4c-3.1,0-4.2-2.7-4.6-3.8l-.1-.5c-5.6,2.1-3.9,19.8-3.9,19.8V90H46.2L46,75.3C45.9,75.2,47.3,57.5,41.7,55.4Z" fill="#fff"/>
          <path id="Path_45657" data-name="Path 45657" d="M38.7,59.2,38,60.5H36l-.6-1.3L37,57.9Z" fill="#2f6b99"/>
          <path id="Path_45658" data-name="Path 45658" d="M37,57.9l-2.1,2.2-3.6-4.4,2.3-1.1.9.8Z" fill="#e6e7e7"/>
          <path id="Path_45659" data-name="Path 45659" d="M40.5,54.6,37,57.9l2.2,2.2,3.6-4.3Z" fill="#e6e7e7"/>
          <path id="Path_45660" data-name="Path 45660" d="M38,60.8l.9,26.6-1.9,2-1.8-2L36,60.8Z" fill="#2f6b99"/>
        </g>
        <path id="Path_45661" data-name="Path 45661" d="M51.5,60.5c-.6-3.2-4.1-3.2-9.8-5.4L37.1,73.9,32.5,55.1c-5.6,2.1-9.2,2.1-9.8,5.4-.9,5.2,2.1,7.5,2.1,7.5s.2,23.2-.1,28.8H36.3l.9-4,.9,4H49.7c-.6-5.6-.4-28.8-.4-28.8C49.4,68,52.4,65.7,51.5,60.5Z" fill="#fff"/>
        <g id="Group_7030" data-name="Group 7030">
          <g id="Group_7028" data-name="Group 7028">
            <path id="Path_45662" data-name="Path 45662" d="M29.9,55.8l.1,3.3,1.6,1.3-1.2,1.8L37,73.9,32.8,54.3Z" fill="#cfcfce"/>
          </g>
          <g id="Group_7029" data-name="Group 7029">
            <path id="Path_45663" data-name="Path 45663" d="M44.2,55.8l-.1,3.3-1.7,1.3,1.3,1.8L37.1,73.9l4.2-19.6Z" fill="#cfcfce"/>
          </g>
        </g>
      </g>
      <g id="Group_7032" data-name="Group 7032" clip-path="url(#clip-path)">
        <path id="Path_45664" data-name="Path 45664" d="M61.7,69.3A2.092,2.092,0,0,1,60,65.9l3.6-4.8A2.14,2.14,0,1,1,67,63.7l-3.6,4.8A2.289,2.289,0,0,1,61.7,69.3Z" fill="#f7cdba"/>
        <path id="Path_45665" data-name="Path 45665" d="M55.5,77.5h-.3A2.742,2.742,0,0,1,53.1,76l-7-11.9,4.8-4.9,5.2,10.7,5.1-6.5,4.1,3.2-7.8,9.9a2.462,2.462,0,0,1-2,1Z" fill="#fff"/>
        <path id="Path_45666" data-name="Path 45666" d="M63.7,63.1c-.1,0-.1,0-.2-.1s-.2-.3-.1-.4L75.3,45.8c0-.1.1-.1.2-.1h.1a.367.367,0,0,1,.1.3L64,63a.367.367,0,0,1-.3.1Z" fill="#231f20"/>
        <path id="Path_45667" data-name="Path 45667" d="M62.7,63.8a.73.73,0,0,1-.7-.6,2.364,2.364,0,0,1,.5-1.9,2.548,2.548,0,0,1,2.2-.6c.4.1.7.4.6.8s-.4.7-.8.6a1.454,1.454,0,0,0-1,.1c-.2.2-.1.6-.1.7a.779.779,0,0,1-.6.9Z" fill="#f7cdba"/>
      </g>
      <g id="Group_7034" data-name="Group 7034" clip-path="url(#clip-path)">
        <g id="Group_7033" data-name="Group 7033">
          <path id="Path_45668" data-name="Path 45668" d="M43.8,40.8V37.7c-.3-4-4.4-6.9-8.4-6.5-4,.3-7.5,3.9-7.1,7.9l.5,3a2.092,2.092,0,0,0-.6.4,1.5,1.5,0,0,0-.4,1.1l.1,1.5a1.456,1.456,0,0,0,1.6,1.3c.3,3.8,5.2,6.9,7.8,6.7,2.7-.2,6.9-4.2,6.6-7.9a1.456,1.456,0,0,0,1.3-1.6L45,42.1a1.389,1.389,0,0,0-1.2-1.3Z" fill="#f7cdba"/>
        </g>
        <path id="Path_45669" data-name="Path 45669" d="M40.3,48.2c-1.1-1-3.3-.9-3.5-.9h0c-.2,0-2.4.3-3.3,1.5a.6.6,0,0,0-.1.4,15.825,15.825,0,0,0,.5,2.9.215.215,0,0,0,.2.2,7.714,7.714,0,0,0,3.2.7,7.46,7.46,0,0,0,3.1-1.2c.1-.1.1-.2.2-.3a26.349,26.349,0,0,0,0-3Zm-.9,2.9a5.287,5.287,0,0,1-1.5.7l-.1-.8a.752.752,0,0,0-1.5.1l.1.8a9.074,9.074,0,0,1-1.6-.4,16.916,16.916,0,0,1-.3-2.1,5.108,5.108,0,0,1,2.4-.9,4.853,4.853,0,0,1,2.5.5,14.252,14.252,0,0,1,0,2.1Z" fill="#3c2517"/>
        <path id="Path_45670" data-name="Path 45670" d="M44.3,33.6c.2-1-.2-2.5-1.3-4.8a.656.656,0,0,0-1.1-.1c-.8,1.2-2,1.3-3.9.4-2.8-1.2-4.9-.6-6.2.6C22.3,32.2,29,44,29,44s-1.3-7.4,2.1-7.2a37.679,37.679,0,0,0,4.8,0,28.653,28.653,0,0,0,4.7-.8c3.3-.8,3.3,6.7,3.3,6.7S46.1,37.5,44.3,33.6Z" fill="#3c2517"/>
        <path id="Path_45671" data-name="Path 45671" d="M44.2,39.5l-1.6.1a4.675,4.675,0,0,0-2.2-.2c-1.6.1-2.7.5-3.2,1.2a1.978,1.978,0,0,0-1.1-.2,2.1,2.1,0,0,0-1.1.4,4.338,4.338,0,0,0-3.3-.6,4.784,4.784,0,0,0-2.1.6l-1.6.1.1,1.1.5.1v.6c.1,1.4.6,3.2,3.6,3,2.6-.2,3.2-1.9,3.4-3.5v-.7a.956.956,0,0,1,.7-.2c.4,0,.6,0,.7.1a1.952,1.952,0,0,0,.1.7c.5,1.5,1.3,3.1,3.9,2.9,2.9-.3,3.1-2.1,3-3.5,0-.2-.1-.4-.1-.6l.5-.2Zm-9.1,2.7c-.2,1.7-.8,2.8-2.8,3-2.4.2-2.8-1-2.9-2.4,0-.4-.2-1.8,2.5-2,1.9-.2,2.6.2,3,.5A2,2,0,0,1,35.1,42.2Zm5.8,2.3c-2.1.2-2.8-.9-3.3-2.5a1.147,1.147,0,0,1,.1-1c.3-.4,1-.9,2.8-1,2.7-.2,2.8,1.1,2.9,1.5.1,1.4-.1,2.7-2.5,3Z" fill="#231f20"/>
      </g>
      <g id="Group_7035" data-name="Group 7035" clip-path="url(#clip-path)">
        <path id="Path_45672" data-name="Path 45672" d="M69.3,46.1a9.58,9.58,0,0,1,1.2-3.2,7.809,7.809,0,0,1,2.4-2.7,3.166,3.166,0,0,1,2.3-.7,2.7,2.7,0,0,1,2.6,2.4,4.106,4.106,0,0,1-1.6,3,3.072,3.072,0,0,0-1,1.5,2.618,2.618,0,0,1-.6,1.3,2.06,2.06,0,0,1-1.7.7,3.716,3.716,0,0,1-2.2-.8,8.636,8.636,0,0,1-1.3-1.4C69.4,46.4,69.3,46.3,69.3,46.1Z" fill="#c34630"/>
        <path id="Path_45673" data-name="Path 45673" d="M90.4,56.1c0-1,0-2,.1-3A14.755,14.755,0,0,1,91.8,48a8.008,8.008,0,0,1,1.5-2.1,1.905,1.905,0,0,1,1-.5c.3-.1.5,0,.8-.2h.3a1.7,1.7,0,0,0,.7-.1c.3-.1.3-.3.2-.5-.1-.1-.1-.2-.2-.3s-.1-.1-.1-.2l.1-.1c.3,0,.4-.2.5-.4a.1.1,0,0,1,.2,0c.1.2.1.4.2.5l.1.1a.1.1,0,0,0,.1-.1v-.4c0-.1,0-.2.1-.2s.1,0,.1.1a.592.592,0,0,0,.7.1h.2a.139.139,0,0,1,0,.2,1.421,1.421,0,0,0-.2.6c0,.2.1.3.3.2l.3-.3c.1-.1.1-.2.2-.1.1.3.1.5.4.7.1.1.2.1.3.2,0,.2-.2.2-.3.3a1,1,0,0,0-.5.4c-.1,0-.1.1-.1.2s.1.1.2.1h.6a.367.367,0,0,1,.3.1c0,.2-.1.3-.1.4a.6.6,0,0,0,.1.4c0,.1.1.1.1.2-.2.1-.4,0-.6,0s-.4,0-.4.2.2.2.3.3c.2.1.3.1.5.2.1,0,.2,0,.2.1v.1c-.3.2-.3.4-.3.7,0,.1-.1.1-.2.1a4.875,4.875,0,0,0-.7-.3c-.1,0-.1-.1-.2,0s0,.1,0,.2a2.181,2.181,0,0,0,.4.5c.1.1.2.1.1.3a.1.1,0,0,0-.1.1.666.666,0,0,0-.7.5c-.1,0-.1-.1-.2-.2-.1-.2-.2-.5-.4-.6-.1.2,0,.5,0,.7v.3h0c-.2-.2-.5-.2-.8-.3-.1-.2,0-.4,0-.5A2.881,2.881,0,0,0,94.6,47a1.651,1.651,0,0,0-1.5.5,3.528,3.528,0,0,0-.8,1.3A15.317,15.317,0,0,0,91.2,53a14.473,14.473,0,0,0-.1,3.6V57c-.1.1-.1.1-.1.2.1.4,0,.7.1,1.1v.1a.367.367,0,0,1-.1.3c-.2-.1-.1-.3-.2-.5a5.019,5.019,0,0,0-.2-1.2v-.2C90.4,56.4,90.5,56.3,90.4,56.1Z" fill="#fab486"/>
        <path id="Path_45674" data-name="Path 45674" d="M69.3,46.1a5.8,5.8,0,0,0,1,1.2A3.777,3.777,0,0,0,73,48.5,1.909,1.909,0,0,0,75,47c.2-.4.2-.8.4-1.2a2.836,2.836,0,0,1,.9-1,3.815,3.815,0,0,0,1.1-1.4,8.8,8.8,0,0,0,.5-1.5,2.438,2.438,0,0,1,0,1.2,6.173,6.173,0,0,1-1.5,2.2,2.13,2.13,0,0,0-.7,1.6,9.971,9.971,0,0,0,.2,1.6,2.388,2.388,0,0,1-1.5,3,3.124,3.124,0,0,1-3.2-.7,6.569,6.569,0,0,1-1.7-2.9,5.853,5.853,0,0,1-.2-1.3C69.2,46.4,69.3,46.3,69.3,46.1Z" fill="#bf3b29"/>
        <path id="Path_45675" data-name="Path 45675" d="M69.2,46.6c.1.1,0,.3.1.4a6.855,6.855,0,0,0,1.1,2.8,3.536,3.536,0,0,0,2.5,1.8,2.4,2.4,0,0,0,2.9-2,1.986,1.986,0,0,0-.1-1.1,3.63,3.63,0,0,1-.1-2.3,1.8,1.8,0,0,1,.6-.9,6.1,6.1,0,0,0,1.2-1.6c.1-.2.2-.3.3-.5h0a2.106,2.106,0,0,1-.5,1.3,3.508,3.508,0,0,0-.5.8.52.52,0,0,1-.2.4,3.08,3.08,0,0,0-.5,1.2v.7c0,.2.1.4.1.6a10.548,10.548,0,0,1,.5,1.9,4.086,4.086,0,0,1-.3,2.2,2.553,2.553,0,0,1-2.2,1.5h-.7a3.84,3.84,0,0,1-2.3-1.1,6.205,6.205,0,0,1-1.8-3.6A7.1,7.1,0,0,1,69.2,46.6Z" fill="#b42025"/>
        <path id="Path_45676" data-name="Path 45676" d="M81.7,72.2A7.068,7.068,0,0,1,85.4,71h.9a5.758,5.758,0,0,1,3.8,1.2.821.821,0,0,1,.5.5,2.318,2.318,0,0,1-.3,3.1,6.9,6.9,0,0,1-2.7,1.7c-.2.1-.3.1-.5.2a.85.85,0,0,0-.7.7,5.867,5.867,0,0,0-.4,2.3V81c-.1-.1,0-.2,0-.3v.7c-.3.1-.4.1-.4-.2a6.632,6.632,0,0,0-.5-2.8.9.9,0,0,0-.6-.6,8.67,8.67,0,0,1-2.7-1.4,2.865,2.865,0,0,1-1.1-1.9,1.964,1.964,0,0,1,.5-1.5C81.3,72.4,81.4,72.2,81.7,72.2Z" fill="#f48060"/>
        <path id="Path_45677" data-name="Path 45677" d="M97.3,39.6a3.022,3.022,0,0,1,1.6.5,7.022,7.022,0,0,1,2.8,3.1,9.082,9.082,0,0,1,1.1,4.9,6.389,6.389,0,0,1-2.2,4.8,3.947,3.947,0,0,1-3.1.9,2.76,2.76,0,0,1-2.4-2.4,4.517,4.517,0,0,1,.1-2,5.637,5.637,0,0,1,.4-1.2c.1-.1.2.1.2.1v.1c-.1.5-.3.9-.4,1.4a3.431,3.431,0,0,0,.5,2.8l.3.3c.1,0,.1.1.2.1a.31.31,0,0,0,.2.1.367.367,0,0,0,.3.1h.2a1.268,1.268,0,0,0,.6.1,3.4,3.4,0,0,0,1.4-.2c.1,0,.2-.1.3-.1a3.638,3.638,0,0,0,1.6-1.4,1.612,1.612,0,0,0,.4-.7.764.764,0,0,0,.2-.5c.1-.2.2-.5.3-.7a.6.6,0,0,0,.1-.4V46.6c0-.2-.1-.4-.1-.6v-.8c0-.1-.1-.3-.1-.4-.1-.2-.1-.4-.2-.6V44c-.4-.7-.7-1.1-.9-1.5a.1.1,0,0,0-.1-.1c-.1-.1-.2-.2-.2-.3l-.1-.1c-.2-.2-.4-.5-.6-.7a2.7,2.7,0,0,0-.8-.7l-.1-.1a.1.1,0,0,1-.1-.1.349.349,0,0,1-.2-.1c-.1-.1-.2-.1-.3-.2a.367.367,0,0,0-.3-.1.1.1,0,0,1-.1-.1H97A2.422,2.422,0,0,0,94.8,41a2.01,2.01,0,0,0-.4,1.3v.5a3.456,3.456,0,0,0,.7,2c.1.1.2.2.1.3s-.1.1-.2.1a3.831,3.831,0,0,1-.8-3.7,2.727,2.727,0,0,1,2.5-1.9Z" fill="#c34630"/>
        <path id="Path_45678" data-name="Path 45678" d="M79.7,47.2a14,14,0,0,1,1.7,6.5,26.13,26.13,0,0,1,0,2.8c-.1.1.1.3-.1.3h-.2a.367.367,0,0,1-.1-.3,18.442,18.442,0,0,0-.6-6.2,8.18,8.18,0,0,0-1-2.4,2.7,2.7,0,0,0-.7-.8,1.65,1.65,0,0,0-2,0c-.1.1-.2.2-.4.1s-.1-.3,0-.4a2.947,2.947,0,0,1,.5-1.3c.1-.1.1-.2.3-.2a2.417,2.417,0,0,1,1.9,1C79.2,46.6,79.5,46.9,79.7,47.2Z" fill="#fab487"/>
        <path id="Path_45679" data-name="Path 45679" d="M77.1,45.3a2.875,2.875,0,0,0-.7,1.8v.2c.1,0,.1,0,.2-.1a2.01,2.01,0,0,1,1.3-.4,1.606,1.606,0,0,1,1.1.5,3.36,3.36,0,0,1,1,1.6,12.411,12.411,0,0,1,.9,3.3c.1.5.1,1.1.2,1.6a22.549,22.549,0,0,1,0,2.6v.3c0,.1,0,.1.1.1.1.1,0,.2,0,.3v.1a.367.367,0,0,1-.1.3.1.1,0,0,1-.1.1c-.1,0-.1,0-.1-.1v-.4a.367.367,0,0,0-.1-.3,12.035,12.035,0,0,0,0-1.9,20.413,20.413,0,0,0-.9-5.5,4.812,4.812,0,0,0-.8-1.6,1.507,1.507,0,0,0-2.1-.5c-.3.2-.5.4-.8.6-.1.1-.1.1-.1.2a2.614,2.614,0,0,1,.6-2.8Z" fill="#f8a069"/>
        <path id="Path_45680" data-name="Path 45680" d="M90.8,56.7V54.6a15.262,15.262,0,0,1,.3-3,11.429,11.429,0,0,1,.9-3,3.528,3.528,0,0,1,.8-1.3,1.866,1.866,0,0,1,2.5-.3,3.151,3.151,0,0,1,1.5,2.7V50c0,.1-.1.1-.2.1a.367.367,0,0,1-.1-.3A2.383,2.383,0,0,0,96,48c-.1-.1-.1-.2-.2-.3,0-.1,0-.1-.1-.2a2.384,2.384,0,0,0-1.1-.6,1.613,1.613,0,0,0-1.8.6,5.559,5.559,0,0,0-.9,1.7,16.058,16.058,0,0,0-.8,3.8c-.1,1.1-.1,2.2-.1,3.3v1.8c0,.2.1.3.2.5a5.854,5.854,0,0,0,.2,1.3.6.6,0,0,1-.1.4h-.1l-.1-.1c0-.2-.1-.3-.1-.5a1.7,1.7,0,0,1-.1-.7,3.083,3.083,0,0,1-.1-1h0a5.633,5.633,0,0,1,0-1.3Z" fill="#f8a169"/>
        <path id="Path_45681" data-name="Path 45681" d="M90.6,72.7c-.1-.2-.3-.3-.5-.5.1,0,.2-.2.2-.3.3.1.4-.1.5-.3a7.5,7.5,0,0,0,.9-3,19.329,19.329,0,0,0,.1-3.4,14.918,14.918,0,0,0-.2-2.1v-.5c0-.1,0-.2.1-.2s.1.1.1.2a.9.9,0,0,0,.1.5v.1a23.579,23.579,0,0,1,.2,3.8,9.657,9.657,0,0,1-.9,4.4,13.915,13.915,0,0,1-.6,1.3Z" fill="#f8a069"/>
        <path id="Path_45682" data-name="Path 45682" d="M81.7,72.2c-.1.2-.3.3-.4.5-.1-.3-.4-.6-.5-.9a8.507,8.507,0,0,1-.9-3.1,21.763,21.763,0,0,1,.1-5.1V63h.1c.2.1.1.2.1.3,0,.5-.1,1-.1,1.5a12.188,12.188,0,0,0,0,2.7,21.657,21.657,0,0,0,.4,2.5,9.386,9.386,0,0,0,.6,1.5c.1.2.2.4.5.3C81.6,72,81.6,72.1,81.7,72.2Z" fill="#f8a069"/>
        <path id="Path_45683" data-name="Path 45683" d="M80.5,59.4c0-.4.2-.8.2-1.2,0-.5.1-1,.1-1.5h0a.31.31,0,0,1,.1.2v1.4a3.4,3.4,0,0,1-.1,1c-.2.1-.2.1-.3.1h0Z" fill="#f7b282"/>
        <path id="Path_45684" data-name="Path 45684" d="M95.7,47.9c.2-.1.2.1.2.2s0,.2-.1.2-.1-.1-.2-.1a.367.367,0,0,0,.1-.3Z" fill="#ba2c26"/>
        <path id="Path_45685" data-name="Path 45685" d="M95,45.1c.1-.1.1,0,.2-.1h.1c.1.1.1.1.1.2-.1.1-.2.1-.4-.1Z" fill="#b82626"/>
        <path id="Path_45686" data-name="Path 45686" d="M73.4,53.7a.854.854,0,0,1,.7,0A.854.854,0,0,1,73.4,53.7Z" fill="#b01f24"/>
        <path id="Path_45687" data-name="Path 45687" d="M86,81.1c-.1-.2,0-.5,0-.7Z" fill="#f37658"/>
        <path id="Path_45688" data-name="Path 45688" d="M97.3,39.6a.446.446,0,0,1-.5,0A.446.446,0,0,1,97.3,39.6Z" fill="#bf3c27"/>
        <path id="Path_45689" data-name="Path 45689" d="M81.5,71.9c-.3.1-.3.1-.5-.2A10.742,10.742,0,0,1,79.9,66a16.412,16.412,0,0,1,.2-2.3v-.4a1.421,1.421,0,0,1,.2-.6c-.1-.4.1-.7.2-1.1V61a.735.735,0,0,1,.2-.6c.1-.2,0-.3,0-.5v-.4c.1-.2.2-.3.2-.5v-.1c.1-.2,0-.4,0-.6a.9.9,0,0,0,.1-.5v-.3c.1-.2,0-.4.1-.6v-.2h.1a.367.367,0,0,1,.1.3,12.252,12.252,0,0,1-.2,1.9V59a5.662,5.662,0,0,1-.3,1.8l-.3,1.8v.6a18.8,18.8,0,0,0-.2,4.1,10.636,10.636,0,0,0,.9,4Z" fill="#fbb588"/>
        <path id="Path_45690" data-name="Path 45690" d="M91.4,64.6c0-.4-.1-.8-.1-1.3v-.4c.2-.1.2,0,.2.1v.1a14.921,14.921,0,0,1,.2,2.1,10.454,10.454,0,0,1,0,2.5,8.769,8.769,0,0,1-1.1,4.2c-.1.3-.3.2-.4.1a6.682,6.682,0,0,0,1-3,21.054,21.054,0,0,0,.2-2.5A6.045,6.045,0,0,0,91.4,64.6Z" fill="#fbb588"/>
        <path id="Path_45691" data-name="Path 45691" d="M86.3,71a1.388,1.388,0,0,1-.9,0Z" fill="#f37757"/>
        <path id="Path_45692" data-name="Path 45692" d="M74.8,42.6a2.389,2.389,0,0,1-1.4-.5.935.935,0,0,1,0-1.6,2.55,2.55,0,0,1,3,.1.987.987,0,0,1-.1,1.6A2.41,2.41,0,0,1,74.8,42.6Z" fill="#cb6046"/>
        <path id="Path_45693" data-name="Path 45693" d="M94.8,40.9A1.785,1.785,0,0,1,96,40a3.553,3.553,0,0,1,1-.2c.1.1.1.1,0,.2-.1.2,0,.4,0,.6v1.1a1.962,1.962,0,0,0,.1,1.5c0,.1.2.2.1.4v.7c0,.1,0,.1-.1.2-.1,0-.1,0-.2-.1a1.08,1.08,0,0,1-.3-.7l-.1.1v-.9a1.421,1.421,0,0,0-.2-.6v-.1a2.544,2.544,0,0,0-.2-.7l-.3-.9c.1.3.2.6.3,1,0,.2.2.4.1.6h-.1v-.1c-.1-.5-.3-.9-.4-1.4,0-.1-.1-.1-.1-.2a.31.31,0,0,0,.1.2c.1.4.3.8.4,1.2v.2H96c-.2-.3-.2-.6-.4-.9,0-.1-.1-.1-.1-.2a6.891,6.891,0,0,1,.3.8c0,.1.1.1,0,.2h-.1c-.2,0-.2-.1-.2-.2a6.891,6.891,0,0,0-.3-.8c0-.1-.1,0,0,0h0c.1.3.3.7.4,1a.1.1,0,0,1-.1.1c-.2-.2-.2-.4-.4-.6v-.1c0-.1-.1-.1-.1-.2C94.8,41.1,94.7,41,94.8,40.9Z" fill="#e38266"/>
        <path id="Path_45694" data-name="Path 45694" d="M99.2,53.3a3.178,3.178,0,0,1-1.4.2v-.1c-.1-.4-.1-.8-.2-1.2v-.1h.1c.1.3.1.6.2.9h0c-.1-.3-.1-.6-.2-.9V52c.1-.2,0-.4,0-.6-.1-.3-.2-.5-.3-.8,0-.1-.1-.1,0-.2a3.083,3.083,0,0,1-.1-1c0-.1,0-.1.1-.2.1,0,.1,0,.2.1.2.3.3.5.5.8.1.2,0,.3.1.5a2.354,2.354,0,0,0,.2.8c.1.2.1.3.3.4h.1v.1a10.263,10.263,0,0,0,.4,1.4Z" fill="#e38165"/>
        <path id="Path_45695" data-name="Path 45695" d="M99.9,41.3a1.874,1.874,0,0,1,.6.7.349.349,0,0,1-.1.2c.1,0,0-.2.2-.1.1.1.2.2.2.3,0,.3-.2.4-.4.6h-.1c-.4-.3-.7-.2-1,.2a3.552,3.552,0,0,0-.4.9.367.367,0,0,1-.1.3c-.2.2-.3.4-.6.5-.2.1-.3,0-.3-.2a1.884,1.884,0,0,1,.2-.8v-.1a.215.215,0,0,1,.2-.2,1.344,1.344,0,0,0,.6-.7c.1-.1.1-.2.1-.4v-.2c0-.1.1-.1.1-.2V42c.1-.2.3-.4.4-.6C99.7,41.4,99.8,41.2,99.9,41.3Z" fill="#e38066"/>
        <path id="Path_45696" data-name="Path 45696" d="M98.6,51.8c-.2,0-.3-.2-.4-.3a5.853,5.853,0,0,1-.2-1.3.661.661,0,0,1,.7-.6c.1,0,.2.2.3.3.1,0,.1.1.2.1,0-.1-.2,0-.1-.2a1.493,1.493,0,0,1,.7.3.367.367,0,0,0,.3.1c.1,0,.1.1.1.2v.2h-.1c-.1,0-.1-.1-.2-.2s-.2-.1-.3-.2c0,.1.1.1.2.1h0c.1,0,.1.1.2.2v.1c0,.1,0,.1-.1.1-.3-.1-.5-.4-.8-.6.2.1.1-.1-.1-.1-.1,0-.1-.1-.2-.1a.349.349,0,0,1,.2.1c.1.1.3.2.4.3.3.2.5.4.8.6V51h-.1a3.915,3.915,0,0,1-1-.8c.2.3.5.5.7.8l.2.2v.2l-.1.1h-.3a4.234,4.234,0,0,1-.5-.7h0c.2.2.3.5.5.7v.1l-.1.1h-.1a7.458,7.458,0,0,1-.7-1.2,12.751,12.751,0,0,1,.7,1.2v.1h-.1a4.053,4.053,0,0,1-.5-.9c0-.1-.1-.2-.1-.3a.1.1,0,0,0-.1-.1c0,.1,0,.1.1.2.2.3.4.7.6,1,0,.1.1.1,0,.2,0,.1-.1.1-.2.1a2.22,2.22,0,0,1-.5-1.1.349.349,0,0,0-.1-.2,7.539,7.539,0,0,0,.6,1.3v.1h-.2c-.2-.3-.2-.3-.3-.3h0a2.768,2.768,0,0,1-.3-1.3h0a4.962,4.962,0,0,0,.3,1.3Z" fill="#da5341"/>
        <path id="Path_45697" data-name="Path 45697" d="M102.5,48.1h0a1.183,1.183,0,0,1-1,.1l-.1-.1c0-.1.1-.1.2-.1.2,0,.5-.1.7-.1-.3,0-.6.1-.8.1-.1,0-.2-.1-.3-.2h-.1a2.719,2.719,0,0,0-.9,0c-.2,0-.3.1-.5.1a3.552,3.552,0,0,1-.9-.4c-.1-.1-.2-.1-.2-.3s.2-.2.3-.2a2.152,2.152,0,0,1,.8,0,.367.367,0,0,1,.3.1,2.768,2.768,0,0,0,1.3.3h.1c.1,0,.1-.1.2-.2v-.1a.1.1,0,0,1,.1-.1h.1a.1.1,0,0,0,.1.1.6.6,0,0,0,.4.1.265.265,0,0,1,.3.3A1.268,1.268,0,0,0,102.5,48.1Z" fill="#e38066"/>
        <path id="Path_45698" data-name="Path 45698" d="M99.8,48a2.954,2.954,0,0,1,1.3-.2h.1c-.4.1-.8.1-1.2.2a5.019,5.019,0,0,1,1.2-.2c.1,0,.1.1.2.2h0c-.5,0-.9.1-1.5.1a7.084,7.084,0,0,1,1.4-.1.1.1,0,0,1,.1.1h0v.1h0l-.1.1a7.519,7.519,0,0,0-1.5,0,9.151,9.151,0,0,1,1.6.1v.1a.188.188,0,0,1-.3,0c-.4-.1-.7,0-1-.1a4.888,4.888,0,0,0,1.3.1h.1v.2h0a2.2,2.2,0,0,0-.8-.1.6.6,0,0,1-.4-.1h0v.1h0c.4.1.8.2,1.1.3h.1V49a.1.1,0,0,1-.1.1,4.328,4.328,0,0,1-1.2-.5c.2.1.5.2.7.3s.4.1.5.2v.1a.1.1,0,0,1-.1.1,10.373,10.373,0,0,1-1-.4.367.367,0,0,0-.3-.1c.1,0,.1.1.2.1.3.2.7.3,1,.5h.1v.1l-.2.2c-.1.1-.1.1-.2.1a3.039,3.039,0,0,1-.7-.5.1.1,0,0,1-.1-.1l.1.1c.2.2.4.3.6.5a.367.367,0,0,1-.3.1,1.949,1.949,0,0,1-1-1v-.2C99.4,48.4,99.4,48.1,99.8,48Z" fill="#da5341"/>
        <path id="Path_45699" data-name="Path 45699" d="M97.5,50.3v.2c.1.3.2.6.3,1a.6.6,0,0,0,.1.4V52l-.1.1h0c-.1-.5-.1-.9-.2-1.4.1.4.1.9.2,1.4h0l-.1.1h-.1l-.1-.1c-.1-.5,0-1.1-.1-1.6a8.6,8.6,0,0,1,.1,1.6h-.1a.1.1,0,0,1-.1-.1c0-.6-.1-1.1-.1-1.7,0,.5.1,1.1.1,1.6,0,.1,0,.1-.1.1h-.1v-.2a6.15,6.15,0,0,1,.1-1.4c0-.1-.1-.1,0-.1h0a7.569,7.569,0,0,1-.1,1.5.139.139,0,0,1-.2,0c-.1-.2,0-.3,0-.5a2.483,2.483,0,0,1,.1-.9c0,.4-.1.9-.1,1.4l-.1.1c-.1,0-.1,0-.2-.1a.44.44,0,0,1,.1-.5c.1-.3.1-.7.2-.9a13.042,13.042,0,0,0-.3,1.3v.1c-.1,0-.1,0-.2-.1v-.3a3.582,3.582,0,0,1,.4-1.1h-.1c-.2.5-.3.9-.5,1.4a.215.215,0,0,1-.2-.2,10.374,10.374,0,0,0,.4-1v-.1h0a3,3,0,0,0-.4,1c-.2,0-.2-.2-.2-.3,0-.2.2-.3.3-.5h0c0,.1,0,.2-.2.2-.1-.1,0-.2,0-.3a1.794,1.794,0,0,1,.5-.7c.1-.1.1-.1.2-.1l.1-.1a2.509,2.509,0,0,0,.8.7Z" fill="#da5441"/>
        <path id="Path_45700" data-name="Path 45700" d="M100.8,49.9c.1,0,.1-.1.2-.1s.1.1,0,.2h.2c.1,0,.2.1.3.2s.1.1.2.1.2.1.1.2-.2.1-.2,0c-.1-.1-.1-.1-.2-.1.1,0,.1,0,.2.1s.1.2.3.2v.1c-.1.2-.1.3-.2.4h0a10.907,10.907,0,0,1-1.1-.6c0-.1-.1,0-.2-.1,0-.1,0-.1-.1-.1h0a1.7,1.7,0,0,0-1-.6.367.367,0,0,1-.3-.1h0c-.1-.2-.4-.3-.5-.6l-.1-.1c-.1-.1-.2-.2-.1-.4.1-.1.2,0,.3,0l.6.3c.1,0,.1.1.2-.1a1.818,1.818,0,0,0,1,1.1c.1.1.2.1.4,0Z" fill="#e38066"/>
        <path id="Path_45701" data-name="Path 45701" d="M101.9,44.3a1.421,1.421,0,0,1,.2.6c0,.1,0,.1-.1.2-.2.1-.4.3-.6.3h-.1c-.1,0-.1-.1-.2-.1h-.2a2.177,2.177,0,0,0-.8.5,1.38,1.38,0,0,1-.4.3c-.2-.1-.5,0-.8-.1-.1,0-.3.1-.4-.1s.1-.2.2-.3c.2-.2.6-.3.8-.5a.367.367,0,0,1,.3-.1,1.7,1.7,0,0,0,.7-.1c.2,0,.4-.1.4-.3a3.809,3.809,0,0,1,1-.3Z" fill="#e38066"/>
        <path id="Path_45702" data-name="Path 45702" d="M99.2,42.4c.1.1,0,.3,0,.4a1.962,1.962,0,0,1-.9.9c-.5.2-.7.2-1-.1a3.255,3.255,0,0,1-.4-1.4.9.9,0,0,1,.1-.5c.1.2,0,.5.1.8,0,.2.1.3.1.5,0-.4-.1-.8-.1-1.3v-.1a.1.1,0,0,1,.1-.1l.1.1a7.569,7.569,0,0,0,.1,1.5c-.1-.5,0-1-.1-1.5v-.1h.2a.1.1,0,0,1,.1.1c0,.6-.1,1.2-.1,1.8V42.3a1.7,1.7,0,0,1,.1-.7h.1a2.152,2.152,0,0,1,0,.8V43c-.1.2,0,.4-.1.5,0,0,0-.1.1,0a.31.31,0,0,1,.1.2c0-.1.1-.2.1-.3.2-.4.4-.9.6-1.3,0-.1,0-.1.1-.2h.1V42a6.72,6.72,0,0,1-.6,1.2c0,.1-.1.1-.1.3,0-.1.1-.2.1-.3.2-.3.3-.7.5-1,0-.1,0-.1.1-.2.1,0,.2,0,.2.1l-.3.6a1.38,1.38,0,0,1-.3.4c.1-.1.2-.3.3-.4.1-.2.3-.4.3-.6.1-.1.1,0,.1.1.2,0,.1.1.2.2h0a1.794,1.794,0,0,1-.5.7.1.1,0,0,1-.1.1v-.1C98.8,42.8,99.1,42.6,99.2,42.4Z" fill="#da5441"/>
        <path id="Path_45703" data-name="Path 45703" d="M101.1,44.7c-.1.4-.5.4-.8.4h-.7a.761.761,0,0,1-.7-.8,4.234,4.234,0,0,1,.4-1.2c.1-.1.2-.3.4-.3.3-.1.4-.1.7.2h0c-.2.3-.5.5-.7.8v.1a.349.349,0,0,0-.1.2v.1l-.1.1v.1s-.1.1,0,.1h0c0,.1-.1.1-.1.2.1,0,.2.2.3.2s.2-.1.3-.1c.3-.1.6-.3.9-.4.1,0,.2-.1.3-.1a.1.1,0,0,1,.1.1v.2a3,3,0,0,1-1,.4c-.1,0-.2,0-.2.1.1,0,.2,0,.2-.1.3-.1.5-.2.8-.3.1,0,.1-.1.2,0v.2a1.854,1.854,0,0,1-.7.2,1.268,1.268,0,0,1-.6.1c.2,0,.4-.1.6-.1a.51.51,0,0,1,.5-.4Z" fill="#da5441"/>
        <path id="Path_45704" data-name="Path 45704" d="M95.8,41.9H96a3.178,3.178,0,0,0,.3.9c0,.1.1.2.1.4h.1c.1.1,0,.2.1.3v.1c-.1.4-.3.4-.7.4h-.2a1.612,1.612,0,0,1-.7-.4c-.1-.1-.2-.2-.2-.3.1-.1.2.1.2.1l.1.1a.1.1,0,0,0-.1-.1.758.758,0,0,0-.4-.2.188.188,0,0,1,0-.3h.1l.3.3c.2.1.2.3.4.3.1,0,.1.1.2.2h0c-.1,0-.1-.1-.2-.2a1.38,1.38,0,0,0-.4-.3l-.3-.3v-.2c.2,0,.2.2.3.2l.4.4-.6-.6h-.1v-.2h.1c.1.3.4.5.6.7l.2.2a2.7,2.7,0,0,1-.7-.8c-.1-.1-.1-.1-.1-.2s0-.1.1-.1l.6.6.2.2h.1a.1.1,0,0,1,.1.1H96a.1.1,0,0,1,.1-.1h.1l.1.1c-.1-.1-.1-.3-.2-.4a7.931,7.931,0,0,1-.4-.9c0-.1.1,0,.1-.1-.1.1-.1.1,0,.1h0c.1.4.3.9.4,1.3,0,.1.1,0,0,0h0c-.1-.4-.3-.8-.4-1.3Z" fill="#da5341"/>
        <path id="Path_45705" data-name="Path 45705" d="M101.7,47.1l-.1.1a3.083,3.083,0,0,0-1-.1.367.367,0,0,1-.3-.1,4.1,4.1,0,0,0,1.1.1h.2a.215.215,0,0,1-.2.2,3.81,3.81,0,0,1-1-.3h0a3.81,3.81,0,0,1,1,.3,2.079,2.079,0,0,1-1.1-.1l-.6-.3c-.1-.2-.3-.3-.2-.6,0-.1.1.1.1,0a.215.215,0,0,1,.2-.2h.1l.1.1c.1,0,.2-.1.3-.1a.188.188,0,0,0,.3,0,2.354,2.354,0,0,1,.8-.2c.1,0,.2-.1.3,0h.1v.2c-.1,0-.2.1-.4.1a2.959,2.959,0,0,1-1,.2h0v.1c0,.1-.1,0-.2,0,.2,0,.3-.1.4-.1.2.1.4-.1.5.1a.1.1,0,0,1-.1.1h.7v.2a4.034,4.034,0,0,1-1.1,0h-.4a7.519,7.519,0,0,0,1.5,0v.3Z" fill="#d95140"/>
        <path id="Path_45706" data-name="Path 45706" d="M99.9,46.3c-.1.1-.2.1-.2.3v.1c-.1,0-.1,0-.1-.1a.1.1,0,0,0-.1-.1.52.52,0,0,1,.2-.4,2.757,2.757,0,0,1,.9-.7c.1,0,.1-.1.2-.1,0,.1,0,.1-.1.1a2.186,2.186,0,0,0-.5.3,9.223,9.223,0,0,0,.8-.5c.1,0,.2,0,.2.1a.1.1,0,0,1-.1.1c-.2.1-.5.2-.7.3.3-.1.6-.3.9-.4.1,0,.1.1.2.1v.1h-.1c-.4.1-.7.3-1.1.4C100.2,46.2,100.1,46.4,99.9,46.3Z" fill="#db5442"/>
        <path id="Path_45707" data-name="Path 45707" d="M91.4,63c-.1.1,0,.2-.1.3,0-.1,0-.1.1-.3a3.545,3.545,0,0,1-.3-1.1c-.1-.5-.1-.9-.2-1.3a8.754,8.754,0,0,1-.2-1.6c-.1-.5-.1-1-.2-1.5v-.7h0c.1,0,.1.2.1.2a5.9,5.9,0,0,0,.2,1.4,5.853,5.853,0,0,1,.2,1.3c0,.1.1.3.1.4a.6.6,0,0,0,.1.4,1.949,1.949,0,0,1,.1.8c0,.4.2.7.2,1.1C91.4,62.5,91.4,62.8,91.4,63Z" fill="#f9c8a8"/>
        <path id="Path_45708" data-name="Path 45708" d="M95.7,44h.1c.1.2.3.3.4.5s.1.4-.1.5a1.884,1.884,0,0,1-.8.2c0-.1-.1-.1-.1-.2a.1.1,0,0,1,.1-.1h.1c.6-.1.6-.2.3-.7Z" fill="#dc6e54"/>
        <path id="Path_45709" data-name="Path 45709" d="M91,60.1c-.1-.6-.1-1.1-.2-1.7v-.3a5.853,5.853,0,0,1,.2,1.3.756.756,0,0,0,.1.4c0,.2.1.3.1.5v.1a.854.854,0,0,1,0,.7c-.1.1-.1,0-.1-.1a2.769,2.769,0,0,0-.1-.9Z" fill="#faad7b"/>
        <path id="Path_45710" data-name="Path 45710" d="M99.2,49.8c0,.1.2.1.3.3-.3-.2-.6-.2-.7-.5h.1c.2,0,.3,0,.3.2Z" fill="#d64a3a"/>
        <path id="Path_45711" data-name="Path 45711" d="M90.8,56.7v1.2a4.1,4.1,0,0,0-.1-1.1C90.6,56.7,90.7,56.7,90.8,56.7Z" fill="#faad7b"/>
        <path id="Path_45712" data-name="Path 45712" d="M81.2,73.6a2.726,2.726,0,0,1,1.3-1.5,6.567,6.567,0,0,1,3.9-.8,9.37,9.37,0,0,1,2.8.6,2.56,2.56,0,0,1,1.5,1.7v.2a1.794,1.794,0,0,1-.5.7,5.863,5.863,0,0,1-1.9,1.3,5.307,5.307,0,0,1-5.3-.4,3.924,3.924,0,0,1-1.8-1.8Z" fill="#d94934"/>
        <path id="Path_45713" data-name="Path 45713" d="M81.2,73.6c.2.1.3.4.4.6a4.809,4.809,0,0,0,3.2,2,5.659,5.659,0,0,0,3.4-.4,8.016,8.016,0,0,0,1.9-1.3l.6-.6a1.558,1.558,0,0,1-.3,1.2A5.706,5.706,0,0,1,89,76.4a6.667,6.667,0,0,1-2.1.9c-.3.1-.4.3-.6.5a4.529,4.529,0,0,0-.3,1.6c0,.5-.1,1.1-.1,1.7a.367.367,0,0,1-.1-.3,17.852,17.852,0,0,0-.2-2.3,2.614,2.614,0,0,0-.3-.8.9.9,0,0,0-.6-.6,12.445,12.445,0,0,1-2-1,5.241,5.241,0,0,1-1.1-1A1.24,1.24,0,0,1,81.2,73.6Z" fill="#d53a2b"/>
        <path id="Path_45714" data-name="Path 45714" d="M96.4,50.3a2.075,2.075,0,0,0-.6,1v.2c0,.1.1.2.1.3h0c.1.2.1.2.2.2h.1l.1.1c0,.2,0,.4-.2.5a2.232,2.232,0,0,1-.6-1.3,4.588,4.588,0,0,1,.3-2.6c.1-.1.1-.3.2-.4.1,0,.2,0,.2.1a4.133,4.133,0,0,1,.2,1.9Z" fill="#e38066"/>
        <path id="Path_45715" data-name="Path 45715" d="M99,51.8h.1s0-.1.1,0h.1c.1,0,.1.1.2.1l.3.6a1.612,1.612,0,0,0-.4-.7v-.1h.1a.215.215,0,0,1,.2.2c.1.1.1.3.2.4a.758.758,0,0,1,.2.4.758.758,0,0,1-.2-.4c-.1-.2-.3-.4-.3-.6h0a.1.1,0,0,0,.1-.1,4.234,4.234,0,0,1,.5.7c-.2-.2-.3-.5-.5-.7a.1.1,0,0,1,.1-.1h0a.1.1,0,0,1,.1-.1h0a.1.1,0,0,1,.1-.1h.1c.2,0,.2.1.3.2s.2.2.3.2h.1l.2.2h.1l.1.1h0a3.413,3.413,0,0,1-1.7,1.4.215.215,0,0,1-.2-.2c-.1-.1-.1-.2-.1-.4a.367.367,0,0,1-.1-.3v-.1c-.1-.3-.2-.4-.1-.6Z" fill="#e38165"/>
        <path id="Path_45716" data-name="Path 45716" d="M95.7,44a2.186,2.186,0,0,0,.3.5c.1.2,0,.3-.1.4-.2.1-.4,0-.6.1h0a3.745,3.745,0,0,1-.7-1.2,3.553,3.553,0,0,1-.2-1c.2-.1.2.1.3.1a.367.367,0,0,0,.1.3.1.1,0,0,1,.1.1C94.9,43.8,95.3,43.9,95.7,44Z" fill="#e38066"/>
        <path id="Path_45717" data-name="Path 45717" d="M101.1,44.2h0l-.1-.1c0-.1,0-.1-.1-.2a.349.349,0,0,0-.1-.2c0-.1-.1-.1-.1-.2v-.1c-.2-.3-.3-.3-.3-.5.2-.1.3-.4.5-.5a6.376,6.376,0,0,1,.8,1.4C101.5,44.1,101.4,44.2,101.1,44.2Z" fill="#e38164"/>
        <path id="Path_45718" data-name="Path 45718" d="M99.1,42.2l-.1-.1h0a.1.1,0,0,0-.1-.1v-.1c.1-.3.3-.5.4-.8h0a4.876,4.876,0,0,0-.3.7s-.1.1-.1,0h-.1v-.1c0-.2.2-.4.3-.6,0-.1.1-.1,0-.2-.1-.2-.1-.2.1-.3a2.7,2.7,0,0,1,.8.7c-.1,0-.1.2-.2.2a2.092,2.092,0,0,0-.4.6h0C99.2,42.1,99.2,42.2,99.1,42.2Z" fill="#e38165"/>
        <path id="Path_45719" data-name="Path 45719" d="M94.7,42.5a.1.1,0,0,1-.1.1c-.3-.1-.4-.2-.3-.5a2.836,2.836,0,0,1,.4-1.3.349.349,0,0,0,.1.2c0,.1,0,.1.1.2h0l.3.6v.1a.1.1,0,0,1-.1.1l-.1.1-.1.1h-.1c.1.2,0,.3-.1.3h0l-.1-.1a.1.1,0,0,1,.1.1Z" fill="#e38164"/>
        <path id="Path_45720" data-name="Path 45720" d="M100.3,50.4h.1a9.291,9.291,0,0,0,1,.5.349.349,0,0,1,.2.1h0a4.349,4.349,0,0,1-.4.7h0c-.1,0-.1-.1-.2-.1h0c-.1-.1-.2-.1-.2-.2h0c-.2-.2-.4-.3-.6-.5v-.1h0c.1,0,0-.1.1-.1.1-.1.2,0,.3.1.2.1.3.2.5.3.1.1.2.1.3.2a1.007,1.007,0,0,0-.3-.1,2.01,2.01,0,0,0-.8-.4Z" fill="#e38165"/>
        <path id="Path_45721" data-name="Path 45721" d="M101.6,50.3c.1,0,.1.1.2,0-.1-.1-.2-.1-.3-.2s-.2-.2-.3-.1H101c.1,0,0-.1,0-.1,0-.1,0-.2.1-.2l.6.3a.1.1,0,0,1,.1.1c-.1,0-.1,0-.1-.1l-.6-.3v-.1h0a.139.139,0,0,1,.2,0c.2.1.5.2.7.3.1,0,.1.1.1.2-.1.2-.1.5-.3.7,0-.3-.2-.3-.2-.5Z" fill="#e38165"/>
        <path id="Path_45722" data-name="Path 45722" d="M99.1,40.6c0,.1-.3.1-.1.3a1.8,1.8,0,0,1-.4.9h-.2c-.1,0-.1-.1-.2-.1v-.1c.1-.3.2-.7.3-1,0-.1,0-.1.1-.2.1,0,.2,0,.2.1,0,.2-.2.4-.2.7-.1.1-.1.3-.2.4h0a3.553,3.553,0,0,1,.4-.9c.1-.1,0-.2.3-.1Z" fill="#e38165"/>
        <path id="Path_45723" data-name="Path 45723" d="M97.5,52.2h0a1.077,1.077,0,0,1,.2.8.6.6,0,0,0,.1.4h0a1.268,1.268,0,0,1-.6-.1c-.1-.1-.1-.1,0-.2v-.6a.367.367,0,0,1,.1-.3h.1a2.485,2.485,0,0,1,.1.8c0-.2-.1-.5-.1-.7C97.4,52.4,97.4,52.3,97.5,52.2Z" fill="#e38165"/>
        <path id="Path_45724" data-name="Path 45724" d="M98,40a.367.367,0,0,1,.3.1v.1a6.106,6.106,0,0,1-.3,1.3h-.1c-.1-.2,0-.3,0-.5s.1-.5.1-.7c-.1.3-.1.7-.2,1,0,.1,0,.2-.1.2s-.1-.1-.1-.2a3.4,3.4,0,0,0,.1-1C97.8,40.1,97.8,40,98,40Z" fill="#e38165"/>
        <path id="Path_45725" data-name="Path 45725" d="M102.4,46.1a1.268,1.268,0,0,1,.1.6H102c-.1,0-.2,0-.2-.1a.6.6,0,0,1-.1-.4v-.1Z" fill="#e17c60"/>
        <path id="Path_45726" data-name="Path 45726" d="M96.4,50.3a3.922,3.922,0,0,0-.4-1.8.215.215,0,0,0-.2-.2v-.1c0-.1.1-.1.1-.2a2.273,2.273,0,0,1,.5,1.8v.3a.139.139,0,0,1,0,.2Z" fill="#dc6e53"/>
        <path id="Path_45727" data-name="Path 45727" d="M98,40h0a8.875,8.875,0,0,0-.3,1.4c.2-.4.2-.9.4-1.4,0,.5-.2,1-.2,1.4h-.5a3.352,3.352,0,0,1,0-1,1.268,1.268,0,0,1,.1-.6h.2c-.1.4,0,.9-.1,1.3.1-.3.1-.7.2-1a.367.367,0,0,1,.1-.3C97.9,39.9,98,39.9,98,40Z" fill="#de7359"/>
        <path id="Path_45728" data-name="Path 45728" d="M97.8,39.9c-.1.5-.1.9-.2,1.4,0,.1,0,.1-.1.1a.1.1,0,0,1-.1-.1c0-.4.1-.9.1-1.3,0-.1,0-.1.1-.1Z" fill="#e38266"/>
        <path id="Path_45729" data-name="Path 45729" d="M102.1,49.9h0c-.4-.2-.6-.4-.9-.4h0v-.1l.1-.1c.1-.1.1,0,.2,0a1.854,1.854,0,0,0,.7.2.6.6,0,0,1-.1.4Z" fill="#e17c60"/>
        <path id="Path_45730" data-name="Path 45730" d="M99.2,52.6c.1.2.1.4.3.6a.367.367,0,0,1-.3.1h-.1c-.2-.5-.3-.9-.5-1.4v-.1h.1c.1.1.1.3.2.5h0C99.1,52.4,99.1,52.5,99.2,52.6Z" fill="#e38165"/>
        <path id="Path_45731" data-name="Path 45731" d="M98.3,40.2h0c.1,0,.3,0,.3.1v.1c-.1.3-.2.7-.3,1h0c-.1.1-.2.1-.2,0l.3-1.2C98.3,40.3,98.3,40.2,98.3,40.2Z" fill="#e38165"/>
        <path id="Path_45732" data-name="Path 45732" d="M97.5,39.9a9.7,9.7,0,0,1-.1,1.7h-.1V40.2c-.1-.3-.1-.4.2-.3C97.4,39.8,97.5,39.8,97.5,39.9Z" fill="#e48166"/>
        <path id="Path_45733" data-name="Path 45733" d="M101.5,45.6a.1.1,0,0,1-.1-.1s-.1,0,0-.1a1.612,1.612,0,0,0,.7-.4.6.6,0,0,1,.1.4C102,45.5,101.8,45.7,101.5,45.6Z" fill="#e07b60"/>
        <path id="Path_45734" data-name="Path 45734" d="M97.2,41.6h0c-.2-.1-.1-.3-.2-.5A4.052,4.052,0,0,1,97,40v-.2h.1a.6.6,0,0,1,.1.4,3.3,3.3,0,0,1,0,1.4Z" fill="#e48166"/>
        <path id="Path_45735" data-name="Path 45735" d="M96.6,52.2a.1.1,0,0,1,.1.1c.1,0,.2.1.1.2v.6c0,.1,0,.1-.1.1a.349.349,0,0,1-.2-.1.188.188,0,0,1,0-.3c0-.1.1-.3,0-.4,0-.1,0-.1.1-.2Z" fill="#e17e63"/>
        <path id="Path_45736" data-name="Path 45736" d="M96.5,52.3h0a1.445,1.445,0,0,1-.2.7l-.3-.3c.1-.2.2-.3.2-.5h.1a.1.1,0,0,1,.1.1C96.4,52.2,96.4,52.2,96.5,52.3Z" fill="#e07b60"/>
        <path id="Path_45737" data-name="Path 45737" d="M101.7,47.1h0a.367.367,0,0,1,.3-.1.9.9,0,0,0,.5-.1,2.045,2.045,0,0,1,0,1.1v-.5c0-.2-.1-.2-.2-.2a1.268,1.268,0,0,1-.6-.1c.1-.1.3,0,.4,0h0a.6.6,0,0,1-.4-.1Z" fill="#dd745a"/>
        <path id="Path_45738" data-name="Path 45738" d="M102.4,48.6h0a2.134,2.134,0,0,1-.8,0c-.1,0-.2-.1-.1-.2h0a1.1,1.1,0,0,1,.8,0C102.5,48.4,102.5,48.5,102.4,48.6Z" fill="#e38165"/>
        <path id="Path_45739" data-name="Path 45739" d="M97.2,41.6V39.8h.2c-.2,0-.2.2-.1.3a4.819,4.819,0,0,1,0,1.2.367.367,0,0,1-.1.3Z" fill="#df755b"/>
        <path id="Path_45740" data-name="Path 45740" d="M96.7,53.2l.1-.1a1.268,1.268,0,0,1,.1-.6c0-.1,0-.1.1-.1h0a2.719,2.719,0,0,1,0,.9v.1C96.9,53.3,96.8,53.2,96.7,53.2Z" fill="#e38165"/>
        <path id="Path_45741" data-name="Path 45741" d="M94.3,42.2a.623.623,0,0,0,.3.5h0c-.1,0,0,.1-.1.2h0c-.1.1-.1-.2-.3-.1C94.3,42.6,94.2,42.4,94.3,42.2Z" fill="#e07a5f"/>
        <path id="Path_45742" data-name="Path 45742" d="M102.3,49.2h0c-.1.2-.2.1-.3.1-.2,0-.3-.1-.5-.2-.1,0-.2-.1-.1-.2h0c.3-.1.6.1.8.1C102.4,49.1,102.4,49.1,102.3,49.2Z" fill="#e48265"/>
        <path id="Path_45743" data-name="Path 45743" d="M102.5,47c0,.1,0,.2-.2.2h-.6v-.1h0c0-.1.1-.1.2-.1.2-.1.4-.2.6,0Z" fill="#e38165"/>
        <path id="Path_45744" data-name="Path 45744" d="M101.5,48.4c0,.1.1.1.2.1a1.7,1.7,0,0,1,.7.1h0c-.2.1-.4,0-.6,0,.2.1.4,0,.7.1v.1a1.412,1.412,0,0,1-.9-.1h0v-.1c-.1,0-.1,0-.1-.2Z" fill="#df7259"/>
        <path id="Path_45745" data-name="Path 45745" d="M102.3,49.5c-.3.1-.5-.1-.7-.2-.1,0-.1-.1-.2-.1v-.1c0-.1.1-.1.2-.1.3.1.5.1.8.2a.367.367,0,0,0-.1.3Z" fill="#e38165"/>
        <path id="Path_45746" data-name="Path 45746" d="M97,53.3h0v-1h0c.1,0,.1,0,.1.1v.9C97.1,53.4,97.1,53.3,97,53.3Z" fill="#e38165"/>
        <path id="Path_45747" data-name="Path 45747" d="M101.1,44.6v-.3h0c.2-.2.4-.2.6-.3.1,0,0,.1.1.1-.1.2-.3.2-.5.3.2,0,.3-.2.5-.1v.1c-.2.1-.4.1-.6.2Z" fill="#dd7258"/>
        <path id="Path_45748" data-name="Path 45748" d="M102.5,48.2v.1h-1c0-.1-.1-.2.1-.1A2.719,2.719,0,0,0,102.5,48.2Z" fill="#e48166"/>
        <path id="Path_45749" data-name="Path 45749" d="M101.7,44c-.1.2-.4.2-.6.3v-.1a.1.1,0,0,1,.1-.1c.2.1.3-.2.5-.1Z" fill="#e38266"/>
        <path id="Path_45750" data-name="Path 45750" d="M96.3,52.9c.1-.2.1-.4.2-.6.1,0,.1.1.1.2,0,.2-.1.4-.1.6C96.4,53,96.3,53,96.3,52.9Z" fill="#e38165"/>
        <path id="Path_45751" data-name="Path 45751" d="M101.5,48.8c.3,0,.6.1.9.1V49a.661.661,0,0,1-.6-.1.367.367,0,0,1-.3-.1Z" fill="#e38165"/>
        <path id="Path_45752" data-name="Path 45752" d="M101.5,45.6c.2,0,.4-.2.7-.2v.2a1.445,1.445,0,0,1-.7.2Z" fill="#e38365"/>
        <path id="Path_45753" data-name="Path 45753" d="M101.7,46.7c.2.1.4,0,.6,0,.1,0,.1,0,.2.1v.1c-.2.1-.4,0-.5,0s-.1,0-.2-.1a.1.1,0,0,1-.1-.1Z" fill="#e38165"/>
        <path id="Path_45754" data-name="Path 45754" d="M101.7,46.1h0v-.2a.821.821,0,0,1,.7-.1h0c.1.1-.1.1-.1.2a.6.6,0,0,1-.4.1C101.7,46.2,101.7,46.2,101.7,46.1Z" fill="#e38164"/>
        <path id="Path_45755" data-name="Path 45755" d="M101.8,44.3c-.2,0-.4.2-.7.2.2-.2.4-.2.6-.3C101.8,44.2,101.8,44.2,101.8,44.3Z" fill="#e48166"/>
        <path id="Path_45756" data-name="Path 45756" d="M101.7,46.1h0c.3-.1.5-.2.7-.1v.1A.854.854,0,0,1,101.7,46.1Z" fill="#e38165"/>
        <path id="Path_45757" data-name="Path 45757" d="M102.4,48.8c-.1.1-.3,0-.4,0-.2,0-.3-.1-.5-.1a2.769,2.769,0,0,1,.9.1Z" fill="#e38165"/>
        <path id="Path_45758" data-name="Path 45758" d="M99,40.5c-.2.2-.2.5-.3.8-.1.1-.1.2-.2.3a2.22,2.22,0,0,1,.5-1.1C98.9,40.4,98.9,40.5,99,40.5Z" fill="#de7158"/>
        <path id="Path_45759" data-name="Path 45759" d="M102.3,49.4c-.3-.1-.6-.3-.9-.2h0v-.1c0-.1,0-.1.1-.2h0V49c.3,0,.5.2.8.2Z" fill="#df745b"/>
        <path id="Path_45760" data-name="Path 45760" d="M102.5,48.2a2.719,2.719,0,0,1-.9,0,.1.1,0,0,0-.1.1v-.1h0v-.1a3.083,3.083,0,0,0,1,.1Z" fill="#df7259"/>
        <path id="Path_45761" data-name="Path 45761" d="M102.3,45.6h0v.1a1.445,1.445,0,0,1-.7.2v-.1a1.445,1.445,0,0,1,.7-.2Z" fill="#e38165"/>
        <path id="Path_45762" data-name="Path 45762" d="M101.5,48.9c.3,0,.6.1.9.1v.2a.1.1,0,0,0-.1-.1C102,49,101.7,49,101.5,48.9Z" fill="#dd7359"/>
        <path id="Path_45763" data-name="Path 45763" d="M102.3,45.6c-.2,0-.4.2-.7.2-.1,0-.1,0,0-.1a.844.844,0,0,0,.7-.2Z" fill="#df7259"/>
        <path id="Path_45764" data-name="Path 45764" d="M101.5,48.4h1v.2c0-.1,0-.2-.2-.2Z" fill="#df7259"/>
        <path id="Path_45765" data-name="Path 45765" d="M101.6,45.9a.844.844,0,0,0,.7-.2c.1,0,0,.1,0,.2Z" fill="#dc7057"/>
        <path id="Path_45766" data-name="Path 45766" d="M100.9,42.5c-.2.2-.3.4-.4.5h0a2.181,2.181,0,0,1,.4-.5Z" fill="#de7258"/>
        <path id="Path_45767" data-name="Path 45767" d="M102.4,46c-.2,0-.4.1-.6.1,0-.2.2-.1.3-.1.1-.1.3,0,.3-.1C102.4,45.9,102.4,45.9,102.4,46Z" fill="#dc7057"/>
        <path id="Path_45768" data-name="Path 45768" d="M101.9,46.9Z" fill="#da7057"/>
        <path id="Path_45769" data-name="Path 45769" d="M100.6,42.1c-.1,0-.2.2-.3.3a.52.52,0,0,1,.2-.4.1.1,0,0,1,.1.1Z" fill="#de7359"/>
        <path id="Path_45770" data-name="Path 45770" d="M81.2,56.7v.2h0C81.1,56.9,81.1,56.8,81.2,56.7Z" fill="#f6a873"/>
        <path id="Path_45771" data-name="Path 45771" d="M80.8,59.6h0c-.1,0-.1-.1-.1-.2,0-.3.1-.7.1-1,.1.1,0,.3.1.4v-.7h0a.1.1,0,0,1-.1.1c0-.4.1-.8.1-1.2.1.1,0,.3.1.5.2-.1,0-.3.1-.4v.5a3.751,3.751,0,0,0-.1,1.1v.4C80.9,59.3,80.8,59.4,80.8,59.6Z" fill="#f6a873"/>
        <path id="Path_45772" data-name="Path 45772" d="M81.1,57.5V57h0a.446.446,0,0,1,0,.5Z" fill="#fab487"/>
        <path id="Path_45773" data-name="Path 45773" d="M91.2,61.1v-.7h0c.1.1,0,.2.1.3V60c-.1-.4-.1-.9-.2-1.3A4.879,4.879,0,0,1,91,57v-.2a5.7,5.7,0,0,0,.1,1.3c.1.4.1.7.2,1.1.1.5.1,1,.2,1.5a16.605,16.605,0,0,1,.3,2.2v.3c-.2-.1-.1-.3-.1-.4v-.2a.1.1,0,0,0-.2,0c.1.2,0,.4,0,.5h0c-.1-.3-.1-.6-.2-.8s0-.4,0-.6a1.083,1.083,0,0,0-.1-.6Z" fill="#f9a773"/>
        <path id="Path_45774" data-name="Path 45774" d="M91.3,60c.1.3,0,.6.1.8a.1.1,0,0,1-.2,0v-.4C91.3,60.2,91.2,60.1,91.3,60Z" fill="#f89d65"/>
        <path id="Path_45775" data-name="Path 45775" d="M91.2,60.2c-.1-.2-.2-.3-.1-.5a.9.9,0,0,1,.1.5Z" fill="#f9a773"/>
        <path id="Path_45776" data-name="Path 45776" d="M80.4,62.8c-.1.2-.2.3-.2.5a.367.367,0,0,0-.1-.3c-.1-.2,0-.4,0-.6v-.2c.1-.2,0-.4.1-.6.1-.1.1,0,.2.1.1.3-.1.6,0,.9C80.3,62.7,80.3,62.8,80.4,62.8Z" fill="#f5a46d"/>
        <path id="Path_45777" data-name="Path 45777" d="M80.1,62.2c0,.3-.1.6-.1.9h-.1c0-.4.1-.7.1-1.1,0-.5.2-1,.2-1.5a1.7,1.7,0,0,1,.1-.7h0c.1-.1,0-.3,0-.4h0v.1a.188.188,0,0,1,0,.3v.1c-.1.3-.1.7-.2,1.1-.1.2,0,.4-.1.5v.1a.661.661,0,0,1,.1.6Z" fill="#fabd95"/>
        <path id="Path_45778" data-name="Path 45778" d="M80.6,59.3c.2.1.1.2.1.3v.5a.1.1,0,0,1-.1.1c-.1,0-.1-.1-.1-.2v-.3h0c.1-.1,0-.2,0-.3C80.6,59.5,80.5,59.4,80.6,59.3Z" fill="#f7a165"/>
        <path id="Path_45779" data-name="Path 45779" d="M80.8,58.2c.1-.1,0-.2.1-.3v.9a.1.1,0,0,1-.1.1c-.1,0,0-.1,0-.1v-.6Z" fill="#f89e5e"/>
        <path id="Path_45780" data-name="Path 45780" d="M80.6,59.5v.3C80.5,59.8,80.5,59.6,80.6,59.5Z" fill="#f9a974"/>
        <path id="Path_45781" data-name="Path 45781" d="M80.5,59.9v.5c.2,0,.1-.2.2-.3.1.2,0,.3-.1.5a1.268,1.268,0,0,0-.1.6v.6c-.1.1-.1.1-.1,0a.1.1,0,0,0-.1-.1c0-.1,0-.1-.1,0v-.1h0c.1-.2,0-.4.1-.5a3.73,3.73,0,0,1,.2-1.2Z" fill="#f9a974"/>
        <path id="Path_45782" data-name="Path 45782" d="M80.3,61.7s.1-.1.1,0,0,.1.1.1c-.1.4-.3.7-.2,1.1-.1-.2,0-.4,0-.7Z" fill="#f7ab7b"/>
        <path id="Path_45783" data-name="Path 45783" d="M80.6,61.1a.616.616,0,0,1,.1-.7.9.9,0,0,0,.1-.5v-.3h0v.5a.9.9,0,0,1-.1.5C80.5,60.8,80.5,61,80.6,61.1Z" fill="#f7ab7b"/>
        <path id="Path_45784" data-name="Path 45784" d="M81.1,57.5h0v.3c-.1.2,0,.4-.1.5,0,.2.1.5,0,.7v-.8C80.9,57.9,81.1,57.7,81.1,57.5Z" fill="#f7ab7b"/>
        <path id="Path_45785" data-name="Path 45785" d="M80.8,59.6c0-.2.1-.3.2-.5C81,59.3,80.9,59.4,80.8,59.6Z" fill="#f7ab7b"/>
        <path id="Path_45786" data-name="Path 45786" d="M81,58.3c0-.2,0-.3.1-.4A.6.6,0,0,1,81,58.3Z" fill="#fab487"/>
        <path id="Path_45787" data-name="Path 45787" d="M91,60.1a.735.735,0,0,1,.2.6V61a2.354,2.354,0,0,1,.2.8.749.749,0,0,0,.1.5c.1.2,0,.3-.1.5v.1a1.7,1.7,0,0,1-.1-.7c0-.4-.2-.7-.2-1.1C91.1,60.8,91,60.5,91,60.1Z" fill="#fab68b"/>
        <path id="Path_45788" data-name="Path 45788" d="M91.4,62.9c.1-.4-.1-.8-.1-1.2,0-.2-.2-.3-.1-.6a.52.52,0,0,1,.2.4,5.854,5.854,0,0,0,.2,1.3v.4C91.5,63,91.6,62.8,91.4,62.9Z" fill="#faad7b"/>
        <path id="Path_45789" data-name="Path 45789" d="M96.5,43.6c-.1-.1,0-.2-.1-.3-.2-.4-.1-.7-.2-1.1a.1.1,0,0,1,.1-.1A2,2,0,0,1,96.5,43.6Z" fill="#d34939"/>
        <path id="Path_45790" data-name="Path 45790" d="M95.3,42.1h0c.1-.1.1-.1.2-.1h.1c.1.3.3.6.4.9,0,.1.1.2.1.3H96v-.1a3.047,3.047,0,0,1-.7-1Z" fill="#da5442"/>
        <path id="Path_45791" data-name="Path 45791" d="M96.3,42.1c-.1.1,0,.1,0,.2.1.3.1.7.2,1h0a5.637,5.637,0,0,0-.4-1.2V42h.1l.1.1Z" fill="#db5543"/>
        <path id="Path_45792" data-name="Path 45792" d="M97,40c0,.1.1.3,0,.4a4.819,4.819,0,0,1,0,1.2h0a.1.1,0,0,1-.1.1V40.3C97,40.2,96.9,40.1,97,40Z" fill="#df755b"/>
        <path id="Path_45793" data-name="Path 45793" d="M97,41.7h0a5.9,5.9,0,0,1,.2,1.4,6.753,6.753,0,0,1-.2-1.4Z" fill="#d04335"/>
        <path id="Path_45794" data-name="Path 45794" d="M96,42h0a6.117,6.117,0,0,1-.5-1.2v-.1h0c.2.3.2.7.4,1C96,41.7,96,41.8,96,42Z" fill="#de7157"/>
        <path id="Path_45795" data-name="Path 45795" d="M95.5,42h0c-.2-.4-.3-.7-.5-1.1h0c.1.3.3.6.4.9a.215.215,0,0,0,.2.2Z" fill="#dd755b"/>
        <path id="Path_45796" data-name="Path 45796" d="M95.8,41.9h0c-.1.1-.1,0,0,0a2.46,2.46,0,0,1-.4-1.1A3.582,3.582,0,0,0,95.8,41.9Z" fill="#dd745a"/>
        <path id="Path_45797" data-name="Path 45797" d="M96,41.4c-.1-.3-.2-.6-.3-1a1.689,1.689,0,0,1,.3,1Z" fill="#dd745a"/>
        <path id="Path_45798" data-name="Path 45798" d="M95.3,42h0a1.493,1.493,0,0,1-.3-.7,4.875,4.875,0,0,0,.3.7Z" fill="#dd735a"/>
        <path id="Path_45799" data-name="Path 45799" d="M96,41.4h0a1.421,1.421,0,0,1,.2.6h-.1C96.2,41.8,96,41.6,96,41.4Z" fill="#de6f56"/>
        <path id="Path_45800" data-name="Path 45800" d="M95.5,40.6c-.1-.1-.1-.1-.1-.2C95.5,40.4,95.5,40.5,95.5,40.6Z" fill="#de7157"/>
        <path id="Path_45801" data-name="Path 45801" d="M95,41.4c-.1,0-.1-.1-.1-.2a.349.349,0,0,1,.1.2Z" fill="#dd735a"/>
        <path id="Path_45802" data-name="Path 45802" d="M97.8,52a1.486,1.486,0,0,1-.2-.9c0-.2-.2-.3-.1-.5a3,3,0,0,1,.4,1,.756.756,0,0,1-.1.4Z" fill="#d04335"/>
        <path id="Path_45803" data-name="Path 45803" d="M98.6,51.8a6.469,6.469,0,0,1-.4-1.3A6.468,6.468,0,0,1,98.6,51.8Z" fill="#cf4335"/>
        <path id="Path_45804" data-name="Path 45804" d="M98.7,51.8c.1.5.3,1,.4,1.5A8.331,8.331,0,0,1,98.7,51.8Z" fill="#dd7359"/>
        <path id="Path_45805" data-name="Path 45805" d="M97.8,53.4c-.2-.3-.1-.6-.2-.9a.367.367,0,0,0-.1-.3h.1C97.7,52.6,97.7,53,97.8,53.4Z" fill="#de765b"/>
        <path id="Path_45806" data-name="Path 45806" d="M97.7,52.2c0-.1.1-.1,0,0a1.215,1.215,0,0,1,.2.9,6.373,6.373,0,0,0-.2-.9Z" fill="#de7158"/>
        <path id="Path_45807" data-name="Path 45807" d="M100.4,43h0c.1.1.2.2.2.3a3.819,3.819,0,0,1-.9.9c-.1-.1-.1.1-.2.1s-.1.1-.2,0v-.1h0c0-.1.1-.1.1-.2h0c0-.1.1-.1.1-.2h0A7.272,7.272,0,0,0,100.4,43Z" fill="#da5442"/>
        <path id="Path_45808" data-name="Path 45808" d="M99.3,42.1c.1-.2.2-.5.4-.6C99.6,41.7,99.4,41.9,99.3,42.1Z" fill="#da7056"/>
        <path id="Path_45809" data-name="Path 45809" d="M100.1,42.3c0,.1-.1.2-.2.3C100,42.5,100,42.4,100.1,42.3Z" fill="#dd7157"/>
        <path id="Path_45810" data-name="Path 45810" d="M100.1,42.3c0-.1,0-.2.1-.2C100.2,42.2,100.2,42.2,100.1,42.3Z" fill="#de7359"/>
        <path id="Path_45811" data-name="Path 45811" d="M100.6,42.4c0,.1,0,.1-.1.1A.1.1,0,0,1,100.6,42.4Z" fill="#da7257"/>
        <path id="Path_45812" data-name="Path 45812" d="M99.1,42.2l.1-.1C99.3,42.2,99.2,42.2,99.1,42.2Z" fill="#da7056"/>
        <path id="Path_45813" data-name="Path 45813" d="M100.1,51h0c-.1.1-.2,0-.3,0a1.205,1.205,0,0,1-.5-.5c.1.2.4.3.5.5h0a1.65,1.65,0,0,1-.8-1A5.242,5.242,0,0,0,100.1,51Z" fill="#ce3e33"/>
        <path id="Path_45814" data-name="Path 45814" d="M99.4,51.6h0c0,.1-.1.1-.1,0a8.8,8.8,0,0,0-.6-1c0-.1-.1-.2-.1-.3C98.9,50.7,99.1,51.2,99.4,51.6Z" fill="#cd3e32"/>
        <path id="Path_45815" data-name="Path 45815" d="M99,51.8h0a3.506,3.506,0,0,1-.6-1.4C98.6,50.8,98.8,51.3,99,51.8Z" fill="#ce4235"/>
        <path id="Path_45816" data-name="Path 45816" d="M99.2,51.7h0l-.6-.9c0-.1-.1-.2-.1-.3h0a2.507,2.507,0,0,1,.4.7A1.332,1.332,0,0,1,99.2,51.7Z" fill="#cd3e33"/>
        <path id="Path_45817" data-name="Path 45817" d="M99.2,49.8h0c.1-.1.1-.1.2-.1a2.044,2.044,0,0,1,.9.5h0c0,.1-.1,0-.1,0a10.377,10.377,0,0,1-1-.4Z" fill="#cd4031"/>
        <path id="Path_45818" data-name="Path 45818" d="M100.2,50.8h0a2.177,2.177,0,0,1-.8-.5h0c.2.1.4.3.6.4a.31.31,0,0,1,.2.1Z" fill="#cd3e32"/>
        <path id="Path_45819" data-name="Path 45819" d="M99.3,51.6h0a4.053,4.053,0,0,1,.5.9,7.254,7.254,0,0,1-.5-.9Z" fill="#de7057"/>
        <path id="Path_45820" data-name="Path 45820" d="M99.6,51.5a1,1,0,0,1-.4-.5c-.1-.1-.1-.2-.2-.3A5.547,5.547,0,0,1,99.6,51.5Z" fill="#cd3d32"/>
        <path id="Path_45821" data-name="Path 45821" d="M101,51c-.3-.1-.5-.3-.8-.4h0a1.506,1.506,0,0,1,.8.4Z" fill="#dd7157"/>
        <path id="Path_45822" data-name="Path 45822" d="M100.1,50.9c.2.2.4.3.6.5C100.5,51.4,100.3,51.1,100.1,50.9Z" fill="#dc7057"/>
        <path id="Path_45823" data-name="Path 45823" d="M98.9,50.4h0a1.2,1.2,0,0,1,.5.5h0C99.2,50.7,99,50.6,98.9,50.4Z" fill="#cf3f34"/>
        <path id="Path_45824" data-name="Path 45824" d="M99.9,52.2c-.1-.1-.2-.3-.3-.4a.215.215,0,0,0-.2-.2h.1a.675.675,0,0,1,.4.6Z" fill="#de7057"/>
        <path id="Path_45825" data-name="Path 45825" d="M99,50c-.1,0-.1-.2-.2,0a.1.1,0,0,1-.1-.1v-.1c0-.1.1,0,.1,0,.1.1.2.1.2.2Z" fill="#d14838"/>
        <path id="Path_45826" data-name="Path 45826" d="M100,50.4c-.2,0-.3-.2-.4-.3a1.38,1.38,0,0,1,.4.3Z" fill="#ce3f33"/>
        <path id="Path_45827" data-name="Path 45827" d="M99.4,50.9l.3.3C99.6,51.1,99.4,51.1,99.4,50.9Z" fill="#cb3c31"/>
        <path id="Path_45828" data-name="Path 45828" d="M99,50h0a.52.52,0,0,1,.4.2h0C99.2,50.2,99.2,50.1,99,50Z" fill="#cd3e32"/>
        <path id="Path_45829" data-name="Path 45829" d="M99.1,52.3c-.1-.1-.1-.3-.2-.5h0C99,52,99,52.1,99.1,52.3Z" fill="#de6e56"/>
        <path id="Path_45830" data-name="Path 45830" d="M99.9,51.2a.215.215,0,0,1-.2-.2h0C99.9,50.9,100,51,99.9,51.2Z" fill="#ce4034"/>
        <path id="Path_45831" data-name="Path 45831" d="M98.5,50.5a.31.31,0,0,1-.1-.2C98.5,50.3,98.5,50.4,98.5,50.5Z" fill="#cd3e33"/>
        <path id="Path_45832" data-name="Path 45832" d="M100.2,50.6a.349.349,0,0,1-.2-.1h0C100.1,50.4,100.2,50.5,100.2,50.6Z" fill="#ce3d30"/>
        <path id="Path_45833" data-name="Path 45833" d="M98.9,50.4c-.1.1-.1,0-.1,0C98.8,50.3,98.8,50.4,98.9,50.4Z" fill="#cf4335"/>
        <path id="Path_45834" data-name="Path 45834" d="M101.4,47.5a4.508,4.508,0,0,1-1.1-.3,3.545,3.545,0,0,1,1.1.3Z" fill="#cf4334"/>
        <path id="Path_45835" data-name="Path 45835" d="M101.5,48.2c-.1,0-.1-.1,0,0l-.1-.1h0a3.334,3.334,0,0,1,1,0c-.3,0-.5.1-.8.1C101.6,48.1,101.5,48.1,101.5,48.2Z" fill="#df7259"/>
        <path id="Path_45836" data-name="Path 45836" d="M101.7,47.1c.1,0,.3.1.4,0a.1.1,0,0,1,.1.1h-.5Z" fill="#e48166"/>
        <path id="Path_45837" data-name="Path 45837" d="M101.4,48.9c0,.1,0,.1-.1.2l-1.2-.3h0c.3,0,.6.1.9.1Z" fill="#db5542"/>
        <path id="Path_45838" data-name="Path 45838" d="M101.3,49.3h0c-.5-.1-.9-.3-1.4-.4h0C100.4,49,100.8,49.2,101.3,49.3Z" fill="#cd3f32"/>
        <path id="Path_45839" data-name="Path 45839" d="M101.5,48.5h0a8.534,8.534,0,0,1-1.6,0A8.534,8.534,0,0,1,101.5,48.5Z" fill="#cb3e32"/>
        <path id="Path_45840" data-name="Path 45840" d="M101.5,48.6h0a3.812,3.812,0,0,1-1.5-.1,3.4,3.4,0,0,1,1,.1Z" fill="#cf4336"/>
        <path id="Path_45841" data-name="Path 45841" d="M101.4,48.9a5.019,5.019,0,0,1-1.2-.2c-.1,0-.1,0-.2-.1h0c.4.1.7.1,1.1.2a.367.367,0,0,1,.3.1Z" fill="#cf4235"/>
        <path id="Path_45842" data-name="Path 45842" d="M101.4,48.1h0c-.5.1-1,.1-1.5.2A2.622,2.622,0,0,1,101.4,48.1Z" fill="#cf4336"/>
        <path id="Path_45843" data-name="Path 45843" d="M100.2,48.8l1.2.3h0a2.375,2.375,0,0,1-1.2-.3Z" fill="#cf4134"/>
        <path id="Path_45844" data-name="Path 45844" d="M101.2,47.9a5.019,5.019,0,0,1-1.2.2,1.721,1.721,0,0,1,1.2-.2Z" fill="#cf4334"/>
        <path id="Path_45845" data-name="Path 45845" d="M101.2,49.5h0a4.874,4.874,0,0,1-1.1-.4h0C100.5,49.2,100.8,49.4,101.2,49.5Z" fill="#cd3d32"/>
        <path id="Path_45846" data-name="Path 45846" d="M100,49.2c.3.2.6.3.9.5v.1a4.7,4.7,0,0,1-.9-.6Z" fill="#cf4234"/>
        <path id="Path_45847" data-name="Path 45847" d="M101.5,48.3Z" fill="#cb392f"/>
        <path id="Path_45848" data-name="Path 45848" d="M100.8,49.9h0a1.612,1.612,0,0,1-.7-.4h0a4.348,4.348,0,0,0,.7.4Z" fill="#ce3e31"/>
        <path id="Path_45849" data-name="Path 45849" d="M100.1,49.1h0c-.2,0-.2,0-.3-.1a.367.367,0,0,1,.3.1Z" fill="#ce4534"/>
        <path id="Path_45850" data-name="Path 45850" d="M100.1,49.5c-.1,0-.2-.1-.3-.2C100,49.3,100,49.4,100.1,49.5Z" fill="#cf4332"/>
        <path id="Path_45851" data-name="Path 45851" d="M100,49.2c-.1,0-.2,0-.2-.1C99.9,49.1,100,49.1,100,49.2Z" fill="#cf4234"/>
        <path id="Path_45852" data-name="Path 45852" d="M96.2,52.1h0l-.1-.1a5.023,5.023,0,0,1,.5-1.3h0v.1a9.288,9.288,0,0,1-.4,1.3Z" fill="#da5442"/>
        <path id="Path_45853" data-name="Path 45853" d="M97.4,52.3a10.87,10.87,0,0,1-.1-1.8,5.067,5.067,0,0,1,.2,1.3.749.749,0,0,0-.1.5Z" fill="#cf3f34"/>
        <path id="Path_45854" data-name="Path 45854" d="M96.6,52.2h0a8.752,8.752,0,0,1,.2-1.6h.1C96.8,51.2,96.7,51.7,96.6,52.2Z" fill="#cf4135"/>
        <path id="Path_45855" data-name="Path 45855" d="M96.2,52.1c.1-.5.3-.9.4-1.4a.1.1,0,0,1,.1-.1h0A4.424,4.424,0,0,1,96.2,52.1Z" fill="#cd3e33"/>
        <path id="Path_45856" data-name="Path 45856" d="M97,52.3a8.082,8.082,0,0,1,.1-1.6C97,51.2,97.1,51.8,97,52.3Z" fill="#cf4135"/>
        <path id="Path_45857" data-name="Path 45857" d="M96.8,52.3a8.754,8.754,0,0,1,.2-1.6C96.9,51.2,96.9,51.8,96.8,52.3Z" fill="#cf4134"/>
        <path id="Path_45858" data-name="Path 45858" d="M96.6,50.6c-.2.5-.3.9-.5,1.4h0a2.843,2.843,0,0,1,.4-1.2.31.31,0,0,1,.1-.2Z" fill="#ce3e32"/>
        <path id="Path_45859" data-name="Path 45859" d="M97.2,52.3a9.634,9.634,0,0,1,0-1.7Z" fill="#ca392f"/>
        <path id="Path_45860" data-name="Path 45860" d="M97.6,52.2c-.2-.3-.1-.7-.2-1,0-.1-.1-.3,0-.4a5.9,5.9,0,0,1,.2,1.4Z" fill="#cf4235"/>
        <path id="Path_45861" data-name="Path 45861" d="M95.9,51.9h0a1.777,1.777,0,0,1,.4-1h0C96.3,51.2,96,51.5,95.9,51.9Z" fill="#cf4134"/>
        <path id="Path_45862" data-name="Path 45862" d="M97.4,52.3h0c.1-.1.1,0,.1,0a.454.454,0,0,0,0,.5v.6a4.908,4.908,0,0,1-.1-1.1Z" fill="#dd765b"/>
        <path id="Path_45863" data-name="Path 45863" d="M97.1,52.3a2.719,2.719,0,0,0,0,.9.75.75,0,0,1,0-.9Z" fill="#de735a"/>
        <path id="Path_45864" data-name="Path 45864" d="M96.8,52.3H97c-.2.1-.1.3-.1.5a.367.367,0,0,1-.1.3Z" fill="#de735a"/>
        <path id="Path_45865" data-name="Path 45865" d="M97.2,52.3h0c0,.2.1.4,0,.6Z" fill="#de735a"/>
        <path id="Path_45866" data-name="Path 45866" d="M95.7,51.6v-.2c.1-.1.1-.2.2-.3C96,51.3,95.9,51.4,95.7,51.6Z" fill="#ce3f32"/>
        <path id="Path_45867" data-name="Path 45867" d="M96.3,50.9c0-.1,0-.1.1-.2C96.5,50.8,96.4,50.8,96.3,50.9Z" fill="#cc4232"/>
        <path id="Path_45868" data-name="Path 45868" d="M100.2,50.2a3.128,3.128,0,0,0-1-.5c-.1-.1-.2-.1-.3-.2C99.4,49.6,100.2,49.8,100.2,50.2Z" fill="#db5542"/>
        <path id="Path_45869" data-name="Path 45869" d="M101.6,51.1a9.292,9.292,0,0,0-1-.5.215.215,0,0,1-.2-.2A7.46,7.46,0,0,1,101.6,51.1Z" fill="#dd7259"/>
        <path id="Path_45870" data-name="Path 45870" d="M101.2,50a.367.367,0,0,1,.3.1C101.4,50.1,101.3,50,101.2,50Z" fill="#df6f57"/>
        <path id="Path_45871" data-name="Path 45871" d="M101.6,50.3h0c-.1-.1-.2-.1-.3-.2C101.4,50.2,101.5,50.2,101.6,50.3Z" fill="#df7259"/>
        <path id="Path_45872" data-name="Path 45872" d="M101,50h0l.1.1A.1.1,0,0,1,101,50Z" fill="#db7258"/>
        <path id="Path_45873" data-name="Path 45873" d="M101.1,45.3a8.794,8.794,0,0,1-1,.6c.2-.3.5-.4.7-.6Z" fill="#ce4133"/>
        <path id="Path_45874" data-name="Path 45874" d="M101.4,45.4h0a4.348,4.348,0,0,1-.7.4c-.1,0-.2.1-.3.1A9.291,9.291,0,0,1,101.4,45.4Z" fill="#cf3f31"/>
        <path id="Path_45875" data-name="Path 45875" d="M101.9,44.9c-.1.2-.3.2-.5.3C101.6,45.1,101.7,45,101.9,44.9Z" fill="#dd7258"/>
        <path id="Path_45876" data-name="Path 45876" d="M98,43.3v.1c0,.1,0,.2-.1.2s-.2-.1-.2-.3c-.1.1,0,.2-.1.2a1.7,1.7,0,0,1,.1-.7.1.1,0,0,0,.1.1h.1a.1.1,0,0,1,.1-.1h.1a.1.1,0,0,1,.1.1V43C98,43.2,98,43.2,98,43.3Z" fill="#d64e3e"/>
        <path id="Path_45877" data-name="Path 45877" d="M97.5,41.5h0v1.8a10.82,10.82,0,0,1,0-1.8Z" fill="#cb3d32"/>
        <path id="Path_45878" data-name="Path 45878" d="M98,43.3h0c0-.2,0-.3.1-.4a10.377,10.377,0,0,0,.4-1c0-.1,0-.2.2-.1h0a10.093,10.093,0,0,1-.7,1.5Z" fill="#cd3e33"/>
        <path id="Path_45879" data-name="Path 45879" d="M97.6,43.1c-.1-.1,0-.1,0-.2,0-.5.1-.9.1-1.4h.1c.1.2,0,.4,0,.6a2.769,2.769,0,0,1-.1.9A.1.1,0,0,1,97.6,43.1Z" fill="#ce3f34"/>
        <path id="Path_45880" data-name="Path 45880" d="M97.3,41.6h0c0,.6.1,1.1.1,1.6A4.454,4.454,0,0,1,97.3,41.6Z" fill="#cf3f34"/>
        <path id="Path_45881" data-name="Path 45881" d="M98.9,41.9h0a9.3,9.3,0,0,1-.5,1,.215.215,0,0,1-.2.2h0c.1-.3.3-.6.4-.9.1-.1.1-.2.3-.3Z" fill="#cd3e32"/>
        <path id="Path_45882" data-name="Path 45882" d="M98.9,41.9h0a3.552,3.552,0,0,1,.4-.9,7.933,7.933,0,0,1-.4.9Z" fill="#dd7259"/>
        <path id="Path_45883" data-name="Path 45883" d="M98.7,43.1a1.794,1.794,0,0,1,.5-.7h0a1.794,1.794,0,0,1-.5.7Z" fill="#ce4033"/>
        <path id="Path_45884" data-name="Path 45884" d="M98.7,42.7a2.092,2.092,0,0,1-.4.6,2.092,2.092,0,0,1,.4-.6Z" fill="#d04236"/>
        <path id="Path_45885" data-name="Path 45885" d="M98.7,42.7l.3-.6h0C99,42.3,98.8,42.5,98.7,42.7Z" fill="#ce3e32"/>
        <path id="Path_45886" data-name="Path 45886" d="M98.2,43.1c0,.1-.1.2-.2.3C98.1,43.3,98.1,43.2,98.2,43.1Z" fill="#cd3e32"/>
        <path id="Path_45887" data-name="Path 45887" d="M98.7,43.1c0,.1-.1.2-.2.3C98.5,43.2,98.6,43.1,98.7,43.1Z" fill="#ce4033"/>
        <path id="Path_45888" data-name="Path 45888" d="M99.5,44.2c.1,0,.1-.1.1,0h.3l.1.1c0,.1,0,.1-.1.1v.3a.749.749,0,0,1-.5.1c-.1,0-.1,0-.1-.1s-.1-.2-.2-.1c0-.2.2-.2.2-.3h.1C99.4,44.4,99.5,44.3,99.5,44.2Z" fill="#d54c3c"/>
        <path id="Path_45889" data-name="Path 45889" d="M99.1,44.1a7.458,7.458,0,0,1,.7-1.2C99.6,43.3,99.3,43.7,99.1,44.1Z" fill="#cf4134"/>
        <path id="Path_45890" data-name="Path 45890" d="M99.9,44.7h0a1,1,0,0,1,.5-.4c.1-.1.3-.1.4-.2.1,0,.1-.1.2,0v.1c-.3.1-.6.3-.9.4C100.1,44.7,100,44.7,99.9,44.7Z" fill="#cb3d31"/>
        <path id="Path_45891" data-name="Path 45891" d="M100.4,43c-.2.3-.5.6-.7.9A1.6,1.6,0,0,1,100.4,43Z" fill="#cb3c30"/>
        <path id="Path_45892" data-name="Path 45892" d="M101.1,44.3h0a1.777,1.777,0,0,1-1,.4h0a4.179,4.179,0,0,0,1-.4Z" fill="#ce4235"/>
        <path id="Path_45893" data-name="Path 45893" d="M99.6,43.6a1.794,1.794,0,0,1,.5-.7,1.794,1.794,0,0,1-.5.7Z" fill="#cd3f33"/>
        <path id="Path_45894" data-name="Path 45894" d="M101.1,44.6h0c-.2.1-.4.3-.6.2h0A1.421,1.421,0,0,0,101.1,44.6Z" fill="#ce4033"/>
        <path id="Path_45895" data-name="Path 45895" d="M100.4,44.8h0c-.1.2-.4.2-.6.2C100,44.9,100.2,44.9,100.4,44.8Z" fill="#d14536"/>
        <path id="Path_45896" data-name="Path 45896" d="M99.2,44.3c0-.2.1-.3.3-.4a1.381,1.381,0,0,0-.3.4Z" fill="#d24638"/>
        <path id="Path_45897" data-name="Path 45897" d="M100.1,44.8a.367.367,0,0,1-.3.1C100,44.8,100,44.8,100.1,44.8Z" fill="#ce4235"/>
        <path id="Path_45898" data-name="Path 45898" d="M99.4,44.4h-.1a.1.1,0,0,1,.1-.1Z" fill="#d04735"/>
        <path id="Path_45899" data-name="Path 45899" d="M99.6,43.9a.349.349,0,0,1-.1.2C99.5,43.9,99.6,43.9,99.6,43.9Z" fill="#cb3d31"/>
        <path id="Path_45900" data-name="Path 45900" d="M99.5,44a.349.349,0,0,1-.1.2C99.4,44.1,99.4,44.1,99.5,44Z" fill="#cf3f31"/>
        <path id="Path_45901" data-name="Path 45901" d="M95.1,42.2l.1-.1h0c.2.2.3.6.5.8a.349.349,0,0,0,.1.2h0c0,.1.1.1,0,.2s-.1,0-.1,0c0-.1-.1-.1-.2-.2l-.1-.1v-.1c-.1-.2-.2-.3-.3-.5C95.2,42.4,95.1,42.3,95.1,42.2Z" fill="#db5542"/>
        <path id="Path_45902" data-name="Path 45902" d="M96,42c.1.4.2.7.3,1.1v.2a.367.367,0,0,1-.1-.3l-.3-.9C96,42.1,95.9,42,96,42Z" fill="#d34939"/>
        <path id="Path_45903" data-name="Path 45903" d="M95.7,42h0a5.023,5.023,0,0,1,.5,1.3,11.217,11.217,0,0,1-.5-1.3Z" fill="#ce3f33"/>
        <path id="Path_45904" data-name="Path 45904" d="M94.8,42.5a9.958,9.958,0,0,0,1,1.1c-.4-.3-.6-.6-1-.9v-.2Z" fill="#cd3d32"/>
        <path id="Path_45905" data-name="Path 45905" d="M94.9,42.4h0c.3.1.4.4.7.6,0,.1.1.1.1.2-.1.1-.1,0-.1-.1a4.62,4.62,0,0,1-.7-.7Z" fill="#cf3e34"/>
        <path id="Path_45906" data-name="Path 45906" d="M94.7,42.7h0c.3.1.5.4.8.7a2.853,2.853,0,0,1-.8-.7Z" fill="#ce4033"/>
        <path id="Path_45907" data-name="Path 45907" d="M95.5,42h0a3.552,3.552,0,0,1,.4.9h0C95.8,42.6,95.6,42.3,95.5,42Z" fill="#cc3c31"/>
        <path id="Path_45908" data-name="Path 45908" d="M95.9,42.9h0c.2.1.2.3.3.5-.1-.1-.1-.2-.2-.3a.349.349,0,0,1-.1-.2Z" fill="#cf4335"/>
        <path id="Path_45909" data-name="Path 45909" d="M95.3,43.6a1.38,1.38,0,0,1-.4-.3h0C95.1,43.2,95.2,43.4,95.3,43.6Z" fill="#ce4032"/>
        <path id="Path_45910" data-name="Path 45910" d="M94.7,43.4l-.1-.1c.2,0,.2.1.3.2h0a.349.349,0,0,0-.2-.1Z" fill="#cb3f31"/>
        <path id="Path_45911" data-name="Path 45911" d="M95.5,43.5c.1,0,.2.1.3.2C95.7,43.7,95.6,43.6,95.5,43.5Z" fill="#ce4033"/>
        <path id="Path_45912" data-name="Path 45912" d="M94.9,43.2a.265.265,0,0,1-.3-.3h0Z" fill="#ce4032"/>
        <path id="Path_45913" data-name="Path 45913" d="M95,43.5h0c.1,0,.2.1.3.2C95.1,43.7,95,43.6,95,43.5Z" fill="#cc4233"/>
        <path id="Path_45914" data-name="Path 45914" d="M95.3,43.6h0c.1,0,.1.1.2.1h0a.349.349,0,0,1-.2-.1Z" fill="#d24337"/>
        <path id="Path_45915" data-name="Path 45915" d="M95.6,43.2c0-.1-.1-.1-.1-.2h.1C95.6,43.1,95.7,43.1,95.6,43.2Z" fill="#da5644"/>
        <path id="Path_45916" data-name="Path 45916" d="M95.7,43.2h0c.1-.1.1,0,.1.1Z" fill="#cf4134"/>
        <path id="Path_45917" data-name="Path 45917" d="M95.5,43.7c.1,0,.1,0,.2.1C95.6,43.8,95.5,43.8,95.5,43.7Z" fill="#d24337"/>
        <path id="Path_45918" data-name="Path 45918" d="M95.9,43.4v-.2H96C96,43.3,96,43.3,95.9,43.4Z" fill="#cf4134"/>
        <path id="Path_45919" data-name="Path 45919" d="M101.7,46.7v.1c-.1-.1-.2,0-.3,0h-.3c-.2,0-.4.1-.5,0a2.485,2.485,0,0,1,.8-.1c-.3,0-.6.1-.9.1h-.1c.3-.1.7-.2,1-.3.1,0,.2-.1.3,0Z" fill="#db5442"/>
        <path id="Path_45920" data-name="Path 45920" d="M101.6,45.7h0c0,.1,0,.1.1.1h0c-.4.2-.8.3-1.2.5-.1,0-.2.1-.3.1h-.1a2.186,2.186,0,0,0,.5-.3,3.362,3.362,0,0,1,1-.4Z" fill="#da5441"/>
        <path id="Path_45921" data-name="Path 45921" d="M101.7,47a8.6,8.6,0,0,1-1.6-.1,9.15,9.15,0,0,1,1.6.1Z" fill="#cf3f34"/>
        <path id="Path_45922" data-name="Path 45922" d="M101.6,45.9h0V46c-.4.1-.7.2-1.1.3-.1,0-.2.1-.2,0C100.7,46.2,101.1,46,101.6,45.9Z" fill="#d85441"/>
        <path id="Path_45923" data-name="Path 45923" d="M100.3,46.6c.4,0,.9-.1,1.3-.1v.1c-.4,0-.7.1-1.1.1-.2,0-.3.1-.5,0C100.2,46.6,100.3,46.7,100.3,46.6Z" fill="#cf4234"/>
        <path id="Path_45924" data-name="Path 45924" d="M101.6,45.9c-.4.1-.8.3-1.3.4-.1,0-.2.1-.3.1a9.83,9.83,0,0,1,1.6-.5Z" fill="#ce3e33"/>
        <path id="Path_45925" data-name="Path 45925" d="M101.1,46.7h.4c.1,0,.1,0,.2.1h-.8a.31.31,0,0,0,.2-.1Z" fill="#ce3d33"/>
        <path id="Path_45926" data-name="Path 45926" d="M101.6,47.3a6.752,6.752,0,0,1-1.4-.2c.2-.1.3,0,.4,0a2.152,2.152,0,0,0,.8,0C101.5,47.2,101.6,47.2,101.6,47.3Z" fill="#cf4336"/>
        <path id="Path_45927" data-name="Path 45927" d="M100.5,46.4a2.279,2.279,0,0,1,1.1-.3h0a3.091,3.091,0,0,1-.8.2A.367.367,0,0,1,100.5,46.4Z" fill="#ce3f33"/>
        <path id="Path_45928" data-name="Path 45928" d="M101.4,46.3a3.553,3.553,0,0,1-1,.2c.2-.2.4-.1.6-.2C101.1,46.4,101.2,46.3,101.4,46.3Z" fill="#cf4234"/>
        <path id="Path_45929" data-name="Path 45929" d="M100.4,46.1c-.2.1-.3.2-.5.2h0C100.1,46.3,100.2,46.2,100.4,46.1Z" fill="#cf4134"/>
        <path id="Path_45930" data-name="Path 45930" d="M101.4,46.3h0a.367.367,0,0,1,.3-.1h0A.367.367,0,0,1,101.4,46.3Z" fill="#cb3d31"/>
        <path id="Path_45931" data-name="Path 45931" d="M101.7,47h0v-.2h.1C101.9,46.9,101.8,46.9,101.7,47Z" fill="#e17c60"/>
        <path id="Path_45932" data-name="Path 45932" d="M100.4,46.1h0a3.7,3.7,0,0,1,1.1-.5.758.758,0,0,1-.4.2A1.08,1.08,0,0,1,100.4,46.1Z" fill="#cd3d32"/>
        <path id="Path_45933" data-name="Path 45933" d="M100,46.2l.2-.2C100.2,46.1,100.1,46.1,100,46.2Z" fill="#d04436"/>
        <path id="Path_45934" data-name="Path 45934" d="M99.9,51.2a.215.215,0,0,0-.2-.2l-.6-.6h0c.3.2.6.5.9.7Z" fill="#da5442"/>
        <path id="Path_45935" data-name="Path 45935" d="M99.7,51.4a2.407,2.407,0,0,1,.6.8,5.548,5.548,0,0,1-.6-.8Z" fill="#de7157"/>
        <path id="Path_45936" data-name="Path 45936" d="M100.2,51.6l.6.6h0a1.7,1.7,0,0,0-.6-.6Z" fill="#db7157"/>
        <path id="Path_45937" data-name="Path 45937" d="M99.5,52.6l-.3-.6h0a.864.864,0,0,1,.3.6Z" fill="#de7158"/>
        <path id="Path_45938" data-name="Path 45938" d="M99.9,52.2c.2.1.2.3.3.5a2.186,2.186,0,0,0-.3-.5Z" fill="#dd755a"/>
        <path id="Path_45939" data-name="Path 45939" d="M100.7,51.7l-.3-.3Z" fill="#dc6f56"/>
        <path id="Path_45940" data-name="Path 45940" d="M99.2,52.6h0a.367.367,0,0,1-.1-.3C99.2,52.4,99.1,52.5,99.2,52.6Z" fill="#dd7157"/>
        <path id="Path_45941" data-name="Path 45941" d="M100.7,51.5a.215.215,0,0,1,.2.2C100.8,51.7,100.8,51.6,100.7,51.5Z" fill="#de735a"/>
        <path id="Path_45942" data-name="Path 45942" d="M101,51.7a.349.349,0,0,1,.2.1.349.349,0,0,1-.2-.1Z" fill="#de735a"/>
        <path id="Path_45943" data-name="Path 45943" d="M99.9,51.3c.1,0,.1,0,.1.1A.1.1,0,0,1,99.9,51.3Z" fill="#da7256"/>
        <path id="Path_45944" data-name="Path 45944" d="M99.8,44.5a7.364,7.364,0,0,1,.6-.5,1.756,1.756,0,0,0,.5-.4h0a.31.31,0,0,1,.1.2h0c-.3.2-.7.4-1,.6C99.9,44.6,99.9,44.6,99.8,44.5Z" fill="#db5442"/>
        <path id="Path_45945" data-name="Path 45945" d="M99.9,44.3h0a1.344,1.344,0,0,1,.6-.7c.1-.1.1-.2.3-.2l.1.1h0c-.1.2-.3.2-.5.4a1,1,0,0,1-.5.4Z" fill="#da5442"/>
        <path id="Path_45946" data-name="Path 45946" d="M101.1,44.1c-.3.2-.6.3-.9.5-.1,0-.2.1-.3.1h0c.3-.2.7-.4,1-.6.1,0,.1-.1.2-.1h0C101,44,101,44,101.1,44.1Z" fill="#da5442"/>
        <path id="Path_45947" data-name="Path 45947" d="M99.8,44.3h0c-.1-.1-.1-.1,0-.1l.8-.8.1-.1.1.1c-.1.1-.2.2-.3.2A4.62,4.62,0,0,1,99.8,44.3Z" fill="#da5442"/>
        <path id="Path_45948" data-name="Path 45948" d="M100.7,43.3a9.429,9.429,0,0,0-1,1v-.1a9.018,9.018,0,0,1,1-.9Z" fill="#ce3e32"/>
        <path id="Path_45949" data-name="Path 45949" d="M100.5,43.7c.1,0,.2-.2.3-.2h0C100.7,43.6,100.6,43.6,100.5,43.7Z" fill="#ce3b31"/>
        <path id="Path_45950" data-name="Path 45950" d="M101,43.6c0-.1.1-.1.2-.1C101.2,43.6,101.1,43.6,101,43.6Z" fill="#dc6e56"/>
        <path id="Path_45951" data-name="Path 45951" d="M98.7,41.8a.4.4,0,0,0-.2.4,4.671,4.671,0,0,1-.5,1s-.1-.1,0-.1c.1-.5.3-.9.4-1.3l.1-.1h0c.1.1.1,0,.2.1Z" fill="#db5443"/>
        <path id="Path_45952" data-name="Path 45952" d="M98.7,41.8c-.1,0-.1,0-.1-.1.2,0,.2-.2.2-.3.1-.2.1-.3.2-.5.1,0,.1,0,.1.1a2.01,2.01,0,0,0-.4.8Z" fill="#de7159"/>
        <path id="Path_45953" data-name="Path 45953" d="M99.4,41.5a.758.758,0,0,1-.2.4A.52.52,0,0,1,99.4,41.5Z" fill="#de6f56"/>
        <path id="Path_45954" data-name="Path 45954" d="M99.4,41.5c0-.1,0-.2.1-.2a.31.31,0,0,1-.1.2Z" fill="#da7057"/>
        <path id="Path_45955" data-name="Path 45955" d="M95.6,43h0a2.336,2.336,0,0,1-.7-.7l.1-.1A4.173,4.173,0,0,1,95.6,43Z" fill="#db5442"/>
        <path id="Path_45956" data-name="Path 45956" d="M95.6,43a3.039,3.039,0,0,1-.5-.7h.1a4.347,4.347,0,0,1,.4.7Z" fill="#cf4134"/>
        <path id="Path_45957" data-name="Path 45957" d="M94.7,42.5c-.1-.1-.2-.1-.2-.3C94.6,42.3,94.7,42.4,94.7,42.5Z" fill="#de7158"/>
        <path id="Path_45958" data-name="Path 45958" d="M94.4,41.9c.1.1.2.1.2.2C94.5,42.1,94.5,42,94.4,41.9Z" fill="#da7158"/>
        <path id="Path_45959" data-name="Path 45959" d="M94.9,41.8c-.1,0-.1-.1-.2-.3C94.9,41.6,94.9,41.7,94.9,41.8Z" fill="#de7159"/>
        <path id="Path_45960" data-name="Path 45960" d="M94.9,41.8c.1,0,.1.1.1.2a.349.349,0,0,1-.1-.2Z" fill="#de7159"/>
        <path id="Path_45961" data-name="Path 45961" d="M101,51h0c.2,0,.3.1.5.2a.764.764,0,0,1-.5-.2Z" fill="#dd755a"/>
        <path id="Path_45962" data-name="Path 45962" d="M100.9,51.3c-.1-.1-.3-.1-.3-.2h0C100.7,51.1,100.9,51.2,100.9,51.3Z" fill="#da6e55"/>
        <path id="Path_45963" data-name="Path 45963" d="M100.9,51.3h0c.2,0,.2.1.3.2C101.1,51.4,101,51.3,100.9,51.3Z" fill="#e07259"/>
        <path id="Path_45964" data-name="Path 45964" d="M100.6,51c-.1,0-.2-.1-.3-.2C100.4,50.9,100.5,50.9,100.6,51Z" fill="#dc7056"/>
        <path id="Path_45965" data-name="Path 45965" d="M101.2,49.6c.2.1.4.1.6.3h0C101.6,49.8,101.3,49.8,101.2,49.6Z" fill="#dd7359"/>
        <path id="Path_45966" data-name="Path 45966" d="M101.8,49.9a.367.367,0,0,1,.3.1C101.9,50,101.8,50,101.8,49.9Z" fill="#dd7359"/>
        <path id="Path_45967" data-name="Path 45967" d="M97.6,43.1c0-.5.1-1.1.1-1.6h.2c.1.1.1,0,.2,0l.1.1c.1.2-.1.4-.1.5l-.3.9h0c-.1-.2,0-.3.1-.5.1-.3.1-.6.2-.9-.1.5-.2.9-.3,1.4,0,.1,0,.2-.2.1,0-.2.2-.5.2-.8,0-.2.1-.4.1-.6a5.768,5.768,0,0,1-.3,1.4C97.7,43.2,97.7,43.1,97.6,43.1Z" fill="#db5542"/>
        <path id="Path_45968" data-name="Path 45968" d="M97.9,43.1a4.874,4.874,0,0,1,.4-1.1c0-.1.1-.2.1-.3h.1c-.1.4-.3.8-.4,1.2-.1.1-.1.2-.2.2Z" fill="#ce4133"/>
        <path id="Path_45969" data-name="Path 45969" d="M98.2,41.5c.1-.4.2-.7.3-1a1.929,1.929,0,0,1-.3,1Z" fill="#dd7359"/>
        <path id="Path_45970" data-name="Path 45970" d="M98,41.5h0a5.853,5.853,0,0,1,.2-1.3c.1.1,0,.2,0,.3a2.959,2.959,0,0,1-.2,1Z" fill="#dd745a"/>
        <path id="Path_45971" data-name="Path 45971" d="M102.1,47.3c.1-.1,0-.1,0,0,.1-.1.2-.1.2,0v.1C102.3,47.3,102.2,47.3,102.1,47.3Z" fill="#e38066"/>
        <path id="Path_45972" data-name="Path 45972" d="M102.3,47.3h0c.1-.1.1-.1.1,0Z" fill="#e48166"/>
        <path id="Path_45973" data-name="Path 45973" d="M91.5,61.2a2.769,2.769,0,0,1,.1.9.1.1,0,0,1-.2,0,2.769,2.769,0,0,1,.1-.9Z" fill="#f89d66"/>
        <path id="Path_45974" data-name="Path 45974" d="M80.2,61.5h0a1.483,1.483,0,0,1-.1.7A1.7,1.7,0,0,1,80.2,61.5Z" fill="#f7ab7b"/>
        <path id="Path_45975" data-name="Path 45975" d="M80.3,61c0,.2.1.4-.1.5C80.3,61.3,80.2,61.2,80.3,61Z" fill="#f7ab7b"/>
        <path id="Path_45976" data-name="Path 45976" d="M95.9,43.2a3.88,3.88,0,0,1-.6-1.1c.1,0,.1,0,.1.1a9.292,9.292,0,0,1,.5,1Z" fill="#cf4134"/>
        <path id="Path_45977" data-name="Path 45977" d="M99.7,44a3.043,3.043,0,0,1,.8-.8A6.034,6.034,0,0,1,99.7,44Z" fill="#ce3d32"/>
        <path id="Path_45978" data-name="Path 45978" d="M99.4,44.4h0a.1.1,0,0,1,.1-.1C99.5,44.4,99.5,44.4,99.4,44.4Z" fill="#ce3d32"/>
        <path id="Path_45979" data-name="Path 45979" d="M97.7,43.2a8.753,8.753,0,0,1,.2-1.6H98C97.9,42.1,97.8,42.6,97.7,43.2Z" fill="#cf4133"/>
        <path id="Path_45980" data-name="Path 45980" d="M97.8,43a7,7,0,0,1,.3-1.4A5.769,5.769,0,0,1,97.8,43Z" fill="#cf4134"/>
        <path id="Path_45981" data-name="Path 45981" d="M101,43.9c-.1.2-.2.2-.4.3a2.994,2.994,0,0,1-.8.4c-.1,0,0-.1,0-.1a6.721,6.721,0,0,0,1.2-.6Z" fill="#ce3d32"/>
        <path id="Path_45982" data-name="Path 45982" d="M100.5,43.7h0l-.6.6h0C100,44,100.3,43.9,100.5,43.7Z" fill="#cf4135"/>
        <path id="Path_45983" data-name="Path 45983" d="M100.4,44c.2-.1.3-.2.5-.3C100.8,43.9,100.6,43.9,100.4,44Z" fill="#cb3e31"/>
        <path id="Path_45984" data-name="Path 45984" d="M100.4,44h0a.536.536,0,0,1-.4.3,1.38,1.38,0,0,1,.4-.3Z" fill="#cf4135"/>
      </g>
    </g>
  </g>
</svg>
